<svg xmlns="http://www.w3.org/2000/svg" xmlns:xlink="http://www.w3.org/1999/xlink" width="670" height="332" viewBox="0 0 670 332">
  <defs>
    <clipPath id="clip-path">
      <rect id="Rectángulo_375897" data-name="Rectángulo 375897" width="670" height="250.501" fill="#3b5620"/>
    </clipPath>
    <clipPath id="clip-path-3">
      <rect id="Rectángulo_375893" data-name="Rectángulo 375893" width="0.633" height="0.575" fill="#3b5620"/>
    </clipPath>
    <clipPath id="clip-path-6">
      <path id="Trazado_815493" data-name="Trazado 815493" d="M669.492,106.168V91.735h-3.331V69.53H658.39V65.089h-7.772V69.53h-7.772V91.735h-3.331v12.213h-1.11v62.174h-3.331V112.829h-4.441v-8.882H627.3V98.4h-3.331v-1.11h-1.11V95.065h-3.331v2.221h-9.992v-1.11h-3.331v1.11H605.1V89.514h-1.11V71.75h-1.11V63.978h-4.441V61.758H594v2.221h-1.11V71.75h-6.662V89.514h-4.441v7.772h-3.331V53.526l-2.046-.651h-1.285V45.9l-1.612-.8H568.46v-.385l-2.22-.655V37.408l-1.852-1.186H550.713l-2.238,1.186V93.955h-3.331v3.331h-1.11v-86.6h-.6l-.778-1.11h-.32l-.889-2.447-.889,2.447h-.32l-.777,1.11h.13v8.882h-1.11V16.237h-.234l-.221-.608-.222.608h-.433V9.576h.288l-.879-2.221h-.361l-1.006-2.768L534.4,7.355h-.357l-.006,2.2V19.568H508.506V116.16h-2.221v5.551h-1.11V40.917L503.8,32.891h-1.952v-.443L500.431,29.2l-2.459-.747H497.4V27.34h2.22V26.23h-8.882V28.45H488l-1.93.747-.883,3.251v.443h-3.012l-1.429,8.026V165.011h-2.221V50.655H466.316V48.435h-8.882v2.221h-8.882V75.081h-3.331V71.75h-1.11V67.309h-2.22V65.089H438.56V52.876h-5.551v-2.32l2.22.769V50.181l-2.22-.768V45.738l-9.992-15.469V34H420.8V30.269l-8.882,15.469v3.675l-2.221.766V48.435h-1.11v4.441h-4.441V155.019h-3.331V17.348H386.378v-1.11H371.945v1.11h-6.661V63.978h-9.992v2.347l-1.676-1.237h-.988l-2.887,4.258v5.734h-1.11V77.3h-1.11V88.4h-4.441v81.048h-2.221V90.624h-1.11v-1.11h-3.331V76.191h-1.11V66.2H334.2v-1.11h-1.11v-1.11h-1.11V61.758h-1.11V59.537h-1.11V57.317h-1.11v-.39l-.97-.721h-.14V53.986h-.7l-.52-1.011-.138,1.011h-.863v2.221h.021l-1.131.721v2.61h-1.11v2.221h-1.11v1.11h-1.11v2.221h-2.22V66.2h-1.11v54.4h-6.662V42.884H308.66v-1.11h-5.551V38.443H302v1.11h-1.11v2.221h-1.215v.09h-.633v-.09h-7.035v1.11H290.9v6.662H274.242v7.772H258.7v9.992h-4.091l-.181,96.029-2.542.42.2-111.992H239.825V20.678h-3.331V17.348h-6.107L230.036,0l-.352,17.348h-2.072v2.221H226.5V17.348h-3.331v-1.11H206.517v3.331h-1.355l-.866.4v1.822h2.221V22.9h-1.11v9.992h-3.331V30.671h-1.11V29.56h1.11V28.45h-2.221V24.009H186.532V28.45h-2.22v1.11h1.11V48.435H167.545l-.127,71.056h-2.34l.125-45.52h-.876V71.75h1.11V70.64h-1.11V68.419h1.11V66.2h-1.11v-1.11h1.11v-1.11h-1.11V61.758h1.11v-1.11h-1.11V58.427h1.11v-1.11h-2.22v-1.11h-8.882V55.1h-5.551v-1.11h-4.441v-1.11h-1.11v1.11H139.9v2.221h-4.441v1.11H132.13v1.11h1.11v2.221h-1.11v1.11h1.11v2.221h-1.11v1.11h1.11V66.2h-1.11v2.221h1.11V70.64h-1.11v1.11h1.11v2.221h-1.11v1.11h1.11v1.11h-1.11V77.3h1.11v2.221h-1.11v2.221h.921l.249,49.931-5.313-.4.2-80.618h.615V49.114l-5.077-1.79h-2.695V40.663h-9.992v-1.11h-1.11v1.11h-5.551v3.331H94.382V45.1h-1.11V41.773H78.838V45.1H71.066v4.441h1.11v1.11h-1.11v3.331h1.11v2.221h-1.11v1.11h1.11v2.221h-1.11v1.11h1.11v1.11h-1.11v3.331h1.11v2.221H71.035l-.4,76.607h-4.3l-.162-87.71H58.853v-.215L56.812,55.1h-2.4v1.11H52.192v-.215L51.22,55.1H48.861v1.11H45.3l.175,109.915H39.985L39.809,62.868H25.546V59.537H22.215v5.7L5.561,74.719v7.023H0L.58,250.5H669.42L670,106.168ZM411.914,52.876h-2.221V51.323l2.221-.767Zm11.1-7.772H420.8V35.112h2.221Z" fill="#3b5620"/>
    </clipPath>
    <clipPath id="clip-path-7">
      <rect id="Rectángulo_375670" data-name="Rectángulo 375670" width="314.825" height="313.984" fill="none"/>
    </clipPath>
    <clipPath id="clip-path-8">
      <path id="Trazado_815051" data-name="Trazado 815051" d="M162.273,0C92.867.052,48.37,52.412,41.9,60.275c-50.584,61.5-58.722,165.947-5.881,215.916,27.515,26.02,62.755,28.938,80.269,30.387,64.146,5.309,146.015-25.829,177.03-98.323,19.381-45.3,17.1-101.855-8.8-142.366a141.633,141.633,0,0,0-28.806-32.683c-4.39-3.62-40.5-32.68-91.943-33.2C163.343,0,162.916,0,162.49,0Z" transform="translate(0)" fill="none"/>
    </clipPath>
    <linearGradient id="linear-gradient" x1="0.174" y1="0.849" x2="0.175" y2="0.849" gradientUnits="objectBoundingBox">
      <stop offset="0" stop-color="#dae3fe"/>
      <stop offset="1" stop-color="#e9effd"/>
    </linearGradient>
    <clipPath id="clip-path-10">
      <rect id="Rectángulo_375615" data-name="Rectángulo 375615" width="65.49" height="64.783" fill="none"/>
    </clipPath>
    <clipPath id="clip-path-11">
      <rect id="Rectángulo_375616" data-name="Rectángulo 375616" width="67.523" height="68.915" fill="none"/>
    </clipPath>
    <clipPath id="clip-path-12">
      <rect id="Rectángulo_375617" data-name="Rectángulo 375617" width="30.566" height="48.25" fill="none"/>
    </clipPath>
    <clipPath id="clip-path-13">
      <rect id="Rectángulo_375618" data-name="Rectángulo 375618" width="44.294" height="25.746" fill="none"/>
    </clipPath>
    <clipPath id="clip-path-14">
      <path id="Trazado_815067" data-name="Trazado 815067" d="M415.646,97.554l-63.019,76.807a2.646,2.646,0,0,0,2.046,4.324h12.114L307.659,291.961l7.157,22.3h20.333a9.343,9.343,0,0,0,8.481-5.425L402.3,181.79l8.446.967a7.506,7.506,0,0,0,8.345-7.015l4.43-75.107a4.437,4.437,0,0,0-4.483-4.718,4.325,4.325,0,0,0-3.389,1.637" transform="translate(-307.659 -95.917)" fill="none"/>
    </clipPath>
    <linearGradient id="linear-gradient-2" x1="-0.54" y1="1.219" x2="-0.538" y2="1.219" gradientUnits="objectBoundingBox">
      <stop offset="0" stop-color="#4f52ff"/>
      <stop offset="1" stop-color="#4042e2"/>
    </linearGradient>
    <clipPath id="clip-path-15">
      <path id="Trazado_815068" data-name="Trazado 815068" d="M232.064,267.475,273.807,360.2a15.307,15.307,0,0,0,13.959,9.024h21.52a7.858,7.858,0,0,0,6.871-4.045l.765-1.38a6.152,6.152,0,0,1-5.48-3.356L255.824,251.471Z" transform="translate(-232.064 -251.471)" fill="none"/>
    </clipPath>
    <linearGradient id="linear-gradient-3" x1="-0.919" y1="1.138" x2="-0.915" y2="1.138" xlink:href="#linear-gradient-2"/>
    <clipPath id="clip-path-16">
      <path id="Trazado_815069" data-name="Trazado 815069" d="M175.5,241.766c-14.706,13.234-71.762,100.72-71.762,100.72l7.027,20.246H119.4a26.512,26.512,0,0,0,22.071-11.823L202.843,258.7a9.129,9.129,0,0,1,13.257-2.106l-3.038-7.362a24.1,24.1,0,0,0-8.48-10.686,20.079,20.079,0,0,0-11.624-3.731c-9.749,0-17.461,6.951-17.461,6.951" transform="translate(-103.735 -234.815)" fill="none"/>
    </clipPath>
    <linearGradient id="linear-gradient-4" x1="-0.226" y1="1.089" x2="-0.222" y2="1.089" xlink:href="#linear-gradient-2"/>
    <clipPath id="clip-path-17">
      <path id="Trazado_815070" data-name="Trazado 815070" d="M.511,309c9.006,3.164,39.632,34.208,54.293,54.589,5.217,7.253,12.976,21.015,21.91,21.015h8.115a22.128,22.128,0,0,0,18.955-10.711L105,371.877c-14.673,8.408-27.175-6.985-46.013-40.739s-28.293-36.975-28.293-36.975C10.785,296.161.511,309,.511,309" transform="translate(-0.511 -294.163)" fill="none"/>
    </clipPath>
    <linearGradient id="linear-gradient-5" x1="0.119" y1="1.077" x2="0.124" y2="1.077" xlink:href="#linear-gradient-2"/>
    <clipPath id="clip-path-19">
      <path id="Trazado_815075" data-name="Trazado 815075" d="M213.912,468.475a2.91,2.91,0,0,0,2.784,3.153c5.625.235,17.656.691,21.974.5a.947.947,0,0,0,.834-1.3,2.115,2.115,0,0,0-1.084-1.142l-19.875-9.134-3.509-.568s-.753,4.267-1.123,8.491" transform="translate(-213.901 -459.984)" fill="none"/>
    </clipPath>
    <linearGradient id="linear-gradient-6" x1="-5.171" y1="0.877" x2="-5.146" y2="0.877" gradientUnits="objectBoundingBox">
      <stop offset="0" stop-color="#09005d"/>
      <stop offset="1" stop-color="#1a0f91"/>
    </linearGradient>
    <clipPath id="clip-path-20">
      <path id="Trazado_815076" data-name="Trazado 815076" d="M214.7,455.677l.605,5.1s3.482,1.621,5.86-.2l-1.442-5.688Z" transform="translate(-214.7 -454.889)" fill="none"/>
    </clipPath>
    <linearGradient id="linear-gradient-7" x1="-21.476" y1="2.631" x2="-21.376" y2="2.631" gradientUnits="objectBoundingBox">
      <stop offset="0" stop-color="#febbba"/>
      <stop offset="1" stop-color="#ff928e"/>
    </linearGradient>
    <clipPath id="clip-path-21">
      <path id="Trazado_815077" data-name="Trazado 815077" d="M191.614,330.129s-1.391-35.009,0,1.235c1.245,32.435,10.788,66.389,12.779,73.165a1.708,1.708,0,0,0,1.694,1.225,17.255,17.255,0,0,0,5.674-1.153.992.992,0,0,0,.581-1.154c-6.967-29.208-5.825-94.386-5.563-95.719l-14.35,0Z" transform="translate(-190.996 -307.726)" fill="none"/>
    </clipPath>
    <linearGradient id="linear-gradient-8" x1="-5.521" y1="1.155" x2="-5.491" y2="1.155" xlink:href="#linear-gradient-6"/>
    <clipPath id="clip-path-22">
      <path id="Trazado_815078" data-name="Trazado 815078" d="M176.631,471.3a1.774,1.774,0,0,0,1.562,2.126c1.857.183,4.716.418,7.007.4a1.769,1.769,0,0,0,1.753-1.974,14.923,14.923,0,0,0-3.486-8.188l-4.475-.243s-1.2,2.154-2.361,7.879" transform="translate(-176.595 -463.426)" fill="none"/>
    </clipPath>
    <linearGradient id="linear-gradient-9" x1="-7.518" y1="1.109" x2="-7.474" y2="1.109" xlink:href="#linear-gradient-6"/>
    <clipPath id="clip-path-23">
      <path id="Trazado_815079" data-name="Trazado 815079" d="M178.673,453.111l1.415,7.718s1.4,1.041,4.167.286l-.676-8.3Z" transform="translate(-178.673 -452.812)" fill="none"/>
    </clipPath>
    <linearGradient id="linear-gradient-10" x1="-20.701" y1="2.333" x2="-20.585" y2="2.333" xlink:href="#linear-gradient-7"/>
    <clipPath id="clip-path-24">
      <path id="Trazado_815080" data-name="Trazado 815080" d="M171.563,308.852c-5.7,34.389,1.236,84.995,3.575,94.9a1.542,1.542,0,0,0,1.247,1.172,10.365,10.365,0,0,0,4.456-.178,1.415,1.415,0,0,0,1.018-1.3c.314-8.008-.251-57.167,5.058-76.6a4.409,4.409,0,0,1,1.7-2.434l10.3-7.327.79-11.841Z" transform="translate(-169.37 -305.245)" fill="none"/>
    </clipPath>
    <linearGradient id="linear-gradient-11" x1="-3.132" y1="1.166" x2="-3.113" y2="1.166" xlink:href="#linear-gradient-6"/>
    <clipPath id="clip-path-26">
      <path id="Trazado_815082" data-name="Trazado 815082" d="M285.061,169.394c-2.513,10.615-15.689,19.221-29.225,23.428.884,3.765,2.919,10.132,7.236,15.138,22.466-12.632,25.79-37.5,25.79-37.5a3.277,3.277,0,0,0-2.59-1.294,3.21,3.21,0,0,0-1.211.227" transform="translate(-255.836 -169.167)" fill="none"/>
    </clipPath>
    <linearGradient id="linear-gradient-12" x1="-5.01" y1="5.274" x2="-4.99" y2="5.274" xlink:href="#linear-gradient-7"/>
    <clipPath id="clip-path-27">
      <path id="Trazado_815083" data-name="Trazado 815083" d="M301.316,154.455c-.654.891.011,5.577.053,6.671,1.2,2.282,3.23,1.432,3.054.874a4.529,4.529,0,0,0,3.4-2.008c.742-1.053,1.526-2.4,2.1-3.435a4.588,4.588,0,0,0,.457-3.377,15.848,15.848,0,0,0-1.912-3.779l3.274-3.411a1.605,1.605,0,0,0-.2-2.23s-6.749,5.949-10.229,10.694" transform="translate(-301.029 -143.761)" fill="none"/>
    </clipPath>
    <linearGradient id="linear-gradient-13" x1="-8.276" y1="11.667" x2="-8.248" y2="11.667" xlink:href="#linear-gradient-7"/>
    <clipPath id="clip-path-28">
      <path id="Trazado_815084" data-name="Trazado 815084" d="M305.2,158.435l-.936,2.518,2.66,2.951s.894-5,1.559-6.078.32-1.6-.3-1.92Z" transform="translate(-304.262 -155.906)" fill="none"/>
    </clipPath>
    <linearGradient id="linear-gradient-14" x1="-20.765" y1="25.24" x2="-20.696" y2="25.24" xlink:href="#linear-gradient-7"/>
    <clipPath id="clip-path-30">
      <path id="Trazado_815086" data-name="Trazado 815086" d="M146.508,268c10.585,19.362,39.371-1.07,39.371-1.07l-2.37-4.416S165.6,272.638,159.558,264a6.789,6.789,0,0,1-1.246-5.278A37.769,37.769,0,0,0,144.446,255a18.967,18.967,0,0,0,2.062,13" transform="translate(-144.083 -255.002)" fill="none"/>
    </clipPath>
    <linearGradient id="linear-gradient-15" x1="-2.197" y1="4.604" x2="-2.181" y2="4.604" xlink:href="#linear-gradient-7"/>
    <clipPath id="clip-path-31">
      <path id="Trazado_815087" data-name="Trazado 815087" d="M225.141,230.091c-5.924.5-11.056,1.081-12.826,1.288a1,1,0,0,0-.843.717L201.7,266.226a1,1,0,0,0,.951,1.273l22.677.211a1,1,0,0,0,.806-.4c5.8-7.592,17.384-30.767,20.2-36.464a1,1,0,0,0-.817-1.438c-1.283-.108-2.79-.155-4.443-.155-4.726,0-10.645.384-15.932.832" transform="translate(-201.661 -229.259)" fill="none"/>
    </clipPath>
    <linearGradient id="linear-gradient-16" x1="-2.391" y1="3.557" x2="-2.379" y2="3.557" xlink:href="#linear-gradient-6"/>
    <clipPath id="clip-path-32">
      <path id="Trazado_815088" data-name="Trazado 815088" d="M246.154,224.139l-7.086,1.181a.509.509,0,0,0-.412.386l-.434,1.855a.508.508,0,0,0,.562.62l6.819-.911a.505.505,0,0,0,.415-.345l.7-2.125a.509.509,0,0,0-.48-.669.566.566,0,0,0-.086.007" transform="translate(-238.209 -224.132)" fill="none"/>
    </clipPath>
    <linearGradient id="linear-gradient-17" x1="-19.183" y1="17.99" x2="-19.103" y2="17.99" xlink:href="#linear-gradient-2"/>
    <clipPath id="clip-path-33">
      <path id="Trazado_815089" data-name="Trazado 815089" d="M246.841,227.419l-14.312,1.452a.7.7,0,0,0-.62.566l-.584,3.041a.7.7,0,0,0,.726.834l13.986-.7a.7.7,0,0,0,.648-.537l.91-3.789a.7.7,0,0,0-.682-.868.687.687,0,0,0-.072,0" transform="translate(-231.313 -227.415)" fill="none"/>
    </clipPath>
    <linearGradient id="linear-gradient-18" x1="-11.039" y1="10.075" x2="-10.991" y2="10.075" xlink:href="#linear-gradient-2"/>
    <clipPath id="clip-path-34">
      <path id="Trazado_815090" data-name="Trazado 815090" d="M204.045,259.729c-.548,1.986.813,7.584.813,7.584a5.15,5.15,0,0,0,4.658-1.627c1.069-1.048,1.7-2.1,2.571-1.532a1.812,1.812,0,0,0,2.653-.61l-1.555-1.716c2.277,1.107,2.516-.964,2.516-.964l-1.671-1.294a2.03,2.03,0,0,0,2.907-1.752,51.948,51.948,0,0,0-7.73-2.062,6.045,6.045,0,0,0-.958-.081c-2.788,0-3.705,2.259-4.2,4.053" transform="translate(-203.915 -255.676)" fill="none"/>
    </clipPath>
    <linearGradient id="linear-gradient-19" x1="-9.781" y1="12.425" x2="-9.733" y2="12.425" xlink:href="#linear-gradient-7"/>
    <clipPath id="clip-path-35">
      <path id="Trazado_815091" data-name="Trazado 815091" d="M199.175,188.626l-5.433,15.712a.566.566,0,0,0,.258.682c1.481.819,6.817,3.186,13.248-.891a2.667,2.667,0,0,0,1.227-1.9l1.759-13.6Z" transform="translate(-193.71 -188.626)" fill="none"/>
    </clipPath>
    <linearGradient id="linear-gradient-20" x1="-4.819" y1="8.132" x2="-4.794" y2="8.132" xlink:href="#linear-gradient-7"/>
    <clipPath id="clip-path-36">
      <path id="Trazado_815092" data-name="Trazado 815092" d="M197.529,169.113l10.716,15.057,9.919-4.788S209.412,162.2,209.2,162a2.391,2.391,0,0,0-1.7-.66c-3.941,0-9.973,7.778-9.973,7.778" transform="translate(-197.529 -161.335)" fill="none"/>
    </clipPath>
    <linearGradient id="linear-gradient-21" x1="-5.212" y1="8.134" x2="-5.185" y2="8.134" xlink:href="#linear-gradient-7"/>
    <clipPath id="clip-path-37">
      <path id="Trazado_815093" data-name="Trazado 815093" d="M200.54,151.068a4.053,4.053,0,0,0-2.263,4.643,1.537,1.537,0,0,1-1.243,1.8,1.047,1.047,0,0,0-.817.643,1.642,1.642,0,0,1-1.723.958,4.936,4.936,0,0,0-5.344,2.616,3.5,3.5,0,0,0,1.341,4.967,1.583,1.583,0,0,1,.49,2.151c-1.824,2.9.17,4.617,1.313,5.3a1.587,1.587,0,0,0,1.264.166c1.127-.324,3.626-.832,4.981.517,1.458,1.452,5.729,7.254,7.245,9.331a1.582,1.582,0,0,0,1.5.636,43.831,43.831,0,0,0,9.5-2.772,1.575,1.575,0,0,0,.916-1.931,59.151,59.151,0,0,0-3.385-8.032,1.581,1.581,0,0,0-2.135-.7c-1.335.694-2.58,2.376-3.908,4.226-1.558,2.17-3.573.576-4.162.028a1.534,1.534,0,0,1-.271-.338l-4.947-8.247a1.584,1.584,0,0,1-.12-1.389c.488-1.262,1.7-3.675,3.911-3.956,3.01-.382,7.8-2.669,6.843-5.905-.748-2.539-3.215-5.445-6.31-5.445a5.5,5.5,0,0,0-2.672.728" transform="translate(-188.616 -150.34)" fill="none"/>
    </clipPath>
    <linearGradient id="linear-gradient-22" x1="-2.475" y1="4.876" x2="-2.461" y2="4.876" xlink:href="#linear-gradient-6"/>
    <clipPath id="clip-path-38">
      <path id="Trazado_815094" data-name="Trazado 815094" d="M198.548,184.606c-2.436.2-4.353,2.631-1.335,5.359,3.756,3.394,5.674,0,5.674,0s-1.835-5.369-4.208-5.369c-.043,0-.087,0-.131.006" transform="translate(-195.666 -184.6)" fill="none"/>
    </clipPath>
    <linearGradient id="linear-gradient-23" x1="-10.094" y1="16.056" x2="-10.041" y2="16.056" xlink:href="#linear-gradient-7"/>
    <clipPath id="clip-path-39">
      <path id="Trazado_815095" data-name="Trazado 815095" d="M110.054,183.3c-.655,1.989-5.561,2.246-6.046,6.158a4.49,4.49,0,0,1-3.758,3.947c-5.011.768-12.734,3.371-13.97,12.071-.943,6.641,2.443,9.16,6,10.031a5.033,5.033,0,0,1,3.816,5.813c-.506,2.527.249,5.448,4.627,7.759,9.81,5.177,19.608-12.264,19.608-12.264l2.008-30.454-7.028-7.7s-4.437,2.158-5.253,4.638" transform="translate(-86.121 -178.659)" fill="none"/>
    </clipPath>
    <linearGradient id="linear-gradient-24" x1="-0.623" y1="3.606" x2="-0.614" y2="3.606" xlink:href="#linear-gradient-6"/>
    <clipPath id="clip-path-40">
      <path id="Trazado_815096" data-name="Trazado 815096" d="M55.244,470.845c-1.69,1.78-2.861,4.8-3.5,6.819a1.847,1.847,0,0,0,1.551,2.395,33.421,33.421,0,0,0,6.985-.109,2.156,2.156,0,0,0,1.891-1.886l.635-5.219a1.783,1.783,0,0,0-1.771-2Z" transform="translate(-51.656 -470.845)" fill="none"/>
    </clipPath>
    <linearGradient id="linear-gradient-25" x1="-2.196" y1="0.854" x2="-2.151" y2="0.854" xlink:href="#linear-gradient-6"/>
    <clipPath id="clip-path-41">
      <path id="Trazado_815097" data-name="Trazado 815097" d="M126.068,384.087l-2.992,5.62a11.393,11.393,0,0,0-1.3,6.3l3.1,37.132-2.367,3.255.287,1.765,14.462,8.534-5.69-9.24a10.4,10.4,0,0,1-1.538-5.9c.582-13.259,3.855-46.406,3.855-46.406l-.977-5.748Z" transform="translate(-121.74 -379.395)" fill="none"/>
    </clipPath>
    <linearGradient id="linear-gradient-26" x1="-3.549" y1="1.012" x2="-3.518" y2="1.012" xlink:href="#linear-gradient-7"/>
    <clipPath id="clip-path-42">
      <path id="Trazado_815098" data-name="Trazado 815098" d="M121.239,469.56l1.362,8.476h1.075s-.245-6.821,1.674-6.693c1.425.1,4.406,3.743,5.845,5.612a2.779,2.779,0,0,0,2.206,1.081h4.615a1.22,1.22,0,0,0,.227-2.419,6.589,6.589,0,0,0-1.876-.05s-7.3-5.138-9.678-6.572-2.817-4.679-2.817-4.679a5.018,5.018,0,0,0-2.633,5.245" transform="translate(-121.175 -464.315)" fill="none"/>
    </clipPath>
    <linearGradient id="linear-gradient-27" x1="-3.338" y1="0.84" x2="-3.31" y2="0.84" xlink:href="#linear-gradient-6"/>
    <clipPath id="clip-path-43">
      <path id="Trazado_815099" data-name="Trazado 815099" d="M79.586,382.312c-7.994,6.114-10.069,12.753-11.905,18.872s-5.183,23.721-6.74,27.6c-1.3,3.253-4.822,10.425-5.931,12.669a2.049,2.049,0,0,0,.077,1.984,3.372,3.372,0,0,0,3.136,1.43c3.514,0,4.789-.983,4.853-2.008a79.822,79.822,0,0,1,4.156-15.885c3.048-8.3,22.218-44.667,22.218-44.667a5.687,5.687,0,0,0-4.5-2.389,8.813,8.813,0,0,0-5.362,2.389" transform="translate(-54.791 -379.923)" fill="none"/>
    </clipPath>
    <linearGradient id="linear-gradient-28" x1="-0.813" y1="1.029" x2="-0.796" y2="1.029" xlink:href="#linear-gradient-7"/>
    <clipPath id="clip-path-44">
      <path id="Trazado_815100" data-name="Trazado 815100" d="M115.388,234.714s12.528,11.851,7.582,32.806a19.128,19.128,0,0,0,17.178,1.673s8.7-23,9.659-27.608c1.63-7.865-12.112-17.912-12.112-17.912s-14.4,3.453-22.307,11.041" transform="translate(-115.388 -223.673)" fill="none"/>
    </clipPath>
    <linearGradient id="linear-gradient-29" x1="-1.101" y1="2.868" x2="-1.089" y2="2.868" xlink:href="#linear-gradient-6"/>
    <clipPath id="clip-path-46">
      <path id="Trazado_815102" data-name="Trazado 815102" d="M133.759,201.319l-4.02,18.059c-.385,1.59,1.065,1.33,2.673,1.027,2.635-.5,6.029-1.519,7.164-3.568a1.947,1.947,0,0,0,.2-.681l1.728-12.522a2.25,2.25,0,0,0-1.317-2.364l-3.333-1.478a2.248,2.248,0,0,0-3.1,1.528" transform="translate(-129.676 -199.597)" fill="none"/>
    </clipPath>
    <linearGradient id="linear-gradient-30" x1="-3.571" y1="13.431" x2="-3.542" y2="13.431" xlink:href="#linear-gradient-7"/>
    <clipPath id="clip-path-47">
      <path id="Trazado_815103" data-name="Trazado 815103" d="M104.365,281.918a6.323,6.323,0,0,0,2.769,1.605c.927.277,3.668,2.351,5.058,3.433a.951.951,0,0,0,1.392-.251,1.3,1.3,0,0,0,.074-1.247l-3.474-7.346a2.68,2.68,0,0,0-3.48-.151,1.322,1.322,0,0,1-2-.454c-1.892-3.853-5.464-15.185,9.157-27.99a1.585,1.585,0,0,0,.352-1.926c-1.028-1.974-3.377-5.892-6.255-6.845,0,0-28.061,20.076-3.588,41.172" transform="translate(-94.347 -240.746)" fill="none"/>
    </clipPath>
    <linearGradient id="linear-gradient-31" x1="-1.344" y1="3.4" x2="-1.325" y2="3.4" xlink:href="#linear-gradient-7"/>
    <clipPath id="clip-path-48">
      <path id="Trazado_815104" data-name="Trazado 815104" d="M132.719,190.187c3.849,5.294,8.292,6.241,11.355,6.4s6.053-2.485,4.214-9.863-6.12-10.276-6.12-10.276a4.022,4.022,0,0,0-2.179-.643c-5.175,0-10.637,9.749-7.27,14.38" transform="translate(-131.681 -175.807)" fill="none"/>
    </clipPath>
    <linearGradient id="linear-gradient-32" x1="-3.05" y1="7.699" x2="-3.025" y2="7.699" xlink:href="#linear-gradient-7"/>
    <clipPath id="clip-path-49">
      <path id="Trazado_815105" data-name="Trazado 815105" d="M127.3,172.092c-3.65,6.66-4.976,11.338-1.915,15.476s5.36.589,5.36.589-1.4-3.582-.239-5.118,2.667.894,2.667.894l.6-.174s-1.568-10.573,7.211-8.956l1.774,1.848s4.3-4.839-.458-8.5a9.781,9.781,0,0,0-5.961-2.118c-3.386,0-6.78,1.929-9.043,6.056" transform="translate(-123.679 -166.036)" fill="none"/>
    </clipPath>
    <linearGradient id="linear-gradient-33" x1="-2.1" y1="6.081" x2="-2.082" y2="6.081" xlink:href="#linear-gradient-6"/>
    <clipPath id="clip-path-50">
      <path id="Trazado_815106" data-name="Trazado 815106" d="M131.4,188.681c-2.779,1.555,1,5.081,2.517,6.281l1.036-2.4s-.594-4.164-2.6-4.165a1.947,1.947,0,0,0-.951.28" transform="translate(-130.405 -188.401)" fill="none"/>
    </clipPath>
    <linearGradient id="linear-gradient-34" x1="-10.136" y1="23.516" x2="-10.055" y2="23.516" xlink:href="#linear-gradient-7"/>
    <clipPath id="clip-path-52">
      <path id="Trazado_815114" data-name="Trazado 815114" d="M365.847,284.977a33.4,33.4,0,1,0,33.4-33.4,33.4,33.4,0,0,0-33.4,33.4" transform="translate(-365.847 -251.58)" fill="none"/>
    </clipPath>
    <linearGradient id="linear-gradient-35" x1="-2.366" y1="1.752" x2="-2.359" y2="1.752" gradientUnits="objectBoundingBox">
      <stop offset="0" stop-color="#e1473d"/>
      <stop offset="1" stop-color="#e9605a"/>
    </linearGradient>
    <clipPath id="clip-path-54">
      <rect id="Rectángulo_375659" data-name="Rectángulo 375659" width="33.482" height="17.874" fill="none"/>
    </clipPath>
    <clipPath id="clip-path-55">
      <rect id="Rectángulo_375660" data-name="Rectángulo 375660" width="54.653" height="54.654" fill="none"/>
    </clipPath>
    <clipPath id="clip-path-56">
      <path id="Trazado_815118" data-name="Trazado 815118" d="M411.156,274.4a1.731,1.731,0,0,0-1.732,1.732v2.973c-5.971.962-9.412,4.554-9.412,9.259,0,5.212,4.251,7.792,10.17,9.411,4.148,1.113,5.869,2.227,5.869,4.1,0,2.075-2.226,3.087-5.211,3.087a20.127,20.127,0,0,1-7.7-1.621,1.733,1.733,0,0,0-2.353,1.134l-.755,2.769a1.72,1.72,0,0,0,.949,2.032,24.26,24.26,0,0,0,8.343,1.808v2.973a1.732,1.732,0,0,0,1.732,1.732H412.8a1.732,1.732,0,0,0,1.732-1.732v-3.327c6.477-1.012,9.815-5.06,9.815-9.563,0-4.908-2.732-7.64-9.309-9.613-4.6-1.417-6.729-2.53-6.729-4.149,0-1.316,1.012-2.782,4.553-2.782a18.036,18.036,0,0,1,6.485,1.176,1.727,1.727,0,0,0,2.281-1.166l.695-2.561a1.725,1.725,0,0,0-1.077-2.082,22.116,22.116,0,0,0-6.612-1.187v-2.669A1.732,1.732,0,0,0,412.9,274.4Z" transform="translate(-399.968 -274.405)" fill="none"/>
    </clipPath>
    <linearGradient id="linear-gradient-36" x1="-5.266" y1="3.703" x2="-5.252" y2="3.703" gradientUnits="objectBoundingBox">
      <stop offset="0" stop-color="#ff928e"/>
      <stop offset="1" stop-color="#fe7062"/>
    </linearGradient>
    <clipPath id="clip-path-58">
      <path id="Trazado_815124" data-name="Trazado 815124" d="M252.618,334.9a33.4,33.4,0,1,0,33.4-33.4,33.4,33.4,0,0,0-33.4,33.4" transform="translate(-252.618 -301.506)" fill="none"/>
    </clipPath>
    <linearGradient id="linear-gradient-37" x1="-1.589" y1="1.409" x2="-1.582" y2="1.409" xlink:href="#linear-gradient-35"/>
    <clipPath id="clip-path-60">
      <rect id="Rectángulo_375665" data-name="Rectángulo 375665" width="33.481" height="17.873" fill="none"/>
    </clipPath>
    <clipPath id="clip-path-61">
      <rect id="Rectángulo_375666" data-name="Rectángulo 375666" width="54.654" height="54.653" fill="none"/>
    </clipPath>
    <clipPath id="clip-path-62">
      <path id="Trazado_815128" data-name="Trazado 815128" d="M297.926,324.331a1.733,1.733,0,0,0-1.732,1.732v2.973c-5.97.961-9.411,4.553-9.411,9.259,0,5.211,4.25,7.791,10.17,9.41,4.149,1.113,5.869,2.226,5.869,4.1,0,2.074-2.227,3.086-5.212,3.086a20.126,20.126,0,0,1-7.7-1.621,1.733,1.733,0,0,0-2.353,1.134l-.755,2.769a1.719,1.719,0,0,0,.95,2.032,24.243,24.243,0,0,0,8.342,1.809v2.973a1.732,1.732,0,0,0,1.732,1.732h1.747a1.732,1.732,0,0,0,1.732-1.732v-3.327c6.477-1.012,9.815-5.06,9.815-9.563,0-4.907-2.732-7.64-9.309-9.613-4.6-1.416-6.729-2.53-6.729-4.148,0-1.316,1.011-2.783,4.553-2.783a18.035,18.035,0,0,1,6.485,1.178,1.727,1.727,0,0,0,2.28-1.167l.7-2.561a1.724,1.724,0,0,0-1.077-2.081,22.1,22.1,0,0,0-6.612-1.187v-2.669a1.732,1.732,0,0,0-1.732-1.732Z" transform="translate(-286.738 -324.331)" fill="none"/>
    </clipPath>
    <linearGradient id="linear-gradient-38" x1="-3.675" y1="2.738" x2="-3.661" y2="2.738" xlink:href="#linear-gradient-36"/>
  </defs>
  <g id="Grupo_1070881" data-name="Grupo 1070881" transform="translate(5377 11042)">
    <g id="Grupo_1070765" data-name="Grupo 1070765" transform="translate(0 145)">
      <rect id="Rectángulo_375533" data-name="Rectángulo 375533" width="670" height="332" transform="translate(-5377 -11187)" fill="#fffad0"/>
      <g id="Grupo_1070750" data-name="Grupo 1070750" transform="translate(-5377 -11176.463)" clip-path="url(#clip-path)">
        <g id="Grupo_1070749" data-name="Grupo 1070749">
          <g id="Grupo_1070748" data-name="Grupo 1070748" clip-path="url(#clip-path)">
            <g id="Grupo_1070742" data-name="Grupo 1070742" transform="translate(299.041 41.198)" opacity="0.2">
              <g id="Grupo_1070741" data-name="Grupo 1070741">
                <g id="Grupo_1070740" data-name="Grupo 1070740" clip-path="url(#clip-path-3)">
                  <g id="Grupo_1070739" data-name="Grupo 1070739">
                    <g id="Grupo_1070738" data-name="Grupo 1070738" clip-path="url(#clip-path-3)">
                      <rect id="Rectángulo_375891" data-name="Rectángulo 375891" width="0.633" height="0.575" transform="translate(0)" fill="#3b5620"/>
                    </g>
                  </g>
                </g>
              </g>
            </g>
            <g id="Grupo_1070747" data-name="Grupo 1070747" opacity="0.2">
              <g id="Grupo_1070746" data-name="Grupo 1070746">
                <g id="Grupo_1070745" data-name="Grupo 1070745" clip-path="url(#clip-path)">
                  <g id="Grupo_1070744" data-name="Grupo 1070744">
                    <g id="Grupo_1070743" data-name="Grupo 1070743" clip-path="url(#clip-path-6)">
                      <rect id="Rectángulo_375894" data-name="Rectángulo 375894" width="670" height="250.501" fill="#3b5620"/>
                    </g>
                  </g>
                </g>
              </g>
            </g>
          </g>
        </g>
      </g>
      <g id="Grupo_1070303" data-name="Grupo 1070303" transform="translate(-5199 -11178)">
        <g id="Grupo_1070302" data-name="Grupo 1070302" clip-path="url(#clip-path-7)">
          <g id="Grupo_1070183" data-name="Grupo 1070183" transform="translate(0)">
            <g id="Grupo_1070182" data-name="Grupo 1070182" clip-path="url(#clip-path-8)">
              <rect id="Rectángulo_375614" data-name="Rectángulo 375614" width="453.69" height="452.738" transform="matrix(0.734, -0.68, 0.68, 0.734, -172.309, 144.057)" fill="url(#linear-gradient)"/>
            </g>
          </g>
          <g id="Grupo_1070197" data-name="Grupo 1070197">
            <g id="Grupo_1070196" data-name="Grupo 1070196" clip-path="url(#clip-path-7)">
              <g id="Grupo_1070186" data-name="Grupo 1070186" transform="translate(32.889 72.426)" opacity="0.3">
                <g id="Grupo_1070185" data-name="Grupo 1070185">
                  <g id="Grupo_1070184" data-name="Grupo 1070184" clip-path="url(#clip-path-10)">
                    <path id="Trazado_815052" data-name="Trazado 815052" d="M116.525,112.031a1.2,1.2,0,0,1,1.41.754c.459,1.269.87,2.578,1.221,3.889a1.2,1.2,0,0,1-.845,1.464l-.023.006a1.2,1.2,0,0,1-1.441-.852c-.334-1.246-.724-2.488-1.16-3.694a1.2,1.2,0,0,1,.718-1.531,1.162,1.162,0,0,1,.12-.036m2.426,10.126a1.227,1.227,0,0,1,.139-.026,1.2,1.2,0,0,1,1.335,1.037c.168,1.345.281,2.712.335,4.06a1.2,1.2,0,1,1-2.389.1c-.051-1.282-.158-2.579-.319-3.857a1.2,1.2,0,0,1,.9-1.309m.136,10.409a1.2,1.2,0,0,1,1.476,1.279c-.135,1.346-.33,2.7-.579,4.035a1.2,1.2,0,0,1-2.349-.441c.237-1.264.422-2.552.55-3.831a1.194,1.194,0,0,1,.9-1.042m-2.2,10.179a1.2,1.2,0,0,1,1.418,1.543c-.433,1.283-.926,2.563-1.466,3.8a1.2,1.2,0,0,1-2.192-.954c.513-1.179.982-2.394,1.393-3.614a1.2,1.2,0,0,1,.847-.779m-4.41,9.435a1.195,1.195,0,0,1,1.306,1.784c-.7,1.152-1.469,2.291-2.271,3.383a1.2,1.2,0,0,1-1.927-1.415c.763-1.038,1.489-2.12,2.159-3.215a1.188,1.188,0,0,1,.733-.536m-6.387,8.223a1.2,1.2,0,0,1,1.145,1.994c-.943.969-1.941,1.91-2.964,2.8a1.2,1.2,0,0,1-1.565-1.807c.972-.842,1.919-1.736,2.816-2.657a1.191,1.191,0,0,1,.568-.326M64.26,173.685a1.193,1.193,0,0,1,.505-.014c1.263.235,2.552.418,3.834.544a1.195,1.195,0,1,1-.233,2.378c-1.349-.132-2.708-.325-4.037-.572a1.2,1.2,0,0,1-.068-2.336M98.049,167a1.2,1.2,0,0,1,.936,2.164c-1.136.735-2.317,1.43-3.511,2.065a1.2,1.2,0,0,1-1.123-2.111c1.135-.6,2.257-1.262,3.335-1.961a1.2,1.2,0,0,1,.363-.158m-23.4,7.421a1.192,1.192,0,0,1,.238-.034c1.284-.054,2.582-.164,3.859-.326a1.2,1.2,0,1,1,.3,2.371c-1.344.171-2.71.286-4.061.343a1.2,1.2,0,0,1-.338-2.355m14.084-2.784a1.2,1.2,0,0,1,.695,2.284c-1.271.462-2.578.876-3.886,1.228l-.025.006a1.2,1.2,0,0,1-.6-2.314c1.242-.335,2.484-.728,3.691-1.167.041-.014.082-.027.123-.037" transform="translate(-55.272 -111.996)" fill="#91b3fa"/>
                    <path id="Trazado_815053" data-name="Trazado 815053" d="M51.767,203.851a1.191,1.191,0,0,1,.713.044c.576.221,1.165.432,1.753.63a1.2,1.2,0,1,1-.762,2.265c-.618-.208-1.238-.431-1.844-.662a1.2,1.2,0,0,1,.141-2.277" transform="translate(-50.858 -144.438)" fill="#91b3fa"/>
                  </g>
                </g>
              </g>
              <g id="Grupo_1070189" data-name="Grupo 1070189" transform="translate(2.92 41.754)" opacity="0.3">
                <g id="Grupo_1070188" data-name="Grupo 1070188">
                  <g id="Grupo_1070187" data-name="Grupo 1070187" clip-path="url(#clip-path-11)">
                    <path id="Trazado_815054" data-name="Trazado 815054" d="M11.168,164.774a1.2,1.2,0,0,1,1.386.694c.241.567.5,1.139.763,1.7a1.2,1.2,0,1,1-2.16,1.024c-.279-.59-.55-1.192-.8-1.789a1.195,1.195,0,0,1,.815-1.628" transform="translate(-6.544 -99.96)" fill="#91b3fa"/>
                    <path id="Trazado_815055" data-name="Trazado 815055" d="M40.751,65.981q.8-.2,1.614-.371a1.2,1.2,0,0,1,.5,2.339c-1.252.266-2.49.581-3.694.942a1.2,1.2,0,0,1-.687-2.29c.744-.223,1.508-.432,2.27-.621m7.862-1.254a1.2,1.2,0,0,1,.2-.032c1.33-.1,2.679-.14,4.009-.125A1.195,1.195,0,1,1,52.8,66.96c-1.264-.013-2.545.027-3.809.12a1.2,1.2,0,0,1-.376-2.352M32.6,68.824a1.2,1.2,0,0,1,.782,2.248c-1.149.524-2.291,1.106-3.394,1.728a1.2,1.2,0,1,1-1.174-2.083c1.162-.655,2.364-1.267,3.574-1.82a1.163,1.163,0,0,1,.211-.073m26.26-3.716a1.2,1.2,0,0,1,.463-.021c1.317.2,2.643.453,3.938.76a1.195,1.195,0,1,1-.551,2.325c-1.231-.292-2.489-.534-3.74-.721a1.2,1.2,0,0,1-.11-2.343M23.811,74.086A1.2,1.2,0,0,1,24.822,76.2c-1,.764-1.99,1.582-2.931,2.432a1.195,1.195,0,1,1-1.6-1.773c.989-.894,2.027-1.756,3.085-2.56a1.172,1.172,0,0,1,.436-.21m-7.419,7.062a1.2,1.2,0,0,1,1.2,1.93c-.815.968-1.6,1.982-2.331,3.014a1.2,1.2,0,1,1-1.95-1.382c.77-1.086,1.6-2.153,2.453-3.172a1.19,1.19,0,0,1,.627-.39m-5.7,8.512a1.2,1.2,0,0,1,1.347,1.713c-.586,1.123-1.13,2.283-1.62,3.449a1.2,1.2,0,0,1-2.2-.925c.514-1.226,1.088-2.448,1.7-3.63a1.193,1.193,0,0,1,.773-.608M6.979,99.211a1.2,1.2,0,0,1,1.441,1.468c-.326,1.224-.6,2.476-.824,3.72a1.195,1.195,0,1,1-2.353-.417c.232-1.311.524-2.629.867-3.917a1.2,1.2,0,0,1,.869-.854M5.456,109.348a1.2,1.2,0,0,1,1.482,1.206c-.047,1.262-.042,2.543.017,3.808a1.2,1.2,0,0,1-2.388.111c-.063-1.332-.068-2.68-.017-4.009a1.2,1.2,0,0,1,.907-1.116m.74,10.218.072-.016a1.2,1.2,0,0,1,1.39.96c.169.916.367,1.839.59,2.741q.121.49.253.975a1.2,1.2,0,0,1-.842,1.466,1.181,1.181,0,0,1-1.465-.841q-.139-.51-.266-1.026c-.235-.949-.444-1.92-.621-2.884a1.2,1.2,0,0,1,.888-1.375" transform="translate(-4.515 -64.567)" fill="#91b3fa"/>
                    <path id="Trazado_815056" data-name="Trazado 815056" d="M103.41,69.463a1.19,1.19,0,0,1,.718.046c.6.234,1.213.485,1.812.747a1.2,1.2,0,1,1-.955,2.191c-.57-.248-1.148-.487-1.721-.709a1.195,1.195,0,0,1,.146-2.274" transform="translate(-39.135 -66.284)" fill="#91b3fa"/>
                  </g>
                </g>
              </g>
              <path id="Trazado_815057" data-name="Trazado 815057" d="M76.986,88.191a.56.56,0,0,0-.649-.016l-5.631,3.811A29.61,29.61,0,0,0,61.413,89.6l-3.1-6.047a.558.558,0,0,0-.576-.3L49.663,84.4a.559.559,0,0,0-.469.447l-1.286,6.672a29.623,29.623,0,0,0-8.257,4.89l-6.472-2.086a.559.559,0,0,0-.618.2l-4.9,6.523a.559.559,0,0,0-.016.649l3.81,5.631a29.627,29.627,0,0,0-2.388,9.294l-6.046,3.1a.559.559,0,0,0-.3.576l1.151,8.074a.558.558,0,0,0,.448.469L31,130.125a29.621,29.621,0,0,0,4.889,8.257L33.8,144.853a.559.559,0,0,0,.2.618l6.523,4.9a.558.558,0,0,0,.648.016l5.631-3.81a29.627,29.627,0,0,0,9.294,2.388l3.1,6.047a.559.559,0,0,0,.576.3l8.074-1.151a.559.559,0,0,0,.47-.447l1.286-6.672a29.605,29.605,0,0,0,8.257-4.889l6.471,2.086a.559.559,0,0,0,.618-.2l4.9-6.522a.56.56,0,0,0,.016-.649l-3.811-5.631a29.583,29.583,0,0,0,2.388-9.294l6.047-3.1a.559.559,0,0,0,.3-.576l-1.15-8.074a.558.558,0,0,0-.448-.469l-6.672-1.287a29.617,29.617,0,0,0-4.89-8.257L83.705,93.7a.558.558,0,0,0-.2-.618Z" transform="translate(-8.028 -29.413)" fill="#91b3fa"/>
              <path id="Trazado_815058" data-name="Trazado 815058" d="M72,126.526a8.2,8.2,0,1,1-1.145.374A8.211,8.211,0,0,1,72,126.526m3.46,14.065a6.286,6.286,0,1,0-7.313-3.723,6.287,6.287,0,0,0,7.313,3.723" transform="translate(-23.235 -44.62)" fill="#bdd0fb"/>
              <path id="Trazado_815059" data-name="Trazado 815059" d="M62.4,108.617a20.527,20.527,0,0,1,2.033-.4c.217-.031.435-.059.652-.083a20.318,20.318,0,0,1,3.227-.1l.044,0,.124.007.242.016a.478.478,0,1,1-.067.953,19.226,19.226,0,0,0-18.87,11.253,19.082,19.082,0,0,0-1.516,10.613,19.655,19.655,0,0,0,.377,1.94,19.2,19.2,0,1,0,33.556-16.735.484.484,0,0,1-.092-.186.478.478,0,0,1,.836-.416,20.1,20.1,0,0,1,3.9,7.835,20.16,20.16,0,0,1-16.72,24.81,20.164,20.164,0,0,1-22.4-15.075,20.631,20.631,0,0,1-.4-2.036,20.161,20.161,0,0,1,15.078-22.4" transform="translate(-16.648 -38.164)" fill="#bdd0fb"/>
              <g id="Grupo_1070192" data-name="Grupo 1070192" transform="translate(100.76 32.067)" opacity="0.3">
                <g id="Grupo_1070191" data-name="Grupo 1070191">
                  <g id="Grupo_1070190" data-name="Grupo 1070190" clip-path="url(#clip-path-12)">
                    <path id="Trazado_815060" data-name="Trazado 815060" d="M194.8,49.608a.738.738,0,0,1,.815.345c.316.541.62,1.1.9,1.659a.738.738,0,0,1-1.317.666c-.27-.534-.559-1.066-.861-1.582a.739.739,0,0,1,.266-1.009.765.765,0,0,1,.2-.079" transform="translate(-169.388 -49.587)" fill="#91b3fa"/>
                    <path id="Trazado_815061" data-name="Trazado 815061" d="M183.622,57.568a.738.738,0,0,1,.871.468,32.014,32.014,0,0,1,.939,3.109c.055.221.107.442.157.665a.764.764,0,0,1-.558.883.738.738,0,0,1-.882-.557q-.072-.32-.15-.636a30.558,30.558,0,0,0-.9-2.966.739.739,0,0,1,.446-.944c.025-.008.049-.016.073-.021m1.683,7.478a.808.808,0,0,1,.1-.019.739.739,0,0,1,.808.662,32,32,0,0,1,.15,3.927.738.738,0,0,1-1.476-.035,30.579,30.579,0,0,0-.144-3.745.738.738,0,0,1,.556-.79m-.18,7.663a.738.738,0,0,1,.907.826,32.034,32.034,0,0,1-.82,3.846.739.739,0,0,1-1.423-.4,30.238,30.238,0,0,0,.782-3.667.74.74,0,0,1,.554-.608m-2.059,7.384a.738.738,0,0,1,.858,1,31.948,31.948,0,0,1-1.735,3.527.738.738,0,0,1-1.282-.733,30.406,30.406,0,0,0,1.655-3.363.736.736,0,0,1,.505-.433m-3.8,6.658a.738.738,0,0,1,.77,1.158,32.284,32.284,0,0,1-2.539,3,.738.738,0,0,1-1.066-1.021,30.812,30.812,0,0,0,2.422-2.861.734.734,0,0,1,.414-.274m-5.3,5.532a.738.738,0,0,1,.644,1.289,31.925,31.925,0,0,1-3.193,2.288.738.738,0,0,1-.784-1.251,30.333,30.333,0,0,0,3.044-2.181.725.725,0,0,1,.289-.144m-6.491,4.068a.738.738,0,0,1,.488,1.386,32.056,32.056,0,0,1-3.658,1.436.739.739,0,0,1-.454-1.406,30.317,30.317,0,0,0,3.49-1.368.708.708,0,0,1,.135-.047m-11.1,2.843a.7.7,0,0,1,.129-.02,30.682,30.682,0,0,0,3.237-.392c.163-.028.322-.057.481-.088a.738.738,0,0,1,.865.585.731.731,0,0,1-.585.865c-.169.032-.339.064-.51.093a32.078,32.078,0,0,1-3.39.41.738.738,0,0,1-.227-1.453" transform="translate(-155.811 -52.399)" fill="#91b3fa"/>
                  </g>
                </g>
              </g>
              <g id="Grupo_1070195" data-name="Grupo 1070195" transform="translate(68.313 16.614)" opacity="0.3">
                <g id="Grupo_1070194" data-name="Grupo 1070194">
                  <g id="Grupo_1070193" data-name="Grupo 1070193" clip-path="url(#clip-path-13)">
                    <path id="Trazado_815062" data-name="Trazado 815062" d="M128.682,26.731a.738.738,0,0,1,.363,1.431,30.4,30.4,0,0,0-3.5,1.145A.739.739,0,1,1,125,27.934a32.233,32.233,0,0,1,3.673-1.2l.01,0m3.7-.733a.629.629,0,0,1,.079-.015,32.3,32.3,0,0,1,3.854-.292.739.739,0,0,1,.023,1.477,30.85,30.85,0,0,0-3.678.278A.738.738,0,0,1,132.387,26m-10.714,3.507a.738.738,0,0,1,.53,1.364,30.562,30.562,0,0,0-3.123,1.959.738.738,0,0,1-.859-1.2,31.92,31.92,0,0,1,3.275-2.053.719.719,0,0,1,.177-.069m18.255-3.618a.719.719,0,0,1,.256-.017,31.557,31.557,0,0,1,3.813.648.738.738,0,1,1-.336,1.438,30.3,30.3,0,0,0-3.635-.618.738.738,0,0,1-.1-1.451m-24.386,8a.738.738,0,0,1,.678,1.26A30.233,30.233,0,0,0,113.66,37.8a.738.738,0,0,1-1.123-.96,32.064,32.064,0,0,1,2.685-2.781.731.731,0,0,1,.321-.172m-4.9,5.728a.738.738,0,0,1,.793,1.125,30.892,30.892,0,0,0-1.853,3.189.738.738,0,1,1-1.319-.663,32.211,32.211,0,0,1,1.942-3.343.734.734,0,0,1,.437-.308m-3.386,6.738a.739.739,0,0,1,.872.967,30.141,30.141,0,0,0-1.034,3.54.738.738,0,0,1-1.44-.327,31.924,31.924,0,0,1,1.083-3.713.74.74,0,0,1,.519-.467" transform="translate(-105.637 -25.691)" fill="#91b3fa"/>
                    <path id="Trazado_815063" data-name="Trazado 815063" d="M169.764,28.65a.732.732,0,0,1,.431.024c.593.218,1.182.455,1.752.7a.738.738,0,0,1-.59,1.354c-.543-.237-1.105-.462-1.671-.671a.738.738,0,0,1,.078-1.41" transform="translate(-128.096 -26.729)" fill="#91b3fa"/>
                  </g>
                </g>
              </g>
              <path id="Trazado_815064" data-name="Trazado 815064" d="M152.852,41.4a.373.373,0,0,0-.434-.01l-3.768,2.55a19.819,19.819,0,0,0-6.219-1.6l-2.074-4.046a.375.375,0,0,0-.385-.2l-5.4.77a.375.375,0,0,0-.314.3l-.861,4.465a19.807,19.807,0,0,0-5.525,3.272l-4.33-1.4a.374.374,0,0,0-.414.131L119.849,50a.374.374,0,0,0-.01.434l2.55,3.768a19.823,19.823,0,0,0-1.6,6.219l-4.046,2.074a.374.374,0,0,0-.2.385l.77,5.4a.375.375,0,0,0,.3.314l4.465.861a19.816,19.816,0,0,0,3.272,5.525l-1.4,4.33a.375.375,0,0,0,.131.414L128.451,83a.374.374,0,0,0,.434.011l3.768-2.55a19.8,19.8,0,0,0,6.219,1.6l2.074,4.046a.372.372,0,0,0,.385.2l5.4-.77a.373.373,0,0,0,.314-.3l.861-4.464a19.823,19.823,0,0,0,5.525-3.272l4.33,1.4a.374.374,0,0,0,.414-.132l3.276-4.364a.374.374,0,0,0,.01-.434l-2.55-3.768a19.819,19.819,0,0,0,1.6-6.219l4.046-2.074a.374.374,0,0,0,.2-.385l-.77-5.4a.373.373,0,0,0-.3-.314l-4.465-.861a19.813,19.813,0,0,0-3.272-5.525l1.4-4.331a.374.374,0,0,0-.131-.413Z" transform="translate(-41.176 -13.458)" fill="#91b3fa"/>
              <path id="Trazado_815065" data-name="Trazado 815065" d="M149.442,66.9a5.595,5.595,0,1,1-.786.257,5.663,5.663,0,0,1,.786-.257m2.314,9.412a4.236,4.236,0,0,0,.574-.187,4.11,4.11,0,1,0-.574.187" transform="translate(-51.297 -23.578)" fill="#bdd0fb"/>
              <path id="Trazado_815066" data-name="Trazado 815066" d="M142.78,54.429a14.044,14.044,0,0,1,4.22-.384l.127.008a.738.738,0,1,1-.1,1.472,12.441,12.441,0,0,0-2.645.1h0l-.144.022a12.3,12.3,0,0,0-5.608,2.368,12.5,12.5,0,0,0-2.369,2.365l-.017.022-.051.067a12.431,12.431,0,1,0,22.248,5.708q-.089-.628-.241-1.24a12.4,12.4,0,0,0-2.4-4.831.727.727,0,0,1-.143-.287.738.738,0,0,1,1.29-.642,13.908,13.908,0,1,1-24.3,12.121,14.178,14.178,0,0,1-.274-1.4,13.927,13.927,0,0,1,10.417-15.46" transform="translate(-46.717 -19.086)" fill="#bdd0fb"/>
            </g>
          </g>
          <g id="Grupo_1070199" data-name="Grupo 1070199" transform="translate(198.957 62.028)">
            <g id="Grupo_1070198" data-name="Grupo 1070198" clip-path="url(#clip-path-14)">
              <rect id="Rectángulo_375620" data-name="Rectángulo 375620" width="247.019" height="198.585" transform="translate(-84.713 178.042) rotate(-64.555)" fill="url(#linear-gradient-2)"/>
            </g>
          </g>
          <g id="Grupo_1070201" data-name="Grupo 1070201" transform="translate(150.071 162.622)">
            <g id="Grupo_1070200" data-name="Grupo 1070200" clip-path="url(#clip-path-15)">
              <rect id="Rectángulo_375621" data-name="Rectángulo 375621" width="135.616" height="145.014" transform="translate(-54.073 35.582) rotate(-33.346)" fill="url(#linear-gradient-3)"/>
            </g>
          </g>
          <g id="Grupo_1070203" data-name="Grupo 1070203" transform="translate(67.083 151.85)">
            <g id="Grupo_1070202" data-name="Grupo 1070202" clip-path="url(#clip-path-16)">
              <rect id="Rectángulo_375622" data-name="Rectángulo 375622" width="169.771" height="166.692" transform="matrix(0.601, -0.799, 0.799, 0.601, -61.451, 81.689)" fill="url(#linear-gradient-4)"/>
            </g>
          </g>
          <g id="Grupo_1070205" data-name="Grupo 1070205" transform="translate(0.33 190.23)">
            <g id="Grupo_1070204" data-name="Grupo 1070204" clip-path="url(#clip-path-17)">
              <rect id="Rectángulo_375623" data-name="Rectángulo 375623" width="138.112" height="136.006" transform="matrix(0.778, -0.628, 0.628, 0.778, -44.204, 35.683)" fill="url(#linear-gradient-5)"/>
            </g>
          </g>
          <g id="Grupo_1070207" data-name="Grupo 1070207">
            <g id="Grupo_1070206" data-name="Grupo 1070206" clip-path="url(#clip-path-7)">
              <path id="Trazado_815071" data-name="Trazado 815071" d="M475.513,137.286a.553.553,0,0,1-.065,0,.568.568,0,0,1-.5-.629l.415-3.667a.569.569,0,0,1,1.13.128l-.415,3.667a.569.569,0,0,1-.565.505" transform="translate(-167.806 -46.808)" fill="#bdd0fb"/>
              <path id="Trazado_815072" data-name="Trazado 815072" d="M394.165,173.588a.569.569,0,0,1-.45-.916l52.038-67.616a2.165,2.165,0,0,1,3.868,1.564l-.918,8.105a.569.569,0,0,1-1.13-.129l.918-8.1a1.028,1.028,0,0,0-1.836-.742l-52.038,67.616a.569.569,0,0,1-.451.222" transform="translate(-139.065 -36.817)" fill="#bdd0fb"/>
              <path id="Trazado_815073" data-name="Trazado 815073" d="M211.613,297.69a.569.569,0,0,1-.471-.887l26.913-39.892a4.726,4.726,0,0,1,8.191.621.569.569,0,1,1-1.028.487,3.589,3.589,0,0,0-6.22-.472l-26.912,39.892a.569.569,0,0,1-.472.251" transform="translate(-74.566 -90.035)" fill="#bdd0fb"/>
              <path id="Trazado_815074" data-name="Trazado 815074" d="M200.8,335.12a.569.569,0,0,1-.471-.887l1.726-2.558a.569.569,0,1,1,.943.636l-1.725,2.558a.569.569,0,0,1-.472.251" transform="translate(-70.745 -117.098)" fill="#fff"/>
            </g>
          </g>
          <g id="Grupo_1070209" data-name="Grupo 1070209" transform="translate(138.326 297.463)">
            <g id="Grupo_1070208" data-name="Grupo 1070208" clip-path="url(#clip-path-19)">
              <rect id="Rectángulo_375625" data-name="Rectángulo 375625" width="26.66" height="27.47" transform="matrix(0.677, -0.736, 0.736, 0.677, -6.278, 6.684)" fill="url(#linear-gradient-6)"/>
            </g>
          </g>
          <g id="Grupo_1070211" data-name="Grupo 1070211" transform="translate(138.842 294.168)">
            <g id="Grupo_1070210" data-name="Grupo 1070210" clip-path="url(#clip-path-20)">
              <rect id="Rectángulo_375626" data-name="Rectángulo 375626" width="6.465" height="7.512" fill="url(#linear-gradient-7)"/>
            </g>
          </g>
          <g id="Grupo_1070213" data-name="Grupo 1070213" transform="translate(123.514 199.001)">
            <g id="Grupo_1070212" data-name="Grupo 1070212" clip-path="url(#clip-path-21)">
              <rect id="Rectángulo_375627" data-name="Rectángulo 375627" width="22.234" height="110.661" transform="translate(-0.773 -12.606)" fill="url(#linear-gradient-8)"/>
            </g>
          </g>
          <g id="Grupo_1070215" data-name="Grupo 1070215" transform="translate(114.2 299.689)">
            <g id="Grupo_1070214" data-name="Grupo 1070214" clip-path="url(#clip-path-22)">
              <rect id="Rectángulo_375628" data-name="Rectángulo 375628" width="14.886" height="14.901" transform="matrix(0.677, -0.736, 0.736, 0.677, -5.366, 5.648)" fill="url(#linear-gradient-9)"/>
            </g>
          </g>
          <g id="Grupo_1070217" data-name="Grupo 1070217" transform="translate(115.544 292.825)">
            <g id="Grupo_1070216" data-name="Grupo 1070216" clip-path="url(#clip-path-23)">
              <rect id="Rectángulo_375629" data-name="Rectángulo 375629" width="5.581" height="9.058" fill="url(#linear-gradient-10)"/>
            </g>
          </g>
          <g id="Grupo_1070219" data-name="Grupo 1070219" transform="translate(109.528 197.396)">
            <g id="Grupo_1070218" data-name="Grupo 1070218" clip-path="url(#clip-path-24)">
              <rect id="Rectángulo_375630" data-name="Rectángulo 375630" width="33.851" height="99.993" transform="translate(-3.505)" fill="url(#linear-gradient-11)"/>
            </g>
          </g>
          <g id="Grupo_1070221" data-name="Grupo 1070221">
            <g id="Grupo_1070220" data-name="Grupo 1070220" clip-path="url(#clip-path-7)">
              <path id="Trazado_815081" data-name="Trazado 815081" d="M207.908,208.538c-17.076-.282-35.918,4.483-35.918,4.483-5.09,29.7-.89,63.958-.89,63.958,13.22,3.467,28.133-2.12,28.133-2.12,2.2-12.414,12.449-47.351,12.449-47.351a56.246,56.246,0,0,0,20.876-6.625c-4.317-5-6.352-11.373-7.236-15.137a57.278,57.278,0,0,1-17.414,2.792" transform="translate(-59.877 -72.694)" fill="#3b5620"/>
            </g>
          </g>
          <g id="Grupo_1070223" data-name="Grupo 1070223" transform="translate(165.444 109.397)">
            <g id="Grupo_1070222" data-name="Grupo 1070222" clip-path="url(#clip-path-26)">
              <rect id="Rectángulo_375632" data-name="Rectángulo 375632" width="33.026" height="38.792" transform="translate(0 0)" fill="url(#linear-gradient-12)"/>
            </g>
          </g>
          <g id="Grupo_1070225" data-name="Grupo 1070225" transform="translate(194.67 92.968)">
            <g id="Grupo_1070224" data-name="Grupo 1070224" clip-path="url(#clip-path-27)">
              <rect id="Rectángulo_375633" data-name="Rectángulo 375633" width="22.824" height="18.913" transform="translate(-7.605 16.466) rotate(-66.274)" fill="url(#linear-gradient-13)"/>
            </g>
          </g>
          <g id="Grupo_1070227" data-name="Grupo 1070227" transform="translate(196.76 100.821)">
            <g id="Grupo_1070226" data-name="Grupo 1070226" clip-path="url(#clip-path-28)">
              <rect id="Rectángulo_375634" data-name="Rectángulo 375634" width="9.367" height="8.455" transform="matrix(0.545, -0.838, 0.838, 0.545, -3.656, 5.621)" fill="url(#linear-gradient-14)"/>
            </g>
          </g>
          <g id="Grupo_1070229" data-name="Grupo 1070229">
            <g id="Grupo_1070228" data-name="Grupo 1070228" clip-path="url(#clip-path-7)">
              <path id="Trazado_815085" data-name="Trazado 815085" d="M169.768,233.531,163.218,217s-15.95,10.838-18.573,24.578a37.743,37.743,0,0,1,13.865,3.716c1.18-6.488,11.257-11.759,11.257-11.759" transform="translate(-51.106 -76.669)" fill="#3b5620"/>
            </g>
          </g>
          <g id="Grupo_1070231" data-name="Grupo 1070231" transform="translate(93.176 164.905)">
            <g id="Grupo_1070230" data-name="Grupo 1070230" clip-path="url(#clip-path-30)">
              <rect id="Rectángulo_375636" data-name="Rectángulo 375636" width="42.223" height="32.363" transform="translate(-0.427 0)" fill="url(#linear-gradient-15)"/>
            </g>
          </g>
          <g id="Grupo_1070233" data-name="Grupo 1070233" transform="translate(130.41 148.257)">
            <g id="Grupo_1070232" data-name="Grupo 1070232" clip-path="url(#clip-path-31)">
              <rect id="Rectángulo_375637" data-name="Rectángulo 375637" width="52.856" height="47.925" transform="translate(-8.869 2.094) rotate(-13.496)" fill="url(#linear-gradient-16)"/>
            </g>
          </g>
          <g id="Grupo_1070235" data-name="Grupo 1070235" transform="translate(154.045 144.942)">
            <g id="Grupo_1070234" data-name="Grupo 1070234" clip-path="url(#clip-path-32)">
              <rect id="Rectángulo_375638" data-name="Rectángulo 375638" width="8.043" height="9.548" transform="translate(-1.896 2.971) rotate(-58.392)" fill="url(#linear-gradient-17)"/>
            </g>
          </g>
          <g id="Grupo_1070237" data-name="Grupo 1070237" transform="translate(149.586 147.065)">
            <g id="Grupo_1070236" data-name="Grupo 1070236" clip-path="url(#clip-path-33)">
              <rect id="Rectángulo_375639" data-name="Rectángulo 375639" width="13.671" height="17.124" transform="matrix(0.524, -0.852, 0.852, 0.524, -2.716, 4.295)" fill="url(#linear-gradient-18)"/>
            </g>
          </g>
          <g id="Grupo_1070239" data-name="Grupo 1070239" transform="translate(131.868 165.341)">
            <g id="Grupo_1070238" data-name="Grupo 1070238" clip-path="url(#clip-path-34)">
              <rect id="Rectángulo_375640" data-name="Rectángulo 375640" width="13.439" height="11.963" transform="translate(-0.418 0)" fill="url(#linear-gradient-19)"/>
            </g>
          </g>
          <g id="Grupo_1070241" data-name="Grupo 1070241" transform="translate(125.269 121.981)">
            <g id="Grupo_1070240" data-name="Grupo 1070240" clip-path="url(#clip-path-35)">
              <rect id="Rectángulo_375641" data-name="Rectángulo 375641" width="25.097" height="23.876" transform="matrix(0.473, -0.881, 0.881, 0.473, -8.224, 15.191)" fill="url(#linear-gradient-20)"/>
            </g>
          </g>
          <g id="Grupo_1070243" data-name="Grupo 1070243" transform="translate(127.738 104.332)">
            <g id="Grupo_1070242" data-name="Grupo 1070242" clip-path="url(#clip-path-36)">
              <rect id="Rectángulo_375642" data-name="Rectángulo 375642" width="24.169" height="25.969" transform="translate(-3.772 0.641) rotate(-9.645)" fill="url(#linear-gradient-21)"/>
            </g>
          </g>
          <g id="Grupo_1070245" data-name="Grupo 1070245" transform="translate(121.974 97.222)">
            <g id="Grupo_1070244" data-name="Grupo 1070244" clip-path="url(#clip-path-37)">
              <rect id="Rectángulo_375643" data-name="Rectángulo 375643" width="45.793" height="45.604" transform="matrix(0.685, -0.728, 0.728, 0.685, -18.025, 18.314)" fill="url(#linear-gradient-22)"/>
            </g>
          </g>
          <g id="Grupo_1070247" data-name="Grupo 1070247" transform="translate(126.534 119.377)">
            <g id="Grupo_1070246" data-name="Grupo 1070246" clip-path="url(#clip-path-38)">
              <rect id="Rectángulo_375644" data-name="Rectángulo 375644" width="12.215" height="12.228" transform="matrix(0.798, -0.603, 0.603, 0.798, -5.683, 3.181)" fill="url(#linear-gradient-23)"/>
            </g>
          </g>
          <g id="Grupo_1070249" data-name="Grupo 1070249" transform="translate(55.693 115.535)">
            <g id="Grupo_1070248" data-name="Grupo 1070248" clip-path="url(#clip-path-39)">
              <rect id="Rectángulo_375645" data-name="Rectángulo 375645" width="65.342" height="54.954" transform="translate(-19.906 47.97) rotate(-68.265)" fill="url(#linear-gradient-24)"/>
            </g>
          </g>
          <g id="Grupo_1070251" data-name="Grupo 1070251" transform="translate(33.405 304.487)">
            <g id="Grupo_1070250" data-name="Grupo 1070250" clip-path="url(#clip-path-40)">
              <rect id="Rectángulo_375646" data-name="Rectángulo 375646" width="14.434" height="13.416" transform="matrix(0.91, -0.414, 0.414, 0.91, -3.839, 1.625)" fill="url(#linear-gradient-25)"/>
            </g>
          </g>
          <g id="Grupo_1070253" data-name="Grupo 1070253" transform="translate(78.727 245.348)">
            <g id="Grupo_1070252" data-name="Grupo 1070252" clip-path="url(#clip-path-41)">
              <rect id="Rectángulo_375647" data-name="Rectángulo 375647" width="21.345" height="68.389" transform="matrix(0.996, -0.085, 0.085, 0.996, -5.859, 0.489)" fill="url(#linear-gradient-26)"/>
            </g>
          </g>
          <g id="Grupo_1070255" data-name="Grupo 1070255" transform="translate(78.362 300.264)">
            <g id="Grupo_1070254" data-name="Grupo 1070254" clip-path="url(#clip-path-42)">
              <rect id="Rectángulo_375648" data-name="Rectángulo 375648" width="22.794" height="20.271" transform="matrix(0.91, -0.414, 0.414, 0.91, -5.448, 2.349)" fill="url(#linear-gradient-27)"/>
            </g>
          </g>
          <g id="Grupo_1070257" data-name="Grupo 1070257" transform="translate(35.432 245.689)">
            <g id="Grupo_1070256" data-name="Grupo 1070256" clip-path="url(#clip-path-43)">
              <rect id="Rectángulo_375649" data-name="Rectángulo 375649" width="40.163" height="67.676" transform="translate(-5.611 0.471) rotate(-4.89)" fill="url(#linear-gradient-28)"/>
            </g>
          </g>
          <g id="Grupo_1070259" data-name="Grupo 1070259" transform="translate(74.619 144.645)">
            <g id="Grupo_1070258" data-name="Grupo 1070258" clip-path="url(#clip-path-44)">
              <rect id="Rectángulo_375650" data-name="Rectángulo 375650" width="57.881" height="61.089" transform="matrix(0.817, -0.576, 0.576, 0.817, -23.226, 16.363)" fill="url(#linear-gradient-29)"/>
            </g>
          </g>
          <g id="Grupo_1070261" data-name="Grupo 1070261">
            <g id="Grupo_1070260" data-name="Grupo 1070260" clip-path="url(#clip-path-7)">
              <path id="Trazado_815101" data-name="Trazado 815101" d="M103.811,301.85c2.012-6.063,10.964-10.374,10.964-10.374a19.124,19.124,0,0,0,17.177,1.673,34.45,34.45,0,0,1,.559,13.312c-1.245,6.412-9.062,47.619-9.062,47.619-12.316,2.5-31.258-2.51-31.258-2.51,7.845-13.928,9.607-43.657,11.62-49.719" transform="translate(-32.573 -102.984)" fill="#3b5620"/>
            </g>
          </g>
          <g id="Grupo_1070263" data-name="Grupo 1070263" transform="translate(83.859 129.076)">
            <g id="Grupo_1070262" data-name="Grupo 1070262" clip-path="url(#clip-path-46)">
              <rect id="Rectángulo_375652" data-name="Rectángulo 375652" width="22.029" height="13.474" transform="translate(-1.522 21.304) rotate(-86.776)" fill="url(#linear-gradient-30)"/>
            </g>
          </g>
          <g id="Grupo_1070265" data-name="Grupo 1070265" transform="translate(61.012 155.686)">
            <g id="Grupo_1070264" data-name="Grupo 1070264" clip-path="url(#clip-path-47)">
              <rect id="Rectángulo_375653" data-name="Rectángulo 375653" width="34.653" height="46.557" transform="translate(-14.454 0)" fill="url(#linear-gradient-31)"/>
            </g>
          </g>
          <g id="Grupo_1070267" data-name="Grupo 1070267" transform="translate(85.156 113.691)">
            <g id="Grupo_1070266" data-name="Grupo 1070266" clip-path="url(#clip-path-48)">
              <rect id="Rectángulo_375654" data-name="Rectángulo 375654" width="26.26" height="26.369" transform="translate(-8.522 2.028) rotate(-18.127)" fill="url(#linear-gradient-32)"/>
            </g>
          </g>
          <g id="Grupo_1070269" data-name="Grupo 1070269" transform="translate(79.981 107.372)">
            <g id="Grupo_1070268" data-name="Grupo 1070268" clip-path="url(#clip-path-49)">
              <rect id="Rectángulo_375655" data-name="Rectángulo 375655" width="34.992" height="34.716" transform="translate(-13.072 18.08) rotate(-57.061)" fill="url(#linear-gradient-33)"/>
            </g>
          </g>
          <g id="Grupo_1070271" data-name="Grupo 1070271" transform="translate(84.33 121.835)">
            <g id="Grupo_1070270" data-name="Grupo 1070270" clip-path="url(#clip-path-50)">
              <rect id="Rectángulo_375656" data-name="Rectángulo 375656" width="8.059" height="8.206" transform="matrix(0.95, -0.311, 0.311, 0.95, -3.726, 0.635)" fill="url(#linear-gradient-34)"/>
            </g>
          </g>
          <g id="Grupo_1070273" data-name="Grupo 1070273">
            <g id="Grupo_1070272" data-name="Grupo 1070272" clip-path="url(#clip-path-7)">
              <path id="Trazado_815107" data-name="Trazado 815107" d="M235.831,87.873c6.877-18.138,44.281-21.044,49.246,5.614,4.522,24.285-44.695,32.158-44.695,32.158,25.828-13.565-11.429-19.634-4.551-37.772" transform="translate(-83.019 -26.098)" fill="#bdd0fb"/>
              <path id="Trazado_815108" data-name="Trazado 815108" d="M288.807,101.389l-22.285-.242a.3.3,0,1,1,.007-.591l22.285.242a.3.3,0,1,1-.006.59" transform="translate(-94.064 -35.528)" fill="#fff"/>
              <path id="Trazado_815109" data-name="Trazado 815109" d="M252.676,101l-6.612-.072a.3.3,0,1,1,.006-.59l6.612.072a.3.3,0,1,1-.006.59" transform="translate(-86.836 -35.45)" fill="#fff"/>
              <path id="Trazado_815110" data-name="Trazado 815110" d="M297.5,108.461l-8.368-.091a.3.3,0,0,1,.006-.59l8.368.091a.3.3,0,1,1-.006.59" transform="translate(-102.051 -38.08)" fill="#fff"/>
              <path id="Trazado_815111" data-name="Trazado 815111" d="M262.018,108.075l-14.868-.162a.3.3,0,1,1,.006-.59l14.868.162a.3.3,0,1,1-.006.59" transform="translate(-87.219 -37.919)" fill="#fff"/>
              <path id="Trazado_815112" data-name="Trazado 815112" d="M291,115.367l-22.244-.242a.3.3,0,1,1,.006-.59l22.244.242a.3.3,0,1,1-.006.59" transform="translate(-94.853 -40.467)" fill="#fff"/>
              <path id="Trazado_815113" data-name="Trazado 815113" d="M255.935,114.986l-7.7-.083a.3.3,0,0,1,.006-.591l7.7.084a.3.3,0,1,1-.006.59" transform="translate(-87.603 -40.389)" fill="#fff"/>
            </g>
          </g>
          <g id="Grupo_1070275" data-name="Grupo 1070275" transform="translate(236.586 162.692)">
            <g id="Grupo_1070274" data-name="Grupo 1070274" clip-path="url(#clip-path-52)">
              <rect id="Rectángulo_375658" data-name="Rectángulo 375658" width="94.201" height="94.201" transform="matrix(0.653, -0.758, 0.758, 0.653, -33.029, 38.338)" fill="url(#linear-gradient-35)"/>
            </g>
          </g>
          <g id="Grupo_1070283" data-name="Grupo 1070283">
            <g id="Grupo_1070282" data-name="Grupo 1070282" clip-path="url(#clip-path-7)">
              <path id="Trazado_815115" data-name="Trazado 815115" d="M432.138,285.583A32.287,32.287,0,1,1,399.851,253.3a32.287,32.287,0,0,1,32.287,32.286" transform="translate(-129.868 -89.495)" fill="#632059"/>
              <g id="Grupo_1070278" data-name="Grupo 1070278" transform="translate(242.62 165.544)" opacity="0.78">
                <g id="Grupo_1070277" data-name="Grupo 1070277">
                  <g id="Grupo_1070276" data-name="Grupo 1070276" clip-path="url(#clip-path-54)">
                    <path id="Trazado_815116" data-name="Trazado 815116" d="M375.918,273.864a.733.733,0,0,1-.333-.08.741.741,0,0,1-.327-1,30.416,30.416,0,0,1,27.284-16.8,30.791,30.791,0,0,1,5.509.5.74.74,0,1,1-.265,1.457,29.334,29.334,0,0,0-5.244-.471,28.943,28.943,0,0,0-25.962,15.985.74.74,0,0,1-.662.407" transform="translate(-375.177 -255.99)" fill="#fff"/>
                  </g>
                </g>
              </g>
              <g id="Grupo_1070281" data-name="Grupo 1070281" transform="translate(243.361 169.465)" opacity="0.78">
                <g id="Grupo_1070280" data-name="Grupo 1070280">
                  <g id="Grupo_1070279" data-name="Grupo 1070279" clip-path="url(#clip-path-55)">
                    <path id="Trazado_815117" data-name="Trazado 815117" d="M430.976,289.381a27.326,27.326,0,1,1-27.327-27.327,27.327,27.327,0,0,1,27.327,27.327" transform="translate(-376.323 -262.054)" fill="#fff"/>
                  </g>
                </g>
              </g>
            </g>
          </g>
          <g id="Grupo_1070285" data-name="Grupo 1070285" transform="translate(258.652 177.453)">
            <g id="Grupo_1070284" data-name="Grupo 1070284" clip-path="url(#clip-path-56)">
              <rect id="Rectángulo_375662" data-name="Rectángulo 375662" width="46.956" height="36.164" transform="matrix(0.31, -0.951, 0.951, 0.31, -12.36, 37.409)" fill="url(#linear-gradient-36)"/>
            </g>
          </g>
          <g id="Grupo_1070287" data-name="Grupo 1070287">
            <g id="Grupo_1070286" data-name="Grupo 1070286" clip-path="url(#clip-path-7)">
              <path id="Trazado_815119" data-name="Trazado 815119" d="M431.923,380.723H367.306a.412.412,0,0,1-.411-.411V368.669a.412.412,0,0,1,.411-.411h64.617a.412.412,0,0,1,.411.411v11.642a.412.412,0,0,1-.411.411" transform="translate(-129.631 -130.113)" fill="#d6ab1d"/>
              <path id="Trazado_815120" data-name="Trazado 815120" d="M432,403.612H367.386a.412.412,0,0,1-.412-.411V391.558a.412.412,0,0,1,.412-.411H432a.412.412,0,0,1,.411.411V403.2a.411.411,0,0,1-.411.411" transform="translate(-129.659 -138.2)" fill="#d6ab1d"/>
              <path id="Trazado_815121" data-name="Trazado 815121" d="M432.082,426.5H367.465a.412.412,0,0,1-.412-.411V414.447a.412.412,0,0,1,.412-.411h64.617a.411.411,0,0,1,.411.411v11.642a.411.411,0,0,1-.411.411" transform="translate(-129.687 -146.287)" fill="#d6ab1d"/>
              <path id="Trazado_815122" data-name="Trazado 815122" d="M432.161,449.389H367.544a.411.411,0,0,1-.411-.411V437.335a.412.412,0,0,1,.411-.411h64.617a.412.412,0,0,1,.411.411v11.642a.411.411,0,0,1-.411.411" transform="translate(-129.715 -154.373)" fill="#d6ab1d"/>
              <path id="Trazado_815123" data-name="Trazado 815123" d="M432.24,472.278H367.624a.412.412,0,0,1-.412-.411V460.224a.412.412,0,0,1,.412-.411H432.24a.411.411,0,0,1,.411.411v11.642a.412.412,0,0,1-.411.411" transform="translate(-129.743 -162.461)" fill="#d6ab1d"/>
            </g>
          </g>
          <g id="Grupo_1070289" data-name="Grupo 1070289" transform="translate(163.363 194.978)">
            <g id="Grupo_1070288" data-name="Grupo 1070288" clip-path="url(#clip-path-58)">
              <rect id="Rectángulo_375664" data-name="Rectángulo 375664" width="94.201" height="94.201" transform="translate(-33.03 38.338) rotate(-49.254)" fill="url(#linear-gradient-37)"/>
            </g>
          </g>
          <g id="Grupo_1070297" data-name="Grupo 1070297">
            <g id="Grupo_1070296" data-name="Grupo 1070296" clip-path="url(#clip-path-7)">
              <path id="Trazado_815125" data-name="Trazado 815125" d="M318.909,335.51a32.287,32.287,0,1,1-32.287-32.286,32.287,32.287,0,0,1,32.287,32.286" transform="translate(-89.862 -107.135)" fill="#632059"/>
              <g id="Grupo_1070292" data-name="Grupo 1070292" transform="translate(169.397 197.831)" opacity="0.78">
                <g id="Grupo_1070291" data-name="Grupo 1070291">
                  <g id="Grupo_1070290" data-name="Grupo 1070290" clip-path="url(#clip-path-60)">
                    <path id="Trazado_815126" data-name="Trazado 815126" d="M262.688,323.79a.733.733,0,0,1-.333-.08.741.741,0,0,1-.327-1,30.416,30.416,0,0,1,27.284-16.8,30.764,30.764,0,0,1,5.509.5.74.74,0,1,1-.265,1.457,29.369,29.369,0,0,0-5.244-.471,28.944,28.944,0,0,0-25.962,15.985.74.74,0,0,1-.662.407" transform="translate(-261.948 -305.917)" fill="#fff"/>
                  </g>
                </g>
              </g>
              <g id="Grupo_1070295" data-name="Grupo 1070295" transform="translate(170.137 201.752)" opacity="0.78">
                <g id="Grupo_1070294" data-name="Grupo 1070294">
                  <g id="Grupo_1070293" data-name="Grupo 1070293" clip-path="url(#clip-path-61)">
                    <path id="Trazado_815127" data-name="Trazado 815127" d="M317.747,339.308a27.326,27.326,0,1,1-27.327-27.327,27.327,27.327,0,0,1,27.327,27.327" transform="translate(-263.093 -311.981)" fill="#fff"/>
                  </g>
                </g>
              </g>
            </g>
          </g>
          <g id="Grupo_1070299" data-name="Grupo 1070299" transform="translate(185.428 209.739)">
            <g id="Grupo_1070298" data-name="Grupo 1070298" clip-path="url(#clip-path-62)">
              <rect id="Rectángulo_375668" data-name="Rectángulo 375668" width="47.32" height="37.337" transform="translate(-13.587 36.441) rotate(-69.775)" fill="url(#linear-gradient-38)"/>
            </g>
          </g>
          <g id="Grupo_1070301" data-name="Grupo 1070301">
            <g id="Grupo_1070300" data-name="Grupo 1070300" clip-path="url(#clip-path-7)">
              <path id="Trazado_815129" data-name="Trazado 815129" d="M322.376,426.5H257.76a.412.412,0,0,1-.412-.411V414.447a.412.412,0,0,1,.412-.411h64.616a.411.411,0,0,1,.411.411v11.642a.411.411,0,0,1-.411.411" transform="translate(-90.926 -146.287)" fill="#d6ab1d"/>
              <path id="Trazado_815130" data-name="Trazado 815130" d="M322.456,449.389H257.84a.412.412,0,0,1-.412-.411V437.335a.412.412,0,0,1,.412-.411h64.616a.412.412,0,0,1,.411.411v11.642a.411.411,0,0,1-.411.411" transform="translate(-90.954 -154.373)" fill="#d6ab1d"/>
              <path id="Trazado_815131" data-name="Trazado 815131" d="M322.535,472.278H257.918a.412.412,0,0,1-.411-.411V460.224a.411.411,0,0,1,.411-.411h64.617a.411.411,0,0,1,.411.411v11.642a.412.412,0,0,1-.411.411" transform="translate(-90.982 -162.461)" fill="#d6ab1d"/>
            </g>
          </g>
        </g>
      </g>
    </g>
  </g>
</svg>
