<svg xmlns="http://www.w3.org/2000/svg" xmlns:xlink="http://www.w3.org/1999/xlink" width="262.545" height="321" viewBox="0 0 262.545 321">
  <defs>
    <clipPath id="clip-path">
      <rect id="Rectángulo_322567" data-name="Rectángulo 322567" width="262.545" height="321" fill="none"/>
    </clipPath>
    <clipPath id="clip-path-3">
      <rect id="Rectángulo_322562" data-name="Rectángulo 322562" width="38.525" height="15.694" fill="none"/>
    </clipPath>
    <clipPath id="clip-path-4">
      <rect id="Rectángulo_322563" data-name="Rectángulo 322563" width="16.164" height="100.155" fill="none"/>
    </clipPath>
    <clipPath id="clip-path-5">
      <rect id="Rectángulo_322564" data-name="Rectángulo 322564" width="80.209" height="14.948" fill="none"/>
    </clipPath>
    <clipPath id="clip-path-6">
      <rect id="Rectángulo_322565" data-name="Rectángulo 322565" width="9.703" height="51.748" fill="none"/>
    </clipPath>
  </defs>
  <g id="Grupo_1070884" data-name="Grupo 1070884" transform="translate(-317.455 -2208)">
    <g id="Grupo_1069946" data-name="Grupo 1069946" transform="translate(317.455 2208)">
      <g id="Grupo_255530" data-name="Grupo 255530" clip-path="url(#clip-path)">
        <rect id="Rectángulo_322561" data-name="Rectángulo 322561" width="11.72" height="251.992" transform="translate(218.724 15.724)" fill="#e1e1e1"/>
        <g id="Grupo_255529" data-name="Grupo 255529">
          <g id="Grupo_255528" data-name="Grupo 255528" clip-path="url(#clip-path)">
            <path id="Trazado_273144" data-name="Trazado 273144" d="M27.143,10.017V260.072a.17.17,0,0,0,.169.17H195.206a.172.172,0,0,0,.171-.17V10.017a.17.17,0,0,0-.171-.169H27.312a.168.168,0,0,0-.169.169" transform="translate(21.567 7.825)" fill="#f5f5f5"/>
            <path id="Trazado_273145" data-name="Trazado 273145" d="M198.021,263.054H26.227a.168.168,0,0,1-.169-.169V8.931a.168.168,0,0,1,.169-.169H198.021a.168.168,0,0,1,.169.169V262.886a.168.168,0,0,1-.169.169m-167.9-3.9h164a.168.168,0,0,0,.169-.169V12.828a.168.168,0,0,0-.169-.169h-164a.168.168,0,0,0-.169.169V258.988a.168.168,0,0,0,.169.169" transform="translate(20.705 6.962)" fill="#ececec"/>
            <path id="Trazado_273146" data-name="Trazado 273146" d="M36.582,18.625v219a.169.169,0,0,0,.169.169H171.063a.17.17,0,0,0,.17-.169v-219a.17.17,0,0,0-.17-.169H36.751a.168.168,0,0,0-.169.169" transform="translate(29.067 14.665)" fill="#fff"/>
            <path id="Trazado_273147" data-name="Trazado 273147" d="M128.441,141.721H53.066a.116.116,0,0,1-.115-.115V53.22a.116.116,0,0,1,.115-.115h75.375a.116.116,0,0,1,.115.115v88.386a.116.116,0,0,1-.115.115" transform="translate(42.073 42.196)" fill="#ececec"/>
            <path id="Trazado_273148" data-name="Trazado 273148" d="M122.008,127.368c.1.285-3.634,1.92-10.735,1.088a26.22,26.22,0,0,1-12.065-4.824,24.48,24.48,0,0,1-9.377-14.746A21.2,21.2,0,0,1,97,88.727a18.844,18.844,0,0,1,5.438-3.185,14.479,14.479,0,0,1,6.8-.784,11.982,11.982,0,0,1,6.8,2.97,8.878,8.878,0,0,1,2.681,7.923,12.933,12.933,0,0,1-3.733,6.8,24.594,24.594,0,0,1-5.7,4.2,31.183,31.183,0,0,1-13.588,3.88,27.012,27.012,0,0,1-14.479-3.295A26.335,26.335,0,0,1,70.569,96.186a22.521,22.521,0,0,1-1.911-15.469A22.993,22.993,0,0,1,76.812,67.97a20.109,20.109,0,0,1,6.836-3.451,16.993,16.993,0,0,1,7.7-.24,12.552,12.552,0,0,1,6.984,3.941,11.593,11.593,0,0,1,2.739,7.464,14.224,14.224,0,0,1-1.822,7.112,19.052,19.052,0,0,1-4.312,5.181,29.033,29.033,0,0,1-10.71,5.692,27.464,27.464,0,0,1-11.268.869,23.042,23.042,0,0,1-9.806-3.756,21.23,21.23,0,0,1-9.368-14.836,17.916,17.916,0,0,1,3.471-12.718A15.2,15.2,0,0,1,63.671,58.1c1.766-.669,2.773-.646,2.816-.477.075.24-.8.63-2.231,1.586a16.716,16.716,0,0,0-4.992,5.364,15.856,15.856,0,0,0-2.042,10.864A17.789,17.789,0,0,0,65.548,87.1c4.582,2.911,11.008,3.659,17.179,1.637a24.186,24.186,0,0,0,8.6-4.863c2.473-2.218,4.154-5.071,4.014-8.056-.079-2.993-1.965-5.1-5.174-5.717a11.147,11.147,0,0,0-4.942.233,14.186,14.186,0,0,0-4.664,2.442,17.021,17.021,0,0,0-5.883,9.373,16.367,16.367,0,0,0,1.445,11.234,20.321,20.321,0,0,0,8.135,8.456,21.057,21.057,0,0,0,11.191,2.6,25.458,25.458,0,0,0,11.006-3.008,19.062,19.062,0,0,0,4.393-3.1,7.426,7.426,0,0,0,2.229-3.632,3.174,3.174,0,0,0-.9-2.923,6.583,6.583,0,0,0-3.641-1.6,9.181,9.181,0,0,0-4.285.364,13.755,13.755,0,0,0-3.995,2.188,16.626,16.626,0,0,0-6.085,15.417,21.24,21.24,0,0,0,7.2,12.761,25.418,25.418,0,0,0,10.356,5.168c6.394,1.488,10.233.75,10.283,1.29" transform="translate(42.638 45.704)" fill="#e1e1e1"/>
            <path id="Trazado_273149" data-name="Trazado 273149" d="M142.143,120.829l-7.69,15.248-17.867-.576-2.066-1.814,9.35-11.575Z" transform="translate(90.995 96.007)" fill="#ffc19d"/>
            <path id="Trazado_273150" data-name="Trazado 273150" d="M151.911,198.376H12.132c5.258-12.526,12.365-24.1,21.086-42.585.162-.359.341-.7.5-1.059h9.8l5.438-.108,29.754-.5h.144l7.663-.144h.431l2.3-.054h.036l20.673-.359,6.5-.108,5.42-.09,3.015-.054,1.651-.036,7.412-.126,7.43,16.474c4.235,11.413,7.788,20.458,10.534,28.749" transform="translate(9.64 121.691)" fill="#1a2e35"/>
            <path id="Trazado_273151" data-name="Trazado 273151" d="M92.545,78.181l-5.57-14.089-33.217-1.75-13.569,1.75-1.493,3.9-9.208,162.92s32.175,6.491,48.263,4.233,35-9.6,35-9.6V132.9Z" transform="translate(23.429 49.535)" fill="#f5f5f5"/>
            <path id="Trazado_273152" data-name="Trazado 273152" d="M36.764,75.605a1.5,1.5,0,0,0,.23.294c.19.212.427.477.72.806.641.7,1.594,1.7,2.839,2.941a116.238,116.238,0,0,0,10.873,9.518l.16.122.136-.149A123.086,123.086,0,0,0,61.693,76.66c.337-.49.671-.976.983-1.428l-.4.007L70.262,85.99a5.462,5.462,0,0,0,1.107,1.122,2.087,2.087,0,0,0,1.542.42,2.508,2.508,0,0,0,1.337-.756,13.149,13.149,0,0,0,.913-1.073l3.151-3.946c1.89-2.389,3.426-4.328,4.524-5.716q.751-.977,1.206-1.565a3.444,3.444,0,0,0,.395-.565,3.8,3.8,0,0,0-.468.5c-.321.38-.747.881-1.278,1.509-1.125,1.364-2.7,3.272-4.641,5.619l-3.2,3.91c-.569.682-1.147,1.516-2.006,1.66s-1.646-.616-2.232-1.4c-2.437-3.3-5.116-6.936-7.943-10.767l-.2-.276-.2.284-.98,1.423a129.343,129.343,0,0,1-9.9,12.463l.3-.027A130.306,130.306,0,0,1,40.734,79.46c-1.269-1.21-2.249-2.186-2.92-2.852-.314-.309-.567-.558-.768-.757a1.462,1.462,0,0,0-.282-.246" transform="translate(29.211 58.727)" fill="#1a2e35"/>
            <g id="Grupo_255518" data-name="Grupo 255518" transform="translate(65.403 133.733)" opacity="0.3">
              <g id="Grupo_255517" data-name="Grupo 255517">
                <g id="Grupo_255516" data-name="Grupo 255516" clip-path="url(#clip-path-3)">
                  <path id="Trazado_273153" data-name="Trazado 273153" d="M74.969,85.453s-4.212,5.188-5.394,3.885-7.421-10.963-8.169-11.365S53.118,91.115,50.159,90.168,36.65,78.674,36.65,78.674l-.2-4.153L51.814,88.506l10.913-13.9,9.181,11.945s1.945,1.524,3.062-1.1" transform="translate(-36.444 -74.521)"/>
                </g>
              </g>
            </g>
            <path id="Trazado_273154" data-name="Trazado 273154" d="M56.314,225.657a9.387,9.387,0,0,0,.014-1.529q-.051-1.626-.14-4.375c-.16-3.889-.382-9.36-.655-16.085-.569-13.58-1.335-32.338-2.055-53.062s-1.245-39.5-1.615-53.085c-.192-6.726-.346-12.2-.458-16.09q-.1-2.748-.162-4.373a9.528,9.528,0,0,0-.12-1.525,9.251,9.251,0,0,0-.068,1.527q-.005,1.629-.014,4.379c.039,3.891.1,9.368.162,16.1.2,13.592.626,32.37,1.342,53.1s1.59,39.488,2.328,53.062c.4,6.717.721,12.185.951,16.07q.2,2.746.316,4.368a9.308,9.308,0,0,0,.174,1.518" transform="translate(40.556 60.015)" fill="#1a2e35"/>
            <g id="Grupo_255521" data-name="Grupo 255521" transform="translate(125.234 219.912)" opacity="0.3">
              <g id="Grupo_255520" data-name="Grupo 255520">
                <g id="Grupo_255519" data-name="Grupo 255519" clip-path="url(#clip-path-4)">
                  <path id="Trazado_273155" data-name="Trazado 273155" d="M85.949,222.7H75.2c-1.92-13.782-3.41-27.654-4.325-41.544-.09-1.113-.162-2.243-.233-3.374-.754-12.723-1.041-25.465-.736-38.188.018-.574.018-1.149.054-1.7.126-4.558.323-9.116.628-13.675.018-.556.054-1.113.09-1.669l2.046,13.352v.018c.2,1.328.395,2.638.592,3.966.108.646.2,1.292.305,1.938.072.485.144.987.215,1.472q2.611,17.174,5.24,34.348c.036.215.072.449.108.664q3.392,22.208,6.766,44.4" transform="translate(-69.785 -122.543)"/>
                </g>
              </g>
            </g>
            <path id="Trazado_273156" data-name="Trazado 273156" d="M90.078,72.786A20.8,20.8,0,0,1,103.6,86.57l20.788,73.3-17.048,50.28L91.544,187.224,76.283,69.662Z" transform="translate(60.612 55.351)" fill="#632059"/>
            <path id="Trazado_273157" data-name="Trazado 273157" d="M131.451,270.558c-.036-.054-.072-.126-.126-.215-.09-.179-.2-.431-.341-.718H88.435c-1.795-13.136-3.84-28.605-5.689-43.339l-.215-1.669c-1.813-14.446-3.41-28.049-4.343-37.937-.108-1.023-.2-1.992-.269-2.925-.305-3.3-.5-6.066-.592-8.165-.054-1.292-.144-2.782-.269-4.451-1.579-19.525-8.363-63.6-12.4-88.885v-.018a.018.018,0,0,0,.018-.018h-.018c-1.543-9.727-2.674-16.654-2.961-18.34V63.86c-.036-.233-.054-.377-.054-.377l16.043,9.511L87.968,75l9.421,1.848,2.961,84.758.09,2.315v.018l.072,1.974.036,1.077.072,2.459v.018l.018.305.036,1.023.09,2.674v.054l.09,2.53v.018l.036.969v.018l.592,16.636.108,3.051c0,.036-.018.054,0,.072l.144,4.253c-.072,1.292-.108,2.028-.108,2.028l16.995,38.063c.826,1.83,1.6,3.607,2.369,5.312l10.355,23.15h-.269c.126.287.215.52.287.7.036.09.072.179.09.233" transform="translate(48.979 50.442)" fill="#632059"/>
            <path id="Trazado_273158" data-name="Trazado 273158" d="M113.859,255.676c-.036-.054-.072-.126-.126-.215-.09-.179-.2-.431-.341-.718-.036-.072-.072-.162-.108-.251-.413-.9-.987-2.171-1.741-3.822-1.489-3.338-3.661-8.165-6.353-14.177C99.825,224.4,92.324,207.51,83.8,188.308l-.018-.054V188.2c.072-2.046.126-4.145.215-6.263-.018-.018,0-.036,0-.072q.054-1.507.108-3.069c.09-2.189.179-4.433.287-6.676.054-1,.09-1.992.144-2.979v-.036c.161-3.015.305-6.012.449-8.937l.054-1.131c.09-1.938.2-3.84.287-5.725.018-.395.036-.772.054-1.149.018-.269.036-.538.036-.808v-.018c.036-.736.072-1.436.108-2.154v-.018c.036-.431.054-.861.072-1.274v-.072c.018-.395.036-.79.072-1.184l.054-1.077v-.018c.036-.754.072-1.49.108-2.225.108-2.1.2-4.163.305-6.173.485-10.749.79-20.44.915-28.587.144-8.129.144-14.715.126-19.274-.018-2.261-.018-4.02-.036-5.24,0-.592.018-1.041.018-1.364,0-.305.018-.467.018-.467s.018.162.018.467c.018.323.036.772.054,1.364.018,1.22.072,2.979.126,5.24.072,4.558.126,11.144.036,19.274-.09,8.147-.359,17.838-.826,28.605-.072,1.83-.162,3.679-.251,5.581-.036.718-.072,1.454-.108,2.189-.018.5-.036,1.023-.072,1.543,0,.269-.018.538-.036.826-.018.431-.036.843-.072,1.274,0,.269-.018.538-.036.826v.018c-.018.413-.036.808-.072,1.22v.018c0,.305-.018.592-.036.9-.018.377-.036.754-.054,1.149v.018c-.09,1.866-.2,3.769-.287,5.689-.018.377-.036.772-.054,1.149q-.323,6.03-.61,12.275v.018c0,.108-.018.2-.018.305-.108,2.225-.2,4.433-.287,6.622-.126,3.194-.233,6.335-.323,9.386,6.317,14.339,12.06,27.385,16.761,38.117.826,1.83,1.6,3.607,2.369,5.312.718,1.669,1.418,3.266,2.082,4.774,2.638,6.03,4.756,10.875,6.227,14.231.718,1.669,1.274,2.961,1.651,3.858.054.108.09.2.126.287.126.287.215.52.287.7.036.09.072.179.09.233" transform="translate(66.571 65.324)" fill="#1a2e35"/>
            <path id="Trazado_273159" data-name="Trazado 273159" d="M71.3,160.015a1,1,0,0,0,.079-.246c.048-.192.108-.432.183-.73.156-.682.375-1.626.653-2.825.51-2.464,1.236-6.035,1.906-10.487s1.335-9.773,1.852-15.7.935-12.46,1.258-19.315c.113-2.561.226-5.077.336-7.534q.081-1.839.162-3.632.043-.9.086-1.782l.027-.887,0-.45c0-.075-.009-.154-.018-.239a.844.844,0,0,0-.039-.165.412.412,0,0,0-.059-.093c-.045-.068-.224-.106-.262-.07-.176.086-.122.1-.17.144l.334-.072q-2.727-1.906-5.272-3.681l-.032.382q2.993-1.405,5.73-2.685l.154-.072-.043-.163c-.861-3.259-1.9-6.15-2.8-8.711S73.6,76.235,72.9,74.423s-1.272-3.223-1.671-4.181c-.194-.454-.348-.815-.465-1.089a1.854,1.854,0,0,0-.179-.366,2.105,2.105,0,0,0,.122.389c.1.282.237.648.407,1.111.373,1.009.9,2.426,1.567,4.219.668,1.823,1.477,4.041,2.363,6.6s1.886,5.468,2.717,8.7l.111-.235-5.744,2.652-.348.16.314.223,5.258,3.7.336-.074c0,.031-.165-.122-.154-.122,0-.041,0,.005-.018,0a.165.165,0,0,1-.1.054l-.075.029,0,0,0,.007.005.038.014.2,0,.425-.029.874c-.031.587-.061,1.181-.092,1.777q-.081,1.8-.167,3.638-.167,3.682-.343,7.53c-.321,6.853-.721,13.377-1.217,19.3s-1.116,11.241-1.746,15.69-1.3,8.029-1.75,10.5c-.239,1.206-.427,2.155-.563,2.841-.056.3-.1.547-.135.741a.955.955,0,0,0-.031.257" transform="translate(56.083 54.655)" fill="#1a2e35"/>
            <path id="Trazado_273160" data-name="Trazado 273160" d="M60.3,179.347c-.144,2.01-.287,4-.467,5.958-.162,1.884-.341,3.751-.538,5.563-.323,3-.682,5.85-1.095,8.6v.018c-.018.162-.054.305-.072.449v.018c-.251,1.6-.5,3.141-.772,4.63-.108.592-.215,1.166-.305,1.723-.036.162-.072.305-.09.449-.323,1.759-.628,3.428-.915,5.043-.664,3.661-1.238,6.927-1.777,9.888q-.269,1.588-.538,3.069c-.108.7-.233,1.382-.341,2.046-.144.772-.269,1.525-.395,2.243-.162.969-.323,1.884-.467,2.782-2.638,15.326-3.266,20.261-7.071,38.727H6.552l11.072-38.081L20.8,221.573l2.028-7.035.144-.485.144-.467L21.034,192.68v-.018l-.808-8.255-.036-.341L10.554,86.8,45.871,73.862s8.255-7.591,12.67-11.539l.144,1.741.072,1.023,1.328,17.138s.036.7.108,1.992l.036.556c.018.556.054,1.184.09,1.9q.027.538.054,1.131c0,.179.018.359.036.556.359,8,.969,23.078,1.131,40.45.144,16.151-.09,34.276-1.238,50.535" transform="translate(5.206 49.52)" fill="#632059"/>
            <path id="Trazado_273161" data-name="Trazado 273161" d="M15.767,75.965s-10.7,5.251-12.3,20.2C2.053,109.31-.26,190.015.024,196.528s5.9,24.907,15.986,25.547C31.924,223.087,36.3,210.807,36.3,210.807L32.028,169.58Z" transform="translate(0 60.359)" fill="#632059"/>
            <path id="Trazado_273162" data-name="Trazado 273162" d="M34.389,155.683a.91.91,0,0,0-.027-.242c-.034-.187-.075-.418-.127-.7-.129-.653-.309-1.552-.535-2.692-.427-2.344-1.075-5.732-1.673-9.949-1.26-8.425-2.331-20.155-2.952-33.144-.144-3.06-.285-6.051-.422-8.944q-.1-2.17-.19-4.262-.057-1.044-.109-2.067c-.014-.339-.027-.677-.039-1.012l0-.494c0-.081.005-.162.013-.231a.623.623,0,0,1,.011-.075c0-.011,0,0-.014.025s0,.005-.032.034a.193.193,0,0,1-.144.048c-.056.014-.145-.066-.131-.057L28,91.9l.327.07,5.256-3.7.3-.212-.332-.153-5.748-2.647.1.215a68.084,68.084,0,0,0,1.17-7c.267-2.069.528-3.849.813-5.294a31.854,31.854,0,0,1,.813-3.293c.113-.346.2-.623.275-.842a1.231,1.231,0,0,0,.079-.294,1.3,1.3,0,0,0-.131.275c-.075.185-.2.458-.327.827a26.924,26.924,0,0,0-.915,3.284c-.318,1.445-.608,3.23-.9,5.3s-.608,4.422-1.235,6.949l-.038.149.14.066,5.728,2.688-.032-.363L28.071,91.6l.325.07-.047-.065a.29.29,0,0,0-.183-.09.281.281,0,0,0-.172.061.214.214,0,0,0-.048.059.267.267,0,0,0-.039.083.807.807,0,0,0-.034.17c-.009.1-.013.183-.016.269v.517c.013.337.023.68.036,1.023q.051,1.023.1,2.069.086,2.089.179,4.26c.133,2.895.273,5.886.413,8.948a319.084,319.084,0,0,0,3.1,33.171c.642,4.217,1.344,7.6,1.829,9.935q.4,1.7.626,2.676c.07.28.127.508.174.693a.859.859,0,0,0,.075.231" transform="translate(21.858 54.63)" fill="#1a2e35"/>
            <g id="Grupo_255524" data-name="Grupo 255524" transform="translate(28.5 268.951)" opacity="0.3">
              <g id="Grupo_255523" data-name="Grupo 255523">
                <g id="Grupo_255522" data-name="Grupo 255522" clip-path="url(#clip-path-5)">
                  <path id="Trazado_273163" data-name="Trazado 273163" d="M95.544,157.569s2.408,3.132-2.891,4.1-65.36-3.476-65.36-3.476l-11.412,6.629,1.489-4.793,9.518-10.154Z" transform="translate(-15.882 -149.869)"/>
                </g>
              </g>
            </g>
            <path id="Trazado_273164" data-name="Trazado 273164" d="M21.68,98.5l75.607,3.858a3.482,3.482,0,0,1,3.3,3.282l5.019,89.687a3.481,3.481,0,0,1-3.659,3.67l-73.364-3.835a3.482,3.482,0,0,1-3.288-3.2L18.03,102.26A3.483,3.483,0,0,1,21.68,98.5" transform="translate(14.317 78.263)" fill="#1a2e35"/>
            <path id="Trazado_273165" data-name="Trazado 273165" d="M11.218,87.548a5.014,5.014,0,0,0,.122.806q.164.848.441,2.29l1.656,8.411c1.382,7.106,3.187,16.943,4.914,27.85s3.038,20.828,3.916,28.013c.427,3.56.773,6.455,1.019,8.512q.18,1.456.285,2.315a5.093,5.093,0,0,0,.133.8,5.342,5.342,0,0,0-.034-.815q-.073-.861-.2-2.324c-.174-2.017-.468-4.933-.863-8.531-.791-7.2-2.053-17.129-3.778-28.049s-3.589-20.751-5.057-27.843c-.732-3.546-1.353-6.41-1.809-8.382q-.334-1.429-.531-2.272a5.139,5.139,0,0,0-.219-.784" transform="translate(8.91 69.563)" fill="#1a2e35"/>
            <path id="Trazado_273166" data-name="Trazado 273166" d="M27.361,134.265s-4.354.251-8.2,6.7l-7.368,4.687s-6.448,10.132,0,19.595,14.235,1.423,14.235,1.423,7.787,3.858,9.963,3.185,16.932-8.607,19.091-10.43c.641-.542,5.391-6,5.391-6s6.582-1.412,7.336-2.92.808-4.966-3.63-4.632c0,0,4.32-1.3,4.822-3.478s-.038-5.018-7.657-3.93-22.312,5.172-24.013,4.754a1.064,1.064,0,0,1,.169-1.926c.547-.255,17.818-6.97,20.6-7.735,3-.822,3.428-7.5-2.769-5.913S28.953,134.1,28.953,134.1Z" transform="translate(7.089 101.233)" fill="#ffc19d"/>
            <path id="Trazado_273167" data-name="Trazado 273167" d="M25.543,148.348a26.022,26.022,0,0,0,3.2-.971c1.961-.641,4.675-1.509,7.7-2.39s5.779-1.606,7.776-2.121a25.572,25.572,0,0,0,3.223-.9,3.244,3.244,0,0,0-.9.1c-.571.093-1.393.251-2.4.467-2.022.429-4.8,1.1-7.833,1.987s-5.735,1.807-7.672,2.534c-.969.363-1.748.669-2.279.9a3.173,3.173,0,0,0-.809.4" transform="translate(20.296 112.792)" fill="#ff9c6a"/>
            <path id="Trazado_273168" data-name="Trazado 273168" d="M24.161,143.721a4.949,4.949,0,0,0,1.131-.075c.725-.079,1.769-.217,3.058-.409,2.575-.384,6.121-1,10.008-1.832s7.376-1.723,9.881-2.428c1.254-.354,2.265-.653,2.957-.879a4.889,4.889,0,0,0,1.062-.395,5.1,5.1,0,0,0-1.114.212l-2.993.727c-2.525.619-6.017,1.454-9.9,2.286s-7.406,1.5-9.963,1.969l-3.027.562a4.992,4.992,0,0,0-1.1.264" transform="translate(19.198 109.408)" fill="#ff9c6a"/>
            <path id="Trazado_273169" data-name="Trazado 273169" d="M12.494,140.091a2.447,2.447,0,0,0-.014.793,13.593,13.593,0,0,0,.287,2.141,19.1,19.1,0,0,0,7.692,11.668,13.413,13.413,0,0,0,1.854,1.107,2.459,2.459,0,0,0,.734.3c.043-.077-.957-.6-2.383-1.685A20.908,20.908,0,0,1,13.1,142.946c-.44-1.741-.522-2.862-.61-2.855" transform="translate(9.904 111.312)" fill="#ff9c6a"/>
            <path id="Trazado_273170" data-name="Trazado 273170" d="M13.344,159.916c.07-.063-.944-1.043-2.089-2.965a17.01,17.01,0,0,1-.519-16.637c1.023-1.99,1.974-3.031,1.9-3.088a3.341,3.341,0,0,0-.689.705,14.273,14.273,0,0,0-1.515,2.22,16.442,16.442,0,0,0,.528,16.982,14.611,14.611,0,0,0,1.651,2.123,3.313,3.313,0,0,0,.732.66" transform="translate(6.615 109.034)" fill="#1a2e35"/>
            <path id="Trazado_273171" data-name="Trazado 273171" d="M1.631,134.051c.057.081,1.235-.827,3.365-1.866A24.6,24.6,0,0,1,8.874,130.7a27.185,27.185,0,0,1,5-.894,27.121,27.121,0,0,1,5.077.142,24.739,24.739,0,0,1,4.056.89c2.261.712,3.56,1.436,3.6,1.348a4.212,4.212,0,0,0-.888-.544,9.072,9.072,0,0,0-1.1-.535,14.932,14.932,0,0,0-1.507-.6,22.007,22.007,0,0,0-4.1-1.009,25.555,25.555,0,0,0-5.174-.185,25.471,25.471,0,0,0-5.088.951,22.187,22.187,0,0,0-3.907,1.606,14.989,14.989,0,0,0-1.4.815,9.164,9.164,0,0,0-1.009.691,4.234,4.234,0,0,0-.8.669" transform="translate(1.296 102.708)" fill="#1a2e35"/>
            <g id="Grupo_255527" data-name="Grupo 255527" transform="translate(45.621 125.013)" opacity="0.3">
              <g id="Grupo_255526" data-name="Grupo 255526">
                <g id="Grupo_255525" data-name="Grupo 255525" clip-path="url(#clip-path-6)">
                  <path id="Trazado_273172" data-name="Trazado 273172" d="M32.15,69.662s-6.374,14.864-5.49,16.1,4.248,2.123,4.248,2.123-5.49,2.372-5.486,4.481c.007,4.194,5.888,29.042,5.888,29.042L29.86,91.068l5.265-3.691-5.739-2.669Z" transform="translate(-25.421 -69.662)"/>
                </g>
              </g>
            </g>
            <path id="Trazado_273173" data-name="Trazado 273173" d="M115.708,112.024l12,31.041,12.908-14.486,17.257,12.173L137.6,173.239c-6.36,8.18-12.445,13.732-19.371,12.858a20.9,20.9,0,0,1-4.092-.989c-9.52-3.243-16.058-9.628-18.547-19.372L84.642,123.082Z" transform="translate(67.254 89.011)" fill="#632059"/>
            <path id="Trazado_273174" data-name="Trazado 273174" d="M100.218,156.329a8.9,8.9,0,0,0,.275-1.285c.145-.831.389-2.03.732-3.5s.811-3.2,1.412-5.1c.623-1.893,1.38-3.948,2.3-6.057s1.936-4.05,2.913-5.788c.992-1.726,1.947-3.248,2.8-4.488s1.568-2.234,2.084-2.9a9.087,9.087,0,0,0,.761-1.071,8.494,8.494,0,0,0-.878.978c-.553.642-1.3,1.61-2.189,2.839s-1.872,2.742-2.887,4.468a58.03,58.03,0,0,0-5.24,11.914c-.589,1.915-1.039,3.665-1.342,5.149s-.515,2.69-.614,3.532a8.559,8.559,0,0,0-.129,1.308" transform="translate(79.624 100.227)" fill="#1a2e35"/>
            <path id="Trazado_273175" data-name="Trazado 273175" d="M131.189,95.334s-41.636,47.2-50.009,55.89c-4,4.149-12.544,9.811-12.544,9.811l13.134,1.087Z" transform="translate(54.536 75.749)" fill="#e1e1e1"/>
            <path id="Trazado_273176" data-name="Trazado 273176" d="M133.093,94.644l70.1-6.186,1.92,7.324L140.5,171.112l-63.135,3.7-5.784-5.183Z" transform="translate(56.877 70.286)" fill="#e1e1e1"/>
            <path id="Trazado_273177" data-name="Trazado 273177" d="M202.86,92.505a8.039,8.039,0,0,1-1.328.231l-3.846.5-14.3,1.694c-12.232,1.367-29.164,3.263-48.358,5.411l.309-.165c-2.584,3.094-5.285,6.333-8.04,9.631-14.331,17.068-27.3,32.516-36.751,43.777-4.7,5.522-8.517,10.014-11.221,13.2q-1.946,2.245-3.087,3.559l-.82.91c-.192.2-.294.3-.305.289s.065-.129.23-.352l.748-.969q1.087-1.354,2.952-3.672c2.651-3.228,6.392-7.785,10.99-13.387,9.4-11.306,22.292-26.816,36.541-43.954,2.756-3.3,5.461-6.532,8.047-9.622l.12-.145.187-.02,48.392-5.1L197.649,92.9l3.864-.339a8.182,8.182,0,0,1,1.348-.059" transform="translate(59.683 73.492)" fill="#1a2e35"/>
            <path id="Trazado_273178" data-name="Trazado 273178" d="M203.052,89.457a8.321,8.321,0,0,1-1.35.206l-3.9.427-14.509,1.432-49.11,4.526.319-.172-8.4,10.378c-14.412,17.671-27.864,33.331-37.743,44.534-4.94,5.6-8.987,10.093-11.8,13.179l-3.266,3.53-.869.9c-.2.2-.307.3-.319.285a1.44,1.44,0,0,1,.248-.35c.215-.26.477-.578.8-.964l3.133-3.648c2.789-3.221,6.728-7.774,11.573-13.373,9.748-11.313,23.11-27.032,37.515-44.694l8.4-10.362.127-.156.2-.016,49.139-4.212,14.532-1.15,3.918-.267a8.236,8.236,0,0,1,1.364-.036" transform="translate(57.291 71.068)" fill="#1a2e35"/>
            <path id="Trazado_273179" data-name="Trazado 273179" d="M73.252,169.713a1.432,1.432,0,0,1,.237-.352l.764-.969,3.013-3.666c2.7-3.223,6.521-7.774,11.214-13.371,9.588-11.286,22.741-26.773,37.271-43.881,3.006-3.519,5.954-6.968,8.775-10.272l.124-.144.187-.018,48.224-4.458,14.254-1.222c1.61-.12,2.887-.217,3.84-.287a8.073,8.073,0,0,1,1.337-.043,7.825,7.825,0,0,1-1.321.214c-.949.109-2.222.258-3.826.447l-14.226,1.5-48.195,4.774.309-.162-8.765,10.281c-14.613,17.038-27.841,32.46-37.481,43.7L77.546,164.965q-1.989,2.242-3.148,3.551l-.836.908c-.194.2-.3.3-.31.289" transform="translate(58.202 72.319)" fill="#1a2e35"/>
            <path id="Trazado_273180" data-name="Trazado 273180" d="M128.118,108.182a3.232,3.232,0,0,1,3.4-3.365c1.03.039,2.378.122,4.034.289,4.28.434,16.977,6.669,17.316,9.188.5,3.7-1.375,5.124-1.375,5.124s2.478,3.282,1.565,6c-.782,2.328-4.508,3.13-4.508,3.13s2.762,3.216-.093,5.5c-.989.793-2.979,2.317-3.438,2.832a8.965,8.965,0,0,1-.777,1.979,7.545,7.545,0,0,1-5.448,3.13l-.712.065a5.5,5.5,0,0,1-3.84-1.105c-4.958-3.794-18.983-14.775-19.265-17.82,0,0-2.674-2.082-1.619-4.267s5.039-1.231,5.039-1.231a3.272,3.272,0,0,1-1-3.758c.922-2.288,8-2.087,11.218-1.667,2.559.334,9.705,1.493,9.705,1.493s-9.508-3.259-10.071-4.879a2.494,2.494,0,0,1-.127-.637" transform="translate(89.876 83.282)" fill="#ffc19d"/>
            <path id="Trazado_273181" data-name="Trazado 273181" d="M114.152,115.02a6.913,6.913,0,0,0,.958.58c.626.357,1.551.842,2.706,1.411,2.308,1.147,5.567,2.588,9.235,4s7.042,2.55,9.5,3.331c1.226.391,2.223.695,2.914.894a7.009,7.009,0,0,0,1.086.275,6.719,6.719,0,0,0-1.043-.406l-2.88-1c-2.43-.84-5.784-2.015-9.447-3.424s-6.925-2.81-9.255-3.9c-1.166-.538-2.105-.989-2.751-1.306a6.753,6.753,0,0,0-1.021-.459" transform="translate(90.702 91.39)" fill="#ff9c6a"/>
            <path id="Trazado_273182" data-name="Trazado 273182" d="M115.815,111.912a6.009,6.009,0,0,0,1.039.223c.671.133,1.644.31,2.834.581,2.385.52,5.635,1.425,9.192,2.541,1.778.563,3.489,1.057,5.005,1.594s2.87,1.079,3.991,1.558,2.015.9,2.633,1.2a7.111,7.111,0,0,0,.967.438c.007-.011-.07-.066-.224-.162s-.38-.231-.68-.4c-.6-.332-1.48-.79-2.593-1.3s-2.459-1.08-3.984-1.635-3.23-1.061-5.01-1.626a88.367,88.367,0,0,0-9.246-2.448c-1.2-.24-2.182-.38-2.862-.472a6.321,6.321,0,0,0-1.061-.088" transform="translate(92.023 88.916)" fill="#ff9c6a"/>
            <path id="Trazado_273183" data-name="Trazado 273183" d="M127.156,109.768a7.611,7.611,0,0,0,1.529.815c.969.452,2.331,1.019,3.833,1.642s2.843,1.22,3.806,1.673a10.009,10.009,0,0,0,1.581.7,7.362,7.362,0,0,0-1.47-.921,40.906,40.906,0,0,0-3.783-1.775c-1.506-.625-2.878-1.154-3.869-1.547a9.55,9.55,0,0,0-1.628-.585" transform="translate(101.034 87.213)" fill="#ff9c6a"/>
            <path id="Trazado_273184" data-name="Trazado 273184" d="M116.643,118.119a5.151,5.151,0,0,0,.659.745c.445.458,1.105,1.107,1.949,1.877,1.68,1.551,4.136,3.535,6.782,5.787.657.562,1.281,1.145,1.933,1.658a21.113,21.113,0,0,0,1.947,1.376,13.1,13.1,0,0,0,3.7,1.613,8.056,8.056,0,0,0,2.708.242,4.773,4.773,0,0,0,.732-.1.776.776,0,0,0,.249-.068,9.623,9.623,0,0,0-.987.032,8.864,8.864,0,0,1-2.64-.346,13.542,13.542,0,0,1-3.589-1.647,22.174,22.174,0,0,1-1.9-1.371c-.635-.508-1.253-1.088-1.918-1.656-2.656-2.261-5.129-4.208-6.844-5.707-.863-.745-1.547-1.362-2.021-1.789a5.469,5.469,0,0,0-.754-.646" transform="translate(92.681 93.853)" fill="#ff9c6a"/>
            <path id="Trazado_273185" data-name="Trazado 273185" d="M89.915,18.975S98.6,51.462,99.353,74.449l.249,7.659s-19.173,15.92-35.254,16.9L50.869,65.864Z" transform="translate(40.419 15.077)" fill="#1a2e35"/>
            <path id="Trazado_273186" data-name="Trazado 273186" d="M25.91,53.979c3.665-15.846,5.073-34.289,18.249-44.62C53.937,1.692,65.078-.445,77.491.074c6.114.257,13.016,3.078,18.34,6.091,7.3,4.133,10.392,12.514,13.915,20.126,7.056,15.254,6.161,35.908,1.382,41.648L47.393,101.6c-12.729-6.624-20.7-9.262-22.735-26.226A62.176,62.176,0,0,1,25.91,53.979" transform="translate(19.261 0)" fill="#1a2e35"/>
            <path id="Trazado_273187" data-name="Trazado 273187" d="M38.614,17.541,78.726,5.706C91.647,3.823,100.9,19.459,102.237,32.45c1.481,14.43,2.719,32.108,1.43,42.969-2.593,21.842-19.121,25.259-19.121,25.259-.007-.072.117,8.766.117,8.766L66.392,128.856,38.47,110.2,32.087,25.552a7.643,7.643,0,0,1,6.527-8.011" transform="translate(25.485 4.41)" fill="#ffc19d"/>
            <path id="Trazado_273188" data-name="Trazado 273188" d="M71.518,34.108a2.787,2.787,0,0,1-2.573,2.914,2.665,2.665,0,0,1-2.968-2.4,2.788,2.788,0,0,1,2.57-2.916,2.668,2.668,0,0,1,2.972,2.4" transform="translate(52.417 25.185)" fill="#1a2e35"/>
            <path id="Trazado_273189" data-name="Trazado 273189" d="M74.567,29.036c-.33.377-2.5-1.1-5.5-.976-2.993.083-5.131,1.712-5.472,1.357-.165-.156.162-.826,1.089-1.559a7.645,7.645,0,0,1,4.363-1.534,7.344,7.344,0,0,1,4.393,1.229c.949.671,1.287,1.315,1.123,1.484" transform="translate(50.501 20.912)" fill="#1a2e35"/>
            <path id="Trazado_273190" data-name="Trazado 273190" d="M57.194,34.108a2.787,2.787,0,0,1-2.573,2.914,2.666,2.666,0,0,1-2.968-2.4,2.788,2.788,0,0,1,2.572-2.916,2.667,2.667,0,0,1,2.97,2.4" transform="translate(41.036 25.185)" fill="#1a2e35"/>
            <path id="Trazado_273191" data-name="Trazado 273191" d="M58.147,29.232c-.332.377-2.505-1.1-5.5-.974-2.993.083-5.131,1.71-5.47,1.355-.165-.154.156-.824,1.089-1.558a7.645,7.645,0,0,1,4.363-1.536,7.348,7.348,0,0,1,4.393,1.229c.946.671,1.285,1.315,1.123,1.484" transform="translate(37.454 21.068)" fill="#1a2e35"/>
            <path id="Trazado_273192" data-name="Trazado 273192" d="M60.828,49.879c-.02-.17,1.829-.565,4.831-1.07.761-.109,1.481-.289,1.588-.817a3.9,3.9,0,0,0-.6-2.247q-1.19-2.735-2.493-5.735c-3.467-8.169-6.008-14.9-5.68-15.035s3.41,6.373,6.877,14.543q1.254,3.02,2.4,5.773a4.418,4.418,0,0,1,.515,2.986,1.924,1.924,0,0,1-1.213,1.168,5.216,5.216,0,0,1-1.292.232c-3.029.284-4.914.371-4.931.2" transform="translate(46.44 19.843)" fill="#1a2e35"/>
            <path id="Trazado_273193" data-name="Trazado 273193" d="M74.368,61.486a55.257,55.257,0,0,1-29.375-6.611S52.778,69.782,74.422,66.9Z" transform="translate(35.75 43.602)" fill="#ff9c6a"/>
            <path id="Trazado_273194" data-name="Trazado 273194" d="M54.583,43.5A4.334,4.334,0,0,1,58.115,41.4a5.646,5.646,0,0,1,5.247,2.347,3.522,3.522,0,0,1,.33,2.525c-.174.438-.036.221-.359.529a9.891,9.891,0,0,1-3.939,2.665,4.247,4.247,0,0,1-4.544-1.473,4.324,4.324,0,0,1-.267-4.485" transform="translate(42.971 32.875)" fill="#ff9c6a"/>
            <path id="Trazado_273195" data-name="Trazado 273195" d="M54.794,40.272c.485-.05.637,3.2,3.525,5.382s6.331,1.669,6.376,2.121c.054.2-.743.668-2.2.772a8.091,8.091,0,0,1-5.314-1.586,7.053,7.053,0,0,1-2.747-4.522c-.185-1.353.14-2.175.364-2.166" transform="translate(43.204 31.999)" fill="#1a2e35"/>
            <path id="Trazado_273196" data-name="Trazado 273196" d="M59.877,22.688c-.215.84-3.232.745-6.692,1.507-3.474.693-6.2,1.992-6.733,1.31-.24-.328.178-1.14,1.242-2.037a11.928,11.928,0,0,1,10.229-2.145c1.335.391,2.044.967,1.954,1.364" transform="translate(36.857 16.647)" fill="#1a2e35"/>
            <path id="Trazado_273197" data-name="Trazado 273197" d="M74.518,25.113c-.68.589-2.862-.44-5.6-.87-2.728-.515-5.136-.28-5.57-1.062-.185-.377.28-1,1.387-1.489a8.543,8.543,0,0,1,4.723-.443,8.418,8.418,0,0,1,4.278,2c.87.833,1.089,1.572.784,1.865" transform="translate(50.301 16.771)" fill="#1a2e35"/>
            <path id="Trazado_273198" data-name="Trazado 273198" d="M58.148,4.333c.038.156.066.314.1.472l-.075.031-.027-.5" transform="translate(46.203 3.443)" fill="#1a2e35"/>
            <path id="Trazado_273199" data-name="Trazado 273199" d="M56.729,110.509a3.633,3.633,0,0,0,4.553-2.871,44.77,44.77,0,0,0,.109-13.206C60.686,88.4,56.6,82.1,56.088,76.048c-.971-11.539.047-18.007,1.335-27.7,5.432-.669,10.5-3.932,14.12-8.151,4.354-5.075,6.986-11.365,9.549-17.542a29.368,29.368,0,0,1-5.906,16.873,7.913,7.913,0,0,0,6.766-2.2,17.691,17.691,0,0,0,3.971-6.166A48.17,48.17,0,0,0,89.769,13.8a62.416,62.416,0,0,1-2.837,25.359c1.518-.468,3.148-.048,4.722.179s3.377.183,4.49-.953a5.651,5.651,0,0,0,1.229-2.895A65.093,65.093,0,0,0,98.094,13.4a67.291,67.291,0,0,1,4.978,12.243,23.724,23.724,0,0,1,.093,13.064,1.913,1.913,0,0,0,2.7-.016,4.568,4.568,0,0,0,1.181-2.728c.572-3.647-.072-7.361-.714-11,2.17,3.848,2.891,8.312,4.092,12.564s3.112,8.612,6.805,11.035a57.834,57.834,0,0,0-.542-16.661c-.73-4.551-2.889-9.066-4.883-13.222A39.291,39.291,0,0,0,103,6.426c-6.4-5.6-9.07-3.191-13.154-1.055l-.483.2c-.014-.1-.02-.2-.034-.3l-.183-.87a61.293,61.293,0,0,0-32.27,1.509C49.172,8.422,48.465,25,46.588,17.122c-1.138-4.766-7.316-.415-7.392-.278C30.114,33.224,20.487,59.21,20.046,100.27Z" transform="translate(15.928 2.324)" fill="#1a2e35"/>
          </g>
        </g>
      </g>
    </g>
  </g>
</svg>
