<svg xmlns="http://www.w3.org/2000/svg" xmlns:xlink="http://www.w3.org/1999/xlink" width="96" height="96" viewBox="0 0 96 96">
  <defs>
    <clipPath id="clip-path">
      <rect id="Rectángulo_323736" data-name="Rectángulo 323736" width="41.285" height="60.196" fill="none"/>
    </clipPath>
  </defs>
  <g id="Grupo_1070879" data-name="Grupo 1070879" transform="translate(-932.333 -421)">
    <g id="Grupo_257573" data-name="Grupo 257573" transform="translate(-419 126)">
      <circle id="Elipse_4282" data-name="Elipse 4282" cx="48" cy="48" r="48" transform="translate(1351.333 295)" fill="#fffad0"/>
      <g id="Grupo_257570" data-name="Grupo 257570" transform="translate(1378.333 313)">
        <g id="Grupo_257570-2" data-name="Grupo 257570" clip-path="url(#clip-path)">
          <path id="Trazado_275982" data-name="Trazado 275982" d="M8.338,59.446c-.21.459-.538.875-1.06.716-.3-.091-.5-.519-.742-.8l.018-.215q0-4.6-.006-9.2V41.473c-.291.065-.5.106-.708.159a4.921,4.921,0,0,0-4.075,4.992c.061,4.177.028,8.355.034,12.532l-.007.177c-.1.163-.161.393-.306.474-.3.166-.694.41-.948.324a1.069,1.069,0,0,1-.5-.84C0,55.08.044,50.871,0,46.662a6.129,6.129,0,0,1,3.274-5.83A14.775,14.775,0,0,1,6.8,39.5a5.287,5.287,0,0,0,3.328-2.528,3.218,3.218,0,0,1,2.936-1.59c0-.8.02-1.586-.015-2.371a.935.935,0,0,0-.31-.536,11.529,11.529,0,0,1-3.011-5.114c-.054-.183,0-.406-.088-.567-.095-.183-.274-.439-.435-.453a2.991,2.991,0,0,1-2.676-3.135c.016-.778-.171-1.73.2-2.3.833-1.272.608-2.639.736-4.012a.911.911,0,0,0-.227-.047c-2.105,0-4.211.023-6.315-.029a1.136,1.136,0,0,1-.881-.6A1.116,1.116,0,0,1,.5,15.245c1.342-.672,2.737-1.24,4.109-1.854A27.967,27.967,0,0,1,7.487,12.1c1.019-.323,1.141-1.048,1.282-1.913.41-2.517.863-5.027,1.337-7.533A3.453,3.453,0,0,1,13.358.046c4.408-.034,8.818-.087,13.225.009C28.757.1,29.976.938,30.608,3.4c.59,2.3,1.221,4.586,1.671,6.911a2.415,2.415,0,0,0,1.782,1.946c2.168.885,4.264,1.943,6.413,2.878.545.237.807.531.668,1.092s-.605.625-1.092.624q-2.749,0-5.5,0h-.828c.127,1.207-.376,2.407.54,3.477a2.188,2.188,0,0,1,.335,1.221,10.159,10.159,0,0,1-.014,2.372,2.893,2.893,0,0,1-2.678,2.432c-.692,1.5-1.311,2.94-2.031,4.332A5.867,5.867,0,0,1,28.634,32.2a1.592,1.592,0,0,0-.573,1.414c.05.611.011,1.229.011,1.917,2.212-.277,2.919,1.53,4.026,2.8a2.186,2.186,0,0,0,.821.611c1.513.571,3.074,1.023,4.558,1.658a5.888,5.888,0,0,1,3.649,5.163c.136,4.372.111,8.749.15,13.124,0,.171.04.4-.052.5-.275.295-.6.731-.918.739-.263.007-.54-.513-.811-.8l-.007-.176c.007-4.182.035-8.365,0-12.546a5.96,5.96,0,0,0-.471-2.111c-.77-1.915-2.456-2.562-4.276-2.979v8.43q0,4.6-.006,9.2l-.051.146c-.145.477-.327.929-.942.89-.441-.028-.8-.186-.788-.726l-.029-.177L32.892,52.9a2.307,2.307,0,0,0-.674-.229c-1.727-.018-3.454-.008-5.181-.007l-.767-.939a.785.785,0,0,1,.751-.743c.7-.066,1.393-.145,2.137-.224V43.711l-.292-.158c-.5.564-.982,1.152-1.515,1.686a2.584,2.584,0,0,1-3.917-.018c-.609-.628-1.158-1.312-1.735-1.971l-.124-.1-.023.114c-.008.1-.023.2-.023.3,0,1.409.014,2.819-.009,4.227-.011.652-.5,1.178-1.007,1.119-.669-.079-.756-.564-.755-1.123,0-1.508-.013-3.015-.022-4.523l-.127-.122c-.669.733-1.331,1.474-2.008,2.2a2.6,2.6,0,0,1-3.716.013c-.528-.567-1.066-1.124-1.706-1.8v7.346h.854c3.291,0,6.583.016,9.874-.012.759-.006,1.294.17,1.445.986l-.737.8q-7.308,0-14.616,0a1.874,1.874,0,0,0-.6.23q-.019,3.2-.038,6.4l-.02.15M24.822,37.028l-.013.01.314-.162c1.258-.478,1.447-.948,1.054-2.693A10.918,10.918,0,0,1,14.9,34.158c-.171,2.107-.1,2.28,1.121,2.717,1.39.792,2.778,1.589,4.175,2.37.153.086.408.169.532.1,1.277-.7,2.537-1.441,3.8-2.169l-.013.011.31-.16M35.814,15.089l.248-.054-.272-.143-.58-.165-3.417-1.5c-.031-.066-.063-.19-.093-.189-1.16.017-2.319.046-3.479.073a.858.858,0,0,1-.941-.878.786.786,0,0,1,.954-.775c.666.035,1.336.009,2,.006.361,0,.562-.086.4-.532-.175-.5-.27-1.024-.412-1.587-1.288,0-2.546,0-3.8,0Q20.711,9.357,15,9.376c-1.255-.01-2.51-.037-3.765-.011a.738.738,0,0,0-.558.386,12.178,12.178,0,0,0-.312,1.546H15q4.447.013,8.895.022c.661,0,1.205.142,1.365.892-.166.832-.766.893-1.468.89q-6.815-.023-13.63,0a3.1,3.1,0,0,0-1.116.234c-1,.4-1.978.851-2.965,1.281l-.729.328.042.142ZM15.139,7.552H29.786c-.29-1.214-.546-2.334-.825-3.449-.433-1.728-.835-2.238-2.249-2.274-3.605-.09-7.215-.014-10.822,0-.689-.01-1.379-.029-2.068-.027a1.883,1.883,0,0,0-2.1,1.587c-.2.735-.3,1.5-.436,2.255-.109.623-.2,1.25-.3,1.911Zm-2.075,9.409c0,.47,0,.94,0,1.41a2.115,2.115,0,0,1-2.354,2.31,10.33,10.33,0,0,0-1.336,0c-.551.032-1.02.235-1.057.867a10.236,10.236,0,0,0,.02,2,1.616,1.616,0,0,0,.618.819c.049.042.391-.32.629-.421.315-.133.72-.341.979-.241a1.255,1.255,0,0,1,.554.836c.14.636.1,1.31.246,1.945a9.478,9.478,0,0,0,3.9,5.8,7.641,7.641,0,0,0,4.489,1.591c.415.006.831.025,1.245.017a8.971,8.971,0,0,0,6.716-3.262,9.242,9.242,0,0,0,2.318-5.752,1.608,1.608,0,0,1,.605-1.185c.51-.248,1.031.039,1.217.68.022.075.137.122.21.183a1.4,1.4,0,0,0,.776-1.475c-.055-.489.057-1-.036-1.479-.057-.289-.323-.7-.565-.758a9.588,9.588,0,0,0-1.961-.167A1.889,1.889,0,0,1,28.2,18.747V16.918a1.3,1.3,0,0,0-.261-.066q-7.425.009-14.85.023l-.121,0,.1.082M21.938,40.75c.96,1.122,1.85,2.16,2.738,3.2a.823.823,0,0,0,1.331.113q1.693-1.59,3.352-3.216C30.7,39.528,30.69,39.519,29.6,38a1.292,1.292,0,0,0-1.977-.451c-1.277.707-2.546,1.428-3.818,2.144-.614.346-1.227.695-1.868,1.058m-11.454-1.3c1.507,1.5,3,2.972,4.488,4.453a1.008,1.008,0,0,0,1.66-.051c.849-1.007,1.685-2.026,2.577-3.1-2.05-1.15-4.045-2.31-6.091-3.374a1.39,1.39,0,0,0-1.252.245,12.668,12.668,0,0,0-1.382,1.83M32.905,50.806V40.853A1.437,1.437,0,0,0,30.923,42.2c-.007,2.649,0,5.3,0,7.946v.888l1.985-.229m-22.537,0c0-2.623-.04-5.194.022-7.761a2.193,2.193,0,0,0-.913-2.094c-.213-.143-.564-.34-.712-.259a.954.954,0,0,0-.4.715c-.026,3.019-.018,6.038-.014,9.057,0,.164.035.328.062.564l1.953-.222m21.511-32.1V16.962H29.931c-.193,2.475-.137,2.047,1.948,1.744M9.255,17c-.2,2.075-.061,2.184,1.982,1.634V17Z" transform="translate(0 0)" fill="#010101"/>
          <path id="Trazado_275983" data-name="Trazado 275983" d="M56.269,355.786q.019-3.2.038-6.4,7.338.008,14.676.007c.18,0,.361-.154.541-.236l.737-.8,1.92-.143.767.939c.178.085.355.241.534.243,1.774.013,3.548,0,5.321-.006l.031,6.387a.9.9,0,0,0-.126.026l-23.222.014c-.371,0-.741.014-1.112.022l-.105-.051m20.618-3.638a3.855,3.855,0,0,0,.938.789c.365.146.963-.464.932-.908a.82.82,0,0,0-.877-.833c-.53-.009-.768.317-.993.953m-16.943-.082a.809.809,0,0,0-.872-.867c-.549,0-.761.337-.781.852a.777.777,0,0,0,.85.883.767.767,0,0,0,.8-.868" transform="translate(-47.911 -296.491)" fill="#b4e66e"/>
          <path id="Trazado_275984" data-name="Trazado 275984" d="M11.922,296.887c-.007-4.177.027-8.355-.034-12.532a4.921,4.921,0,0,1,4.075-4.992c.207-.053.417-.094.708-.159v8.477a1.664,1.664,0,0,0-1.809,1.854q0,3.677,0,7.354v.15l-2.824-.007-.116-.146" transform="translate(-10.121 -237.732)" fill="#ffc850"/>
          <path id="Trazado_275985" data-name="Trazado 275985" d="M233.877,287.951v-8.43c1.821.416,3.506,1.064,4.276,2.979a5.959,5.959,0,0,1,.471,2.111c.037,4.182.008,8.364,0,12.546l-.116.146-2.824.007q0-.075,0-.15,0-3.688,0-7.376a1.661,1.661,0,0,0-1.809-1.833" transform="translate(-199.137 -238.001)" fill="#ffc850"/>
          <path id="Trazado_275986" data-name="Trazado 275986" d="M31.92,398.382q0-.075,0-.15l1.814-.006-.018.215-1.8-.058" transform="translate(-27.179 -339.073)" fill="#f0b64a"/>
          <path id="Trazado_275987" data-name="Trazado 275987" d="M235.354,398.231v.15l-1.865-.01.051-.146,1.814.006" transform="translate(-198.807 -339.073)" fill="#f0b64a"/>
          <path id="Trazado_275988" data-name="Trazado 275988" d="M12.085,398.247l.116.146a.267.267,0,0,1-.123.03l.007-.177" transform="translate(-10.284 -339.092)" fill="#e1a546"/>
          <path id="Trazado_275989" data-name="Trazado 275989" d="M265.063,398.4l.116-.146c0,.059,0,.117.007.176a.262.262,0,0,1-.123-.03" transform="translate(-225.691 -339.094)" fill="#e1a546"/>
          <path id="Trazado_275990" data-name="Trazado 275990" d="M56.157,399.192l.105.051-.125.1.02-.151" transform="translate(-47.798 -339.897)" fill="#ecf2cc"/>
          <path id="Trazado_275991" data-name="Trazado 275991" d="M220.8,399.149a.893.893,0,0,1,.126-.026l.029.177-.155-.152" transform="translate(-188.004 -339.838)" fill="#78a03f"/>
          <path id="Trazado_275992" data-name="Trazado 275992" d="M109.083,126.205a1.889,1.889,0,0,0,2.081,1.936,9.6,9.6,0,0,1,1.961.166c.242.056.509.469.565.758.094.477-.018.99.036,1.479a1.4,1.4,0,0,1-.776,1.475c-.073-.061-.189-.109-.21-.183-.186-.641-.707-.928-1.217-.68a1.608,1.608,0,0,0-.605,1.185,9.242,9.242,0,0,1-2.318,5.752,8.971,8.971,0,0,1-6.716,3.263c-.415.007-.83-.011-1.245-.018-.635-.484-1.278-.957-1.9-1.453a9.32,9.32,0,0,1-3.562-6.116A39.274,39.274,0,0,1,95,128.745c-.025-1.912.615-2.54,2.5-2.54h11.584m-7.61,6.707c-1.013,0-2.026-.026-3.038.006-1.4.045-2.283,1.015-1.916,2.271a4.276,4.276,0,0,0,1.244,1.84,5.6,5.6,0,0,0,8.044-.626,2.159,2.159,0,0,0,.521-2.5,2.106,2.106,0,0,0-2.114-.99c-.913-.022-1.828,0-2.741,0M97.789,128.5c-.158-.3-.261-.776-.55-.971a1.347,1.347,0,0,0-1.04-.008,5.053,5.053,0,0,0-.2,1.8c.019.217.479.474.781.559a.8.8,0,0,0,.67-.3,4.229,4.229,0,0,0,.342-1.08m9.378.148c-.142-1.123-.269-1.29-1.052-1.261-.806.03-1.144.992-.712,2.026a.75.75,0,0,0,1.231.333,4.008,4.008,0,0,0,.533-1.1" transform="translate(-80.885 -107.459)" fill="#f5c882"/>
          <path id="Trazado_275993" data-name="Trazado 275993" d="M96.081,298.972l-1.92.143c-.151-.815-.686-.992-1.445-.986-3.291.027-6.583.012-9.874.012h-.854v-7.346c.64.674,1.178,1.231,1.706,1.8a2.6,2.6,0,0,0,3.716-.013c.678-.725,1.34-1.465,2.008-2.2l.128.123c.008,1.507.024,3.015.022,4.522,0,.559.086,1.044.755,1.123.5.059,1-.467,1.007-1.119.023-1.409.007-2.818.009-4.227,0-.1.015-.2.023-.3a.742.742,0,0,0,.147-.01c.576.659,1.126,1.344,1.735,1.971a2.583,2.583,0,0,0,3.917.018c.533-.534,1.012-1.122,1.515-1.686l.292.158V298c-.744.079-1.44.159-2.137.224a.785.785,0,0,0-.751.743" transform="translate(-69.81 -247.248)" fill="#fedc64"/>
          <path id="Trazado_275994" data-name="Trazado 275994" d="M75.663,115.347H64.079c-1.889,0-2.528.628-2.5,2.54a39.274,39.274,0,0,0,.178,5.024,9.321,9.321,0,0,0,3.562,6.116c.625.5,1.268.969,1.9,1.453a7.638,7.638,0,0,1-4.489-1.591,9.478,9.478,0,0,1-3.9-5.8c-.143-.634-.106-1.309-.246-1.945a1.255,1.255,0,0,0-.554-.836c-.259-.1-.664.108-.979.24-.238.1-.58.463-.629.421a1.614,1.614,0,0,1-.618-.819,10.226,10.226,0,0,1-.021-2c.037-.632.506-.836,1.057-.867a10.332,10.332,0,0,1,1.336,0,2.115,2.115,0,0,0,2.354-2.31c0-.47,0-.94,0-1.41a.053.053,0,0,0,.024-.086q7.425-.013,14.85-.023a1.3,1.3,0,0,1,.261.066Z" transform="translate(-47.464 -96.601)" fill="#f5af73"/>
          <path id="Trazado_275995" data-name="Trazado 275995" d="M103.587,12.068c3.608-.01,7.217-.086,10.822,0,1.414.035,1.816.545,2.249,2.274.279,1.114.535,2.235.825,3.449H103.008a.179.179,0,0,0-.014-.114l.593-5.612" transform="translate(-87.695 -10.241)" fill="#ffdc64"/>
          <path id="Trazado_275996" data-name="Trazado 275996" d="M62.135,82.223a.858.858,0,0,0,.941.878c.1.047.2.134.3.134,1.092,0,2.184-.01,3.276-.018l3.417,1.5a2.7,2.7,0,0,1-.618.149q-13.955.011-27.909,0a1.779,1.779,0,0,1-.6-.252c.987-.43,1.967-.879,2.965-1.281a3.1,3.1,0,0,1,1.116-.234q6.815-.023,13.63,0c.7,0,1.3-.059,1.468-.89l2.021.018" transform="translate(-34.854 -69.994)" fill="#fec850"/>
          <path id="Trazado_275997" data-name="Trazado 275997" d="M113.242,65.766l-2.021-.018c-.159-.75-.7-.891-1.364-.892q-4.448,0-8.9-.022,0-.96,0-1.921,5.715-.018,11.431-.035c1.258,0,2.516,0,3.8,0,.142.563.236,1.089.412,1.587.157.446-.044.53-.4.532-.668,0-1.338.029-2-.006a.785.785,0,0,0-.953.775" transform="translate(-85.961 -53.537)" fill="#9b735a"/>
          <path id="Trazado_275998" data-name="Trazado 275998" d="M147.7,254.39c.642-.363,1.254-.712,1.868-1.058,1.272-.716,2.541-1.437,3.818-2.144a1.292,1.292,0,0,1,1.977.451c1.089,1.52,1.1,1.529-.242,2.848q-1.655,1.63-3.352,3.216a.823.823,0,0,1-1.331-.113c-.888-1.04-1.778-2.078-2.738-3.2" transform="translate(-125.757 -213.64)" fill="#fdef81"/>
          <path id="Trazado_275999" data-name="Trazado 275999" d="M70.584,253.327a12.667,12.667,0,0,1,1.382-1.83,1.39,1.39,0,0,1,1.252-.245c2.046,1.064,4.042,2.224,6.091,3.375-.892,1.076-1.727,2.095-2.577,3.1a1.008,1.008,0,0,1-1.66.051c-1.489-1.48-2.981-2.958-4.488-4.453" transform="translate(-60.1 -213.876)" fill="#fdef81"/>
          <path id="Trazado_276000" data-name="Trazado 276000" d="M78.85,12.139l-.593,5.612-.16.114H73.942c.1-.662.191-1.288.3-1.911.132-.755.231-1.52.436-2.255a1.883,1.883,0,0,1,2.1-1.587c.689,0,1.378.017,2.068.027" transform="translate(-62.959 -10.313)" fill="#ffc850"/>
          <path id="Trazado_276001" data-name="Trazado 276001" d="M101.014,232.681c-1.217-.437-1.292-.61-1.121-2.717a10.919,10.919,0,0,0,11.281.024c.393,1.745.2,2.215-1.054,2.693l-.314.163.013-.01-.31.16.013-.011a6.357,6.357,0,0,0-.8.085,12.7,12.7,0,0,1-6.282-.051c-.471-.127-.949-.225-1.424-.337" transform="translate(-84.997 -195.805)" fill="#f4965f"/>
          <path id="Trazado_276002" data-name="Trazado 276002" d="M210.143,284.43l-1.985.229c0-.36,0-.624,0-.888,0-2.649,0-5.3,0-7.946a1.437,1.437,0,0,1,1.983-1.348Z" transform="translate(-177.237 -233.623)" fill="#a0d855"/>
          <path id="Trazado_276003" data-name="Trazado 276003" d="M58.232,283.937l-1.953.222a5.627,5.627,0,0,1-.062-.564c0-3.019-.012-6.038.014-9.057a.954.954,0,0,1,.4-.715c.149-.081.5.115.712.259a2.193,2.193,0,0,1,.913,2.094c-.061,2.568-.022,5.138-.022,7.761" transform="translate(-47.864 -233.133)" fill="#a0d855"/>
          <path id="Trazado_276004" data-name="Trazado 276004" d="M235.648,345.484l-1.814-.006q0-4.6.006-9.2a1.661,1.661,0,0,1,1.809,1.833q0,3.688,0,7.375" transform="translate(-199.101 -286.326)" fill="#e1a546"/>
          <path id="Trazado_276005" data-name="Trazado 276005" d="M33.723,345.479l-1.814.006q0-3.677,0-7.354a1.664,1.664,0,0,1,1.809-1.854q0,4.6.006,9.2" transform="translate(-27.167 -286.327)" fill="#e1a546"/>
          <path id="Trazado_276006" data-name="Trazado 276006" d="M74.39,63q0,.96,0,1.921H69.755a12.17,12.17,0,0,1,.312-1.546.737.737,0,0,1,.558-.386c1.254-.026,2.51,0,3.765.011" transform="translate(-59.394 -53.623)" fill="#8b5f50"/>
          <path id="Trazado_276007" data-name="Trazado 276007" d="M107.831,248.253c.475.111.953.21,1.424.337a12.7,12.7,0,0,0,6.282.051,6.348,6.348,0,0,1,.8-.085c-1.265.728-2.524,1.464-3.8,2.169-.124.068-.379-.015-.532-.1-1.4-.781-2.784-1.578-4.175-2.37" transform="translate(-91.814 -211.378)" fill="#f5af73"/>
          <path id="Trazado_276008" data-name="Trazado 276008" d="M36.755,98.417a1.778,1.778,0,0,0,.6.252q13.954.019,27.909,0a2.693,2.693,0,0,0,.618-.149l.58.165.024.2H36.068l-.042-.142.729-.328" transform="translate(-30.675 -83.798)" fill="#ffd354"/>
          <path id="Trazado_276009" data-name="Trazado 276009" d="M71.742,354.551c-.18.082-.361.236-.541.236q-7.338.011-14.676-.007a1.87,1.87,0,0,1,.6-.23q7.308-.015,14.616,0" transform="translate(-48.129 -301.883)" fill="#bff575"/>
          <path id="Trazado_276010" data-name="Trazado 276010" d="M203.04,115.935c-2.085.3-2.141.731-1.948-1.744h1.948Z" transform="translate(-171.16 -97.229)" fill="#9b735a"/>
          <path id="Trazado_276011" data-name="Trazado 276011" d="M61.926,114.43h1.982c0,.567,0,1.1,0,1.634-2.045.549-2.182.441-1.983-1.634" transform="translate(-52.671 -97.433)" fill="#9b735a"/>
          <path id="Trazado_276012" data-name="Trazado 276012" d="M187.881,354.749c-1.774.006-3.548.019-5.321.006-.178,0-.356-.158-.534-.243,1.727,0,3.454-.011,5.181.007a2.3,2.3,0,0,1,.674.229" transform="translate(-154.988 -301.851)" fill="#bff575"/>
          <path id="Trazado_276013" data-name="Trazado 276013" d="M193.567,87.936c-1.092.008-2.184.019-3.276.018-.1,0-.2-.087-.3-.134,1.16-.027,2.319-.056,3.479-.073.03,0,.062.123.093.189" transform="translate(-161.773 -74.713)" fill="#221a0a"/>
          <path id="Trazado_276014" data-name="Trazado 276014" d="M240.978,100.454q-.012-.1-.024-.2l.272.143-.248.054" transform="translate(-205.163 -85.365)" fill="#6b5421"/>
          <path id="Trazado_276015" data-name="Trazado 276015" d="M167.021,248.417l.314-.163-.314.163" transform="translate(-142.212 -211.38)" fill="#f5af73"/>
          <path id="Trazado_276016" data-name="Trazado 276016" d="M165.023,249.441l.31-.16-.31.16" transform="translate(-140.511 -212.253)" fill="#f5af73"/>
          <path id="Trazado_276017" data-name="Trazado 276017" d="M132.14,290.5l-.127-.122.127.122" transform="translate(-112.404 -247.248)" fill="#f0b64a"/>
          <path id="Trazado_276018" data-name="Trazado 276018" d="M145.244,290.573a.744.744,0,0,1-.147.01l.023-.114.124.1" transform="translate(-123.544 -247.323)" fill="#f0b64a"/>
          <path id="Trazado_276019" data-name="Trazado 276019" d="M87.415,113.61a.053.053,0,0,1-.024.086l-.1-.082.121,0" transform="translate(-74.327 -96.735)" fill="#9b735a"/>
          <path id="Trazado_276020" data-name="Trazado 276020" d="M101.92,50.193l.16-.114a.179.179,0,0,1,.014.114h-.174" transform="translate(-86.781 -42.64)" fill="#b09845"/>
          <path id="Trazado_276021" data-name="Trazado 276021" d="M195.074,369.239c.225-.636.463-.961.993-.953a.82.82,0,0,1,.877.833c.031.445-.567,1.055-.932.908a3.855,3.855,0,0,1-.938-.789" transform="translate(-166.098 -313.581)" fill="#010101"/>
          <path id="Trazado_276022" data-name="Trazado 276022" d="M71.528,369.177a.767.767,0,0,1-.8.868.777.777,0,0,1-.85-.883c.02-.515.232-.851.781-.852a.809.809,0,0,1,.872.867" transform="translate(-59.495 -313.602)" fill="#010101"/>
          <path id="Trazado_276023" data-name="Trazado 276023" d="M109.732,171.3c.914,0,1.828-.017,2.741,0a2.107,2.107,0,0,1,2.113.99,2.159,2.159,0,0,1-.521,2.5,5.6,5.6,0,0,1-8.044.626,4.279,4.279,0,0,1-1.244-1.84c-.367-1.256.52-2.226,1.916-2.271,1.012-.032,2.025-.006,3.038-.007m-3.063,1.795-.143.072.134.2a3.584,3.584,0,0,0,3.526,1.738,4.476,4.476,0,0,0,2.732-1.737l.135-.2-.145-.073h-6.239" transform="translate(-89.144 -145.851)" fill="#010101"/>
          <path id="Trazado_276024" data-name="Trazado 276024" d="M103.435,135.506a4.225,4.225,0,0,1-.343,1.08.8.8,0,0,1-.67.3c-.3-.085-.762-.342-.781-.559a5.052,5.052,0,0,1,.2-1.8,1.347,1.347,0,0,1,1.04.008c.29.195.392.668.55.971" transform="translate(-86.531 -114.459)" fill="#010101"/>
          <path id="Trazado_276025" data-name="Trazado 276025" d="M165.748,135.436a4.006,4.006,0,0,1-.533,1.1.75.75,0,0,1-1.231-.333c-.432-1.034-.094-2,.712-2.026.783-.029.91.138,1.051,1.261" transform="translate(-139.466 -114.242)" fill="#010101"/>
          <path id="Trazado_276026" data-name="Trazado 276026" d="M124.18,183.71a4.474,4.474,0,0,1-2.732,1.737,3.583,3.583,0,0,1-3.526-1.738q0-.136.009-.273h6.239q0,.137.01.275" transform="translate(-100.406 -156.188)" fill="#fdfdfd"/>
          <path id="Trazado_276027" data-name="Trazado 276027" d="M159.994,183.71q0-.137-.01-.275l.145.073-.135.2" transform="translate(-136.22 -156.188)" fill="#ecf2cc"/>
          <path id="Trazado_276028" data-name="Trazado 276028" d="M117.161,183.438l-.009.273-.134-.2.143-.072" transform="translate(-99.636 -156.19)" fill="#ecf2cc"/>
        </g>
      </g>
    </g>
  </g>
</svg>
