<svg xmlns="http://www.w3.org/2000/svg" xmlns:xlink="http://www.w3.org/1999/xlink" width="85" height="85" viewBox="0 0 85 85">
  <defs>
    <clipPath id="clip-path">
      <rect id="Rectángulo_323378" data-name="Rectángulo 323378" width="85" height="84.951" fill="none"/>
    </clipPath>
  </defs>
  <g id="Grupo_1070886" data-name="Grupo 1070886" transform="translate(-285 -7076.811)">
    <g id="Grupo_1069957" data-name="Grupo 1069957">
      <circle id="Elipse_4306" data-name="Elipse 4306" cx="42.5" cy="42.5" r="42.5" transform="translate(285 7076.811)" fill="#dbf9bd"/>
      <g id="Grupo_257093" data-name="Grupo 257093" transform="translate(285 7076.811)">
        <g id="Grupo_257092" data-name="Grupo 257092" clip-path="url(#clip-path)">
          <path id="Trazado_274530" data-name="Trazado 274530" d="M152.642,159.267a16.173,16.173,0,0,1-.985-6.83,17.067,17.067,0,0,1,3.625-10.331,17.929,17.929,0,0,1,5.615-4.942,1.34,1.34,0,0,0,.486-.984c.054-1.435.005-2.873.031-4.309.02-1.13.413-1.533,1.522-1.544q3.364-.033,6.728,0c1.142.009,1.548.439,1.557,1.563.005.666.05,1.336-.011,2a.969.969,0,0,0,1.062,1.192,14.741,14.741,0,0,1,5.483,1.481,2.768,2.768,0,0,0,1.089.2c3.154.015,6.307.01,9.461.008.782,0,1.476.17,1.624,1.069.178,1.085-.279,1.58-1.475,1.6-2,.025-3.993.007-6.136.007.762.879,1.473,1.645,2.125,2.459a17.915,17.915,0,0,1,3.833,9.731,18.44,18.44,0,0,1-2.324,10.712.927.927,0,0,0,.073.854c1.027,1.037,2.086,2.045,3.189,3a1.5,1.5,0,0,0,1.061.209,3.656,3.656,0,0,1,3.2,1.336q2.808,2.841,5.652,5.645c.842.829,1.724,1.616,2.595,2.416a3.047,3.047,0,0,1,.061,4.729c-1.045,1.036-2.118,2.048-3.109,3.133a3.02,3.02,0,0,1-4.228-.007c-1.332-1.392-2.714-2.736-4.095-4.081q-2.4-2.337-4.834-4.637a2.86,2.86,0,0,1-1.044-2.575,1.8,1.8,0,0,0-.7-1.723,24.231,24.231,0,0,1-2.164-2.142.847.847,0,0,0-1.251-.145c-1.106.656-2.21,1.313-3.46,2.056v.741q0,7.359,0,14.718c0,1.467-.531,2-1.972,2q-3.68,0-7.359,0c-1.967,0-2.159-.186-2.16-2.124,0-4.485-.026-8.971.02-13.456.009-.9-.2-1.318-1.127-1.566a29.321,29.321,0,0,1-3.422-1.384v1.137q0,7.674,0,15.348c0,1.6-.439,2.044-2.019,2.044q-3.995,0-7.99,0c-1.125,0-1.489-.356-1.49-1.487q-.008-12.668,0-25.335c0-1.2.573-1.754,1.78-1.771.443-.006.886,0,1.487,0m11.638-23.618,4.338-.859v-1.744h-4.339c-.12.03-.344.058-.345.091q-.028,1.222,0,2.446a1.524,1.524,0,0,0,.344.066m9.672,35.6-5.687.464-.16.162,0,13.039c.02.064.04.183.06.184,2,.008,4.007.008,6.058.008,0-4.519,0-8.952-.012-13.386,0-.157-.172-.313-.263-.47m-21.85,13.46c.151.159.3.452.452.455,1.782.03,3.565.019,5.348,0,.087,0,.173-.156.259-.24q.021-8.632.032-17.265c0-.14-.137-.28-.21-.42a36.18,36.18,0,0,1-3.27-3.859,2.063,2.063,0,0,0-2.414-1.139,3.718,3.718,0,0,0-.232.89c-.02,2.3-.016,4.609-.01,6.914q.018,7.331.044,14.662m17.628-47.1c-8.394-.448-15.966,7.407-15.549,16.341.354,7.6,6.969,15.15,15.824,15.024a15.847,15.847,0,0,0,15.7-15.726,15.447,15.447,0,0,0-15.973-15.638m30.7,40.39a7.781,7.781,0,0,1-.947-.677q-3.8-3.669-7.586-7.363a5.3,5.3,0,0,0-.817-.8.852.852,0,0,0-.784-.015c-1.161,1.09-2.276,2.227-3.437,3.382l9.6,9.294L200.431,178m-12.993-9.846c-.786-.763-1.516-1.468-2.242-2.177-1.161-1.134-1.287-1.118-1.907-.122.675.859,1.244,1.662,1.894,2.393,1.05,1.179,1.073,1.158,2.254-.095" transform="translate(-117.965 -102.913)" fill="#010101"/>
          <path id="Trazado_274531" data-name="Trazado 274531" d="M37.278,18.869c.151,10.459-8.557,18.287-17.764,18.7C8.386,38.061.53,28.919.033,20.094A18.609,18.609,0,0,1,18.707.187,18.464,18.464,0,0,1,37.278,18.869M33.9,20.217H21.041l6.406,10.848.49.829a15.925,15.925,0,0,0,6.716-11.677ZM20.117,3.733V17.515c.455,0,.833,0,1.211,0L33.9,17.462h.779C33.712,9.535,28.127,3.806,20.117,2.934Zm-2.76.007v-.91C8.73,4.139,3.741,9.131,2.707,17.46c-.735,5.925,1.849,10.9,6.739,14.442,5.023,3.636,10.427,3.823,16.171,1.421l-.513-.815c-1.956-3.375-3.829-6.8-5.9-10.1a9.547,9.547,0,0,1-1.8-6.3,35.947,35.947,0,0,0,.025-4.087q-.028-4.138-.07-8.276" transform="translate(0 -0.146)" fill="#010101"/>
          <path id="Trazado_274532" data-name="Trazado 274532" d="M73.452,210.935a4.576,4.576,0,0,1,1.374-.5c2.73-.047,5.461-.033,8.191-.018a1.556,1.556,0,0,1,1.712,1.768q.008,18.537,0,37.073c0,1.384-.495,1.851-1.9,1.853q-3.991.006-7.982,0c-1.24,0-1.574-.343-1.6-1.616,0-.21,0-.42,0-.63q0-18.064,0-36.128c0-.524.036-1.048.055-1.573l.154-.233m2.43,37.209.1.243,5.9.011.172-.227q0-.735-.007-1.469c.018-.384.052-.767.052-1.151q0-11.667,0-23.334c0-2.768.012-5.536-.02-8.3,0-.274-.273-.544-.419-.816H75.9v.871q0,16.678,0,33.356c0,.278.036.556.056.833Z" transform="translate(-57.84 -166.167)"/>
          <path id="Trazado_274533" data-name="Trazado 274533" d="M.3,263.548q0-7.352,0-14.7c0-1.305.326-1.641,1.658-1.648q4.044-.021,8.087,0a1.545,1.545,0,0,1,1.736,1.716q.013,14.756,0,29.513c0,1.245-.528,1.733-1.806,1.736q-4.1.011-8.192,0c-1.11,0-1.482-.371-1.483-1.488q-.007-7.562,0-15.124m8.784,12.425a3.2,3.2,0,0,0,.053-.414q0-12.464-.006-24.929a2.619,2.619,0,0,0-.218-.72H2.967v1.272q0,11.122,0,22.244c0,1.257.033,2.515.05,3.772.052.079.1.226.155.226,1.966.012,3.933.01,5.906.01v-1.462" transform="translate(-0.234 -195.214)"/>
          <path id="Trazado_274534" data-name="Trazado 274534" d="M206.616,70.108c0-1.189,0-2.379,0-3.568a1.182,1.182,0,0,1,1.341-1.337c2.344,0,4.689.014,7.032-.014a1.5,1.5,0,0,1,1.568,1.559c.049,2.308.043,4.619,0,6.927a1.4,1.4,0,0,1-1.524,1.468c-2.309.025-4.618,0-6.928.009a1.325,1.325,0,0,1-1.489-1.476c-.02-1.189,0-2.379,0-3.569h0m2.716-2.213v4.62c1.311,0,2.565.041,3.813-.033a1.034,1.034,0,0,0,.721-.7,19.839,19.839,0,0,0,0-3.138,1.036,1.036,0,0,0-.7-.718c-1.249-.075-2.5-.034-3.833-.034" transform="translate(-163.166 -51.482)"/>
          <path id="Trazado_274535" data-name="Trazado 274535" d="M206.6,5.054c0-1.156-.016-2.312,0-3.468.021-1.231.352-1.569,1.539-1.575q3.363-.017,6.726,0a1.486,1.486,0,0,1,1.689,1.648q.035,3.31,0,6.62a1.508,1.508,0,0,1-1.682,1.657q-3.31.012-6.621,0c-1.367-.006-1.651-.3-1.654-1.625q0-1.629,0-3.258m2.735-2.063v4.45l4.477-.263V2.991Z" transform="translate(-163.153 -0.001)"/>
          <path id="Trazado_274536" data-name="Trazado 274536" d="M283.3,6.793q-6.09,0-12.179,0c-.654,0-1.319.054-1.655-.742a1.291,1.291,0,0,1,.921-1.889,5.166,5.166,0,0,1,.942-.034q12.126,0,24.253,0h.21c1.081.011,1.9.586,1.909,1.335s-.805,1.331-1.907,1.332q-6.247.006-12.494,0" transform="translate(-212.701 -3.254)" fill="#010101"/>
          <path id="Trazado_274537" data-name="Trazado 274537" d="M283.421,71.975q-6.2,0-12.392,0c-1.217,0-1.762-.449-1.734-1.4.024-.815.633-1.267,1.766-1.267q12.391-.006,24.783,0c1.046,0,1.833.575,1.83,1.3,0,.751-.835,1.367-1.862,1.367q-6.2,0-12.392,0" transform="translate(-212.675 -54.734)" fill="#010101"/>
          <path id="Trazado_274538" data-name="Trazado 274538" d="M283.349,137.179q-6.094,0-12.188,0c-1.338,0-1.863-.4-1.861-1.373,0-.8.616-1.267,1.8-1.268q12.4-.013,24.8-.006c.881,0,1.6.294,1.762,1.228.128.727-.805,1.418-1.8,1.419q-6.252,0-12.5,0" transform="translate(-212.678 -106.244)"/>
          <path id="Trazado_274539" data-name="Trazado 274539" d="M277.214,95.848c2.029,0,4.058-.006,6.087,0,1,0,1.5.454,1.517,1.29.013.978-.541,1.339-1.433,1.339q-6.192,0-12.383,0c-.733,0-1.389-.26-1.491-.981a2.147,2.147,0,0,1,.56-1.415c.177-.22.693-.223,1.057-.226,2.029-.02,4.058-.009,6.087-.01" transform="translate(-212.838 -75.694)"/>
          <path id="Trazado_274540" data-name="Trazado 274540" d="M276.919,33.29c-2.029,0-4.058-.018-6.087.008a1.273,1.273,0,0,1-1.465-1.349c-.033-.92.594-1.278,1.421-1.28,4.163-.012,8.326-.022,12.489.006.794.005,1.521.214,1.442,1.308-.07.974-.61,1.313-1.5,1.311-2.1-.006-4.2,0-6.3,0" transform="translate(-212.731 -24.211)" fill="#010101"/>
          <path id="Trazado_274541" data-name="Trazado 274541" d="M73.671,212.921l-.154.233.154-.233" transform="translate(-58.06 -168.153)" fill="#1b1b1c"/>
          <path id="Trazado_274542" data-name="Trazado 274542" d="M187.732,164.945A15.447,15.447,0,0,1,203.7,180.584a15.847,15.847,0,0,1-15.7,15.726c-8.855.126-15.469-7.424-15.824-15.024-.417-8.933,7.155-16.789,15.549-16.341m13.905,15.621c.278-7.668-6.244-13.551-13.276-13.754a13.757,13.757,0,0,0-14.112,14.626,14.021,14.021,0,0,0,13.278,12.935c7.681.183,14.407-6.271,14.11-13.807" transform="translate(-135.967 -130.25)" fill="#ebeef0"/>
          <path id="Trazado_274543" data-name="Trazado 274543" d="M168.418,304.608c-.086.083-.172.239-.259.24-1.783.017-3.565.027-5.348,0-.153,0-.3-.3-.452-.455a7.636,7.636,0,0,0,.189-1.2q.018-10.633.008-21.266a2.063,2.063,0,0,1,2.414,1.139,36.182,36.182,0,0,0,3.27,3.859c0,4.953-.026,9.907.005,14.86a2.7,2.7,0,0,1-1.374,2.825Z" transform="translate(-128.222 -222.598)" fill="#ffe076"/>
          <path id="Trazado_274544" data-name="Trazado 274544" d="M238.475,338.662l0-13.039.16-.162,5.687-.464q0,5.672,0,11.345c0,1.62-.688,2.322-2.272,2.327-1.19,0-2.381,0-3.571-.007" transform="translate(-188.331 -256.666)" fill="#fd646f"/>
          <path id="Trazado_274545" data-name="Trazado 274545" d="M341.242,323.508l-3.976,3.817-9.6-9.294c1.161-1.154,2.276-2.292,3.437-3.381a.851.851,0,0,1,.784.015,5.3,5.3,0,0,1,.817.8q3.788,3.687,7.586,7.363a7.807,7.807,0,0,0,.947.677" transform="translate(-258.776 -248.423)" fill="#f1ba84"/>
          <path id="Trazado_274546" data-name="Trazado 274546" d="M220.277,143.314h4.339v1.744l-4.338.859q0-1.3,0-2.6" transform="translate(-173.963 -113.182)" fill="#fd646f"/>
          <path id="Trazado_274547" data-name="Trazado 274547" d="M314.845,298.882c-1.182,1.253-1.2,1.273-2.254.095-.651-.731-1.219-1.534-1.894-2.393.62-1,.746-1.012,1.907.122.726.709,1.455,1.413,2.242,2.177" transform="translate(-245.371 -233.642)" fill="#a498a4"/>
          <path id="Trazado_274548" data-name="Trazado 274548" d="M238.493,338.662c1.19,0,2.381.011,3.571.007,1.585-.005,2.271-.707,2.272-2.327q0-5.672,0-11.345c.091.157.263.313.263.47.014,4.434.012,8.867.012,13.386-2.051,0-4.054,0-6.058-.008-.02,0-.04-.12-.06-.184" transform="translate(-188.349 -256.666)" fill="#f84654"/>
          <path id="Trazado_274549" data-name="Trazado 274549" d="M162.372,282.167q0,10.633-.008,21.266a7.635,7.635,0,0,1-.189,1.2q-.023-7.331-.045-14.662c-.006-2.3-.01-4.609.01-6.914a3.715,3.715,0,0,1,.232-.89" transform="translate(-128.037 -222.84)" fill="#ffe177"/>
          <path id="Trazado_274550" data-name="Trazado 274550" d="M185.371,323.626h-1.545A2.7,2.7,0,0,0,185.2,320.8c-.031-4.953-.009-9.907-.005-14.86.073.14.21.28.209.42q0,8.632-.032,17.265" transform="translate(-145.176 -241.616)" fill="#fbcf63"/>
          <path id="Trazado_274551" data-name="Trazado 274551" d="M218.931,143.314q0,1.3,0,2.6a1.526,1.526,0,0,1-.344-.066q-.028-1.223,0-2.446c0-.033.225-.061.345-.091" transform="translate(-172.617 -113.182)" fill="#f84654"/>
          <path id="Trazado_274552" data-name="Trazado 274552" d="M238.631,327.2l-.16.162.16-.162" transform="translate(-188.331 -258.407)" fill="#f84654"/>
          <path id="Trazado_274553" data-name="Trazado 274553" d="M30.647,17.089q.036,4.138.07,8.276a35.947,35.947,0,0,1-.025,4.087,9.547,9.547,0,0,0,1.8,6.3c2.072,3.3,3.945,6.729,5.9,10.1a3.2,3.2,0,0,1-.6.393,15.411,15.411,0,0,1-8,.921,14.594,14.594,0,0,1-11.323-8.188A15.059,15.059,0,0,1,22.932,20.03a14.215,14.215,0,0,1,7.715-2.941" transform="translate(-13.291 -13.496)" fill="#8ac9fe"/>
          <path id="Trazado_274554" data-name="Trazado 274554" d="M109.463,30.788l-12.573.052c-.378,0-.756,0-1.211,0V17.058c.551.071,1.111.1,1.652.22a14.676,14.676,0,0,1,10.894,8.9,31.317,31.317,0,0,1,1.239,4.614" transform="translate(-75.561 -13.471)" fill="#ffe177"/>
          <path id="Trazado_274555" data-name="Trazado 274555" d="M106.482,106.307l-6.406-10.848h12.861a5.189,5.189,0,0,0-.188.807,11.8,11.8,0,0,1-2.432,6.328,33.78,33.78,0,0,1-3.835,3.712" transform="translate(-79.035 -75.388)" fill="#fd646f"/>
          <path id="Trazado_274556" data-name="Trazado 274556" d="M27.06,13.669a14.215,14.215,0,0,0-7.715,2.941,15.059,15.059,0,0,0-4.468,18.955A14.594,14.594,0,0,0,26.2,43.753a15.411,15.411,0,0,0,8-.921,3.2,3.2,0,0,0,.6-.393l.513.815c-5.745,2.4-11.149,2.214-16.171-1.421-4.89-3.54-7.474-8.517-6.739-14.442,1.034-8.329,6.023-13.321,14.649-14.631Z" transform="translate(-9.704 -10.076)" fill="#60b5fa"/>
          <path id="Trazado_274557" data-name="Trazado 274557" d="M109.463,27.787a31.317,31.317,0,0,0-1.239-4.614,14.676,14.676,0,0,0-10.894-8.9c-.541-.118-1.1-.149-1.652-.22v-.8c8.011.872,13.6,6.6,14.563,14.529Z" transform="translate(-75.561 -10.47)" fill="#fbcf63"/>
          <path id="Trazado_274558" data-name="Trazado 274558" d="M130.542,106.307a33.779,33.779,0,0,0,3.835-3.712,11.8,11.8,0,0,0,2.432-6.328,5.19,5.19,0,0,1,.188-.807h.751a15.926,15.926,0,0,1-6.716,11.677l-.49-.829" transform="translate(-103.095 -75.388)" fill="#f84654"/>
          <path id="Trazado_274559" data-name="Trazado 274559" d="M85.936,258.267c-.019-.278-.056-.556-.056-.833q0-16.678,0-33.356v-.87h5.759a.417.417,0,0,0,.025.174q-.007,16.377-.015,32.753c0,1.586-.54,2.13-2.142,2.144-1.189.011-2.379-.007-3.569-.012" transform="translate(-67.822 -176.278)" fill="#8ac9fe"/>
          <path id="Trazado_274560" data-name="Trazado 274560" d="M85.882,258.922c1.19.005,2.379.023,3.569.012,1.6-.014,2.141-.559,2.142-2.144q.009-16.376.014-32.753a7.705,7.705,0,0,1,.188,1.2q.016,15.5.015,31.01a9.371,9.371,0,0,0,.157,1.219q0,.734.007,1.469l-.172.227-5.9-.011-.1-.243Z" transform="translate(-67.767 -176.932)" fill="#60b5fa"/>
          <path id="Trazado_274561" data-name="Trazado 274561" d="M113.651,256.811a9.335,9.335,0,0,1-.157-1.219q-.013-15.5-.015-31.009a7.678,7.678,0,0,0-.188-1.2.417.417,0,0,1-.024-.174c.146.272.416.543.419.816.032,2.768.02,5.535.02,8.3q0,11.667,0,23.334c0,.383-.034.767-.052,1.151" transform="translate(-89.451 -176.277)" fill="#4d97d4"/>
          <path id="Trazado_274562" data-name="Trazado 274562" d="M114.313,390.245l.172-.227-.172.227" transform="translate(-90.278 -308.014)" fill="#4d97d4"/>
          <path id="Trazado_274563" data-name="Trazado 274563" d="M85.808,389.891l.1.243-.1-.243" transform="translate(-67.766 -307.915)" fill="#405d76"/>
          <path id="Trazado_274564" data-name="Trazado 274564" d="M13.051,287.438c-.017-1.257-.049-2.515-.05-3.772q-.007-11.122,0-22.244V260.15h5.738q0,12.5,0,25.01c0,1.777-.513,2.279-2.324,2.284-1.121,0-2.242,0-3.363-.006" transform="translate(-10.265 -205.452)" fill="#6cf5c2"/>
          <path id="Trazado_274565" data-name="Trazado 274565" d="M13.251,287.433c1.121,0,2.242.008,3.363.006,1.811,0,2.324-.507,2.324-2.284q0-12.505,0-25.01h.2q0,12.424.014,24.847a9.288,9.288,0,0,0,.157,1.216v1.462c-1.973,0-3.94,0-5.906-.01-.052,0-.1-.147-.155-.226" transform="translate(-10.465 -205.448)" fill="#2af1ad"/>
          <path id="Trazado_274566" data-name="Trazado 274566" d="M41.436,286.207a9.355,9.355,0,0,1-.157-1.216q-.017-12.423-.014-24.847a2.619,2.619,0,0,1,.218.72q.016,12.464.006,24.929a3.2,3.2,0,0,1-.053.414" transform="translate(-32.589 -205.448)" fill="#00c986"/>
          <path id="Trazado_274567" data-name="Trazado 274567" d="M219.574,78.017c1.329,0,2.585-.041,3.833.034a1.036,1.036,0,0,1,.7.718,19.839,19.839,0,0,1,0,3.138,1.034,1.034,0,0,1-.721.7c-1.248.074-2.5.033-3.813.033Z" transform="translate(-173.408 -61.605)" fill="#ffe177"/>
          <path id="Trazado_274568" data-name="Trazado 274568" d="M219.625,14.221H224.1v4.187l-4.477.263Z" transform="translate(-173.448 -11.231)" fill="#8ac9fe"/>
          <path id="Trazado_274569" data-name="Trazado 274569" d="M209.364,187.625c.3,7.535-6.429,13.99-14.11,13.807A14.021,14.021,0,0,1,181.976,188.5a13.757,13.757,0,0,1,14.112-14.626c7.032.2,13.554,6.087,13.276,13.754m-8.63,4.548-.169-.2-.254-.165a7.19,7.19,0,0,0-4.883-1.539,6.94,6.94,0,0,0-6.758,5,1,1,0,0,0,.441,1.318,11.264,11.264,0,0,0,5.053,2.071,10.225,10.225,0,0,0,8.068-2.256c.2-.283.64-.7.567-.83-.636-1.163-1.364-2.276-2.064-3.4m3.974.667.354.718a8.735,8.735,0,0,0,1.668-4.617c.305-3.3-.361-6.335-2.816-8.772a19.563,19.563,0,0,0-1.423-1.362,11.177,11.177,0,0,0-7.5-2.2,9.884,9.884,0,0,0-7.826,3.908c-3.207,4.054-3.482,8.561-.751,13.156a10.623,10.623,0,0,1,5.088-5.311c-2.708-3.623-1.389-6.565.444-8.273a5.871,5.871,0,0,1,7.217-.26,5.031,5.031,0,0,1,2.145,3.351,5.875,5.875,0,0,1-1.5,5.25,9.9,9.9,0,0,1,4.9,4.416m-9.127-5.479a2.851,2.851,0,0,0,3.187-2.971,2.979,2.979,0,0,0-3.214-2.97,3.113,3.113,0,0,0-3.008,2.886,3.019,3.019,0,0,0,3.035,3.055" transform="translate(-143.694 -137.309)" fill="#010101"/>
          <path id="Trazado_274570" data-name="Trazado 274570" d="M214.477,203.1a9.9,9.9,0,0,0-4.9-4.416,5.874,5.874,0,0,0,1.5-5.25,5.031,5.031,0,0,0-2.145-3.351,5.871,5.871,0,0,0-7.216.26c-1.833,1.707-3.152,4.65-.444,8.273a10.624,10.624,0,0,0-5.089,5.311c-2.731-4.594-2.456-9.1.751-13.156a9.884,9.884,0,0,1,7.826-3.908,11.177,11.177,0,0,1,7.5,2.2,19.514,19.514,0,0,1,1.423,1.362,2.254,2.254,0,0,0,.167.792,11.549,11.549,0,0,1,1.809,5.158,10.7,10.7,0,0,1-1.182,6.721" transform="translate(-153.462 -147.572)" fill="#827582"/>
          <path id="Trazado_274571" data-name="Trazado 274571" d="M227.142,258.023a10.226,10.226,0,0,1-8.068,2.256,11.268,11.268,0,0,1-5.053-2.071,1,1,0,0,1-.441-1.318,6.94,6.94,0,0,1,6.758-5,7.191,7.191,0,0,1,4.883,1.539l.254.166.169.2,1.5,4.234" transform="translate(-168.605 -198.925)" fill="#8ac9fe"/>
          <path id="Trazado_274572" data-name="Trazado 274572" d="M235.373,215.741a3.02,3.02,0,0,1-3.035-3.055,3.113,3.113,0,0,1,3.008-2.886,2.979,2.979,0,0,1,3.214,2.97,2.851,2.851,0,0,1-3.187,2.971" transform="translate(-183.486 -165.688)" fill="#f6dccd"/>
          <path id="Trazado_274573" data-name="Trazado 274573" d="M287.209,216.517a10.7,10.7,0,0,0,1.182-6.721,11.549,11.549,0,0,0-1.809-5.158,2.254,2.254,0,0,1-.167-.792c2.455,2.436,3.121,5.475,2.816,8.772a8.739,8.739,0,0,1-1.668,4.617l-.354-.718" transform="translate(-226.195 -160.986)" fill="#646565"/>
          <path id="Trazado_274574" data-name="Trazado 274574" d="M272.787,265.174l-1.5-4.234c.7,1.128,1.428,2.241,2.064,3.4.073.133-.366.547-.568.83" transform="translate(-214.25 -206.076)" fill="#60b5fa"/>
          <path id="Trazado_274575" data-name="Trazado 274575" d="M269.531,259.376l-.254-.165.254.165" transform="translate(-212.66 -204.711)" fill="#60b5fa"/>
        </g>
      </g>
    </g>
  </g>
</svg>
