<svg id="Grupo_257098" data-name="Grupo 257098" xmlns="http://www.w3.org/2000/svg" xmlns:xlink="http://www.w3.org/1999/xlink" width="85" height="84.609" viewBox="0 0 85 84.609">
  <defs>
    <clipPath id="clip-path">
      <rect id="Rectángulo_323383" data-name="Rectángulo 323383" width="85" height="84.609" fill="none"/>
    </clipPath>
  </defs>
  <g id="Grupo_257097" data-name="Grupo 257097" clip-path="url(#clip-path)">
    <path id="Trazado_274636" data-name="Trazado 274636" d="M6.84,58.181c-.505-1.371-.447-1.54.8-2.389.313-.213.6-.465.921-.662,1.5-.921,1.394-.889.984-2.544-.58-2.339-1.074-4.709-1.422-7.092a25.25,25.25,0,0,1-.213-5,33.239,33.239,0,0,1,2.316-10.779c-.967-1.551-1.954-2.956-2.734-4.468a2.3,2.3,0,0,0-1.376-1.353c-2.132-.71-2.981-2.606-3.665-4.45A14.218,14.218,0,0,1,2.711,8.323,14.014,14.014,0,0,1,15.169.025a13.883,13.883,0,0,1,11.474,5.04,25.819,25.819,0,0,1,2.539,4.29c.273.5.451.672,1.082.491a56.971,56.971,0,0,1,7.571-1.928,30.381,30.381,0,0,1,6.943-.034c2.577.232,5.131.763,7.679,1.25a23.845,23.845,0,0,1,2.9.935C56.97,5.635,59.7,2.464,64.082.845A12.487,12.487,0,0,1,71.074.255C72.4.529,73.69.945,75,1.285a1.721,1.721,0,0,1,1.412,2.131c-.922.85-1.847.271-2.772.006a11.579,11.579,0,0,0-5.605-.85,9.914,9.914,0,0,0-6.784,2.869c-3.564,3.422-4.909,7.589-3.372,12.429a6.088,6.088,0,0,0,2.238,3.4,13,13,0,0,0-.341-2.9c-.086-.408-.478-.961-.334-1.163a2.006,2.006,0,0,1,1.254-.7c1.135-.157,2.3-.11,3.435-.259,3.791-.5,6.484-2.234,7-6.363.1-.815.741-.8,1.36-.779.645.02.988.321.936.983-.053.681.223.884.92.911a3.843,3.843,0,0,1,3.282,2.807c.258,1.646.284,3.328.411,4.994v2.486l.328.08a7.159,7.159,0,0,0,.967-1.177,11.955,11.955,0,0,0-.2-12.166c-.521-.9-1.1-1.645-.413-2.667a1.974,1.974,0,0,1,2.245,1.024,13.8,13.8,0,0,1,2,10.873,9.832,9.832,0,0,1-2.9,5.731,15.135,15.135,0,0,1-1.907,1.1,1.419,1.419,0,0,0-.648.7A7.322,7.322,0,0,1,75,28.713a1.056,1.056,0,0,0-.286,1.418,27.1,27.1,0,0,1,1.884,7.9c.1,1.3.417,2.606.387,3.9A37.389,37.389,0,0,1,74.83,54.117c1.63,1.309,3.255,2.457,4.691,3.8a11.545,11.545,0,0,1,3.564,7.314c.207,1.875-.012,3.793.068,5.687a3.5,3.5,0,0,0,.617,1.9,5.739,5.739,0,0,1-1.647,8.518,11.249,11.249,0,0,1-3.309.889,5.4,5.4,0,0,1-1.366.012,6.583,6.583,0,0,0-4.078.994c-3.113,1.959-6.306,1.751-9.377-.367a4.189,4.189,0,0,0-1.982-.6,26.264,26.264,0,0,1-4.085-.143,5.811,5.811,0,0,1-4.733-6.2,7.942,7.942,0,0,0-.04-.835,34.365,34.365,0,0,1-21.574,0,5.564,5.564,0,0,1-2.6,6.1,12.183,12.183,0,0,1-3.461,1.04,4.494,4.494,0,0,1-1.05.013,7.862,7.862,0,0,0-4.6,1.051c-3.009,1.936-6.21,1.69-9.155-.445a3.218,3.218,0,0,0-2-.625,20.855,20.855,0,0,1-4.455-.241,4.906,4.906,0,0,1-4-3.71A6.569,6.569,0,0,1,1.1,72.636a3.432,3.432,0,0,0,.629-2.278,16.421,16.421,0,0,1,.9-8.6A1.519,1.519,0,0,1,4.89,60.732a1.367,1.367,0,0,1,.251,1.789,11.265,11.265,0,0,0-1,7.436A5.153,5.153,0,0,1,3.076,74.3a3.255,3.255,0,0,0,1.637,5.169,13.368,13.368,0,0,0,3.074.04,9.64,9.64,0,0,1-.514-1.663C7.086,76.23,7,74.6,6.815,72.988a3.951,3.951,0,0,0-.53-1.056c-.229-.481-.652-.993-.6-1.451.071-.679.679-.891,1.409-.918a35.669,35.669,0,0,0,5.5-.426,6.058,6.058,0,0,0,5.022-5.326c.05-.687.256-1.392,1.307-1.41,1.318-.022,1.159.906,1.258,1.668,3.689,1.1,4.555,2.211,4.5,6.022-.043,3.163.452,6.383-1.119,9.737l3.079-.367.275-.047.065-.024a3.189,3.189,0,0,0,1.458-5.124,5.527,5.527,0,0,1-1.135-4.4,11.7,11.7,0,0,0-1.932-9.122,8.164,8.164,0,0,0-3.567-3.18l.009.011-.229-.209.006,0-.425-.225a11.772,11.772,0,0,0-12.221.783,1.9,1.9,0,0,1-2.1.25M74.9,57.369l.006,0-.426-.225A10.911,10.911,0,0,0,66.847,56c-6.982,1.333-10.423,7.678-9.382,13.835A5.541,5.541,0,0,1,56.4,74.273a3.284,3.284,0,0,0,1.6,5.2,15.651,15.651,0,0,0,3.287.208,13.518,13.518,0,0,1-1.155-6.687,1.308,1.308,0,0,0-.456-.972c-.6-.387-.933-.843-.718-1.534a1.265,1.265,0,0,1,1.551-.9,12.843,12.843,0,0,0,5.4-.409c2.686-.793,4.632-2.359,5-5.351.141-1.15.744-1.7,1.708-1.342.486.181.764.919,1.136,1.405a.482.482,0,0,0,.462.415,4.228,4.228,0,0,1,3.74,4.293c-.014,3.653.581,7.369-1,11.22l3.008-.359.275-.047.066-.025a3.17,3.17,0,0,0,1.43-5.135,5.693,5.693,0,0,1-1.094-4.63A11.134,11.134,0,0,0,78.582,60.6a22.746,22.746,0,0,0-3.458-3.032l.009.01-.228-.209M20.33,3.4a12.306,12.306,0,0,0-5.168-.844A10.254,10.254,0,0,0,7.889,5.464,11.673,11.673,0,0,0,5.061,19.216a16.076,16.076,0,0,0,1.523,2.321L7,21.356c-.171-.943-.322-1.89-.521-2.826-.1-.448-.482-.931-.381-1.3.168-.613.772-.724,1.435-.773a30.69,30.69,0,0,0,5.231-.652,6.133,6.133,0,0,0,4.724-4.4c.14-.495.2-1.012.319-1.512a1.016,1.016,0,0,1,1.465-.738c.362.135.56.7.847,1.054.222.275.443.726.711.763a3.718,3.718,0,0,1,3.486,3.071,45.426,45.426,0,0,1,.424,4.975v2.4c2-1.123,3.192-5.376,2.708-8.746A11.134,11.134,0,0,0,20.33,3.4m34.9,68.174c-.987-5.179-.274-9.956,3.467-13.879s8.385-5,13.626-4.022a32.057,32.057,0,0,0,.069-22.746c-1.948,0-3.8.315-5.484-.068A8.21,8.21,0,0,1,60.723,25c-.164-.51-.523-.7-.99-.974a8.165,8.165,0,0,1-2.659-2.146,12.373,12.373,0,0,1-2.181-8.193c.062-.836-.254-1.166-1.059-1.447a28.306,28.306,0,0,0-9.093-1.858,45.836,45.836,0,0,0-6.845.065,76.11,76.11,0,0,0-7.758,1.883c-.125,1.648-.126,3.047-.357,4.408-.418,2.456-1.1,4.973-3.258,6.387a9.511,9.511,0,0,0-3.3,3.763A8.149,8.149,0,0,1,18.777,30.6a7.542,7.542,0,0,1-6.161-.051,28.979,28.979,0,0,0-2.167,9.513,27.477,27.477,0,0,0,.216,5.63c.354,2.419.966,4.8,1.545,7.182a1.242,1.242,0,0,0,.945.666c1.891.069,3.855-.281,5.668.1A14.067,14.067,0,0,1,30,67.231c.013,1.245-.168,2.492-.189,3.739a1.155,1.155,0,0,0,.421.913,26.571,26.571,0,0,0,8.964,2.3A49.879,49.879,0,0,0,46.514,74a27.485,27.485,0,0,0,8.717-2.426M19.6,66.671a18.755,18.755,0,0,1-2.258,2.8,11.188,11.188,0,0,1-7.192,2.636c-.6.008-.826.242-.788.82.084,1.28.1,2.567.235,3.842a6.481,6.481,0,0,0,5.684,5.261,6.448,6.448,0,0,0,6.7-5.415,70.711,70.711,0,0,0,.2-7.341c.02-1.86-.881-2.675-2.585-2.608m56.073,5.571-.171-.018a26.022,26.022,0,0,0-.04-3.36,3.368,3.368,0,0,0-.9-1.771,1.34,1.34,0,0,0-2.1.043c-1.861,3.392-4.992,4.627-8.592,4.954-.872.079-1.3.207-1.2,1.172a18.4,18.4,0,0,1,.014,2.1c-.042,4.256,4.166,7.421,7.564,6.506,2.241-.6,4.427-2.286,4.853-4.573.31-1.663.39-3.369.573-5.056m0-53.313-.17-.018c0-.386,0-.771,0-1.157,0-.842.046-1.688-.03-2.523a2.168,2.168,0,0,0-1.813-1.885c-.9-.268-1.159.4-1.5,1a7.96,7.96,0,0,1-3.3,3.021,12.058,12.058,0,0,1-5.394,1.458c-.266.009-.745.3-.748.466-.036,2.232-.292,4.5,1.12,6.5,1.452,2.058,3.458,3.258,5.9,2.848,2.656-.447,4.71-1.7,5.362-4.763a49.777,49.777,0,0,0,.571-4.951M22.3,19.253c-.118-1.824-.11-3.2-.326-4.529-.148-.912-1.009-1.2-1.857-1.4-.831-.193-.9.5-1.242.924a14.344,14.344,0,0,1-1.745,2.013,11.269,11.269,0,0,1-7.107,2.579c-.231.009-.63.514-.63.789A20.362,20.362,0,0,0,9.6,23.676,6.155,6.155,0,0,0,15.4,28.665a6.082,6.082,0,0,0,6.374-4.606,33.2,33.2,0,0,0,.53-4.807" transform="translate(0 0)" fill="#020101"/>
    <path id="Trazado_274637" data-name="Trazado 274637" d="M15.708,267.169a1.9,1.9,0,0,0,2.1-.25,11.772,11.772,0,0,1,12.221-.783l.425.225-.006,0,.229.21-.009-.011a9.052,9.052,0,0,0,.533.862c.578.743,1.251,1.422,1.757,2.21a11.7,11.7,0,0,1,1.921,7.755c-.224,2.069-.351,4.036,1.113,5.858,1.055,1.313.711,2.91.038,4.386a4.02,4.02,0,0,0-.184.753l-.065.024-.274.047-3.079.367c1.572-3.353,1.077-6.573,1.119-9.736.052-3.811-.815-4.925-4.5-6.022-.1-.761.06-1.69-1.258-1.668-1.051.018-1.257.723-1.307,1.41a6.058,6.058,0,0,1-5.022,5.326,35.642,35.642,0,0,1-5.5.426c-.73.027-1.338.239-1.409.918-.048.458.376.97.6,1.451a3.952,3.952,0,0,1,.53,1.056c.188,1.615.271,3.242.457,4.858a9.638,9.638,0,0,0,.514,1.663,13.39,13.39,0,0,1-3.074-.039,3.255,3.255,0,0,1-1.637-5.17,5.152,5.152,0,0,0,1.064-4.343,11.267,11.267,0,0,1,1-7.436,1.366,1.366,0,0,0-.251-1.789l1.95-2.551" transform="translate(-8.869 -208.988)" fill="#fe5a96"/>
    <path id="Trazado_274638" data-name="Trazado 274638" d="M354.492,18.152c-.687,1.022-.108,1.77.413,2.667a11.955,11.955,0,0,1,.2,12.166,7.158,7.158,0,0,1-.967,1.177l-.328-.08V31.595a2.509,2.509,0,0,0,.429-.8,37.62,37.62,0,0,0,.417-4.835,11.6,11.6,0,0,0-3.615-8.023c-.553-.566-1.087-1.15-1.63-1.726.925.266,1.85.844,2.772-.006l2.306,1.946" transform="translate(-275.773 -12.791)" fill="#5a5454"/>
    <path id="Trazado_274639" data-name="Trazado 274639" d="M94.151,110.057a27.477,27.477,0,0,1-8.717,2.427,49.879,49.879,0,0,1-7.316.188,26.571,26.571,0,0,1-8.964-2.3,1.155,1.155,0,0,1-.42-.913c.021-1.247.2-2.493.189-3.739a14.067,14.067,0,0,0-11.18-13.585c-1.813-.385-3.776-.035-5.668-.1a1.241,1.241,0,0,1-.945-.667c-.579-2.38-1.191-4.763-1.545-7.181a27.492,27.492,0,0,1-.216-5.63,28.98,28.98,0,0,1,2.167-9.513,7.543,7.543,0,0,0,6.161.051,8.149,8.149,0,0,0,4.449-3.717,9.509,9.509,0,0,1,3.3-3.763c2.161-1.414,2.84-3.931,3.258-6.387.231-1.36.232-2.759.357-4.407a76.108,76.108,0,0,1,7.758-1.883,45.838,45.838,0,0,1,6.845-.065,28.3,28.3,0,0,1,9.093,1.858c.8.281,1.121.611,1.059,1.447a12.375,12.375,0,0,0,2.181,8.193,8.171,8.171,0,0,0,2.659,2.146c.467.27.826.464.99.974a8.21,8.21,0,0,0,6.186,5.857c1.689.383,3.537.068,5.484.068a32.055,32.055,0,0,1-.068,22.746c-5.241-.979-9.9.11-13.626,4.022s-4.454,8.7-3.467,13.879M78.2,92.03l3.135-.173c.226,2.2,2.03,1.188,3.158,1.552.431,3.225,3.6,4.006,5.408,1.86a5.356,5.356,0,0,1,4.914-2,3.253,3.253,0,0,0,3.469-3.187c-.009-3.686.006-7.372-.008-11.058A2.554,2.554,0,0,0,96.835,76.5a8.519,8.519,0,0,0-2.874-.586c-1.91-.087-3.827-.026-5.8-.026,0-2.6.113-5.059-.032-7.5-.14-2.358-.847-3.392-3.393-3.45-5.789-.133-11.584-.056-17.376-.024a2.863,2.863,0,0,0-2.829,2.925q0,4.9,0,9.794a2.963,2.963,0,0,0,3.043,3.053c1.289,0,2.578,0,3.934,0,0,.449,0,.793,0,1.137q0,4.265.008,8.53a2.826,2.826,0,0,0,1.555,2.557c1.01.606,2.068.027,3.089.209A1.691,1.691,0,0,0,78.2,92.03" transform="translate(-38.921 -38.486)" fill="#f8fafb"/>
    <path id="Trazado_274640" data-name="Trazado 274640" d="M288.55,288.318l-3.008.359c1.582-3.85.987-7.566,1-11.22a4.227,4.227,0,0,0-3.74-4.293.482.482,0,0,1-.462-.415c-.372-.486-.65-1.224-1.136-1.405-.964-.36-1.567.192-1.708,1.342-.366,2.992-2.312,4.558-5,5.351a12.842,12.842,0,0,1-5.4.409,1.265,1.265,0,0,0-1.551.9c-.215.691.113,1.147.718,1.534a1.309,1.309,0,0,1,.456.973,13.52,13.52,0,0,0,1.155,6.686,15.64,15.64,0,0,1-3.287-.208,3.284,3.284,0,0,1-1.6-5.2,5.541,5.541,0,0,0,1.061-4.435c-1.041-6.157,2.4-12.5,9.382-13.835A10.911,10.911,0,0,1,283.075,266l.426.225-.005,0,.228.209-.009-.01a4.274,4.274,0,0,0,.534.855c3.168,3.117,4.116,6.987,3.61,11.234a5.437,5.437,0,0,0,.943,4.119,4.23,4.23,0,0,1,.621,3.886q-.268.863-.532,1.727l-.066.024-.275.047" transform="translate(-208.59 -208.857)" fill="#fea730"/>
    <path id="Trazado_274641" data-name="Trazado 274641" d="M39.526,28.576A45.381,45.381,0,0,0,39.1,23.6a3.717,3.717,0,0,0-3.486-3.071c-.268-.037-.489-.487-.711-.763-.288-.357-.485-.92-.847-1.054a1.016,1.016,0,0,0-1.465.738c-.123.5-.18,1.018-.319,1.512a6.133,6.133,0,0,1-4.724,4.4,30.69,30.69,0,0,1-5.231.652c-.662.05-1.267.161-1.435.774-.1.37.286.853.382,1.3.2.937.35,1.884.521,2.826l-.416.182a16.067,16.067,0,0,1-1.523-2.321A11.673,11.673,0,0,1,22.677,15.02a10.255,10.255,0,0,1,7.272-2.911,12.309,12.309,0,0,1,5.168.844c.633.679,1.25,1.373,1.9,2.034a12.869,12.869,0,0,1,2.508,13.589" transform="translate(-14.787 -9.557)" fill="#c37a4a"/>
    <path id="Trazado_274642" data-name="Trazado 274642" d="M288.038,13.007c.543.576,1.077,1.16,1.63,1.726a11.606,11.606,0,0,1,3.615,8.023,37.62,37.62,0,0,1-.417,4.835,2.512,2.512,0,0,1-.429.8c-.127-1.666-.153-3.348-.411-4.994a3.844,3.844,0,0,0-3.282-2.807c-.7-.027-.973-.23-.92-.911.052-.663-.291-.964-.936-.983-.619-.019-1.259-.036-1.36.779-.514,4.13-3.207,5.866-7,6.363-1.137.149-2.3.1-3.435.259a2.007,2.007,0,0,0-1.254.7c-.145.2.248.754.334,1.163a12.992,12.992,0,0,1,.341,2.9,6.089,6.089,0,0,1-2.238-3.4c-1.537-4.84-.192-9.008,3.372-12.429a9.914,9.914,0,0,1,6.784-2.869,11.577,11.577,0,0,1,5.605.85" transform="translate(-214.398 -9.585)" fill="#746e6e"/>
    <path id="Trazado_274643" data-name="Trazado 274643" d="M54.627,316.33c1.7-.068,2.605.747,2.585,2.608a70.711,70.711,0,0,1-.2,7.341,6.26,6.26,0,0,1-12.388.154c-.133-1.275-.152-2.562-.235-3.842-.038-.578.191-.812.788-.82a11.191,11.191,0,0,0,7.192-2.636,18.754,18.754,0,0,0,2.258-2.8" transform="translate(-35.031 -249.66)" fill="#fcd1a7"/>
    <path id="Trazado_274644" data-name="Trazado 274644" d="M310.288,321.707c-.183,1.687-.263,3.393-.573,5.056-.426,2.287-2.612,3.97-4.853,4.573-3.4.915-7.606-2.251-7.564-6.507a18.394,18.394,0,0,0-.014-2.1c-.1-.965.329-1.093,1.2-1.172,3.6-.327,6.73-1.562,8.592-4.954a1.34,1.34,0,0,1,2.1-.043,3.367,3.367,0,0,1,.9,1.771,26.024,26.024,0,0,1,.04,3.36l.171.018" transform="translate(-234.619 -249.465)" fill="#fcd1a7"/>
    <path id="Trazado_274645" data-name="Trazado 274645" d="M310.39,68.68a49.778,49.778,0,0,1-.572,4.951c-.652,3.064-2.706,4.317-5.362,4.763-2.44.41-4.446-.79-5.9-2.848-1.412-2-1.156-4.272-1.12-6.5,0-.167.482-.457.747-.466a12.065,12.065,0,0,0,5.394-1.458,7.962,7.962,0,0,0,3.3-3.021c.338-.6.595-1.268,1.5-1a2.168,2.168,0,0,1,1.813,1.885c.075.835.025,1.682.029,2.523,0,.386,0,.772,0,1.157l.171.018" transform="translate(-234.719 -49.751)" fill="#fcd1a7"/>
    <path id="Trazado_274646" data-name="Trazado 274646" d="M57.459,69.021a33.2,33.2,0,0,1-.53,4.807,6.082,6.082,0,0,1-6.374,4.606,6.155,6.155,0,0,1-5.792-4.989,20.362,20.362,0,0,1-.211-4.048c0-.275.4-.78.63-.789a11.269,11.269,0,0,0,7.107-2.579,14.344,14.344,0,0,0,1.745-2.013c.339-.42.411-1.118,1.242-.924.848.2,1.709.488,1.857,1.4.217,1.334.208,2.7.326,4.529" transform="translate(-35.158 -49.769)" fill="#fcd1a7"/>
    <path id="Trazado_274647" data-name="Trazado 274647" d="M100.872,31.741a12.869,12.869,0,0,0-2.508-13.589c-.651-.661-1.268-1.355-1.9-2.034a11.133,11.133,0,0,1,7.116,9.277c.485,3.37-.709,7.623-2.708,8.746Z" transform="translate(-76.133 -12.721)" fill="#b06843"/>
    <path id="Trazado_274648" data-name="Trazado 274648" d="M361.63,294.975q.266-.864.532-1.727a4.231,4.231,0,0,0-.621-3.886,5.438,5.438,0,0,1-.943-4.119c.507-4.247-.442-8.117-3.61-11.234a4.254,4.254,0,0,1-.534-.855,22.765,22.765,0,0,1,3.458,3.032,11.134,11.134,0,0,1,2.054,9.024,5.693,5.693,0,0,0,1.094,4.63,3.17,3.17,0,0,1-1.43,5.135" transform="translate(-281.33 -215.586)" fill="#f78816"/>
    <path id="Trazado_274649" data-name="Trazado 274649" d="M108.631,294.973a4.025,4.025,0,0,1,.184-.753c.673-1.476,1.017-3.072-.038-4.385-1.464-1.823-1.337-3.79-1.113-5.859a11.7,11.7,0,0,0-1.921-7.755c-.506-.788-1.179-1.467-1.757-2.21a9.046,9.046,0,0,1-.533-.861,8.161,8.161,0,0,1,3.567,3.18,11.694,11.694,0,0,1,1.932,9.122,5.527,5.527,0,0,0,1.135,4.4,3.189,3.189,0,0,1-1.458,5.124" transform="translate(-81.651 -215.584)" fill="#fc3b81"/>
    <path id="Trazado_274650" data-name="Trazado 274650" d="M353.846,271.382l-.426-.225.426.225" transform="translate(-278.936 -214.01)" fill="#f78816"/>
    <path id="Trazado_274651" data-name="Trazado 274651" d="M100.848,271.384l-.425-.225.425.225" transform="translate(-79.258 -214.011)" fill="#fc3b81"/>
    <path id="Trazado_274652" data-name="Trazado 274652" d="M355.641,272.417l-.228-.209.228.209" transform="translate(-280.509 -214.839)" fill="#f78816"/>
    <path id="Trazado_274653" data-name="Trazado 274653" d="M102.641,272.417l-.229-.21.229.21" transform="translate(-80.828 -214.838)" fill="#fc3b81"/>
    <path id="Trazado_274654" data-name="Trazado 274654" d="M126.4,376.856l.274-.047-.274.047" transform="translate(-99.764 -297.395)" fill="#fc3b81"/>
    <path id="Trazado_274655" data-name="Trazado 274655" d="M379.4,376.855l.275-.047-.275.047" transform="translate(-299.439 -297.394)" fill="#f78816"/>
    <path id="Trazado_274656" data-name="Trazado 274656" d="M135.192,152.321a1.691,1.691,0,0,1-2.04,1.089c-1.021-.182-2.079.4-3.089-.209a2.826,2.826,0,0,1-1.555-2.556q0-4.265-.008-8.53c0-.344,0-.688,0-1.137-1.356,0-2.645,0-3.934,0a2.963,2.963,0,0,1-3.043-3.053q0-4.9,0-9.794a2.863,2.863,0,0,1,2.829-2.925c5.792-.032,11.587-.108,17.376.024,2.546.058,3.253,1.092,3.393,3.45.145,2.443.032,4.9.032,7.5,1.968,0,3.885-.062,5.8.026a8.518,8.518,0,0,1,2.874.586,2.554,2.554,0,0,1,1.443,2.524c.014,3.686,0,7.372.008,11.058a3.254,3.254,0,0,1-3.469,3.187,5.355,5.355,0,0,0-4.914,2c-1.812,2.145-4.977,1.365-5.408-1.861-1.128-.364-2.932.647-3.158-1.552a1.094,1.094,0,0,1,1.339-1.07c1.009.071,2.027.027,3.041.013a1.16,1.16,0,0,1,1.342,1.322c0,.572,0,1.143,0,1.714l.342.18a14.217,14.217,0,0,0,1.592-1.272c1.232-1.3,2.542-2.345,4.495-1.963a.321.321,0,0,0,.1-.015l2.123-.256c.024-.369.068-.742.068-1.115q.009-4.463,0-8.927c0-2.18,0-2.18-2.2-2.031l-5.467-.026-.183.171c-1.1,2.77-3.6,1.934-5.725,2.146a5.483,5.483,0,0,0,.005.79c.278,1.742-2.488,3.723-4.062,2.584-1.334-.965-2.529-2.122-3.786-3.194l-.2-.2-.133.2c-.01,2.618-.032,5.235-.028,7.853,0,2.445-.211,2.031,2.069,2.024,1,0,1.856.069,2.12,1.243m5.053-13.91c.314.012.628.034.942.035,1.47.006,1.472,0,1.473-1.438,0-2.344.022-4.688-.005-7.031-.027-2.283.549-2.383-2.418-2.235-5.151-.013-10.3-.017-15.453-.048-.742,0-.761.431-.761.956,0,2.909.027,5.818-.015,8.727-.012.858.325,1.08,1.12,1.064,2-.04,4-.061,5.992.019a3.035,3.035,0,0,1,1.646.667c1,.8,1.893,1.745,2.865,2.589a3.818,3.818,0,0,0,1.044.42c0-.808,0-1.4,0-1.994.01-1.207.44-1.644,1.679-1.69.63-.023,1.26-.027,1.89-.039" transform="translate(-95.911 -98.777)" fill="#010101"/>
    <path id="Trazado_274657" data-name="Trazado 274657" d="M166.85,191.943c1.257,1.072,2.452,2.229,3.786,3.194,1.575,1.139,4.34-.842,4.062-2.584a5.485,5.485,0,0,1-.005-.79c2.122-.212,4.628.624,5.725-2.146l.184-.171,5.467.026q0,6.164,0,12.329a.321.321,0,0,1-.1.015c-1.953-.382-3.262.664-4.495,1.963a14.215,14.215,0,0,1-1.592,1.272l-.342-.18c0-.572,0-1.143,0-1.715a1.16,1.16,0,0,0-1.342-1.322c-1.014.013-2.032.058-3.041-.013a1.094,1.094,0,0,0-1.339,1.07l-3.135.173c-.264-1.173-1.12-1.246-2.12-1.243-2.28.007-2.065.42-2.069-2.024,0-2.618.017-5.235.028-7.853h.328m13.922,4.871v.008a16.963,16.963,0,0,0,2.937-.05,1.915,1.915,0,0,0,1.259-1.081,1.053,1.053,0,0,0-1.091-1.326,60.088,60.088,0,0,0-6.094.058,1.7,1.7,0,0,0-1.118,1.2,1.128,1.128,0,0,0,1.266,1.191c.947-.02,1.894,0,2.841,0" transform="translate(-131.403 -149.52)" fill="#00c2f8"/>
    <path id="Trazado_274658" data-name="Trazado 274658" d="M149.554,147.921c-.63.013-1.26.016-1.89.039-1.238.046-1.669.483-1.679,1.69,0,.593,0,1.186,0,1.994a3.825,3.825,0,0,1-1.044-.42c-.972-.844-1.862-1.786-2.865-2.59a3.033,3.033,0,0,0-1.647-.666c-1.995-.08-3.995-.058-5.992-.019-.795.016-1.132-.206-1.12-1.065.041-2.908.017-5.818.015-8.727,0-.525.019-.96.761-.956,5.151.032,10.3.036,15.453.048q0,5.335.008,10.669m-8.239-4.1c1.017,0,2.034-.009,3.05,0a1.222,1.222,0,0,0,1.359-1.259,1.2,1.2,0,0,0-1.29-1.22q-3.05.006-6.1,0a1.243,1.243,0,1,0,.036,2.47c.981-.008,1.963,0,2.945,0" transform="translate(-105.22 -108.287)" fill="#feb54e"/>
    <path id="Trazado_274659" data-name="Trazado 274659" d="M259.391,201.692q0-6.164,0-12.329c2.2-.149,2.2-.149,2.2,2.031q0,4.463,0,8.927c0,.373-.045.746-.069,1.115l-2.123.256" transform="translate(-204.721 -149.411)" fill="#00abef"/>
    <path id="Trazado_274660" data-name="Trazado 274660" d="M210.331,147.937q0-5.335-.008-10.669c2.967-.147,2.39-.048,2.418,2.235.028,2.343.007,4.687.005,7.031,0,1.442,0,1.444-1.473,1.438-.314,0-.628-.023-.942-.035" transform="translate(-165.997 -108.303)" fill="#fe9a1b"/>
    <path id="Trazado_274661" data-name="Trazado 274661" d="M166.968,200.541h-.328l.133-.2.2.2" transform="translate(-131.52 -158.118)" fill="#0096c3"/>
    <path id="Trazado_274662" data-name="Trazado 274662" d="M232.762,189.446l-.183.171.183-.171" transform="translate(-183.562 -149.52)" fill="#0096c3"/>
    <path id="Trazado_274663" data-name="Trazado 274663" d="M218.86,215.048c-.947,0-1.894-.016-2.841,0a1.128,1.128,0,0,1-1.266-1.191,1.7,1.7,0,0,1,1.118-1.2,60.1,60.1,0,0,1,6.094-.058,1.053,1.053,0,0,1,1.091,1.326,1.914,1.914,0,0,1-1.259,1.081,16.96,16.96,0,0,1-2.937.05v-.008" transform="translate(-169.49 -167.754)" fill="#010101"/>
    <path id="Trazado_274664" data-name="Trazado 274664" d="M155,159.311c-.982,0-1.963-.006-2.945,0a1.243,1.243,0,1,1-.036-2.47q3.05.005,6.1-.005a1.2,1.2,0,0,1,1.29,1.22,1.222,1.222,0,0,1-1.359,1.259c-1.016-.012-2.033,0-3.05-.006" transform="translate(-118.901 -123.784)" fill="#010101"/>
  </g>
</svg>
