<svg id="Grupo_257104" data-name="Grupo 257104" xmlns="http://www.w3.org/2000/svg" xmlns:xlink="http://www.w3.org/1999/xlink" width="84.005" height="85.22" viewBox="0 0 84.005 85.22">
  <defs>
    <clipPath id="clip-path">
      <rect id="Rectángulo_323390" data-name="Rectángulo 323390" width="84.005" height="85.22" fill="none"/>
    </clipPath>
  </defs>
  <g id="Grupo_257103" data-name="Grupo 257103" clip-path="url(#clip-path)">
    <path id="Trazado_274717" data-name="Trazado 274717" d="M73.728,21.059q-.014-9.612-.03-19.224C73.7.475,73.247,0,71.9,0Q39.855,0,7.813,0c-1.459,0-2,.56-2,2.09q-.009,10.643,0,21.285v1.351c-1.477,0-2.844.052-4.205-.016C.5,24.657.117,25.239.015,26.185a7.528,7.528,0,0,0-.006.8q0,27.865,0,55.73c0,2.009.48,2.5,2.428,2.5h68.89c.419,0,.839-.013,1.258-.032a1.019,1.019,0,0,0,1.1-1.147c0-.381.012-.763.012-1.144,0-9.651.037-19.3-.021-28.952A21.29,21.29,0,0,1,75,45.376c1.395-3.354,2.439-6.853,3.628-10.268,2.652.376,2.66,1.353,2.011,2.974-.765,1.91-1.342,3.895-2.022,5.84a1.415,1.415,0,0,0,.825,2.006,1.259,1.259,0,0,0,1.778-.9c.939-2.589,1.923-5.167,2.706-7.8a4.256,4.256,0,0,0-2.756-4.492c-.512-.171-1.007-.4-1.389-.547a46.327,46.327,0,0,0,1.4-5.214,3.7,3.7,0,0,0-2.75-4.306c-1.491-.517-3.016-.938-4.526-1.4l-.184-.2M8.893,2.963h.242c.34-.022.68-.065,1.019-.065q29.647,0,59.293,0c.34,0,.68.041,1.02.063a3.093,3.093,0,0,1,.341.953q.031,9.106.01,18.211a7.68,7.68,0,0,1-.125.983c-.155.333-.339.657-.46,1Q67.482,31.9,64.746,39.687q-3.3,9.408-6.589,18.822a27.892,27.892,0,0,0-1.8,5.642c-.355,3-.227,6.052-.283,9.083-.005.277.047.69.228.812.927.632.59,1.366.359,2.186a1.827,1.827,0,0,0,.136,1.443,1.7,1.7,0,0,0,1.426.55c.477-.145.825-.759,1.2-1.2a8.589,8.589,0,0,1,.75-1.018,14.076,14.076,0,0,0,1.572-1.133c1.027-1.191,1.982-2.448,2.906-3.722A23.554,23.554,0,0,0,67.424,67c1.143-2.625,1.966-5.389,2.923-8.094l.146-.736.239-.618.191.06-.1.607q0,8.811,0,17.621c0,1.907.008,3.814-.008,5.721,0,.355.224.963-.57.751q-8.919.026-17.837.045c-.081,0-.162-.113-.242-.173-.034-.45-.1-.9-.1-1.349q-.018-22.548-.024-45.1l-1.017-1.117-.25-.012-9.827-.015-.421-.246q-.02-3.824-.04-7.648c-.008-1.889-.265-2.156-2.132-2.156q-10.449,0-20.9,0c-2.777,0-5.554-.033-8.331-.05H8.9l-.189-.225q0-10.522,0-21.044ZM40.525,37.776l.191-.186h8.36V82.3H40.49c0-1.141-.041-2.206.019-3.265a3.027,3.027,0,0,1,.409-1.353,10.011,10.011,0,0,1,4.25-3.981,1.672,1.672,0,0,0,1.081-1.681c-.016-8.048.007-16.1-.05-24.145a2.469,2.469,0,0,0-.907-1.507c-1.126-1-2.438-1.8-3.491-2.857a4.969,4.969,0,0,1-1.26-2.427,16.7,16.7,0,0,1-.018-3.307M37.52,82.295H3.027V27.5H37.52ZM70.739,48.934c-1.559-.524-3.094-1.037-4.627-1.557-.645-.219-.782-.526-.518-1.252q2.383-6.566,4.608-13.188c.222-.658.563-.773,1.077-.6,1.569.527,3.122,1.1,4.673,1.652L70.739,48.934m-8.364,6.319c1.715.614,3.392,1.2,5.045,1.838.152.059.28.549.206.767q-1.177,3.495-2.449,6.957a.8.8,0,0,1-.669.393c-1.651-.56-3.281-1.18-4.957-1.8l2.824-8.157M76.918,31.2c-1.652-.538-3.285-1.039-4.885-1.631-.193-.071-.352-.673-.274-.961a22.19,22.19,0,0,1,1.094-3.265c.168-.379.791-.864,1.124-.807a18.764,18.764,0,0,1,3.735,1.008,1.165,1.165,0,0,1,.58,1.694c-.518,1.229-.884,2.521-1.374,3.962M40.492,73.411c0-2.335-.011-4.453.019-6.57a.793.793,0,0,1,.424-.526c.761-.37,1.547-.69,2.466-1.091,0,1.449-.1,2.815.028,4.158a2.624,2.624,0,0,1-1.436,2.956,13.839,13.839,0,0,0-1.5,1.073m.063-10.3v-7.6c1.219-.1,2.688,1.611,2.914,3.315.231,1.736-1.373,4.318-2.914,4.284M68.8,54.438,63.333,52.53,64.388,49.8l5.372,1.962L68.8,54.438m-9.772,18.28c0-1.923.019-3.589-.008-5.255-.014-.833.412-1,1.08-.778,1.1.367,2.192.781,3.386,1.211-1.149,1.5-2.214,2.935-3.336,4.32-.2.247-.644.3-1.122.5M43.242,53.142,40.6,52.1V46.6l2.643,1.872Z" transform="translate(-0.001 0)" fill="#010101"/>
    <path id="Trazado_274718" data-name="Trazado 274718" d="M44.1,92.008l.184.2-.184-.2" transform="translate(29.626 -70.949)" fill="#ccc"/>
    <path id="Trazado_274719" data-name="Trazado 274719" d="M100.47,44.374l1.017,1.117a5.745,5.745,0,0,1,.328,1.338q.026,21.971.013,43.943c0,.381-.03.761-.045,1.142a7.618,7.618,0,0,1,1.225-.2q8.341-.014,16.681,0a7.9,7.9,0,0,0,.216-1.3q.021-9.916,0-19.832c0-.644-.078-1.287-.12-1.93-.957,2.706-1.78,5.47-2.923,8.094a23.568,23.568,0,0,1-2.781,4.158c-.924,1.274-1.879,2.531-2.906,3.722a14.041,14.041,0,0,1-1.572,1.133,8.566,8.566,0,0,0-.75,1.018c-.372.438-.719,1.053-1.2,1.2a1.7,1.7,0,0,1-1.426-.55,1.826,1.826,0,0,1-.136-1.443c.231-.82.568-1.554-.359-2.185-.18-.123-.233-.536-.228-.813.056-3.031-.072-6.086.283-9.083a27.9,27.9,0,0,1,1.8-5.642q3.28-9.416,6.589-18.822,2.735-7.791,5.487-15.576c.122-.345.306-.668.461-1a9.869,9.869,0,0,1-.211-1.442q-.024-9.353-.014-18.706c-.34-.022-.68-.063-1.02-.063q-29.647,0-59.293,0c-.34,0-.68.042-1.02.065l-.225.25-.195.008V34.02q.1.007.2.008l.218.217c2.777.017,5.554.047,8.331.05q10.449.011,20.9,0c1.868,0,2.125.268,2.133,2.156q.015,3.824.04,7.648l.421.246,9.827.015.25.012m6.807,18.71-.188.211h-2.6V57.472h2.792Zm-2.666-47.363c7.2-.411,12.574,6.3,12.841,11.993.384,8.186-6.45,13.688-12.058,13.86-8.577.263-13.954-6.09-13.983-12.94a12.609,12.609,0,0,1,13.2-12.913m-40.777,7a13.059,13.059,0,0,0-.011-1.608c-.131-1.022.281-1.306,1.28-1.283,2.705.063,5.413.022,8.12.022h2.193v2.87Zm11.613,5.81c-3.634,0-7.174-.013-10.714.011-.716,0-.958-.285-.9-.956a4.64,4.64,0,0,1,.033-1.133c.115-.318.453-.788.7-.792,3.609-.051,7.22-.035,10.887-.035Zm5.907-.081h-2.8V25.588c3.545-.106,2.84-.131,2.88,2.759,0,.028-.043.057-.084.107M107.3,54.5h-2.719V51.726H107.3Zm-2.788-5.9V46h2.767c.174,3.033-.575,3.7-2.767,2.6m-26-28.532h2.881c.209,3,.052,3.138-2.881,2.61Z" transform="translate(-49.442 -9.756)" fill="#ebebeb"/>
    <path id="Trazado_274720" data-name="Trazado 274720" d="M237.588,120.134H203.1v54.8h34.493Zm-17.157,51.951q-6.292,0-12.585,0c-1.354,0-1.967-.528-1.969-1.776q-.021-12.642,0-25.284a1.59,1.59,0,0,1,1.825-1.8q12.7-.015,25.4,0c1.23,0,1.689.427,1.691,1.617q.02,12.813,0,25.627c0,1.2-.458,1.617-1.661,1.619q-6.35.009-12.7,0m.005-31.8q-6.288,0-12.575,0c-1.485,0-1.98-.48-1.988-1.971q-.021-3.773,0-7.545c.007-1.421.577-1.992,1.991-1.992q12.518-.007,25.036,0c1.5,0,1.887.379,1.9,1.868q.021,3.887,0,7.774c-.008,1.488-.4,1.865-1.9,1.867q-6.23.008-12.461,0M216,125.784h-9.933v-2.759H216Zm17.646-2.693c-.207,1.091-.154,2.172-.648,2.859a2.3,2.3,0,0,1-2.165-.047,7.553,7.553,0,0,1-.447-2.812h3.261Zm-5.944.052c.068,3.422.263,2.879-1.962,2.911-1.116.016-1.174-.213-.888-2.911Zm-8.625.031h2.647V126h-2.647Z" transform="translate(-200.069 -92.637)" fill="#fe9301"/>
    <path id="Trazado_274721" data-name="Trazado 274721" d="M152.688,164.414a16.678,16.678,0,0,0,.018,3.307,4.969,4.969,0,0,0,1.26,2.427c1.053,1.061,2.365,1.86,3.491,2.857a2.469,2.469,0,0,1,.907,1.507c.057,8.048.033,16.1.05,24.145a1.672,1.672,0,0,1-1.081,1.681,10.01,10.01,0,0,0-4.25,3.981,3.028,3.028,0,0,0-.409,1.353c-.059,1.059-.019,2.124-.019,3.265h8.586V164.228h-8.36l-.191.186" transform="translate(-112.164 -126.638)" fill="#6a9876"/>
    <path id="Trazado_274722" data-name="Trazado 274722" d="M40.458,157.635l5.213-14.945c-1.551-.552-3.1-1.125-4.673-1.651-.514-.173-.855-.058-1.078.6q-2.235,6.617-4.608,13.188c-.264.726-.127,1.034.518,1.252,1.534.519,3.069,1.033,4.627,1.557" transform="translate(30.28 -108.701)" fill="#ccc"/>
    <path id="Trazado_274723" data-name="Trazado 274723" d="M74.292,241.4l-2.824,8.157c1.676.617,3.306,1.237,4.957,1.8a.8.8,0,0,0,.669-.393Q78.367,247.5,79.543,244c.073-.218-.054-.708-.206-.767-1.653-.642-3.33-1.224-5.044-1.838" transform="translate(-11.917 -186.145)" fill="#4197d0"/>
    <path id="Trazado_274724" data-name="Trazado 274724" d="M29.5,113.85c.491-1.441.856-2.734,1.374-3.963a1.165,1.165,0,0,0-.58-1.694,18.8,18.8,0,0,0-3.735-1.008c-.333-.056-.956.428-1.124.807a22.183,22.183,0,0,0-1.094,3.265c-.077.288.081.889.274.961,1.6.592,3.233,1.093,4.885,1.631" transform="translate(47.417 -82.649)" fill="#4197d0"/>
    <path id="Trazado_274725" data-name="Trazado 274725" d="M177.16,293.149a13.832,13.832,0,0,1,1.5-1.073,2.625,2.625,0,0,0,1.437-2.956c-.129-1.343-.028-2.709-.028-4.158-.92.4-1.705.721-2.466,1.091a.793.793,0,0,0-.424.526c-.03,2.117-.019,4.235-.019,6.57" transform="translate(-136.669 -219.738)" fill="#8ac79b"/>
    <path id="Trazado_274726" data-name="Trazado 274726" d="M177.006,250.117c1.541.035,3.145-2.548,2.914-4.284-.227-1.7-1.695-3.414-2.914-3.315Z" transform="translate(-136.452 -187.006)" fill="#6a9876"/>
    <path id="Trazado_274727" data-name="Trazado 274727" d="M67.7,222.21l.963-2.678-5.372-1.962L62.237,220.3,67.7,222.21" transform="translate(1.095 -167.772)" fill="#ccc"/>
    <path id="Trazado_274728" data-name="Trazado 274728" d="M89.667,297.076c.478-.2.921-.255,1.122-.5,1.123-1.386,2.187-2.819,3.336-4.32-1.193-.43-2.282-.844-3.386-1.211-.669-.222-1.094-.055-1.081.778.027,1.666.008,3.333.008,5.255" transform="translate(-30.642 -224.357)" fill="#ccc"/>
    <path id="Trazado_274729" data-name="Trazado 274729" d="M180.739,210.151v-4.665l-2.643-1.872v5.494l2.643,1.043" transform="translate(-137.498 -157.009)" fill="#8ac79b"/>
    <path id="Trazado_274730" data-name="Trazado 274730" d="M138.432,202.55c.016-.381.046-.761.046-1.142q0-21.972-.012-43.944a5.754,5.754,0,0,0-.328-1.338q.01,22.548.023,45.1c0,.45.064.9.1,1.349q.087-.008.174-.021" transform="translate(-86.093 -120.392)" fill="#fff"/>
    <path id="Trazado_274731" data-name="Trazado 274731" d="M57.6,254.858c.042.643.119,1.287.12,1.93q.013,9.916,0,19.832a7.891,7.891,0,0,1-.216,1.3q0,.172,0,.345c.794.212.567-.4.57-.751.016-1.907.008-3.814.008-5.721q0-8.811,0-17.621l-.335-.049-.146.736" transform="translate(12.743 -195.957)" fill="#fff"/>
    <path id="Trazado_274732" data-name="Trazado 274732" d="M57.588,12.936q0,9.353.014,18.706a9.9,9.9,0,0,0,.211,1.442,7.68,7.68,0,0,0,.125-.983q.011-9.106-.01-18.211a3.094,3.094,0,0,0-.341-.953" transform="translate(12.88 -9.975)" fill="#fff"/>
    <path id="Trazado_274733" data-name="Trazado 274733" d="M78.189,358.414q0-.172,0-.345-8.341-.006-16.681,0a7.647,7.647,0,0,0-1.225.2q-.087.013-.174.021c.081.06.162.173.242.173q8.919-.014,17.837-.045" transform="translate(-7.944 -276.106)" fill="#f8fafb"/>
    <path id="Trazado_274734" data-name="Trazado 274734" d="M57.159,252.039l.334.049.1-.607-.191-.06Z" transform="translate(13.333 -193.874)" fill="#7c7d7e"/>
    <path id="Trazado_274735" data-name="Trazado 274735" d="M188.528,150.3l-.421-.246.421.246" transform="translate(-147.578 -115.711)" fill="#fff"/>
    <path id="Trazado_274736" data-name="Trazado 274736" d="M144.327,151.208l-.25-.012.25.012" transform="translate(-93.3 -116.589)" fill="#fff"/>
    <path id="Trazado_274737" data-name="Trazado 274737" d="M328.282,106.017q-.1,0-.2-.008l.189.225a.694.694,0,0,1,.006-.217" transform="translate(-319.372 -81.745)" fill="#ccc"/>
    <path id="Trazado_274738" data-name="Trazado 274738" d="M327.149,106.043a.693.693,0,0,0-.006.217h.224l-.217-.217" transform="translate(-318.239 -81.771)" fill="#fff"/>
    <path id="Trazado_274739" data-name="Trazado 274739" d="M328.09,13.2l.194-.008q-.009-.125-.017-.249Z" transform="translate(-319.375 -9.983)" fill="#ccc"/>
    <path id="Trazado_274740" data-name="Trazado 274740" d="M327.105,12.944q.008.125.017.249l.225-.25h-.242" transform="translate(-318.212 -9.981)" fill="#fff"/>
    <path id="Trazado_274741" data-name="Trazado 274741" d="M189.132,164.414l.191-.186-.191.186" transform="translate(-148.608 -126.638)" fill="#5e8668"/>
    <path id="Trazado_274742" data-name="Trazado 274742" d="M83.016,26.005a12.609,12.609,0,0,0-13.2,12.913c.03,6.849,5.407,13.2,13.983,12.94,5.608-.172,12.442-5.675,12.058-13.86-.267-5.691-5.641-12.4-12.841-11.993M93.057,38.815c-.3,5.808-4.649,10.4-10.426,10.2a9.937,9.937,0,0,1-9.877-10.344A9.746,9.746,0,0,1,82.787,28.79c6.109-.056,9.947,4.495,10.269,10.025" transform="translate(-27.847 -20.039)" fill="#010101"/>
    <path id="Trazado_274743" data-name="Trazado 274743" d="M253.57,46.916h11.582v-2.87H262.96c-2.707,0-5.415.042-8.12-.022-1-.024-1.412.261-1.28,1.283a13.008,13.008,0,0,1,.011,1.608" transform="translate(-239.178 -33.947)"/>
    <path id="Trazado_274744" data-name="Trazado 274744" d="M265.041,72.249v-2.9c-3.668,0-7.278-.016-10.887.035-.245,0-.583.474-.7.792a4.651,4.651,0,0,0-.034,1.133c-.054.671.189.961.9.956,3.54-.024,7.08-.011,10.714-.011" transform="translate(-239.036 -53.47)" fill="#010101"/>
    <path id="Trazado_274745" data-name="Trazado 274745" d="M117.129,214.084v-5.613h-2.792V214.3h2.6l.188-.212" transform="translate(-59.294 -160.755)" fill="#010101"/>
    <path id="Trazado_274746" data-name="Trazado 274746" d="M229.879,71.924c.041-.05.085-.079.084-.107-.04-2.889.665-2.865-2.88-2.759v2.865Z" transform="translate(-197.967 -53.227)" fill="#010101"/>
    <rect id="Rectángulo_323385" data-name="Rectángulo 323385" width="2.719" height="2.772" transform="translate(55.136 41.971)" fill="#010101"/>
    <path id="Trazado_274747" data-name="Trazado 274747" d="M114.231,160.944c2.193,1.095,2.942.431,2.767-2.6h-2.767Z" transform="translate(-59.163 -122.1)" fill="#010101"/>
    <path id="Trazado_274748" data-name="Trazado 274748" d="M227.147,45.056v2.61c2.933.528,3.09.391,2.881-2.61h-2.881Z" transform="translate(-198.077 -34.743)" fill="#010101"/>
    <path id="Trazado_274749" data-name="Trazado 274749" d="M114.525,232.992l-.188.212.188-.212" transform="translate(-56.69 -179.663)" fill="#3a3b3b"/>
    <path id="Trazado_274750" data-name="Trazado 274750" d="M229.836,249.836q6.35,0,12.7,0c1.2,0,1.659-.415,1.661-1.619q.02-12.814,0-25.627c0-1.19-.46-1.616-1.691-1.617q-12.7-.014-25.4,0a1.59,1.59,0,0,0-1.825,1.8q-.018,12.642,0,25.284c0,1.249.615,1.774,1.969,1.776q6.292.01,12.585,0m-11.489-11.928v-5.015c-.047-.048-.143-.123-.134-.14.048-.087.122-.226.188-.226,1.812-.012,3.624-.01,5.48-.01V238.3c-1.818,0-3.593,0-5.368-.017-.057,0-.111-.246-.167-.377m8.538.012v-5.039c.095-.127.188-.363.284-.364,1.78-.022,3.56-.016,5.337-.016v5.8c-1.764,0-3.437.011-5.108-.017-.173,0-.342-.24-.512-.369m0-13.737c.048-.09.1-.259.144-.26,1.836-.013,3.672-.011,5.5-.011v5.723c-1.808,0-3.547.008-5.285-.018-.121,0-.238-.258-.357-.4q0-2.52,0-5.04m-8.493,0c.114-.107.228-.306.344-.307,1.7-.02,3.4-.014,5.193-.014,0,1.624,0,3.136,0,4.647a5.031,5.031,0,0,1-.024.8c-.017.107-.171.192-.263.286h-5.248Zm17.177,0h5.667v5.4h-5.667Zm0,17.031h5.667v5.4h-5.667Zm-17.2.01.921-.013h13.218v5.734c-4.574,0-9.061,0-13.549-.014-.191,0-.381-.205-.572-.315q-.013-2.5-.026-5.009,0-.191.007-.382m22.853-2.988h-5.645v-5.69h5.645Z" transform="translate(-209.474 -170.388)"/>
    <path id="Trazado_274751" data-name="Trazado 274751" d="M229.827,169.4q6.23,0,12.461,0c1.5,0,1.89-.379,1.9-1.867q.021-3.887,0-7.774c-.008-1.489-.4-1.868-1.9-1.868q-12.518-.005-25.036,0c-1.413,0-1.984.571-1.991,1.992q-.018,3.773,0,7.545c.008,1.491.5,1.97,1.988,1.971q6.287,0,12.575,0m-11.567-8.6H241.22v5.7H218.26Z" transform="translate(-209.46 -121.748)"/>
    <rect id="Rectángulo_323386" data-name="Rectángulo 323386" width="9.933" height="2.759" transform="translate(6.002 30.388)"/>
    <path id="Trazado_274752" data-name="Trazado 274752" d="M223.559,133.053H220.3a7.553,7.553,0,0,0,.447,2.812,2.3,2.3,0,0,0,2.165.047c.495-.686.441-1.767.648-2.859" transform="translate(-189.977 -102.599)"/>
    <path id="Trazado_274753" data-name="Trazado 274753" d="M249.1,133.279h-2.85c-.286,2.7-.228,2.927.888,2.911,2.225-.032,2.029.511,1.962-2.911" transform="translate(-221.466 -102.773)"/>
    <rect id="Rectángulo_323387" data-name="Rectángulo 323387" width="2.647" height="2.827" transform="translate(19.013 30.537)" fill="#010101"/>
    <path id="Trazado_274754" data-name="Trazado 274754" d="M102.42,48.255c-.322-5.53-4.16-10.081-10.269-10.025a9.746,9.746,0,0,0-10.033,9.878,9.938,9.938,0,0,0,9.877,10.345c5.777.207,10.123-4.39,10.426-10.2m-9.029-8.429c.364.642.5,1.26.881,1.487a4.1,4.1,0,0,1,2.2,4.191,3.987,3.987,0,0,1-2.341,3.442c-.863.426-1.71.883-2.567,1.321a1.166,1.166,0,0,0-.629,1.752,1.307,1.307,0,0,0,1.875.675,4.27,4.27,0,0,0,1.218-.988,1.383,1.383,0,0,1,1.935-.231,1.328,1.328,0,0,1,.283,1.91,6.628,6.628,0,0,1-1.111,1.261c-.584.554-1.6.742-1.472,1.888.013.112-.437.38-.686.4-.712.055-1.431.019-2.247.019.218-1.052-.289-1.543-1.028-2.129-2.787-2.209-2.334-5.669.856-7.261a12.478,12.478,0,0,0,2.262-1.185,2.237,2.237,0,0,0,.819-1.568c-.025-.637-.633-.913-1.4-.943a2.19,2.19,0,0,0-1.823.949c-.564.624-1.074,1-1.89.271A1.477,1.477,0,0,1,88.26,43a4.564,4.564,0,0,1,1.39-1.288c.7-.457,1.364-.875,1.115-1.883Z" transform="translate(-37.21 -29.479)" fill="#fcb52f"/>
    <path id="Trazado_274755" data-name="Trazado 274755" d="M266.974,309.823q.013,2.5.026,5.009c4.3,0,8.606-.016,12.909.014.783.005,1.105-.216,1.049-1.031a15.977,15.977,0,0,1,0-2.625c.105-1.075-.23-1.444-1.363-1.421-3.54.073-7.082.037-10.624.011a3.739,3.739,0,0,1-1.074-.353l-.921.013q0,.191-.007.382" transform="translate(-258.083 -238.603)" fill="#fdb62f"/>
    <rect id="Rectángulo_323388" data-name="Rectángulo 323388" width="5.645" height="5.69" transform="translate(26.107 62.16)" fill="#fdb62f"/>
    <path id="Trazado_274756" data-name="Trazado 274756" d="M233.915,314.844v-5.4h-5.667v5.4h5.667" transform="translate(-202.153 -238.615)" fill="#fdb62f"/>
    <path id="Trazado_274757" data-name="Trazado 274757" d="M228.248,235.037v5.4h5.667v-5.4h-5.667" transform="translate(-202.153 -181.24)" fill="#fdb62f"/>
    <path id="Trazado_274758" data-name="Trazado 274758" d="M305.03,234.952v5.408h5.248c0-1.4-.05-2.8.017-4.194.044-.914-.2-1.291-1.185-1.233-1.356.079-2.72.02-4.081.019" transform="translate(-296.113 -181.155)" fill="#fdb62f"/>
    <path id="Trazado_274759" data-name="Trazado 274759" d="M267.053,234.979q0,2.52,0,5.04c1.481,0,2.963-.042,4.442.013.818.03,1.064-.276,1.022-1.054a27.638,27.638,0,0,1,0-2.96c.042-.78-.207-1.083-1.023-1.053-1.479.055-2.961.015-4.442.014" transform="translate(-249.643 -181.183)" fill="#fdb62f"/>
    <path id="Trazado_274760" data-name="Trazado 274760" d="M267.053,272.978v5.039c1.481,0,2.963-.041,4.442.014.817.03,1.065-.274,1.023-1.053a27.651,27.651,0,0,1,0-2.96c.042-.78-.206-1.084-1.023-1.053-1.479.055-2.961.014-4.442.014" transform="translate(-249.643 -210.485)" fill="#fdb62f"/>
    <path id="Trazado_274761" data-name="Trazado 274761" d="M305.063,273v5.015c1.445,0,2.891-.026,4.334.024.759.026,1-.256.97-.992-.048-1.025-.048-2.055,0-3.079.035-.736-.21-1.018-.97-.992-1.443.05-2.889.02-4.334.024" transform="translate(-296.19 -210.494)" fill="#fdb62f"/>
    <path id="Trazado_274762" data-name="Trazado 274762" d="M267.264,309.427a3.741,3.741,0,0,0,1.074.353c3.541.027,7.084.062,10.624-.011,1.133-.023,1.468.346,1.363,1.421a15.954,15.954,0,0,0,0,2.625c.055.816-.266,1.037-1.05,1.031-4.3-.03-8.606-.014-12.909-.014.19.11.381.314.572.315,4.488.018,8.975.014,13.549.014v-5.734Z" transform="translate(-257.444 -238.603)" fill="#ffc432"/>
    <path id="Trazado_274763" data-name="Trazado 274763" d="M266.392,271.748c1.481,0,2.963.041,4.442-.014.817-.03,1.065.274,1.023,1.053a27.651,27.651,0,0,0,0,2.96c.042.78-.206,1.084-1.023,1.053-1.479-.055-2.961-.014-4.442-.014.171.128.34.366.512.369,1.672.028,3.344.017,5.108.017v-5.8c-1.777,0-3.557-.006-5.337.016-.1,0-.19.237-.284.364" transform="translate(-248.981 -209.255)" fill="#ffc432"/>
    <path id="Trazado_274764" data-name="Trazado 274764" d="M304.2,271.817c1.445,0,2.891.026,4.334-.024.759-.026,1,.256.97.992-.048,1.024-.048,2.054,0,3.079.035.736-.21,1.018-.97.992-1.443-.05-2.889-.02-4.334-.024.055.131.11.377.167.378,1.775.02,3.549.016,5.368.016v-5.785c-1.856,0-3.668,0-5.48.01-.066,0-.141.139-.188.226-.009.017.087.092.134.14" transform="translate(-295.331 -209.312)" fill="#ffc432"/>
    <path id="Trazado_274765" data-name="Trazado 274765" d="M266.293,234.12c1.481,0,2.963.041,4.442-.014.816-.03,1.065.273,1.023,1.053a27.638,27.638,0,0,0,0,2.96c.042.778-.2,1.085-1.022,1.054-1.479-.055-2.961-.014-4.442-.014.119.138.236.393.358.4,1.738.026,3.477.018,5.285.018v-5.724c-1.827,0-3.664,0-5.5.011-.049,0-.1.169-.144.26" transform="translate(-248.882 -180.324)" fill="#ffc432"/>
    <path id="Trazado_274766" data-name="Trazado 274766" d="M303.853,233.952c1.361,0,2.725.06,4.081-.019.981-.057,1.228.32,1.185,1.233-.067,1.4-.017,2.8-.017,4.194.092-.095.246-.179.263-.286a5.065,5.065,0,0,0,.024-.8c0-1.512,0-3.023,0-4.647-1.8,0-3.495-.006-5.193.014-.116,0-.229.2-.344.307" transform="translate(-294.935 -180.155)" fill="#ffc432"/>
    <path id="Trazado_274767" data-name="Trazado 274767" d="M228.248,235.037h0" transform="translate(-202.153 -181.24)" fill="#ffc432"/>
    <path id="Trazado_274768" data-name="Trazado 274768" d="M233.915,333.042h0" transform="translate(-202.153 -256.813)" fill="#ffc432"/>
    <path id="Trazado_274769" data-name="Trazado 274769" d="M328.137,309.867q0-.191.007-.382,0,.191-.007.382" transform="translate(-319.246 -238.648)" fill="#ffc432"/>
    <rect id="Rectángulo_323389" data-name="Rectángulo 323389" width="22.959" height="5.696" transform="translate(8.8 39.054)" fill="#bef5fa"/>
    <path id="Trazado_274770" data-name="Trazado 274770" d="M113.393,45.2h-2.626c.249,1.008-.41,1.426-1.115,1.883a4.564,4.564,0,0,0-1.39,1.288,1.477,1.477,0,0,0,.27,2.09c.816.732,1.326.353,1.89-.271a2.19,2.19,0,0,1,1.823-.949c.767.03,1.374.306,1.4.943a2.237,2.237,0,0,1-.819,1.568,12.478,12.478,0,0,1-2.262,1.185c-3.19,1.592-3.643,5.052-.856,7.261.739.586,1.246,1.077,1.028,2.129.816,0,1.535.036,2.247-.019.249-.019.7-.287.686-.4-.131-1.146.888-1.334,1.472-1.888a6.628,6.628,0,0,0,1.111-1.261,1.328,1.328,0,0,0-.283-1.91,1.383,1.383,0,0,0-1.935.231,4.27,4.27,0,0,1-1.218.988,1.307,1.307,0,0,1-1.875-.675,1.166,1.166,0,0,1,.629-1.752c.857-.438,1.7-.895,2.567-1.321a3.987,3.987,0,0,0,2.341-3.442,4.1,4.1,0,0,0-2.2-4.191c-.377-.227-.517-.846-.881-1.487" transform="translate(-57.212 -34.857)" fill="#010101"/>
  </g>
</svg>
