<svg id="Grupo_257154" data-name="Grupo 257154" xmlns="http://www.w3.org/2000/svg" xmlns:xlink="http://www.w3.org/1999/xlink" width="1033.37" height="480.747" viewBox="0 0 1033.37 480.747">
  <defs>
    <clipPath id="clip-path">
      <rect id="Rectángulo_323414" data-name="Rectángulo 323414" width="1033.37" height="480.747" fill="none"/>
    </clipPath>
    <clipPath id="clip-path-2">
      <rect id="Rectángulo_323397" data-name="Rectángulo 323397" width="1033.373" height="480.747" fill="none"/>
    </clipPath>
    <clipPath id="clip-path-3">
      <rect id="Rectángulo_323396" data-name="Rectángulo 323396" width="459.575" height="66.038" transform="translate(286.154)" fill="#3b5620"/>
    </clipPath>
    <clipPath id="clip-path-5">
      <rect id="Rectángulo_323398" data-name="Rectángulo 323398" width="153.663" height="153.663" transform="translate(77.727 261.292)" fill="#fffad0"/>
    </clipPath>
    <clipPath id="clip-path-7">
      <rect id="Rectángulo_323400" data-name="Rectángulo 323400" width="153.663" height="153.663" transform="translate(343.887 261.292)" fill="#fffad0"/>
    </clipPath>
    <clipPath id="clip-path-9">
      <rect id="Rectángulo_323402" data-name="Rectángulo 323402" width="227.387" height="90.747" transform="translate(4.422 144.991)" fill="#dbf9bd"/>
    </clipPath>
    <clipPath id="clip-path-11">
      <rect id="Rectángulo_323404" data-name="Rectángulo 323404" width="227.387" height="90.747" transform="translate(271.043 144.991)" fill="#dbf9bd"/>
    </clipPath>
    <clipPath id="clip-path-13">
      <rect id="Rectángulo_323406" data-name="Rectángulo 323406" width="227.387" height="90.747" transform="translate(537.664 144.991)" fill="#dbf9bd"/>
    </clipPath>
    <clipPath id="clip-path-15">
      <rect id="Rectángulo_323408" data-name="Rectángulo 323408" width="227.386" height="90.747" transform="translate(804.284 144.991)" fill="#dbf9bd"/>
    </clipPath>
    <clipPath id="clip-path-17">
      <rect id="Rectángulo_323410" data-name="Rectángulo 323410" width="153.663" height="153.663" transform="translate(611.047 261.292)" fill="#fffad0"/>
    </clipPath>
    <clipPath id="clip-path-19">
      <rect id="Rectángulo_323412" data-name="Rectángulo 323412" width="153.662" height="153.663" transform="translate(879.208 261.292)" fill="#fffad0"/>
    </clipPath>
  </defs>
  <g id="Grupo_257153" data-name="Grupo 257153" clip-path="url(#clip-path)">
    <g id="Grupo_257112" data-name="Grupo 257112">
      <g id="Grupo_257111" data-name="Grupo 257111" clip-path="url(#clip-path-2)">
        <g id="Grupo_257110" data-name="Grupo 257110" style="isolation: isolate">
          <g id="Grupo_257109" data-name="Grupo 257109">
            <g id="Grupo_257108" data-name="Grupo 257108" clip-path="url(#clip-path-3)">
              <path id="Trazado_274784" data-name="Trazado 274784" d="M730.729,66.038H301.155a15,15,0,0,1-15-15V15a15,15,0,0,1,15-15H730.729a15,15,0,0,1,15,15V51.038a15,15,0,0,1-15,15" fill="#3b5620"/>
            </g>
          </g>
        </g>
      </g>
    </g>
    <line id="Línea_844" data-name="Línea 844" y2="38.142" transform="translate(652.875 106.59)" fill="none" stroke="#1b3f5e" stroke-miterlimit="10" stroke-width="4"/>
    <line id="Línea_845" data-name="Línea 845" y2="38.142" transform="translate(514.633 66.462)" fill="none" stroke="#1b3f5e" stroke-miterlimit="10" stroke-width="4"/>
    <line id="Línea_846" data-name="Línea 846" y2="37.385" transform="translate(385.026 107.576)" fill="none" stroke="#1b3f5e" stroke-miterlimit="10" stroke-width="4"/>
    <line id="Línea_847" data-name="Línea 847" y2="37.385" transform="translate(117.866 107.576)" fill="none" stroke="#1b3f5e" stroke-miterlimit="10" stroke-width="4"/>
    <line id="Línea_848" data-name="Línea 848" y2="37.902" transform="translate(919.201 106.83)" fill="none" stroke="#1b3f5e" stroke-miterlimit="10" stroke-width="4"/>
    <g id="Grupo_257117" data-name="Grupo 257117">
      <g id="Grupo_257116" data-name="Grupo 257116" clip-path="url(#clip-path-2)">
        <g id="Grupo_257115" data-name="Grupo 257115" style="isolation: isolate">
          <g id="Grupo_257114" data-name="Grupo 257114">
            <g id="Grupo_257113" data-name="Grupo 257113" clip-path="url(#clip-path-5)">
              <path id="Trazado_274785" data-name="Trazado 274785" d="M213.749,414.955H95.368a17.641,17.641,0,0,1-17.641-17.641V278.933a17.641,17.641,0,0,1,17.641-17.641H213.749a17.641,17.641,0,0,1,17.641,17.641V397.314a17.641,17.641,0,0,1-17.641,17.641" fill="#fffad0"/>
            </g>
          </g>
        </g>
      </g>
    </g>
    <path id="Trazado_815667" data-name="Trazado 815667" d="M2.763-4.362V0H1.293V-11.143H5.4a4.129,4.129,0,0,1,2.866.934A3.165,3.165,0,0,1,9.306-7.737a3.123,3.123,0,0,1-1.014,2.5,4.313,4.313,0,0,1-2.9.876Zm0-1.2H5.4A2.64,2.64,0,0,0,7.209-6.12a2.032,2.032,0,0,0,.628-1.606A2.1,2.1,0,0,0,7.209-9.32a2.473,2.473,0,0,0-1.722-.621H2.763Zm12.2-1.446a4.243,4.243,0,0,0-.7-.054,1.866,1.866,0,0,0-1.89,1.186V0H10.959V-8.281h1.378l.023.957a2.2,2.2,0,0,1,1.975-1.11,1.446,1.446,0,0,1,.628.107ZM19.413.153a3.618,3.618,0,0,1-2.74-1.106,4.1,4.1,0,0,1-1.056-2.958v-.26a4.969,4.969,0,0,1,.471-2.2A3.672,3.672,0,0,1,17.4-7.887a3.31,3.31,0,0,1,1.833-.547,3.1,3.1,0,0,1,2.51,1.064,4.606,4.606,0,0,1,.9,3.046v.589h-5.61a2.943,2.943,0,0,0,.716,1.978A2.249,2.249,0,0,0,19.489-1a2.466,2.466,0,0,0,1.27-.306,3.192,3.192,0,0,0,.911-.811l.865.673A3.477,3.477,0,0,1,19.413.153ZM19.237-7.27a1.889,1.889,0,0,0-1.439.624A3.032,3.032,0,0,0,17.078-4.9h4.148v-.107a2.7,2.7,0,0,0-.582-1.672A1.778,1.778,0,0,0,19.237-7.27ZM27.6-1a2.039,2.039,0,0,0,1.324-.459,1.616,1.616,0,0,0,.628-1.148h1.339a2.567,2.567,0,0,1-.49,1.355A3.226,3.226,0,0,1,29.2-.23a3.478,3.478,0,0,1-1.6.383,3.411,3.411,0,0,1-2.69-1.129,4.5,4.5,0,0,1-1-3.088V-4.3a4.985,4.985,0,0,1,.444-2.151,3.381,3.381,0,0,1,1.274-1.462,3.62,3.62,0,0,1,1.963-.52,3.321,3.321,0,0,1,2.315.834,2.981,2.981,0,0,1,.983,2.166H29.553a1.951,1.951,0,0,0-.608-1.32,1.893,1.893,0,0,0-1.351-.517,1.982,1.982,0,0,0-1.672.777,3.648,3.648,0,0,0-.593,2.246v.268a3.575,3.575,0,0,0,.589,2.2A1.991,1.991,0,0,0,27.6-1Zm6.421,1H32.607V-8.281h1.416ZM32.492-10.477a.845.845,0,0,1,.21-.582.79.79,0,0,1,.624-.237.8.8,0,0,1,.628.237.836.836,0,0,1,.214.582.809.809,0,0,1-.214.574.817.817,0,0,1-.628.23A.8.8,0,0,1,32.7-9.9.817.817,0,0,1,32.492-10.477Zm3.421,6.26a4.891,4.891,0,0,1,.478-2.189,3.568,3.568,0,0,1,1.332-1.5,3.625,3.625,0,0,1,1.948-.528,3.492,3.492,0,0,1,2.736,1.171,4.5,4.5,0,0,1,1.045,3.115v.1a4.934,4.934,0,0,1-.463,2.17,3.516,3.516,0,0,1-1.324,1.5,3.667,3.667,0,0,1-1.978.536,3.483,3.483,0,0,1-2.728-1.171,4.482,4.482,0,0,1-1.045-3.1Zm1.423.168a3.543,3.543,0,0,0,.639,2.212A2.045,2.045,0,0,0,39.686-1,2.033,2.033,0,0,0,41.4-1.848a3.874,3.874,0,0,0,.635-2.369,3.536,3.536,0,0,0-.647-2.208A2.056,2.056,0,0,0,39.67-7.27a2.033,2.033,0,0,0-1.691.834A3.845,3.845,0,0,0,37.336-4.049Zm11.426-.161a4.851,4.851,0,0,1,.9-3.065A2.856,2.856,0,0,1,52.03-8.434a2.872,2.872,0,0,1,2.3.995v-4.316H55.75V0h-1.3L54.38-.888A2.883,2.883,0,0,1,52.015.153a2.828,2.828,0,0,1-2.346-1.179A4.906,4.906,0,0,1,48.762-4.1Zm1.416.161a3.673,3.673,0,0,0,.582,2.2,1.88,1.88,0,0,0,1.607.8,2.065,2.065,0,0,0,1.967-1.209v-3.8a2.081,2.081,0,0,0-1.952-1.171,1.889,1.889,0,0,0-1.622.8A4.044,4.044,0,0,0,50.178-4.049Zm11.2,4.2a3.618,3.618,0,0,1-2.74-1.106,4.1,4.1,0,0,1-1.056-2.958v-.26a4.969,4.969,0,0,1,.471-2.2,3.672,3.672,0,0,1,1.316-1.515,3.31,3.31,0,0,1,1.833-.547,3.1,3.1,0,0,1,2.51,1.064,4.606,4.606,0,0,1,.9,3.046v.589H59a2.943,2.943,0,0,0,.716,1.978A2.249,2.249,0,0,0,61.459-1a2.466,2.466,0,0,0,1.27-.306,3.192,3.192,0,0,0,.911-.811l.865.673A3.477,3.477,0,0,1,61.382.153ZM61.206-7.27a1.889,1.889,0,0,0-1.439.624A3.032,3.032,0,0,0,59.048-4.9H63.2v-.107a2.7,2.7,0,0,0-.582-1.672A1.778,1.778,0,0,0,61.206-7.27ZM73.451-1a2.039,2.039,0,0,0,1.324-.459A1.616,1.616,0,0,0,75.4-2.61h1.339a2.568,2.568,0,0,1-.49,1.355A3.226,3.226,0,0,1,75.047-.23a3.478,3.478,0,0,1-1.6.383,3.411,3.411,0,0,1-2.69-1.129,4.5,4.5,0,0,1-1-3.088V-4.3a4.985,4.985,0,0,1,.444-2.151,3.381,3.381,0,0,1,1.274-1.462,3.62,3.62,0,0,1,1.963-.52,3.321,3.321,0,0,1,2.315.834,2.981,2.981,0,0,1,.983,2.166H75.4a1.951,1.951,0,0,0-.608-1.32,1.893,1.893,0,0,0-1.351-.517,1.982,1.982,0,0,0-1.672.777,3.648,3.648,0,0,0-.593,2.246v.268a3.575,3.575,0,0,0,.589,2.2A1.991,1.991,0,0,0,73.451-1Zm4.508-3.214a4.891,4.891,0,0,1,.478-2.189,3.568,3.568,0,0,1,1.332-1.5,3.625,3.625,0,0,1,1.948-.528,3.492,3.492,0,0,1,2.736,1.171A4.5,4.5,0,0,1,85.5-4.148v.1a4.934,4.934,0,0,1-.463,2.17,3.516,3.516,0,0,1-1.324,1.5,3.667,3.667,0,0,1-1.978.536A3.483,3.483,0,0,1,79-1.018a4.482,4.482,0,0,1-1.045-3.1Zm1.423.168a3.543,3.543,0,0,0,.639,2.212A2.045,2.045,0,0,0,81.732-1a2.033,2.033,0,0,0,1.714-.846,3.874,3.874,0,0,0,.635-2.369,3.536,3.536,0,0,0-.647-2.208,2.056,2.056,0,0,0-1.718-.846,2.033,2.033,0,0,0-1.691.834A3.845,3.845,0,0,0,79.383-4.049ZM88.6-8.281l.038.918A3.058,3.058,0,0,1,91.1-8.434,2.367,2.367,0,0,1,93.464-7.1a3.137,3.137,0,0,1,1.075-.964A3.176,3.176,0,0,1,96.1-8.434q2.725,0,2.77,2.885V0H97.459V-5.464a1.9,1.9,0,0,0-.406-1.328,1.786,1.786,0,0,0-1.362-.44,1.877,1.877,0,0,0-1.309.471,1.909,1.909,0,0,0-.6,1.267V0H92.355V-5.426a1.58,1.58,0,0,0-1.768-1.806,1.894,1.894,0,0,0-1.906,1.186V0H87.265V-8.281Zm19.4,4.232A4.958,4.958,0,0,1,107.14-1,2.772,2.772,0,0,1,104.8.153,3.037,3.037,0,0,1,102.426-.8V3.184H101.01V-8.281H102.3l.069.918a2.917,2.917,0,0,1,2.4-1.071,2.824,2.824,0,0,1,2.361,1.125,5.012,5.012,0,0,1,.869,3.13Zm-1.416-.161a3.659,3.659,0,0,0-.6-2.212,1.923,1.923,0,0,0-1.638-.811,2.081,2.081,0,0,0-1.929,1.14v3.957A2.085,2.085,0,0,0,104.37-1a1.914,1.914,0,0,0,1.619-.807A3.994,3.994,0,0,0,106.589-4.209Zm7.217-2.8a4.243,4.243,0,0,0-.7-.054,1.866,1.866,0,0,0-1.89,1.186V0H109.8V-8.281h1.378l.023.957a2.2,2.2,0,0,1,1.975-1.11,1.446,1.446,0,0,1,.628.107ZM119.616,0a2.974,2.974,0,0,1-.2-.872A3.159,3.159,0,0,1,117.06.153a2.923,2.923,0,0,1-2.009-.693,2.241,2.241,0,0,1-.784-1.756A2.341,2.341,0,0,1,115.25-4.3a4.637,4.637,0,0,1,2.767-.716h1.378v-.651a1.59,1.59,0,0,0-.444-1.182,1.784,1.784,0,0,0-1.309-.44,2.065,2.065,0,0,0-1.27.383,1.128,1.128,0,0,0-.513.926h-1.423a1.954,1.954,0,0,1,.44-1.2,3,3,0,0,1,1.194-.915,4.016,4.016,0,0,1,1.657-.337,3.274,3.274,0,0,1,2.242.716,2.581,2.581,0,0,1,.842,1.971v3.811A4.659,4.659,0,0,0,121.1-.122V0Zm-2.35-1.079a2.488,2.488,0,0,0,1.263-.344,2.083,2.083,0,0,0,.865-.9v-1.7h-1.11q-2.6,0-2.6,1.523a1.289,1.289,0,0,0,.444,1.041A1.706,1.706,0,0,0,117.266-1.079Z" transform="translate(96.753 325.199)" fill="#12263f"/>
    <path id="Trazado_815668" data-name="Trazado 815668" d="M4.018-4.156H.283V-5.311H4.018ZM9.5,0V-11.143h3.145a5.064,5.064,0,0,1,2.571.643A4.348,4.348,0,0,1,16.94-8.671a5.954,5.954,0,0,1,.616,2.725v.712a5.974,5.974,0,0,1-.608,2.763A4.28,4.28,0,0,1,15.211-.651,5.386,5.386,0,0,1,12.582,0Zm1.469-9.941V-1.2h1.546a3.364,3.364,0,0,0,2.644-1.057,4.367,4.367,0,0,0,.945-3.01V-5.92a4.436,4.436,0,0,0-.892-2.953,3.173,3.173,0,0,0-2.529-1.069ZM22.99.153A3.618,3.618,0,0,1,20.25-.953a4.1,4.1,0,0,1-1.056-2.958v-.26a4.969,4.969,0,0,1,.471-2.2,3.672,3.672,0,0,1,1.316-1.515,3.31,3.31,0,0,1,1.833-.547,3.1,3.1,0,0,1,2.51,1.064,4.606,4.606,0,0,1,.9,3.046v.589H20.61a2.943,2.943,0,0,0,.716,1.978A2.249,2.249,0,0,0,23.067-1a2.466,2.466,0,0,0,1.27-.306,3.192,3.192,0,0,0,.911-.811l.865.673A3.477,3.477,0,0,1,22.99.153ZM22.814-7.27a1.889,1.889,0,0,0-1.439.624A3.032,3.032,0,0,0,20.656-4.9H24.8v-.107a2.7,2.7,0,0,0-.582-1.672A1.778,1.778,0,0,0,22.814-7.27ZM32.679-2.2a1.042,1.042,0,0,0-.432-.892,4.162,4.162,0,0,0-1.508-.547,7.128,7.128,0,0,1-1.707-.551,2.428,2.428,0,0,1-.934-.765,1.831,1.831,0,0,1-.3-1.056,2.148,2.148,0,0,1,.861-1.722,3.362,3.362,0,0,1,2.2-.7,3.46,3.46,0,0,1,2.284.727,2.309,2.309,0,0,1,.876,1.86H32.595a1.278,1.278,0,0,0-.494-1,1.85,1.85,0,0,0-1.244-.421,1.936,1.936,0,0,0-1.209.337,1.06,1.06,0,0,0-.436.88.859.859,0,0,0,.406.773,4.991,4.991,0,0,0,1.466.5,7.636,7.636,0,0,1,1.718.566,2.506,2.506,0,0,1,.976.792A1.948,1.948,0,0,1,34.095-2.3a2.119,2.119,0,0,1-.888,1.779,3.724,3.724,0,0,1-2.3.67A4.17,4.17,0,0,1,29.143-.2a2.863,2.863,0,0,1-1.2-.983,2.37,2.37,0,0,1-.432-1.366h1.416A1.466,1.466,0,0,0,29.5-1.42,2.212,2.212,0,0,0,30.9-1a2.283,2.283,0,0,0,1.29-.325A1,1,0,0,0,32.679-2.2ZM39.261-1a2.039,2.039,0,0,0,1.324-.459,1.616,1.616,0,0,0,.628-1.148h1.339a2.568,2.568,0,0,1-.49,1.355A3.226,3.226,0,0,1,40.856-.23a3.478,3.478,0,0,1-1.6.383A3.411,3.411,0,0,1,36.57-.976a4.5,4.5,0,0,1-1-3.088V-4.3a4.985,4.985,0,0,1,.444-2.151A3.381,3.381,0,0,1,37.29-7.913a3.62,3.62,0,0,1,1.963-.52,3.321,3.321,0,0,1,2.315.834,2.981,2.981,0,0,1,.983,2.166H41.212a1.951,1.951,0,0,0-.608-1.32,1.893,1.893,0,0,0-1.351-.517,1.982,1.982,0,0,0-1.672.777,3.648,3.648,0,0,0-.593,2.246v.268a3.575,3.575,0,0,0,.589,2.2A1.991,1.991,0,0,0,39.261-1Zm9.995.184a3.007,3.007,0,0,1-2.426.972,2.574,2.574,0,0,1-2.017-.769,3.329,3.329,0,0,1-.7-2.277V-8.281h1.416v5.35q0,1.883,1.531,1.883a2.119,2.119,0,0,0,2.158-1.209V-8.281h1.416V0H49.286ZM56.22.153A3.618,3.618,0,0,1,53.48-.953a4.1,4.1,0,0,1-1.056-2.958v-.26a4.969,4.969,0,0,1,.471-2.2,3.672,3.672,0,0,1,1.316-1.515,3.31,3.31,0,0,1,1.833-.547,3.1,3.1,0,0,1,2.51,1.064,4.606,4.606,0,0,1,.9,3.046v.589H53.84a2.943,2.943,0,0,0,.716,1.978A2.249,2.249,0,0,0,56.3-1a2.466,2.466,0,0,0,1.27-.306,3.192,3.192,0,0,0,.911-.811l.865.673A3.477,3.477,0,0,1,56.22.153ZM56.044-7.27a1.889,1.889,0,0,0-1.439.624A3.032,3.032,0,0,0,53.886-4.9h4.148v-.107a2.7,2.7,0,0,0-.582-1.672A1.778,1.778,0,0,0,56.044-7.27Zm6.383-1.01.046,1.041a3.018,3.018,0,0,1,2.48-1.194q2.625,0,2.648,2.962V0H66.184V-5.48A1.906,1.906,0,0,0,65.775-6.8a1.641,1.641,0,0,0-1.251-.429,2.043,2.043,0,0,0-1.209.367A2.5,2.5,0,0,0,62.5-5.9V0H61.087V-8.281Zm9.23-2.005v2.005H73.2v1.094H71.656v5.142a1.149,1.149,0,0,0,.207.747.87.87,0,0,0,.7.249,3.428,3.428,0,0,0,.673-.092V0a4.129,4.129,0,0,1-1.087.152,1.763,1.763,0,0,1-1.431-.574,2.466,2.466,0,0,1-.482-1.63V-7.186H68.733V-8.281H70.24v-2.005Zm2.53,6.069a4.891,4.891,0,0,1,.478-2.189A3.568,3.568,0,0,1,76-7.906a3.625,3.625,0,0,1,1.948-.528A3.492,3.492,0,0,1,80.68-7.263a4.5,4.5,0,0,1,1.045,3.115v.1a4.934,4.934,0,0,1-.463,2.17,3.516,3.516,0,0,1-1.324,1.5,3.667,3.667,0,0,1-1.978.536,3.483,3.483,0,0,1-2.728-1.171,4.482,4.482,0,0,1-1.045-3.1Zm1.423.168a3.543,3.543,0,0,0,.639,2.212A2.045,2.045,0,0,0,77.959-1a2.033,2.033,0,0,0,1.714-.846,3.874,3.874,0,0,0,.635-2.369,3.536,3.536,0,0,0-.647-2.208,2.056,2.056,0,0,0-1.718-.846,2.033,2.033,0,0,0-1.691.834A3.845,3.845,0,0,0,75.61-4.049ZM88.321-2.2a1.042,1.042,0,0,0-.432-.892,4.162,4.162,0,0,0-1.508-.547,7.128,7.128,0,0,1-1.707-.551,2.428,2.428,0,0,1-.934-.765,1.831,1.831,0,0,1-.3-1.056A2.148,2.148,0,0,1,84.3-7.73a3.362,3.362,0,0,1,2.2-.7,3.46,3.46,0,0,1,2.284.727,2.309,2.309,0,0,1,.876,1.86H88.237a1.278,1.278,0,0,0-.494-1A1.85,1.85,0,0,0,86.5-7.27a1.936,1.936,0,0,0-1.209.337,1.06,1.06,0,0,0-.436.88.859.859,0,0,0,.406.773,4.991,4.991,0,0,0,1.466.5,7.636,7.636,0,0,1,1.718.566,2.506,2.506,0,0,1,.976.792A1.948,1.948,0,0,1,89.737-2.3a2.119,2.119,0,0,1-.888,1.779,3.724,3.724,0,0,1-2.3.67A4.17,4.17,0,0,1,84.786-.2a2.863,2.863,0,0,1-1.2-.983,2.37,2.37,0,0,1-.432-1.366h1.416a1.466,1.466,0,0,0,.57,1.129,2.212,2.212,0,0,0,1.4.417,2.283,2.283,0,0,0,1.29-.325A1,1,0,0,0,88.321-2.2Z" transform="translate(96.753 343.199)" fill="#12263f"/>
    <path id="Trazado_815669" data-name="Trazado 815669" d="M5.128-5.977H8.235v1.339H5.128v3.52H3.7v-3.52H.6V-5.977H3.7V-9.23H5.128Zm12.75-3.964H14.3V0H12.834V-9.941H9.26v-1.2h8.617Zm4.3,2.931a4.243,4.243,0,0,0-.7-.054,1.866,1.866,0,0,0-1.89,1.186V0H18.171V-8.281h1.378l.023.957a2.2,2.2,0,0,1,1.975-1.11,1.446,1.446,0,0,1,.628.107ZM27.983,0a2.974,2.974,0,0,1-.2-.872A3.159,3.159,0,0,1,25.426.153,2.923,2.923,0,0,1,23.417-.54,2.241,2.241,0,0,1,22.633-2.3,2.341,2.341,0,0,1,23.616-4.3a4.637,4.637,0,0,1,2.767-.716h1.378v-.651a1.59,1.59,0,0,0-.444-1.182,1.784,1.784,0,0,0-1.309-.44,2.064,2.064,0,0,0-1.27.383,1.128,1.128,0,0,0-.513.926H22.8a1.954,1.954,0,0,1,.44-1.2A3,3,0,0,1,24.435-8.1a4.016,4.016,0,0,1,1.657-.337,3.274,3.274,0,0,1,2.242.716,2.581,2.581,0,0,1,.842,1.971v3.811a4.66,4.66,0,0,0,.291,1.814V0Zm-2.35-1.079A2.488,2.488,0,0,0,26.9-1.423a2.083,2.083,0,0,0,.865-.9v-1.7h-1.11q-2.6,0-2.6,1.523a1.289,1.289,0,0,0,.444,1.041A1.706,1.706,0,0,0,25.633-1.079Zm7.1-7.2.046,1.041a3.018,3.018,0,0,1,2.48-1.194q2.625,0,2.648,2.962V0H36.493V-5.48A1.906,1.906,0,0,0,36.083-6.8a1.641,1.641,0,0,0-1.251-.429,2.043,2.043,0,0,0-1.209.367,2.5,2.5,0,0,0-.811.964V0H31.4V-8.281ZM44.865-2.2a1.042,1.042,0,0,0-.432-.892,4.162,4.162,0,0,0-1.508-.547,7.128,7.128,0,0,1-1.707-.551,2.428,2.428,0,0,1-.934-.765,1.831,1.831,0,0,1-.3-1.056,2.148,2.148,0,0,1,.861-1.722,3.362,3.362,0,0,1,2.2-.7,3.46,3.46,0,0,1,2.284.727,2.309,2.309,0,0,1,.876,1.86H44.781a1.278,1.278,0,0,0-.494-1,1.85,1.85,0,0,0-1.244-.421,1.936,1.936,0,0,0-1.209.337,1.06,1.06,0,0,0-.436.88.859.859,0,0,0,.406.773,4.991,4.991,0,0,0,1.466.5,7.636,7.636,0,0,1,1.718.566,2.506,2.506,0,0,1,.976.792A1.948,1.948,0,0,1,46.281-2.3a2.119,2.119,0,0,1-.888,1.779,3.724,3.724,0,0,1-2.3.67A4.17,4.17,0,0,1,41.33-.2a2.863,2.863,0,0,1-1.2-.983A2.37,2.37,0,0,1,39.7-2.548h1.416a1.466,1.466,0,0,0,.57,1.129A2.212,2.212,0,0,0,43.09-1a2.283,2.283,0,0,0,1.29-.325A1,1,0,0,0,44.865-2.2ZM55.121-4.049A4.958,4.958,0,0,1,54.256-1,2.772,2.772,0,0,1,51.914.153,3.037,3.037,0,0,1,49.541-.8V3.184H48.126V-8.281h1.293l.069.918a2.917,2.917,0,0,1,2.4-1.071,2.824,2.824,0,0,1,2.361,1.125,5.012,5.012,0,0,1,.869,3.13ZM53.7-4.209a3.659,3.659,0,0,0-.6-2.212,1.923,1.923,0,0,0-1.638-.811,2.081,2.081,0,0,0-1.929,1.14v3.957A2.085,2.085,0,0,0,51.485-1,1.914,1.914,0,0,0,53.1-1.81,3.994,3.994,0,0,0,53.7-4.209Zm2.839-.008a4.891,4.891,0,0,1,.478-2.189,3.568,3.568,0,0,1,1.332-1.5A3.625,3.625,0,0,1,60.3-8.434a3.492,3.492,0,0,1,2.736,1.171,4.5,4.5,0,0,1,1.045,3.115v.1a4.934,4.934,0,0,1-.463,2.17A3.516,3.516,0,0,1,62.3-.383a3.667,3.667,0,0,1-1.978.536,3.483,3.483,0,0,1-2.728-1.171,4.482,4.482,0,0,1-1.045-3.1Zm1.423.168a3.543,3.543,0,0,0,.639,2.212A2.045,2.045,0,0,0,60.317-1a2.033,2.033,0,0,0,1.714-.846,3.874,3.874,0,0,0,.635-2.369,3.536,3.536,0,0,0-.647-2.208A2.056,2.056,0,0,0,60.3-7.27a2.033,2.033,0,0,0-1.691.834A3.845,3.845,0,0,0,57.968-4.049ZM69.86-7.01a4.243,4.243,0,0,0-.7-.054,1.866,1.866,0,0,0-1.89,1.186V0H65.858V-8.281h1.378l.023.957a2.2,2.2,0,0,1,1.975-1.11,1.446,1.446,0,0,1,.628.107Zm3.981-3.276v2.005h1.546v1.094H73.841v5.142a1.149,1.149,0,0,0,.207.747.87.87,0,0,0,.7.249,3.428,3.428,0,0,0,.673-.092V0a4.129,4.129,0,0,1-1.087.152,1.763,1.763,0,0,1-1.431-.574,2.466,2.466,0,0,1-.482-1.63V-7.186H70.918V-8.281h1.508v-2.005ZM80.477.153a3.618,3.618,0,0,1-2.74-1.106,4.1,4.1,0,0,1-1.056-2.958v-.26a4.969,4.969,0,0,1,.471-2.2,3.672,3.672,0,0,1,1.316-1.515A3.31,3.31,0,0,1,80.3-8.434a3.1,3.1,0,0,1,2.51,1.064,4.606,4.606,0,0,1,.9,3.046v.589H78.1a2.943,2.943,0,0,0,.716,1.978A2.249,2.249,0,0,0,80.553-1a2.466,2.466,0,0,0,1.27-.306,3.192,3.192,0,0,0,.911-.811l.865.673A3.477,3.477,0,0,1,80.477.153ZM80.3-7.27a1.888,1.888,0,0,0-1.439.624A3.032,3.032,0,0,0,78.142-4.9H82.29v-.107a2.7,2.7,0,0,0-.582-1.672A1.778,1.778,0,0,0,80.3-7.27Z" transform="translate(96.753 361.199)" fill="#12263f"/>
    <g id="Grupo_257122" data-name="Grupo 257122">
      <g id="Grupo_257121" data-name="Grupo 257121" clip-path="url(#clip-path-2)">
        <g id="Grupo_257120" data-name="Grupo 257120" style="isolation: isolate">
          <g id="Grupo_257119" data-name="Grupo 257119" style="isolation: isolate">
            <g id="Grupo_257118" data-name="Grupo 257118" clip-path="url(#clip-path-7)" style="isolation: isolate">
              <path id="Trazado_274786" data-name="Trazado 274786" d="M479.909,414.955H361.528a17.641,17.641,0,0,1-17.641-17.641V278.933a17.641,17.641,0,0,1,17.641-17.641H479.909a17.641,17.641,0,0,1,17.641,17.641V397.314a17.641,17.641,0,0,1-17.641,17.641" fill="#fffad0"/>
            </g>
          </g>
        </g>
      </g>
    </g>
    <path id="Trazado_815672" data-name="Trazado 815672" d="M7.446-2.916H2.778L1.73,0H.214L4.469-11.143H5.755L10.018,0H8.51Zm-4.225-1.2H7.01l-1.9-5.212ZM12.834,0H11.418V-11.755h1.416Zm3.6-8.281.038.918a3.058,3.058,0,0,1,2.457-1.071A2.367,2.367,0,0,1,21.291-7.1a3.137,3.137,0,0,1,1.075-.964,3.176,3.176,0,0,1,1.565-.367q2.725,0,2.77,2.885V0H25.286V-5.464a1.9,1.9,0,0,0-.406-1.328,1.786,1.786,0,0,0-1.362-.44,1.877,1.877,0,0,0-1.309.471,1.909,1.909,0,0,0-.6,1.267V0H20.181V-5.426a1.58,1.58,0,0,0-1.768-1.806,1.894,1.894,0,0,0-1.906,1.186V0H15.092V-8.281ZM33.949,0a2.974,2.974,0,0,1-.2-.872A3.159,3.159,0,0,1,31.393.153,2.923,2.923,0,0,1,29.384-.54,2.241,2.241,0,0,1,28.6-2.3,2.341,2.341,0,0,1,29.583-4.3,4.637,4.637,0,0,1,32.35-5.02h1.378v-.651a1.59,1.59,0,0,0-.444-1.182,1.784,1.784,0,0,0-1.309-.44,2.064,2.064,0,0,0-1.27.383,1.128,1.128,0,0,0-.513.926H28.768a1.954,1.954,0,0,1,.44-1.2A3,3,0,0,1,30.4-8.1a4.016,4.016,0,0,1,1.657-.337,3.274,3.274,0,0,1,2.242.716,2.581,2.581,0,0,1,.842,1.971v3.811a4.66,4.66,0,0,0,.291,1.814V0ZM31.6-1.079a2.488,2.488,0,0,0,1.263-.344,2.083,2.083,0,0,0,.865-.9v-1.7h-1.11q-2.6,0-2.6,1.523a1.289,1.289,0,0,0,.444,1.041A1.706,1.706,0,0,0,31.6-1.079ZM40.684-1a2.039,2.039,0,0,0,1.324-.459,1.616,1.616,0,0,0,.628-1.148h1.339a2.567,2.567,0,0,1-.49,1.355A3.226,3.226,0,0,1,42.28-.23a3.478,3.478,0,0,1-1.6.383,3.411,3.411,0,0,1-2.69-1.129,4.5,4.5,0,0,1-1-3.088V-4.3a4.985,4.985,0,0,1,.444-2.151,3.381,3.381,0,0,1,1.274-1.462,3.62,3.62,0,0,1,1.963-.52,3.321,3.321,0,0,1,2.315.834,2.981,2.981,0,0,1,.983,2.166H42.636a1.951,1.951,0,0,0-.608-1.32,1.893,1.893,0,0,0-1.351-.517A1.982,1.982,0,0,0,39-6.494a3.648,3.648,0,0,0-.593,2.246v.268A3.575,3.575,0,0,0,39-1.776,1.991,1.991,0,0,0,40.684-1ZM49,.153a3.618,3.618,0,0,1-2.74-1.106,4.1,4.1,0,0,1-1.056-2.958v-.26a4.969,4.969,0,0,1,.471-2.2,3.672,3.672,0,0,1,1.316-1.515,3.31,3.31,0,0,1,1.833-.547,3.1,3.1,0,0,1,2.51,1.064,4.606,4.606,0,0,1,.9,3.046v.589h-5.61a2.943,2.943,0,0,0,.716,1.978A2.249,2.249,0,0,0,49.079-1a2.466,2.466,0,0,0,1.27-.306,3.192,3.192,0,0,0,.911-.811l.865.673A3.477,3.477,0,0,1,49,.153ZM48.827-7.27a1.889,1.889,0,0,0-1.439.624A3.032,3.032,0,0,0,46.669-4.9h4.148v-.107a2.7,2.7,0,0,0-.582-1.672A1.778,1.778,0,0,0,48.827-7.27Zm6.383-1.01.046,1.041a3.018,3.018,0,0,1,2.48-1.194q2.625,0,2.648,2.962V0H58.967V-5.48A1.906,1.906,0,0,0,58.558-6.8a1.641,1.641,0,0,0-1.251-.429,2.043,2.043,0,0,0-1.209.367,2.5,2.5,0,0,0-.811.964V0H53.87V-8.281ZM67.631,0a2.974,2.974,0,0,1-.2-.872A3.159,3.159,0,0,1,65.075.153,2.923,2.923,0,0,1,63.066-.54,2.241,2.241,0,0,1,62.281-2.3,2.341,2.341,0,0,1,63.265-4.3a4.637,4.637,0,0,1,2.767-.716h1.378v-.651a1.59,1.59,0,0,0-.444-1.182,1.784,1.784,0,0,0-1.309-.44,2.065,2.065,0,0,0-1.27.383,1.128,1.128,0,0,0-.513.926H62.45a1.954,1.954,0,0,1,.44-1.2A3,3,0,0,1,64.083-8.1a4.016,4.016,0,0,1,1.657-.337,3.274,3.274,0,0,1,2.242.716,2.581,2.581,0,0,1,.842,1.971v3.811a4.659,4.659,0,0,0,.291,1.814V0Zm-2.35-1.079a2.488,2.488,0,0,0,1.263-.344,2.083,2.083,0,0,0,.865-.9v-1.7H66.3q-2.6,0-2.6,1.523a1.289,1.289,0,0,0,.444,1.041A1.706,1.706,0,0,0,65.281-1.079Zm7.094-7.2.038.918a3.058,3.058,0,0,1,2.457-1.071A2.367,2.367,0,0,1,77.235-7.1a3.137,3.137,0,0,1,1.075-.964,3.176,3.176,0,0,1,1.565-.367q2.725,0,2.77,2.885V0H81.23V-5.464a1.9,1.9,0,0,0-.406-1.328,1.786,1.786,0,0,0-1.362-.44,1.877,1.877,0,0,0-1.309.471,1.909,1.909,0,0,0-.6,1.267V0H76.126V-5.426a1.58,1.58,0,0,0-1.768-1.806,1.894,1.894,0,0,0-1.906,1.186V0H71.036V-8.281ZM86.32,0H84.9V-8.281H86.32ZM84.789-10.477a.845.845,0,0,1,.21-.582.79.79,0,0,1,.624-.237.8.8,0,0,1,.628.237.836.836,0,0,1,.214.582.809.809,0,0,1-.214.574.817.817,0,0,1-.628.23A.8.8,0,0,1,85-9.9.817.817,0,0,1,84.789-10.477ZM92.021.153a3.618,3.618,0,0,1-2.74-1.106,4.1,4.1,0,0,1-1.056-2.958v-.26a4.969,4.969,0,0,1,.471-2.2,3.672,3.672,0,0,1,1.316-1.515,3.31,3.31,0,0,1,1.833-.547,3.1,3.1,0,0,1,2.51,1.064,4.606,4.606,0,0,1,.9,3.046v.589h-5.61a2.943,2.943,0,0,0,.716,1.978A2.249,2.249,0,0,0,92.1-1a2.466,2.466,0,0,0,1.27-.306,3.192,3.192,0,0,0,.911-.811l.865.673A3.477,3.477,0,0,1,92.021.153ZM91.845-7.27a1.888,1.888,0,0,0-1.439.624A3.032,3.032,0,0,0,89.687-4.9h4.148v-.107a2.7,2.7,0,0,0-.582-1.672A1.778,1.778,0,0,0,91.845-7.27Zm6.383-1.01.046,1.041a3.018,3.018,0,0,1,2.48-1.194q2.625,0,2.648,2.962V0h-1.416V-5.48a1.906,1.906,0,0,0-.409-1.324,1.641,1.641,0,0,0-1.251-.429,2.043,2.043,0,0,0-1.209.367A2.494,2.494,0,0,0,98.3-5.9V0H96.889V-8.281Zm9.23-2.005v2.005H109v1.094h-1.546v5.142a1.149,1.149,0,0,0,.207.747.87.87,0,0,0,.7.249,3.428,3.428,0,0,0,.673-.092V0a4.129,4.129,0,0,1-1.087.152,1.763,1.763,0,0,1-1.431-.574,2.466,2.466,0,0,1-.482-1.63V-7.186h-1.508V-8.281h1.508v-2.005Zm2.53,6.069a4.891,4.891,0,0,1,.478-2.189,3.568,3.568,0,0,1,1.332-1.5,3.625,3.625,0,0,1,1.948-.528,3.492,3.492,0,0,1,2.736,1.171,4.5,4.5,0,0,1,1.045,3.115v.1a4.934,4.934,0,0,1-.463,2.17,3.516,3.516,0,0,1-1.324,1.5,3.667,3.667,0,0,1-1.978.536,3.483,3.483,0,0,1-2.728-1.171,4.482,4.482,0,0,1-1.045-3.1Zm1.423.168a3.543,3.543,0,0,0,.639,2.212A2.045,2.045,0,0,0,113.76-1a2.033,2.033,0,0,0,1.714-.846,3.874,3.874,0,0,0,.635-2.369,3.536,3.536,0,0,0-.647-2.208,2.056,2.056,0,0,0-1.718-.846,2.033,2.033,0,0,0-1.691.834A3.845,3.845,0,0,0,111.411-4.049Z" transform="translate(362.913 325.199)" fill="#12263f"/>
    <path id="Trazado_815671" data-name="Trazado 815671" d="M4.577-4.967A6.909,6.909,0,0,1,1.825-6.3,2.552,2.552,0,0,1,.964-8.258a2.7,2.7,0,0,1,1.052-2.177A4.182,4.182,0,0,1,4.753-11.3a4.565,4.565,0,0,1,2.047.444A3.366,3.366,0,0,1,8.193-9.628a3.131,3.131,0,0,1,.494,1.707H7.209a2.037,2.037,0,0,0-.643-1.594,2.614,2.614,0,0,0-1.814-.58,2.676,2.676,0,0,0-1.7.479,1.6,1.6,0,0,0-.608,1.33,1.438,1.438,0,0,0,.578,1.154,5.667,5.667,0,0,0,1.967.863,9.126,9.126,0,0,1,2.173.862,3.3,3.3,0,0,1,1.163,1.1,2.8,2.8,0,0,1,.379,1.477A2.6,2.6,0,0,1,7.653-.662,4.5,4.5,0,0,1,4.829.153a5.238,5.238,0,0,1-2.143-.44A3.606,3.606,0,0,1,1.152-1.492,2.942,2.942,0,0,1,.612-3.23H2.089a1.919,1.919,0,0,0,.746,1.6,3.142,3.142,0,0,0,1.994.585,2.888,2.888,0,0,0,1.783-.474,1.541,1.541,0,0,0,.62-1.293,1.513,1.513,0,0,0-.574-1.267A6.618,6.618,0,0,0,4.577-4.967Zm9.23,5.12a3.618,3.618,0,0,1-2.74-1.106A4.1,4.1,0,0,1,10.01-3.911v-.26a4.969,4.969,0,0,1,.471-2.2A3.672,3.672,0,0,1,11.8-7.887a3.31,3.31,0,0,1,1.833-.547A3.1,3.1,0,0,1,16.14-7.37a4.606,4.606,0,0,1,.9,3.046v.589h-5.61a2.943,2.943,0,0,0,.716,1.978A2.249,2.249,0,0,0,13.883-1a2.466,2.466,0,0,0,1.27-.306,3.192,3.192,0,0,0,.911-.811l.865.673A3.477,3.477,0,0,1,13.806.153ZM13.63-7.27a1.889,1.889,0,0,0-1.439.624A3.032,3.032,0,0,0,11.472-4.9H15.62v-.107a2.7,2.7,0,0,0-.582-1.672A1.778,1.778,0,0,0,13.63-7.27Zm4.707,3.061a4.867,4.867,0,0,1,.9-3.08A2.864,2.864,0,0,1,21.6-8.434,2.849,2.849,0,0,1,23.97-7.362l.069-.918h1.293V-.2a3.369,3.369,0,0,1-.953,2.533,3.516,3.516,0,0,1-2.56.926,4.259,4.259,0,0,1-1.753-.383,3.017,3.017,0,0,1-1.309-1.048L19.493.98A2.769,2.769,0,0,0,21.72,2.1a2.169,2.169,0,0,0,1.611-.582,2.223,2.223,0,0,0,.578-1.638V-.827a2.91,2.91,0,0,1-2.319.98,2.829,2.829,0,0,1-2.353-1.171A5.117,5.117,0,0,1,18.337-4.209Zm1.423.161a3.713,3.713,0,0,0,.574,2.2,1.865,1.865,0,0,0,1.607.8,2.074,2.074,0,0,0,1.967-1.217V-6.046a2.1,2.1,0,0,0-1.952-1.186,1.882,1.882,0,0,0-1.615.8A4.044,4.044,0,0,0,19.76-4.049ZM32.579-.819a3.007,3.007,0,0,1-2.426.972,2.574,2.574,0,0,1-2.017-.769,3.329,3.329,0,0,1-.7-2.277V-8.281h1.416v5.35q0,1.883,1.531,1.883a2.119,2.119,0,0,0,2.158-1.209V-8.281h1.416V0H32.61ZM40.11-7.01a4.243,4.243,0,0,0-.7-.054,1.866,1.866,0,0,0-1.89,1.186V0H36.107V-8.281h1.378l.023.957a2.2,2.2,0,0,1,1.975-1.11,1.446,1.446,0,0,1,.628.107Zm.632,2.793a4.891,4.891,0,0,1,.478-2.189,3.568,3.568,0,0,1,1.332-1.5A3.625,3.625,0,0,1,44.5-8.434a3.492,3.492,0,0,1,2.736,1.171A4.5,4.5,0,0,1,48.28-4.148v.1a4.934,4.934,0,0,1-.463,2.17,3.516,3.516,0,0,1-1.324,1.5,3.667,3.667,0,0,1-1.978.536,3.483,3.483,0,0,1-2.728-1.171,4.482,4.482,0,0,1-1.045-3.1Zm1.423.168A3.543,3.543,0,0,0,42.8-1.837,2.045,2.045,0,0,0,44.515-1a2.033,2.033,0,0,0,1.714-.846,3.874,3.874,0,0,0,.635-2.369,3.536,3.536,0,0,0-.647-2.208A2.056,2.056,0,0,0,44.5-7.27a2.033,2.033,0,0,0-1.691.834A3.845,3.845,0,0,0,42.165-4.049ZM54.877-2.2a1.042,1.042,0,0,0-.432-.892,4.162,4.162,0,0,0-1.508-.547,7.128,7.128,0,0,1-1.707-.551,2.428,2.428,0,0,1-.934-.765,1.831,1.831,0,0,1-.3-1.056,2.148,2.148,0,0,1,.861-1.722,3.362,3.362,0,0,1,2.2-.7,3.46,3.46,0,0,1,2.284.727,2.309,2.309,0,0,1,.876,1.86H54.793a1.278,1.278,0,0,0-.494-1,1.85,1.85,0,0,0-1.244-.421,1.936,1.936,0,0,0-1.209.337,1.06,1.06,0,0,0-.436.88.859.859,0,0,0,.406.773,4.991,4.991,0,0,0,1.466.5A7.636,7.636,0,0,1,55-4.217a2.506,2.506,0,0,1,.976.792A1.948,1.948,0,0,1,56.293-2.3a2.119,2.119,0,0,1-.888,1.779,3.724,3.724,0,0,1-2.3.67A4.17,4.17,0,0,1,51.342-.2a2.863,2.863,0,0,1-1.2-.983,2.37,2.37,0,0,1-.432-1.366h1.416A1.466,1.466,0,0,0,51.7-1.42,2.212,2.212,0,0,0,53.1-1a2.283,2.283,0,0,0,1.29-.325A1,1,0,0,0,54.877-2.2Z" transform="translate(362.913 343.199)" fill="#12263f"/>
    <path id="Trazado_815670" data-name="Trazado 815670" d="M2.87,0H1.4V-11.143H2.87Zm3.8-8.281.038.918A3.058,3.058,0,0,1,9.161-8.434,2.367,2.367,0,0,1,11.526-7.1,3.137,3.137,0,0,1,12.6-8.066a3.176,3.176,0,0,1,1.565-.367q2.725,0,2.77,2.885V0H15.521V-5.464a1.9,1.9,0,0,0-.406-1.328,1.786,1.786,0,0,0-1.362-.44,1.877,1.877,0,0,0-1.309.471,1.909,1.909,0,0,0-.6,1.267V0H10.416V-5.426A1.58,1.58,0,0,0,8.648-7.232,1.894,1.894,0,0,0,6.742-6.046V0H5.327V-8.281Zm19.4,4.232A4.958,4.958,0,0,1,25.2-1,2.772,2.772,0,0,1,22.86.153,3.037,3.037,0,0,1,20.487-.8V3.184H19.072V-8.281h1.293l.069.918a2.917,2.917,0,0,1,2.4-1.071A2.824,2.824,0,0,1,25.2-7.309a5.012,5.012,0,0,1,.869,3.13Zm-1.416-.161a3.659,3.659,0,0,0-.6-2.212,1.923,1.923,0,0,0-1.638-.811,2.081,2.081,0,0,0-1.929,1.14v3.957A2.085,2.085,0,0,0,22.431-1,1.914,1.914,0,0,0,24.05-1.81,3.994,3.994,0,0,0,24.651-4.209Zm8.327,3.39a3.007,3.007,0,0,1-2.426.972,2.574,2.574,0,0,1-2.017-.769,3.329,3.329,0,0,1-.7-2.277V-8.281H29.25v5.35q0,1.883,1.531,1.883a2.119,2.119,0,0,0,2.158-1.209V-8.281h1.416V0H33.008Zm6.964.972A3.618,3.618,0,0,1,37.2-.953a4.1,4.1,0,0,1-1.056-2.958v-.26a4.969,4.969,0,0,1,.471-2.2,3.672,3.672,0,0,1,1.316-1.515,3.31,3.31,0,0,1,1.833-.547,3.1,3.1,0,0,1,2.51,1.064,4.606,4.606,0,0,1,.9,3.046v.589h-5.61a2.943,2.943,0,0,0,.716,1.978A2.249,2.249,0,0,0,40.018-1a2.466,2.466,0,0,0,1.27-.306A3.192,3.192,0,0,0,42.2-2.12l.865.673A3.477,3.477,0,0,1,39.942.153ZM39.766-7.27a1.889,1.889,0,0,0-1.439.624A3.032,3.032,0,0,0,37.607-4.9h4.148v-.107a2.7,2.7,0,0,0-.582-1.672A1.778,1.778,0,0,0,39.766-7.27ZM49.631-2.2a1.042,1.042,0,0,0-.432-.892,4.162,4.162,0,0,0-1.508-.547,7.128,7.128,0,0,1-1.707-.551,2.428,2.428,0,0,1-.934-.765,1.831,1.831,0,0,1-.3-1.056,2.148,2.148,0,0,1,.861-1.722,3.362,3.362,0,0,1,2.2-.7,3.46,3.46,0,0,1,2.284.727,2.309,2.309,0,0,1,.876,1.86H49.546a1.278,1.278,0,0,0-.494-1,1.85,1.85,0,0,0-1.244-.421,1.936,1.936,0,0,0-1.209.337,1.06,1.06,0,0,0-.436.88.859.859,0,0,0,.406.773,4.991,4.991,0,0,0,1.466.5,7.636,7.636,0,0,1,1.718.566,2.506,2.506,0,0,1,.976.792A1.948,1.948,0,0,1,51.046-2.3a2.119,2.119,0,0,1-.888,1.779,3.724,3.724,0,0,1-2.3.67A4.17,4.17,0,0,1,46.095-.2a2.863,2.863,0,0,1-1.2-.983,2.37,2.37,0,0,1-.432-1.366H45.88a1.466,1.466,0,0,0,.57,1.129,2.212,2.212,0,0,0,1.4.417,2.283,2.283,0,0,0,1.29-.325A1,1,0,0,0,49.631-2.2Zm5.181-8.089v2.005h1.546v1.094H54.812v5.142a1.149,1.149,0,0,0,.207.747.87.87,0,0,0,.7.249A3.428,3.428,0,0,0,56.4-1.14V0a4.129,4.129,0,0,1-1.087.152,1.763,1.763,0,0,1-1.431-.574,2.466,2.466,0,0,1-.482-1.63V-7.186H51.888V-8.281H53.4v-2.005Zm2.53,6.069a4.891,4.891,0,0,1,.478-2.189,3.568,3.568,0,0,1,1.332-1.5A3.625,3.625,0,0,1,61.1-8.434a3.492,3.492,0,0,1,2.736,1.171A4.5,4.5,0,0,1,64.88-4.148v.1a4.934,4.934,0,0,1-.463,2.17,3.516,3.516,0,0,1-1.324,1.5,3.667,3.667,0,0,1-1.978.536,3.483,3.483,0,0,1-2.728-1.171,4.482,4.482,0,0,1-1.045-3.1Zm1.423.168A3.543,3.543,0,0,0,59.4-1.837,2.045,2.045,0,0,0,61.115-1a2.033,2.033,0,0,0,1.714-.846,3.874,3.874,0,0,0,.635-2.369,3.536,3.536,0,0,0-.647-2.208A2.056,2.056,0,0,0,61.1-7.27a2.033,2.033,0,0,0-1.691.834A3.845,3.845,0,0,0,58.765-4.049ZM71.477-2.2a1.042,1.042,0,0,0-.432-.892,4.162,4.162,0,0,0-1.508-.547,7.128,7.128,0,0,1-1.707-.551,2.428,2.428,0,0,1-.934-.765,1.831,1.831,0,0,1-.3-1.056,2.148,2.148,0,0,1,.861-1.722,3.362,3.362,0,0,1,2.2-.7,3.46,3.46,0,0,1,2.284.727,2.309,2.309,0,0,1,.876,1.86H71.393a1.278,1.278,0,0,0-.494-1,1.85,1.85,0,0,0-1.244-.421,1.936,1.936,0,0,0-1.209.337,1.06,1.06,0,0,0-.436.88.859.859,0,0,0,.406.773,4.991,4.991,0,0,0,1.466.5,7.636,7.636,0,0,1,1.718.566,2.506,2.506,0,0,1,.976.792A1.948,1.948,0,0,1,72.893-2.3,2.119,2.119,0,0,1,72-.517a3.724,3.724,0,0,1-2.3.67A4.17,4.17,0,0,1,67.941-.2a2.863,2.863,0,0,1-1.2-.983,2.37,2.37,0,0,1-.432-1.366h1.416A1.466,1.466,0,0,0,68.3-1.42,2.212,2.212,0,0,0,69.7-1a2.283,2.283,0,0,0,1.29-.325A1,1,0,0,0,71.477-2.2Z" transform="translate(362.913 361.199)" fill="#12263f"/>
    <path id="Trazado_815666" data-name="Trazado 815666" d="M11.188-4.263A4.528,4.528,0,0,1,9.664-1.011,5.355,5.355,0,0,1,6.038.176,4.816,4.816,0,0,1,2.167-1.481,6.793,6.793,0,0,1,.756-6.029v-.782a7.671,7.671,0,0,1,.65-3.252,4.874,4.874,0,0,1,1.859-2.158,5.207,5.207,0,0,1,2.808-.751,5.217,5.217,0,0,1,3.568,1.187,4.866,4.866,0,0,1,1.564,3.331H8.569a2.673,2.673,0,0,0-.69-1.8,2.555,2.555,0,0,0-1.806-.558A2.24,2.24,0,0,0,4.1-9.866a5.3,5.3,0,0,0-.672,2.931v.967a5.667,5.667,0,0,0,.628,3.032,2.2,2.2,0,0,0,1.982.958,2.6,2.6,0,0,0,1.824-.558,2.521,2.521,0,0,0,.69-1.727Zm1.169-.58A5.64,5.64,0,0,1,12.9-7.365a3.989,3.989,0,0,1,1.569-1.714,4.577,4.577,0,0,1,2.377-.606,4.33,4.33,0,0,1,3.142,1.178,4.727,4.727,0,0,1,1.358,3.2l.018.65a4.97,4.97,0,0,1-1.222,3.511A4.247,4.247,0,0,1,16.866.176a4.268,4.268,0,0,1-3.283-1.318,5.058,5.058,0,0,1-1.226-3.586Zm2.54.18a3.555,3.555,0,0,0,.51,2.073,1.682,1.682,0,0,0,1.459.717,1.686,1.686,0,0,0,1.441-.709,3.89,3.89,0,0,0,.519-2.267,3.519,3.519,0,0,0-.519-2.06,1.686,1.686,0,0,0-1.459-.731,1.658,1.658,0,0,0-1.441.726A3.955,3.955,0,0,0,14.9-4.662ZM28.081-2.628a.818.818,0,0,0-.461-.734,5.241,5.241,0,0,0-1.481-.479q-3.393-.712-3.393-2.883A2.613,2.613,0,0,1,23.8-8.837a4.237,4.237,0,0,1,2.747-.848,4.56,4.56,0,0,1,2.9.853,2.687,2.687,0,0,1,1.085,2.215h-2.54a1.229,1.229,0,0,0-.352-.9,1.488,1.488,0,0,0-1.1-.356,1.52,1.52,0,0,0-.993.29.916.916,0,0,0-.352.738.783.783,0,0,0,.4.681,4.114,4.114,0,0,0,1.349.448,11.019,11.019,0,0,1,1.6.426,2.628,2.628,0,0,1,2.013,2.558,2.481,2.481,0,0,1-1.116,2.1,4.815,4.815,0,0,1-2.883.8A5.029,5.029,0,0,1,24.429-.25a3.561,3.561,0,0,1-1.455-1.169,2.716,2.716,0,0,1-.527-1.6h2.408a1.326,1.326,0,0,0,.5,1.037,1.987,1.987,0,0,0,1.248.36,1.839,1.839,0,0,0,1.1-.277A.861.861,0,0,0,28.081-2.628Zm7.146-9.22V-9.51h1.626v1.863H35.227V-2.9a1.133,1.133,0,0,0,.2.756,1.015,1.015,0,0,0,.773.229,4.051,4.051,0,0,0,.747-.062V-.053a5.229,5.229,0,0,1-1.538.229,2.425,2.425,0,0,1-2.725-2.7V-7.646H31.3V-9.51h1.389v-2.338Zm2.148,7a5.64,5.64,0,0,1,.545-2.522,3.989,3.989,0,0,1,1.569-1.714,4.577,4.577,0,0,1,2.377-.606,4.33,4.33,0,0,1,3.142,1.178,4.727,4.727,0,0,1,1.358,3.2l.018.65a4.97,4.97,0,0,1-1.222,3.511A4.247,4.247,0,0,1,41.883.176,4.268,4.268,0,0,1,38.6-1.143a5.058,5.058,0,0,1-1.226-3.586Zm2.54.18a3.555,3.555,0,0,0,.51,2.073,1.682,1.682,0,0,0,1.459.717,1.686,1.686,0,0,0,1.441-.709,3.89,3.89,0,0,0,.519-2.267,3.519,3.519,0,0,0-.519-2.06,1.686,1.686,0,0,0-1.459-.731,1.658,1.658,0,0,0-1.441.726A3.955,3.955,0,0,0,39.914-4.662Zm12.12-.163a5.731,5.731,0,0,1,1-3.542,3.237,3.237,0,0,1,2.729-1.318,2.913,2.913,0,0,1,2.294,1.037V-13.5H60.6V0H58.31l-.123-1.011A2.989,2.989,0,0,1,55.744.176,3.228,3.228,0,0,1,53.05-1.147,5.916,5.916,0,0,1,52.035-4.825Zm2.54.189a3.754,3.754,0,0,0,.466,2.051,1.517,1.517,0,0,0,1.354.713,1.7,1.7,0,0,0,1.661-.995V-6.625a1.675,1.675,0,0,0-1.644-.995Q54.575-7.62,54.575-4.636ZM66.95.176a4.668,4.668,0,0,1-3.406-1.283A4.561,4.561,0,0,1,62.23-4.526v-.246a5.745,5.745,0,0,1,.554-2.562,4.064,4.064,0,0,1,1.569-1.74,4.4,4.4,0,0,1,2.316-.611,3.947,3.947,0,0,1,3.072,1.23,5,5,0,0,1,1.121,3.489v1.037H64.805a2.36,2.36,0,0,0,.743,1.494,2.245,2.245,0,0,0,1.569.563,2.742,2.742,0,0,0,2.294-1.063l1.248,1.4A3.813,3.813,0,0,1,69.112-.277,5.075,5.075,0,0,1,66.95.176Zm-.29-7.813a1.587,1.587,0,0,0-1.226.512,2.651,2.651,0,0,0-.6,1.466h3.533v-.2a1.891,1.891,0,0,0-.457-1.311A1.638,1.638,0,0,0,66.66-7.638ZM79.465,0H76.916V-13.5h2.549Zm7.6,0a2.821,2.821,0,0,1-.255-.853,3.073,3.073,0,0,1-2.4,1.028A3.376,3.376,0,0,1,82.1-.633a2.6,2.6,0,0,1-.918-2.039A2.687,2.687,0,0,1,82.3-4.992a5.529,5.529,0,0,1,3.239-.817h1.169v-.545a1.567,1.567,0,0,0-.338-1.055A1.331,1.331,0,0,0,85.3-7.8a1.513,1.513,0,0,0-1.006.308,1.045,1.045,0,0,0-.365.844H81.39a2.551,2.551,0,0,1,.51-1.529,3.37,3.37,0,0,1,1.441-1.1,5.253,5.253,0,0,1,2.092-.4,4.15,4.15,0,0,1,2.791.883,3.09,3.09,0,0,1,1.033,2.483V-2.2a4.546,4.546,0,0,0,.378,2.048V0Zm-2.1-1.767A2.188,2.188,0,0,0,86-2.017a1.645,1.645,0,0,0,.7-.672V-4.324h-.949q-1.907,0-2.03,1.318l-.009.149a1.017,1.017,0,0,0,.334.782A1.3,1.3,0,0,0,84.967-1.767Zm13.1-7.743.079,1.063a3.342,3.342,0,0,1,2.733-1.239,2.536,2.536,0,0,1,2.522,1.45,3.265,3.265,0,0,1,2.856-1.45,2.836,2.836,0,0,1,2.3.9,4.141,4.141,0,0,1,.756,2.711V0h-2.549V-6.064a1.811,1.811,0,0,0-.316-1.182,1.4,1.4,0,0,0-1.116-.374,1.585,1.585,0,0,0-1.582,1.09L103.767,0h-2.54V-6.056a1.789,1.789,0,0,0-.325-1.2,1.416,1.416,0,0,0-1.107-.369,1.646,1.646,0,0,0-1.564.9V0H95.69V-9.51ZM116.784,0a2.821,2.821,0,0,1-.255-.853,3.073,3.073,0,0,1-2.4,1.028,3.376,3.376,0,0,1-2.316-.809,2.6,2.6,0,0,1-.918-2.039,2.687,2.687,0,0,1,1.121-2.32,5.529,5.529,0,0,1,3.239-.817h1.169v-.545a1.567,1.567,0,0,0-.338-1.055,1.331,1.331,0,0,0-1.068-.4,1.513,1.513,0,0,0-1.006.308,1.045,1.045,0,0,0-.365.844h-2.54a2.551,2.551,0,0,1,.51-1.529,3.37,3.37,0,0,1,1.441-1.1,5.253,5.253,0,0,1,2.092-.4,4.15,4.15,0,0,1,2.791.883,3.09,3.09,0,0,1,1.033,2.483V-2.2a4.546,4.546,0,0,0,.378,2.048V0Zm-2.1-1.767a2.188,2.188,0,0,0,1.037-.25,1.645,1.645,0,0,0,.7-.672V-4.324h-.949q-1.907,0-2.03,1.318l-.009.149a1.017,1.017,0,0,0,.334.782A1.3,1.3,0,0,0,114.683-1.767Zm9.281-10.081V-9.51h1.626v1.863h-1.626V-2.9a1.133,1.133,0,0,0,.2.756,1.015,1.015,0,0,0,.773.229,4.051,4.051,0,0,0,.747-.062V-.053a5.229,5.229,0,0,1-1.538.229,2.425,2.425,0,0,1-2.725-2.7V-7.646h-1.389V-9.51h1.389v-2.338ZM131.382.176a4.668,4.668,0,0,1-3.406-1.283,4.561,4.561,0,0,1-1.314-3.419v-.246a5.745,5.745,0,0,1,.554-2.562,4.064,4.064,0,0,1,1.569-1.74,4.4,4.4,0,0,1,2.316-.611,3.947,3.947,0,0,1,3.072,1.23,5,5,0,0,1,1.121,3.489v1.037h-6.056a2.36,2.36,0,0,0,.743,1.494,2.245,2.245,0,0,0,1.569.563,2.742,2.742,0,0,0,2.294-1.063l1.248,1.4a3.813,3.813,0,0,1-1.547,1.261A5.075,5.075,0,0,1,131.382.176Zm-.29-7.813a1.587,1.587,0,0,0-1.226.512,2.651,2.651,0,0,0-.6,1.466H132.8v-.2a1.891,1.891,0,0,0-.457-1.311A1.638,1.638,0,0,0,131.092-7.638Zm10.986.51a6.9,6.9,0,0,0-.914-.07,1.86,1.86,0,0,0-1.89.976V0h-2.54V-9.51h2.4l.07,1.134a2.354,2.354,0,0,1,2.118-1.31,2.662,2.662,0,0,1,.791.114ZM145.981,0h-2.549V-9.51h2.549Zm-2.7-11.971a1.251,1.251,0,0,1,.382-.94,1.436,1.436,0,0,1,1.042-.369,1.44,1.44,0,0,1,1.037.369,1.244,1.244,0,0,1,.387.94,1.247,1.247,0,0,1-.391.949,1.443,1.443,0,0,1-1.033.369,1.443,1.443,0,0,1-1.033-.369A1.247,1.247,0,0,1,143.283-11.971ZM153.583,0a2.821,2.821,0,0,1-.255-.853,3.073,3.073,0,0,1-2.4,1.028,3.376,3.376,0,0,1-2.316-.809,2.6,2.6,0,0,1-.918-2.039,2.687,2.687,0,0,1,1.121-2.32,5.529,5.529,0,0,1,3.239-.817h1.169v-.545a1.567,1.567,0,0,0-.338-1.055,1.331,1.331,0,0,0-1.068-.4,1.513,1.513,0,0,0-1.006.308,1.045,1.045,0,0,0-.365.844h-2.54a2.551,2.551,0,0,1,.51-1.529,3.37,3.37,0,0,1,1.441-1.1,5.253,5.253,0,0,1,2.092-.4,4.15,4.15,0,0,1,2.791.883,3.09,3.09,0,0,1,1.033,2.483V-2.2a4.546,4.546,0,0,0,.378,2.048V0Zm-2.1-1.767a2.188,2.188,0,0,0,1.037-.25,1.645,1.645,0,0,0,.7-.672V-4.324h-.949q-1.907,0-2.03,1.318l-.009.149a1.017,1.017,0,0,0,.334.782A1.3,1.3,0,0,0,151.483-1.767Zm19.283-2.9a5.7,5.7,0,0,1-1,3.52A3.2,3.2,0,0,1,167.075.176a2.963,2.963,0,0,1-2.329-1V3.656h-2.54V-9.51h2.355l.088.932a2.985,2.985,0,0,1,2.408-1.107,3.22,3.22,0,0,1,2.733,1.3,5.858,5.858,0,0,1,.976,3.586Zm-2.54-.185a3.743,3.743,0,0,0-.47-2.048,1.532,1.532,0,0,0-1.367-.721,1.663,1.663,0,0,0-1.644.914v3.894a1.692,1.692,0,0,0,1.661.94Q168.226-1.872,168.226-4.852Zm9.457-2.276a6.9,6.9,0,0,0-.914-.07,1.86,1.86,0,0,0-1.89.976V0h-2.54V-9.51h2.4l.07,1.134a2.354,2.354,0,0,1,2.118-1.31,2.662,2.662,0,0,1,.791.114ZM181.585,0h-2.549V-9.51h2.549Zm-2.7-11.971a1.251,1.251,0,0,1,.382-.94,1.436,1.436,0,0,1,1.042-.369,1.44,1.44,0,0,1,1.037.369,1.244,1.244,0,0,1,.387.94,1.247,1.247,0,0,1-.391.949,1.443,1.443,0,0,1-1.033.369,1.443,1.443,0,0,1-1.033-.369A1.247,1.247,0,0,1,178.887-11.971Zm7.172,2.461.079,1.063a3.342,3.342,0,0,1,2.733-1.239,2.536,2.536,0,0,1,2.522,1.45,3.265,3.265,0,0,1,2.856-1.45,2.836,2.836,0,0,1,2.3.9,4.141,4.141,0,0,1,.756,2.711V0H194.76V-6.064a1.811,1.811,0,0,0-.316-1.182,1.4,1.4,0,0,0-1.116-.374,1.585,1.585,0,0,0-1.582,1.09L191.754,0h-2.54V-6.056a1.789,1.789,0,0,0-.325-1.2,1.416,1.416,0,0,0-1.107-.369,1.646,1.646,0,0,0-1.564.9V0h-2.54V-9.51ZM204.771,0a2.821,2.821,0,0,1-.255-.853,3.073,3.073,0,0,1-2.4,1.028A3.376,3.376,0,0,1,199.8-.633a2.6,2.6,0,0,1-.918-2.039A2.687,2.687,0,0,1,200-4.992a5.529,5.529,0,0,1,3.239-.817h1.169v-.545a1.567,1.567,0,0,0-.338-1.055A1.331,1.331,0,0,0,203-7.8,1.513,1.513,0,0,0,202-7.5a1.045,1.045,0,0,0-.365.844h-2.54a2.551,2.551,0,0,1,.51-1.529,3.37,3.37,0,0,1,1.441-1.1,5.253,5.253,0,0,1,2.092-.4,4.15,4.15,0,0,1,2.791.883,3.09,3.09,0,0,1,1.033,2.483V-2.2a4.546,4.546,0,0,0,.378,2.048V0Zm-2.1-1.767a2.188,2.188,0,0,0,1.037-.25,1.645,1.645,0,0,0,.7-.672V-4.324h-.949q-1.907,0-2.03,1.318l-.009.149a1.017,1.017,0,0,0,.334.782A1.3,1.3,0,0,0,202.67-1.767Z" transform="translate(411.482 38.094)" fill="#fff"/>
    <g id="Grupo_257127" data-name="Grupo 257127">
      <g id="Grupo_257126" data-name="Grupo 257126" clip-path="url(#clip-path-2)">
        <g id="Grupo_257125" data-name="Grupo 257125" style="isolation: isolate">
          <g id="Grupo_257124" data-name="Grupo 257124">
            <g id="Grupo_257123" data-name="Grupo 257123" clip-path="url(#clip-path-9)">
              <path id="Trazado_274787" data-name="Trazado 274787" d="M215.318,235.738H20.914A16.492,16.492,0,0,1,4.422,219.247V161.482a16.492,16.492,0,0,1,16.492-16.491h194.4a16.491,16.491,0,0,1,16.491,16.491v57.765a16.491,16.491,0,0,1-16.491,16.491" fill="#dbf9bd"/>
            </g>
          </g>
        </g>
      </g>
    </g>
    <path id="Trazado_815663" data-name="Trazado 815663" d="M11.188-4.263A4.528,4.528,0,0,1,9.664-1.011,5.355,5.355,0,0,1,6.038.176,4.816,4.816,0,0,1,2.167-1.481,6.793,6.793,0,0,1,.756-6.029v-.782a7.671,7.671,0,0,1,.65-3.252,4.874,4.874,0,0,1,1.859-2.158,5.207,5.207,0,0,1,2.808-.751,5.217,5.217,0,0,1,3.568,1.187,4.866,4.866,0,0,1,1.564,3.331H8.569a2.673,2.673,0,0,0-.69-1.8,2.555,2.555,0,0,0-1.806-.558A2.24,2.24,0,0,0,4.1-9.866a5.3,5.3,0,0,0-.672,2.931v.967a5.667,5.667,0,0,0,.628,3.032,2.2,2.2,0,0,0,1.982.958,2.6,2.6,0,0,0,1.824-.558,2.521,2.521,0,0,0,.69-1.727Zm1.169-.58A5.64,5.64,0,0,1,12.9-7.365a3.989,3.989,0,0,1,1.569-1.714,4.577,4.577,0,0,1,2.377-.606,4.33,4.33,0,0,1,3.142,1.178,4.727,4.727,0,0,1,1.358,3.2l.018.65a4.97,4.97,0,0,1-1.222,3.511A4.247,4.247,0,0,1,16.866.176a4.268,4.268,0,0,1-3.283-1.318,5.058,5.058,0,0,1-1.226-3.586Zm2.54.18a3.555,3.555,0,0,0,.51,2.073,1.682,1.682,0,0,0,1.459.717,1.686,1.686,0,0,0,1.441-.709,3.89,3.89,0,0,0,.519-2.267,3.519,3.519,0,0,0-.519-2.06,1.686,1.686,0,0,0-1.459-.731,1.658,1.658,0,0,0-1.441.726A3.955,3.955,0,0,0,14.9-4.662ZM25.313-9.51l.079,1.063a3.342,3.342,0,0,1,2.733-1.239,2.536,2.536,0,0,1,2.522,1.45A3.265,3.265,0,0,1,33.5-9.686a2.836,2.836,0,0,1,2.3.9,4.141,4.141,0,0,1,.756,2.711V0H34.014V-6.064A1.811,1.811,0,0,0,33.7-7.247a1.4,1.4,0,0,0-1.116-.374A1.585,1.585,0,0,0,31-6.53L31.008,0h-2.54V-6.056a1.789,1.789,0,0,0-.325-1.2,1.416,1.416,0,0,0-1.107-.369,1.646,1.646,0,0,0-1.564.9V0h-2.54V-9.51ZM47.074-4.667a5.7,5.7,0,0,1-1,3.52A3.2,3.2,0,0,1,43.383.176a2.963,2.963,0,0,1-2.329-1V3.656h-2.54V-9.51h2.355l.088.932a2.985,2.985,0,0,1,2.408-1.107,3.22,3.22,0,0,1,2.733,1.3A5.858,5.858,0,0,1,47.074-4.8Zm-2.54-.185a3.743,3.743,0,0,0-.47-2.048A1.532,1.532,0,0,0,42.7-7.62a1.663,1.663,0,0,0-1.644.914v3.894a1.692,1.692,0,0,0,1.661.94Q44.534-1.872,44.534-4.852Zm9.457-2.276a6.9,6.9,0,0,0-.914-.07,1.86,1.86,0,0,0-1.89.976V0h-2.54V-9.51h2.4l.07,1.134a2.354,2.354,0,0,1,2.118-1.31,2.662,2.662,0,0,1,.791.114ZM60.208,0a2.821,2.821,0,0,1-.255-.853,3.073,3.073,0,0,1-2.4,1.028,3.376,3.376,0,0,1-2.316-.809,2.6,2.6,0,0,1-.918-2.039,2.687,2.687,0,0,1,1.121-2.32,5.529,5.529,0,0,1,3.239-.817h1.169v-.545a1.567,1.567,0,0,0-.338-1.055,1.331,1.331,0,0,0-1.068-.4,1.513,1.513,0,0,0-1.006.308,1.045,1.045,0,0,0-.365.844H54.53a2.551,2.551,0,0,1,.51-1.529,3.37,3.37,0,0,1,1.441-1.1,5.253,5.253,0,0,1,2.092-.4,4.15,4.15,0,0,1,2.791.883A3.09,3.09,0,0,1,62.4-6.319V-2.2a4.546,4.546,0,0,0,.378,2.048V0Zm-2.1-1.767a2.188,2.188,0,0,0,1.037-.25,1.645,1.645,0,0,0,.7-.672V-4.324H58.9q-1.907,0-2.03,1.318l-.009.149a1.017,1.017,0,0,0,.334.782A1.3,1.3,0,0,0,58.107-1.767ZM69.5-2.628a.818.818,0,0,0-.461-.734,5.241,5.241,0,0,0-1.481-.479q-3.393-.712-3.393-2.883a2.613,2.613,0,0,1,1.05-2.114,4.237,4.237,0,0,1,2.747-.848,4.56,4.56,0,0,1,2.9.853,2.687,2.687,0,0,1,1.085,2.215H69.4a1.229,1.229,0,0,0-.352-.9,1.488,1.488,0,0,0-1.1-.356,1.52,1.52,0,0,0-.993.29.916.916,0,0,0-.352.738.783.783,0,0,0,.4.681,4.114,4.114,0,0,0,1.349.448,11.019,11.019,0,0,1,1.6.426,2.628,2.628,0,0,1,2.013,2.558,2.481,2.481,0,0,1-1.116,2.1,4.815,4.815,0,0,1-2.883.8A5.029,5.029,0,0,1,65.846-.25a3.561,3.561,0,0,1-1.455-1.169,2.716,2.716,0,0,1-.527-1.6h2.408a1.326,1.326,0,0,0,.5,1.037,1.987,1.987,0,0,0,1.248.36,1.839,1.839,0,0,0,1.1-.277A.861.861,0,0,0,69.5-2.628Z" transform="translate(82.125 193.666)" fill="#12263f"/>
    <g id="Grupo_257132" data-name="Grupo 257132">
      <g id="Grupo_257131" data-name="Grupo 257131" clip-path="url(#clip-path-2)">
        <g id="Grupo_257130" data-name="Grupo 257130" style="isolation: isolate">
          <g id="Grupo_257129" data-name="Grupo 257129">
            <g id="Grupo_257128" data-name="Grupo 257128" clip-path="url(#clip-path-11)">
              <path id="Trazado_274788" data-name="Trazado 274788" d="M481.939,235.738h-194.4a16.492,16.492,0,0,1-16.492-16.491V161.482a16.492,16.492,0,0,1,16.492-16.491h194.4a16.491,16.491,0,0,1,16.491,16.491v57.765a16.491,16.491,0,0,1-16.491,16.491" fill="#dbf9bd"/>
            </g>
          </g>
        </g>
      </g>
    </g>
    <path id="Trazado_815662" data-name="Trazado 815662" d="M4.588-12.8,7.875-3.516l3.27-9.281h3.463V0H11.962V-3.5l.264-6.038L8.771,0H6.961L3.516-9.527,3.779-3.5V0H1.143V-12.8ZM22.254,0A2.821,2.821,0,0,1,22-.853,3.073,3.073,0,0,1,19.6.176a3.376,3.376,0,0,1-2.316-.809,2.6,2.6,0,0,1-.918-2.039,2.687,2.687,0,0,1,1.121-2.32,5.529,5.529,0,0,1,3.239-.817h1.169v-.545a1.567,1.567,0,0,0-.338-1.055,1.331,1.331,0,0,0-1.068-.4,1.513,1.513,0,0,0-1.006.308,1.045,1.045,0,0,0-.365.844h-2.54a2.551,2.551,0,0,1,.51-1.529,3.37,3.37,0,0,1,1.441-1.1,5.253,5.253,0,0,1,2.092-.4A4.15,4.15,0,0,1,23.41-8.8a3.09,3.09,0,0,1,1.033,2.483V-2.2A4.546,4.546,0,0,0,24.82-.149V0Zm-2.1-1.767a2.188,2.188,0,0,0,1.037-.25,1.645,1.645,0,0,0,.7-.672V-4.324h-.949q-1.907,0-2.03,1.318l-.009.149a1.017,1.017,0,0,0,.334.782A1.3,1.3,0,0,0,20.153-1.767ZM28.731-9.51l.079,1.1a3.32,3.32,0,0,1,2.733-1.274,2.759,2.759,0,0,1,2.25.888,4.142,4.142,0,0,1,.756,2.654V0H32.01V-6.082a1.648,1.648,0,0,0-.352-1.173,1.574,1.574,0,0,0-1.169-.365,1.747,1.747,0,0,0-1.608.914V0h-2.54V-9.51Zm10.784-2.338V-9.51h1.626v1.863H39.516V-2.9a1.133,1.133,0,0,0,.2.756,1.015,1.015,0,0,0,.773.229,4.051,4.051,0,0,0,.747-.062V-.053A5.229,5.229,0,0,1,39.7.176a2.425,2.425,0,0,1-2.725-2.7V-7.646H35.587V-9.51h1.389v-2.338ZM46.934.176a4.668,4.668,0,0,1-3.406-1.283,4.561,4.561,0,0,1-1.314-3.419v-.246a5.745,5.745,0,0,1,.554-2.562,4.064,4.064,0,0,1,1.569-1.74,4.4,4.4,0,0,1,2.316-.611,3.947,3.947,0,0,1,3.072,1.23,5,5,0,0,1,1.121,3.489v1.037H44.789a2.36,2.36,0,0,0,.743,1.494,2.245,2.245,0,0,0,1.569.563,2.742,2.742,0,0,0,2.294-1.063l1.248,1.4A3.813,3.813,0,0,1,49.1-.277,5.075,5.075,0,0,1,46.934.176Zm-.29-7.813a1.587,1.587,0,0,0-1.226.512,2.651,2.651,0,0,0-.6,1.466h3.533v-.2a1.891,1.891,0,0,0-.457-1.311A1.638,1.638,0,0,0,46.644-7.638Zm7.98-1.872.079,1.1a3.32,3.32,0,0,1,2.733-1.274,2.759,2.759,0,0,1,2.25.888,4.142,4.142,0,0,1,.756,2.654V0H57.9V-6.082a1.648,1.648,0,0,0-.352-1.173,1.574,1.574,0,0,0-1.169-.365,1.747,1.747,0,0,0-1.608.914V0h-2.54V-9.51ZM65.048,0H62.5V-9.51h2.549Zm-2.7-11.971a1.251,1.251,0,0,1,.382-.94,1.436,1.436,0,0,1,1.042-.369,1.44,1.44,0,0,1,1.037.369,1.244,1.244,0,0,1,.387.94,1.247,1.247,0,0,1-.391.949,1.443,1.443,0,0,1-1.033.369,1.443,1.443,0,0,1-1.033-.369A1.247,1.247,0,0,1,62.35-11.971ZM69.521-9.51,69.6-8.446a3.342,3.342,0,0,1,2.733-1.239,2.536,2.536,0,0,1,2.522,1.45,3.265,3.265,0,0,1,2.856-1.45,2.836,2.836,0,0,1,2.3.9,4.141,4.141,0,0,1,.756,2.711V0H78.223V-6.064a1.811,1.811,0,0,0-.316-1.182A1.4,1.4,0,0,0,76.79-7.62a1.585,1.585,0,0,0-1.582,1.09L75.217,0h-2.54V-6.056a1.789,1.789,0,0,0-.325-1.2,1.416,1.416,0,0,0-1.107-.369,1.646,1.646,0,0,0-1.564.9V0H67.14V-9.51ZM85.4,0H82.854V-9.51H85.4Zm-2.7-11.971a1.251,1.251,0,0,1,.382-.94,1.436,1.436,0,0,1,1.042-.369,1.44,1.44,0,0,1,1.037.369,1.244,1.244,0,0,1,.387.94,1.247,1.247,0,0,1-.391.949,1.443,1.443,0,0,1-1.033.369,1.443,1.443,0,0,1-1.033-.369A1.247,1.247,0,0,1,82.705-11.971ZM91.872.176a4.668,4.668,0,0,1-3.406-1.283,4.561,4.561,0,0,1-1.314-3.419v-.246a5.745,5.745,0,0,1,.554-2.562,4.064,4.064,0,0,1,1.569-1.74,4.4,4.4,0,0,1,2.316-.611,3.947,3.947,0,0,1,3.072,1.23,5,5,0,0,1,1.121,3.489v1.037H89.728a2.36,2.36,0,0,0,.743,1.494,2.245,2.245,0,0,0,1.569.563,2.742,2.742,0,0,0,2.294-1.063l1.248,1.4A3.813,3.813,0,0,1,94.034-.277,5.075,5.075,0,0,1,91.872.176Zm-.29-7.813a1.587,1.587,0,0,0-1.226.512,2.651,2.651,0,0,0-.6,1.466h3.533v-.2a1.891,1.891,0,0,0-.457-1.311A1.638,1.638,0,0,0,91.582-7.638Zm7.98-1.872.079,1.1a3.32,3.32,0,0,1,2.733-1.274,2.759,2.759,0,0,1,2.25.888,4.142,4.142,0,0,1,.756,2.654V0h-2.54V-6.082a1.648,1.648,0,0,0-.352-1.173,1.574,1.574,0,0,0-1.169-.365,1.747,1.747,0,0,0-1.608.914V0h-2.54V-9.51Zm10.784-2.338V-9.51h1.626v1.863h-1.626V-2.9a1.133,1.133,0,0,0,.2.756,1.015,1.015,0,0,0,.773.229,4.051,4.051,0,0,0,.747-.062V-.053a5.229,5.229,0,0,1-1.538.229,2.425,2.425,0,0,1-2.725-2.7V-7.646h-1.389V-9.51h1.389v-2.338Zm2.112,7A5.64,5.64,0,0,1,113-7.365a3.989,3.989,0,0,1,1.569-1.714,4.577,4.577,0,0,1,2.377-.606,4.33,4.33,0,0,1,3.142,1.178,4.727,4.727,0,0,1,1.358,3.2l.018.65a4.97,4.97,0,0,1-1.222,3.511A4.247,4.247,0,0,1,116.967.176a4.268,4.268,0,0,1-3.283-1.318,5.058,5.058,0,0,1-1.226-3.586Zm2.54.18a3.555,3.555,0,0,0,.51,2.073,1.682,1.682,0,0,0,1.459.717,1.686,1.686,0,0,0,1.441-.709,3.89,3.89,0,0,0,.519-2.267,3.519,3.519,0,0,0-.519-2.06,1.686,1.686,0,0,0-1.459-.731,1.658,1.658,0,0,0-1.441.726A3.955,3.955,0,0,0,115-4.662Z" transform="translate(328.362 193.58)" fill="#12263f"/>
    <g id="Grupo_257137" data-name="Grupo 257137">
      <g id="Grupo_257136" data-name="Grupo 257136" clip-path="url(#clip-path-2)">
        <g id="Grupo_257135" data-name="Grupo 257135" style="isolation: isolate">
          <g id="Grupo_257134" data-name="Grupo 257134">
            <g id="Grupo_257133" data-name="Grupo 257133" clip-path="url(#clip-path-13)">
              <path id="Trazado_274789" data-name="Trazado 274789" d="M748.559,235.738h-194.4a16.491,16.491,0,0,1-16.492-16.491V161.482a16.491,16.491,0,0,1,16.492-16.491h194.4a16.491,16.491,0,0,1,16.491,16.491v57.765a16.491,16.491,0,0,1-16.491,16.491" fill="#dbf9bd"/>
            </g>
          </g>
        </g>
      </g>
    </g>
    <path id="Trazado_815664" data-name="Trazado 815664" d="M8.367-2.637H3.744L2.865,0H.062L4.825-12.8H7.269L12.059,0h-2.8ZM4.456-4.772h3.2L6.047-9.562Zm8.235-.053a5.731,5.731,0,0,1,1-3.542,3.237,3.237,0,0,1,2.729-1.318,2.913,2.913,0,0,1,2.294,1.037V-13.5h2.549V0H18.967l-.123-1.011A2.989,2.989,0,0,1,16.4.176a3.228,3.228,0,0,1-2.694-1.323A5.916,5.916,0,0,1,12.691-4.825Zm2.54.189A3.754,3.754,0,0,0,15.7-2.585a1.517,1.517,0,0,0,1.354.713,1.7,1.7,0,0,0,1.661-.995V-6.625a1.675,1.675,0,0,0-1.644-.995Q15.231-7.62,15.231-4.636ZM25.611-9.51l.079,1.063a3.342,3.342,0,0,1,2.733-1.239,2.536,2.536,0,0,1,2.522,1.45A3.265,3.265,0,0,1,33.8-9.686a2.836,2.836,0,0,1,2.3.9,4.141,4.141,0,0,1,.756,2.711V0H34.313V-6.064A1.811,1.811,0,0,0,34-7.247,1.4,1.4,0,0,0,32.88-7.62,1.585,1.585,0,0,0,31.3-6.53L31.307,0h-2.54V-6.056a1.789,1.789,0,0,0-.325-1.2,1.416,1.416,0,0,0-1.107-.369,1.646,1.646,0,0,0-1.564.9V0h-2.54V-9.51ZM41.493,0H38.944V-9.51h2.549Zm-2.7-11.971a1.251,1.251,0,0,1,.382-.94,1.436,1.436,0,0,1,1.042-.369,1.44,1.44,0,0,1,1.037.369,1.244,1.244,0,0,1,.387.94,1.247,1.247,0,0,1-.391.949,1.443,1.443,0,0,1-1.033.369,1.443,1.443,0,0,1-1.033-.369A1.247,1.247,0,0,1,38.795-11.971ZM45.923-9.51,46-8.411a3.32,3.32,0,0,1,2.733-1.274,2.759,2.759,0,0,1,2.25.888,4.142,4.142,0,0,1,.756,2.654V0H49.2V-6.082a1.648,1.648,0,0,0-.352-1.173,1.574,1.574,0,0,0-1.169-.365,1.747,1.747,0,0,0-1.608.914V0h-2.54V-9.51ZM56.347,0H53.8V-9.51h2.549Zm-2.7-11.971a1.251,1.251,0,0,1,.382-.94,1.436,1.436,0,0,1,1.042-.369,1.44,1.44,0,0,1,1.037.369,1.244,1.244,0,0,1,.387.94,1.247,1.247,0,0,1-.391.949,1.443,1.443,0,0,1-1.033.369,1.443,1.443,0,0,1-1.033-.369A1.247,1.247,0,0,1,53.648-11.971Zm9.94,9.343a.818.818,0,0,0-.461-.734,5.241,5.241,0,0,0-1.481-.479q-3.393-.712-3.393-2.883A2.613,2.613,0,0,1,59.3-8.837a4.237,4.237,0,0,1,2.747-.848,4.56,4.56,0,0,1,2.9.853,2.687,2.687,0,0,1,1.085,2.215h-2.54a1.229,1.229,0,0,0-.352-.9,1.488,1.488,0,0,0-1.1-.356,1.52,1.52,0,0,0-.993.29.916.916,0,0,0-.352.738.783.783,0,0,0,.4.681,4.114,4.114,0,0,0,1.349.448,11.019,11.019,0,0,1,1.6.426,2.628,2.628,0,0,1,2.013,2.558,2.481,2.481,0,0,1-1.116,2.1,4.815,4.815,0,0,1-2.883.8A5.029,5.029,0,0,1,59.937-.25a3.561,3.561,0,0,1-1.455-1.169,2.716,2.716,0,0,1-.527-1.6h2.408a1.326,1.326,0,0,0,.5,1.037,1.987,1.987,0,0,0,1.248.36,1.839,1.839,0,0,0,1.1-.277A.861.861,0,0,0,63.589-2.628Zm7.146-9.22V-9.51H72.36v1.863H70.734V-2.9a1.133,1.133,0,0,0,.2.756,1.015,1.015,0,0,0,.773.229,4.051,4.051,0,0,0,.747-.062V-.053a5.229,5.229,0,0,1-1.538.229,2.425,2.425,0,0,1-2.725-2.7V-7.646H66.806V-9.51h1.389v-2.338Zm8.385,4.72a6.9,6.9,0,0,0-.914-.07,1.86,1.86,0,0,0-1.89.976V0h-2.54V-9.51h2.4l.07,1.134a2.354,2.354,0,0,1,2.118-1.31,2.662,2.662,0,0,1,.791.114ZM85.336,0a2.821,2.821,0,0,1-.255-.853,3.073,3.073,0,0,1-2.4,1.028,3.376,3.376,0,0,1-2.316-.809,2.6,2.6,0,0,1-.918-2.039,2.687,2.687,0,0,1,1.121-2.32,5.529,5.529,0,0,1,3.239-.817h1.169v-.545a1.567,1.567,0,0,0-.338-1.055,1.331,1.331,0,0,0-1.068-.4,1.513,1.513,0,0,0-1.006.308,1.045,1.045,0,0,0-.365.844h-2.54a2.551,2.551,0,0,1,.51-1.529,3.37,3.37,0,0,1,1.441-1.1,5.253,5.253,0,0,1,2.092-.4,4.15,4.15,0,0,1,2.791.883,3.09,3.09,0,0,1,1.033,2.483V-2.2A4.546,4.546,0,0,0,87.9-.149V0Zm-2.1-1.767a2.188,2.188,0,0,0,1.037-.25,1.645,1.645,0,0,0,.7-.672V-4.324h-.949q-1.907,0-2.03,1.318l-.009.149a1.017,1.017,0,0,0,.334.782A1.3,1.3,0,0,0,83.235-1.767Zm10.2-.105a1.666,1.666,0,0,0,1.143-.387,1.355,1.355,0,0,0,.457-1.028h2.382a3.258,3.258,0,0,1-.527,1.771A3.48,3.48,0,0,1,95.465-.268a4.442,4.442,0,0,1-1.991.444,4.129,4.129,0,0,1-3.217-1.3A5.13,5.13,0,0,1,89.08-4.7v-.167a5.071,5.071,0,0,1,1.169-3.507,4.08,4.08,0,0,1,3.208-1.31A4,4,0,0,1,96.318-8.67a3.594,3.594,0,0,1,1.094,2.7H95.03a1.745,1.745,0,0,0-.457-1.206,1.524,1.524,0,0,0-1.16-.464,1.53,1.53,0,0,0-1.34.647,3.749,3.749,0,0,0-.453,2.1v.264a3.8,3.8,0,0,0,.448,2.113A1.549,1.549,0,0,0,93.431-1.872ZM101.543,0H98.994V-9.51h2.549Zm-2.7-11.971a1.251,1.251,0,0,1,.382-.94,1.436,1.436,0,0,1,1.042-.369,1.44,1.44,0,0,1,1.037.369,1.244,1.244,0,0,1,.387.94,1.247,1.247,0,0,1-.391.949,1.443,1.443,0,0,1-1.033.369,1.443,1.443,0,0,1-1.033-.369A1.247,1.247,0,0,1,98.845-11.971Zm4.395,7.128a5.64,5.64,0,0,1,.545-2.522,3.989,3.989,0,0,1,1.569-1.714,4.577,4.577,0,0,1,2.377-.606,4.33,4.33,0,0,1,3.142,1.178,4.727,4.727,0,0,1,1.358,3.2l.018.65a4.97,4.97,0,0,1-1.222,3.511A4.247,4.247,0,0,1,107.748.176a4.268,4.268,0,0,1-3.283-1.318,5.058,5.058,0,0,1-1.226-3.586Zm2.54.18a3.555,3.555,0,0,0,.51,2.073,1.682,1.682,0,0,0,1.459.717,1.686,1.686,0,0,0,1.441-.709,3.89,3.89,0,0,0,.519-2.267,3.519,3.519,0,0,0-.519-2.06,1.686,1.686,0,0,0-1.459-.731,1.658,1.658,0,0,0-1.441.726A3.955,3.955,0,0,0,105.779-4.662Zm2.452-8.838H111l-2.435,2.725H106.5Zm7.919,3.99.079,1.1a3.32,3.32,0,0,1,2.733-1.274,2.759,2.759,0,0,1,2.25.888,4.142,4.142,0,0,1,.756,2.654V0h-2.54V-6.082a1.648,1.648,0,0,0-.352-1.173,1.574,1.574,0,0,0-1.169-.365,1.747,1.747,0,0,0-1.608.914V0h-2.54V-9.51Z" transform="translate(593.941 193.612)" fill="#12263f"/>
    <g id="Grupo_257142" data-name="Grupo 257142">
      <g id="Grupo_257141" data-name="Grupo 257141" clip-path="url(#clip-path-2)">
        <g id="Grupo_257140" data-name="Grupo 257140" style="isolation: isolate">
          <g id="Grupo_257139" data-name="Grupo 257139">
            <g id="Grupo_257138" data-name="Grupo 257138" clip-path="url(#clip-path-15)">
              <path id="Trazado_274790" data-name="Trazado 274790" d="M1015.18,235.738h-194.4a16.492,16.492,0,0,1-16.492-16.491V161.482a16.492,16.492,0,0,1,16.492-16.491h194.4a16.491,16.491,0,0,1,16.491,16.491v57.765a16.491,16.491,0,0,1-16.491,16.491" fill="#dbf9bd"/>
            </g>
          </g>
        </g>
      </g>
    </g>
    <path id="Trazado_815665" data-name="Trazado 815665" d="M8.842-5.229H3.779V0H1.143V-12.8H9.475v2.136h-5.7v3.3H8.842ZM15.761,0a2.821,2.821,0,0,1-.255-.853,3.073,3.073,0,0,1-2.4,1.028,3.376,3.376,0,0,1-2.316-.809,2.6,2.6,0,0,1-.918-2.039,2.687,2.687,0,0,1,1.121-2.32,5.529,5.529,0,0,1,3.239-.817H15.4v-.545a1.567,1.567,0,0,0-.338-1.055,1.331,1.331,0,0,0-1.068-.4,1.513,1.513,0,0,0-1.006.308,1.045,1.045,0,0,0-.365.844h-2.54a2.551,2.551,0,0,1,.51-1.529,3.37,3.37,0,0,1,1.441-1.1,5.253,5.253,0,0,1,2.092-.4,4.15,4.15,0,0,1,2.791.883,3.09,3.09,0,0,1,1.033,2.483V-2.2a4.546,4.546,0,0,0,.378,2.048V0Zm-2.1-1.767a2.188,2.188,0,0,0,1.037-.25,1.645,1.645,0,0,0,.7-.672V-4.324h-.949q-1.907,0-2.03,1.318l-.009.149a1.017,1.017,0,0,0,.334.782A1.3,1.3,0,0,0,13.66-1.767ZM22.581,0H20.032V-13.5h2.549Zm5.133-11.848V-9.51H29.34v1.863H27.714V-2.9a1.133,1.133,0,0,0,.2.756,1.015,1.015,0,0,0,.773.229,4.051,4.051,0,0,0,.747-.062V-.053A5.229,5.229,0,0,1,27.9.176a2.425,2.425,0,0,1-2.725-2.7V-7.646H23.785V-9.51h1.389v-2.338ZM36.266,0a2.821,2.821,0,0,1-.255-.853,3.073,3.073,0,0,1-2.4,1.028A3.376,3.376,0,0,1,31.3-.633a2.6,2.6,0,0,1-.918-2.039A2.687,2.687,0,0,1,31.5-4.992a5.529,5.529,0,0,1,3.239-.817h1.169v-.545a1.567,1.567,0,0,0-.338-1.055A1.331,1.331,0,0,0,34.5-7.8a1.513,1.513,0,0,0-1.006.308,1.045,1.045,0,0,0-.365.844h-2.54a2.551,2.551,0,0,1,.51-1.529,3.37,3.37,0,0,1,1.441-1.1,5.253,5.253,0,0,1,2.092-.4,4.15,4.15,0,0,1,2.791.883,3.09,3.09,0,0,1,1.033,2.483V-2.2a4.546,4.546,0,0,0,.378,2.048V0Zm-2.1-1.767a2.188,2.188,0,0,0,1.037-.25,1.645,1.645,0,0,0,.7-.672V-4.324h-.949q-1.907,0-2.03,1.318l-.009.149a1.017,1.017,0,0,0,.334.782A1.3,1.3,0,0,0,34.165-1.767ZM42.743-9.51l.079,1.1a3.32,3.32,0,0,1,2.733-1.274,2.759,2.759,0,0,1,2.25.888,4.142,4.142,0,0,1,.756,2.654V0h-2.54V-6.082a1.648,1.648,0,0,0-.352-1.173A1.574,1.574,0,0,0,44.5-7.62a1.747,1.747,0,0,0-1.608.914V0h-2.54V-9.51Zm10.784-2.338V-9.51h1.626v1.863H53.527V-2.9a1.133,1.133,0,0,0,.2.756,1.015,1.015,0,0,0,.773.229,4.051,4.051,0,0,0,.747-.062V-.053a5.229,5.229,0,0,1-1.538.229,2.425,2.425,0,0,1-2.725-2.7V-7.646H49.6V-9.51h1.389v-2.338ZM60.945.176A4.668,4.668,0,0,1,57.54-1.107a4.561,4.561,0,0,1-1.314-3.419v-.246a5.745,5.745,0,0,1,.554-2.562,4.064,4.064,0,0,1,1.569-1.74,4.4,4.4,0,0,1,2.316-.611,3.947,3.947,0,0,1,3.072,1.23,5,5,0,0,1,1.121,3.489v1.037H58.8a2.36,2.36,0,0,0,.743,1.494,2.245,2.245,0,0,0,1.569.563,2.742,2.742,0,0,0,2.294-1.063l1.248,1.4A3.813,3.813,0,0,1,63.108-.277,5.075,5.075,0,0,1,60.945.176Zm-.29-7.813a1.587,1.587,0,0,0-1.226.512,2.651,2.651,0,0,0-.6,1.466H62.36v-.2A1.891,1.891,0,0,0,61.9-7.174,1.638,1.638,0,0,0,60.655-7.638Zm10.793,5.01a.818.818,0,0,0-.461-.734,5.241,5.241,0,0,0-1.481-.479q-3.393-.712-3.393-2.883a2.613,2.613,0,0,1,1.05-2.114,4.237,4.237,0,0,1,2.747-.848,4.56,4.56,0,0,1,2.9.853,2.687,2.687,0,0,1,1.085,2.215h-2.54a1.229,1.229,0,0,0-.352-.9,1.488,1.488,0,0,0-1.1-.356,1.52,1.52,0,0,0-.993.29.916.916,0,0,0-.352.738.783.783,0,0,0,.4.681,4.114,4.114,0,0,0,1.349.448,11.019,11.019,0,0,1,1.6.426,2.628,2.628,0,0,1,2.013,2.558A2.481,2.481,0,0,1,72.8-.628a4.815,4.815,0,0,1-2.883.8A5.029,5.029,0,0,1,67.8-.25a3.561,3.561,0,0,1-1.455-1.169,2.716,2.716,0,0,1-.527-1.6h2.408a1.326,1.326,0,0,0,.5,1.037,1.987,1.987,0,0,0,1.248.36,1.839,1.839,0,0,0,1.1-.277A.861.861,0,0,0,71.448-2.628Z" transform="translate(882.77 193.777)" fill="#12263f"/>
    <line id="Línea_849" data-name="Línea 849" x2="804.766" transform="translate(115.984 106.59)" fill="none" stroke="#1b3f5e" stroke-miterlimit="10" stroke-width="4.115"/>
    <line id="Línea_850" data-name="Línea 850" y2="104.962" transform="translate(42.633 235.738)" fill="none" stroke="#1b3f5e" stroke-miterlimit="10" stroke-width="4.115"/>
    <line id="Línea_851" data-name="Línea 851" y2="104.962" transform="translate(307.449 235.738)" fill="none" stroke="#1b3f5e" stroke-miterlimit="10" stroke-width="4.115"/>
    <line id="Línea_852" data-name="Línea 852" x2="35.094" transform="translate(42.633 338.827)" fill="none" stroke="#1b3f5e" stroke-miterlimit="10" stroke-width="4.115"/>
    <line id="Línea_853" data-name="Línea 853" x2="35.094" transform="translate(308.793 338.827)" fill="none" stroke="#1b3f5e" stroke-miterlimit="10" stroke-width="4.144"/>
    <g id="Grupo_257147" data-name="Grupo 257147">
      <g id="Grupo_257146" data-name="Grupo 257146" clip-path="url(#clip-path-2)">
        <g id="Grupo_257145" data-name="Grupo 257145" style="isolation: isolate">
          <g id="Grupo_257144" data-name="Grupo 257144">
            <g id="Grupo_257143" data-name="Grupo 257143" clip-path="url(#clip-path-17)">
              <path id="Trazado_274791" data-name="Trazado 274791" d="M747.069,414.955H628.688a17.641,17.641,0,0,1-17.641-17.641V278.933a17.641,17.641,0,0,1,17.641-17.641H747.069a17.641,17.641,0,0,1,17.641,17.641V397.314a17.641,17.641,0,0,1-17.641,17.641" fill="#fffad0"/>
            </g>
          </g>
        </g>
      </g>
    </g>
    <path id="Trazado_815673" data-name="Trazado 815673" d="M2.763-4.362V0H1.293V-11.143H5.4a4.129,4.129,0,0,1,2.866.934A3.165,3.165,0,0,1,9.306-7.737a3.123,3.123,0,0,1-1.014,2.5,4.313,4.313,0,0,1-2.9.876Zm0-1.2H5.4A2.64,2.64,0,0,0,7.209-6.12a2.032,2.032,0,0,0,.628-1.606A2.1,2.1,0,0,0,7.209-9.32a2.473,2.473,0,0,0-1.722-.621H2.763ZM15.909,0a2.974,2.974,0,0,1-.2-.872A3.159,3.159,0,0,1,13.353.153,2.923,2.923,0,0,1,11.344-.54,2.241,2.241,0,0,1,10.559-2.3,2.341,2.341,0,0,1,11.543-4.3,4.637,4.637,0,0,1,14.31-5.02h1.378v-.651a1.59,1.59,0,0,0-.444-1.182,1.784,1.784,0,0,0-1.309-.44,2.065,2.065,0,0,0-1.27.383,1.128,1.128,0,0,0-.513.926H10.728a1.954,1.954,0,0,1,.44-1.2A3,3,0,0,1,12.362-8.1a4.016,4.016,0,0,1,1.657-.337,3.274,3.274,0,0,1,2.242.716A2.581,2.581,0,0,1,17.1-5.747v3.811a4.66,4.66,0,0,0,.291,1.814V0ZM13.56-1.079a2.488,2.488,0,0,0,1.263-.344,2.083,2.083,0,0,0,.865-.9v-1.7h-1.11q-2.6,0-2.6,1.523a1.289,1.289,0,0,0,.444,1.041A1.706,1.706,0,0,0,13.56-1.079Zm5.426-3.13a4.867,4.867,0,0,1,.9-3.08,2.864,2.864,0,0,1,2.372-1.144,2.849,2.849,0,0,1,2.365,1.071l.069-.918h1.293V-.2a3.369,3.369,0,0,1-.953,2.533,3.516,3.516,0,0,1-2.56.926,4.259,4.259,0,0,1-1.753-.383,3.017,3.017,0,0,1-1.309-1.048L20.141.98A2.769,2.769,0,0,0,22.368,2.1a2.169,2.169,0,0,0,1.611-.582,2.223,2.223,0,0,0,.578-1.638V-.827a2.91,2.91,0,0,1-2.319.98,2.829,2.829,0,0,1-2.353-1.171A5.117,5.117,0,0,1,18.986-4.209Zm1.423.161a3.713,3.713,0,0,0,.574,2.2,1.865,1.865,0,0,0,1.607.8,2.074,2.074,0,0,0,1.967-1.217V-6.046a2.1,2.1,0,0,0-1.952-1.186,1.882,1.882,0,0,0-1.615.8A4.044,4.044,0,0,0,20.409-4.049Zm7.332-.168a4.891,4.891,0,0,1,.478-2.189,3.568,3.568,0,0,1,1.332-1.5A3.625,3.625,0,0,1,31.5-8.434a3.492,3.492,0,0,1,2.736,1.171,4.5,4.5,0,0,1,1.045,3.115v.1a4.934,4.934,0,0,1-.463,2.17,3.516,3.516,0,0,1-1.324,1.5,3.667,3.667,0,0,1-1.978.536,3.483,3.483,0,0,1-2.728-1.171,4.482,4.482,0,0,1-1.045-3.1Zm1.423.168A3.543,3.543,0,0,0,29.8-1.837,2.045,2.045,0,0,0,31.514-1a2.033,2.033,0,0,0,1.714-.846,3.874,3.874,0,0,0,.635-2.369,3.536,3.536,0,0,0-.647-2.208A2.056,2.056,0,0,0,31.5-7.27a2.033,2.033,0,0,0-1.691.834A3.845,3.845,0,0,0,29.164-4.049ZM41.876-2.2a1.042,1.042,0,0,0-.432-.892,4.162,4.162,0,0,0-1.508-.547,7.128,7.128,0,0,1-1.707-.551,2.428,2.428,0,0,1-.934-.765,1.831,1.831,0,0,1-.3-1.056,2.148,2.148,0,0,1,.861-1.722,3.362,3.362,0,0,1,2.2-.7,3.46,3.46,0,0,1,2.284.727,2.309,2.309,0,0,1,.876,1.86H41.792a1.278,1.278,0,0,0-.494-1,1.85,1.85,0,0,0-1.244-.421,1.936,1.936,0,0,0-1.209.337,1.06,1.06,0,0,0-.436.88.859.859,0,0,0,.406.773,4.991,4.991,0,0,0,1.466.5A7.636,7.636,0,0,1,42-4.217a2.506,2.506,0,0,1,.976.792A1.948,1.948,0,0,1,43.292-2.3,2.119,2.119,0,0,1,42.4-.517a3.724,3.724,0,0,1-2.3.67A4.17,4.17,0,0,1,38.34-.2a2.863,2.863,0,0,1-1.2-.983,2.37,2.37,0,0,1-.432-1.366h1.416A1.466,1.466,0,0,0,38.7-1.42,2.212,2.212,0,0,0,40.1-1a2.283,2.283,0,0,0,1.29-.325A1,1,0,0,0,41.876-2.2Z" transform="translate(641.065 323.198)" fill="#12263f"/>
    <path id="Trazado_815674" data-name="Trazado 815674" d="M9.49-3.536a4.1,4.1,0,0,1-1.3,2.728,4.276,4.276,0,0,1-2.92.96A3.927,3.927,0,0,1,2.1-1.263,5.7,5.7,0,0,1,.911-5.051V-6.122a6.349,6.349,0,0,1,.555-2.732,4.144,4.144,0,0,1,1.573-1.81A4.379,4.379,0,0,1,5.4-11.3a4.026,4.026,0,0,1,2.847.991A4.149,4.149,0,0,1,9.49-7.561H8.013A3.2,3.2,0,0,0,7.182-9.5a2.512,2.512,0,0,0-1.787-.6A2.629,2.629,0,0,0,3.188-9.053a4.782,4.782,0,0,0-.8,2.964v1.08a4.916,4.916,0,0,0,.758,2.888,2.448,2.448,0,0,0,2.12,1.072A2.828,2.828,0,0,0,7.144-1.6a3.079,3.079,0,0,0,.869-1.932ZM10.9-4.217a4.891,4.891,0,0,1,.478-2.189,3.568,3.568,0,0,1,1.332-1.5,3.625,3.625,0,0,1,1.948-.528,3.492,3.492,0,0,1,2.736,1.171,4.5,4.5,0,0,1,1.045,3.115v.1a4.934,4.934,0,0,1-.463,2.17,3.516,3.516,0,0,1-1.324,1.5,3.667,3.667,0,0,1-1.978.536,3.483,3.483,0,0,1-2.728-1.171,4.482,4.482,0,0,1-1.045-3.1Zm1.423.168a3.543,3.543,0,0,0,.639,2.212A2.045,2.045,0,0,0,14.671-1a2.033,2.033,0,0,0,1.714-.846,3.874,3.874,0,0,0,.635-2.369,3.536,3.536,0,0,0-.647-2.208,2.056,2.056,0,0,0-1.718-.846,2.033,2.033,0,0,0-1.691.834A3.845,3.845,0,0,0,12.322-4.049Zm9.222-4.232.038.918a3.058,3.058,0,0,1,2.457-1.071A2.367,2.367,0,0,1,26.4-7.1a3.137,3.137,0,0,1,1.075-.964,3.176,3.176,0,0,1,1.565-.367q2.725,0,2.77,2.885V0H30.4V-5.464a1.9,1.9,0,0,0-.406-1.328,1.786,1.786,0,0,0-1.362-.44,1.877,1.877,0,0,0-1.309.471,1.909,1.909,0,0,0-.6,1.267V0H25.294V-5.426a1.58,1.58,0,0,0-1.768-1.806A1.894,1.894,0,0,0,21.62-6.046V0H20.2V-8.281ZM35.488,0H34.072V-8.281h1.416ZM33.957-10.477a.845.845,0,0,1,.21-.582.79.79,0,0,1,.624-.237.8.8,0,0,1,.628.237.836.836,0,0,1,.214.582.809.809,0,0,1-.214.574.817.817,0,0,1-.628.23.8.8,0,0,1-.624-.23A.817.817,0,0,1,33.957-10.477ZM42.574-2.2a1.042,1.042,0,0,0-.432-.892,4.162,4.162,0,0,0-1.508-.547,7.128,7.128,0,0,1-1.707-.551,2.428,2.428,0,0,1-.934-.765,1.831,1.831,0,0,1-.3-1.056,2.148,2.148,0,0,1,.861-1.722,3.362,3.362,0,0,1,2.2-.7,3.46,3.46,0,0,1,2.284.727,2.309,2.309,0,0,1,.876,1.86H42.49a1.278,1.278,0,0,0-.494-1,1.85,1.85,0,0,0-1.244-.421,1.936,1.936,0,0,0-1.209.337,1.06,1.06,0,0,0-.436.88.859.859,0,0,0,.406.773,4.991,4.991,0,0,0,1.466.5,7.636,7.636,0,0,1,1.718.566,2.506,2.506,0,0,1,.976.792A1.948,1.948,0,0,1,43.99-2.3,2.119,2.119,0,0,1,43.1-.517a3.724,3.724,0,0,1-2.3.67A4.17,4.17,0,0,1,39.039-.2a2.863,2.863,0,0,1-1.2-.983,2.37,2.37,0,0,1-.432-1.366h1.416a1.466,1.466,0,0,0,.57,1.129A2.212,2.212,0,0,0,40.8-1a2.283,2.283,0,0,0,1.29-.325A1,1,0,0,0,42.574-2.2Zm4.8,2.2H45.957V-8.281h1.416ZM45.842-10.477a.845.845,0,0,1,.21-.582.79.79,0,0,1,.624-.237.8.8,0,0,1,.628.237.836.836,0,0,1,.214.582A.809.809,0,0,1,47.3-9.9a.817.817,0,0,1-.628.23.8.8,0,0,1-.624-.23A.817.817,0,0,1,45.842-10.477Zm3.421,6.26a4.891,4.891,0,0,1,.478-2.189,3.568,3.568,0,0,1,1.332-1.5,3.625,3.625,0,0,1,1.948-.528,3.492,3.492,0,0,1,2.736,1.171A4.5,4.5,0,0,1,56.8-4.148v.1a4.934,4.934,0,0,1-.463,2.17,3.516,3.516,0,0,1-1.324,1.5,3.667,3.667,0,0,1-1.978.536,3.483,3.483,0,0,1-2.728-1.171,4.482,4.482,0,0,1-1.045-3.1Zm1.423.168a3.543,3.543,0,0,0,.639,2.212A2.045,2.045,0,0,0,53.036-1a2.033,2.033,0,0,0,1.714-.846,3.874,3.874,0,0,0,.635-2.369,3.536,3.536,0,0,0-.647-2.208,2.056,2.056,0,0,0-1.718-.846,2.033,2.033,0,0,0-1.691.834A3.845,3.845,0,0,0,50.687-4.049Zm9.23-4.232.046,1.041a3.018,3.018,0,0,1,2.48-1.194q2.625,0,2.648,2.962V0H63.674V-5.48A1.906,1.906,0,0,0,63.265-6.8a1.641,1.641,0,0,0-1.251-.429,2.043,2.043,0,0,0-1.209.367,2.5,2.5,0,0,0-.811.964V0H58.577V-8.281ZM70.661.153a3.618,3.618,0,0,1-2.74-1.106,4.1,4.1,0,0,1-1.056-2.958v-.26a4.969,4.969,0,0,1,.471-2.2,3.672,3.672,0,0,1,1.316-1.515,3.31,3.31,0,0,1,1.833-.547A3.1,3.1,0,0,1,73-7.37a4.606,4.606,0,0,1,.9,3.046v.589h-5.61A2.943,2.943,0,0,0,69-1.756,2.249,2.249,0,0,0,70.738-1a2.466,2.466,0,0,0,1.27-.306,3.192,3.192,0,0,0,.911-.811l.865.673A3.477,3.477,0,0,1,70.661.153ZM70.485-7.27a1.888,1.888,0,0,0-1.439.624A3.032,3.032,0,0,0,68.327-4.9h4.148v-.107a2.7,2.7,0,0,0-.582-1.672A1.778,1.778,0,0,0,70.485-7.27ZM80.35-2.2a1.042,1.042,0,0,0-.432-.892,4.162,4.162,0,0,0-1.508-.547A7.128,7.128,0,0,1,76.7-4.186a2.428,2.428,0,0,1-.934-.765,1.831,1.831,0,0,1-.3-1.056,2.148,2.148,0,0,1,.861-1.722,3.362,3.362,0,0,1,2.2-.7,3.46,3.46,0,0,1,2.284.727,2.309,2.309,0,0,1,.876,1.86H80.266a1.278,1.278,0,0,0-.494-1,1.85,1.85,0,0,0-1.244-.421,1.936,1.936,0,0,0-1.209.337,1.06,1.06,0,0,0-.436.88.859.859,0,0,0,.406.773,4.991,4.991,0,0,0,1.466.5,7.636,7.636,0,0,1,1.718.566,2.506,2.506,0,0,1,.976.792A1.948,1.948,0,0,1,81.766-2.3a2.119,2.119,0,0,1-.888,1.779,3.724,3.724,0,0,1-2.3.67A4.17,4.17,0,0,1,76.814-.2a2.863,2.863,0,0,1-1.2-.983,2.37,2.37,0,0,1-.432-1.366H76.6a1.466,1.466,0,0,0,.57,1.129,2.212,2.212,0,0,0,1.4.417,2.283,2.283,0,0,0,1.29-.325A1,1,0,0,0,80.35-2.2Z" transform="translate(641.065 341.198)" fill="#12263f"/>
    <path id="Trazado_815675" data-name="Trazado 815675" d="M1.293,0V-11.143H4.439A5.064,5.064,0,0,1,7.01-10.5,4.348,4.348,0,0,1,8.736-8.671a5.954,5.954,0,0,1,.616,2.725v.712a5.974,5.974,0,0,1-.608,2.763A4.28,4.28,0,0,1,7.006-.651,5.386,5.386,0,0,1,4.378,0ZM2.763-9.941V-1.2H4.309A3.364,3.364,0,0,0,6.953-2.259,4.367,4.367,0,0,0,7.9-5.269V-5.92a4.436,4.436,0,0,0-.892-2.953A3.173,3.173,0,0,0,4.477-9.941Zm8.212,5.725a4.891,4.891,0,0,1,.478-2.189,3.568,3.568,0,0,1,1.332-1.5,3.625,3.625,0,0,1,1.948-.528,3.492,3.492,0,0,1,2.736,1.171,4.5,4.5,0,0,1,1.045,3.115v.1a4.934,4.934,0,0,1-.463,2.17,3.516,3.516,0,0,1-1.324,1.5,3.667,3.667,0,0,1-1.978.536,3.483,3.483,0,0,1-2.728-1.171,4.482,4.482,0,0,1-1.045-3.1Zm1.423.168a3.543,3.543,0,0,0,.639,2.212A2.045,2.045,0,0,0,14.748-1a2.033,2.033,0,0,0,1.714-.846A3.874,3.874,0,0,0,17.1-4.217a3.536,3.536,0,0,0-.647-2.208,2.056,2.056,0,0,0-1.718-.846,2.033,2.033,0,0,0-1.691.834A3.845,3.845,0,0,0,12.4-4.049ZM23.61-1a2.039,2.039,0,0,0,1.324-.459,1.615,1.615,0,0,0,.628-1.148H26.9a2.567,2.567,0,0,1-.49,1.355A3.226,3.226,0,0,1,25.206-.23a3.478,3.478,0,0,1-1.6.383A3.411,3.411,0,0,1,20.92-.976a4.5,4.5,0,0,1-1-3.088V-4.3a4.985,4.985,0,0,1,.444-2.151,3.381,3.381,0,0,1,1.274-1.462,3.62,3.62,0,0,1,1.963-.52,3.321,3.321,0,0,1,2.315.834A2.981,2.981,0,0,1,26.9-5.434H25.561a1.951,1.951,0,0,0-.608-1.32A1.893,1.893,0,0,0,23.6-7.27a1.982,1.982,0,0,0-1.672.777,3.648,3.648,0,0,0-.593,2.246v.268a3.575,3.575,0,0,0,.589,2.2A1.991,1.991,0,0,0,23.61-1ZM33.6-.819a3.007,3.007,0,0,1-2.426.972,2.574,2.574,0,0,1-2.017-.769,3.329,3.329,0,0,1-.7-2.277V-8.281h1.416v5.35q0,1.883,1.531,1.883a2.119,2.119,0,0,0,2.158-1.209V-8.281h1.416V0H33.635Zm4.86-7.462.038.918A3.058,3.058,0,0,1,40.96-8.434,2.367,2.367,0,0,1,43.324-7.1,3.137,3.137,0,0,1,44.4-8.066a3.176,3.176,0,0,1,1.565-.367q2.725,0,2.77,2.885V0H47.319V-5.464a1.9,1.9,0,0,0-.406-1.328,1.786,1.786,0,0,0-1.362-.44,1.877,1.877,0,0,0-1.309.471,1.909,1.909,0,0,0-.6,1.267V0H42.215V-5.426a1.58,1.58,0,0,0-1.768-1.806,1.894,1.894,0,0,0-1.906,1.186V0H37.125V-8.281ZM54.307.153a3.618,3.618,0,0,1-2.74-1.106,4.1,4.1,0,0,1-1.056-2.958v-.26a4.969,4.969,0,0,1,.471-2.2A3.672,3.672,0,0,1,52.3-7.887a3.31,3.31,0,0,1,1.833-.547,3.1,3.1,0,0,1,2.51,1.064,4.606,4.606,0,0,1,.9,3.046v.589h-5.61a2.943,2.943,0,0,0,.716,1.978A2.249,2.249,0,0,0,54.383-1a2.466,2.466,0,0,0,1.27-.306,3.192,3.192,0,0,0,.911-.811l.865.673A3.477,3.477,0,0,1,54.307.153ZM54.131-7.27a1.889,1.889,0,0,0-1.439.624A3.032,3.032,0,0,0,51.972-4.9H56.12v-.107a2.7,2.7,0,0,0-.582-1.672A1.778,1.778,0,0,0,54.131-7.27Zm6.383-1.01.046,1.041a3.018,3.018,0,0,1,2.48-1.194q2.625,0,2.648,2.962V0H64.271V-5.48A1.906,1.906,0,0,0,63.861-6.8a1.641,1.641,0,0,0-1.251-.429,2.043,2.043,0,0,0-1.209.367,2.5,2.5,0,0,0-.811.964V0H59.174V-8.281Zm9.23-2.005v2.005h1.546v1.094H69.743v5.142a1.149,1.149,0,0,0,.207.747.87.87,0,0,0,.7.249,3.428,3.428,0,0,0,.673-.092V0A4.129,4.129,0,0,1,70.24.153a1.763,1.763,0,0,1-1.431-.574,2.466,2.466,0,0,1-.482-1.63V-7.186H66.819V-8.281h1.508v-2.005Zm2.53,6.069a4.891,4.891,0,0,1,.478-2.189,3.568,3.568,0,0,1,1.332-1.5,3.625,3.625,0,0,1,1.948-.528,3.492,3.492,0,0,1,2.736,1.171,4.5,4.5,0,0,1,1.045,3.115v.1a4.934,4.934,0,0,1-.463,2.17,3.516,3.516,0,0,1-1.324,1.5,3.667,3.667,0,0,1-1.978.536,3.483,3.483,0,0,1-2.728-1.171,4.482,4.482,0,0,1-1.045-3.1Zm1.423.168a3.543,3.543,0,0,0,.639,2.212A2.045,2.045,0,0,0,76.046-1a2.033,2.033,0,0,0,1.714-.846A3.874,3.874,0,0,0,78.4-4.217a3.536,3.536,0,0,0-.647-2.208A2.056,2.056,0,0,0,76.03-7.27a2.033,2.033,0,0,0-1.691.834A3.845,3.845,0,0,0,73.7-4.049ZM86.408-2.2a1.042,1.042,0,0,0-.432-.892,4.162,4.162,0,0,0-1.508-.547,7.128,7.128,0,0,1-1.707-.551,2.428,2.428,0,0,1-.934-.765,1.831,1.831,0,0,1-.3-1.056,2.148,2.148,0,0,1,.861-1.722,3.362,3.362,0,0,1,2.2-.7,3.46,3.46,0,0,1,2.284.727,2.309,2.309,0,0,1,.876,1.86H86.324a1.278,1.278,0,0,0-.494-1,1.85,1.85,0,0,0-1.244-.421,1.936,1.936,0,0,0-1.209.337,1.06,1.06,0,0,0-.436.88.859.859,0,0,0,.406.773,4.991,4.991,0,0,0,1.466.5,7.636,7.636,0,0,1,1.718.566,2.506,2.506,0,0,1,.976.792A1.948,1.948,0,0,1,87.824-2.3a2.119,2.119,0,0,1-.888,1.779,3.724,3.724,0,0,1-2.3.67A4.17,4.17,0,0,1,82.872-.2a2.863,2.863,0,0,1-1.2-.983,2.37,2.37,0,0,1-.432-1.366h1.416a1.466,1.466,0,0,0,.57,1.129,2.212,2.212,0,0,0,1.4.417,2.283,2.283,0,0,0,1.29-.325A1,1,0,0,0,86.408-2.2Z" transform="translate(641.065 359.198)" fill="#12263f"/>
    <path id="Trazado_815676" data-name="Trazado 815676" d="M2.87,0H1.4V-11.143H2.87Zm3.8-8.281L6.719-7.24A3.018,3.018,0,0,1,9.2-8.434q2.625,0,2.648,2.962V0H10.431V-5.48A1.906,1.906,0,0,0,10.022-6.8,1.641,1.641,0,0,0,8.77-7.232a2.043,2.043,0,0,0-1.209.367A2.5,2.5,0,0,0,6.75-5.9V0H5.334V-8.281ZM18.8-2.2a1.042,1.042,0,0,0-.432-.892,4.162,4.162,0,0,0-1.508-.547,7.128,7.128,0,0,1-1.707-.551,2.428,2.428,0,0,1-.934-.765,1.831,1.831,0,0,1-.3-1.056,2.148,2.148,0,0,1,.861-1.722,3.362,3.362,0,0,1,2.2-.7,3.46,3.46,0,0,1,2.284.727,2.309,2.309,0,0,1,.876,1.86H18.72a1.278,1.278,0,0,0-.494-1,1.85,1.85,0,0,0-1.244-.421,1.936,1.936,0,0,0-1.209.337,1.06,1.06,0,0,0-.436.88.859.859,0,0,0,.406.773,4.991,4.991,0,0,0,1.466.5,7.636,7.636,0,0,1,1.718.566,2.506,2.506,0,0,1,.976.792A1.948,1.948,0,0,1,20.22-2.3a2.119,2.119,0,0,1-.888,1.779,3.724,3.724,0,0,1-2.3.67A4.17,4.17,0,0,1,15.268-.2a2.863,2.863,0,0,1-1.2-.983,2.37,2.37,0,0,1-.432-1.366h1.416a1.466,1.466,0,0,0,.57,1.129,2.212,2.212,0,0,0,1.4.417,2.283,2.283,0,0,0,1.29-.325A1,1,0,0,0,18.8-2.2ZM29.059-4.049A4.958,4.958,0,0,1,28.194-1,2.772,2.772,0,0,1,25.852.153,3.037,3.037,0,0,1,23.48-.8V3.184H22.064V-8.281h1.293l.069.918a2.917,2.917,0,0,1,2.4-1.071A2.824,2.824,0,0,1,28.19-7.309a5.012,5.012,0,0,1,.869,3.13Zm-1.416-.161a3.659,3.659,0,0,0-.6-2.212,1.923,1.923,0,0,0-1.638-.811,2.081,2.081,0,0,0-1.929,1.14v3.957A2.085,2.085,0,0,0,25.424-1a1.914,1.914,0,0,0,1.619-.807A3.994,3.994,0,0,0,27.643-4.209ZM34.294.153a3.618,3.618,0,0,1-2.74-1.106A4.1,4.1,0,0,1,30.5-3.911v-.26a4.969,4.969,0,0,1,.471-2.2,3.672,3.672,0,0,1,1.316-1.515,3.31,3.31,0,0,1,1.833-.547,3.1,3.1,0,0,1,2.51,1.064,4.606,4.606,0,0,1,.9,3.046v.589h-5.61a2.943,2.943,0,0,0,.716,1.978A2.249,2.249,0,0,0,34.37-1a2.466,2.466,0,0,0,1.27-.306,3.192,3.192,0,0,0,.911-.811l.865.673A3.477,3.477,0,0,1,34.294.153ZM34.118-7.27a1.889,1.889,0,0,0-1.439.624A3.032,3.032,0,0,0,31.959-4.9h4.148v-.107a2.7,2.7,0,0,0-.582-1.672A1.778,1.778,0,0,0,34.118-7.27ZM42.483-1a2.039,2.039,0,0,0,1.324-.459,1.616,1.616,0,0,0,.628-1.148h1.339a2.568,2.568,0,0,1-.49,1.355A3.226,3.226,0,0,1,44.078-.23a3.478,3.478,0,0,1-1.6.383,3.411,3.411,0,0,1-2.69-1.129,4.5,4.5,0,0,1-1-3.088V-4.3a4.985,4.985,0,0,1,.444-2.151,3.381,3.381,0,0,1,1.274-1.462,3.62,3.62,0,0,1,1.963-.52A3.321,3.321,0,0,1,44.79-7.6a2.981,2.981,0,0,1,.983,2.166H44.434a1.951,1.951,0,0,0-.608-1.32,1.893,1.893,0,0,0-1.351-.517,1.982,1.982,0,0,0-1.672.777,3.648,3.648,0,0,0-.593,2.246v.268a3.575,3.575,0,0,0,.589,2.2A1.991,1.991,0,0,0,42.483-1Zm8.2,0a2.039,2.039,0,0,0,1.324-.459,1.616,1.616,0,0,0,.628-1.148h1.339a2.567,2.567,0,0,1-.49,1.355A3.226,3.226,0,0,1,52.282-.23a3.478,3.478,0,0,1-1.6.383A3.411,3.411,0,0,1,48-.976a4.5,4.5,0,0,1-1-3.088V-4.3a4.985,4.985,0,0,1,.444-2.151,3.381,3.381,0,0,1,1.274-1.462,3.62,3.62,0,0,1,1.963-.52,3.321,3.321,0,0,1,2.315.834,2.981,2.981,0,0,1,.983,2.166H52.638a1.951,1.951,0,0,0-.608-1.32,1.893,1.893,0,0,0-1.351-.517,1.982,1.982,0,0,0-1.672.777,3.648,3.648,0,0,0-.593,2.246v.268A3.575,3.575,0,0,0,49-1.776,1.991,1.991,0,0,0,50.687-1Zm6.421,1H55.692V-8.281h1.416ZM55.577-10.477a.845.845,0,0,1,.21-.582.79.79,0,0,1,.624-.237.8.8,0,0,1,.628.237.836.836,0,0,1,.214.582.809.809,0,0,1-.214.574.817.817,0,0,1-.628.23.8.8,0,0,1-.624-.23A.817.817,0,0,1,55.577-10.477ZM59-4.217a4.891,4.891,0,0,1,.478-2.189,3.568,3.568,0,0,1,1.332-1.5,3.625,3.625,0,0,1,1.948-.528,3.492,3.492,0,0,1,2.736,1.171,4.5,4.5,0,0,1,1.045,3.115v.1a4.934,4.934,0,0,1-.463,2.17,3.516,3.516,0,0,1-1.324,1.5,3.667,3.667,0,0,1-1.978.536,3.483,3.483,0,0,1-2.728-1.171A4.482,4.482,0,0,1,59-4.117Zm1.423.168a3.543,3.543,0,0,0,.639,2.212A2.045,2.045,0,0,0,62.771-1a2.033,2.033,0,0,0,1.714-.846,3.874,3.874,0,0,0,.635-2.369,3.536,3.536,0,0,0-.647-2.208,2.056,2.056,0,0,0-1.718-.846,2.033,2.033,0,0,0-1.691.834A3.845,3.845,0,0,0,60.421-4.049Zm9.23-4.232L69.7-7.24a3.018,3.018,0,0,1,2.48-1.194q2.625,0,2.648,2.962V0H73.409V-5.48A1.906,1.906,0,0,0,73-6.8a1.641,1.641,0,0,0-1.251-.429,2.043,2.043,0,0,0-1.209.367,2.494,2.494,0,0,0-.811.964V0H68.312V-8.281ZM80.4.153a3.618,3.618,0,0,1-2.74-1.106A4.1,4.1,0,0,1,76.6-3.911v-.26a4.969,4.969,0,0,1,.471-2.2,3.672,3.672,0,0,1,1.316-1.515,3.31,3.31,0,0,1,1.833-.547A3.1,3.1,0,0,1,82.73-7.37a4.606,4.606,0,0,1,.9,3.046v.589h-5.61a2.943,2.943,0,0,0,.716,1.978A2.249,2.249,0,0,0,80.473-1a2.466,2.466,0,0,0,1.27-.306,3.192,3.192,0,0,0,.911-.811l.865.673A3.477,3.477,0,0,1,80.4.153ZM80.22-7.27a1.888,1.888,0,0,0-1.439.624A3.032,3.032,0,0,0,78.062-4.9H82.21v-.107a2.7,2.7,0,0,0-.582-1.672A1.778,1.778,0,0,0,80.22-7.27ZM90.085-2.2a1.042,1.042,0,0,0-.432-.892,4.162,4.162,0,0,0-1.508-.547,7.128,7.128,0,0,1-1.707-.551,2.428,2.428,0,0,1-.934-.765,1.831,1.831,0,0,1-.3-1.056,2.148,2.148,0,0,1,.861-1.722,3.362,3.362,0,0,1,2.2-.7,3.46,3.46,0,0,1,2.284.727,2.309,2.309,0,0,1,.876,1.86H90a1.278,1.278,0,0,0-.494-1,1.85,1.85,0,0,0-1.244-.421,1.936,1.936,0,0,0-1.209.337,1.06,1.06,0,0,0-.436.88.859.859,0,0,0,.406.773,4.991,4.991,0,0,0,1.466.5,7.636,7.636,0,0,1,1.718.566,2.506,2.506,0,0,1,.976.792A1.948,1.948,0,0,1,91.5-2.3a2.119,2.119,0,0,1-.888,1.779,3.724,3.724,0,0,1-2.3.67A4.17,4.17,0,0,1,86.549-.2a2.863,2.863,0,0,1-1.2-.983,2.37,2.37,0,0,1-.432-1.366h1.416a1.466,1.466,0,0,0,.57,1.129,2.212,2.212,0,0,0,1.4.417,2.283,2.283,0,0,0,1.29-.325A1,1,0,0,0,90.085-2.2Z" transform="translate(641.065 377.198)" fill="#12263f"/>
    <line id="Línea_854" data-name="Línea 854" y2="104.962" transform="translate(574.61 235.738)" fill="none" stroke="#1b3f5e" stroke-miterlimit="10" stroke-width="4.115"/>
    <line id="Línea_855" data-name="Línea 855" x2="35.094" transform="translate(575.953 338.827)" fill="none" stroke="#1b3f5e" stroke-miterlimit="10" stroke-width="4.144"/>
    <g id="Grupo_257152" data-name="Grupo 257152">
      <g id="Grupo_257151" data-name="Grupo 257151" clip-path="url(#clip-path-2)">
        <g id="Grupo_257150" data-name="Grupo 257150" style="isolation: isolate">
          <g id="Grupo_257149" data-name="Grupo 257149">
            <g id="Grupo_257148" data-name="Grupo 257148" clip-path="url(#clip-path-19)">
              <path id="Trazado_274792" data-name="Trazado 274792" d="M1015.23,414.955H896.849a17.641,17.641,0,0,1-17.641-17.641V278.933a17.641,17.641,0,0,1,17.641-17.641H1015.23a17.641,17.641,0,0,1,17.641,17.641V397.314a17.641,17.641,0,0,1-17.641,17.641" fill="#fffad0"/>
            </g>
          </g>
        </g>
      </g>
    </g>
    <path id="Trazado_815678" data-name="Trazado 815678" d="M5.38-4.508H2.763V0H1.286V-11.143H4.975a4.366,4.366,0,0,1,2.9.857A3.084,3.084,0,0,1,8.885-7.791a3,3,0,0,1-.563,1.814A3.358,3.358,0,0,1,6.758-4.821L9.375-.092V0H7.8Zm-2.617-1.2H5.02a2.546,2.546,0,0,0,1.741-.567,1.919,1.919,0,0,0,.647-1.518,2.02,2.02,0,0,0-.616-1.587,2.609,2.609,0,0,0-1.779-.56H2.763Zm7.584,1.492a4.891,4.891,0,0,1,.478-2.189,3.568,3.568,0,0,1,1.332-1.5A3.625,3.625,0,0,1,14.1-8.434a3.492,3.492,0,0,1,2.736,1.171,4.5,4.5,0,0,1,1.045,3.115v.1a4.934,4.934,0,0,1-.463,2.17A3.516,3.516,0,0,1,16.1-.383,3.667,3.667,0,0,1,14.12.153a3.483,3.483,0,0,1-2.728-1.171,4.482,4.482,0,0,1-1.045-3.1Zm1.423.168a3.543,3.543,0,0,0,.639,2.212A2.045,2.045,0,0,0,14.12-1a2.033,2.033,0,0,0,1.714-.846,3.874,3.874,0,0,0,.635-2.369,3.536,3.536,0,0,0-.647-2.208A2.056,2.056,0,0,0,14.1-7.27a2.033,2.033,0,0,0-1.691.834A3.845,3.845,0,0,0,11.771-4.049Zm14.9,0A4.924,4.924,0,0,1,25.8-1,2.788,2.788,0,0,1,23.457.153a2.887,2.887,0,0,1-2.426-1.11L20.962,0h-1.3V-11.755h1.416V-7.37a2.87,2.87,0,0,1,2.365-1.064,2.8,2.8,0,0,1,2.369,1.14,5.071,5.071,0,0,1,.861,3.122Zm-1.416-.161A3.826,3.826,0,0,0,24.7-6.444a1.849,1.849,0,0,0-1.607-.788,2.079,2.079,0,0,0-2.013,1.3V-2.35a2.137,2.137,0,0,0,2.028,1.3,1.839,1.839,0,0,0,1.584-.788A4.069,4.069,0,0,0,25.255-4.209Zm2.824-.008a4.891,4.891,0,0,1,.478-2.189,3.568,3.568,0,0,1,1.332-1.5,3.625,3.625,0,0,1,1.948-.528,3.492,3.492,0,0,1,2.736,1.171,4.5,4.5,0,0,1,1.045,3.115v.1a4.934,4.934,0,0,1-.463,2.17,3.516,3.516,0,0,1-1.324,1.5,3.667,3.667,0,0,1-1.978.536,3.483,3.483,0,0,1-2.728-1.171,4.482,4.482,0,0,1-1.045-3.1Zm1.423.168a3.543,3.543,0,0,0,.639,2.212A2.045,2.045,0,0,0,31.852-1a2.033,2.033,0,0,0,1.714-.846A3.874,3.874,0,0,0,34.2-4.217a3.536,3.536,0,0,0-.647-2.208,2.056,2.056,0,0,0-1.718-.846,2.033,2.033,0,0,0-1.691.834A3.845,3.845,0,0,0,29.5-4.049ZM42.215-2.2a1.042,1.042,0,0,0-.432-.892,4.162,4.162,0,0,0-1.508-.547,7.128,7.128,0,0,1-1.707-.551,2.428,2.428,0,0,1-.934-.765,1.831,1.831,0,0,1-.3-1.056,2.148,2.148,0,0,1,.861-1.722,3.362,3.362,0,0,1,2.2-.7,3.46,3.46,0,0,1,2.284.727,2.309,2.309,0,0,1,.876,1.86H42.13a1.278,1.278,0,0,0-.494-1,1.85,1.85,0,0,0-1.244-.421,1.936,1.936,0,0,0-1.209.337,1.06,1.06,0,0,0-.436.88.859.859,0,0,0,.406.773,4.991,4.991,0,0,0,1.466.5,7.636,7.636,0,0,1,1.718.566,2.506,2.506,0,0,1,.976.792A1.948,1.948,0,0,1,43.63-2.3a2.119,2.119,0,0,1-.888,1.779,3.724,3.724,0,0,1-2.3.67A4.17,4.17,0,0,1,38.679-.2a2.863,2.863,0,0,1-1.2-.983,2.37,2.37,0,0,1-.432-1.366h1.416a1.466,1.466,0,0,0,.57,1.129,2.212,2.212,0,0,0,1.4.417,2.283,2.283,0,0,0,1.29-.325A1,1,0,0,0,42.215-2.2Z" transform="translate(908.439 332.349)" fill="#12263f"/>
    <path id="Trazado_815677" data-name="Trazado 815677" d="M9.865-5.212a6.893,6.893,0,0,1-.551,2.858A4.174,4.174,0,0,1,7.753-.49,4.3,4.3,0,0,1,5.4.153,4.259,4.259,0,0,1,3.061-.494a4.274,4.274,0,0,1-1.58-1.844A6.614,6.614,0,0,1,.9-5.112v-.8a6.811,6.811,0,0,1,.559-2.839,4.258,4.258,0,0,1,1.58-1.886A4.241,4.241,0,0,1,5.38-11.3a4.32,4.32,0,0,1,2.361.647A4.166,4.166,0,0,1,9.314-8.774a6.927,6.927,0,0,1,.551,2.858ZM8.4-5.931a5,5,0,0,0-.8-3.042,2.625,2.625,0,0,0-2.227-1.06,2.6,2.6,0,0,0-2.193,1.06,4.894,4.894,0,0,0-.823,2.943v.819a5,5,0,0,0,.807,3.019A2.608,2.608,0,0,0,5.4-1.094,2.6,2.6,0,0,0,7.6-2.131,4.975,4.975,0,0,0,8.4-5.1ZM18.857-4.049A4.924,4.924,0,0,1,17.985-1,2.788,2.788,0,0,1,15.643.153a2.887,2.887,0,0,1-2.426-1.11L13.148,0h-1.3V-11.755h1.416V-7.37a2.87,2.87,0,0,1,2.365-1.064A2.8,2.8,0,0,1,18-7.293a5.071,5.071,0,0,1,.861,3.122Zm-1.416-.161a3.826,3.826,0,0,0-.559-2.235,1.849,1.849,0,0,0-1.607-.788,2.079,2.079,0,0,0-2.013,1.3V-2.35a2.137,2.137,0,0,0,2.028,1.3,1.839,1.839,0,0,0,1.584-.788A4.069,4.069,0,0,0,17.441-4.209ZM25.462-2.2a1.042,1.042,0,0,0-.432-.892,4.162,4.162,0,0,0-1.508-.547,7.128,7.128,0,0,1-1.707-.551,2.428,2.428,0,0,1-.934-.765,1.831,1.831,0,0,1-.3-1.056A2.148,2.148,0,0,1,21.44-7.73a3.362,3.362,0,0,1,2.2-.7,3.46,3.46,0,0,1,2.284.727,2.309,2.309,0,0,1,.876,1.86H25.378a1.278,1.278,0,0,0-.494-1,1.85,1.85,0,0,0-1.244-.421,1.936,1.936,0,0,0-1.209.337,1.06,1.06,0,0,0-.436.88.859.859,0,0,0,.406.773,4.991,4.991,0,0,0,1.466.5,7.636,7.636,0,0,1,1.718.566,2.506,2.506,0,0,1,.976.792A1.948,1.948,0,0,1,26.878-2.3,2.119,2.119,0,0,1,25.99-.517a3.724,3.724,0,0,1-2.3.67A4.17,4.17,0,0,1,21.926-.2a2.863,2.863,0,0,1-1.2-.983A2.37,2.37,0,0,1,20.3-2.548h1.416a1.466,1.466,0,0,0,.57,1.129,2.212,2.212,0,0,0,1.4.417,2.283,2.283,0,0,0,1.29-.325A1,1,0,0,0,25.462-2.2Zm2.885-2.02a4.891,4.891,0,0,1,.478-2.189,3.568,3.568,0,0,1,1.332-1.5A3.625,3.625,0,0,1,32.1-8.434a3.492,3.492,0,0,1,2.736,1.171,4.5,4.5,0,0,1,1.045,3.115v.1a4.934,4.934,0,0,1-.463,2.17A3.516,3.516,0,0,1,34.1-.383,3.667,3.667,0,0,1,32.12.153a3.483,3.483,0,0,1-2.728-1.171,4.482,4.482,0,0,1-1.045-3.1Zm1.423.168a3.543,3.543,0,0,0,.639,2.212A2.045,2.045,0,0,0,32.12-1a2.033,2.033,0,0,0,1.714-.846,3.874,3.874,0,0,0,.635-2.369,3.536,3.536,0,0,0-.647-2.208A2.056,2.056,0,0,0,32.1-7.27a2.033,2.033,0,0,0-1.691.834A3.845,3.845,0,0,0,29.771-4.049ZM39.2,0H37.783V-11.755H39.2Zm5.7.153a3.618,3.618,0,0,1-2.74-1.106A4.1,4.1,0,0,1,41.1-3.911v-.26a4.969,4.969,0,0,1,.471-2.2,3.672,3.672,0,0,1,1.316-1.515,3.31,3.31,0,0,1,1.833-.547,3.1,3.1,0,0,1,2.51,1.064,4.606,4.606,0,0,1,.9,3.046v.589h-5.61a2.943,2.943,0,0,0,.716,1.978A2.249,2.249,0,0,0,44.977-1a2.466,2.466,0,0,0,1.27-.306,3.192,3.192,0,0,0,.911-.811l.865.673A3.477,3.477,0,0,1,44.9.153ZM44.725-7.27a1.889,1.889,0,0,0-1.439.624A3.032,3.032,0,0,0,42.567-4.9h4.148v-.107a2.7,2.7,0,0,0-.582-1.672A1.778,1.778,0,0,0,44.725-7.27ZM54.59-2.2a1.042,1.042,0,0,0-.432-.892,4.162,4.162,0,0,0-1.508-.547,7.128,7.128,0,0,1-1.707-.551,2.428,2.428,0,0,1-.934-.765,1.831,1.831,0,0,1-.3-1.056,2.148,2.148,0,0,1,.861-1.722,3.362,3.362,0,0,1,2.2-.7,3.46,3.46,0,0,1,2.284.727,2.309,2.309,0,0,1,.876,1.86H54.506a1.278,1.278,0,0,0-.494-1,1.85,1.85,0,0,0-1.244-.421,1.936,1.936,0,0,0-1.209.337,1.06,1.06,0,0,0-.436.88.859.859,0,0,0,.406.773,4.991,4.991,0,0,0,1.466.5,7.636,7.636,0,0,1,1.718.566,2.506,2.506,0,0,1,.976.792A1.948,1.948,0,0,1,56.006-2.3a2.119,2.119,0,0,1-.888,1.779,3.724,3.724,0,0,1-2.3.67A4.17,4.17,0,0,1,51.054-.2a2.863,2.863,0,0,1-1.2-.983,2.37,2.37,0,0,1-.432-1.366H50.84a1.466,1.466,0,0,0,.57,1.129,2.212,2.212,0,0,0,1.4.417,2.283,2.283,0,0,0,1.29-.325A1,1,0,0,0,54.59-2.2ZM61.171-1A2.039,2.039,0,0,0,62.5-1.462a1.616,1.616,0,0,0,.628-1.148h1.339a2.567,2.567,0,0,1-.49,1.355A3.226,3.226,0,0,1,62.767-.23a3.478,3.478,0,0,1-1.6.383,3.411,3.411,0,0,1-2.69-1.129,4.5,4.5,0,0,1-1-3.088V-4.3a4.985,4.985,0,0,1,.444-2.151A3.381,3.381,0,0,1,59.2-7.913a3.62,3.62,0,0,1,1.963-.52,3.321,3.321,0,0,1,2.315.834,2.981,2.981,0,0,1,.983,2.166H63.123a1.951,1.951,0,0,0-.608-1.32,1.893,1.893,0,0,0-1.351-.517,1.982,1.982,0,0,0-1.672.777A3.648,3.648,0,0,0,58.9-4.247v.268a3.575,3.575,0,0,0,.589,2.2A1.991,1.991,0,0,0,61.171-1ZM69.49.153a3.618,3.618,0,0,1-2.74-1.106,4.1,4.1,0,0,1-1.056-2.958v-.26a4.969,4.969,0,0,1,.471-2.2,3.672,3.672,0,0,1,1.316-1.515,3.31,3.31,0,0,1,1.833-.547,3.1,3.1,0,0,1,2.51,1.064,4.606,4.606,0,0,1,.9,3.046v.589H67.11a2.943,2.943,0,0,0,.716,1.978A2.249,2.249,0,0,0,69.567-1a2.466,2.466,0,0,0,1.27-.306,3.192,3.192,0,0,0,.911-.811l.865.673A3.477,3.477,0,0,1,69.49.153ZM69.314-7.27a1.889,1.889,0,0,0-1.439.624A3.032,3.032,0,0,0,67.156-4.9H71.3v-.107a2.7,2.7,0,0,0-.582-1.672A1.778,1.778,0,0,0,69.314-7.27ZM75.7-8.281l.046,1.041a3.018,3.018,0,0,1,2.48-1.194q2.625,0,2.648,2.962V0H79.455V-5.48A1.906,1.906,0,0,0,79.045-6.8a1.641,1.641,0,0,0-1.251-.429,2.043,2.043,0,0,0-1.209.367,2.494,2.494,0,0,0-.811.964V0H74.358V-8.281ZM86.327-1a2.039,2.039,0,0,0,1.324-.459,1.616,1.616,0,0,0,.628-1.148h1.339a2.568,2.568,0,0,1-.49,1.355A3.226,3.226,0,0,1,87.923-.23a3.478,3.478,0,0,1-1.6.383,3.411,3.411,0,0,1-2.69-1.129,4.5,4.5,0,0,1-1-3.088V-4.3a4.985,4.985,0,0,1,.444-2.151,3.381,3.381,0,0,1,1.274-1.462,3.62,3.62,0,0,1,1.963-.52,3.321,3.321,0,0,1,2.315.834,2.981,2.981,0,0,1,.983,2.166H88.279a1.951,1.951,0,0,0-.608-1.32A1.893,1.893,0,0,0,86.32-7.27a1.982,1.982,0,0,0-1.672.777,3.648,3.648,0,0,0-.593,2.246v.268a3.575,3.575,0,0,0,.589,2.2A1.991,1.991,0,0,0,86.327-1Zm6.421,1H91.332V-8.281h1.416ZM91.218-10.477a.845.845,0,0,1,.21-.582.79.79,0,0,1,.624-.237.8.8,0,0,1,.628.237.836.836,0,0,1,.214.582.809.809,0,0,1-.214.574.817.817,0,0,1-.628.23.8.8,0,0,1-.624-.23A.817.817,0,0,1,91.218-10.477ZM100.126,0a2.974,2.974,0,0,1-.2-.872A3.159,3.159,0,0,1,97.57.153,2.923,2.923,0,0,1,95.561-.54,2.241,2.241,0,0,1,94.776-2.3,2.341,2.341,0,0,1,95.76-4.3a4.637,4.637,0,0,1,2.767-.716H99.9v-.651a1.59,1.59,0,0,0-.444-1.182,1.784,1.784,0,0,0-1.309-.44,2.065,2.065,0,0,0-1.27.383,1.128,1.128,0,0,0-.513.926H94.945a1.954,1.954,0,0,1,.44-1.2A3,3,0,0,1,96.579-8.1a4.016,4.016,0,0,1,1.657-.337,3.274,3.274,0,0,1,2.242.716,2.581,2.581,0,0,1,.842,1.971v3.811a4.659,4.659,0,0,0,.291,1.814V0Zm-2.35-1.079a2.488,2.488,0,0,0,1.263-.344,2.083,2.083,0,0,0,.865-.9v-1.7h-1.11q-2.6,0-2.6,1.523a1.289,1.289,0,0,0,.444,1.041A1.706,1.706,0,0,0,97.776-1.079Z" transform="translate(908.439 350.349)" fill="#12263f"/>
    <line id="Línea_856" data-name="Línea 856" y2="104.962" transform="translate(842.77 235.738)" fill="none" stroke="#1b3f5e" stroke-miterlimit="10" stroke-width="4.115"/>
    <line id="Línea_857" data-name="Línea 857" x2="35.094" transform="translate(844.114 338.827)" fill="none" stroke="#1b3f5e" stroke-miterlimit="10" stroke-width="4.144"/>
  </g>
</svg>
