<svg xmlns="http://www.w3.org/2000/svg" width="505" height="499" viewBox="0 0 505 499">
  <g id="Grupo_1070862" data-name="Grupo 1070862" transform="translate(2217 689.569)">
    <rect id="Rectángulo_375970" data-name="Rectángulo 375970" width="505" height="499" transform="translate(-2217 -689.569)" fill="#fff"/>
    <g id="Rectángulo_375971" data-name="Rectángulo 375971" transform="translate(-2102 -673.569)" fill="#3b5620" stroke="#707070" stroke-width="1">
      <rect width="276" height="66" rx="8" stroke="none"/>
      <rect x="0.5" y="0.5" width="275" height="65" rx="7.5" fill="none"/>
    </g>
    <path id="Trazado_815679" data-name="Trazado 815679" d="M11.188-4.263A4.528,4.528,0,0,1,9.664-1.011,5.355,5.355,0,0,1,6.038.176,4.816,4.816,0,0,1,2.167-1.481,6.793,6.793,0,0,1,.756-6.029v-.782a7.671,7.671,0,0,1,.65-3.252,4.874,4.874,0,0,1,1.859-2.158,5.207,5.207,0,0,1,2.808-.751,5.217,5.217,0,0,1,3.568,1.187,4.866,4.866,0,0,1,1.564,3.331H8.569a2.673,2.673,0,0,0-.69-1.8,2.555,2.555,0,0,0-1.806-.558A2.24,2.24,0,0,0,4.1-9.866a5.3,5.3,0,0,0-.672,2.931v.967a5.667,5.667,0,0,0,.628,3.032,2.2,2.2,0,0,0,1.982.958,2.6,2.6,0,0,0,1.824-.558,2.521,2.521,0,0,0,.69-1.727Zm1.169-.58A5.64,5.64,0,0,1,12.9-7.365a3.989,3.989,0,0,1,1.569-1.714,4.577,4.577,0,0,1,2.377-.606,4.33,4.33,0,0,1,3.142,1.178,4.727,4.727,0,0,1,1.358,3.2l.018.65a4.97,4.97,0,0,1-1.222,3.511A4.247,4.247,0,0,1,16.866.176a4.268,4.268,0,0,1-3.283-1.318,5.058,5.058,0,0,1-1.226-3.586Zm2.54.18a3.555,3.555,0,0,0,.51,2.073,1.682,1.682,0,0,0,1.459.717,1.686,1.686,0,0,0,1.441-.709,3.89,3.89,0,0,0,.519-2.267,3.519,3.519,0,0,0-.519-2.06,1.686,1.686,0,0,0-1.459-.731,1.658,1.658,0,0,0-1.441.726A3.955,3.955,0,0,0,14.9-4.662ZM28.081-2.628a.818.818,0,0,0-.461-.734,5.241,5.241,0,0,0-1.481-.479q-3.393-.712-3.393-2.883A2.613,2.613,0,0,1,23.8-8.837a4.237,4.237,0,0,1,2.747-.848,4.56,4.56,0,0,1,2.9.853,2.687,2.687,0,0,1,1.085,2.215h-2.54a1.229,1.229,0,0,0-.352-.9,1.488,1.488,0,0,0-1.1-.356,1.52,1.52,0,0,0-.993.29.916.916,0,0,0-.352.738.783.783,0,0,0,.4.681,4.114,4.114,0,0,0,1.349.448,11.019,11.019,0,0,1,1.6.426,2.628,2.628,0,0,1,2.013,2.558,2.481,2.481,0,0,1-1.116,2.1,4.815,4.815,0,0,1-2.883.8A5.029,5.029,0,0,1,24.429-.25a3.561,3.561,0,0,1-1.455-1.169,2.716,2.716,0,0,1-.527-1.6h2.408a1.326,1.326,0,0,0,.5,1.037,1.987,1.987,0,0,0,1.248.36,1.839,1.839,0,0,0,1.1-.277A.861.861,0,0,0,28.081-2.628Zm7.146-9.22V-9.51h1.626v1.863H35.227V-2.9a1.133,1.133,0,0,0,.2.756,1.015,1.015,0,0,0,.773.229,4.051,4.051,0,0,0,.747-.062V-.053a5.229,5.229,0,0,1-1.538.229,2.425,2.425,0,0,1-2.725-2.7V-7.646H31.3V-9.51h1.389v-2.338Zm2.382,7a5.64,5.64,0,0,1,.545-2.522,3.989,3.989,0,0,1,1.569-1.714A4.577,4.577,0,0,1,42.1-9.686a4.33,4.33,0,0,1,3.142,1.178,4.727,4.727,0,0,1,1.358,3.2l.018.65A4.97,4.97,0,0,1,45.4-1.147,4.247,4.247,0,0,1,42.117.176a4.268,4.268,0,0,1-3.283-1.318,5.058,5.058,0,0,1-1.226-3.586Zm2.54.18a3.555,3.555,0,0,0,.51,2.073,1.682,1.682,0,0,0,1.459.717,1.686,1.686,0,0,0,1.441-.709,3.89,3.89,0,0,0,.519-2.267,3.519,3.519,0,0,0-.519-2.06A1.686,1.686,0,0,0,42.1-7.638a1.658,1.658,0,0,0-1.441.726A3.955,3.955,0,0,0,40.148-4.662Zm12.12-.163a5.731,5.731,0,0,1,1-3.542A3.237,3.237,0,0,1,56-9.686a2.913,2.913,0,0,1,2.294,1.037V-13.5h2.549V0H58.544l-.123-1.011A2.989,2.989,0,0,1,55.978.176a3.228,3.228,0,0,1-2.694-1.323A5.916,5.916,0,0,1,52.269-4.825Zm2.54.189a3.754,3.754,0,0,0,.466,2.051,1.517,1.517,0,0,0,1.354.713,1.7,1.7,0,0,0,1.661-.995V-6.625a1.675,1.675,0,0,0-1.644-.995Q54.809-7.62,54.809-4.636ZM67.184.176a4.668,4.668,0,0,1-3.406-1.283,4.561,4.561,0,0,1-1.314-3.419v-.246a5.745,5.745,0,0,1,.554-2.562,4.064,4.064,0,0,1,1.569-1.74A4.4,4.4,0,0,1,66.9-9.686a3.947,3.947,0,0,1,3.072,1.23,5,5,0,0,1,1.121,3.489v1.037H65.039a2.36,2.36,0,0,0,.743,1.494,2.245,2.245,0,0,0,1.569.563,2.742,2.742,0,0,0,2.294-1.063l1.248,1.4A3.813,3.813,0,0,1,69.346-.277,5.075,5.075,0,0,1,67.184.176Zm-.29-7.813a1.587,1.587,0,0,0-1.226.512,2.651,2.651,0,0,0-.6,1.466H68.6v-.2a1.891,1.891,0,0,0-.457-1.311A1.638,1.638,0,0,0,66.894-7.638ZM79.7,0H77.15V-13.5H79.7Zm7.6,0a2.821,2.821,0,0,1-.255-.853,3.073,3.073,0,0,1-2.4,1.028,3.376,3.376,0,0,1-2.316-.809,2.6,2.6,0,0,1-.918-2.039,2.687,2.687,0,0,1,1.121-2.32,5.529,5.529,0,0,1,3.239-.817h1.169v-.545A1.567,1.567,0,0,0,86.6-7.409a1.331,1.331,0,0,0-1.068-.4,1.513,1.513,0,0,0-1.006.308,1.045,1.045,0,0,0-.365.844h-2.54a2.551,2.551,0,0,1,.51-1.529,3.37,3.37,0,0,1,1.441-1.1,5.253,5.253,0,0,1,2.092-.4,4.15,4.15,0,0,1,2.791.883A3.09,3.09,0,0,1,89.49-6.319V-2.2a4.546,4.546,0,0,0,.378,2.048V0ZM85.2-1.767a2.188,2.188,0,0,0,1.037-.25,1.645,1.645,0,0,0,.7-.672V-4.324h-.949q-1.907,0-2.03,1.318l-.009.149a1.017,1.017,0,0,0,.334.782A1.3,1.3,0,0,0,85.2-1.767Zm13.1-7.743.079,1.063a3.342,3.342,0,0,1,2.733-1.239,2.536,2.536,0,0,1,2.522,1.45,3.265,3.265,0,0,1,2.856-1.45,2.836,2.836,0,0,1,2.3.9,4.141,4.141,0,0,1,.756,2.711V0h-2.549V-6.064a1.811,1.811,0,0,0-.316-1.182,1.4,1.4,0,0,0-1.116-.374,1.585,1.585,0,0,0-1.582,1.09L104,0h-2.54V-6.056a1.789,1.789,0,0,0-.325-1.2,1.416,1.416,0,0,0-1.107-.369,1.646,1.646,0,0,0-1.564.9V0h-2.54V-9.51ZM117.018,0a2.821,2.821,0,0,1-.255-.853,3.073,3.073,0,0,1-2.4,1.028,3.376,3.376,0,0,1-2.316-.809,2.6,2.6,0,0,1-.918-2.039,2.687,2.687,0,0,1,1.121-2.32,5.529,5.529,0,0,1,3.239-.817h1.169v-.545a1.567,1.567,0,0,0-.338-1.055,1.331,1.331,0,0,0-1.068-.4,1.513,1.513,0,0,0-1.006.308,1.045,1.045,0,0,0-.365.844h-2.54a2.551,2.551,0,0,1,.51-1.529,3.37,3.37,0,0,1,1.441-1.1,5.253,5.253,0,0,1,2.092-.4,4.15,4.15,0,0,1,2.791.883,3.09,3.09,0,0,1,1.033,2.483V-2.2a4.546,4.546,0,0,0,.378,2.048V0Zm-2.1-1.767a2.188,2.188,0,0,0,1.037-.25,1.645,1.645,0,0,0,.7-.672V-4.324h-.949q-1.907,0-2.03,1.318l-.009.149a1.017,1.017,0,0,0,.334.782A1.3,1.3,0,0,0,114.917-1.767ZM124.2-11.848V-9.51h1.626v1.863H124.2V-2.9a1.133,1.133,0,0,0,.2.756,1.015,1.015,0,0,0,.773.229,4.051,4.051,0,0,0,.747-.062V-.053a5.229,5.229,0,0,1-1.538.229,2.425,2.425,0,0,1-2.725-2.7V-7.646H120.27V-9.51h1.389v-2.338ZM131.616.176a4.668,4.668,0,0,1-3.406-1.283A4.561,4.561,0,0,1,126.9-4.526v-.246a5.745,5.745,0,0,1,.554-2.562,4.064,4.064,0,0,1,1.569-1.74,4.4,4.4,0,0,1,2.316-.611,3.947,3.947,0,0,1,3.072,1.23,5,5,0,0,1,1.121,3.489v1.037h-6.056a2.36,2.36,0,0,0,.743,1.494,2.245,2.245,0,0,0,1.569.563,2.742,2.742,0,0,0,2.294-1.063l1.248,1.4a3.813,3.813,0,0,1-1.547,1.261A5.075,5.075,0,0,1,131.616.176Zm-.29-7.813a1.587,1.587,0,0,0-1.226.512,2.651,2.651,0,0,0-.6,1.466h3.533v-.2a1.891,1.891,0,0,0-.457-1.311A1.638,1.638,0,0,0,131.326-7.638Zm10.986.51a6.9,6.9,0,0,0-.914-.07,1.86,1.86,0,0,0-1.89.976V0h-2.54V-9.51h2.4l.07,1.134a2.354,2.354,0,0,1,2.118-1.31,2.662,2.662,0,0,1,.791.114ZM146.215,0h-2.549V-9.51h2.549Zm-2.7-11.971a1.251,1.251,0,0,1,.382-.94,1.436,1.436,0,0,1,1.042-.369,1.44,1.44,0,0,1,1.037.369,1.244,1.244,0,0,1,.387.94,1.247,1.247,0,0,1-.391.949,1.443,1.443,0,0,1-1.033.369,1.443,1.443,0,0,1-1.033-.369A1.247,1.247,0,0,1,143.517-11.971ZM153.817,0a2.821,2.821,0,0,1-.255-.853,3.073,3.073,0,0,1-2.4,1.028,3.376,3.376,0,0,1-2.316-.809,2.6,2.6,0,0,1-.918-2.039,2.687,2.687,0,0,1,1.121-2.32,5.529,5.529,0,0,1,3.239-.817h1.169v-.545a1.567,1.567,0,0,0-.338-1.055,1.331,1.331,0,0,0-1.068-.4,1.513,1.513,0,0,0-1.006.308,1.045,1.045,0,0,0-.365.844h-2.54a2.551,2.551,0,0,1,.51-1.529,3.37,3.37,0,0,1,1.441-1.1,5.253,5.253,0,0,1,2.092-.4,4.15,4.15,0,0,1,2.791.883,3.09,3.09,0,0,1,1.033,2.483V-2.2a4.546,4.546,0,0,0,.378,2.048V0Zm-2.1-1.767a2.188,2.188,0,0,0,1.037-.25,1.645,1.645,0,0,0,.7-.672V-4.324h-.949q-1.907,0-2.03,1.318l-.009.149a1.017,1.017,0,0,0,.334.782A1.3,1.3,0,0,0,151.717-1.767ZM171-4.667a5.7,5.7,0,0,1-1,3.52A3.2,3.2,0,0,1,167.309.176a2.963,2.963,0,0,1-2.329-1V3.656h-2.54V-9.51h2.355l.088.932a2.985,2.985,0,0,1,2.408-1.107,3.22,3.22,0,0,1,2.733,1.3A5.858,5.858,0,0,1,171-4.8Zm-2.54-.185a3.743,3.743,0,0,0-.47-2.048,1.532,1.532,0,0,0-1.367-.721,1.663,1.663,0,0,0-1.644.914v3.894a1.692,1.692,0,0,0,1.661.94Q168.46-1.872,168.46-4.852Zm9.457-2.276A6.9,6.9,0,0,0,177-7.2a1.86,1.86,0,0,0-1.89.976V0h-2.54V-9.51h2.4l.07,1.134a2.354,2.354,0,0,1,2.118-1.31,2.662,2.662,0,0,1,.791.114ZM181.819,0h-2.549V-9.51h2.549Zm-2.7-11.971a1.251,1.251,0,0,1,.382-.94,1.436,1.436,0,0,1,1.042-.369,1.44,1.44,0,0,1,1.037.369,1.244,1.244,0,0,1,.387.94,1.247,1.247,0,0,1-.391.949,1.443,1.443,0,0,1-1.033.369,1.443,1.443,0,0,1-1.033-.369A1.247,1.247,0,0,1,179.121-11.971Zm7.172,2.461.079,1.063a3.342,3.342,0,0,1,2.733-1.239,2.536,2.536,0,0,1,2.522,1.45,3.265,3.265,0,0,1,2.856-1.45,2.836,2.836,0,0,1,2.3.9,4.141,4.141,0,0,1,.756,2.711V0h-2.549V-6.064a1.811,1.811,0,0,0-.316-1.182,1.4,1.4,0,0,0-1.116-.374,1.585,1.585,0,0,0-1.582,1.09L191.988,0h-2.54V-6.056a1.789,1.789,0,0,0-.325-1.2,1.416,1.416,0,0,0-1.107-.369,1.646,1.646,0,0,0-1.564.9V0h-2.54V-9.51ZM205,0a2.821,2.821,0,0,1-.255-.853,3.073,3.073,0,0,1-2.4,1.028,3.376,3.376,0,0,1-2.316-.809,2.6,2.6,0,0,1-.918-2.039,2.687,2.687,0,0,1,1.121-2.32,5.529,5.529,0,0,1,3.239-.817h1.169v-.545a1.567,1.567,0,0,0-.338-1.055,1.331,1.331,0,0,0-1.068-.4,1.513,1.513,0,0,0-1.006.308,1.045,1.045,0,0,0-.365.844h-2.54a2.551,2.551,0,0,1,.51-1.529,3.37,3.37,0,0,1,1.441-1.1,5.253,5.253,0,0,1,2.092-.4,4.15,4.15,0,0,1,2.791.883,3.09,3.09,0,0,1,1.033,2.483V-2.2a4.546,4.546,0,0,0,.378,2.048V0Zm-2.1-1.767a2.188,2.188,0,0,0,1.037-.25,1.645,1.645,0,0,0,.7-.672V-4.324H203.7q-1.907,0-2.03,1.318l-.009.149a1.017,1.017,0,0,0,.334.782A1.3,1.3,0,0,0,202.9-1.767Z" transform="translate(-2068 -634.569)" fill="#def1f0"/>
    <line id="Línea_824" data-name="Línea 824" y2="19" transform="translate(-1965 -607.569)" fill="none" stroke="#12263f" stroke-miterlimit="10" stroke-width="2"/>
    <line id="Línea_946" data-name="Línea 946" y2="26" transform="translate(-1905 -588.569)" fill="none" stroke="#12263f" stroke-miterlimit="10" stroke-width="2"/>
    <line id="Línea_947" data-name="Línea 947" y2="85.069" transform="translate(-2028 -588.569)" fill="none" stroke="#12263f" stroke-miterlimit="10" stroke-width="2"/>
    <line id="Línea_948" data-name="Línea 948" y2="142" transform="translate(-2028 -443.5)" fill="none" stroke="#12263f" stroke-miterlimit="10" stroke-width="2"/>
    <line id="Línea_951" data-name="Línea 951" y2="142" transform="translate(-1775.472 -443.5)" fill="none" stroke="#12263f" stroke-miterlimit="10" stroke-width="2"/>
    <line id="Línea_949" data-name="Línea 949" y2="142" transform="translate(-1905 -502.569)" fill="none" stroke="#12263f" stroke-miterlimit="10" stroke-width="2"/>
    <line id="Línea_950" data-name="Línea 950" y2="142" transform="translate(-2155.546 -502.569)" fill="none" stroke="#12263f" stroke-miterlimit="10" stroke-width="2"/>
    <path id="Trazado_274526" data-name="Trazado 274526" d="M92.3,204.491H9.45c-3.882,0-7.029-4.841-7.029-10.813V155.8c0-5.972,3.147-10.813,7.029-10.813H92.3c3.882,0,7.028,4.841,7.028,10.813v37.875c0,5.972-3.147,10.813-7.028,10.813" transform="translate(-2208.421 -707.991)" fill="#dbf9bd"/>
    <path id="Trazado_815556" data-name="Trazado 815556" d="M127.308,204.491H12.187c-5.394,0-9.766-4.841-9.766-10.813V155.8c0-5.972,4.373-10.813,9.766-10.813H127.308c5.394,0,9.766,4.841,9.766,10.813v37.875c0,5.972-4.372,10.813-9.766,10.813" transform="translate(-2098.557 -648.491)" fill="#dbf9bd"/>
    <path id="Trazado_815557" data-name="Trazado 815557" d="M92.3,204.491H9.45c-3.882,0-7.029-4.841-7.029-10.813V155.8c0-5.972,3.147-10.813,7.029-10.813H92.3c3.882,0,7.028,4.841,7.028,10.813v37.875c0,5.972-3.147,10.813-7.028,10.813" transform="translate(-1956.421 -707.991)" fill="#dbf9bd"/>
    <path id="Trazado_815558" data-name="Trazado 815558" d="M129.05,204.491H12.323c-5.469,0-9.9-4.841-9.9-10.813V155.8c0-5.972,4.434-10.813,9.9-10.813H129.05c5.469,0,9.9,4.841,9.9,10.813v37.875c0,5.972-4.433,10.813-9.9,10.813" transform="translate(-1859.512 -648.491)" fill="#dbf9bd"/>
    <path id="Trazado_815680" data-name="Trazado 815680" d="M-22.675-4.026a4.277,4.277,0,0,1-1.44,3.071A5.058,5.058,0,0,1-27.539.166,4.548,4.548,0,0,1-31.2-1.4a6.416,6.416,0,0,1-1.332-4.3v-.739A7.245,7.245,0,0,1-31.914-9.5a4.6,4.6,0,0,1,1.756-2.038,4.918,4.918,0,0,1,2.652-.71,4.927,4.927,0,0,1,3.37,1.121,4.6,4.6,0,0,1,1.478,3.146h-2.49a2.524,2.524,0,0,0-.652-1.7,2.413,2.413,0,0,0-1.706-.527,2.116,2.116,0,0,0-1.864.892A5,5,0,0,0-30-6.549v.913a5.352,5.352,0,0,0,.594,2.864,2.077,2.077,0,0,0,1.872.9,2.458,2.458,0,0,0,1.722-.527,2.381,2.381,0,0,0,.652-1.631Zm.713-.548a5.327,5.327,0,0,1,.515-2.382,3.768,3.768,0,0,1,1.482-1.619,4.323,4.323,0,0,1,2.245-.573,4.09,4.09,0,0,1,2.968,1.112A4.464,4.464,0,0,1-13.47-5.014l.017.614a4.694,4.694,0,0,1-1.154,3.316A4.011,4.011,0,0,1-17.7.166a4.031,4.031,0,0,1-3.1-1.245,4.777,4.777,0,0,1-1.158-3.387Zm2.4.17a3.357,3.357,0,0,0,.481,1.958,1.588,1.588,0,0,0,1.378.678,1.592,1.592,0,0,0,1.361-.669,3.674,3.674,0,0,0,.49-2.141,3.324,3.324,0,0,0-.49-1.945,1.592,1.592,0,0,0-1.378-.69,1.566,1.566,0,0,0-1.361.686A3.735,3.735,0,0,0-19.563-4.4Zm9.445-4.578.075,1a3.156,3.156,0,0,1,2.582-1.17,2.4,2.4,0,0,1,2.382,1.37,3.084,3.084,0,0,1,2.7-1.37A2.679,2.679,0,0,1-.207-8.3,3.911,3.911,0,0,1,.507-5.736V0H-1.9V-5.728a1.71,1.71,0,0,0-.3-1.116A1.324,1.324,0,0,0-3.253-7.2,1.5,1.5,0,0,0-4.747-6.167L-4.739,0h-2.4V-5.719a1.689,1.689,0,0,0-.307-1.129A1.337,1.337,0,0,0-8.491-7.2a1.555,1.555,0,0,0-1.478.847V0h-2.4V-8.981ZM10.044-4.408A5.387,5.387,0,0,1,9.1-1.083,3.021,3.021,0,0,1,6.558.166a2.8,2.8,0,0,1-2.2-.946V3.453h-2.4V-8.981H4.184l.083.88A2.819,2.819,0,0,1,6.541-9.147,3.041,3.041,0,0,1,9.123-7.919a5.532,5.532,0,0,1,.921,3.387Zm-2.4-.174A3.535,3.535,0,0,0,7.2-6.516,1.446,1.446,0,0,0,5.91-7.2a1.571,1.571,0,0,0-1.552.863v3.677a1.6,1.6,0,0,0,1.569.888Q7.645-1.768,7.645-4.582Zm8.541-2.15a6.517,6.517,0,0,0-.863-.066,1.757,1.757,0,0,0-1.785.921V0h-2.4V-8.981H13.4l.066,1.071a2.223,2.223,0,0,1,2-1.237,2.514,2.514,0,0,1,.747.108ZM21.9,0a2.664,2.664,0,0,1-.241-.805A2.9,2.9,0,0,1,19.4.166,3.189,3.189,0,0,1,17.21-.6a2.456,2.456,0,0,1-.867-1.926A2.538,2.538,0,0,1,17.4-4.715a5.222,5.222,0,0,1,3.059-.772h1.1V-6a1.48,1.48,0,0,0-.32-1,1.257,1.257,0,0,0-1.009-.374,1.429,1.429,0,0,0-.95.291.987.987,0,0,0-.344.8h-2.4a2.41,2.41,0,0,1,.481-1.444A3.182,3.182,0,0,1,18.385-8.77a4.961,4.961,0,0,1,1.976-.378A3.92,3.92,0,0,1,23-8.313a2.918,2.918,0,0,1,.975,2.345v3.893a4.294,4.294,0,0,0,.357,1.934V0ZM19.92-1.668a2.066,2.066,0,0,0,.979-.237,1.554,1.554,0,0,0,.664-.635V-4.084h-.9q-1.8,0-1.917,1.245l-.008.141a.96.96,0,0,0,.315.739A1.225,1.225,0,0,0,19.92-1.668Zm10.367-.813a.773.773,0,0,0-.436-.693,4.95,4.95,0,0,0-1.4-.452q-3.2-.672-3.2-2.723a2.468,2.468,0,0,1,.992-2,4,4,0,0,1,2.594-.8,4.307,4.307,0,0,1,2.735.805A2.538,2.538,0,0,1,32.595-6.25H30.2a1.161,1.161,0,0,0-.332-.851,1.405,1.405,0,0,0-1.038-.336,1.436,1.436,0,0,0-.938.274.865.865,0,0,0-.332.7.739.739,0,0,0,.378.643,3.885,3.885,0,0,0,1.274.423,10.407,10.407,0,0,1,1.511.4,2.482,2.482,0,0,1,1.9,2.416A2.343,2.343,0,0,1,31.565-.594a4.548,4.548,0,0,1-2.723.76,4.75,4.75,0,0,1-2-.4,3.363,3.363,0,0,1-1.374-1.1,2.565,2.565,0,0,1-.5-1.515h2.274a1.252,1.252,0,0,0,.473.979,1.877,1.877,0,0,0,1.179.34A1.737,1.737,0,0,0,29.934-1.8.814.814,0,0,0,30.287-2.482Z" transform="translate(-2158 -527)" fill="#12263f"/>
    <path id="Trazado_815681" data-name="Trazado 815681" d="M-51.086-12.086l3.1,8.766,3.088-8.766h3.271V0h-2.5V-3.3l.249-5.7L-47.135,0h-1.71L-52.1-9-51.85-3.3V0h-2.49V-12.086ZM-34.793,0a2.664,2.664,0,0,1-.241-.805A2.9,2.9,0,0,1-37.3.166,3.189,3.189,0,0,1-39.487-.6a2.456,2.456,0,0,1-.867-1.926A2.538,2.538,0,0,1-39.3-4.715a5.222,5.222,0,0,1,3.059-.772h1.1V-6a1.48,1.48,0,0,0-.32-1,1.257,1.257,0,0,0-1.009-.374,1.429,1.429,0,0,0-.95.291.987.987,0,0,0-.344.8h-2.4a2.41,2.41,0,0,1,.481-1.444A3.182,3.182,0,0,1-38.312-8.77a4.961,4.961,0,0,1,1.976-.378,3.92,3.92,0,0,1,2.635.834,2.918,2.918,0,0,1,.975,2.345v3.893a4.294,4.294,0,0,0,.357,1.934V0Zm-1.984-1.668a2.066,2.066,0,0,0,.979-.237,1.554,1.554,0,0,0,.664-.635V-4.084h-.9q-1.8,0-1.917,1.245l-.008.141a.96.96,0,0,0,.315.739A1.225,1.225,0,0,0-36.776-1.668Zm7.711-7.313.075,1.038a3.136,3.136,0,0,1,2.582-1.2,2.606,2.606,0,0,1,2.125.838A3.912,3.912,0,0,1-23.571-5.8V0h-2.4V-5.744A1.556,1.556,0,0,0-26.3-6.852a1.486,1.486,0,0,0-1.1-.344,1.65,1.65,0,0,0-1.519.863V0h-2.4V-8.981Zm9.794-2.208v2.208h1.536v1.76h-1.536v4.482a1.07,1.07,0,0,0,.191.714.959.959,0,0,0,.73.216,3.826,3.826,0,0,0,.706-.058V-.05A4.939,4.939,0,0,1-19.1.166a2.29,2.29,0,0,1-2.573-2.548V-7.222h-1.312v-1.76h1.312v-2.208ZM-12.657.166a4.409,4.409,0,0,1-3.217-1.212,4.308,4.308,0,0,1-1.241-3.229v-.232a5.426,5.426,0,0,1,.523-2.42A3.838,3.838,0,0,1-15.11-8.571a4.159,4.159,0,0,1,2.187-.577,3.727,3.727,0,0,1,2.9,1.162,4.722,4.722,0,0,1,1.058,3.3v.979h-5.719a2.229,2.229,0,0,0,.7,1.411,2.12,2.12,0,0,0,1.482.531,2.589,2.589,0,0,0,2.167-1l1.179,1.32A3.6,3.6,0,0,1-10.615-.261,4.793,4.793,0,0,1-12.657.166Zm-.274-7.379a1.5,1.5,0,0,0-1.158.484,2.5,2.5,0,0,0-.569,1.384h3.337v-.192a1.786,1.786,0,0,0-.432-1.238A1.547,1.547,0,0,0-12.931-7.213Zm7.146-1.768.075,1.038a3.136,3.136,0,0,1,2.582-1.2A2.606,2.606,0,0,1-1-8.309,3.912,3.912,0,0,1-.29-5.8V0h-2.4V-5.744a1.556,1.556,0,0,0-.332-1.108,1.486,1.486,0,0,0-1.1-.344,1.65,1.65,0,0,0-1.519.863V0h-2.4V-8.981ZM3.669,0H1.262V-8.981H3.669ZM1.121-11.306a1.181,1.181,0,0,1,.361-.888,1.356,1.356,0,0,1,.984-.349,1.36,1.36,0,0,1,.979.349,1.175,1.175,0,0,1,.365.888,1.178,1.178,0,0,1-.369.9,1.363,1.363,0,0,1-.975.349,1.363,1.363,0,0,1-.975-.349A1.178,1.178,0,0,1,1.121-11.306ZM7.5-8.981l.075,1a3.156,3.156,0,0,1,2.582-1.17,2.4,2.4,0,0,1,2.382,1.37,3.084,3.084,0,0,1,2.7-1.37,2.679,2.679,0,0,1,2.175.851,3.911,3.911,0,0,1,.714,2.561V0H15.721V-5.728a1.71,1.71,0,0,0-.3-1.116A1.324,1.324,0,0,0,14.368-7.2a1.5,1.5,0,0,0-1.494,1.029L12.882,0h-2.4V-5.719a1.689,1.689,0,0,0-.307-1.129A1.337,1.337,0,0,0,9.13-7.2a1.555,1.555,0,0,0-1.478.847V0h-2.4V-8.981ZM22.112,0H19.7V-8.981h2.407ZM19.563-11.306a1.181,1.181,0,0,1,.361-.888,1.356,1.356,0,0,1,.984-.349,1.36,1.36,0,0,1,.979.349,1.175,1.175,0,0,1,.365.888,1.178,1.178,0,0,1-.369.9,1.363,1.363,0,0,1-.975.349,1.363,1.363,0,0,1-.975-.349A1.178,1.178,0,0,1,19.563-11.306ZM27.83.166a4.409,4.409,0,0,1-3.217-1.212,4.308,4.308,0,0,1-1.241-3.229v-.232a5.426,5.426,0,0,1,.523-2.42,3.838,3.838,0,0,1,1.482-1.644,4.159,4.159,0,0,1,2.187-.577,3.727,3.727,0,0,1,2.9,1.162,4.722,4.722,0,0,1,1.058,3.3v.979H25.8a2.229,2.229,0,0,0,.7,1.411,2.12,2.12,0,0,0,1.482.531,2.589,2.589,0,0,0,2.167-1l1.179,1.32A3.6,3.6,0,0,1,29.872-.261,4.793,4.793,0,0,1,27.83.166Zm-.274-7.379A1.5,1.5,0,0,0,26.4-6.73a2.5,2.5,0,0,0-.569,1.384h3.337v-.192a1.786,1.786,0,0,0-.432-1.238A1.547,1.547,0,0,0,27.556-7.213ZM34.7-8.981l.075,1.038a3.136,3.136,0,0,1,2.582-1.2,2.606,2.606,0,0,1,2.125.838A3.912,3.912,0,0,1,40.2-5.8V0H37.8V-5.744a1.556,1.556,0,0,0-.332-1.108,1.486,1.486,0,0,0-1.1-.344,1.65,1.65,0,0,0-1.519.863V0h-2.4V-8.981ZM44.5-11.189v2.208h1.536v1.76H44.5v4.482a1.07,1.07,0,0,0,.191.714.959.959,0,0,0,.73.216,3.826,3.826,0,0,0,.706-.058V-.05A4.939,4.939,0,0,1,44.67.166,2.29,2.29,0,0,1,42.1-2.382V-7.222H40.786v-1.76H42.1v-2.208Zm1.859,6.616a5.327,5.327,0,0,1,.515-2.382,3.767,3.767,0,0,1,1.482-1.619A4.323,4.323,0,0,1,50.6-9.147a4.09,4.09,0,0,1,2.968,1.112,4.464,4.464,0,0,1,1.282,3.021l.017.614a4.694,4.694,0,0,1-1.154,3.316,4.011,4.011,0,0,1-3.1,1.249,4.031,4.031,0,0,1-3.1-1.245,4.777,4.777,0,0,1-1.158-3.387Zm2.4.17a3.357,3.357,0,0,0,.481,1.958,1.588,1.588,0,0,0,1.378.678,1.592,1.592,0,0,0,1.361-.669,3.674,3.674,0,0,0,.49-2.141,3.324,3.324,0,0,0-.49-1.945,1.592,1.592,0,0,0-1.378-.69,1.566,1.566,0,0,0-1.361.686A3.735,3.735,0,0,0,48.754-4.4Z" transform="translate(-2027.954 -467.5)" fill="#12263f"/>
    <path id="Trazado_815683" data-name="Trazado 815683" d="M-47.72-2.49h-4.366L-52.916,0h-2.648l4.5-12.086h2.308L-44.233,0h-2.648Zm-3.694-2.017h3.021l-1.519-4.524Zm7.387-.05A5.413,5.413,0,0,1-43.085-7.9a3.057,3.057,0,0,1,2.577-1.245,2.751,2.751,0,0,1,2.167.979V-12.75h2.407V0H-38.1l-.116-.955A2.823,2.823,0,0,1-40.524.166a3.049,3.049,0,0,1-2.544-1.249A5.587,5.587,0,0,1-44.027-4.557Zm2.4.179a3.546,3.546,0,0,0,.44,1.937,1.433,1.433,0,0,0,1.278.673,1.605,1.605,0,0,0,1.569-.939v-3.55A1.582,1.582,0,0,0-39.893-7.2Q-41.628-7.2-41.628-4.379Zm9.412-4.6.075,1a3.156,3.156,0,0,1,2.582-1.17,2.4,2.4,0,0,1,2.382,1.37,3.084,3.084,0,0,1,2.7-1.37A2.679,2.679,0,0,1-22.3-8.3a3.911,3.911,0,0,1,.714,2.561V0H-24V-5.728a1.71,1.71,0,0,0-.3-1.116A1.324,1.324,0,0,0-25.351-7.2a1.5,1.5,0,0,0-1.494,1.029L-26.837,0h-2.4V-5.719a1.689,1.689,0,0,0-.307-1.129A1.337,1.337,0,0,0-30.589-7.2a1.555,1.555,0,0,0-1.478.847V0h-2.4V-8.981ZM-17.607,0h-2.407V-8.981h2.407Zm-2.548-11.306a1.181,1.181,0,0,1,.361-.888,1.356,1.356,0,0,1,.984-.349,1.36,1.36,0,0,1,.979.349,1.175,1.175,0,0,1,.365.888,1.178,1.178,0,0,1-.369.9,1.363,1.363,0,0,1-.975.349,1.363,1.363,0,0,1-.975-.349A1.178,1.178,0,0,1-20.155-11.306Zm6.341,2.324.075,1.038a3.136,3.136,0,0,1,2.582-1.2,2.606,2.606,0,0,1,2.125.838A3.912,3.912,0,0,1-8.319-5.8V0h-2.4V-5.744a1.556,1.556,0,0,0-.332-1.108,1.486,1.486,0,0,0-1.1-.344,1.65,1.65,0,0,0-1.519.863V0h-2.4V-8.981ZM-4.361,0H-6.768V-8.981h2.407ZM-6.909-11.306a1.181,1.181,0,0,1,.361-.888,1.356,1.356,0,0,1,.984-.349,1.36,1.36,0,0,1,.979.349,1.175,1.175,0,0,1,.365.888,1.178,1.178,0,0,1-.369.9,1.363,1.363,0,0,1-.975.349,1.363,1.363,0,0,1-.975-.349A1.178,1.178,0,0,1-6.909-11.306Zm9,8.824a.773.773,0,0,0-.436-.693,4.95,4.95,0,0,0-1.4-.452Q-2.95-4.3-2.95-6.35a2.468,2.468,0,0,1,.992-2,4,4,0,0,1,2.594-.8,4.307,4.307,0,0,1,2.735.805A2.538,2.538,0,0,1,4.4-6.25H2A1.161,1.161,0,0,0,1.665-7.1,1.405,1.405,0,0,0,.627-7.437a1.436,1.436,0,0,0-.938.274.865.865,0,0,0-.332.7.739.739,0,0,0,.378.643A3.885,3.885,0,0,0,1.009-5.4,10.407,10.407,0,0,1,2.52-5a2.482,2.482,0,0,1,1.9,2.416A2.343,2.343,0,0,1,3.366-.594,4.548,4.548,0,0,1,.644.166a4.75,4.75,0,0,1-2-.4,3.363,3.363,0,0,1-1.374-1.1,2.565,2.565,0,0,1-.5-1.515H-.958a1.252,1.252,0,0,0,.473.979,1.877,1.877,0,0,0,1.179.34A1.737,1.737,0,0,0,1.735-1.8.814.814,0,0,0,2.088-2.482Zm6.358-8.708v2.208H9.981v1.76H8.446v4.482a1.07,1.07,0,0,0,.191.714.959.959,0,0,0,.73.216,3.826,3.826,0,0,0,.706-.058V-.05A4.939,4.939,0,0,1,8.62.166,2.29,2.29,0,0,1,6.047-2.382V-7.222H4.735v-1.76H6.047v-2.208Zm7.528,4.458A6.517,6.517,0,0,0,15.11-6.8a1.757,1.757,0,0,0-1.785.921V0h-2.4V-8.981h2.266l.066,1.071a2.223,2.223,0,0,1,2-1.237,2.514,2.514,0,0,1,.747.108ZM21.692,0a2.664,2.664,0,0,1-.241-.805,2.9,2.9,0,0,1-2.266.971A3.189,3.189,0,0,1,17-.6a2.456,2.456,0,0,1-.867-1.926,2.538,2.538,0,0,1,1.058-2.191,5.222,5.222,0,0,1,3.059-.772h1.1V-6a1.48,1.48,0,0,0-.32-1,1.257,1.257,0,0,0-1.009-.374,1.429,1.429,0,0,0-.95.291.987.987,0,0,0-.344.8h-2.4a2.41,2.41,0,0,1,.481-1.444A3.182,3.182,0,0,1,18.172-8.77a4.961,4.961,0,0,1,1.976-.378,3.92,3.92,0,0,1,2.635.834,2.918,2.918,0,0,1,.975,2.345v3.893a4.294,4.294,0,0,0,.357,1.934V0ZM19.708-1.668a2.066,2.066,0,0,0,.979-.237,1.554,1.554,0,0,0,.664-.635V-4.084h-.9q-1.8,0-1.917,1.245l-.008.141a.96.96,0,0,0,.315.739A1.225,1.225,0,0,0,19.708-1.668Zm9.238-.1a1.573,1.573,0,0,0,1.079-.365,1.28,1.28,0,0,0,.432-.971h2.25a3.077,3.077,0,0,1-.5,1.673A3.286,3.286,0,0,1,30.868-.253a4.2,4.2,0,0,1-1.88.419,3.9,3.9,0,0,1-3.038-1.224,4.845,4.845,0,0,1-1.112-3.383V-4.6a4.79,4.79,0,0,1,1.1-3.312,3.854,3.854,0,0,1,3.03-1.237,3.778,3.778,0,0,1,2.7.959,3.4,3.4,0,0,1,1.033,2.552h-2.25a1.648,1.648,0,0,0-.432-1.139,1.439,1.439,0,0,0-1.1-.438,1.445,1.445,0,0,0-1.266.611,3.541,3.541,0,0,0-.427,1.983v.249a3.586,3.586,0,0,0,.423,2A1.463,1.463,0,0,0,28.946-1.768ZM36.217,0H33.809V-8.981h2.407ZM33.668-11.306a1.181,1.181,0,0,1,.361-.888,1.356,1.356,0,0,1,.984-.349,1.36,1.36,0,0,1,.979.349,1.175,1.175,0,0,1,.365.888,1.178,1.178,0,0,1-.369.9,1.363,1.363,0,0,1-.975.349,1.363,1.363,0,0,1-.975-.349A1.178,1.178,0,0,1,33.668-11.306Zm3.759,6.732a5.327,5.327,0,0,1,.515-2.382,3.767,3.767,0,0,1,1.482-1.619,4.323,4.323,0,0,1,2.245-.573,4.09,4.09,0,0,1,2.968,1.112,4.464,4.464,0,0,1,1.282,3.021l.017.614a4.694,4.694,0,0,1-1.154,3.316,4.011,4.011,0,0,1-3.1,1.249,4.031,4.031,0,0,1-3.1-1.245,4.777,4.777,0,0,1-1.158-3.387Zm2.4.17a3.357,3.357,0,0,0,.481,1.958,1.588,1.588,0,0,0,1.378.678,1.592,1.592,0,0,0,1.361-.669,3.674,3.674,0,0,0,.49-2.141,3.324,3.324,0,0,0-.49-1.945,1.592,1.592,0,0,0-1.378-.69,1.566,1.566,0,0,0-1.361.686A3.735,3.735,0,0,0,39.827-4.4Zm2.316-8.347h2.615l-2.3,2.573H40.507ZM49.23-8.981l.075,1.038a3.136,3.136,0,0,1,2.582-1.2,2.606,2.606,0,0,1,2.125.838A3.912,3.912,0,0,1,54.726-5.8V0h-2.4V-5.744a1.556,1.556,0,0,0-.332-1.108,1.486,1.486,0,0,0-1.1-.344,1.65,1.65,0,0,0-1.519.863V0h-2.4V-8.981Z" transform="translate(-1786 -467.5)" fill="#12263f"/>
    <path id="Trazado_815682" data-name="Trazado 815682" d="M-25.438-4.939H-30.22V0h-2.49V-12.086h7.869v2.017H-30.22v3.121h4.781ZM-19.023,0a2.664,2.664,0,0,1-.241-.805A2.9,2.9,0,0,1-21.53.166,3.189,3.189,0,0,1-23.717-.6a2.456,2.456,0,0,1-.867-1.926,2.538,2.538,0,0,1,1.058-2.191,5.222,5.222,0,0,1,3.059-.772h1.1V-6a1.48,1.48,0,0,0-.32-1,1.257,1.257,0,0,0-1.009-.374,1.429,1.429,0,0,0-.95.291.987.987,0,0,0-.344.8h-2.4A2.41,2.41,0,0,1-23.9-7.728,3.182,3.182,0,0,1-22.542-8.77a4.961,4.961,0,0,1,1.976-.378,3.92,3.92,0,0,1,2.635.834,2.918,2.918,0,0,1,.975,2.345v3.893A4.294,4.294,0,0,0-16.6-.141V0Zm-1.984-1.668a2.066,2.066,0,0,0,.979-.237,1.554,1.554,0,0,0,.664-.635V-4.084h-.9q-1.8,0-1.917,1.245l-.008.141a.96.96,0,0,0,.315.739A1.225,1.225,0,0,0-21.007-1.668ZM-12.972,0H-15.38V-12.75h2.407Zm4.457-11.189v2.208H-6.98v1.76H-8.516v4.482a1.07,1.07,0,0,0,.191.714.959.959,0,0,0,.73.216,3.826,3.826,0,0,0,.706-.058V-.05A4.939,4.939,0,0,1-8.341.166a2.29,2.29,0,0,1-2.573-2.548V-7.222h-1.312v-1.76h1.312v-2.208ZM-.83,0a2.664,2.664,0,0,1-.241-.805A2.9,2.9,0,0,1-3.337.166,3.189,3.189,0,0,1-5.524-.6a2.456,2.456,0,0,1-.867-1.926A2.538,2.538,0,0,1-5.333-4.715a5.222,5.222,0,0,1,3.059-.772h1.1V-6a1.48,1.48,0,0,0-.32-1A1.257,1.257,0,0,0-2.5-7.371a1.429,1.429,0,0,0-.95.291.987.987,0,0,0-.344.8h-2.4a2.41,2.41,0,0,1,.481-1.444A3.182,3.182,0,0,1-4.35-8.77a4.961,4.961,0,0,1,1.976-.378,3.92,3.92,0,0,1,2.635.834,2.918,2.918,0,0,1,.975,2.345v3.893A4.294,4.294,0,0,0,1.594-.141V0ZM-2.814-1.668a2.066,2.066,0,0,0,.979-.237A1.554,1.554,0,0,0-1.17-2.54V-4.084h-.9q-1.8,0-1.917,1.245l-.008.141a.96.96,0,0,0,.315.739A1.225,1.225,0,0,0-2.814-1.668ZM4.9-8.981l.075,1.038a3.136,3.136,0,0,1,2.582-1.2,2.606,2.606,0,0,1,2.125.838A3.912,3.912,0,0,1,10.392-5.8V0h-2.4V-5.744a1.556,1.556,0,0,0-.332-1.108,1.486,1.486,0,0,0-1.1-.344,1.65,1.65,0,0,0-1.519.863V0h-2.4V-8.981Zm9.794-2.208v2.208h1.536v1.76H14.691v4.482a1.07,1.07,0,0,0,.191.714.959.959,0,0,0,.73.216,3.826,3.826,0,0,0,.706-.058V-.05a4.939,4.939,0,0,1-1.453.216,2.29,2.29,0,0,1-2.573-2.548V-7.222H10.98v-1.76h1.312v-2.208ZM21.306.166a4.409,4.409,0,0,1-3.217-1.212,4.308,4.308,0,0,1-1.241-3.229v-.232a5.426,5.426,0,0,1,.523-2.42,3.838,3.838,0,0,1,1.482-1.644,4.159,4.159,0,0,1,2.187-.577,3.727,3.727,0,0,1,2.9,1.162A4.722,4.722,0,0,1,25-4.69v.979H19.28a2.229,2.229,0,0,0,.7,1.411,2.12,2.12,0,0,0,1.482.531,2.589,2.589,0,0,0,2.167-1l1.179,1.32A3.6,3.6,0,0,1,23.348-.261,4.793,4.793,0,0,1,21.306.166Zm-.274-7.379a1.5,1.5,0,0,0-1.158.484,2.5,2.5,0,0,0-.569,1.384h3.337v-.192a1.786,1.786,0,0,0-.432-1.238A1.547,1.547,0,0,0,21.032-7.213Zm9.8,4.731a.773.773,0,0,0-.436-.693A4.95,4.95,0,0,0,29-3.627Q25.8-4.3,25.8-6.35a2.468,2.468,0,0,1,.992-2,4,4,0,0,1,2.594-.8,4.307,4.307,0,0,1,2.735.805A2.538,2.538,0,0,1,33.142-6.25h-2.4a1.161,1.161,0,0,0-.332-.851,1.405,1.405,0,0,0-1.038-.336,1.436,1.436,0,0,0-.938.274.865.865,0,0,0-.332.7.739.739,0,0,0,.378.643,3.885,3.885,0,0,0,1.274.423,10.407,10.407,0,0,1,1.511.4,2.482,2.482,0,0,1,1.9,2.416A2.343,2.343,0,0,1,32.112-.594a4.548,4.548,0,0,1-2.723.76,4.75,4.75,0,0,1-2-.4,3.363,3.363,0,0,1-1.374-1.1,2.565,2.565,0,0,1-.5-1.515h2.274a1.252,1.252,0,0,0,.473.979,1.877,1.877,0,0,0,1.179.34A1.737,1.737,0,0,0,30.481-1.8.814.814,0,0,0,30.834-2.482Z" transform="translate(-1905 -527)" fill="#12263f"/>
    <path id="Trazado_815559" data-name="Trazado 815559" d="M-2102.546-4875v-26.07h380.073V-4815" transform="translate(-53 4312.431)" fill="none" stroke="#12263f" stroke-width="2"/>
    <rect id="Rectángulo_375974" data-name="Rectángulo 375974" width="164" height="95" transform="translate(-2214 -421)" fill="#fffad0"/>
    <rect id="Rectángulo_375977" data-name="Rectángulo 375977" width="164" height="95" transform="translate(-1990 -421)" fill="#fffad0"/>
    <rect id="Rectángulo_375975" data-name="Rectángulo 375975" width="150" height="95" transform="translate(-1871 -304)" fill="#fffad0"/>
    <rect id="Rectángulo_375976" data-name="Rectángulo 375976" width="150" height="95" transform="translate(-2103 -304)" fill="#fffad0"/>
    <path id="Trazado_815684" data-name="Trazado 815684" d="M2.82-4.453V0H1.32V-11.375h4.2a4.215,4.215,0,0,1,2.926.953A3.231,3.231,0,0,1,9.5-7.9,3.189,3.189,0,0,1,8.465-5.348,4.4,4.4,0,0,1,5.5-4.453Zm0-1.227h2.7a2.7,2.7,0,0,0,1.844-.567A2.075,2.075,0,0,0,8-7.887a2.143,2.143,0,0,0-.641-1.628A2.525,2.525,0,0,0,5.6-10.148H2.82ZM15.273-7.156a4.331,4.331,0,0,0-.711-.055A1.9,1.9,0,0,0,12.633-6V0H11.188V-8.453h1.406l.023.977a2.251,2.251,0,0,1,2.016-1.133,1.477,1.477,0,0,1,.641.109ZM19.817.156a3.693,3.693,0,0,1-2.8-1.129,4.19,4.19,0,0,1-1.078-3.02v-.266a5.073,5.073,0,0,1,.48-2.246,3.748,3.748,0,0,1,1.344-1.547,3.378,3.378,0,0,1,1.871-.559A3.166,3.166,0,0,1,22.2-7.523a4.7,4.7,0,0,1,.914,3.109v.6H17.387a3,3,0,0,0,.73,2.02,2.3,2.3,0,0,0,1.777.77,2.517,2.517,0,0,0,1.3-.312,3.259,3.259,0,0,0,.93-.828L23-1.477A3.55,3.55,0,0,1,19.817.156Zm-.18-7.578a1.928,1.928,0,0,0-1.469.637A3.1,3.1,0,0,0,17.434-5h4.234v-.109a2.753,2.753,0,0,0-.594-1.707A1.815,1.815,0,0,0,19.637-7.422Zm8.539,6.4a2.082,2.082,0,0,0,1.352-.469,1.649,1.649,0,0,0,.641-1.172h1.367a2.621,2.621,0,0,1-.5,1.383,3.293,3.293,0,0,1-1.23,1.047,3.55,3.55,0,0,1-1.629.391A3.482,3.482,0,0,1,25.43-1a4.59,4.59,0,0,1-1.02-3.152v-.242a5.089,5.089,0,0,1,.453-2.2,3.451,3.451,0,0,1,1.3-1.492,3.7,3.7,0,0,1,2-.531,3.39,3.39,0,0,1,2.363.852,3.043,3.043,0,0,1,1,2.211H30.168a1.992,1.992,0,0,0-.621-1.348,1.932,1.932,0,0,0-1.379-.527,2.023,2.023,0,0,0-1.707.793,3.724,3.724,0,0,0-.605,2.293v.273a3.65,3.65,0,0,0,.6,2.25A2.033,2.033,0,0,0,28.176-1.023ZM34.731,0H33.286V-8.453h1.445ZM33.168-10.7a.863.863,0,0,1,.215-.594.807.807,0,0,1,.637-.242.819.819,0,0,1,.641.242.854.854,0,0,1,.219.594.826.826,0,0,1-.219.586.834.834,0,0,1-.641.234.821.821,0,0,1-.637-.234A.834.834,0,0,1,33.168-10.7ZM36.661-4.3a4.993,4.993,0,0,1,.488-2.234A3.643,3.643,0,0,1,38.508-8.07,3.7,3.7,0,0,1,40.5-8.609a3.565,3.565,0,0,1,2.793,1.2,4.6,4.6,0,0,1,1.066,3.18v.1a5.036,5.036,0,0,1-.473,2.215A3.589,3.589,0,0,1,42.532-.391a3.743,3.743,0,0,1-2.02.547,3.556,3.556,0,0,1-2.785-1.2A4.575,4.575,0,0,1,36.661-4.2Zm1.453.172a3.616,3.616,0,0,0,.652,2.258,2.088,2.088,0,0,0,1.746.852,2.075,2.075,0,0,0,1.75-.863A3.955,3.955,0,0,0,42.911-4.3a3.61,3.61,0,0,0-.66-2.254A2.1,2.1,0,0,0,40.5-7.422a2.075,2.075,0,0,0-1.727.852A3.925,3.925,0,0,0,38.114-4.133ZM49.778-4.3A4.952,4.952,0,0,1,50.7-7.426a2.915,2.915,0,0,1,2.414-1.184,2.932,2.932,0,0,1,2.352,1.016V-12h1.445V0H55.583l-.07-.906A2.943,2.943,0,0,1,53.1.156a2.887,2.887,0,0,1-2.395-1.2,5.008,5.008,0,0,1-.926-3.141Zm1.445.164a3.749,3.749,0,0,0,.594,2.25,1.92,1.92,0,0,0,1.641.813A2.108,2.108,0,0,0,55.465-2.3V-6.187a2.125,2.125,0,0,0-1.992-1.2,1.929,1.929,0,0,0-1.656.82A4.128,4.128,0,0,0,51.223-4.133ZM62.661.156a3.693,3.693,0,0,1-2.8-1.129,4.19,4.19,0,0,1-1.078-3.02v-.266a5.073,5.073,0,0,1,.48-2.246A3.748,3.748,0,0,1,60.61-8.051a3.378,3.378,0,0,1,1.871-.559,3.166,3.166,0,0,1,2.563,1.086,4.7,4.7,0,0,1,.914,3.109v.6H60.231a3,3,0,0,0,.73,2.02,2.3,2.3,0,0,0,1.777.77,2.517,2.517,0,0,0,1.3-.312,3.259,3.259,0,0,0,.93-.828l.883.688A3.55,3.55,0,0,1,62.661.156Zm-.18-7.578a1.928,1.928,0,0,0-1.469.637A3.1,3.1,0,0,0,60.278-5h4.234v-.109a2.753,2.753,0,0,0-.594-1.707A1.815,1.815,0,0,0,62.481-7.422Zm12.5,6.4a2.082,2.082,0,0,0,1.352-.469,1.649,1.649,0,0,0,.641-1.172H78.34a2.621,2.621,0,0,1-.5,1.383A3.293,3.293,0,0,1,76.61-.234a3.55,3.55,0,0,1-1.629.391A3.482,3.482,0,0,1,72.235-1a4.59,4.59,0,0,1-1.02-3.152v-.242a5.089,5.089,0,0,1,.453-2.2,3.451,3.451,0,0,1,1.3-1.492,3.7,3.7,0,0,1,2-.531,3.39,3.39,0,0,1,2.363.852,3.043,3.043,0,0,1,1,2.211H76.973a1.992,1.992,0,0,0-.621-1.348,1.932,1.932,0,0,0-1.379-.527,2.023,2.023,0,0,0-1.707.793,3.724,3.724,0,0,0-.605,2.293v.273a3.65,3.65,0,0,0,.6,2.25A2.033,2.033,0,0,0,74.981-1.023Zm4.6-3.281a4.993,4.993,0,0,1,.488-2.234A3.643,3.643,0,0,1,81.43-8.07a3.7,3.7,0,0,1,1.988-.539,3.565,3.565,0,0,1,2.793,1.2,4.6,4.6,0,0,1,1.066,3.18v.1a5.036,5.036,0,0,1-.473,2.215A3.589,3.589,0,0,1,85.454-.391a3.743,3.743,0,0,1-2.02.547,3.556,3.556,0,0,1-2.785-1.2A4.575,4.575,0,0,1,79.583-4.2Zm1.453.172a3.616,3.616,0,0,0,.652,2.258,2.088,2.088,0,0,0,1.746.852,2.075,2.075,0,0,0,1.75-.863A3.955,3.955,0,0,0,85.833-4.3a3.61,3.61,0,0,0-.66-2.254,2.1,2.1,0,0,0-1.754-.863,2.075,2.075,0,0,0-1.727.852A3.925,3.925,0,0,0,81.036-4.133Zm9.414-4.32.039.938A3.122,3.122,0,0,1,93-8.609,2.417,2.417,0,0,1,95.411-7.25a3.2,3.2,0,0,1,1.1-.984,3.242,3.242,0,0,1,1.6-.375q2.781,0,2.828,2.945V0H99.489V-5.578a1.941,1.941,0,0,0-.414-1.355,1.823,1.823,0,0,0-1.391-.449,1.916,1.916,0,0,0-1.336.48,1.949,1.949,0,0,0-.617,1.293V0H94.278V-5.539a1.613,1.613,0,0,0-1.8-1.844,1.934,1.934,0,0,0-1.945,1.211V0H89.083V-8.453Zm19.8,4.32a5.062,5.062,0,0,1-.883,3.109,2.829,2.829,0,0,1-2.391,1.18,3.1,3.1,0,0,1-2.422-.977V3.25h-1.445v-11.7h1.32l.07.938a2.977,2.977,0,0,1,2.453-1.094,2.882,2.882,0,0,1,2.41,1.148,5.117,5.117,0,0,1,.887,3.2ZM108.809-4.3a3.735,3.735,0,0,0-.609-2.258,1.963,1.963,0,0,0-1.672-.828,2.125,2.125,0,0,0-1.969,1.164V-2.18a2.129,2.129,0,0,0,1.984,1.156,1.954,1.954,0,0,0,1.652-.824A4.077,4.077,0,0,0,108.809-4.3Zm7.367-2.859a4.331,4.331,0,0,0-.711-.055A1.9,1.9,0,0,0,113.536-6V0H112.09V-8.453H113.5l.023.977a2.251,2.251,0,0,1,2.016-1.133,1.477,1.477,0,0,1,.641.109ZM122.107,0a3.036,3.036,0,0,1-.2-.891A3.225,3.225,0,0,1,119.5.156a2.984,2.984,0,0,1-2.051-.707,2.288,2.288,0,0,1-.8-1.793,2.39,2.39,0,0,1,1-2.051,4.733,4.733,0,0,1,2.824-.73h1.406v-.664A1.623,1.623,0,0,0,121.427-7a1.821,1.821,0,0,0-1.336-.449,2.108,2.108,0,0,0-1.3.391,1.151,1.151,0,0,0-.523.945h-1.453a2,2,0,0,1,.449-1.223,3.066,3.066,0,0,1,1.219-.934,4.1,4.1,0,0,1,1.691-.344,3.342,3.342,0,0,1,2.289.73,2.635,2.635,0,0,1,.859,2.012v3.891a4.757,4.757,0,0,0,.3,1.852V0Zm-2.4-1.1A2.54,2.54,0,0,0,121-1.453a2.127,2.127,0,0,0,.883-.914V-4.1h-1.133q-2.656,0-2.656,1.555a1.316,1.316,0,0,0,.453,1.063A1.742,1.742,0,0,0,119.708-1.1Z" transform="translate(-2196.748 -386.116)" fill="#12263f"/>
    <path id="Trazado_815685" data-name="Trazado 815685" d="M4.1-4.242H.289v-1.18H4.1ZM9.7,0V-11.375h3.211a5.169,5.169,0,0,1,2.625.656,4.438,4.438,0,0,1,1.762,1.867,6.078,6.078,0,0,1,.629,2.781v.727a6.1,6.1,0,0,1-.621,2.82A4.369,4.369,0,0,1,15.527-.664,5.5,5.5,0,0,1,12.844,0Zm1.5-10.148v8.922h1.578a3.434,3.434,0,0,0,2.7-1.079,4.458,4.458,0,0,0,.965-3.073v-.665a4.529,4.529,0,0,0-.91-3.014,3.239,3.239,0,0,0-2.582-1.091ZM23.469.156a3.693,3.693,0,0,1-2.8-1.129,4.19,4.19,0,0,1-1.078-3.02v-.266a5.073,5.073,0,0,1,.48-2.246,3.748,3.748,0,0,1,1.344-1.547,3.378,3.378,0,0,1,1.871-.559,3.166,3.166,0,0,1,2.563,1.086,4.7,4.7,0,0,1,.914,3.109v.6H21.039a3,3,0,0,0,.73,2.02,2.3,2.3,0,0,0,1.777.77,2.517,2.517,0,0,0,1.3-.312,3.259,3.259,0,0,0,.93-.828l.883.688A3.55,3.55,0,0,1,23.469.156Zm-.18-7.578a1.928,1.928,0,0,0-1.469.637A3.1,3.1,0,0,0,21.086-5H25.32v-.109a2.753,2.753,0,0,0-.594-1.707A1.815,1.815,0,0,0,23.289-7.422Zm10.07,5.18a1.064,1.064,0,0,0-.441-.91,4.249,4.249,0,0,0-1.539-.559,7.277,7.277,0,0,1-1.742-.562,2.479,2.479,0,0,1-.953-.781,1.869,1.869,0,0,1-.309-1.078,2.193,2.193,0,0,1,.879-1.758A3.432,3.432,0,0,1,31.5-8.609a3.532,3.532,0,0,1,2.332.742,2.357,2.357,0,0,1,.895,1.9H33.273a1.3,1.3,0,0,0-.5-1.023,1.888,1.888,0,0,0-1.27-.43,1.976,1.976,0,0,0-1.234.344,1.082,1.082,0,0,0-.445.9.877.877,0,0,0,.414.789,5.1,5.1,0,0,0,1.5.508,7.8,7.8,0,0,1,1.754.578,2.558,2.558,0,0,1,1,.809A1.988,1.988,0,0,1,34.8-2.344,2.163,2.163,0,0,1,33.9-.527a3.8,3.8,0,0,1-2.352.684A4.257,4.257,0,0,1,29.75-.2a2.922,2.922,0,0,1-1.223-1A2.42,2.42,0,0,1,28.086-2.6h1.445a1.5,1.5,0,0,0,.582,1.152,2.258,2.258,0,0,0,1.434.426,2.331,2.331,0,0,0,1.316-.332A1.02,1.02,0,0,0,33.359-2.242Zm6.719,1.219a2.082,2.082,0,0,0,1.352-.469,1.649,1.649,0,0,0,.641-1.172h1.367a2.621,2.621,0,0,1-.5,1.383,3.293,3.293,0,0,1-1.23,1.047,3.55,3.55,0,0,1-1.629.391A3.482,3.482,0,0,1,37.332-1a4.59,4.59,0,0,1-1.02-3.152v-.242a5.089,5.089,0,0,1,.453-2.2,3.451,3.451,0,0,1,1.3-1.492,3.7,3.7,0,0,1,2-.531,3.39,3.39,0,0,1,2.363.852,3.043,3.043,0,0,1,1,2.211H42.07a1.992,1.992,0,0,0-.621-1.348,1.932,1.932,0,0,0-1.379-.527,2.023,2.023,0,0,0-1.707.793,3.724,3.724,0,0,0-.605,2.293v.273a3.65,3.65,0,0,0,.6,2.25A2.033,2.033,0,0,0,40.078-1.023Zm10.2.188A3.07,3.07,0,0,1,47.8.156a2.628,2.628,0,0,1-2.059-.785,3.4,3.4,0,0,1-.715-2.324v-5.5h1.445v5.461q0,1.922,1.563,1.922a2.163,2.163,0,0,0,2.2-1.234V-8.453h1.445V0H50.313Zm7.109.992a3.693,3.693,0,0,1-2.8-1.129,4.19,4.19,0,0,1-1.078-3.02v-.266A5.073,5.073,0,0,1,54-6.5,3.748,3.748,0,0,1,55.34-8.051a3.378,3.378,0,0,1,1.871-.559,3.166,3.166,0,0,1,2.563,1.086,4.7,4.7,0,0,1,.914,3.109v.6H54.961a3,3,0,0,0,.73,2.02,2.3,2.3,0,0,0,1.777.77,2.517,2.517,0,0,0,1.3-.312,3.259,3.259,0,0,0,.93-.828l.883.688A3.55,3.55,0,0,1,57.391.156Zm-.18-7.578a1.928,1.928,0,0,0-1.469.637A3.1,3.1,0,0,0,55.008-5h4.234v-.109a2.753,2.753,0,0,0-.594-1.707A1.815,1.815,0,0,0,57.211-7.422Zm6.516-1.031.047,1.063A3.08,3.08,0,0,1,66.3-8.609q2.68,0,2.7,3.023V0H67.563V-5.594a1.946,1.946,0,0,0-.418-1.352,1.675,1.675,0,0,0-1.277-.437,2.086,2.086,0,0,0-1.234.375,2.546,2.546,0,0,0-.828.984V0H62.359V-8.453ZM73.148-10.5v2.047h1.578v1.117H73.148v5.249a1.173,1.173,0,0,0,.211.763.888.888,0,0,0,.719.254,3.5,3.5,0,0,0,.688-.094V0a4.215,4.215,0,0,1-1.109.155A1.8,1.8,0,0,1,72.2-.43,2.517,2.517,0,0,1,71.7-2.094V-7.336H70.164V-8.453H71.7V-10.5Zm2.583,6.2a4.993,4.993,0,0,1,.488-2.234A3.643,3.643,0,0,1,77.579-8.07a3.7,3.7,0,0,1,1.988-.539,3.565,3.565,0,0,1,2.793,1.2,4.6,4.6,0,0,1,1.066,3.18v.1a5.036,5.036,0,0,1-.473,2.215A3.589,3.589,0,0,1,81.6-.391a3.743,3.743,0,0,1-2.02.547,3.556,3.556,0,0,1-2.785-1.2A4.575,4.575,0,0,1,75.731-4.2Zm1.453.172a3.616,3.616,0,0,0,.652,2.258,2.088,2.088,0,0,0,1.746.852,2.075,2.075,0,0,0,1.75-.863A3.955,3.955,0,0,0,81.981-4.3a3.61,3.61,0,0,0-.66-2.254,2.1,2.1,0,0,0-1.754-.863,2.075,2.075,0,0,0-1.727.852A3.925,3.925,0,0,0,77.184-4.133ZM90.161-2.242a1.064,1.064,0,0,0-.441-.91,4.249,4.249,0,0,0-1.539-.559,7.277,7.277,0,0,1-1.742-.562,2.479,2.479,0,0,1-.953-.781,1.869,1.869,0,0,1-.309-1.078,2.193,2.193,0,0,1,.879-1.758A3.432,3.432,0,0,1,88.3-8.609a3.532,3.532,0,0,1,2.332.742,2.357,2.357,0,0,1,.895,1.9H90.075a1.3,1.3,0,0,0-.5-1.023,1.888,1.888,0,0,0-1.27-.43,1.976,1.976,0,0,0-1.234.344,1.082,1.082,0,0,0-.445.9.877.877,0,0,0,.414.789,5.1,5.1,0,0,0,1.5.508,7.8,7.8,0,0,1,1.754.578,2.558,2.558,0,0,1,1,.809,1.988,1.988,0,0,1,.324,1.152A2.163,2.163,0,0,1,90.7-.527a3.8,3.8,0,0,1-2.352.684,4.257,4.257,0,0,1-1.8-.359,2.922,2.922,0,0,1-1.223-1A2.42,2.42,0,0,1,84.887-2.6h1.445a1.5,1.5,0,0,0,.582,1.152,2.258,2.258,0,0,0,1.434.426,2.331,2.331,0,0,0,1.316-.332A1.02,1.02,0,0,0,90.161-2.242Z" transform="translate(-2196.748 -368.116)" fill="#12263f"/>
    <path id="Trazado_815686" data-name="Trazado 815686" d="M5.234-6.1H8.406v1.367H5.234v3.594H3.781V-4.734H.609V-6.1H3.781v-3.32H5.234ZM18.25-10.148H14.594V0H13.1V-10.148H9.453v-1.227h8.8Zm4.385,2.992a4.331,4.331,0,0,0-.711-.055A1.9,1.9,0,0,0,19.994-6V0H18.549V-8.453h1.406l.023.977a2.251,2.251,0,0,1,2.016-1.133,1.477,1.477,0,0,1,.641.109ZM28.565,0a3.036,3.036,0,0,1-.2-.891A3.225,3.225,0,0,1,25.956.156a2.984,2.984,0,0,1-2.051-.707,2.287,2.287,0,0,1-.8-1.793,2.39,2.39,0,0,1,1-2.051,4.733,4.733,0,0,1,2.824-.73h1.406v-.664A1.623,1.623,0,0,0,27.886-7a1.821,1.821,0,0,0-1.336-.449,2.108,2.108,0,0,0-1.3.391,1.151,1.151,0,0,0-.523.945H23.276a2,2,0,0,1,.449-1.223,3.066,3.066,0,0,1,1.219-.934,4.1,4.1,0,0,1,1.691-.344,3.342,3.342,0,0,1,2.289.73,2.635,2.635,0,0,1,.859,2.012v3.891a4.757,4.757,0,0,0,.3,1.852V0Zm-2.4-1.1a2.54,2.54,0,0,0,1.289-.352,2.127,2.127,0,0,0,.883-.914V-4.1H27.206q-2.656,0-2.656,1.555A1.316,1.316,0,0,0,25-1.484,1.742,1.742,0,0,0,26.167-1.1Zm7.25-7.352.047,1.063a3.08,3.08,0,0,1,2.531-1.219q2.68,0,2.7,3.023V0H37.253V-5.594a1.946,1.946,0,0,0-.418-1.352,1.675,1.675,0,0,0-1.277-.437,2.086,2.086,0,0,0-1.234.375,2.546,2.546,0,0,0-.828.984V0H32.05V-8.453ZM45.8-2.242a1.064,1.064,0,0,0-.441-.91,4.249,4.249,0,0,0-1.539-.559,7.277,7.277,0,0,1-1.742-.562,2.479,2.479,0,0,1-.953-.781,1.869,1.869,0,0,1-.309-1.078,2.193,2.193,0,0,1,.879-1.758,3.432,3.432,0,0,1,2.246-.719,3.532,3.532,0,0,1,2.332.742,2.357,2.357,0,0,1,.895,1.9H45.714a1.3,1.3,0,0,0-.5-1.023,1.888,1.888,0,0,0-1.27-.43,1.976,1.976,0,0,0-1.234.344,1.082,1.082,0,0,0-.445.9.877.877,0,0,0,.414.789,5.1,5.1,0,0,0,1.5.508,7.8,7.8,0,0,1,1.754.578,2.558,2.558,0,0,1,1,.809,1.988,1.988,0,0,1,.324,1.152,2.163,2.163,0,0,1-.906,1.816,3.8,3.8,0,0,1-2.352.684A4.257,4.257,0,0,1,42.19-.2a2.922,2.922,0,0,1-1.223-1A2.42,2.42,0,0,1,40.526-2.6h1.445a1.5,1.5,0,0,0,.582,1.152,2.258,2.258,0,0,0,1.434.426A2.331,2.331,0,0,0,45.3-1.355,1.02,1.02,0,0,0,45.8-2.242ZM56.268-4.133a5.062,5.062,0,0,1-.883,3.109A2.829,2.829,0,0,1,52.995.156,3.1,3.1,0,0,1,50.573-.82V3.25H49.128v-11.7h1.32l.07.938a2.977,2.977,0,0,1,2.453-1.094,2.882,2.882,0,0,1,2.41,1.148,5.117,5.117,0,0,1,.887,3.2ZM54.823-4.3a3.735,3.735,0,0,0-.609-2.258,1.963,1.963,0,0,0-1.672-.828,2.125,2.125,0,0,0-1.969,1.164V-2.18a2.129,2.129,0,0,0,1.984,1.156,1.954,1.954,0,0,0,1.652-.824A4.077,4.077,0,0,0,54.823-4.3Zm2.9-.008a4.993,4.993,0,0,1,.488-2.234A3.643,3.643,0,0,1,59.569-8.07a3.7,3.7,0,0,1,1.988-.539,3.565,3.565,0,0,1,2.793,1.2,4.6,4.6,0,0,1,1.066,3.18v.1a5.036,5.036,0,0,1-.473,2.215A3.589,3.589,0,0,1,63.593-.391a3.743,3.743,0,0,1-2.02.547,3.556,3.556,0,0,1-2.785-1.2A4.575,4.575,0,0,1,57.722-4.2Zm1.453.172a3.616,3.616,0,0,0,.652,2.258,2.088,2.088,0,0,0,1.746.852,2.075,2.075,0,0,0,1.75-.863A3.955,3.955,0,0,0,63.972-4.3a3.61,3.61,0,0,0-.66-2.254,2.1,2.1,0,0,0-1.754-.863,2.075,2.075,0,0,0-1.727.852A3.925,3.925,0,0,0,59.175-4.133ZM71.315-7.156a4.331,4.331,0,0,0-.711-.055A1.9,1.9,0,0,0,68.675-6V0H67.229V-8.453h1.406l.023.977a2.251,2.251,0,0,1,2.016-1.133,1.477,1.477,0,0,1,.641.109ZM75.379-10.5v2.047h1.578v1.117H75.379v5.249a1.173,1.173,0,0,0,.211.763.888.888,0,0,0,.719.254A3.5,3.5,0,0,0,77-1.164V0a4.215,4.215,0,0,1-1.109.155A1.8,1.8,0,0,1,74.426-.43a2.517,2.517,0,0,1-.492-1.664V-7.336H72.395V-8.453h1.539V-10.5ZM82.152.156a3.693,3.693,0,0,1-2.8-1.129,4.19,4.19,0,0,1-1.078-3.02v-.266a5.073,5.073,0,0,1,.48-2.246A3.748,3.748,0,0,1,80.1-8.051a3.378,3.378,0,0,1,1.871-.559,3.166,3.166,0,0,1,2.563,1.086,4.7,4.7,0,0,1,.914,3.109v.6H79.723a3,3,0,0,0,.73,2.02,2.3,2.3,0,0,0,1.777.77,2.517,2.517,0,0,0,1.3-.312,3.259,3.259,0,0,0,.93-.828l.883.688A3.55,3.55,0,0,1,82.152.156Zm-.18-7.578a1.928,1.928,0,0,0-1.469.637A3.1,3.1,0,0,0,79.77-5H84v-.109a2.753,2.753,0,0,0-.594-1.707A1.815,1.815,0,0,0,81.973-7.422Z" transform="translate(-2196.748 -350.116)" fill="#12263f"/>
    <path id="Trazado_815687" data-name="Trazado 815687" d="M5.38-4.508H2.763V0H1.286V-11.143H4.975a4.366,4.366,0,0,1,2.9.857A3.084,3.084,0,0,1,8.885-7.791a3,3,0,0,1-.563,1.814A3.358,3.358,0,0,1,6.758-4.821L9.375-.092V0H7.8Zm-2.617-1.2H5.02a2.546,2.546,0,0,0,1.741-.567,1.919,1.919,0,0,0,.647-1.518,2.02,2.02,0,0,0-.616-1.587,2.609,2.609,0,0,0-1.779-.56H2.763Zm7.584,1.492a4.891,4.891,0,0,1,.478-2.189,3.568,3.568,0,0,1,1.332-1.5A3.625,3.625,0,0,1,14.1-8.434a3.492,3.492,0,0,1,2.736,1.171,4.5,4.5,0,0,1,1.045,3.115v.1a4.934,4.934,0,0,1-.463,2.17A3.516,3.516,0,0,1,16.1-.383,3.667,3.667,0,0,1,14.12.153a3.483,3.483,0,0,1-2.728-1.171,4.482,4.482,0,0,1-1.045-3.1Zm1.423.168a3.543,3.543,0,0,0,.639,2.212A2.045,2.045,0,0,0,14.12-1a2.033,2.033,0,0,0,1.714-.846,3.874,3.874,0,0,0,.635-2.369,3.536,3.536,0,0,0-.647-2.208A2.056,2.056,0,0,0,14.1-7.27a2.033,2.033,0,0,0-1.691.834A3.845,3.845,0,0,0,11.771-4.049Zm14.9,0A4.924,4.924,0,0,1,25.8-1,2.788,2.788,0,0,1,23.457.153a2.887,2.887,0,0,1-2.426-1.11L20.962,0h-1.3V-11.755h1.416V-7.37a2.87,2.87,0,0,1,2.365-1.064,2.8,2.8,0,0,1,2.369,1.14,5.071,5.071,0,0,1,.861,3.122Zm-1.416-.161A3.826,3.826,0,0,0,24.7-6.444a1.849,1.849,0,0,0-1.607-.788,2.079,2.079,0,0,0-2.013,1.3V-2.35a2.137,2.137,0,0,0,2.028,1.3,1.839,1.839,0,0,0,1.584-.788A4.069,4.069,0,0,0,25.255-4.209Zm2.824-.008a4.891,4.891,0,0,1,.478-2.189,3.568,3.568,0,0,1,1.332-1.5,3.625,3.625,0,0,1,1.948-.528,3.492,3.492,0,0,1,2.736,1.171,4.5,4.5,0,0,1,1.045,3.115v.1a4.934,4.934,0,0,1-.463,2.17,3.516,3.516,0,0,1-1.324,1.5,3.667,3.667,0,0,1-1.978.536,3.483,3.483,0,0,1-2.728-1.171,4.482,4.482,0,0,1-1.045-3.1Zm1.423.168a3.543,3.543,0,0,0,.639,2.212A2.045,2.045,0,0,0,31.852-1a2.033,2.033,0,0,0,1.714-.846A3.874,3.874,0,0,0,34.2-4.217a3.536,3.536,0,0,0-.647-2.208,2.056,2.056,0,0,0-1.718-.846,2.033,2.033,0,0,0-1.691.834A3.845,3.845,0,0,0,29.5-4.049ZM42.215-2.2a1.042,1.042,0,0,0-.432-.892,4.162,4.162,0,0,0-1.508-.547,7.128,7.128,0,0,1-1.707-.551,2.428,2.428,0,0,1-.934-.765,1.831,1.831,0,0,1-.3-1.056,2.148,2.148,0,0,1,.861-1.722,3.362,3.362,0,0,1,2.2-.7,3.46,3.46,0,0,1,2.284.727,2.309,2.309,0,0,1,.876,1.86H42.13a1.278,1.278,0,0,0-.494-1,1.85,1.85,0,0,0-1.244-.421,1.936,1.936,0,0,0-1.209.337,1.06,1.06,0,0,0-.436.88.859.859,0,0,0,.406.773,4.991,4.991,0,0,0,1.466.5,7.636,7.636,0,0,1,1.718.566,2.506,2.506,0,0,1,.976.792A1.948,1.948,0,0,1,43.63-2.3a2.119,2.119,0,0,1-.888,1.779,3.724,3.724,0,0,1-2.3.67A4.17,4.17,0,0,1,38.679-.2a2.863,2.863,0,0,1-1.2-.983,2.37,2.37,0,0,1-.432-1.366h1.416a1.466,1.466,0,0,0,.57,1.129,2.212,2.212,0,0,0,1.4.417,2.283,2.283,0,0,0,1.29-.325A1,1,0,0,0,42.215-2.2Z" transform="translate(-1953 -377.616)" fill="#12263f"/>
    <path id="Trazado_815688" data-name="Trazado 815688" d="M9.865-5.212a6.893,6.893,0,0,1-.551,2.858A4.174,4.174,0,0,1,7.753-.49,4.3,4.3,0,0,1,5.4.153,4.259,4.259,0,0,1,3.061-.494a4.274,4.274,0,0,1-1.58-1.844A6.614,6.614,0,0,1,.9-5.112v-.8a6.811,6.811,0,0,1,.559-2.839,4.258,4.258,0,0,1,1.58-1.886A4.241,4.241,0,0,1,5.38-11.3a4.32,4.32,0,0,1,2.361.647A4.166,4.166,0,0,1,9.314-8.774a6.927,6.927,0,0,1,.551,2.858ZM8.4-5.931a5,5,0,0,0-.8-3.042,2.625,2.625,0,0,0-2.227-1.06,2.6,2.6,0,0,0-2.193,1.06,4.894,4.894,0,0,0-.823,2.943v.819a5,5,0,0,0,.807,3.019A2.608,2.608,0,0,0,5.4-1.094,2.6,2.6,0,0,0,7.6-2.131,4.975,4.975,0,0,0,8.4-5.1ZM18.857-4.049A4.924,4.924,0,0,1,17.985-1,2.788,2.788,0,0,1,15.643.153a2.887,2.887,0,0,1-2.426-1.11L13.148,0h-1.3V-11.755h1.416V-7.37a2.87,2.87,0,0,1,2.365-1.064A2.8,2.8,0,0,1,18-7.293a5.071,5.071,0,0,1,.861,3.122Zm-1.416-.161a3.826,3.826,0,0,0-.559-2.235,1.849,1.849,0,0,0-1.607-.788,2.079,2.079,0,0,0-2.013,1.3V-2.35a2.137,2.137,0,0,0,2.028,1.3,1.839,1.839,0,0,0,1.584-.788A4.069,4.069,0,0,0,17.441-4.209ZM25.462-2.2a1.042,1.042,0,0,0-.432-.892,4.162,4.162,0,0,0-1.508-.547,7.128,7.128,0,0,1-1.707-.551,2.428,2.428,0,0,1-.934-.765,1.831,1.831,0,0,1-.3-1.056A2.148,2.148,0,0,1,21.44-7.73a3.362,3.362,0,0,1,2.2-.7,3.46,3.46,0,0,1,2.284.727,2.309,2.309,0,0,1,.876,1.86H25.378a1.278,1.278,0,0,0-.494-1,1.85,1.85,0,0,0-1.244-.421,1.936,1.936,0,0,0-1.209.337,1.06,1.06,0,0,0-.436.88.859.859,0,0,0,.406.773,4.991,4.991,0,0,0,1.466.5,7.636,7.636,0,0,1,1.718.566,2.506,2.506,0,0,1,.976.792A1.948,1.948,0,0,1,26.878-2.3,2.119,2.119,0,0,1,25.99-.517a3.724,3.724,0,0,1-2.3.67A4.17,4.17,0,0,1,21.926-.2a2.863,2.863,0,0,1-1.2-.983A2.37,2.37,0,0,1,20.3-2.548h1.416a1.466,1.466,0,0,0,.57,1.129,2.212,2.212,0,0,0,1.4.417,2.283,2.283,0,0,0,1.29-.325A1,1,0,0,0,25.462-2.2Zm2.885-2.02a4.891,4.891,0,0,1,.478-2.189,3.568,3.568,0,0,1,1.332-1.5A3.625,3.625,0,0,1,32.1-8.434a3.492,3.492,0,0,1,2.736,1.171,4.5,4.5,0,0,1,1.045,3.115v.1a4.934,4.934,0,0,1-.463,2.17A3.516,3.516,0,0,1,34.1-.383,3.667,3.667,0,0,1,32.12.153a3.483,3.483,0,0,1-2.728-1.171,4.482,4.482,0,0,1-1.045-3.1Zm1.423.168a3.543,3.543,0,0,0,.639,2.212A2.045,2.045,0,0,0,32.12-1a2.033,2.033,0,0,0,1.714-.846,3.874,3.874,0,0,0,.635-2.369,3.536,3.536,0,0,0-.647-2.208A2.056,2.056,0,0,0,32.1-7.27a2.033,2.033,0,0,0-1.691.834A3.845,3.845,0,0,0,29.771-4.049ZM39.2,0H37.783V-11.755H39.2Zm5.7.153a3.618,3.618,0,0,1-2.74-1.106A4.1,4.1,0,0,1,41.1-3.911v-.26a4.969,4.969,0,0,1,.471-2.2,3.672,3.672,0,0,1,1.316-1.515,3.31,3.31,0,0,1,1.833-.547,3.1,3.1,0,0,1,2.51,1.064,4.606,4.606,0,0,1,.9,3.046v.589h-5.61a2.943,2.943,0,0,0,.716,1.978A2.249,2.249,0,0,0,44.977-1a2.466,2.466,0,0,0,1.27-.306,3.192,3.192,0,0,0,.911-.811l.865.673A3.477,3.477,0,0,1,44.9.153ZM44.725-7.27a1.889,1.889,0,0,0-1.439.624A3.032,3.032,0,0,0,42.567-4.9h4.148v-.107a2.7,2.7,0,0,0-.582-1.672A1.778,1.778,0,0,0,44.725-7.27ZM54.59-2.2a1.042,1.042,0,0,0-.432-.892,4.162,4.162,0,0,0-1.508-.547,7.128,7.128,0,0,1-1.707-.551,2.428,2.428,0,0,1-.934-.765,1.831,1.831,0,0,1-.3-1.056,2.148,2.148,0,0,1,.861-1.722,3.362,3.362,0,0,1,2.2-.7,3.46,3.46,0,0,1,2.284.727,2.309,2.309,0,0,1,.876,1.86H54.506a1.278,1.278,0,0,0-.494-1,1.85,1.85,0,0,0-1.244-.421,1.936,1.936,0,0,0-1.209.337,1.06,1.06,0,0,0-.436.88.859.859,0,0,0,.406.773,4.991,4.991,0,0,0,1.466.5,7.636,7.636,0,0,1,1.718.566,2.506,2.506,0,0,1,.976.792A1.948,1.948,0,0,1,56.006-2.3a2.119,2.119,0,0,1-.888,1.779,3.724,3.724,0,0,1-2.3.67A4.17,4.17,0,0,1,51.054-.2a2.863,2.863,0,0,1-1.2-.983,2.37,2.37,0,0,1-.432-1.366H50.84a1.466,1.466,0,0,0,.57,1.129,2.212,2.212,0,0,0,1.4.417,2.283,2.283,0,0,0,1.29-.325A1,1,0,0,0,54.59-2.2ZM61.171-1A2.039,2.039,0,0,0,62.5-1.462a1.616,1.616,0,0,0,.628-1.148h1.339a2.567,2.567,0,0,1-.49,1.355A3.226,3.226,0,0,1,62.767-.23a3.478,3.478,0,0,1-1.6.383,3.411,3.411,0,0,1-2.69-1.129,4.5,4.5,0,0,1-1-3.088V-4.3a4.985,4.985,0,0,1,.444-2.151A3.381,3.381,0,0,1,59.2-7.913a3.62,3.62,0,0,1,1.963-.52,3.321,3.321,0,0,1,2.315.834,2.981,2.981,0,0,1,.983,2.166H63.123a1.951,1.951,0,0,0-.608-1.32,1.893,1.893,0,0,0-1.351-.517,1.982,1.982,0,0,0-1.672.777A3.648,3.648,0,0,0,58.9-4.247v.268a3.575,3.575,0,0,0,.589,2.2A1.991,1.991,0,0,0,61.171-1ZM69.49.153a3.618,3.618,0,0,1-2.74-1.106,4.1,4.1,0,0,1-1.056-2.958v-.26a4.969,4.969,0,0,1,.471-2.2,3.672,3.672,0,0,1,1.316-1.515,3.31,3.31,0,0,1,1.833-.547,3.1,3.1,0,0,1,2.51,1.064,4.606,4.606,0,0,1,.9,3.046v.589H67.11a2.943,2.943,0,0,0,.716,1.978A2.249,2.249,0,0,0,69.567-1a2.466,2.466,0,0,0,1.27-.306,3.192,3.192,0,0,0,.911-.811l.865.673A3.477,3.477,0,0,1,69.49.153ZM69.314-7.27a1.889,1.889,0,0,0-1.439.624A3.032,3.032,0,0,0,67.156-4.9H71.3v-.107a2.7,2.7,0,0,0-.582-1.672A1.778,1.778,0,0,0,69.314-7.27ZM75.7-8.281l.046,1.041a3.018,3.018,0,0,1,2.48-1.194q2.625,0,2.648,2.962V0H79.455V-5.48A1.906,1.906,0,0,0,79.045-6.8a1.641,1.641,0,0,0-1.251-.429,2.043,2.043,0,0,0-1.209.367,2.494,2.494,0,0,0-.811.964V0H74.358V-8.281ZM86.327-1a2.039,2.039,0,0,0,1.324-.459,1.616,1.616,0,0,0,.628-1.148h1.339a2.568,2.568,0,0,1-.49,1.355A3.226,3.226,0,0,1,87.923-.23a3.478,3.478,0,0,1-1.6.383,3.411,3.411,0,0,1-2.69-1.129,4.5,4.5,0,0,1-1-3.088V-4.3a4.985,4.985,0,0,1,.444-2.151,3.381,3.381,0,0,1,1.274-1.462,3.62,3.62,0,0,1,1.963-.52,3.321,3.321,0,0,1,2.315.834,2.981,2.981,0,0,1,.983,2.166H88.279a1.951,1.951,0,0,0-.608-1.32A1.893,1.893,0,0,0,86.32-7.27a1.982,1.982,0,0,0-1.672.777,3.648,3.648,0,0,0-.593,2.246v.268a3.575,3.575,0,0,0,.589,2.2A1.991,1.991,0,0,0,86.327-1Zm6.421,1H91.332V-8.281h1.416ZM91.218-10.477a.845.845,0,0,1,.21-.582.79.79,0,0,1,.624-.237.8.8,0,0,1,.628.237.836.836,0,0,1,.214.582.809.809,0,0,1-.214.574.817.817,0,0,1-.628.23.8.8,0,0,1-.624-.23A.817.817,0,0,1,91.218-10.477ZM100.126,0a2.974,2.974,0,0,1-.2-.872A3.159,3.159,0,0,1,97.57.153,2.923,2.923,0,0,1,95.561-.54,2.241,2.241,0,0,1,94.776-2.3,2.341,2.341,0,0,1,95.76-4.3a4.637,4.637,0,0,1,2.767-.716H99.9v-.651a1.59,1.59,0,0,0-.444-1.182,1.784,1.784,0,0,0-1.309-.44,2.065,2.065,0,0,0-1.27.383,1.128,1.128,0,0,0-.513.926H94.945a1.954,1.954,0,0,1,.44-1.2A3,3,0,0,1,96.579-8.1a4.016,4.016,0,0,1,1.657-.337,3.274,3.274,0,0,1,2.242.716,2.581,2.581,0,0,1,.842,1.971v3.811a4.659,4.659,0,0,0,.291,1.814V0Zm-2.35-1.079a2.488,2.488,0,0,0,1.263-.344,2.083,2.083,0,0,0,.865-.9v-1.7h-1.11q-2.6,0-2.6,1.523a1.289,1.289,0,0,0,.444,1.041A1.706,1.706,0,0,0,97.776-1.079Z" transform="translate(-1953 -359.616)" fill="#12263f"/>
    <path id="Trazado_815692" data-name="Trazado 815692" d="M2.763-4.362V0H1.293V-11.143H5.4a4.129,4.129,0,0,1,2.866.934A3.165,3.165,0,0,1,9.306-7.737a3.123,3.123,0,0,1-1.014,2.5,4.313,4.313,0,0,1-2.9.876Zm0-1.2H5.4A2.64,2.64,0,0,0,7.209-6.12a2.032,2.032,0,0,0,.628-1.606A2.1,2.1,0,0,0,7.209-9.32a2.473,2.473,0,0,0-1.722-.621H2.763ZM15.909,0a2.974,2.974,0,0,1-.2-.872A3.159,3.159,0,0,1,13.353.153,2.923,2.923,0,0,1,11.344-.54,2.241,2.241,0,0,1,10.559-2.3,2.341,2.341,0,0,1,11.543-4.3,4.637,4.637,0,0,1,14.31-5.02h1.378v-.651a1.59,1.59,0,0,0-.444-1.182,1.784,1.784,0,0,0-1.309-.44,2.065,2.065,0,0,0-1.27.383,1.128,1.128,0,0,0-.513.926H10.728a1.954,1.954,0,0,1,.44-1.2A3,3,0,0,1,12.362-8.1a4.016,4.016,0,0,1,1.657-.337,3.274,3.274,0,0,1,2.242.716A2.581,2.581,0,0,1,17.1-5.747v3.811a4.66,4.66,0,0,0,.291,1.814V0ZM13.56-1.079a2.488,2.488,0,0,0,1.263-.344,2.083,2.083,0,0,0,.865-.9v-1.7h-1.11q-2.6,0-2.6,1.523a1.289,1.289,0,0,0,.444,1.041A1.706,1.706,0,0,0,13.56-1.079Zm5.426-3.13a4.867,4.867,0,0,1,.9-3.08,2.864,2.864,0,0,1,2.372-1.144,2.849,2.849,0,0,1,2.365,1.071l.069-.918h1.293V-.2a3.369,3.369,0,0,1-.953,2.533,3.516,3.516,0,0,1-2.56.926,4.259,4.259,0,0,1-1.753-.383,3.017,3.017,0,0,1-1.309-1.048L20.141.98A2.769,2.769,0,0,0,22.368,2.1a2.169,2.169,0,0,0,1.611-.582,2.223,2.223,0,0,0,.578-1.638V-.827a2.91,2.91,0,0,1-2.319.98,2.829,2.829,0,0,1-2.353-1.171A5.117,5.117,0,0,1,18.986-4.209Zm1.423.161a3.713,3.713,0,0,0,.574,2.2,1.865,1.865,0,0,0,1.607.8,2.074,2.074,0,0,0,1.967-1.217V-6.046a2.1,2.1,0,0,0-1.952-1.186,1.882,1.882,0,0,0-1.615.8A4.044,4.044,0,0,0,20.409-4.049Zm7.332-.168a4.891,4.891,0,0,1,.478-2.189,3.568,3.568,0,0,1,1.332-1.5A3.625,3.625,0,0,1,31.5-8.434a3.492,3.492,0,0,1,2.736,1.171,4.5,4.5,0,0,1,1.045,3.115v.1a4.934,4.934,0,0,1-.463,2.17,3.516,3.516,0,0,1-1.324,1.5,3.667,3.667,0,0,1-1.978.536,3.483,3.483,0,0,1-2.728-1.171,4.482,4.482,0,0,1-1.045-3.1Zm1.423.168A3.543,3.543,0,0,0,29.8-1.837,2.045,2.045,0,0,0,31.514-1a2.033,2.033,0,0,0,1.714-.846,3.874,3.874,0,0,0,.635-2.369,3.536,3.536,0,0,0-.647-2.208A2.056,2.056,0,0,0,31.5-7.27a2.033,2.033,0,0,0-1.691.834A3.845,3.845,0,0,0,29.164-4.049ZM41.876-2.2a1.042,1.042,0,0,0-.432-.892,4.162,4.162,0,0,0-1.508-.547,7.128,7.128,0,0,1-1.707-.551,2.428,2.428,0,0,1-.934-.765,1.831,1.831,0,0,1-.3-1.056,2.148,2.148,0,0,1,.861-1.722,3.362,3.362,0,0,1,2.2-.7,3.46,3.46,0,0,1,2.284.727,2.309,2.309,0,0,1,.876,1.86H41.792a1.278,1.278,0,0,0-.494-1,1.85,1.85,0,0,0-1.244-.421,1.936,1.936,0,0,0-1.209.337,1.06,1.06,0,0,0-.436.88.859.859,0,0,0,.406.773,4.991,4.991,0,0,0,1.466.5A7.636,7.636,0,0,1,42-4.217a2.506,2.506,0,0,1,.976.792A1.948,1.948,0,0,1,43.292-2.3,2.119,2.119,0,0,1,42.4-.517a3.724,3.724,0,0,1-2.3.67A4.17,4.17,0,0,1,38.34-.2a2.863,2.863,0,0,1-1.2-.983,2.37,2.37,0,0,1-.432-1.366h1.416A1.466,1.466,0,0,0,38.7-1.42,2.212,2.212,0,0,0,40.1-1a2.283,2.283,0,0,0,1.29-.325A1,1,0,0,0,41.876-2.2Z" transform="translate(-1840 -278)" fill="#12263f"/>
    <path id="Trazado_815693" data-name="Trazado 815693" d="M9.49-3.536a4.1,4.1,0,0,1-1.3,2.728,4.276,4.276,0,0,1-2.92.96A3.927,3.927,0,0,1,2.1-1.263,5.7,5.7,0,0,1,.911-5.051V-6.122a6.349,6.349,0,0,1,.555-2.732,4.144,4.144,0,0,1,1.573-1.81A4.379,4.379,0,0,1,5.4-11.3a4.026,4.026,0,0,1,2.847.991A4.149,4.149,0,0,1,9.49-7.561H8.013A3.2,3.2,0,0,0,7.182-9.5a2.512,2.512,0,0,0-1.787-.6A2.629,2.629,0,0,0,3.188-9.053a4.782,4.782,0,0,0-.8,2.964v1.08a4.916,4.916,0,0,0,.758,2.888,2.448,2.448,0,0,0,2.12,1.072A2.828,2.828,0,0,0,7.144-1.6a3.079,3.079,0,0,0,.869-1.932ZM10.9-4.217a4.891,4.891,0,0,1,.478-2.189,3.568,3.568,0,0,1,1.332-1.5,3.625,3.625,0,0,1,1.948-.528,3.492,3.492,0,0,1,2.736,1.171,4.5,4.5,0,0,1,1.045,3.115v.1a4.934,4.934,0,0,1-.463,2.17,3.516,3.516,0,0,1-1.324,1.5,3.667,3.667,0,0,1-1.978.536,3.483,3.483,0,0,1-2.728-1.171,4.482,4.482,0,0,1-1.045-3.1Zm1.423.168a3.543,3.543,0,0,0,.639,2.212A2.045,2.045,0,0,0,14.671-1a2.033,2.033,0,0,0,1.714-.846,3.874,3.874,0,0,0,.635-2.369,3.536,3.536,0,0,0-.647-2.208,2.056,2.056,0,0,0-1.718-.846,2.033,2.033,0,0,0-1.691.834A3.845,3.845,0,0,0,12.322-4.049Zm9.222-4.232.038.918a3.058,3.058,0,0,1,2.457-1.071A2.367,2.367,0,0,1,26.4-7.1a3.137,3.137,0,0,1,1.075-.964,3.176,3.176,0,0,1,1.565-.367q2.725,0,2.77,2.885V0H30.4V-5.464a1.9,1.9,0,0,0-.406-1.328,1.786,1.786,0,0,0-1.362-.44,1.877,1.877,0,0,0-1.309.471,1.909,1.909,0,0,0-.6,1.267V0H25.294V-5.426a1.58,1.58,0,0,0-1.768-1.806A1.894,1.894,0,0,0,21.62-6.046V0H20.2V-8.281ZM35.488,0H34.072V-8.281h1.416ZM33.957-10.477a.845.845,0,0,1,.21-.582.79.79,0,0,1,.624-.237.8.8,0,0,1,.628.237.836.836,0,0,1,.214.582.809.809,0,0,1-.214.574.817.817,0,0,1-.628.23.8.8,0,0,1-.624-.23A.817.817,0,0,1,33.957-10.477ZM42.574-2.2a1.042,1.042,0,0,0-.432-.892,4.162,4.162,0,0,0-1.508-.547,7.128,7.128,0,0,1-1.707-.551,2.428,2.428,0,0,1-.934-.765,1.831,1.831,0,0,1-.3-1.056,2.148,2.148,0,0,1,.861-1.722,3.362,3.362,0,0,1,2.2-.7,3.46,3.46,0,0,1,2.284.727,2.309,2.309,0,0,1,.876,1.86H42.49a1.278,1.278,0,0,0-.494-1,1.85,1.85,0,0,0-1.244-.421,1.936,1.936,0,0,0-1.209.337,1.06,1.06,0,0,0-.436.88.859.859,0,0,0,.406.773,4.991,4.991,0,0,0,1.466.5,7.636,7.636,0,0,1,1.718.566,2.506,2.506,0,0,1,.976.792A1.948,1.948,0,0,1,43.99-2.3,2.119,2.119,0,0,1,43.1-.517a3.724,3.724,0,0,1-2.3.67A4.17,4.17,0,0,1,39.039-.2a2.863,2.863,0,0,1-1.2-.983,2.37,2.37,0,0,1-.432-1.366h1.416a1.466,1.466,0,0,0,.57,1.129A2.212,2.212,0,0,0,40.8-1a2.283,2.283,0,0,0,1.29-.325A1,1,0,0,0,42.574-2.2Zm4.8,2.2H45.957V-8.281h1.416ZM45.842-10.477a.845.845,0,0,1,.21-.582.79.79,0,0,1,.624-.237.8.8,0,0,1,.628.237.836.836,0,0,1,.214.582A.809.809,0,0,1,47.3-9.9a.817.817,0,0,1-.628.23.8.8,0,0,1-.624-.23A.817.817,0,0,1,45.842-10.477Zm3.421,6.26a4.891,4.891,0,0,1,.478-2.189,3.568,3.568,0,0,1,1.332-1.5,3.625,3.625,0,0,1,1.948-.528,3.492,3.492,0,0,1,2.736,1.171A4.5,4.5,0,0,1,56.8-4.148v.1a4.934,4.934,0,0,1-.463,2.17,3.516,3.516,0,0,1-1.324,1.5,3.667,3.667,0,0,1-1.978.536,3.483,3.483,0,0,1-2.728-1.171,4.482,4.482,0,0,1-1.045-3.1Zm1.423.168a3.543,3.543,0,0,0,.639,2.212A2.045,2.045,0,0,0,53.036-1a2.033,2.033,0,0,0,1.714-.846,3.874,3.874,0,0,0,.635-2.369,3.536,3.536,0,0,0-.647-2.208,2.056,2.056,0,0,0-1.718-.846,2.033,2.033,0,0,0-1.691.834A3.845,3.845,0,0,0,50.687-4.049Zm9.23-4.232.046,1.041a3.018,3.018,0,0,1,2.48-1.194q2.625,0,2.648,2.962V0H63.674V-5.48A1.906,1.906,0,0,0,63.265-6.8a1.641,1.641,0,0,0-1.251-.429,2.043,2.043,0,0,0-1.209.367,2.5,2.5,0,0,0-.811.964V0H58.577V-8.281ZM70.661.153a3.618,3.618,0,0,1-2.74-1.106,4.1,4.1,0,0,1-1.056-2.958v-.26a4.969,4.969,0,0,1,.471-2.2,3.672,3.672,0,0,1,1.316-1.515,3.31,3.31,0,0,1,1.833-.547A3.1,3.1,0,0,1,73-7.37a4.606,4.606,0,0,1,.9,3.046v.589h-5.61A2.943,2.943,0,0,0,69-1.756,2.249,2.249,0,0,0,70.738-1a2.466,2.466,0,0,0,1.27-.306,3.192,3.192,0,0,0,.911-.811l.865.673A3.477,3.477,0,0,1,70.661.153ZM70.485-7.27a1.888,1.888,0,0,0-1.439.624A3.032,3.032,0,0,0,68.327-4.9h4.148v-.107a2.7,2.7,0,0,0-.582-1.672A1.778,1.778,0,0,0,70.485-7.27ZM80.35-2.2a1.042,1.042,0,0,0-.432-.892,4.162,4.162,0,0,0-1.508-.547A7.128,7.128,0,0,1,76.7-4.186a2.428,2.428,0,0,1-.934-.765,1.831,1.831,0,0,1-.3-1.056,2.148,2.148,0,0,1,.861-1.722,3.362,3.362,0,0,1,2.2-.7,3.46,3.46,0,0,1,2.284.727,2.309,2.309,0,0,1,.876,1.86H80.266a1.278,1.278,0,0,0-.494-1,1.85,1.85,0,0,0-1.244-.421,1.936,1.936,0,0,0-1.209.337,1.06,1.06,0,0,0-.436.88.859.859,0,0,0,.406.773,4.991,4.991,0,0,0,1.466.5,7.636,7.636,0,0,1,1.718.566,2.506,2.506,0,0,1,.976.792A1.948,1.948,0,0,1,81.766-2.3a2.119,2.119,0,0,1-.888,1.779,3.724,3.724,0,0,1-2.3.67A4.17,4.17,0,0,1,76.814-.2a2.863,2.863,0,0,1-1.2-.983,2.37,2.37,0,0,1-.432-1.366H76.6a1.466,1.466,0,0,0,.57,1.129,2.212,2.212,0,0,0,1.4.417,2.283,2.283,0,0,0,1.29-.325A1,1,0,0,0,80.35-2.2Z" transform="translate(-1840 -260)" fill="#12263f"/>
    <path id="Trazado_815694" data-name="Trazado 815694" d="M1.293,0V-11.143H4.439A5.064,5.064,0,0,1,7.01-10.5,4.348,4.348,0,0,1,8.736-8.671a5.954,5.954,0,0,1,.616,2.725v.712a5.974,5.974,0,0,1-.608,2.763A4.28,4.28,0,0,1,7.006-.651,5.386,5.386,0,0,1,4.378,0ZM2.763-9.941V-1.2H4.309A3.364,3.364,0,0,0,6.953-2.259,4.367,4.367,0,0,0,7.9-5.269V-5.92a4.436,4.436,0,0,0-.892-2.953A3.173,3.173,0,0,0,4.477-9.941Zm8.212,5.725a4.891,4.891,0,0,1,.478-2.189,3.568,3.568,0,0,1,1.332-1.5,3.625,3.625,0,0,1,1.948-.528,3.492,3.492,0,0,1,2.736,1.171,4.5,4.5,0,0,1,1.045,3.115v.1a4.934,4.934,0,0,1-.463,2.17,3.516,3.516,0,0,1-1.324,1.5,3.667,3.667,0,0,1-1.978.536,3.483,3.483,0,0,1-2.728-1.171,4.482,4.482,0,0,1-1.045-3.1Zm1.423.168a3.543,3.543,0,0,0,.639,2.212A2.045,2.045,0,0,0,14.748-1a2.033,2.033,0,0,0,1.714-.846A3.874,3.874,0,0,0,17.1-4.217a3.536,3.536,0,0,0-.647-2.208,2.056,2.056,0,0,0-1.718-.846,2.033,2.033,0,0,0-1.691.834A3.845,3.845,0,0,0,12.4-4.049ZM23.61-1a2.039,2.039,0,0,0,1.324-.459,1.615,1.615,0,0,0,.628-1.148H26.9a2.567,2.567,0,0,1-.49,1.355A3.226,3.226,0,0,1,25.206-.23a3.478,3.478,0,0,1-1.6.383A3.411,3.411,0,0,1,20.92-.976a4.5,4.5,0,0,1-1-3.088V-4.3a4.985,4.985,0,0,1,.444-2.151,3.381,3.381,0,0,1,1.274-1.462,3.62,3.62,0,0,1,1.963-.52,3.321,3.321,0,0,1,2.315.834A2.981,2.981,0,0,1,26.9-5.434H25.561a1.951,1.951,0,0,0-.608-1.32A1.893,1.893,0,0,0,23.6-7.27a1.982,1.982,0,0,0-1.672.777,3.648,3.648,0,0,0-.593,2.246v.268a3.575,3.575,0,0,0,.589,2.2A1.991,1.991,0,0,0,23.61-1ZM33.6-.819a3.007,3.007,0,0,1-2.426.972,2.574,2.574,0,0,1-2.017-.769,3.329,3.329,0,0,1-.7-2.277V-8.281h1.416v5.35q0,1.883,1.531,1.883a2.119,2.119,0,0,0,2.158-1.209V-8.281h1.416V0H33.635Zm4.86-7.462.038.918A3.058,3.058,0,0,1,40.96-8.434,2.367,2.367,0,0,1,43.324-7.1,3.137,3.137,0,0,1,44.4-8.066a3.176,3.176,0,0,1,1.565-.367q2.725,0,2.77,2.885V0H47.319V-5.464a1.9,1.9,0,0,0-.406-1.328,1.786,1.786,0,0,0-1.362-.44,1.877,1.877,0,0,0-1.309.471,1.909,1.909,0,0,0-.6,1.267V0H42.215V-5.426a1.58,1.58,0,0,0-1.768-1.806,1.894,1.894,0,0,0-1.906,1.186V0H37.125V-8.281ZM54.307.153a3.618,3.618,0,0,1-2.74-1.106,4.1,4.1,0,0,1-1.056-2.958v-.26a4.969,4.969,0,0,1,.471-2.2A3.672,3.672,0,0,1,52.3-7.887a3.31,3.31,0,0,1,1.833-.547,3.1,3.1,0,0,1,2.51,1.064,4.606,4.606,0,0,1,.9,3.046v.589h-5.61a2.943,2.943,0,0,0,.716,1.978A2.249,2.249,0,0,0,54.383-1a2.466,2.466,0,0,0,1.27-.306,3.192,3.192,0,0,0,.911-.811l.865.673A3.477,3.477,0,0,1,54.307.153ZM54.131-7.27a1.889,1.889,0,0,0-1.439.624A3.032,3.032,0,0,0,51.972-4.9H56.12v-.107a2.7,2.7,0,0,0-.582-1.672A1.778,1.778,0,0,0,54.131-7.27Zm6.383-1.01.046,1.041a3.018,3.018,0,0,1,2.48-1.194q2.625,0,2.648,2.962V0H64.271V-5.48A1.906,1.906,0,0,0,63.861-6.8a1.641,1.641,0,0,0-1.251-.429,2.043,2.043,0,0,0-1.209.367,2.5,2.5,0,0,0-.811.964V0H59.174V-8.281Zm9.23-2.005v2.005h1.546v1.094H69.743v5.142a1.149,1.149,0,0,0,.207.747.87.87,0,0,0,.7.249,3.428,3.428,0,0,0,.673-.092V0A4.129,4.129,0,0,1,70.24.153a1.763,1.763,0,0,1-1.431-.574,2.466,2.466,0,0,1-.482-1.63V-7.186H66.819V-8.281h1.508v-2.005Zm2.53,6.069a4.891,4.891,0,0,1,.478-2.189,3.568,3.568,0,0,1,1.332-1.5,3.625,3.625,0,0,1,1.948-.528,3.492,3.492,0,0,1,2.736,1.171,4.5,4.5,0,0,1,1.045,3.115v.1a4.934,4.934,0,0,1-.463,2.17,3.516,3.516,0,0,1-1.324,1.5,3.667,3.667,0,0,1-1.978.536,3.483,3.483,0,0,1-2.728-1.171,4.482,4.482,0,0,1-1.045-3.1Zm1.423.168a3.543,3.543,0,0,0,.639,2.212A2.045,2.045,0,0,0,76.046-1a2.033,2.033,0,0,0,1.714-.846A3.874,3.874,0,0,0,78.4-4.217a3.536,3.536,0,0,0-.647-2.208A2.056,2.056,0,0,0,76.03-7.27a2.033,2.033,0,0,0-1.691.834A3.845,3.845,0,0,0,73.7-4.049ZM86.408-2.2a1.042,1.042,0,0,0-.432-.892,4.162,4.162,0,0,0-1.508-.547,7.128,7.128,0,0,1-1.707-.551,2.428,2.428,0,0,1-.934-.765,1.831,1.831,0,0,1-.3-1.056,2.148,2.148,0,0,1,.861-1.722,3.362,3.362,0,0,1,2.2-.7,3.46,3.46,0,0,1,2.284.727,2.309,2.309,0,0,1,.876,1.86H86.324a1.278,1.278,0,0,0-.494-1,1.85,1.85,0,0,0-1.244-.421,1.936,1.936,0,0,0-1.209.337,1.06,1.06,0,0,0-.436.88.859.859,0,0,0,.406.773,4.991,4.991,0,0,0,1.466.5,7.636,7.636,0,0,1,1.718.566,2.506,2.506,0,0,1,.976.792A1.948,1.948,0,0,1,87.824-2.3a2.119,2.119,0,0,1-.888,1.779,3.724,3.724,0,0,1-2.3.67A4.17,4.17,0,0,1,82.872-.2a2.863,2.863,0,0,1-1.2-.983,2.37,2.37,0,0,1-.432-1.366h1.416a1.466,1.466,0,0,0,.57,1.129,2.212,2.212,0,0,0,1.4.417,2.283,2.283,0,0,0,1.29-.325A1,1,0,0,0,86.408-2.2Z" transform="translate(-1840 -242)" fill="#12263f"/>
    <path id="Trazado_815695" data-name="Trazado 815695" d="M2.87,0H1.4V-11.143H2.87Zm3.8-8.281L6.719-7.24A3.018,3.018,0,0,1,9.2-8.434q2.625,0,2.648,2.962V0H10.431V-5.48A1.906,1.906,0,0,0,10.022-6.8,1.641,1.641,0,0,0,8.77-7.232a2.043,2.043,0,0,0-1.209.367A2.5,2.5,0,0,0,6.75-5.9V0H5.334V-8.281ZM18.8-2.2a1.042,1.042,0,0,0-.432-.892,4.162,4.162,0,0,0-1.508-.547,7.128,7.128,0,0,1-1.707-.551,2.428,2.428,0,0,1-.934-.765,1.831,1.831,0,0,1-.3-1.056,2.148,2.148,0,0,1,.861-1.722,3.362,3.362,0,0,1,2.2-.7,3.46,3.46,0,0,1,2.284.727,2.309,2.309,0,0,1,.876,1.86H18.72a1.278,1.278,0,0,0-.494-1,1.85,1.85,0,0,0-1.244-.421,1.936,1.936,0,0,0-1.209.337,1.06,1.06,0,0,0-.436.88.859.859,0,0,0,.406.773,4.991,4.991,0,0,0,1.466.5,7.636,7.636,0,0,1,1.718.566,2.506,2.506,0,0,1,.976.792A1.948,1.948,0,0,1,20.22-2.3a2.119,2.119,0,0,1-.888,1.779,3.724,3.724,0,0,1-2.3.67A4.17,4.17,0,0,1,15.268-.2a2.863,2.863,0,0,1-1.2-.983,2.37,2.37,0,0,1-.432-1.366h1.416a1.466,1.466,0,0,0,.57,1.129,2.212,2.212,0,0,0,1.4.417,2.283,2.283,0,0,0,1.29-.325A1,1,0,0,0,18.8-2.2ZM29.059-4.049A4.958,4.958,0,0,1,28.194-1,2.772,2.772,0,0,1,25.852.153,3.037,3.037,0,0,1,23.48-.8V3.184H22.064V-8.281h1.293l.069.918a2.917,2.917,0,0,1,2.4-1.071A2.824,2.824,0,0,1,28.19-7.309a5.012,5.012,0,0,1,.869,3.13Zm-1.416-.161a3.659,3.659,0,0,0-.6-2.212,1.923,1.923,0,0,0-1.638-.811,2.081,2.081,0,0,0-1.929,1.14v3.957A2.085,2.085,0,0,0,25.424-1a1.914,1.914,0,0,0,1.619-.807A3.994,3.994,0,0,0,27.643-4.209ZM34.294.153a3.618,3.618,0,0,1-2.74-1.106A4.1,4.1,0,0,1,30.5-3.911v-.26a4.969,4.969,0,0,1,.471-2.2,3.672,3.672,0,0,1,1.316-1.515,3.31,3.31,0,0,1,1.833-.547,3.1,3.1,0,0,1,2.51,1.064,4.606,4.606,0,0,1,.9,3.046v.589h-5.61a2.943,2.943,0,0,0,.716,1.978A2.249,2.249,0,0,0,34.37-1a2.466,2.466,0,0,0,1.27-.306,3.192,3.192,0,0,0,.911-.811l.865.673A3.477,3.477,0,0,1,34.294.153ZM34.118-7.27a1.889,1.889,0,0,0-1.439.624A3.032,3.032,0,0,0,31.959-4.9h4.148v-.107a2.7,2.7,0,0,0-.582-1.672A1.778,1.778,0,0,0,34.118-7.27ZM42.483-1a2.039,2.039,0,0,0,1.324-.459,1.616,1.616,0,0,0,.628-1.148h1.339a2.568,2.568,0,0,1-.49,1.355A3.226,3.226,0,0,1,44.078-.23a3.478,3.478,0,0,1-1.6.383,3.411,3.411,0,0,1-2.69-1.129,4.5,4.5,0,0,1-1-3.088V-4.3a4.985,4.985,0,0,1,.444-2.151,3.381,3.381,0,0,1,1.274-1.462,3.62,3.62,0,0,1,1.963-.52A3.321,3.321,0,0,1,44.79-7.6a2.981,2.981,0,0,1,.983,2.166H44.434a1.951,1.951,0,0,0-.608-1.32,1.893,1.893,0,0,0-1.351-.517,1.982,1.982,0,0,0-1.672.777,3.648,3.648,0,0,0-.593,2.246v.268a3.575,3.575,0,0,0,.589,2.2A1.991,1.991,0,0,0,42.483-1Zm8.2,0a2.039,2.039,0,0,0,1.324-.459,1.616,1.616,0,0,0,.628-1.148h1.339a2.567,2.567,0,0,1-.49,1.355A3.226,3.226,0,0,1,52.282-.23a3.478,3.478,0,0,1-1.6.383A3.411,3.411,0,0,1,48-.976a4.5,4.5,0,0,1-1-3.088V-4.3a4.985,4.985,0,0,1,.444-2.151,3.381,3.381,0,0,1,1.274-1.462,3.62,3.62,0,0,1,1.963-.52,3.321,3.321,0,0,1,2.315.834,2.981,2.981,0,0,1,.983,2.166H52.638a1.951,1.951,0,0,0-.608-1.32,1.893,1.893,0,0,0-1.351-.517,1.982,1.982,0,0,0-1.672.777,3.648,3.648,0,0,0-.593,2.246v.268A3.575,3.575,0,0,0,49-1.776,1.991,1.991,0,0,0,50.687-1Zm6.421,1H55.692V-8.281h1.416ZM55.577-10.477a.845.845,0,0,1,.21-.582.79.79,0,0,1,.624-.237.8.8,0,0,1,.628.237.836.836,0,0,1,.214.582.809.809,0,0,1-.214.574.817.817,0,0,1-.628.23.8.8,0,0,1-.624-.23A.817.817,0,0,1,55.577-10.477ZM59-4.217a4.891,4.891,0,0,1,.478-2.189,3.568,3.568,0,0,1,1.332-1.5,3.625,3.625,0,0,1,1.948-.528,3.492,3.492,0,0,1,2.736,1.171,4.5,4.5,0,0,1,1.045,3.115v.1a4.934,4.934,0,0,1-.463,2.17,3.516,3.516,0,0,1-1.324,1.5,3.667,3.667,0,0,1-1.978.536,3.483,3.483,0,0,1-2.728-1.171A4.482,4.482,0,0,1,59-4.117Zm1.423.168a3.543,3.543,0,0,0,.639,2.212A2.045,2.045,0,0,0,62.771-1a2.033,2.033,0,0,0,1.714-.846,3.874,3.874,0,0,0,.635-2.369,3.536,3.536,0,0,0-.647-2.208,2.056,2.056,0,0,0-1.718-.846,2.033,2.033,0,0,0-1.691.834A3.845,3.845,0,0,0,60.421-4.049Zm9.23-4.232L69.7-7.24a3.018,3.018,0,0,1,2.48-1.194q2.625,0,2.648,2.962V0H73.409V-5.48A1.906,1.906,0,0,0,73-6.8a1.641,1.641,0,0,0-1.251-.429,2.043,2.043,0,0,0-1.209.367,2.494,2.494,0,0,0-.811.964V0H68.312V-8.281ZM80.4.153a3.618,3.618,0,0,1-2.74-1.106A4.1,4.1,0,0,1,76.6-3.911v-.26a4.969,4.969,0,0,1,.471-2.2,3.672,3.672,0,0,1,1.316-1.515,3.31,3.31,0,0,1,1.833-.547A3.1,3.1,0,0,1,82.73-7.37a4.606,4.606,0,0,1,.9,3.046v.589h-5.61a2.943,2.943,0,0,0,.716,1.978A2.249,2.249,0,0,0,80.473-1a2.466,2.466,0,0,0,1.27-.306,3.192,3.192,0,0,0,.911-.811l.865.673A3.477,3.477,0,0,1,80.4.153ZM80.22-7.27a1.888,1.888,0,0,0-1.439.624A3.032,3.032,0,0,0,78.062-4.9H82.21v-.107a2.7,2.7,0,0,0-.582-1.672A1.778,1.778,0,0,0,80.22-7.27ZM90.085-2.2a1.042,1.042,0,0,0-.432-.892,4.162,4.162,0,0,0-1.508-.547,7.128,7.128,0,0,1-1.707-.551,2.428,2.428,0,0,1-.934-.765,1.831,1.831,0,0,1-.3-1.056,2.148,2.148,0,0,1,.861-1.722,3.362,3.362,0,0,1,2.2-.7,3.46,3.46,0,0,1,2.284.727,2.309,2.309,0,0,1,.876,1.86H90a1.278,1.278,0,0,0-.494-1,1.85,1.85,0,0,0-1.244-.421,1.936,1.936,0,0,0-1.209.337,1.06,1.06,0,0,0-.436.88.859.859,0,0,0,.406.773,4.991,4.991,0,0,0,1.466.5,7.636,7.636,0,0,1,1.718.566,2.506,2.506,0,0,1,.976.792A1.948,1.948,0,0,1,91.5-2.3a2.119,2.119,0,0,1-.888,1.779,3.724,3.724,0,0,1-2.3.67A4.17,4.17,0,0,1,86.549-.2a2.863,2.863,0,0,1-1.2-.983,2.37,2.37,0,0,1-.432-1.366h1.416a1.466,1.466,0,0,0,.57,1.129,2.212,2.212,0,0,0,1.4.417,2.283,2.283,0,0,0,1.29-.325A1,1,0,0,0,90.085-2.2Z" transform="translate(-1840 -224)" fill="#12263f"/>
    <path id="Trazado_815689" data-name="Trazado 815689" d="M7.446-2.916H2.778L1.73,0H.214L4.469-11.143H5.755L10.018,0H8.51Zm-4.225-1.2H7.01l-1.9-5.212ZM12.834,0H11.418V-11.755h1.416Zm3.6-8.281.038.918a3.058,3.058,0,0,1,2.457-1.071A2.367,2.367,0,0,1,21.291-7.1a3.137,3.137,0,0,1,1.075-.964,3.176,3.176,0,0,1,1.565-.367q2.725,0,2.77,2.885V0H25.286V-5.464a1.9,1.9,0,0,0-.406-1.328,1.786,1.786,0,0,0-1.362-.44,1.877,1.877,0,0,0-1.309.471,1.909,1.909,0,0,0-.6,1.267V0H20.181V-5.426a1.58,1.58,0,0,0-1.768-1.806,1.894,1.894,0,0,0-1.906,1.186V0H15.092V-8.281ZM33.949,0a2.974,2.974,0,0,1-.2-.872A3.159,3.159,0,0,1,31.393.153,2.923,2.923,0,0,1,29.384-.54,2.241,2.241,0,0,1,28.6-2.3,2.341,2.341,0,0,1,29.583-4.3,4.637,4.637,0,0,1,32.35-5.02h1.378v-.651a1.59,1.59,0,0,0-.444-1.182,1.784,1.784,0,0,0-1.309-.44,2.064,2.064,0,0,0-1.27.383,1.128,1.128,0,0,0-.513.926H28.768a1.954,1.954,0,0,1,.44-1.2A3,3,0,0,1,30.4-8.1a4.016,4.016,0,0,1,1.657-.337,3.274,3.274,0,0,1,2.242.716,2.581,2.581,0,0,1,.842,1.971v3.811a4.66,4.66,0,0,0,.291,1.814V0ZM31.6-1.079a2.488,2.488,0,0,0,1.263-.344,2.083,2.083,0,0,0,.865-.9v-1.7h-1.11q-2.6,0-2.6,1.523a1.289,1.289,0,0,0,.444,1.041A1.706,1.706,0,0,0,31.6-1.079ZM40.684-1a2.039,2.039,0,0,0,1.324-.459,1.616,1.616,0,0,0,.628-1.148h1.339a2.567,2.567,0,0,1-.49,1.355A3.226,3.226,0,0,1,42.28-.23a3.478,3.478,0,0,1-1.6.383,3.411,3.411,0,0,1-2.69-1.129,4.5,4.5,0,0,1-1-3.088V-4.3a4.985,4.985,0,0,1,.444-2.151,3.381,3.381,0,0,1,1.274-1.462,3.62,3.62,0,0,1,1.963-.52,3.321,3.321,0,0,1,2.315.834,2.981,2.981,0,0,1,.983,2.166H42.636a1.951,1.951,0,0,0-.608-1.32,1.893,1.893,0,0,0-1.351-.517A1.982,1.982,0,0,0,39-6.494a3.648,3.648,0,0,0-.593,2.246v.268A3.575,3.575,0,0,0,39-1.776,1.991,1.991,0,0,0,40.684-1ZM49,.153a3.618,3.618,0,0,1-2.74-1.106,4.1,4.1,0,0,1-1.056-2.958v-.26a4.969,4.969,0,0,1,.471-2.2,3.672,3.672,0,0,1,1.316-1.515,3.31,3.31,0,0,1,1.833-.547,3.1,3.1,0,0,1,2.51,1.064,4.606,4.606,0,0,1,.9,3.046v.589h-5.61a2.943,2.943,0,0,0,.716,1.978A2.249,2.249,0,0,0,49.079-1a2.466,2.466,0,0,0,1.27-.306,3.192,3.192,0,0,0,.911-.811l.865.673A3.477,3.477,0,0,1,49,.153ZM48.827-7.27a1.889,1.889,0,0,0-1.439.624A3.032,3.032,0,0,0,46.669-4.9h4.148v-.107a2.7,2.7,0,0,0-.582-1.672A1.778,1.778,0,0,0,48.827-7.27Zm6.383-1.01.046,1.041a3.018,3.018,0,0,1,2.48-1.194q2.625,0,2.648,2.962V0H58.967V-5.48A1.906,1.906,0,0,0,58.558-6.8a1.641,1.641,0,0,0-1.251-.429,2.043,2.043,0,0,0-1.209.367,2.5,2.5,0,0,0-.811.964V0H53.87V-8.281ZM67.631,0a2.974,2.974,0,0,1-.2-.872A3.159,3.159,0,0,1,65.075.153,2.923,2.923,0,0,1,63.066-.54,2.241,2.241,0,0,1,62.281-2.3,2.341,2.341,0,0,1,63.265-4.3a4.637,4.637,0,0,1,2.767-.716h1.378v-.651a1.59,1.59,0,0,0-.444-1.182,1.784,1.784,0,0,0-1.309-.44,2.065,2.065,0,0,0-1.27.383,1.128,1.128,0,0,0-.513.926H62.45a1.954,1.954,0,0,1,.44-1.2A3,3,0,0,1,64.083-8.1a4.016,4.016,0,0,1,1.657-.337,3.274,3.274,0,0,1,2.242.716,2.581,2.581,0,0,1,.842,1.971v3.811a4.659,4.659,0,0,0,.291,1.814V0Zm-2.35-1.079a2.488,2.488,0,0,0,1.263-.344,2.083,2.083,0,0,0,.865-.9v-1.7H66.3q-2.6,0-2.6,1.523a1.289,1.289,0,0,0,.444,1.041A1.706,1.706,0,0,0,65.281-1.079Zm7.094-7.2.038.918a3.058,3.058,0,0,1,2.457-1.071A2.367,2.367,0,0,1,77.235-7.1a3.137,3.137,0,0,1,1.075-.964,3.176,3.176,0,0,1,1.565-.367q2.725,0,2.77,2.885V0H81.23V-5.464a1.9,1.9,0,0,0-.406-1.328,1.786,1.786,0,0,0-1.362-.44,1.877,1.877,0,0,0-1.309.471,1.909,1.909,0,0,0-.6,1.267V0H76.126V-5.426a1.58,1.58,0,0,0-1.768-1.806,1.894,1.894,0,0,0-1.906,1.186V0H71.036V-8.281ZM86.32,0H84.9V-8.281H86.32ZM84.789-10.477a.845.845,0,0,1,.21-.582.79.79,0,0,1,.624-.237.8.8,0,0,1,.628.237.836.836,0,0,1,.214.582.809.809,0,0,1-.214.574.817.817,0,0,1-.628.23A.8.8,0,0,1,85-9.9.817.817,0,0,1,84.789-10.477ZM92.021.153a3.618,3.618,0,0,1-2.74-1.106,4.1,4.1,0,0,1-1.056-2.958v-.26a4.969,4.969,0,0,1,.471-2.2,3.672,3.672,0,0,1,1.316-1.515,3.31,3.31,0,0,1,1.833-.547,3.1,3.1,0,0,1,2.51,1.064,4.606,4.606,0,0,1,.9,3.046v.589h-5.61a2.943,2.943,0,0,0,.716,1.978A2.249,2.249,0,0,0,92.1-1a2.466,2.466,0,0,0,1.27-.306,3.192,3.192,0,0,0,.911-.811l.865.673A3.477,3.477,0,0,1,92.021.153ZM91.845-7.27a1.888,1.888,0,0,0-1.439.624A3.032,3.032,0,0,0,89.687-4.9h4.148v-.107a2.7,2.7,0,0,0-.582-1.672A1.778,1.778,0,0,0,91.845-7.27Zm6.383-1.01.046,1.041a3.018,3.018,0,0,1,2.48-1.194q2.625,0,2.648,2.962V0h-1.416V-5.48a1.906,1.906,0,0,0-.409-1.324,1.641,1.641,0,0,0-1.251-.429,2.043,2.043,0,0,0-1.209.367A2.494,2.494,0,0,0,98.3-5.9V0H96.889V-8.281Zm9.23-2.005v2.005H109v1.094h-1.546v5.142a1.149,1.149,0,0,0,.207.747.87.87,0,0,0,.7.249,3.428,3.428,0,0,0,.673-.092V0a4.129,4.129,0,0,1-1.087.152,1.763,1.763,0,0,1-1.431-.574,2.466,2.466,0,0,1-.482-1.63V-7.186h-1.508V-8.281h1.508v-2.005Zm2.53,6.069a4.891,4.891,0,0,1,.478-2.189,3.568,3.568,0,0,1,1.332-1.5,3.625,3.625,0,0,1,1.948-.528,3.492,3.492,0,0,1,2.736,1.171,4.5,4.5,0,0,1,1.045,3.115v.1a4.934,4.934,0,0,1-.463,2.17,3.516,3.516,0,0,1-1.324,1.5,3.667,3.667,0,0,1-1.978.536,3.483,3.483,0,0,1-2.728-1.171,4.482,4.482,0,0,1-1.045-3.1Zm1.423.168a3.543,3.543,0,0,0,.639,2.212A2.045,2.045,0,0,0,113.76-1a2.033,2.033,0,0,0,1.714-.846,3.874,3.874,0,0,0,.635-2.369,3.536,3.536,0,0,0-.647-2.208,2.056,2.056,0,0,0-1.718-.846,2.033,2.033,0,0,0-1.691.834A3.845,3.845,0,0,0,111.411-4.049Z" transform="translate(-2083.509 -269)" fill="#12263f"/>
    <path id="Trazado_815690" data-name="Trazado 815690" d="M4.577-4.967A6.909,6.909,0,0,1,1.825-6.3,2.552,2.552,0,0,1,.964-8.258a2.7,2.7,0,0,1,1.052-2.177A4.182,4.182,0,0,1,4.753-11.3a4.565,4.565,0,0,1,2.047.444A3.366,3.366,0,0,1,8.193-9.628a3.131,3.131,0,0,1,.494,1.707H7.209a2.037,2.037,0,0,0-.643-1.594,2.614,2.614,0,0,0-1.814-.58,2.676,2.676,0,0,0-1.7.479,1.6,1.6,0,0,0-.608,1.33,1.438,1.438,0,0,0,.578,1.154,5.667,5.667,0,0,0,1.967.863,9.126,9.126,0,0,1,2.173.862,3.3,3.3,0,0,1,1.163,1.1,2.8,2.8,0,0,1,.379,1.477A2.6,2.6,0,0,1,7.653-.662,4.5,4.5,0,0,1,4.829.153a5.238,5.238,0,0,1-2.143-.44A3.606,3.606,0,0,1,1.152-1.492,2.942,2.942,0,0,1,.612-3.23H2.089a1.919,1.919,0,0,0,.746,1.6,3.142,3.142,0,0,0,1.994.585,2.888,2.888,0,0,0,1.783-.474,1.541,1.541,0,0,0,.62-1.293,1.513,1.513,0,0,0-.574-1.267A6.618,6.618,0,0,0,4.577-4.967Zm9.23,5.12a3.618,3.618,0,0,1-2.74-1.106A4.1,4.1,0,0,1,10.01-3.911v-.26a4.969,4.969,0,0,1,.471-2.2A3.672,3.672,0,0,1,11.8-7.887a3.31,3.31,0,0,1,1.833-.547A3.1,3.1,0,0,1,16.14-7.37a4.606,4.606,0,0,1,.9,3.046v.589h-5.61a2.943,2.943,0,0,0,.716,1.978A2.249,2.249,0,0,0,13.883-1a2.466,2.466,0,0,0,1.27-.306,3.192,3.192,0,0,0,.911-.811l.865.673A3.477,3.477,0,0,1,13.806.153ZM13.63-7.27a1.889,1.889,0,0,0-1.439.624A3.032,3.032,0,0,0,11.472-4.9H15.62v-.107a2.7,2.7,0,0,0-.582-1.672A1.778,1.778,0,0,0,13.63-7.27Zm4.707,3.061a4.867,4.867,0,0,1,.9-3.08A2.864,2.864,0,0,1,21.6-8.434,2.849,2.849,0,0,1,23.97-7.362l.069-.918h1.293V-.2a3.369,3.369,0,0,1-.953,2.533,3.516,3.516,0,0,1-2.56.926,4.259,4.259,0,0,1-1.753-.383,3.017,3.017,0,0,1-1.309-1.048L19.493.98A2.769,2.769,0,0,0,21.72,2.1a2.169,2.169,0,0,0,1.611-.582,2.223,2.223,0,0,0,.578-1.638V-.827a2.91,2.91,0,0,1-2.319.98,2.829,2.829,0,0,1-2.353-1.171A5.117,5.117,0,0,1,18.337-4.209Zm1.423.161a3.713,3.713,0,0,0,.574,2.2,1.865,1.865,0,0,0,1.607.8,2.074,2.074,0,0,0,1.967-1.217V-6.046a2.1,2.1,0,0,0-1.952-1.186,1.882,1.882,0,0,0-1.615.8A4.044,4.044,0,0,0,19.76-4.049ZM32.579-.819a3.007,3.007,0,0,1-2.426.972,2.574,2.574,0,0,1-2.017-.769,3.329,3.329,0,0,1-.7-2.277V-8.281h1.416v5.35q0,1.883,1.531,1.883a2.119,2.119,0,0,0,2.158-1.209V-8.281h1.416V0H32.61ZM40.11-7.01a4.243,4.243,0,0,0-.7-.054,1.866,1.866,0,0,0-1.89,1.186V0H36.107V-8.281h1.378l.023.957a2.2,2.2,0,0,1,1.975-1.11,1.446,1.446,0,0,1,.628.107Zm.632,2.793a4.891,4.891,0,0,1,.478-2.189,3.568,3.568,0,0,1,1.332-1.5A3.625,3.625,0,0,1,44.5-8.434a3.492,3.492,0,0,1,2.736,1.171A4.5,4.5,0,0,1,48.28-4.148v.1a4.934,4.934,0,0,1-.463,2.17,3.516,3.516,0,0,1-1.324,1.5,3.667,3.667,0,0,1-1.978.536,3.483,3.483,0,0,1-2.728-1.171,4.482,4.482,0,0,1-1.045-3.1Zm1.423.168A3.543,3.543,0,0,0,42.8-1.837,2.045,2.045,0,0,0,44.515-1a2.033,2.033,0,0,0,1.714-.846,3.874,3.874,0,0,0,.635-2.369,3.536,3.536,0,0,0-.647-2.208A2.056,2.056,0,0,0,44.5-7.27a2.033,2.033,0,0,0-1.691.834A3.845,3.845,0,0,0,42.165-4.049ZM54.877-2.2a1.042,1.042,0,0,0-.432-.892,4.162,4.162,0,0,0-1.508-.547,7.128,7.128,0,0,1-1.707-.551,2.428,2.428,0,0,1-.934-.765,1.831,1.831,0,0,1-.3-1.056,2.148,2.148,0,0,1,.861-1.722,3.362,3.362,0,0,1,2.2-.7,3.46,3.46,0,0,1,2.284.727,2.309,2.309,0,0,1,.876,1.86H54.793a1.278,1.278,0,0,0-.494-1,1.85,1.85,0,0,0-1.244-.421,1.936,1.936,0,0,0-1.209.337,1.06,1.06,0,0,0-.436.88.859.859,0,0,0,.406.773,4.991,4.991,0,0,0,1.466.5A7.636,7.636,0,0,1,55-4.217a2.506,2.506,0,0,1,.976.792A1.948,1.948,0,0,1,56.293-2.3a2.119,2.119,0,0,1-.888,1.779,3.724,3.724,0,0,1-2.3.67A4.17,4.17,0,0,1,51.342-.2a2.863,2.863,0,0,1-1.2-.983,2.37,2.37,0,0,1-.432-1.366h1.416A1.466,1.466,0,0,0,51.7-1.42,2.212,2.212,0,0,0,53.1-1a2.283,2.283,0,0,0,1.29-.325A1,1,0,0,0,54.877-2.2Z" transform="translate(-2083.509 -251)" fill="#12263f"/>
    <path id="Trazado_815691" data-name="Trazado 815691" d="M2.87,0H1.4V-11.143H2.87Zm3.8-8.281.038.918A3.058,3.058,0,0,1,9.161-8.434,2.367,2.367,0,0,1,11.526-7.1,3.137,3.137,0,0,1,12.6-8.066a3.176,3.176,0,0,1,1.565-.367q2.725,0,2.77,2.885V0H15.521V-5.464a1.9,1.9,0,0,0-.406-1.328,1.786,1.786,0,0,0-1.362-.44,1.877,1.877,0,0,0-1.309.471,1.909,1.909,0,0,0-.6,1.267V0H10.416V-5.426A1.58,1.58,0,0,0,8.648-7.232,1.894,1.894,0,0,0,6.742-6.046V0H5.327V-8.281Zm19.4,4.232A4.958,4.958,0,0,1,25.2-1,2.772,2.772,0,0,1,22.86.153,3.037,3.037,0,0,1,20.487-.8V3.184H19.072V-8.281h1.293l.069.918a2.917,2.917,0,0,1,2.4-1.071A2.824,2.824,0,0,1,25.2-7.309a5.012,5.012,0,0,1,.869,3.13Zm-1.416-.161a3.659,3.659,0,0,0-.6-2.212,1.923,1.923,0,0,0-1.638-.811,2.081,2.081,0,0,0-1.929,1.14v3.957A2.085,2.085,0,0,0,22.431-1,1.914,1.914,0,0,0,24.05-1.81,3.994,3.994,0,0,0,24.651-4.209Zm8.327,3.39a3.007,3.007,0,0,1-2.426.972,2.574,2.574,0,0,1-2.017-.769,3.329,3.329,0,0,1-.7-2.277V-8.281H29.25v5.35q0,1.883,1.531,1.883a2.119,2.119,0,0,0,2.158-1.209V-8.281h1.416V0H33.008Zm6.964.972A3.618,3.618,0,0,1,37.2-.953a4.1,4.1,0,0,1-1.056-2.958v-.26a4.969,4.969,0,0,1,.471-2.2,3.672,3.672,0,0,1,1.316-1.515,3.31,3.31,0,0,1,1.833-.547,3.1,3.1,0,0,1,2.51,1.064,4.606,4.606,0,0,1,.9,3.046v.589h-5.61a2.943,2.943,0,0,0,.716,1.978A2.249,2.249,0,0,0,40.018-1a2.466,2.466,0,0,0,1.27-.306A3.192,3.192,0,0,0,42.2-2.12l.865.673A3.477,3.477,0,0,1,39.942.153ZM39.766-7.27a1.889,1.889,0,0,0-1.439.624A3.032,3.032,0,0,0,37.607-4.9h4.148v-.107a2.7,2.7,0,0,0-.582-1.672A1.778,1.778,0,0,0,39.766-7.27ZM49.631-2.2a1.042,1.042,0,0,0-.432-.892,4.162,4.162,0,0,0-1.508-.547,7.128,7.128,0,0,1-1.707-.551,2.428,2.428,0,0,1-.934-.765,1.831,1.831,0,0,1-.3-1.056,2.148,2.148,0,0,1,.861-1.722,3.362,3.362,0,0,1,2.2-.7,3.46,3.46,0,0,1,2.284.727,2.309,2.309,0,0,1,.876,1.86H49.546a1.278,1.278,0,0,0-.494-1,1.85,1.85,0,0,0-1.244-.421,1.936,1.936,0,0,0-1.209.337,1.06,1.06,0,0,0-.436.88.859.859,0,0,0,.406.773,4.991,4.991,0,0,0,1.466.5,7.636,7.636,0,0,1,1.718.566,2.506,2.506,0,0,1,.976.792A1.948,1.948,0,0,1,51.046-2.3a2.119,2.119,0,0,1-.888,1.779,3.724,3.724,0,0,1-2.3.67A4.17,4.17,0,0,1,46.095-.2a2.863,2.863,0,0,1-1.2-.983,2.37,2.37,0,0,1-.432-1.366H45.88a1.466,1.466,0,0,0,.57,1.129,2.212,2.212,0,0,0,1.4.417,2.283,2.283,0,0,0,1.29-.325A1,1,0,0,0,49.631-2.2Zm5.181-8.089v2.005h1.546v1.094H54.812v5.142a1.149,1.149,0,0,0,.207.747.87.87,0,0,0,.7.249A3.428,3.428,0,0,0,56.4-1.14V0a4.129,4.129,0,0,1-1.087.152,1.763,1.763,0,0,1-1.431-.574,2.466,2.466,0,0,1-.482-1.63V-7.186H51.888V-8.281H53.4v-2.005Zm2.53,6.069a4.891,4.891,0,0,1,.478-2.189,3.568,3.568,0,0,1,1.332-1.5A3.625,3.625,0,0,1,61.1-8.434a3.492,3.492,0,0,1,2.736,1.171A4.5,4.5,0,0,1,64.88-4.148v.1a4.934,4.934,0,0,1-.463,2.17,3.516,3.516,0,0,1-1.324,1.5,3.667,3.667,0,0,1-1.978.536,3.483,3.483,0,0,1-2.728-1.171,4.482,4.482,0,0,1-1.045-3.1Zm1.423.168A3.543,3.543,0,0,0,59.4-1.837,2.045,2.045,0,0,0,61.115-1a2.033,2.033,0,0,0,1.714-.846,3.874,3.874,0,0,0,.635-2.369,3.536,3.536,0,0,0-.647-2.208A2.056,2.056,0,0,0,61.1-7.27a2.033,2.033,0,0,0-1.691.834A3.845,3.845,0,0,0,58.765-4.049ZM71.477-2.2a1.042,1.042,0,0,0-.432-.892,4.162,4.162,0,0,0-1.508-.547,7.128,7.128,0,0,1-1.707-.551,2.428,2.428,0,0,1-.934-.765,1.831,1.831,0,0,1-.3-1.056,2.148,2.148,0,0,1,.861-1.722,3.362,3.362,0,0,1,2.2-.7,3.46,3.46,0,0,1,2.284.727,2.309,2.309,0,0,1,.876,1.86H71.393a1.278,1.278,0,0,0-.494-1,1.85,1.85,0,0,0-1.244-.421,1.936,1.936,0,0,0-1.209.337,1.06,1.06,0,0,0-.436.88.859.859,0,0,0,.406.773,4.991,4.991,0,0,0,1.466.5,7.636,7.636,0,0,1,1.718.566,2.506,2.506,0,0,1,.976.792A1.948,1.948,0,0,1,72.893-2.3,2.119,2.119,0,0,1,72-.517a3.724,3.724,0,0,1-2.3.67A4.17,4.17,0,0,1,67.941-.2a2.863,2.863,0,0,1-1.2-.983,2.37,2.37,0,0,1-.432-1.366h1.416A1.466,1.466,0,0,0,68.3-1.42,2.212,2.212,0,0,0,69.7-1a2.283,2.283,0,0,0,1.29-.325A1,1,0,0,0,71.477-2.2Z" transform="translate(-2083.509 -233)" fill="#12263f"/>
  </g>
</svg>
