<svg xmlns="http://www.w3.org/2000/svg" xmlns:xlink="http://www.w3.org/1999/xlink" width="820" height="594" viewBox="0 0 820 594">
  <defs>
    <linearGradient id="linear-gradient" x1="0.5" x2="0.5" y2="1" gradientUnits="objectBoundingBox">
      <stop offset="0" stop-color="#f9fef5"/>
      <stop offset="1" stop-color="#e7f7f8"/>
    </linearGradient>
    <clipPath id="clip-path">
      <rect id="Rectángulo_323424" data-name="Rectángulo 323424" width="52.985" height="28.285" fill="none"/>
    </clipPath>
    <clipPath id="clip-path-2">
      <rect id="Rectángulo_323425" data-name="Rectángulo 323425" width="86.491" height="86.49" fill="none"/>
    </clipPath>
    <clipPath id="clip-path-3">
      <path id="Trazado_274879" data-name="Trazado 274879" d="M65.641,233.56A181.885,181.885,0,1,0,247.525,51.676,181.885,181.885,0,0,0,65.641,233.56" transform="translate(-65.641 -51.676)" fill="none"/>
    </clipPath>
    <clipPath id="clip-path-4">
      <path id="Trazado_274878" data-name="Trazado 274878" d="M160.593,459.373c-5.643.487-15.439,1.28-23.161,1.62-4.642.2-7.314-.251-8.853-.866,0,.173.008.337.015.489a1.6,1.6,0,0,0,1.518,1.509,271.356,271.356,0,0,0,30.326.03,1.138,1.138,0,0,0,.927-1.709,9.259,9.259,0,0,0-.771-1.073" transform="translate(-128.578 -459.373)" fill="none"/>
    </clipPath>
    <linearGradient id="linear-gradient-2" x1="-4.354" y1="6.287" x2="-4.321" y2="6.287" gradientUnits="objectBoundingBox">
      <stop offset="0" stop-color="#4f52ff"/>
      <stop offset="1" stop-color="#4042e2"/>
    </linearGradient>
    <clipPath id="clip-path-6">
      <path id="Trazado_274880" data-name="Trazado 274880" d="M137.432,462.26c7.723-.34,17.518-1.133,23.161-1.62-5.549-6.808-23.161-11.4-23.161-11.4h-4.974a20.861,20.861,0,0,0-3.879,12.15c1.539.615,4.211,1.07,8.853.866" transform="translate(-128.576 -449.244)" fill="none"/>
    </clipPath>
    <linearGradient id="linear-gradient-3" x1="-4.512" y1="2.559" x2="-4.477" y2="2.559" gradientUnits="objectBoundingBox">
      <stop offset="0" stop-color="#09005d"/>
      <stop offset="1" stop-color="#1a0f91"/>
    </linearGradient>
    <clipPath id="clip-path-8">
      <path id="Trazado_274882" data-name="Trazado 274882" d="M131.282,442.026l.465,9.211a2.1,2.1,0,0,0,1.8,1.979,8.183,8.183,0,0,0,3.736-.311,2.486,2.486,0,0,0,1.673-1.913l1.609-8.967Z" transform="translate(-131.282 -442.026)" fill="none"/>
    </clipPath>
    <linearGradient id="linear-gradient-4" x1="-15.917" y1="3.695" x2="-15.796" y2="3.695" gradientUnits="objectBoundingBox">
      <stop offset="0" stop-color="#febbba"/>
      <stop offset="1" stop-color="#ff928e"/>
    </linearGradient>
    <clipPath id="clip-path-10">
      <path id="Trazado_274884" data-name="Trazado 274884" d="M74.314,461.081A4.466,4.466,0,0,1,70.3,458.11c0,.012-.007.024-.009.036a3.181,3.181,0,0,0,2.143,3.627,14,14,0,0,0,5.935.928,5.9,5.9,0,0,0,4.45-2.052l.014-.018c-1.844.912-4.432,1.019-8.514.45" transform="translate(-70.203 -458.11)" fill="none"/>
    </clipPath>
    <linearGradient id="linear-gradient-5" x1="-6.101" y1="5.115" x2="-6.014" y2="5.115" xlink:href="#linear-gradient-2"/>
    <clipPath id="clip-path-12">
      <path id="Trazado_274886" data-name="Trazado 274886" d="M85.843,441.973h-4.1c-6.248-.127-10.172,13.052-11.456,18.156A4.466,4.466,0,0,0,74.3,463.1c4.082.569,6.67.462,8.514-.45,3.376-4.442,5.049-10.948,5.854-14.746a5.178,5.178,0,0,0-2.828-5.931" transform="translate(-70.285 -441.972)" fill="none"/>
    </clipPath>
    <linearGradient id="linear-gradient-6" x1="-4.097" y1="1.931" x2="-4.039" y2="1.931" xlink:href="#linear-gradient-3"/>
    <clipPath id="clip-path-14">
      <path id="Trazado_274888" data-name="Trazado 274888" d="M81.2,434.374l-2.278,9.06a2.46,2.46,0,0,0,1.28,2.787,8.727,8.727,0,0,0,4.716,1.142,2.057,2.057,0,0,0,1.676-1.37l3.344-9.532Z" transform="translate(-78.846 -434.374)" fill="none"/>
    </clipPath>
    <linearGradient id="linear-gradient-7" x1="-7.835" y1="3.833" x2="-7.735" y2="3.833" xlink:href="#linear-gradient-4"/>
    <clipPath id="clip-path-15">
      <path id="Trazado_274890" data-name="Trazado 274890" d="M117.182,332.879a182.352,182.352,0,0,0,37.824,27.107c1.943-9.355,4.053-18.205,6.247-26.508-22.443-.5-34.377-8.184-38.275-11.267-1.832,2.953-3.776,6.559-5.8,10.668" transform="translate(-117.182 -322.211)" fill="none"/>
    </clipPath>
    <linearGradient id="linear-gradient-8" x1="-2.169" y1="3.223" x2="-2.15" y2="3.223" xlink:href="#linear-gradient-2"/>
    <clipPath id="clip-path-17">
      <path id="Trazado_274893" data-name="Trazado 274893" d="M144.393,345.074a33.1,33.1,0,0,0-5.987,3.738c.629.414,1.267.829,1.9,1.236a30.445,30.445,0,0,1,5.011-3.058,1.064,1.064,0,0,0-.925-1.916" transform="translate(-138.406 -344.969)" fill="none"/>
    </clipPath>
    <linearGradient id="linear-gradient-9" x1="-19.542" y1="27.329" x2="-19.401" y2="27.329" xlink:href="#linear-gradient-2"/>
    <clipPath id="clip-path-18">
      <path id="Trazado_274894" data-name="Trazado 274894" d="M103.717,294.965c1.364,9.871,5.4,20.638,13.461,32.074l3.065-2.5a94.641,94.641,0,0,1-1.527-30.653,23.229,23.229,0,0,0-4.43-.394,44.557,44.557,0,0,0-10.569,1.473" transform="translate(-103.717 -293.492)" fill="none"/>
    </clipPath>
    <linearGradient id="linear-gradient-10" x1="-3.11" y1="5.831" x2="-3.078" y2="5.831" xlink:href="#linear-gradient-4"/>
    <clipPath id="clip-path-20">
      <path id="Trazado_274899" data-name="Trazado 274899" d="M153.58,244a5.69,5.69,0,0,0,2.007,8.181,85.546,85.546,0,0,0,8.515,3.889,4.224,4.224,0,0,0,5.649-2.812l5.908-21.717-9.8-5.856Z" transform="translate(-152.61 -225.686)" fill="none"/>
    </clipPath>
    <linearGradient id="linear-gradient-11" x1="-5.309" y1="11.675" x2="-5.274" y2="11.675" xlink:href="#linear-gradient-4"/>
    <clipPath id="clip-path-21">
      <path id="Trazado_274900" data-name="Trazado 274900" d="M112.23,332.129a182.9,182.9,0,0,0,17.479,15.579l115.951-53.639-3.812-9.118Z" transform="translate(-112.23 -284.951)" fill="none"/>
    </clipPath>
    <linearGradient id="linear-gradient-12" x1="-0.814" y1="2.28" x2="-0.806" y2="2.28" xlink:href="#linear-gradient-3"/>
    <clipPath id="clip-path-23">
      <rect id="Rectángulo_323439" data-name="Rectángulo 323439" width="149.448" height="146.753" fill="none"/>
    </clipPath>
    <clipPath id="clip-path-24">
      <path id="Trazado_274901" data-name="Trazado 274901" d="M372.31,263.655c0,40.525-33.455,73.377-74.724,73.377s-74.723-32.852-74.723-73.377,33.455-73.377,74.723-73.377,74.724,32.852,74.724,73.377" transform="translate(-222.862 -190.278)" fill="none"/>
    </clipPath>
    <linearGradient id="linear-gradient-13" x1="-1.678" y1="2.216" x2="-1.67" y2="2.216" gradientUnits="objectBoundingBox">
      <stop offset="0" stop-color="#b37cff"/>
      <stop offset="1" stop-color="#f895e7"/>
    </linearGradient>
    <clipPath id="clip-path-25">
      <path id="Trazado_274903" data-name="Trazado 274903" d="M227.588,264.574c0-38.469,31.759-69.655,70.934-69.655s70.934,31.185,70.934,69.655-31.758,69.654-70.934,69.654-70.934-31.184-70.934-69.654m-12.214,0c0,45.093,37.227,81.648,83.148,81.648s83.149-36.556,83.149-81.648-37.227-81.647-83.149-81.647-83.148,36.554-83.148,81.647" transform="translate(-215.374 -182.927)" fill="none"/>
    </clipPath>
    <linearGradient id="linear-gradient-14" x1="-1.457" y1="2.042" x2="-1.45" y2="2.042" xlink:href="#linear-gradient-3"/>
    <clipPath id="clip-path-27">
      <path id="Trazado_274906" data-name="Trazado 274906" d="M169.154,214.42l-1.284,23.836,13.876,3.14s4.981-24.408,4.928-24.781c-.393-2.718-3.763-3.486-7.446-3.486a49.887,49.887,0,0,0-10.074,1.29" transform="translate(-167.87 -213.129)" fill="none"/>
    </clipPath>
    <linearGradient id="linear-gradient-15" x1="-5.357" y1="9.961" x2="-5.323" y2="9.961" xlink:href="#linear-gradient-4"/>
    <clipPath id="clip-path-28">
      <path id="Trazado_274907" data-name="Trazado 274907" d="M181.6,209.017a1.733,1.733,0,0,1-2.455.744,1.4,1.4,0,0,0-1.586-.054,1.759,1.759,0,0,1-2.243-.264c-1.442-1.55-4.116-3.459-7.7-1.854-3.522,1.577-3.237,4.442-2.564,6.32a1.762,1.762,0,0,1-1.115,2.279c-4.553,1.48-3.695,5.093-3.07,6.653a1.721,1.721,0,0,0,.963.968c1.344.541,4.441,2.053,4.732,4.576.311,2.688-.059,12.277-.191,15.431a1.763,1.763,0,0,0,.857,1.585,56.752,56.752,0,0,0,12.232,5,1.756,1.756,0,0,0,2.132-1.037,75.988,75.988,0,0,0,3.193-11.374,1.759,1.759,0,0,0-1.21-2.035c-1.934-.591-4.734.153-7.789,1.018-3.365.953-4.094-2.381-4.235-3.361a1.841,1.841,0,0,1,0-.478l1.658-12.494a1.744,1.744,0,0,1,.827-1.269c1.437-.866,4.74-2.489,7.286-.942,3.349,2.036,10.025,3.573,11.666-.464s.936-10.929-5.282-11.995a7.554,7.554,0,0,0-1.275-.114,5.165,5.165,0,0,0-4.835,3.158" transform="translate(-160.367 -205.859)" fill="none"/>
    </clipPath>
    <linearGradient id="linear-gradient-16" x1="-3.533" y1="7.528" x2="-3.51" y2="7.528" xlink:href="#linear-gradient-3"/>
    <clipPath id="clip-path-29">
      <path id="Trazado_274908" data-name="Trazado 274908" d="M160.3,226.44c1.067,6.45,5.73,4.569,5.73,4.569s2.557-7.158-.07-8.912a4.677,4.677,0,0,0-2.556-.815c-1.985,0-3.7,1.536-3.1,5.157" transform="translate(-160.18 -221.283)" fill="none"/>
    </clipPath>
    <linearGradient id="linear-gradient-17" x1="-12.104" y1="20.798" x2="-12.027" y2="20.798" xlink:href="#linear-gradient-4"/>
    <clipPath id="clip-path-30">
      <path id="Trazado_274909" data-name="Trazado 274909" d="M117.595,320.83l-2.812,1.473c.079,5.339,6.406,2.485,6.406,2.485a65.546,65.546,0,0,1,10.863,1.45c4.582,1.165,6.048-.862,6.048-.862l-6.2-5.712Z" transform="translate(-114.783 -319.664)" fill="none"/>
    </clipPath>
    <linearGradient id="linear-gradient-18" x1="-5.69" y1="8.695" x2="-5.641" y2="8.695" xlink:href="#linear-gradient-4"/>
    <clipPath id="clip-path-31">
      <path id="Trazado_274910" data-name="Trazado 274910" d="M215.966,302.081c1.238.968,5.477-1.051,8.073-2.447a2.985,2.985,0,0,0,1.442-3.527c-.624-1.969-1.665-4.511-2.947-4.831a1.035,1.035,0,0,0-.245-.027c-2.524,0-11.248,6.987-6.323,10.833" transform="translate(-214.485 -291.248)" fill="none"/>
    </clipPath>
    <linearGradient id="linear-gradient-19" x1="-15.993" y1="17.928" x2="-15.917" y2="17.928" xlink:href="#linear-gradient-4"/>
  </defs>
  <g id="Grupo_1070887" data-name="Grupo 1070887" transform="translate(-390 -12254.811)">
    <path id="Trazado_814951" data-name="Trazado 814951" d="M-3248,718.532" transform="translate(3953 11621.811)" fill="none" stroke="#707070" stroke-width="1"/>
    <g id="Grupo_1070011" data-name="Grupo 1070011">
      <rect id="Rectángulo_375512" data-name="Rectángulo 375512" width="820" height="594" transform="translate(390 12254.811)" fill="url(#linear-gradient)"/>
      <g id="Grupo_1070006" data-name="Grupo 1070006" transform="translate(1738.829 10891.811)">
        <path id="Trazado_274829" data-name="Trazado 274829" d="M346.354,443.1a254.063,254.063,0,0,1-214.275,0l5.671-12.174L239.211,213.34,340.672,430.911Z" transform="translate(-1177.545 1419.689)" fill="#1b3f5e"/>
        <path id="Trazado_274830" data-name="Trazado 274830" d="M479.8,214.33l-13.389,1.17L227.3,236.427,364.977,39.793l7.707-11A253.177,253.177,0,0,1,479.8,214.33" transform="translate(-1165.633 1396.601)" fill="#dbf9bd"/>
        <path id="Trazado_274831" data-name="Trazado 274831" d="M255.373,236.427,16.268,215.5,2.879,214.33A253.177,253.177,0,0,1,110,28.79l7.707,11Z" transform="translate(-1193.708 1396.601)" fill="#3b5620"/>
        <path id="Trazado_274832" data-name="Trazado 274832" d="M435.195,333.365A240.862,240.862,0,0,1,328.76,430.911L227.3,213.34Z" transform="translate(-1165.633 1419.689)" fill="#0e2940"/>
        <path id="Trazado_274833" data-name="Trazado 274833" d="M467.327,215.667a238.774,238.774,0,0,1-32.133,120.025L227.3,215.667,466.416,194.74q.911,10.345.911,20.927" transform="translate(-1165.633 1417.361)" fill="#b3cc9b"/>
        <path id="Trazado_274834" data-name="Trazado 274834" d="M364.977,43.4,227.3,240.028V0A238.843,238.843,0,0,1,364.977,43.4" transform="translate(-1165.633 1393)" fill="#b3cc9b"/>
        <path id="Trazado_274835" data-name="Trazado 274835" d="M242.606,0V240.028L104.939,43.4A238.807,238.807,0,0,1,242.606,0" transform="translate(-1180.94 1393)" fill="#283b16"/>
        <path id="Trazado_274836" data-name="Trazado 274836" d="M253.986,215.667,46.091,335.692A238.879,238.879,0,0,1,13.969,215.667q0-10.582.911-20.927Z" transform="translate(-1192.32 1417.361)" fill="#283b16"/>
        <path id="Trazado_274837" data-name="Trazado 274837" d="M250.414,213.34,148.953,430.923A241.069,241.069,0,0,1,42.519,333.365Z" transform="translate(-1188.749 1419.689)" fill="#0e2940"/>
        <path id="Trazado_274838" data-name="Trazado 274838" d="M210.855,390.551l-1.2,9.407a4.858,4.858,0,0,1-1.937,3.522,5.7,5.7,0,0,1-4.181.854,5.768,5.768,0,0,1-3.805-1.828,4.779,4.779,0,0,1-1.038-3.831l1.211-9.515,2.942.374-1.2,9.427a2.735,2.735,0,0,0,.413,2.131,2.6,2.6,0,0,0,1.777.879q2.481.316,2.853-2.288l1.207-9.506Z" transform="translate(-1169.217 1441.683)" fill="#e2e8ec"/>
        <path id="Trazado_274839" data-name="Trazado 274839" d="M216.316,401.921a.922.922,0,0,0-.461-.86,5.9,5.9,0,0,0-1.625-.653q-3.753-1.063-3.585-3.5a2.942,2.942,0,0,1,1.343-2.291,4.768,4.768,0,0,1,3.149-.739,5.133,5.133,0,0,1,3.184,1.182,3.02,3.02,0,0,1,1.046,2.57l-2.851-.2a1.384,1.384,0,0,0-.324-1.038,1.674,1.674,0,0,0-1.206-.485,1.714,1.714,0,0,0-1.137.248,1.029,1.029,0,0,0-.451.8.878.878,0,0,0,.395.8,4.632,4.632,0,0,0,1.48.608,12.462,12.462,0,0,1,1.763.6,2.957,2.957,0,0,1,2.06,3.027,2.79,2.79,0,0,1-1.416,2.276,5.406,5.406,0,0,1-3.3.678,5.648,5.648,0,0,1-2.35-.642,4.011,4.011,0,0,1-1.541-1.426,3.055,3.055,0,0,1-.467-1.842l2.7.188a1.488,1.488,0,0,0,.48,1.2,2.239,2.239,0,0,0,1.374.5,2.071,2.071,0,0,0,1.259-.225.972.972,0,0,0,.476-.785" transform="translate(-1167.795 1442.271)" fill="#e2e8ec"/>
        <path id="Trazado_274840" data-name="Trazado 274840" d="M219.6,399.654a6.358,6.358,0,0,1,.66-2.827,4.489,4.489,0,0,1,1.8-1.9,5.148,5.148,0,0,1,2.686-.638,4.873,4.873,0,0,1,3.513,1.385,5.318,5.318,0,0,1,1.467,3.624l.008.732a5.6,5.6,0,0,1-1.441,3.928,5.328,5.328,0,0,1-7.381-.119,5.693,5.693,0,0,1-1.312-4.058Zm2.854.251a4,4,0,0,0,.534,2.342,2.062,2.062,0,0,0,3.263.064,4.38,4.38,0,0,0,.626-2.54,3.956,3.956,0,0,0-.545-2.327,1.894,1.894,0,0,0-1.627-.849,1.866,1.866,0,0,0-1.636.79,4.447,4.447,0,0,0-.615,2.52" transform="translate(-1166.596 1442.325)" fill="#e2e8ec"/>
        <path id="Trazado_274841" data-name="Trazado 274841" d="M240.1,405.03a5.252,5.252,0,0,1-3.912-1.21,5.136,5.136,0,0,1-1.708-3.751l-.017-.277a6.456,6.456,0,0,1,.448-2.914,4.57,4.57,0,0,1,1.644-2.061,4.957,4.957,0,0,1,2.56-.843,4.439,4.439,0,0,1,3.534,1.173,5.619,5.619,0,0,1,1.494,3.842l.071,1.165-6.8.411a2.652,2.652,0,0,0,.935,1.628,2.529,2.529,0,0,0,1.8.525,3.083,3.083,0,0,0,2.5-1.35l1.5,1.485a4.294,4.294,0,0,1-1.651,1.521,5.731,5.731,0,0,1-2.4.655m-.856-8.756a1.79,1.79,0,0,0-1.342.658,2.994,2.994,0,0,0-.577,1.687l3.968-.24-.013-.228a2.13,2.13,0,0,0-.6-1.44,1.846,1.846,0,0,0-1.433-.436" transform="translate(-1164.738 1442.284)" fill="#e2e8ec"/>
        <path id="Trazado_274842" data-name="Trazado 274842" d="M246.769,393.567l.23,1.219a3.733,3.733,0,0,1,2.891-1.775,3.109,3.109,0,0,1,2.629.7,4.67,4.67,0,0,1,1.185,2.87l.788,6.868-2.839.325-.781-6.8a1.857,1.857,0,0,0-.542-1.267,1.771,1.771,0,0,0-1.353-.258,1.966,1.966,0,0,0-1.681,1.229l.86,7.5-2.839.326-1.22-10.63Z" transform="translate(-1163.532 1442.16)" fill="#e2e8ec"/>
        <path id="Trazado_274843" data-name="Trazado 274843" d="M184.514,416.958l-1,4.973-2.907-.588,2.851-14.112,5.505,1.113a6.492,6.492,0,0,1,2.679,1.147,4.365,4.365,0,0,1,1.522,2.027,4.706,4.706,0,0,1,.158,2.57,4.134,4.134,0,0,1-2.081,2.984,6.032,6.032,0,0,1-4.172.4Zm.476-2.355,2.6.524a2.608,2.608,0,0,0,1.869-.187,2.014,2.014,0,0,0,.919-1.429,2.372,2.372,0,0,0-.272-1.8,2.324,2.324,0,0,0-1.553-1l-2.666-.539Z" transform="translate(-1171.475 1443.943)" fill="#e2e8ec"/>
        <rect id="Rectángulo_323421" data-name="Rectángulo 323421" width="15.189" height="2.868" transform="translate(-977.752 1867.8) rotate(-80.881)" fill="#e2e8ec"/>
        <path id="Trazado_274844" data-name="Trazado 274844" d="M203.28,424.7a3.125,3.125,0,0,1-.167-.987,3.463,3.463,0,0,1-2.822.815,3.8,3.8,0,0,1-2.474-1.224,2.923,2.923,0,0,1-.741-2.4,3.023,3.023,0,0,1,1.572-2.435,6.226,6.226,0,0,1,3.73-.464l1.306.163.075-.609a1.769,1.769,0,0,0-.232-1.225,1.5,1.5,0,0,0-1.137-.589,1.7,1.7,0,0,0-1.166.2,1.176,1.176,0,0,0-.524.891l-2.836-.352a2.87,2.87,0,0,1,.782-1.637,3.79,3.79,0,0,1,1.762-1.031,5.914,5.914,0,0,1,2.391-.156,4.665,4.665,0,0,1,2.993,1.373,3.48,3.48,0,0,1,.809,2.916l-.573,4.6a5.125,5.125,0,0,0,.138,2.339l-.021.167Zm-2.1-2.264a2.459,2.459,0,0,0,1.193-.136,1.855,1.855,0,0,0,.879-.653l.226-1.826-1.059-.13q-2.132-.267-2.45,1.189l-.03.165a1.144,1.144,0,0,0,.264.92,1.458,1.458,0,0,0,.978.47" transform="translate(-1169.418 1444.741)" fill="#e2e8ec"/>
        <path id="Trazado_274845" data-name="Trazado 274845" d="M210.493,414.692l0,1.24a3.739,3.739,0,0,1,3.174-1.2,3.11,3.11,0,0,1,2.449,1.187,4.653,4.653,0,0,1,.622,3.041l-.521,6.892-2.85-.215.516-6.824a1.853,1.853,0,0,0-.295-1.346,1.766,1.766,0,0,0-1.28-.509,1.965,1.965,0,0,0-1.882.889l-.569,7.524-2.85-.216.808-10.669Z" transform="translate(-1168.172 1444.852)" fill="#e2e8ec"/>
        <path id="Trazado_274846" data-name="Trazado 274846" d="M222.432,426.234a5.251,5.251,0,0,1-3.79-1.548,5.132,5.132,0,0,1-1.373-3.886l.008-.277a6.482,6.482,0,0,1,.7-2.863,4.58,4.58,0,0,1,1.818-1.909,4.958,4.958,0,0,1,2.624-.615,4.439,4.439,0,0,1,3.417,1.48,5.627,5.627,0,0,1,1.152,3.959l-.032,1.166-6.811-.187a2.648,2.648,0,0,0,.79,1.7,2.518,2.518,0,0,0,1.746.682,3.085,3.085,0,0,0,2.614-1.125l1.36,1.611a4.29,4.29,0,0,1-1.779,1.369,5.7,5.7,0,0,1-2.446.442m-.084-8.8a1.788,1.788,0,0,0-1.4.538,2.994,2.994,0,0,0-.722,1.63l3.974.109.007-.228a2.125,2.125,0,0,0-.474-1.488,1.842,1.842,0,0,0-1.389-.56" transform="translate(-1166.888 1444.932)" fill="#e2e8ec"/>
        <path id="Trazado_274847" data-name="Trazado 274847" d="M233.805,426.031a3.162,3.162,0,0,1-.3-.954,3.463,3.463,0,0,1-2.678,1.208,3.8,3.8,0,0,1-2.623-.861,2.928,2.928,0,0,1-1.077-2.274,3.025,3.025,0,0,1,1.211-2.634,6.213,6.213,0,0,1,3.626-.989l1.315-.025-.011-.613a1.762,1.762,0,0,0-.4-1.179,1.493,1.493,0,0,0-1.209-.422,1.706,1.706,0,0,0-1.125.367,1.175,1.175,0,0,0-.393.958l-2.857.054a2.862,2.862,0,0,1,.54-1.731,3.79,3.79,0,0,1,1.6-1.272,5.906,5.906,0,0,1,2.345-.494,4.664,4.664,0,0,1,3.158.934,3.476,3.476,0,0,1,1.215,2.771l.088,4.637a5.11,5.11,0,0,0,.469,2.3l0,.169Zm-2.4-1.943a2.459,2.459,0,0,0,1.161-.3,1.848,1.848,0,0,0,.776-.772l-.035-1.838-1.068.02q-2.145.041-2.256,1.527l-.007.168a1.147,1.147,0,0,0,.393.873,1.462,1.462,0,0,0,1.035.326" transform="translate(-1165.655 1444.936)" fill="#e2e8ec"/>
        <path id="Trazado_274848" data-name="Trazado 274848" d="M241.932,423.534a1.874,1.874,0,0,0,1.255-.518,1.523,1.523,0,0,0,.438-1.188l2.674-.173a3.665,3.665,0,0,1-.462,2.026,3.919,3.919,0,0,1-1.5,1.505,5,5,0,0,1-2.2.644,4.646,4.646,0,0,1-3.707-1.221,5.774,5.774,0,0,1-1.583-3.936l-.012-.187a5.705,5.705,0,0,1,1.056-4.022,4.588,4.588,0,0,1,3.506-1.7,4.5,4.5,0,0,1,3.285.93,4.041,4.041,0,0,1,1.427,2.954l-2.674.173a1.968,1.968,0,0,0-.6-1.321,1.912,1.912,0,0,0-2.794.388,4.213,4.213,0,0,0-.356,2.391l.019.3a4.272,4.272,0,0,0,.658,2.339,1.742,1.742,0,0,0,1.576.622" transform="translate(-1164.443 1444.883)" fill="#e2e8ec"/>
        <path id="Trazado_274849" data-name="Trazado 274849" d="M245.949,412.251a1.408,1.408,0,0,1,.323-1.1,1.855,1.855,0,0,1,2.327-.232,1.512,1.512,0,0,1,.207,2.116,1.834,1.834,0,0,1-2.313.231,1.4,1.4,0,0,1-.543-1.019m4.357,13.1-2.853.285-1.062-10.647,2.853-.285Z" transform="translate(-1163.301 1444.366)" fill="#e2e8ec"/>
        <path id="Trazado_274850" data-name="Trazado 274850" d="M251.153,419.944a6.356,6.356,0,0,1,.223-2.895,4.492,4.492,0,0,1,1.487-2.15,5.15,5.15,0,0,1,2.557-1.04,4.875,4.875,0,0,1,3.682.834,5.319,5.319,0,0,1,2,3.358l.118.722a5.594,5.594,0,0,1-.826,4.1,5.33,5.33,0,0,1-7.313,1.007,5.7,5.7,0,0,1-1.914-3.811Zm4.244-10.413,3.086-.422-2.3,3.408-2.3.316Zm-1.384,10.226a4,4,0,0,0,.884,2.232,2.059,2.059,0,0,0,3.235-.432,4.38,4.38,0,0,0,.232-2.606,3.965,3.965,0,0,0-.892-2.218,1.9,1.9,0,0,0-1.738-.591,1.864,1.864,0,0,0-1.5,1.029,4.446,4.446,0,0,0-.225,2.584" transform="translate(-1162.658 1444.179)" fill="#e2e8ec"/>
        <path id="Trazado_274851" data-name="Trazado 274851" d="M263.461,412.315l.316,1.2a3.731,3.731,0,0,1,2.757-1.977,3.109,3.109,0,0,1,2.673.513,4.661,4.661,0,0,1,1.387,2.778l1.277,6.793-2.808.528-1.265-6.725a1.852,1.852,0,0,0-.633-1.224,1.768,1.768,0,0,0-1.367-.161,1.967,1.967,0,0,0-1.589,1.346L265.6,422.8l-2.808.529-1.977-10.516Z" transform="translate(-1161.44 1444.471)" fill="#e2e8ec"/>
        <path id="Trazado_274852" data-name="Trazado 274852" d="M36.721,155.458l-.689,2.261,5.042,1.536-.864,2.837-13.772-4.2L28,152.779a6.053,6.053,0,0,1,2.236-3.434,3.925,3.925,0,0,1,3.478-.387,4.425,4.425,0,0,1,2.165,1.327,4.341,4.341,0,0,1,.935,2.305l6.537-1.265.133.04-.928,3.046Zm-2.987,1.561.7-2.29a2.45,2.45,0,0,0-.039-1.82,2.034,2.034,0,0,0-1.321-1.044,2.181,2.181,0,0,0-1.7.088,2.406,2.406,0,0,0-1.076,1.527L29.6,155.76Z" transform="translate(-1190.76 1411.606)" fill="#def1f0"/>
        <path id="Trazado_274853" data-name="Trazado 274853" d="M44.872,146.63a5.252,5.252,0,0,1-2.669,3.106,5.134,5.134,0,0,1-4.12.072l-.26-.1a6.454,6.454,0,0,1-2.494-1.572,4.569,4.569,0,0,1-1.236-2.33,4.959,4.959,0,0,1,.248-2.682,4.436,4.436,0,0,1,2.484-2.773,5.624,5.624,0,0,1,4.12.16l1.1.4-2.332,6.4a2.659,2.659,0,0,0,1.864-.209,2.528,2.528,0,0,0,1.2-1.442,3.086,3.086,0,0,0-.24-2.834l1.958-.781a4.281,4.281,0,0,1,.737,2.121,5.7,5.7,0,0,1-.354,2.459m-8.371-2.7a1.784,1.784,0,0,0,.069,1.493,2.978,2.978,0,0,0,1.317,1.2l1.361-3.735-.215-.078a2.127,2.127,0,0,0-1.562-.023,1.846,1.846,0,0,0-.971,1.141" transform="translate(-1189.814 1410.518)" fill="#def1f0"/>
        <rect id="Rectángulo_323422" data-name="Rectángulo 323422" width="2.868" height="15.189" transform="translate(-1157.039 1545.718) rotate(-67.873)" fill="#def1f0"/>
        <path id="Trazado_274854" data-name="Trazado 274854" d="M50.622,132.221a3.183,3.183,0,0,1-.992-.132,3.454,3.454,0,0,1-.053,2.935,3.8,3.8,0,0,1-1.9,2,2.924,2.924,0,0,1-2.516,0,3.02,3.02,0,0,1-1.864-2.219,6.219,6.219,0,0,1,.656-3.7l.54-1.2-.559-.252a1.774,1.774,0,0,0-1.239-.138,1.5,1.5,0,0,0-.9.914,1.7,1.7,0,0,0-.149,1.173,1.17,1.17,0,0,0,.7.763l-1.172,2.608a2.871,2.871,0,0,1-1.333-1.229,3.8,3.8,0,0,1-.467-1.99,5.9,5.9,0,0,1,.555-2.329,4.671,4.671,0,0,1,2.194-2.456,3.483,3.483,0,0,1,3.024.086l4.23,1.9a5.117,5.117,0,0,0,2.276.557l.153.07Zm-2.782,1.339a2.443,2.443,0,0,0,.222-1.178,1.854,1.854,0,0,0-.365-1.033l-1.679-.754-.438.972q-.881,1.958.415,2.692l.15.078a1.136,1.136,0,0,0,.957.019,1.454,1.454,0,0,0,.737-.8" transform="translate(-1189.142 1408.846)" fill="#def1f0"/>
        <path id="Trazado_274855" data-name="Trazado 274855" d="M52.124,124.322a1.873,1.873,0,0,0,.2-1.343,1.526,1.526,0,0,0-.8-.983l1.215-2.387a3.661,3.661,0,0,1,1.507,1.432,3.9,3.9,0,0,1,.528,2.06,5,5,0,0,1-.572,2.223,4.641,4.641,0,0,1-2.942,2.563,5.771,5.771,0,0,1-4.192-.647l-.168-.085a5.7,5.7,0,0,1-2.919-2.961,4.587,4.587,0,0,1,.324-3.885,4.5,4.5,0,0,1,2.477-2.35,4.045,4.045,0,0,1,3.27.282l-1.216,2.387a1.968,1.968,0,0,0-1.442-.158,1.911,1.911,0,0,0-1.092,2.6,4.215,4.215,0,0,0,1.873,1.526l.266.134a4.265,4.265,0,0,0,2.347.629,1.739,1.739,0,0,0,1.339-1.037" transform="translate(-1188.603 1407.728)" fill="#def1f0"/>
        <path id="Trazado_274856" data-name="Trazado 274856" d="M44.938,114.282a1.409,1.409,0,0,1-.717-.889,1.856,1.856,0,0,1,1.135-2.045,1.51,1.51,0,0,1,1.856,1.035,1.83,1.83,0,0,1-1.127,2.032,1.4,1.4,0,0,1-1.148-.133m13.25,3.879L56.8,120.669l-9.355-5.191,1.391-2.507Z" transform="translate(-1188.541 1406.922)" fill="#def1f0"/>
        <path id="Trazado_274857" data-name="Trazado 274857" d="M48.419,105.008l1.613-2.664,1.2,3.93-1.2,1.988Zm5.424,9.849a6.357,6.357,0,0,1-2.11-1.995A4.478,4.478,0,0,1,51,110.355a5.148,5.148,0,0,1,.8-2.643,4.875,4.875,0,0,1,2.965-2.338,5.326,5.326,0,0,1,3.87.557l.637.362a5.6,5.6,0,0,1,2.668,3.222,5.328,5.328,0,0,1-3.819,6.317,5.7,5.7,0,0,1-4.166-.909Zm1.654-2.34a3.99,3.99,0,0,0,2.293.717,2.059,2.059,0,0,0,1.7-2.786,4.372,4.372,0,0,0-1.88-1.82,3.962,3.962,0,0,0-2.284-.7,1.9,1.9,0,0,0-1.554.979,1.868,1.868,0,0,0-.141,1.81,4.444,4.444,0,0,0,1.868,1.8" transform="translate(-1188.01 1405.803)" fill="#def1f0"/>
        <path id="Trazado_274858" data-name="Trazado 274858" d="M56.41,100.313l1.073.62a3.74,3.74,0,0,1,.537-3.351,3.112,3.112,0,0,1,2.247-1.537,4.669,4.669,0,0,1,2.949.97l5.725,3.875-1.6,2.367-5.667-3.837a1.851,1.851,0,0,0-1.314-.412,1.773,1.773,0,0,0-1.078.858,1.965,1.965,0,0,0-.162,2.076l6.248,4.228-1.6,2.367-8.86-6Z" transform="translate(-1187.2 1405.014)" fill="#def1f0"/>
        <path id="Trazado_274859" data-name="Trazado 274859" d="M72.916,91.9a1.872,1.872,0,0,0,.452-1.279,1.519,1.519,0,0,0-.592-1.119l1.657-2.106a3.662,3.662,0,0,1,1.2,1.7,3.918,3.918,0,0,1,.117,2.123,5,5,0,0,1-.992,2.069,4.645,4.645,0,0,1-3.384,1.943,5.762,5.762,0,0,1-3.986-1.449l-.147-.116a5.7,5.7,0,0,1-2.288-3.473,4.586,4.586,0,0,1,1.073-3.748,4.493,4.493,0,0,1,2.887-1.824,4.044,4.044,0,0,1,3.151.911l-1.656,2.106a1.97,1.97,0,0,0-1.385-.434,1.911,1.911,0,0,0-1.577,2.339A4.232,4.232,0,0,0,68.986,91.4l.234.183a4.257,4.257,0,0,0,2.18,1.072,1.742,1.742,0,0,0,1.516-.757" transform="translate(-1185.951 1403.579)" fill="#def1f0"/>
        <path id="Trazado_274860" data-name="Trazado 274860" d="M73.1,86.262a6.346,6.346,0,0,1-1.741-2.324,4.491,4.491,0,0,1-.3-2.6,5.162,5.162,0,0,1,1.24-2.467,4.877,4.877,0,0,1,3.318-1.8,5.322,5.322,0,0,1,3.72,1.207l.566.466a5.591,5.591,0,0,1,2.08,3.628,5.327,5.327,0,0,1-4.838,5.575,5.691,5.691,0,0,1-3.95-1.6Zm2.027-2.024a4,4,0,0,0,2.137,1.1,2.061,2.061,0,0,0,2.148-2.457,4.376,4.376,0,0,0-1.543-2.113,3.954,3.954,0,0,0-2.132-1.079,1.9,1.9,0,0,0-1.7.7,1.861,1.861,0,0,0-.447,1.76,4.441,4.441,0,0,0,1.534,2.093" transform="translate(-1185.187 1402.639)" fill="#def1f0"/>
        <path id="Trazado_274861" data-name="Trazado 274861" d="M78.369,72.69l.953.793a3.734,3.734,0,0,1,1.1-3.21,3.1,3.1,0,0,1,2.474-1.133A4.658,4.658,0,0,1,85.636,70.6l4.982,4.792L88.637,77.45l-4.931-4.743a1.856,1.856,0,0,0-1.225-.63,1.773,1.773,0,0,0-1.208.663,1.967,1.967,0,0,0-.513,2.017L86.2,79.987l-1.981,2.06L76.5,74.629Z" transform="translate(-1184.497 1401.649)" fill="#def1f0"/>
        <path id="Trazado_274862" data-name="Trazado 274862" d="M55.819,161.238l4.832,1.546-.9,2.825-13.713-4.388,1.711-5.349a6.5,6.5,0,0,1,1.434-2.537,4.38,4.38,0,0,1,2.183-1.289,4.706,4.706,0,0,1,2.571.127,4.135,4.135,0,0,1,2.737,2.4,6.034,6.034,0,0,1-.059,4.191Zm-2.288-.732.808-2.524a2.61,2.61,0,0,0,.019-1.879,2.012,2.012,0,0,0-1.319-1.07,2.369,2.369,0,0,0-1.819.072,2.325,2.325,0,0,0-1.164,1.433l-.829,2.59Z" transform="translate(-1188.309 1412.005)" fill="#def1f0"/>
        <path id="Trazado_274863" data-name="Trazado 274863" d="M57.5,145.969a7.824,7.824,0,0,0-.438.935,2.1,2.1,0,0,0,.277,2.377l6.55,2.471-1.009,2.674-10.01-3.777.953-2.527,1.221.376a2.648,2.648,0,0,1-.537-2.75,3,3,0,0,1,.434-.788Z" transform="translate(-1187.454 1411.135)" fill="#def1f0"/>
        <path id="Trazado_274864" data-name="Trazado 274864" d="M59.7,147.2a6.328,6.328,0,0,1-2.365-1.684,4.485,4.485,0,0,1-1.074-2.383,5.153,5.153,0,0,1,.43-2.727,4.869,4.869,0,0,1,2.614-2.724,5.323,5.323,0,0,1,3.911.018l.68.271a5.592,5.592,0,0,1,3.086,2.823,5.324,5.324,0,0,1-2.912,6.783,5.688,5.688,0,0,1-4.251-.326Zm1.315-2.545a4,4,0,0,0,2.369.395,2.061,2.061,0,0,0,1.3-2.995,4.372,4.372,0,0,0-2.112-1.543,3.962,3.962,0,0,0-2.359-.38,1.9,1.9,0,0,0-1.4,1.184,1.865,1.865,0,0,0,.109,1.813,4.448,4.448,0,0,0,2.1,1.527" transform="translate(-1187.035 1410.178)" fill="#def1f0"/>
        <path id="Trazado_274865" data-name="Trazado 274865" d="M64.056,138.125a6.45,6.45,0,0,1-3.064-2.785,3.637,3.637,0,0,1,.043-3.409,3.286,3.286,0,0,1,2.2-1.789L58.351,127.7l1.279-2.565,13.589,6.785-1.153,2.309-1.079-.384a3.363,3.363,0,0,1-.034,3.056,3.632,3.632,0,0,1-2.686,2.047,6.66,6.66,0,0,1-4.211-.827m1.467-2.462a4.217,4.217,0,0,0,2.3.561,1.708,1.708,0,0,0,1.4-1,1.913,1.913,0,0,0-.167-2.173l-3.784-1.889a1.886,1.886,0,0,0-1.827,1.154q-.921,1.85,2.081,3.349" transform="translate(-1186.768 1408.655)" fill="#def1f0"/>
        <path id="Trazado_274866" data-name="Trazado 274866" d="M75.7,124.948a3.582,3.582,0,0,1-.338,3.178,3.38,3.38,0,0,1-2.162,1.788,4.227,4.227,0,0,1-2.975-.636L64.137,125.8l1.42-2.48,6.006,3.437a1.416,1.416,0,0,0,2.209-.492,2.062,2.062,0,0,0,.116-2.234l-6.582-3.767,1.424-2.489,9.287,5.314-1.337,2.335Z" transform="translate(-1186.044 1407.733)" fill="#def1f0"/>
        <path id="Trazado_274867" data-name="Trazado 274867" d="M78.88,117.452a1.881,1.881,0,0,0,.333-1.315,1.528,1.528,0,0,0-.692-1.061l1.455-2.25a3.672,3.672,0,0,1,1.351,1.58,3.92,3.92,0,0,1,.312,2.1,5.011,5.011,0,0,1-.8,2.152,4.65,4.65,0,0,1-3.191,2.247,5.774,5.774,0,0,1-4.1-1.076l-.158-.1a5.7,5.7,0,0,1-2.6-3.246,4.587,4.587,0,0,1,.723-3.831,4.494,4.494,0,0,1,2.706-2.083,4.042,4.042,0,0,1,3.222.618l-1.455,2.25a1.967,1.967,0,0,0-1.42-.306,1.913,1.913,0,0,0-1.355,2.474,4.216,4.216,0,0,0,1.707,1.71l.25.162a4.279,4.279,0,0,0,2.27.867,1.743,1.743,0,0,0,1.439-.894" transform="translate(-1185.231 1406.818)" fill="#def1f0"/>
        <path id="Trazado_274868" data-name="Trazado 274868" d="M84.148,109.781a1.873,1.873,0,0,0,.4-1.3,1.521,1.521,0,0,0-.636-1.095l1.571-2.171a3.655,3.655,0,0,1,1.267,1.648,3.917,3.917,0,0,1,.2,2.117,5.022,5.022,0,0,1-.908,2.107,4.649,4.649,0,0,1-3.3,2.077,5.774,5.774,0,0,1-4.041-1.289l-.153-.109a5.7,5.7,0,0,1-2.425-3.379,4.588,4.588,0,0,1,.921-3.788,4.5,4.5,0,0,1,2.813-1.939,4.047,4.047,0,0,1,3.185.785l-1.571,2.171a1.963,1.963,0,0,0-1.4-.379,1.91,1.91,0,0,0-1.483,2.4,4.215,4.215,0,0,0,1.615,1.8l.242.174a4.272,4.272,0,0,0,2.221.984,1.742,1.742,0,0,0,1.484-.818" transform="translate(-1184.558 1405.834)" fill="#def1f0"/>
        <path id="Trazado_274869" data-name="Trazado 274869" d="M78.588,98.748a1.408,1.408,0,0,1-.566-.992,1.855,1.855,0,0,1,1.445-1.84,1.511,1.511,0,0,1,1.67,1.317A1.834,1.834,0,0,1,79.7,99.06a1.4,1.4,0,0,1-1.113-.313m12.467,5.933-1.772,2.255-8.413-6.61L82.64,98.07Z" transform="translate(-1184.308 1404.997)" fill="#def1f0"/>
        <path id="Trazado_274870" data-name="Trazado 274870" d="M83.542,90.13l2.025-2.368.549,4.074L84.606,93.6Zm3.752,10.6a6.336,6.336,0,0,1-1.759-2.311,4.49,4.49,0,0,1-.318-2.594,5.156,5.156,0,0,1,1.221-2.476,4.87,4.87,0,0,1,3.3-1.825A5.318,5.318,0,0,1,93.471,92.7l.569.46a5.6,5.6,0,0,1,2.108,3.613,5.326,5.326,0,0,1-4.794,5.613,5.689,5.689,0,0,1-3.963-1.574Zm2.012-2.04a4,4,0,0,0,2.146,1.079,2.061,2.061,0,0,0,2.129-2.473,4.376,4.376,0,0,0-1.559-2.1,3.961,3.961,0,0,0-2.14-1.063,1.9,1.9,0,0,0-1.692.713,1.869,1.869,0,0,0-.433,1.764,4.455,4.455,0,0,0,1.55,2.08" transform="translate(-1183.617 1403.979)" fill="#def1f0"/>
        <path id="Trazado_274871" data-name="Trazado 274871" d="M92.3,86.713l.955.792a3.734,3.734,0,0,1,1.09-3.213,3.109,3.109,0,0,1,2.472-1.139,4.66,4.66,0,0,1,2.745,1.45l4.993,4.782-1.976,2.063-4.944-4.732a1.847,1.847,0,0,0-1.228-.627,1.773,1.773,0,0,0-1.2.666,1.964,1.964,0,0,0-.509,2.018l5.45,5.217-1.977,2.065-7.728-7.4Z" transform="translate(-1182.754 1403.401)" fill="#def1f0"/>
        <circle id="Elipse_4299" data-name="Elipse 4299" cx="181.884" cy="181.884" r="181.884" transform="translate(-1120.214 1451.14)" fill="none" stroke="#000" stroke-miterlimit="10" stroke-width="0.833"/>
        <path id="Trazado_274872" data-name="Trazado 274872" d="M429.411,233.56A181.884,181.884,0,1,1,247.526,51.676,181.884,181.884,0,0,1,429.411,233.56" transform="translate(-1185.856 1399.464)" fill="#e2e8ec"/>
        <circle id="Elipse_4300" data-name="Elipse 4300" cx="181.884" cy="181.884" r="181.884" transform="translate(-1120.214 1451.14)" fill="none" stroke="#000" stroke-miterlimit="10" stroke-width="1"/>
        <text id="Clasificación_" data-name="Clasificación " transform="translate(-1018.143 1543.914)" fill="#12263f" font-size="23" font-family="Roboto-Bold, Roboto" font-weight="700"><tspan x="0" y="0">Clasificación </tspan></text>
        <text id="de_los_costos" data-name="de los costos" transform="translate(-1019.79 1570.917)" fill="#12263f" font-size="23" font-family="Roboto-Bold, Roboto" font-weight="700"><tspan x="0" y="0">de los cos</tspan><tspan y="0" letter-spacing="-0.012em">t</tspan><tspan y="0">os</tspan></text>
        <path id="Trazado_274873" data-name="Trazado 274873" d="M348.006,261.372a52.852,52.852,0,1,1-52.851-52.851,52.851,52.851,0,0,1,52.851,52.851" transform="translate(-1163.756 1419.085)" fill="#dbf9bd"/>
        <path id="Trazado_274874" data-name="Trazado 274874" d="M346.053,261.177a51.095,51.095,0,1,1-51.094-51.094,51.094,51.094,0,0,1,51.094,51.094" transform="translate(-1163.561 1419.281)" fill="#3b5620"/>
        <g id="Grupo_257163" data-name="Grupo 257163" transform="translate(-911.907 1632.12)" opacity="0.78">
          <g id="Grupo_257162" data-name="Grupo 257162">
            <g id="Grupo_257161" data-name="Grupo 257161" clip-path="url(#clip-path)">
              <path id="Trazado_274875" data-name="Trazado 274875" d="M251.959,240.818a1.172,1.172,0,0,1-1.045-1.7,48.134,48.134,0,0,1,43.178-26.586,48.737,48.737,0,0,1,8.719.785,1.172,1.172,0,1,1-.421,2.306,46.338,46.338,0,0,0-8.3-.747,45.8,45.8,0,0,0-41.085,25.3,1.171,1.171,0,0,1-1.047.644" transform="translate(-250.788 -212.533)" fill="#fff"/>
            </g>
          </g>
        </g>
        <g id="Grupo_257166" data-name="Grupo 257166" transform="translate(-910.734 1638.326)" opacity="0.78">
          <g id="Grupo_257165" data-name="Grupo 257165">
            <g id="Grupo_257164" data-name="Grupo 257164" clip-path="url(#clip-path-2)">
              <path id="Trazado_274876" data-name="Trazado 274876" d="M338.32,261.294a43.245,43.245,0,1,1-43.245-43.245,43.246,43.246,0,0,1,43.245,43.245" transform="translate(-251.83 -218.049)" fill="#fff"/>
            </g>
          </g>
        </g>
        <path id="Trazado_274877" data-name="Trazado 274877" d="M288.141,292.038v-4.705a38.354,38.354,0,0,1-13.2-2.862,2.72,2.72,0,0,1-1.5-3.214l1.195-4.382a2.744,2.744,0,0,1,3.724-1.8,31.836,31.836,0,0,0,12.188,2.566c4.724,0,8.247-1.6,8.247-4.884,0-2.962-2.722-4.724-9.288-6.485-9.368-2.563-16.094-6.646-16.094-14.893,0-7.447,5.445-13.132,14.893-14.653v-4.705a2.741,2.741,0,0,1,2.742-2.741h2.764a2.741,2.741,0,0,1,2.742,2.741v4.225a35,35,0,0,1,10.463,1.879,2.728,2.728,0,0,1,1.7,3.293l-1.1,4.053a2.733,2.733,0,0,1-3.609,1.846,28.545,28.545,0,0,0-10.262-1.863c-5.605,0-7.206,2.322-7.206,4.4,0,2.563,3.363,4.324,10.649,6.566,10.409,3.123,14.732,7.446,14.732,15.214,0,7.125-5.285,13.532-15.533,15.133v5.265a2.742,2.742,0,0,1-2.741,2.742h-2.764a2.742,2.742,0,0,1-2.742-2.742" transform="translate(-1159.874 1421.682)" fill="#3b5620"/>
        <g id="Grupo_257172" data-name="Grupo 257172" transform="translate(-1120.215 1451.14)">
          <g id="Grupo_257171" data-name="Grupo 257171" clip-path="url(#clip-path-3)">
            <g id="Grupo_257170" data-name="Grupo 257170" transform="translate(70.81 458.699)">
              <g id="Grupo_257169" data-name="Grupo 257169" clip-path="url(#clip-path-4)">
                <rect id="Rectángulo_323427" data-name="Rectángulo 323427" width="33.222" height="3.567" fill="url(#linear-gradient-2)"/>
              </g>
            </g>
          </g>
        </g>
        <g id="Grupo_257176" data-name="Grupo 257176" transform="translate(-1120.215 1451.14)">
          <g id="Grupo_257175" data-name="Grupo 257175" clip-path="url(#clip-path-3)">
            <g id="Grupo_257174" data-name="Grupo 257174" transform="translate(70.808 447.303)">
              <g id="Grupo_257173" data-name="Grupo 257173" clip-path="url(#clip-path-6)">
                <rect id="Rectángulo_323428" data-name="Rectángulo 323428" width="32.052" height="13.22" transform="translate(-0.035)" fill="url(#linear-gradient-3)"/>
              </g>
            </g>
          </g>
        </g>
        <g id="Grupo_257180" data-name="Grupo 257180" transform="translate(-1120.215 1451.14)">
          <g id="Grupo_257179" data-name="Grupo 257179" clip-path="url(#clip-path-3)">
            <g id="Grupo_257178" data-name="Grupo 257178" transform="translate(73.853 439.182)">
              <g id="Grupo_257177" data-name="Grupo 257177" clip-path="url(#clip-path-8)">
                <rect id="Rectángulo_323429" data-name="Rectángulo 323429" width="9.28" height="11.35" fill="url(#linear-gradient-4)"/>
              </g>
            </g>
          </g>
        </g>
        <g id="Grupo_257184" data-name="Grupo 257184" transform="translate(-1120.215 1451.14)">
          <g id="Grupo_257183" data-name="Grupo 257183" clip-path="url(#clip-path-3)">
            <g id="Grupo_257182" data-name="Grupo 257182" transform="translate(5.133 457.278)">
              <g id="Grupo_257181" data-name="Grupo 257181" clip-path="url(#clip-path-10)">
                <rect id="Rectángulo_323430" data-name="Rectángulo 323430" width="12.901" height="4.662" transform="translate(-0.277)" fill="url(#linear-gradient-5)"/>
              </g>
            </g>
          </g>
        </g>
        <g id="Grupo_257188" data-name="Grupo 257188" transform="translate(-1120.215 1451.14)">
          <g id="Grupo_257187" data-name="Grupo 257187" clip-path="url(#clip-path-3)">
            <g id="Grupo_257186" data-name="Grupo 257186" transform="translate(5.225 439.121)">
              <g id="Grupo_257185" data-name="Grupo 257185" clip-path="url(#clip-path-12)">
                <rect id="Rectángulo_323431" data-name="Rectángulo 323431" width="19.301" height="21.824" transform="translate(0 -0.126)" fill="url(#linear-gradient-6)"/>
              </g>
            </g>
          </g>
        </g>
        <g id="Grupo_257192" data-name="Grupo 257192" transform="translate(-1120.215 1451.14)">
          <g id="Grupo_257191" data-name="Grupo 257191" clip-path="url(#clip-path-3)">
            <g id="Grupo_257190" data-name="Grupo 257190" transform="translate(14.856 430.573)">
              <g id="Grupo_257189" data-name="Grupo 257189" clip-path="url(#clip-path-14)">
                <rect id="Rectángulo_323432" data-name="Rectángulo 323432" width="11.296" height="13.188" transform="translate(-0.205)" fill="url(#linear-gradient-7)"/>
              </g>
            </g>
          </g>
        </g>
        <g id="Grupo_257194" data-name="Grupo 257194" transform="translate(-1062.227 1755.519)">
          <g id="Grupo_257193" data-name="Grupo 257193" clip-path="url(#clip-path-15)">
            <rect id="Rectángulo_323433" data-name="Rectángulo 323433" width="57.652" height="58.004" transform="translate(-18.828 20.381) rotate(-47.268)" fill="url(#linear-gradient-8)"/>
          </g>
        </g>
        <g id="Grupo_257196" data-name="Grupo 257196" transform="translate(-1120.215 1451.14)">
          <g id="Grupo_257195" data-name="Grupo 257195" clip-path="url(#clip-path-3)">
            <path id="Trazado_274891" data-name="Trazado 274891" d="M128.265,240.813c-4.247,21.188-2.725,59.111-1.726,76.41.281,4.862-3.112,11.6-5.856,16.2a1.443,1.443,0,0,0,.583,2.029c4.593,2.36,20.153,9.676,38.186,10.586a2.571,2.571,0,0,0,2.588-1.922c13.376-49.946,28.913-81.862,28.913-81.862-17.153-27.393-62.687-21.441-62.687-21.441" transform="translate(-58.781 -28.084)" fill="#632059"/>
          </g>
        </g>
        <g id="Grupo_257198" data-name="Grupo 257198" transform="translate(-1038.348 1781.123)">
          <g id="Grupo_257197" data-name="Grupo 257197" clip-path="url(#clip-path-17)">
            <rect id="Rectángulo_323434" data-name="Rectángulo 323434" width="7.961" height="5.542" transform="translate(-0.313 0.019) rotate(-3.54)" fill="url(#linear-gradient-9)"/>
          </g>
        </g>
        <g id="Grupo_257200" data-name="Grupo 257200" transform="translate(-1077.376 1723.207)">
          <g id="Grupo_257199" data-name="Grupo 257199" clip-path="url(#clip-path-18)">
            <rect id="Rectángulo_323435" data-name="Rectángulo 323435" width="34.612" height="36.071" transform="matrix(0.749, -0.663, 0.663, 0.749, -16.65, 14.744)" fill="url(#linear-gradient-10)"/>
          </g>
        </g>
        <g id="Grupo_257202" data-name="Grupo 257202" transform="translate(-1120.215 1451.14)">
          <g id="Grupo_257201" data-name="Grupo 257201" clip-path="url(#clip-path-3)">
            <path id="Trazado_274895" data-name="Trazado 274895" d="M135.167,266.9l-4.745-26.144s-31.7,24.231-26.645,60.81c4.148-1.05,10.023-2.05,15-1.079,1.449-11.738,5.779-24.482,16.39-33.587" transform="translate(-60.939 -28.023)" fill="#632059"/>
            <path id="Trazado_274896" data-name="Trazado 274896" d="M184.477,259.809,172.24,286.162c1.979,15.91,10.525,22.789,19.741,25.427a55.908,55.908,0,0,1,4.11-17.161c-11.775-12.157-11.614-34.619-11.614-34.619" transform="translate(-52.306 -25.639)" fill="#632059"/>
            <path id="Trazado_274897" data-name="Trazado 274897" d="M193.9,290.579a55.935,55.935,0,0,0-4.11,17.161c24.588,9.54,31.092-8.96,31.092-8.96l-4.544-.8c-10.261,1.081-17.429-2.227-22.438-7.4" transform="translate(-50.111 -21.79)" fill="#632059"/>
          </g>
        </g>
        <g id="Grupo_257204" data-name="Grupo 257204" transform="translate(-1022.367 1646.919)">
          <g id="Grupo_257203" data-name="Grupo 257203" clip-path="url(#clip-path-20)">
            <rect id="Rectángulo_323436" data-name="Rectángulo 323436" width="31.462" height="24.133" transform="translate(-1.084 31.322) rotate(-89.665)" fill="url(#linear-gradient-11)"/>
          </g>
        </g>
        <g id="Grupo_257206" data-name="Grupo 257206" transform="translate(-1067.798 1713.597)">
          <g id="Grupo_257205" data-name="Grupo 257205" clip-path="url(#clip-path-21)">
            <rect id="Rectángulo_323437" data-name="Rectángulo 323437" width="146.921" height="105.193" transform="translate(-20.439 7.57) rotate(-20.323)" fill="url(#linear-gradient-12)"/>
          </g>
        </g>
        <g id="Grupo_257213" data-name="Grupo 257213" transform="translate(-1120.215 1451.14)">
          <g id="Grupo_257212" data-name="Grupo 257212" clip-path="url(#clip-path-3)">
            <g id="Grupo_257211" data-name="Grupo 257211" transform="translate(176.889 155.941)" opacity="0.23">
              <g id="Grupo_257210" data-name="Grupo 257210">
                <g id="Grupo_257209" data-name="Grupo 257209" clip-path="url(#clip-path-23)">
                  <g id="Grupo_257208" data-name="Grupo 257208" transform="translate(0 0)">
                    <g id="Grupo_257207" data-name="Grupo 257207" clip-path="url(#clip-path-24)">
                      <rect id="Rectángulo_323438" data-name="Rectángulo 323438" width="149.448" height="146.753" transform="translate(0 0)" fill="url(#linear-gradient-13)"/>
                    </g>
                  </g>
                </g>
              </g>
            </g>
          </g>
        </g>
        <g id="Grupo_257215" data-name="Grupo 257215" transform="translate(-951.751 1598.81)">
          <g id="Grupo_257214" data-name="Grupo 257214" clip-path="url(#clip-path-25)">
            <rect id="Rectángulo_323440" data-name="Rectángulo 323440" width="166.297" height="163.295" transform="translate(0 0)" fill="url(#linear-gradient-14)"/>
          </g>
        </g>
        <g id="Grupo_257217" data-name="Grupo 257217" transform="translate(-1120.215 1451.14)">
          <g id="Grupo_257216" data-name="Grupo 257216" clip-path="url(#clip-path-3)">
            <path id="Trazado_274904" data-name="Trazado 274904" d="M221.112,274.127a.557.557,0,0,1-.554-.488c-.249-1.945-.422-3.915-.518-5.854a.559.559,0,0,1,.531-.585.523.523,0,0,1,.586.53c.093,1.91.264,3.851.509,5.768a.559.559,0,0,1-.484.624.509.509,0,0,1-.071,0m.57-22.83a.6.6,0,0,1-.1-.009.557.557,0,0,1-.45-.648,75.156,75.156,0,0,1,4.485-15.353h0c11.987-29.077,40.374-47.866,72.319-47.866a78.777,78.777,0,0,1,41.878,11.968.559.559,0,0,1-.594.947,77.66,77.66,0,0,0-41.284-11.8c-31.491,0-59.473,18.518-71.286,47.176v0a73.973,73.973,0,0,0-4.419,15.121.559.559,0,0,1-.549.46" transform="translate(-46.326 -34.695)" fill="#91b3fa"/>
          </g>
        </g>
        <g id="Grupo_257219" data-name="Grupo 257219" transform="translate(-1005.198 1632.791)">
          <g id="Grupo_257218" data-name="Grupo 257218" clip-path="url(#clip-path-27)">
            <rect id="Rectángulo_323441" data-name="Rectángulo 323441" width="33.859" height="30.163" transform="translate(-11.953 21.675) rotate(-61.125)" fill="url(#linear-gradient-15)"/>
          </g>
        </g>
        <g id="Grupo_257221" data-name="Grupo 257221" transform="translate(-1013.639 1624.612)">
          <g id="Grupo_257220" data-name="Grupo 257220" clip-path="url(#clip-path-28)">
            <rect id="Rectángulo_323442" data-name="Rectángulo 323442" width="48.866" height="40.585" transform="translate(-6.555 44.094) rotate(-82.794)" fill="url(#linear-gradient-16)"/>
          </g>
        </g>
        <g id="Grupo_257223" data-name="Grupo 257223" transform="translate(-1013.85 1641.965)">
          <g id="Grupo_257222" data-name="Grupo 257222" clip-path="url(#clip-path-29)">
            <rect id="Rectángulo_323443" data-name="Rectángulo 323443" width="14.614" height="14.015" transform="translate(-6 7.587) rotate(-53.945)" fill="url(#linear-gradient-17)"/>
          </g>
        </g>
        <g id="Grupo_257225" data-name="Grupo 257225" transform="translate(-1064.926 1752.653)">
          <g id="Grupo_257224" data-name="Grupo 257224" clip-path="url(#clip-path-30)">
            <rect id="Rectángulo_323444" data-name="Rectángulo 323444" width="22.745" height="21.431" transform="matrix(0.749, -0.663, 0.663, 0.749, -3.959, 3.506)" fill="url(#linear-gradient-18)"/>
          </g>
        </g>
        <g id="Grupo_257227" data-name="Grupo 257227" transform="translate(-952.752 1720.683)">
          <g id="Grupo_257226" data-name="Grupo 257226" clip-path="url(#clip-path-31)">
            <rect id="Rectángulo_323445" data-name="Rectángulo 323445" width="14.874" height="11.8" transform="translate(-3.444)" fill="url(#linear-gradient-19)"/>
          </g>
        </g>
        <g id="Grupo_257229" data-name="Grupo 257229" transform="translate(-1120.215 1451.14)">
          <g id="Grupo_257228" data-name="Grupo 257228" clip-path="url(#clip-path-3)">
            <path id="Trazado_274911" data-name="Trazado 274911" d="M96.4,354.268a.581.581,0,0,1-.183-.03c-5.912-2.044-7.287-5.538-7.4-8.109a9.006,9.006,0,0,1,5.872-8.677l18.177-7.087a.558.558,0,1,1,.4,1.041l-18.176,7.087a7.887,7.887,0,0,0-5.16,7.588c.14,3.235,2.376,5.624,6.649,7.1a.559.559,0,0,1-.183,1.087" transform="translate(-62.743 -16.818)" fill="#91b3fa"/>
            <path id="Trazado_274912" data-name="Trazado 274912" d="M115.4,329.605a.559.559,0,0,1-.2-1.079l2.357-.918a.558.558,0,1,1,.4,1.041l-2.356.919a.556.556,0,0,1-.2.037" transform="translate(-59.486 -17.163)" fill="#91b3fa"/>
          </g>
        </g>
        <path id="Trazado_274914" data-name="Trazado 274914" d="M82.832,338.038l-3.211-3.914L76.97,336.3l3.769,4.594L79.1,342.235,73.66,335.6l9.894-8.118,5.43,6.619-1.651,1.355-3.758-4.58-2.358,1.935,3.211,3.914Z" transform="translate(-1184.853 1433.968)" fill="#e2e8ec"/>
        <path id="Trazado_274915" data-name="Trazado 274915" d="M84.8,344.413a.816.816,0,0,0,.237-.834,5.255,5.255,0,0,0-.635-1.422q-1.74-3-.125-4.45a2.613,2.613,0,0,1,2.274-.633,4.245,4.245,0,0,1,2.467,1.475,4.562,4.562,0,0,1,1.3,2.724,2.691,2.691,0,0,1-.921,2.29l-1.7-1.89a1.228,1.228,0,0,0,.435-.863,1.491,1.491,0,0,0-.471-1.055,1.516,1.516,0,0,0-.879-.545.914.914,0,0,0-.784.233.781.781,0,0,0-.24.752,4.084,4.084,0,0,0,.569,1.3,11.143,11.143,0,0,1,.753,1.474,2.631,2.631,0,0,1-.556,3.208,2.484,2.484,0,0,1-2.312.577,4.815,4.815,0,0,1-2.526-1.605,5.022,5.022,0,0,1-1.1-1.863,3.552,3.552,0,0,1-.1-1.864,2.716,2.716,0,0,1,.839-1.464l1.611,1.79a1.327,1.327,0,0,0-.435,1.067,1.981,1.981,0,0,0,.566,1.169,1.847,1.847,0,0,0,.944.635.861.861,0,0,0,.789-.207" transform="translate(-1184.009 1435.162)" fill="#e2e8ec"/>
        <path id="Trazado_274916" data-name="Trazado 274916" d="M95.74,342.852l-1.681,1.625,1.13,1.169-1.34,1.3-1.13-1.169-3.414,3.3a1.141,1.141,0,0,0-.4.672,1.016,1.016,0,0,0,.374.714,4.031,4.031,0,0,0,.564.494l-1.385,1.339a5.282,5.282,0,0,1-1.233-.947,2.425,2.425,0,0,1,.047-3.834l3.685-3.562-.965-1,1.34-1.294.965,1,1.681-1.626Z" transform="translate(-1183.271 1435.661)" fill="#e2e8ec"/>
        <path id="Trazado_274917" data-name="Trazado 274917" d="M93.051,356.532a2.794,2.794,0,0,1,.407-.791,3.078,3.078,0,0,1-2.444-.921,3.373,3.373,0,0,1-1.108-2.189,2.6,2.6,0,0,1,.75-2.106,2.689,2.689,0,0,1,2.416-.9,5.529,5.529,0,0,1,2.9,1.655l.843.81.378-.393a1.564,1.564,0,0,0,.487-.995,1.334,1.334,0,0,0-.5-1.026,1.515,1.515,0,0,0-.939-.475,1.047,1.047,0,0,0-.847.354l-1.832-1.76A2.545,2.545,0,0,1,95,347.051a3.367,3.367,0,0,1,1.8.2,5.244,5.244,0,0,1,1.784,1.162,4.141,4.141,0,0,1,1.4,2.571,3.087,3.087,0,0,1-.975,2.506l-2.857,2.971A4.55,4.55,0,0,0,95,358.2l-.1.107Zm-.29-2.729a2.186,2.186,0,0,0,.921.539,1.654,1.654,0,0,0,.972,0l1.133-1.178-.684-.658q-1.374-1.323-2.377-.458l-.109.1a1.014,1.014,0,0,0-.3.8,1.3,1.3,0,0,0,.446.855" transform="translate(-1182.822 1436.409)" fill="#e2e8ec"/>
        <path id="Trazado_274918" data-name="Trazado 274918" d="M103.651,353.406l-.664.88a3.319,3.319,0,0,1,2.9.844,2.759,2.759,0,0,1,1.107,2.15,4.149,4.149,0,0,1-1.18,2.494l-4.049,4.622-1.91-1.676,4.009-4.572a1.656,1.656,0,0,0,.509-1.116,1.58,1.58,0,0,0-.64-1.044,1.747,1.747,0,0,0-1.811-.372L97.5,360.66l-1.91-1.675,6.267-7.152Z" transform="translate(-1182.11 1437.014)" fill="#e2e8ec"/>
        <path id="Trazado_274919" data-name="Trazado 274919" d="M105.207,361.073a5.737,5.737,0,0,1,2.986-2.15,3.235,3.235,0,0,1,2.957.668,2.913,2.913,0,0,1,1.15,2.239l3.021-3.8,1.995,1.588-8.407,10.565-1.8-1.429.533-.867A2.989,2.989,0,0,1,105,367.3a3.227,3.227,0,0,1-1.285-2.713,5.919,5.919,0,0,1,1.5-3.511m1.87,1.73a3.762,3.762,0,0,0-.914,1.895,1.519,1.519,0,0,0,.617,1.4,1.7,1.7,0,0,0,1.918.257l2.341-2.942a1.677,1.677,0,0,0-.667-1.8q-1.436-1.144-3.3,1.191" transform="translate(-1181.094 1437.789)" fill="#e2e8ec"/>
        <path id="Trazado_274920" data-name="Trazado 274920" d="M114.377,374.049a2.811,2.811,0,0,1,.293-.842,3.07,3.07,0,0,1-2.547-.572,3.372,3.372,0,0,1-1.4-2.012,2.6,2.6,0,0,1,.45-2.191,2.687,2.687,0,0,1,2.267-1.224,5.526,5.526,0,0,1,3.105,1.234l.947.684.32-.441a1.568,1.568,0,0,0,.343-1.053,1.331,1.331,0,0,0-.635-.946,1.511,1.511,0,0,0-1-.341,1.046,1.046,0,0,0-.79.47l-2.059-1.487a2.549,2.549,0,0,1,1.308-.941,3.371,3.371,0,0,1,1.815-.051,5.26,5.26,0,0,1,1.93.9,4.149,4.149,0,0,1,1.745,2.35,3.086,3.086,0,0,1-.618,2.618l-2.413,3.34a4.537,4.537,0,0,0-.893,1.882l-.088.12Zm-.668-2.663a2.186,2.186,0,0,0,.987.4,1.657,1.657,0,0,0,.965-.132l.956-1.327-.768-.556q-1.548-1.117-2.419-.12l-.094.116a1.017,1.017,0,0,0-.187.829,1.3,1.3,0,0,0,.56.785" transform="translate(-1180.226 1438.565)" fill="#e2e8ec"/>
        <path id="Trazado_274921" data-name="Trazado 274921" d="M125.606,373.133a6.808,6.808,0,0,0-.722-.565,1.858,1.858,0,0,0-2.114-.235l-3.45,5.179-2.114-1.409,5.272-7.915,2,1.331-.569.982a2.352,2.352,0,0,1,2.488.083,2.685,2.685,0,0,1,.6.533Z" transform="translate(-1179.406 1439.06)" fill="#e2e8ec"/>
        <path id="Trazado_274922" data-name="Trazado 274922" d="M334.5,372.777l-4.255,2.743L332.1,378.4l5-3.219,1.148,1.781-7.213,4.647L324.1,370.852l7.2-4.638,1.157,1.8-4.981,3.209,1.653,2.564,4.256-2.742Z" transform="translate(-1153.524 1438.813)" fill="#e2e8ec"/>
        <path id="Trazado_274923" data-name="Trazado 274923" d="M341.127,370.974a.818.818,0,0,0-.8-.331,5.218,5.218,0,0,0-1.485.468q-3.178,1.386-4.436-.385a2.61,2.61,0,0,1-.368-2.331,4.228,4.228,0,0,1,1.747-2.283,4.564,4.564,0,0,1,2.854-.983,2.688,2.688,0,0,1,2.168,1.177l-2.07,1.472a1.234,1.234,0,0,0-.809-.531,1.491,1.491,0,0,0-1.1.347,1.529,1.529,0,0,0-.642.812.916.916,0,0,0,.142.806.785.785,0,0,0,.721.324,4.147,4.147,0,0,0,1.36-.417,10.971,10.971,0,0,1,1.549-.579,2.629,2.629,0,0,1,3.123.918,2.482,2.482,0,0,1,.309,2.363,4.817,4.817,0,0,1-1.883,2.327,5.041,5.041,0,0,1-1.977.882,3.552,3.552,0,0,1-1.863-.11,2.711,2.711,0,0,1-1.359-1l1.962-1.4a1.327,1.327,0,0,0,1.009.555,1.981,1.981,0,0,0,1.226-.43,1.839,1.839,0,0,0,.739-.865.862.862,0,0,0-.116-.807" transform="translate(-1152.296 1438.677)" fill="#e2e8ec"/>
        <path id="Trazado_274924" data-name="Trazado 274924" d="M340.8,359.907l1.422,1.855,1.29-.989,1.134,1.478-1.29.989,2.888,3.768a1.126,1.126,0,0,0,.621.476,1.007,1.007,0,0,0,.753-.288,4.156,4.156,0,0,0,.555-.5l1.171,1.527a5.168,5.168,0,0,1-1.081,1.117,2.424,2.424,0,0,1-3.8-.483l-3.119-4.067-1.1.845-1.134-1.478,1.1-.845-1.423-1.855Z" transform="translate(-1151.687 1438.024)" fill="#e2e8ec"/>
        <path id="Trazado_274925" data-name="Trazado 274925" d="M342.579,358.474a1.252,1.252,0,0,1-.294-.973A1.648,1.648,0,0,1,343.9,356.2a1.342,1.342,0,0,1,1.185,1.472,1.63,1.63,0,0,1-1.607,1.3,1.246,1.246,0,0,1-.9-.492m9.623,7.616-1.984,1.6-5.976-7.4,1.982-1.6Z" transform="translate(-1151.25 1437.559)" fill="#e2e8ec"/>
        <path id="Trazado_274926" data-name="Trazado 274926" d="M349.011,356.652l.766.743a3.344,3.344,0,0,1,1.217-2.744,2.539,2.539,0,0,1,2.849-.594,3.266,3.266,0,0,1,1.17-2.983,2.837,2.837,0,0,1,2.319-.857,4.148,4.148,0,0,1,2.368,1.522l4.037,4.538-1.9,1.694-4.032-4.53a1.8,1.8,0,0,0-1.022-.673,1.4,1.4,0,0,0-1.082.462,1.586,1.586,0,0,0-.457,1.867l4.347,4.873-1.9,1.689-4.027-4.524a1.783,1.783,0,0,0-1.037-.676,1.409,1.409,0,0,0-1.072.46,1.646,1.646,0,0,0-.574,1.71l4.471,5.022-1.9,1.689-6.324-7.1Z" transform="translate(-1150.63 1436.808)" fill="#e2e8ec"/>
        <path id="Trazado_274927" data-name="Trazado 274927" d="M367.919,351.392a2.829,2.829,0,0,1-.784-.422,3.073,3.073,0,0,1-.966,2.425,3.382,3.382,0,0,1-2.209,1.069,2.6,2.6,0,0,1-2.093-.792,2.689,2.689,0,0,1-.851-2.432,5.531,5.531,0,0,1,1.71-2.869l.826-.828-.386-.385a1.572,1.572,0,0,0-.986-.505,1.327,1.327,0,0,0-1.034.476,1.515,1.515,0,0,0-.494.929,1.046,1.046,0,0,0,.34.854l-1.794,1.8a2.546,2.546,0,0,1-.722-1.442,3.377,3.377,0,0,1,.237-1.8,5.235,5.235,0,0,1,1.2-1.763,4.15,4.15,0,0,1,2.6-1.351,3.091,3.091,0,0,1,2.487,1.024l2.917,2.912a4.547,4.547,0,0,0,1.717,1.18l.106.1Zm-2.734.238a2.186,2.186,0,0,0,.555-.911,1.652,1.652,0,0,0,.021-.972l-1.158-1.155-.669.672q-1.35,1.35-.5,2.368l.1.112a1.02,1.02,0,0,0,.789.316,1.3,1.3,0,0,0,.865-.43" transform="translate(-1149.228 1436.076)" fill="#e2e8ec"/>
        <path id="Trazado_274928" data-name="Trazado 274928" d="M366.528,346.46a5.735,5.735,0,0,1-1.949-3.121,3.235,3.235,0,0,1,.862-2.906,2.905,2.905,0,0,1,2.31-1l-3.589-3.265,1.715-1.887,9.987,9.086-1.542,1.7-.831-.59a2.99,2.99,0,0,1-.765,2.607,3.235,3.235,0,0,1-2.793,1.1,5.926,5.926,0,0,1-3.4-1.725m1.85-1.752a3.748,3.748,0,0,0,1.832,1.035,1.516,1.516,0,0,0,1.438-.521,1.7,1.7,0,0,0,.381-1.9l-2.781-2.529a1.673,1.673,0,0,0-1.841.546q-1.237,1.36.971,3.367" transform="translate(-1148.512 1434.818)" fill="#e2e8ec"/>
        <path id="Trazado_274929" data-name="Trazado 274929" d="M372.6,339.235a5.652,5.652,0,0,1-1.6-2.027,3.985,3.985,0,0,1-.322-2.3,4.572,4.572,0,0,1,1.048-2.22,4.331,4.331,0,0,1,2.909-1.672,4.73,4.73,0,0,1,3.33.991l.514.4a4.962,4.962,0,0,1,1.927,3.18,4.734,4.734,0,0,1-4.175,5.061,5.062,5.062,0,0,1-3.546-1.339Zm1.757-1.844a3.553,3.553,0,0,0,1.923.928,1.833,1.833,0,0,0,1.854-2.231,3.886,3.886,0,0,0-1.416-1.843,3.52,3.52,0,0,0-1.918-.913,1.685,1.685,0,0,0-1.493.659,1.654,1.654,0,0,0-.358,1.573,3.945,3.945,0,0,0,1.409,1.826" transform="translate(-1147.703 1434.406)" fill="#e2e8ec"/>
        <path id="Trazado_274930" data-name="Trazado 274930" d="M383.575,329.014a.818.818,0,0,0-.864-.072,5.248,5.248,0,0,0-1.274.894q-2.607,2.283-4.343.979a2.616,2.616,0,0,1-1.058-2.111,4.238,4.238,0,0,1,.973-2.706,4.571,4.571,0,0,1,2.422-1.8,2.687,2.687,0,0,1,2.424.465l-1.528,2.03a1.226,1.226,0,0,0-.93-.26,1.486,1.486,0,0,0-.946.663,1.517,1.517,0,0,0-.365.968.914.914,0,0,0,.378.726.782.782,0,0,0,.785.09,4.116,4.116,0,0,0,1.169-.809,11.135,11.135,0,0,1,1.3-1.022,2.63,2.63,0,0,1,3.254-.071,2.482,2.482,0,0,1,1.011,2.158,4.816,4.816,0,0,1-1.091,2.788,5.028,5.028,0,0,1-1.617,1.439,3.552,3.552,0,0,1-1.809.46,2.724,2.724,0,0,1-1.6-.542l1.449-1.925a1.323,1.323,0,0,0,1.13.223,1.987,1.987,0,0,0,1.039-.781,1.833,1.833,0,0,0,.441-1.047.862.862,0,0,0-.354-.735" transform="translate(-1147.027 1433.543)" fill="#e2e8ec"/>
        <path id="Trazado_274931" data-name="Trazado 274931" d="M56.308,281.709l-10.017.844-1.08-2.731,13.539-.564,1.013,2.558L49.5,290.653l-1.077-2.722Z" transform="translate(-1188.412 1427.935)" fill="#def1f0"/>
        <path id="Trazado_274932" data-name="Trazado 274932" d="M55.1,270.787a2.836,2.836,0,0,1-.726.515,3.073,3.073,0,0,1,1.744,1.942A3.375,3.375,0,0,1,56.1,275.7a2.6,2.6,0,0,1-1.636,1.524,2.687,2.687,0,0,1-2.557-.315,5.539,5.539,0,0,1-1.815-2.806l-.375-1.107-.516.176a1.563,1.563,0,0,0-.89.659,1.327,1.327,0,0,0-.032,1.137,1.511,1.511,0,0,0,.614.855,1.045,1.045,0,0,0,.916.074l.816,2.405a2.556,2.556,0,0,1-1.612.009A3.375,3.375,0,0,1,47.5,277.3a5.229,5.229,0,0,1-1.05-1.853,4.155,4.155,0,0,1-.061-2.926,3.094,3.094,0,0,1,2.021-1.775l3.9-1.323a4.554,4.554,0,0,0,1.818-1.016l.142-.048Zm-1,2.556a2.183,2.183,0,0,0-.57-.9,1.645,1.645,0,0,0-.863-.45l-1.548.524.3.9q.613,1.808,1.9,1.5l.143-.039a1.016,1.016,0,0,0,.635-.568,1.3,1.3,0,0,0,0-.964" transform="translate(-1188.294 1426.57)" fill="#def1f0"/>
        <path id="Trazado_274933" data-name="Trazado 274933" d="M45.855,264.35a6.951,6.951,0,0,0,.191.9q.41,1.382,1.473,1.536l5.968-1.765.72,2.436-9.12,2.7-.681-2.3,1.068-.388a2.357,2.357,0,0,1-1.858-1.661,2.693,2.693,0,0,1-.115-.791Z" transform="translate(-1188.626 1426.07)" fill="#def1f0"/>
        <path id="Trazado_274934" data-name="Trazado 274934" d="M41.325,264.966a1.25,1.25,0,0,1-1.007-.127,1.648,1.648,0,0,1-.534-2.009,1.342,1.342,0,0,1,1.827-.482,1.632,1.632,0,0,1,.532,2,1.244,1.244,0,0,1-.818.622M52.2,259.279l.656,2.463-9.191,2.447-.656-2.463Z" transform="translate(-1189.11 1425.435)" fill="#def1f0"/>
        <path id="Trazado_274935" data-name="Trazado 274935" d="M50.27,253.077a2.816,2.816,0,0,1-.774.439,3.069,3.069,0,0,1,1.538,2.11,3.373,3.373,0,0,1-.27,2.438,2.6,2.6,0,0,1-1.782,1.351,2.689,2.689,0,0,1-2.512-.574,5.539,5.539,0,0,1-1.521-2.975l-.261-1.14-.531.122a1.566,1.566,0,0,0-.952.566,1.328,1.328,0,0,0-.147,1.13,1.516,1.516,0,0,0,.524.912,1.046,1.046,0,0,0,.9.167l.567,2.476a2.558,2.558,0,0,1-1.6-.155,3.38,3.38,0,0,1-1.4-1.159,5.266,5.266,0,0,1-.857-1.95,4.152,4.152,0,0,1,.237-2.917,3.093,3.093,0,0,1,2.191-1.562l4.018-.92a4.539,4.539,0,0,0,1.912-.827l.146-.033Zm-1.252,2.443a2.2,2.2,0,0,0-.476-.955,1.647,1.647,0,0,0-.813-.534l-1.593.365.213.926q.425,1.858,1.738,1.684l.147-.025a1.017,1.017,0,0,0,.689-.5,1.3,1.3,0,0,0,.1-.96" transform="translate(-1188.933 1424.346)" fill="#def1f0"/>
        <path id="Trazado_274936" data-name="Trazado 274936" d="M43.9,242.584a5.761,5.761,0,0,1,3.68.331,3.235,3.235,0,0,1,1.741,2.456,2.974,2.974,0,0,1-.732,2.641l1.016-.066.4,2.25-13.289,2.384-.449-2.5,4.767-.856a2.886,2.886,0,0,1-1.42-2.093,3.255,3.255,0,0,1,.776-2.913,5.769,5.769,0,0,1,3.369-1.609Zm.267,2.533a3.793,3.793,0,0,0-1.991.821,1.549,1.549,0,0,0-.413,1.458,1.677,1.677,0,0,0,1.272,1.469l3.695-.663a1.7,1.7,0,0,0,.689-1.838,1.57,1.57,0,0,0-1.481-1.378,6.262,6.262,0,0,0-1.771.13" transform="translate(-1189.53 1423.329)" fill="#def1f0"/>
        <rect id="Rectángulo_323446" data-name="Rectángulo 323446" width="13.5" height="2.549" transform="translate(-1154.949 1662.923) rotate(-8.119)" fill="#def1f0"/>
        <path id="Trazado_274937" data-name="Trazado 274937" d="M47.219,232.961a4.67,4.67,0,0,1-.912,3.524,4.568,4.568,0,0,1-3.259,1.672l-.244.026A5.75,5.75,0,0,1,40.2,237.9a4.05,4.05,0,0,1-1.9-1.374,4.4,4.4,0,0,1-.855-2.238,3.952,3.952,0,0,1,.9-3.186,5.01,5.01,0,0,1,3.351-1.486l1.031-.11.647,6.021a2.355,2.355,0,0,0,1.406-.9,2.248,2.248,0,0,0,.392-1.62,2.739,2.739,0,0,0-1.3-2.167l1.256-1.391a3.812,3.812,0,0,1,1.42,1.4,5.086,5.086,0,0,1,.681,2.1m-7.738,1.123a1.587,1.587,0,0,0,.64,1.164,2.652,2.652,0,0,0,1.521.442l-.377-3.514-.2.023a1.889,1.889,0,0,0-1.254.594,1.639,1.639,0,0,0-.327,1.291" transform="translate(-1189.388 1421.704)" fill="#def1f0"/>
        <path id="Trazado_274938" data-name="Trazado 274938" d="M43.681,223.844a.817.817,0,0,0-.7.506,5.2,5.2,0,0,0-.387,1.508q-.5,3.431-2.669,3.564a2.614,2.614,0,0,1-2.175-.918,4.237,4.237,0,0,1-1.016-2.69,4.563,4.563,0,0,1,.672-2.942,2.689,2.689,0,0,1,2.144-1.221l.156,2.536a1.226,1.226,0,0,0-.876.406,1.482,1.482,0,0,0-.288,1.118,1.511,1.511,0,0,0,.351.973.914.914,0,0,0,.758.306.783.783,0,0,0,.655-.441,4.11,4.11,0,0,0,.365-1.375,11.092,11.092,0,0,1,.326-1.622,2.628,2.628,0,0,1,2.429-2.167,2.48,2.48,0,0,1,2.17.983,4.816,4.816,0,0,1,.98,2.828,5.031,5.031,0,0,1-.294,2.146,3.568,3.568,0,0,1-1.078,1.523,2.711,2.711,0,0,1-1.568.626l-.149-2.4a1.33,1.33,0,0,0,1-.565,1.983,1.983,0,0,0,.282-1.268,1.846,1.846,0,0,0-.344-1.083.864.864,0,0,0-.747-.329" transform="translate(-1189.474 1420.694)" fill="#def1f0"/>
        <path id="Trazado_274939" data-name="Trazado 274939" d="M161.848,39.323l-4.7,1.891,1.953,4.851-2.446.984-4.779-11.872,7.731-3.112.8,1.981-5.285,2.128,1.234,3.066,4.7-1.891Z" transform="translate(-1175.068 1397.012)" fill="#def1f0"/>
        <path id="Trazado_274940" data-name="Trazado 274940" d="M160.427,32.471a1.246,1.246,0,0,1,.039-1.015,1.647,1.647,0,0,1,1.954-.708,1.341,1.341,0,0,1,.639,1.778,1.63,1.63,0,0,1-1.942.7,1.244,1.244,0,0,1-.691-.758m6.612,10.337-2.4.867L161.4,34.734l2.4-.867Z" transform="translate(-1174.01 1396.833)" fill="#def1f0"/>
        <path id="Trazado_274941" data-name="Trazado 274941" d="M164.537,31a1.251,1.251,0,0,1,.063-1.014,1.654,1.654,0,0,1,1.973-.665,1.347,1.347,0,0,1,.594,1.795,1.629,1.629,0,0,1-1.958.659,1.25,1.25,0,0,1-.673-.775m3.392,1.455,3.2,9.506a3.4,3.4,0,0,1-.011,2.587,3.175,3.175,0,0,1-2,1.6,5.134,5.134,0,0,1-1.239.259l-.642-1.907a4.883,4.883,0,0,0,.784-.18,1.051,1.051,0,0,0,.7-1.526l-3.2-9.522Z" transform="translate(-1173.494 1396.653)" fill="#def1f0"/>
        <path id="Trazado_274942" data-name="Trazado 274942" d="M170.292,36.215a5.615,5.615,0,0,1-.195-2.573,3.983,3.983,0,0,1,1.016-2.09,4.57,4.57,0,0,1,2.107-1.258,4.324,4.324,0,0,1,3.346.235,4.733,4.733,0,0,1,2.214,2.68l.2.619a4.971,4.971,0,0,1-.172,3.714,4.734,4.734,0,0,1-6.288,1.872,5.054,5.054,0,0,1-2.2-3.09Zm2.488-.55a3.549,3.549,0,0,0,1.077,1.842,1.833,1.833,0,0,0,2.786-.817,3.916,3.916,0,0,0-.15-2.32,3.514,3.514,0,0,0-1.082-1.827,1.686,1.686,0,0,0-1.608-.286,1.663,1.663,0,0,0-1.176,1.107,3.956,3.956,0,0,0,.153,2.3" transform="translate(-1172.798 1396.762)" fill="#def1f0"/>
        <path id="Trazado_274943" data-name="Trazado 274943" d="M184.976,34.443a.82.82,0,0,0-.623-.6,5.284,5.284,0,0,0-1.553-.11q-3.465.12-3.984-1.988a2.616,2.616,0,0,1,.514-2.3,4.244,4.244,0,0,1,2.464-1.481,4.571,4.571,0,0,1,3.016.135,2.688,2.688,0,0,1,1.584,1.892l-2.467.608a1.226,1.226,0,0,0-.557-.791,1.485,1.485,0,0,0-1.151-.083,1.523,1.523,0,0,0-.9.519.92.92,0,0,0-.165.8.784.784,0,0,0,.552.565,4.088,4.088,0,0,0,1.417.113,11.21,11.21,0,0,1,1.656.032,2.628,2.628,0,0,1,2.565,2,2.48,2.48,0,0,1-.581,2.311,4.813,4.813,0,0,1-2.607,1.471,5.031,5.031,0,0,1-2.162.093,3.556,3.556,0,0,1-1.692-.788,2.708,2.708,0,0,1-.9-1.431l2.338-.576a1.325,1.325,0,0,0,.735.888,1.986,1.986,0,0,0,1.3.052,1.849,1.849,0,0,0,1.006-.533.864.864,0,0,0,.189-.793" transform="translate(-1171.708 1396.474)" fill="#def1f0"/>
        <path id="Trazado_274944" data-name="Trazado 274944" d="M256.657,34.705l2.335-12.583,3.871.718a5.972,5.972,0,0,1,2.83,1.3,5.292,5.292,0,0,1,1.649,2.506,6.674,6.674,0,0,1,.154,3.268l-.108.579a6.7,6.7,0,0,1-1.3,2.986,5.264,5.264,0,0,1-2.429,1.739,6.03,6.03,0,0,1-3.105.212Zm4.538-10-1.558,8.4,1.253.233a2.863,2.863,0,0,0,2.508-.563,4.564,4.564,0,0,0,1.349-2.691l.124-.666a4.639,4.639,0,0,0-.255-3.055,2.859,2.859,0,0,0-2.141-1.422Z" transform="translate(-1161.96 1395.767)"/>
        <path id="Trazado_274945" data-name="Trazado 274945" d="M269.2,37.25l-2.485-.565,2.105-9.274,2.485.564Zm.018-12.273a1.249,1.249,0,0,1,.582-.833,1.647,1.647,0,0,1,2.026.46,1.34,1.34,0,0,1-.422,1.842,1.63,1.63,0,0,1-2.015-.457,1.251,1.251,0,0,1-.171-1.013" transform="translate(-1160.702 1395.998)"/>
        <path id="Trazado_274946" data-name="Trazado 274946" d="M277.606,31.622a6.843,6.843,0,0,0-.867-.295,1.86,1.86,0,0,0-2.074.477l-1.543,6.028-2.461-.63,2.357-9.213,2.326.6-.214,1.116a2.353,2.353,0,0,1,2.377-.744,2.69,2.69,0,0,1,.738.306Z" transform="translate(-1160.208 1396.502)"/>
        <path id="Trazado_274947" data-name="Trazado 274947" d="M280.128,39.9a4.669,4.669,0,0,1-2.9-2.2,4.563,4.563,0,0,1-.284-3.652l.07-.236a5.738,5.738,0,0,1,1.261-2.3,4.06,4.06,0,0,1,2-1.221,4.417,4.417,0,0,1,2.394.074,3.95,3.95,0,0,1,2.594,2.056,5,5,0,0,1,.079,3.664l-.3.995-5.8-1.727A2.356,2.356,0,0,0,279.529,37a2.245,2.245,0,0,0,1.343.987,2.743,2.743,0,0,0,2.5-.365l.8,1.694a3.808,3.808,0,0,1-1.842.768,5.071,5.071,0,0,1-2.2-.183m1.95-7.572a1.586,1.586,0,0,0-1.321.141,2.653,2.653,0,0,0-1,1.234l3.388,1.007.057-.195a1.9,1.9,0,0,0-.064-1.387,1.644,1.644,0,0,0-1.064-.8" transform="translate(-1159.454 1396.774)"/>
        <path id="Trazado_274948" data-name="Trazado 274948" d="M288.479,40.467a1.665,1.665,0,0,0,1.206.011,1.355,1.355,0,0,0,.768-.821l2.25.784a3.259,3.259,0,0,1-1.081,1.5,3.468,3.468,0,0,1-1.752.711,4.435,4.435,0,0,1-2.024-.235,4.129,4.129,0,0,1-2.613-2.283,5.126,5.126,0,0,1,.068-3.77l.054-.159a5.07,5.07,0,0,1,2.259-2.926,4.081,4.081,0,0,1,3.46-.181,4,4,0,0,1,2.367,1.9,3.6,3.6,0,0,1,.144,2.913l-2.249-.784a1.747,1.747,0,0,0-.035-1.289,1.7,1.7,0,0,0-2.421-.65,3.767,3.767,0,0,0-1.119,1.834l-.087.25a3.819,3.819,0,0,0-.272,2.142,1.549,1.549,0,0,0,1.077,1.055" transform="translate(-1158.427 1397.103)"/>
        <path id="Trazado_274949" data-name="Trazado 274949" d="M299,34.077l-.852,2.178,1.514.592-.678,1.735-1.514-.592-1.729,4.421a1.134,1.134,0,0,0-.088.777,1.02,1.02,0,0,0,.638.5,4.256,4.256,0,0,0,.718.215l-.7,1.792a5.214,5.214,0,0,1-1.516-.348,2.425,2.425,0,0,1-1.555-3.506l1.867-4.773-1.294-.505.68-1.735,1.293.505.852-2.177Z" transform="translate(-1157.416 1397.147)"/>
        <path id="Trazado_274950" data-name="Trazado 274950" d="M298.17,40.892a5.642,5.642,0,0,1,1.508-2.095,3.992,3.992,0,0,1,2.123-.944,4.576,4.576,0,0,1,2.422.394,4.331,4.331,0,0,1,2.41,2.335,4.73,4.73,0,0,1-.033,3.475l-.244.6a4.973,4.973,0,0,1-2.522,2.732,4.735,4.735,0,0,1-6.017-2.617A5.059,5.059,0,0,1,298.125,41Zm2.257,1.18a3.547,3.547,0,0,0-.36,2.105,1.831,1.831,0,0,0,2.655,1.166,3.891,3.891,0,0,0,1.381-1.871,3.514,3.514,0,0,0,.348-2.095,1.688,1.688,0,0,0-1.046-1.253,1.658,1.658,0,0,0-1.611.09,3.955,3.955,0,0,0-1.366,1.859" transform="translate(-1156.841 1397.731)"/>
        <path id="Trazado_274951" data-name="Trazado 274951" d="M310.581,49.012a.818.818,0,0,0-.09-.862,5.2,5.2,0,0,0-1.116-1.085q-2.729-2.138-1.77-4.085a2.616,2.616,0,0,1,1.877-1.432,4.23,4.23,0,0,1,2.839.453,4.562,4.562,0,0,1,2.222,2.044,2.688,2.688,0,0,1-.006,2.466l-2.278-1.123a1.229,1.229,0,0,0,.082-.963,1.493,1.493,0,0,0-.828-.806,1.52,1.52,0,0,0-1.019-.178.913.913,0,0,0-.641.506.782.782,0,0,0,.057.789,4.113,4.113,0,0,0,1.013,1,11.119,11.119,0,0,1,1.247,1.089,2.63,2.63,0,0,1,.675,3.184,2.48,2.48,0,0,1-1.932,1.4,4.815,4.815,0,0,1-2.942-.552,5.034,5.034,0,0,1-1.716-1.321,3.56,3.56,0,0,1-.788-1.691,2.719,2.719,0,0,1,.235-1.672l2.16,1.063a1.326,1.326,0,0,0-.008,1.152,1.982,1.982,0,0,0,.96.875,1.843,1.843,0,0,0,1.112.24.865.865,0,0,0,.656-.486" transform="translate(-1155.86 1398.187)"/>
        <rect id="Rectángulo_323447" data-name="Rectángulo 323447" width="2.637" height="12.798" transform="translate(-733.401 1642.565) rotate(-87.751)"/>
        <path id="Trazado_274952" data-name="Trazado 274952" d="M418.755,226.783l-1.1,0a3.325,3.325,0,0,1,1.064,2.822,2.761,2.761,0,0,1-1.057,2.177,4.149,4.149,0,0,1-2.7.554l-6.126-.466.192-2.533,6.064.46a1.647,1.647,0,0,0,1.2-.262,1.575,1.575,0,0,0,.452-1.137,1.747,1.747,0,0,0-.79-1.673l-6.688-.507.192-2.534,9.484.72Z" transform="translate(-1142.924 1420.981)"/>
        <path id="Trazado_274953" data-name="Trazado 274953" d="M413.625,232.708a5.727,5.727,0,0,1,3.391,1.429,3.233,3.233,0,0,1,.971,2.871,2.908,2.908,0,0,1-1.313,2.148l4.815.6-.316,2.529-13.4-1.671.284-2.276,1.018,0a2.992,2.992,0,0,1-.875-2.572,3.23,3.23,0,0,1,1.646-2.509,5.913,5.913,0,0,1,3.776-.552m-.5,2.5a3.75,3.75,0,0,0-2.093.208,1.516,1.516,0,0,0-.875,1.256,1.7,1.7,0,0,0,.782,1.771l3.73.466a1.677,1.677,0,0,0,1.19-1.509q.226-1.823-2.734-2.192" transform="translate(-1143.056 1422.102)"/>
        <path id="Trazado_274954" data-name="Trazado 274954" d="M407.121,243.982l.406-2.517,9.389,1.514-.4,2.517Zm12.249-.758a1.25,1.25,0,0,1,.867.528,1.645,1.645,0,0,1-.331,2.051,1.34,1.34,0,0,1-1.864-.3,1.628,1.628,0,0,1,.328-2.039,1.246,1.246,0,0,1,1-.235" transform="translate(-1143.138 1423.207)"/>
        <path id="Trazado_274955" data-name="Trazado 274955" d="M412.887,252.048a6.75,6.75,0,0,0,.239-.885,1.857,1.857,0,0,0-.606-2.038l-6.114-1.159.473-2.5,9.344,1.771-.447,2.357-1.127-.142a2.349,2.349,0,0,1,.892,2.324,2.643,2.643,0,0,1-.259.756Z" transform="translate(-1143.228 1423.707)"/>
        <path id="Trazado_274956" data-name="Trazado 274956" d="M404.781,255.107a4.675,4.675,0,0,1,2.013-3.033,4.567,4.567,0,0,1,3.627-.515l.24.055a5.742,5.742,0,0,1,2.373,1.114,4.06,4.06,0,0,1,1.346,1.918,4.4,4.4,0,0,1,.077,2.394,3.941,3.941,0,0,1-1.887,2.718,5,5,0,0,1-3.651.312l-1.011-.232,1.356-5.9a2.367,2.367,0,0,0-1.624.389,2.251,2.251,0,0,0-.9,1.4,2.743,2.743,0,0,0,.523,2.474l-1.642.9a3.812,3.812,0,0,1-.883-1.79,5.082,5.082,0,0,1,.043-2.208m7.681,1.466a1.585,1.585,0,0,0-.225-1.31,2.639,2.639,0,0,0-1.294-.915l-.79,3.443.2.046a1.893,1.893,0,0,0,1.379-.152,1.639,1.639,0,0,0,.731-1.113" transform="translate(-1143.449 1424.45)"/>
        <path id="Trazado_274957" data-name="Trazado 274957" d="M404.734,263.5a1.662,1.662,0,0,0,.065,1.2,1.358,1.358,0,0,0,.867.718l-.64,2.294a3.264,3.264,0,0,1-1.564-.984,3.472,3.472,0,0,1-.82-1.7,4.452,4.452,0,0,1,.107-2.038,4.127,4.127,0,0,1,2.113-2.75,5.13,5.13,0,0,1,3.767-.172l.161.045a5.08,5.08,0,0,1,3.065,2.068,4.086,4.086,0,0,1,.4,3.443,4.006,4.006,0,0,1-1.747,2.483,3.6,3.6,0,0,1-2.9.327l.64-2.294a1.749,1.749,0,0,0,1.284-.116,1.7,1.7,0,0,0,.5-2.458,3.745,3.745,0,0,0-1.9-1l-.254-.071a3.8,3.8,0,0,0-2.157-.136,1.55,1.55,0,0,0-.984,1.14" transform="translate(-1143.707 1425.5)"/>
        <path id="Trazado_274958" data-name="Trazado 274958" d="M412.081,273.565l-2.227-.712-.5,1.549-1.775-.567.5-1.549-4.521-1.446a1.142,1.142,0,0,0-.782-.038,1.019,1.019,0,0,0-.453.668,4.027,4.027,0,0,0-.169.73l-1.834-.586a5.236,5.236,0,0,1,.252-1.536,2.425,2.425,0,0,1,3.4-1.773l4.882,1.561.423-1.322,1.774.567-.423,1.323,2.228.712Z" transform="translate(-1143.989 1426.542)"/>
        <path id="Trazado_274959" data-name="Trazado 274959" d="M404.929,273.187a5.633,5.633,0,0,1,2.187,1.371,3.987,3.987,0,0,1,1.077,2.059,4.569,4.569,0,0,1-.24,2.441,4.329,4.329,0,0,1-2.177,2.554,4.729,4.729,0,0,1-3.471.187l-.618-.2a4.969,4.969,0,0,1-2.885-2.345,4.734,4.734,0,0,1,2.23-6.171,5.057,5.057,0,0,1,3.789.069Zm-1.034,2.327a3.563,3.563,0,0,0-2.123-.227,1.832,1.832,0,0,0-1,2.725,3.884,3.884,0,0,0,1.954,1.259,3.52,3.52,0,0,0,2.114.215,1.69,1.69,0,0,0,1.184-1.124,1.657,1.657,0,0,0-.192-1.6,3.96,3.96,0,0,0-1.941-1.245" transform="translate(-1144.235 1427.119)"/>
        <path id="Trazado_274960" data-name="Trazado 274960" d="M397.629,286.061a.82.82,0,0,0,.855-.144,5.262,5.262,0,0,0,1.011-1.184q1.961-2.859,3.965-2.024a2.614,2.614,0,0,1,1.548,1.782,4.236,4.236,0,0,1-.272,2.861,4.558,4.558,0,0,1-1.9,2.347,2.689,2.689,0,0,1-2.462.151l.975-2.345a1.233,1.233,0,0,0,.968.021,1.491,1.491,0,0,0,.75-.878,1.518,1.518,0,0,0,.114-1.028.912.912,0,0,0-.546-.609.783.783,0,0,0-.783.108,4.094,4.094,0,0,0-.933,1.073,11.121,11.121,0,0,1-1.008,1.313,2.628,2.628,0,0,1-3.135.875,2.483,2.483,0,0,1-1.516-1.84,4.823,4.823,0,0,1,.366-2.97,5.048,5.048,0,0,1,1.209-1.8,3.572,3.572,0,0,1,1.638-.894,2.716,2.716,0,0,1,1.684.131l-.926,2.223a1.324,1.324,0,0,0-1.15.064,1.988,1.988,0,0,0-.812,1.014,1.846,1.846,0,0,0-.169,1.125.862.862,0,0,0,.527.623" transform="translate(-1144.634 1428.128)"/>
        <path id="Trazado_274961" data-name="Trazado 274961" d="M375.86,78.986l-1.6-1.741-3.88,3.567-2.007-2.185,10.6-9.741,3.619,3.939a6.049,6.049,0,0,1,1.826,3.668,3.926,3.926,0,0,1-1.43,3.194,4.434,4.434,0,0,1-2.241,1.193,4.348,4.348,0,0,1-2.463-.363l-2.224,6.275-.1.093L373.8,84.539Zm.17-3.366,1.619,1.762a2.451,2.451,0,0,0,1.59.89,2.034,2.034,0,0,0,1.57-.61,2.175,2.175,0,0,0,.788-1.509,2.4,2.4,0,0,0-.771-1.7L379.212,72.7Z" transform="translate(-1147.985 1401.617)" fill="#12263f"/>
        <path id="Trazado_274962" data-name="Trazado 274962" d="M378.656,90.3a5.251,5.251,0,0,1-1.326-3.874,5.137,5.137,0,0,1,2.026-3.589l.213-.177a6.472,6.472,0,0,1,2.62-1.355,4.563,4.563,0,0,1,2.633.115,4.947,4.947,0,0,1,2.189,1.572,4.441,4.441,0,0,1,1.133,3.546,5.628,5.628,0,0,1-2.225,3.472l-.9.743L380.682,85.5a2.653,2.653,0,0,0-.764,1.715,2.522,2.522,0,0,0,.636,1.764,3.082,3.082,0,0,0,2.565,1.229l-.318,2.084a4.277,4.277,0,0,1-2.2-.439,5.707,5.707,0,0,1-1.942-1.552m6.572-5.848a1.786,1.786,0,0,0-1.322-.7,2.988,2.988,0,0,0-1.7.528l2.532,3.066.175-.146a2.122,2.122,0,0,0,.81-1.335,1.841,1.841,0,0,0-.492-1.414" transform="translate(-1146.867 1403.154)" fill="#12263f"/>
        <rect id="Rectángulo_323448" data-name="Rectángulo 323448" width="15.189" height="2.867" transform="matrix(0.794, -0.608, 0.608, 0.794, -764.265, 1498.066)" fill="#12263f"/>
        <path id="Trazado_274963" data-name="Trazado 274963" d="M388.264,102.583a3.178,3.178,0,0,1,.617-.789,3.457,3.457,0,0,1-2.507-1.531,3.794,3.794,0,0,1-.767-2.651,2.924,2.924,0,0,1,1.271-2.171,3.026,3.026,0,0,1,2.859-.484A6.227,6.227,0,0,1,392.6,97.4l.762,1.071.5-.354a1.764,1.764,0,0,0,.747-1,1.5,1.5,0,0,0-.333-1.238,1.712,1.712,0,0,0-.937-.722,1.18,1.18,0,0,0-1.013.216l-1.654-2.33a2.863,2.863,0,0,1,1.735-.529,3.783,3.783,0,0,1,1.95.6,5.909,5.909,0,0,1,1.73,1.658,4.675,4.675,0,0,1,1.008,3.136,3.476,3.476,0,0,1-1.605,2.564l-3.78,2.686a5.114,5.114,0,0,0-1.632,1.681l-.137.1Zm.252-3.077a2.448,2.448,0,0,0,.906.788,1.848,1.848,0,0,0,1.074.207l1.5-1.064-.619-.871q-1.242-1.75-2.533-1l-.142.089a1.144,1.144,0,0,0-.5.817,1.454,1.454,0,0,0,.313,1.038" transform="translate(-1145.832 1404.573)" fill="#12263f"/>
        <path id="Trazado_274964" data-name="Trazado 274964" d="M394.261,107.846a1.87,1.87,0,0,0,1.06.847,1.521,1.521,0,0,0,1.251-.191l1.446,2.257a3.671,3.671,0,0,1-2,.576,3.917,3.917,0,0,1-2.043-.587,5.021,5.021,0,0,1-1.629-1.617,4.643,4.643,0,0,1-.723-3.834,5.764,5.764,0,0,1,2.678-3.29l.158-.1a5.7,5.7,0,0,1,4.032-1.02,4.591,4.591,0,0,1,3.187,2.243,4.5,4.5,0,0,1,.775,3.327,4.047,4.047,0,0,1-1.9,2.677l-1.445-2.257a1.966,1.966,0,0,0,.865-1.164,1.913,1.913,0,0,0-1.692-2.258,4.22,4.22,0,0,0-2.264.846l-.25.16a4.27,4.27,0,0,0-1.729,1.707,1.741,1.741,0,0,0,.218,1.681" transform="translate(-1145.096 1405.613)" fill="#12263f"/>
        <path id="Trazado_274965" data-name="Trazado 274965" d="M396.72,116l-1.459-2.468,9.209-5.448,1.459,2.468Zm10.047-9.47a1.4,1.4,0,0,1,1.13-.168,1.854,1.854,0,0,1,1.191,2.013,1.512,1.512,0,0,1-1.833,1.078,1.835,1.835,0,0,1-1.184-2,1.4,1.4,0,0,1,.7-.923" transform="translate(-1144.622 1406.299)" fill="#12263f"/>
        <path id="Trazado_274966" data-name="Trazado 274966" d="M402.007,114.044a6.343,6.343,0,0,1,2.787-.812,4.48,4.48,0,0,1,2.537.633,5.144,5.144,0,0,1,1.873,2.026,4.875,4.875,0,0,1,.52,3.74,5.322,5.322,0,0,1-2.437,3.058l-.635.366a5.592,5.592,0,0,1-4.128.674A5.329,5.329,0,0,1,399,117.24a5.689,5.689,0,0,1,2.891-3.135Zm1.184,2.61a4,4,0,0,0-1.779,1.615,2.062,2.062,0,0,0,1.546,2.875,4.372,4.372,0,0,0,2.52-.7,3.95,3.95,0,0,0,1.76-1.617,1.9,1.9,0,0,0-.059-1.835,1.866,1.866,0,0,0-1.491-1.036,4.436,4.436,0,0,0-2.5.7m10.056-2.311,1.484,2.738-4-.948-1.107-2.043Z" transform="translate(-1144.183 1407.164)" fill="#12263f"/>
        <path id="Trazado_274967" data-name="Trazado 274967" d="M413.1,123.721l-1.077.613a3.737,3.737,0,0,1,2.619,2.157,3.105,3.105,0,0,1,.189,2.715,4.656,4.656,0,0,1-2.329,2.054l-6.238,2.978-1.231-2.579,6.174-2.948a1.86,1.86,0,0,0,1.022-.926,1.775,1.775,0,0,0-.2-1.365,1.966,1.966,0,0,0-1.708-1.189l-6.809,3.25-1.231-2.579,9.656-4.61Z" transform="translate(-1143.743 1408.173)" fill="#12263f"/>
        <path id="Trazado_274968" data-name="Trazado 274968" d="M411.739,142.181a1.874,1.874,0,0,0,.874,1.038,1.524,1.524,0,0,0,1.265.056l.978,2.494a3.664,3.664,0,0,1-2.071.176,3.92,3.92,0,0,1-1.89-.975,5.005,5.005,0,0,1-1.283-1.9,4.646,4.646,0,0,1,.038-3.9,5.767,5.767,0,0,1,3.268-2.7l.174-.069a5.7,5.7,0,0,1,4.154-.215A4.591,4.591,0,0,1,419.935,139a4.506,4.506,0,0,1,.11,3.414,4.042,4.042,0,0,1-2.382,2.255l-.978-2.494a1.962,1.962,0,0,0,1.076-.974,1.911,1.911,0,0,0-1.217-2.544,4.221,4.221,0,0,0-2.386.387l-.276.109a4.28,4.28,0,0,0-2.03,1.337,1.747,1.747,0,0,0-.114,1.691" transform="translate(-1142.878 1409.998)" fill="#12263f"/>
        <path id="Trazado_274969" data-name="Trazado 274969" d="M416.535,145.243a6.322,6.322,0,0,1,2.885-.322,4.483,4.483,0,0,1,2.39,1.059,5.151,5.151,0,0,1,1.5,2.319,4.876,4.876,0,0,1-.132,3.774,5.314,5.314,0,0,1-2.926,2.593l-.687.252a5.6,5.6,0,0,1-4.183-.046,5.329,5.329,0,0,1-2.353-7,5.691,5.691,0,0,1,3.385-2.591Zm.717,2.773a4,4,0,0,0-2.029,1.286,2.06,2.06,0,0,0,1.028,3.1,4.375,4.375,0,0,0,2.6-.258,3.968,3.968,0,0,0,2.012-1.29,1.9,1.9,0,0,0,.257-1.818,1.863,1.863,0,0,0-1.29-1.277,4.449,4.449,0,0,0-2.581.261" transform="translate(-1142.468 1411.123)" fill="#12263f"/>
        <path id="Trazado_274970" data-name="Trazado 274970" d="M425.775,156.612l-1.167.419a3.734,3.734,0,0,1,2.209,2.576,3.1,3.1,0,0,1-.281,2.706,4.649,4.649,0,0,1-2.647,1.622l-6.656,1.861-.77-2.753,6.591-1.841a1.854,1.854,0,0,0,1.165-.737,1.775,1.775,0,0,0,.042-1.377,1.969,1.969,0,0,0-1.477-1.466l-7.267,2.031-.768-2.753,10.3-2.879Z" transform="translate(-1142.184 1412.268)" fill="#12263f"/>
        <path id="Trazado_274971" data-name="Trazado 274971" d="M368.747,101.251l-3.99,3.133-1.832-2.333,11.323-8.893,3.469,4.418a6.493,6.493,0,0,1,1.3,2.61,4.378,4.378,0,0,1-.156,2.53,4.706,4.706,0,0,1-1.547,2.058,4.136,4.136,0,0,1-3.519.921,6.028,6.028,0,0,1-3.437-2.4Zm1.89-1.484,1.637,2.085a2.6,2.6,0,0,0,1.544,1.069,2.012,2.012,0,0,0,1.626-.491,2.378,2.378,0,0,0,.961-1.547,2.33,2.33,0,0,0-.533-1.769l-1.68-2.138Z" transform="translate(-1148.667 1404.654)" fill="#12263f"/>
        <path id="Trazado_274972" data-name="Trazado 274972" d="M379.845,111a7.663,7.663,0,0,0-.529-.885,2.093,2.093,0,0,0-2.123-1.1l-5.718,4.039-1.649-2.333,8.739-6.173,1.558,2.205-1,.8a2.649,2.649,0,0,1,2.579,1.1,3.016,3.016,0,0,1,.408.8Z" transform="translate(-1147.803 1406.078)" fill="#12263f"/>
        <path id="Trazado_274973" data-name="Trazado 274973" d="M377.542,112.181a6.335,6.335,0,0,1,2.721-1.015,4.488,4.488,0,0,1,2.575.444,5.153,5.153,0,0,1,2.018,1.885,4.867,4.867,0,0,1,.792,3.69,5.316,5.316,0,0,1-2.205,3.229l-.605.412a5.591,5.591,0,0,1-4.067.974,5.326,5.326,0,0,1-3.988-6.212,5.686,5.686,0,0,1,2.652-3.338Zm1.371,2.516a4,4,0,0,0-1.654,1.742,2.061,2.061,0,0,0,1.753,2.752,4.379,4.379,0,0,0,2.462-.884,3.961,3.961,0,0,0,1.636-1.743,1.894,1.894,0,0,0-.194-1.825,1.866,1.866,0,0,0-1.564-.925,4.451,4.451,0,0,0-2.439.883" transform="translate(-1147.202 1406.903)" fill="#12263f"/>
        <path id="Trazado_274974" data-name="Trazado 274974" d="M383.1,120.863a6.445,6.445,0,0,1,4.023-.979,3.639,3.639,0,0,1,2.8,1.946,3.28,3.28,0,0,1,.252,2.822l4.755-2.681,1.408,2.5L383.1,131.928l-1.267-2.249.923-.678a3.365,3.365,0,0,1-2.513-1.739,3.633,3.633,0,0,1-.191-3.371,6.646,6.646,0,0,1,3.043-3.028m1.219,2.594a4.227,4.227,0,0,0-1.753,1.59,1.707,1.707,0,0,0,.049,1.72,1.911,1.911,0,0,0,1.892,1.078l3.684-2.076a1.884,1.884,0,0,0,.066-2.16q-1.014-1.8-3.939-.152" transform="translate(-1146.565 1407.992)" fill="#12263f"/>
        <path id="Trazado_274975" data-name="Trazado 274975" d="M387.275,137.993a3.582,3.582,0,0,1-2.444-2.06,3.381,3.381,0,0,1-.271-2.792,4.219,4.219,0,0,1,2.194-2.107l6.292-3.092,1.261,2.565-6.212,3.051q-1.5.737-.83,2.105a2.062,2.062,0,0,0,1.788,1.347l6.806-3.344,1.265,2.574-9.6,4.718-1.186-2.414Z" transform="translate(-1145.984 1409.005)" fill="#12263f"/>
        <path id="Trazado_274976" data-name="Trazado 274976" d="M391.442,144.72a1.87,1.87,0,0,0,.9,1.013,1.521,1.521,0,0,0,1.266.02l1.049,2.466a3.666,3.666,0,0,1-2.066.234,3.907,3.907,0,0,1-1.917-.92,5.008,5.008,0,0,1-1.337-1.865,4.648,4.648,0,0,1-.073-3.9,5.766,5.766,0,0,1,3.19-2.8l.173-.073a5.7,5.7,0,0,1,4.145-.334,4.6,4.6,0,0,1,2.769,2.745,4.5,4.5,0,0,1,.208,3.409,4.051,4.051,0,0,1-2.317,2.323l-1.049-2.466a1.965,1.965,0,0,0,1.047-1,1.91,1.91,0,0,0-1.29-2.508,4.224,4.224,0,0,0-2.373.455l-.273.117a4.28,4.28,0,0,0-1.99,1.394,1.742,1.742,0,0,0-.065,1.693" transform="translate(-1145.421 1410.303)" fill="#12263f"/>
        <path id="Trazado_274977" data-name="Trazado 274977" d="M405.036,148.707l-2.463.923.641,1.714-1.963.736-.641-1.714-5,1.873a1.28,1.28,0,0,0-.718.512,1.142,1.142,0,0,0,.065.9,4.534,4.534,0,0,0,.36.763l-2.029.759a5.892,5.892,0,0,1-.847-1.53q-1.055-2.815,1.766-3.936l5.4-2.023-.547-1.463,1.962-.736.548,1.463,2.463-.923Z" transform="translate(-1145.01 1411.2)" fill="#12263f"/>
        <path id="Trazado_274978" data-name="Trazado 274978" d="M398.381,153.128a6.346,6.346,0,0,1,2.889-.294,4.491,4.491,0,0,1,2.38,1.082,5.142,5.142,0,0,1,1.475,2.332,4.872,4.872,0,0,1-.167,3.772,5.32,5.32,0,0,1-2.951,2.565l-.69.245a5.593,5.593,0,0,1-4.182-.086,5.328,5.328,0,0,1-2.286-7.02,5.69,5.69,0,0,1,3.41-2.558Zm.691,2.781a3.992,3.992,0,0,0-2.04,1.266,2.06,2.06,0,0,0,1,3.108,4.385,4.385,0,0,0,2.606-.234,3.962,3.962,0,0,0,2.023-1.271,1.9,1.9,0,0,0,.275-1.815,1.864,1.864,0,0,0-1.278-1.289,4.445,4.445,0,0,0-2.584.236" transform="translate(-1144.745 1412.112)" fill="#12263f"/>
      </g>
    </g>
    <g id="Grupo_1070012" data-name="Grupo 1070012" transform="translate(-4 6)">
      <g id="Grupo_1070007" data-name="Grupo 1070007" transform="translate(788 3270.811)">
        <circle id="Elipse_5840" data-name="Elipse 5840" cx="25" cy="25" r="25" transform="translate(250 9070)" fill="#632059" opacity="0.3"/>
        <circle id="Elipse_5841" data-name="Elipse 5841" cx="17" cy="17" r="17" transform="translate(258 9078)" fill="#632059"/>
        <text id="_" data-name="+" transform="translate(270 9102)" fill="#fff" font-size="20" font-family="Roboto-Regular, Roboto"><tspan x="0" y="0">+</tspan></text>
      </g>
      <g id="Grupo_1070010" data-name="Grupo 1070010" transform="translate(525 3707.811)">
        <circle id="Elipse_5840-2" data-name="Elipse 5840" cx="25" cy="25" r="25" transform="translate(250 9070)" fill="#632059" opacity="0.3"/>
        <circle id="Elipse_5841-2" data-name="Elipse 5841" cx="17" cy="17" r="17" transform="translate(258 9078)" fill="#632059"/>
        <text id="_2" data-name="+" transform="translate(270 9102)" fill="#fff" font-size="20" font-family="Roboto-Regular, Roboto"><tspan x="0" y="0">+</tspan></text>
      </g>
      <g id="Grupo_1070008" data-name="Grupo 1070008" transform="translate(266 3270.811)">
        <circle id="Elipse_5840-3" data-name="Elipse 5840" cx="25" cy="25" r="25" transform="translate(250 9070)" fill="#632059" opacity="0.3"/>
        <circle id="Elipse_5841-3" data-name="Elipse 5841" cx="17" cy="17" r="17" transform="translate(258 9078)" fill="#632059"/>
        <text id="_3" data-name="+" transform="translate(270 9102)" fill="#fff" font-size="20" font-family="Roboto-Regular, Roboto"><tspan x="0" y="0">+</tspan></text>
      </g>
    </g>
  </g>
</svg>
