<svg id="Grupo_257260" data-name="Grupo 257260" xmlns="http://www.w3.org/2000/svg" xmlns:xlink="http://www.w3.org/1999/xlink" width="62.876" height="67" viewBox="0 0 62.876 67">
  <defs>
    <clipPath id="clip-path">
      <rect id="Rectángulo_323463" data-name="Rectángulo 323463" width="62.876" height="67" fill="none"/>
    </clipPath>
  </defs>
  <g id="Grupo_257259" data-name="Grupo 257259" clip-path="url(#clip-path)">
    <path id="Trazado_275102" data-name="Trazado 275102" d="M13.218,127.56c-1.024,0-1.989-.024-2.953,0-3.079.089-5.355-1.437-7.165-3.71C.478,120.562-.253,116.693.072,112.593c.078-.984.478-1.939.644-2.921.183-1.085,1.107-.948,1.773-1.059.621-.1.758-.314.768-.883a21.234,21.234,0,0,1,4.672-13.1,18.633,18.633,0,0,1,2.432-2.289,1.16,1.16,0,0,1,1.649.067,18.028,18.028,0,0,1,5.719,8.488,25.559,25.559,0,0,1,1.348,7.611l.487.061c1.67.213,1.8.276,2.107,2.055.268,1.567.424,3.157.554,4.743A10.062,10.062,0,0,1,22,117.257a13.737,13.737,0,0,1,11.215,2.09v-1.155c0-3.039,0-6.078,0-9.117,0-1.247.23-1.47,1.481-1.477q2.35-.012,4.7,0c1.046.008,1.5.47,1.5,1.535q.008,10.434,0,20.867c0,1.09-.431,1.5-1.52,1.508-1.451.016-1.423.026-1.917,1.454a12.112,12.112,0,0,1-8.236,8.173,12.135,12.135,0,0,1-14.313-5.483,10.1,10.1,0,0,1-1.7-5.4c0-.871,0-1.742,0-2.692M35.785,129.3a10.243,10.243,0,0,0-20.479-.377,10.243,10.243,0,1,0,20.479.377M11.069,113.478a6.64,6.64,0,0,0,.54-.608,9.441,9.441,0,0,1,4.72-3.809.931.931,0,0,0,.438-.75c-.072-1.194-.184-2.39-.36-3.574a17.4,17.4,0,0,0-3.829-8.73c-1.366-1.643-1.4-1.6-2.864,0a15.309,15.309,0,0,0-3.434,6.614,50.906,50.906,0,0,0-.941,5.131c-.071.461-.273,1.118.434,1.339a10.211,10.211,0,0,1,5.3,4.39m.121,8.131-.052-.005a3.638,3.638,0,0,0-.006-.562,5.449,5.449,0,0,1-.164-.62A11.477,11.477,0,0,0,8.287,113.4a6.816,6.816,0,0,0-4.65-2.581c-.7-.081-1.109.092-1.154.911-.047.854-.34,1.7-.346,2.548a12.909,12.909,0,0,0,1.644,6.553c1.27,2.244,2.958,4.008,5.637,4.54.766.152,1.241-.032,1.359-.851q.208-1.458.414-2.916m1.783,3.741c.419-.3.862-.444.986-.729a13.59,13.59,0,0,1,5.247-6.094c.148-.095.345-.223.379-.368a14.971,14.971,0,0,0-.061-7.4c-.68.082-1.3.1-1.893.237-2.441.552-3.8,2.354-4.989,4.358a1.539,1.539,0,0,0-.13,1.443c1.005,2.691.8,5.447.461,8.558m25.243,3.869.223.082a4.113,4.113,0,0,0,.214-.915q.019-8.92.005-17.84a6.514,6.514,0,0,0-.076-.712H35.432c0,3.834-.007,7.588.015,11.341a2.245,2.245,0,0,0,.335.84,33.213,33.213,0,0,1,1.659,3.519,29.254,29.254,0,0,1,.774,3.684" transform="translate(0 -74.724)" fill="#020202"/>
    <path id="Trazado_275103" data-name="Trazado 275103" d="M217.649,17.939c-.292,2.619-1.385,4.617-3.821,5.666a7.724,7.724,0,0,1-6.959-.4,10.493,10.493,0,0,1-5.3-6.513c-.939-3.2.066-6.815,3.521-8.269a9.015,9.015,0,0,1,5.355-.159c.23.045.461.084.433.079A33.5,33.5,0,0,1,212.867,3.5c2.627-4.34,8.144-4.474,11.237-.462,2.354,3.053,2.413,8.649.1,11.72a7.012,7.012,0,0,1-6.551,3.181m3.416-3.249c1.172-.193,2.543-2.531,2.746-4.962.23-2.749-1.167-6.366-3.574-7a5.823,5.823,0,0,0-1.056,5.747c.575,2.077,1.247,4.127,1.883,6.211m-5.808,3.743c1.055-4.381-4.3-9.623-9.031-8.06a4.682,4.682,0,0,0,1.829,3.847c2.373,1.452,4.8,2.816,7.2,4.213m-11.1-6.38a5,5,0,0,0-.36,4.381,8.681,8.681,0,0,0,6.577,5.626,4.158,4.158,0,0,0,3.693-1.4,10.435,10.435,0,0,0-1.4-1.181c-1.4-.82-2.821-1.594-4.261-2.336a7.785,7.785,0,0,1-4.247-5.088m13.4-9.64a9.372,9.372,0,0,0-1.29.672,6.906,6.906,0,0,0-2.772,5.436,2.02,2.02,0,0,0,.322,1.421,10.632,10.632,0,0,1,3.409,5.02.849.849,0,0,0,1.238.67c.408-1.8-.354-3.311-1.061-5.606-.508-1.65-1.154-3.272-.708-5.037.2-.8.522-1.575.862-2.577" transform="translate(-163.398 -0.107)" fill="#030202"/>
    <path id="Trazado_275104" data-name="Trazado 275104" d="M81.933,0C89,.12,93.885,4.936,93.946,11.576a11.7,11.7,0,1,1-23.4.3A11.519,11.519,0,0,1,81.933,0m-.093,2.251a9.482,9.482,0,1,0,9.882,9.239,9.31,9.31,0,0,0-9.882-9.239" transform="translate(-57.285)" fill="#020203"/>
    <path id="Trazado_275105" data-name="Trazado 275105" d="M293.592,173.246q0-5.871,0-11.743c0-1.319.271-1.583,1.58-1.585,1.535,0,3.069-.007,4.6,0,1.053.006,1.485.409,1.486,1.44q.011,11.931,0,23.862a1.336,1.336,0,0,1-1.477,1.407c-1.566.009-3.132,0-4.7,0-1.216,0-1.492-.281-1.495-1.547-.006-2.474,0-4.948,0-7.422q0-2.208,0-4.415m2.4,11.288c.626.01,1.255-.021,1.876.041.885.088,1.2-.21,1.191-1.145-.037-6.762-.019-13.523-.022-20.285,0-.3-.032-.6-.049-.892h-3.147V184.38l.15.154" transform="translate(-238.393 -129.849)" fill="#010102"/>
    <path id="Trazado_275106" data-name="Trazado 275106" d="M235.232,221.043c0-2.348.021-4.7-.012-7.045-.011-.807.379-1.134,1.1-1.142,1.754-.02,3.509-.051,5.26.01a1.241,1.241,0,0,1,1.31,1.369c-.01,4.634,0,9.268-.01,13.9,0,1.029-.467,1.447-1.5,1.45q-2.349.006-4.7,0c-1.179,0-1.45-.281-1.452-1.5q-.006-3.522,0-7.045m5.278-5.893h-2.982v12.382c.847,0,1.625-.023,2.4.008.581.023.767-.23.764-.781-.02-3.816-.024-7.632-.033-11.447l-.149-.161" transform="translate(-190.997 -172.817)" fill="#010102"/>
    <path id="Trazado_275107" data-name="Trazado 275107" d="M143.517,118.588c-1.6,1.753-3.082,3.425-4.614,5.05-1.776,1.885-3.573,3.752-5.426,5.561a1.241,1.241,0,0,1-1.225-.089,1.587,1.587,0,0,1-.187-1.371,5.522,5.522,0,0,1,1.175-1.419q4.024-4.242,8.06-8.472c.469-.494.883-1.039,1.366-1.518a1.084,1.084,0,0,1,1.7-.008c1.343,1.423,2.673,2.86,3.957,4.336a1.033,1.033,0,0,1-.194,1.613c-.649.491-1.2.205-1.677-.334-.94-1.071-1.878-2.144-2.933-3.35" transform="translate(-107.17 -94.123)" fill="#030303"/>
    <path id="Trazado_275108" data-name="Trazado 275108" d="M242.753,178.278c-.788,0-2.443-1.67-2.39-2.411a1.123,1.123,0,0,1,1.735-.773c.444.313.715.441,1.181.023a1,1,0,0,1,1.481.135.954.954,0,0,1-.107,1.451c-.584.583-.859,1.551-1.9,1.575" transform="translate(-195.172 -141.976)" fill="#020203"/>
    <path id="Trazado_275109" data-name="Trazado 275109" d="M309.982,108.716a7.656,7.656,0,0,1-.533.867,8.432,8.432,0,0,1-1.441,1.564,1.446,1.446,0,0,1-1.3-.012.84.84,0,0,1-.277-1.334,16.851,16.851,0,0,1,1.689-1.852,1.332,1.332,0,0,1,1.133-.094c.294.112.469.536.729.862" transform="translate(-248.633 -87.511)" fill="#030303"/>
    <path id="Trazado_275110" data-name="Trazado 275110" d="M289.777,131.992c.081.059.514.212.614.486a1.455,1.455,0,0,1-.086,1.159,5.419,5.419,0,0,1-1.378,1.375,1.369,1.369,0,0,1-1.11.074c-.217-.084-.385-.535-.411-.836a2.482,2.482,0,0,1,2.37-2.258" transform="translate(-233.369 -107.176)" fill="#030303"/>
    <path id="Trazado_275111" data-name="Trazado 275111" d="M270.749,155.118c0,1.015-1.1,2.4-1.8,2.45a1.087,1.087,0,0,1-.866-.34,1.414,1.414,0,0,1-.2-1.142,4.709,4.709,0,0,1,1.29-1.491,1.525,1.525,0,0,1,1.169.017c.233.077.369.446.414.506" transform="translate(-217.466 -125.44)" fill="#030303"/>
    <path id="Trazado_275112" data-name="Trazado 275112" d="M223.093,152.605a3.187,3.187,0,0,1,2.194,2,1.167,1.167,0,0,1-1.309,1.2,2.811,2.811,0,0,1-1.687-2.564,5.55,5.55,0,0,1,.48-.955l.322.326" transform="translate(-180.474 -123.649)" fill="#030303"/>
    <path id="Trazado_275113" data-name="Trazado 275113" d="M101.878,246.078A10.243,10.243,0,1,1,81.4,245.7a10.243,10.243,0,0,1,20.479.377m-3.2-3.472a7.376,7.376,0,0,0-6.044-4.272l-1.835,0a12.481,12.481,0,0,0-2.815.884,7.613,7.613,0,0,0-3.352,9.99,7.216,7.216,0,0,0,6.172,4.52c.682.628,1.275.308,1.852-.174a1.637,1.637,0,0,0,.593.14A7.852,7.852,0,0,0,99.436,247c1.5-.812,1.923-1.486,1.67-2.667-.239-1.119-.923-1.607-2.427-1.728" transform="translate(-66.093 -191.503)" fill="#fecc05"/>
    <path id="Trazado_275114" data-name="Trazado 275114" d="M33.77,125.418a10.211,10.211,0,0,0-5.3-4.39c-.707-.221-.5-.879-.434-1.339a50.866,50.866,0,0,1,.941-5.131,15.309,15.309,0,0,1,3.434-6.614c1.461-1.6,1.5-1.638,2.864,0a17.4,17.4,0,0,1,3.829,8.73c.176,1.184.288,2.379.36,3.574a.931.931,0,0,1-.438.75,9.44,9.44,0,0,0-4.72,3.809,6.616,6.616,0,0,1-.54.608m1.746-9.792c-.777-.106-1.12.318-1.1,1.069a1.1,1.1,0,0,0,1.162,1.167,1.382,1.382,0,0,0,1.268-1.24c-.087-.745-.563-1.057-1.332-1m-.063,3.568c-.718-.11-1.011.306-1.033,1.013a1.146,1.146,0,0,0,1.115,1.221,1.417,1.417,0,0,0,1.322-1.189c.015-.654-.5-1.053-1.4-1.045m-3.38-3.573c-.927,0-1.24.259-1.232,1.025a1.115,1.115,0,0,0,1.106,1.218c.578.053,1.387-.654,1.311-1.188-.094-.66-.436-1.162-1.185-1.054m-.065,3.583c-.771-.132-1.138.228-1.157,1a1.151,1.151,0,0,0,1.1,1.221c.55.1,1.381-.656,1.3-1.183-.095-.655-.429-1.162-1.25-1.042m3.47-7.155c-.679-.079-1.1.174-1.06.97.033.7.4,1.136,1.086,1.073.613-.056,1.363-.137,1.345-1.045-.017-.863-.6-1.049-1.37-1m-3.52,0c-.755-.134-1.222.293-1.07,1.023a1.572,1.572,0,0,0,1.034.992,1.047,1.047,0,0,0,1.343-1.024c.015-.8-.536-1.034-1.306-.991" transform="translate(-22.702 -86.664)" fill="#fdc50a"/>
    <path id="Trazado_275115" data-name="Trazado 275115" d="M20.414,202.716q-.207,1.458-.414,2.916c-.117.819-.593,1-1.359.851-2.679-.532-4.367-2.3-5.637-4.54a12.91,12.91,0,0,1-1.644-6.553c.007-.85.3-1.695.346-2.549.045-.819.459-.991,1.154-.91a6.816,6.816,0,0,1,4.65,2.581,11.476,11.476,0,0,1,2.681,7.017,5.417,5.417,0,0,0,.165.62,3.659,3.659,0,0,1,.006.562l.052.005" transform="translate(-9.224 -155.832)" fill="#e37a25"/>
    <path id="Trazado_275116" data-name="Trazado 275116" d="M66.485,206.234c.335-3.111.545-5.867-.461-8.558a1.54,1.54,0,0,1,.13-1.443c1.188-2,2.549-3.806,4.989-4.358.594-.134,1.214-.155,1.893-.237a14.971,14.971,0,0,1,.061,7.4c-.034.145-.231.274-.379.368a13.589,13.589,0,0,0-5.247,6.094c-.125.285-.568.431-.987.729" transform="translate(-53.513 -155.609)" fill="#e37a25"/>
    <path id="Trazado_275117" data-name="Trazado 275117" d="M191.236,206.133a29.253,29.253,0,0,0-.774-3.684,33.214,33.214,0,0,0-1.659-3.519,2.245,2.245,0,0,1-.335-.84c-.022-3.754-.015-7.507-.015-11.341H191.6a6.52,6.52,0,0,1,.076.712q.007,8.92-.005,17.84a4.113,4.113,0,0,1-.214.915l-.223-.082" transform="translate(-153.021 -151.639)" fill="#6d51a1"/>
    <path id="Trazado_275118" data-name="Trazado 275118" d="M297.242,25.917c-.636-2.084-1.309-4.134-1.883-6.211a5.823,5.823,0,0,1,1.056-5.747c2.407.63,3.8,4.247,3.574,7-.2,2.432-1.574,4.77-2.746,4.962" transform="translate(-239.575 -11.335)" fill="#9d4522"/>
    <path id="Trazado_275119" data-name="Trazado 275119" d="M236.8,61.444c-2.4-1.4-4.829-2.761-7.2-4.213a4.683,4.683,0,0,1-1.829-3.847c4.735-1.564,10.087,3.679,9.031,8.06" transform="translate(-184.945 -43.119)" fill="#9d4522"/>
    <path id="Trazado_275120" data-name="Trazado 275120" d="M213.718,63.538a7.785,7.785,0,0,0,4.247,5.088c1.439.742,2.865,1.515,4.261,2.336a10.447,10.447,0,0,1,1.4,1.181,4.159,4.159,0,0,1-3.693,1.4,8.68,8.68,0,0,1-6.577-5.626,5,5,0,0,1,.36-4.381" transform="translate(-172.962 -51.592)" fill="#9c4522"/>
    <path id="Trazado_275121" data-name="Trazado 275121" d="M270.478,12.266c-.34,1-.659,1.774-.862,2.577-.447,1.765.2,3.387.708,5.037.706,2.3,1.468,3.8,1.061,5.606a.849.849,0,0,1-1.238-.67,10.633,10.633,0,0,0-3.409-5.02,2.02,2.02,0,0,1-.322-1.421,6.906,6.906,0,0,1,2.772-5.436,9.374,9.374,0,0,1,1.29-.672" transform="translate(-216.323 -9.96)" fill="#9c4522"/>
    <path id="Trazado_275122" data-name="Trazado 275122" d="M91.323,11.966A9.31,9.31,0,0,1,101.2,21.2a9.489,9.489,0,1,1-9.882-9.239m5.4,11.463.252-.092a25.915,25.915,0,0,0-1.222-3.286c-.9-1.707-1.962-3.328-2.955-4.985a1.134,1.134,0,0,0-2.092-.032c-.926,1.52-1.906,3.009-2.771,4.562-.846,1.52-1.712,3.08-1.167,4.936.787,2.679,2.861,4.2,5.283,3.953a4.909,4.909,0,0,0,4.672-5.056" transform="translate(-66.766 -9.715)" fill="#9ed3f2"/>
    <path id="Trazado_275123" data-name="Trazado 275123" d="M305.567,194.479V172.352h3.146c.017.292.049.592.049.892,0,6.762-.015,13.524.022,20.285.005.935-.307,1.233-1.191,1.145-.62-.062-1.25-.031-1.876-.041l-.15-.154" transform="translate(-248.118 -139.948)" fill="#6d51a1"/>
    <path id="Trazado_275124" data-name="Trazado 275124" d="M305.567,290.042l.15.154-.15-.154" transform="translate(-248.118 -235.512)" fill="#644b95"/>
    <path id="Trazado_275125" data-name="Trazado 275125" d="M250.626,225.326c.009,3.816.012,7.632.033,11.448,0,.551-.183.8-.764.781-.775-.031-1.553-.008-2.4-.008V225.165h2.982l.149.161" transform="translate(-200.964 -182.832)" fill="#6d51a1"/>
    <path id="Trazado_275126" data-name="Trazado 275126" d="M263.506,225.326l-.149-.161.149.161" transform="translate(-213.844 -182.832)" fill="#5c4589"/>
    <path id="Trazado_275127" data-name="Trazado 275127" d="M118.431,264.3c-.578.482-1.171.8-1.852.174l-.294-1.349a6.777,6.777,0,0,1-1.577-.986,8.394,8.394,0,0,1-1.478-2.238,1.359,1.359,0,0,1,.628-1.181c.485-.171,1.227-.356,1.456.608a2.1,2.1,0,0,0,3.289,1.2c.4-.308.971-.917.882-1.212a2.257,2.257,0,0,0-1.207-1.186,12.219,12.219,0,0,0-2.143-.447,3.416,3.416,0,0,1-2.935-2.8,3.266,3.266,0,0,1,1.437-3.495c.973-.588,1.915-1.006,1.938-2.31l1.835,0a2.168,2.168,0,0,0,1.456,2.1,2.835,2.835,0,0,1,1.79,2.8c-.016.693-.264,1.169-.928,1.28-.753.125-1.049-.431-1.151-1.054a1.487,1.487,0,0,0-1.665-1.381c-.313,0-.626,0-.939,0a1.389,1.389,0,0,0-1.527,1.193c-.16.857.474,1.219,1.155,1.419.815.239,1.655.388,2.48.593a2.892,2.892,0,0,1,2.53,2.322c.228,1.511.022,2.944-1.425,3.86-.535.339-1.115.608-1.754.952Z" transform="translate(-91.866 -202.248)" fill="#020201"/>
    <path id="Trazado_275128" data-name="Trazado 275128" d="M101.7,249.076c-.023,1.3-.965,1.722-1.938,2.31a3.266,3.266,0,0,0-1.437,3.495,3.416,3.416,0,0,0,2.936,2.8,12.217,12.217,0,0,1,2.143.447,2.258,2.258,0,0,1,1.207,1.186c.09.3-.483.9-.882,1.212a2.1,2.1,0,0,1-3.288-1.2c-.228-.964-.971-.779-1.456-.608a1.359,1.359,0,0,0-.628,1.181,8.4,8.4,0,0,0,1.478,2.238,6.768,6.768,0,0,0,1.577.986l.294,1.349a7.216,7.216,0,0,1-6.172-4.52,7.613,7.613,0,0,1,3.352-9.99,12.457,12.457,0,0,1,2.815-.884" transform="translate(-76.991 -202.248)" fill="#f9a21a"/>
    <path id="Trazado_275129" data-name="Trazado 275129" d="M128.288,264.306v-1.132c.639-.344,1.218-.613,1.754-.952,1.447-.916,1.654-2.35,1.425-3.86a2.892,2.892,0,0,0-2.53-2.322c-.825-.205-1.666-.355-2.48-.593-.682-.2-1.315-.562-1.156-1.419a1.389,1.389,0,0,1,1.527-1.193c.313,0,.626,0,.939,0a1.487,1.487,0,0,1,1.665,1.382c.1.622.4,1.179,1.151,1.054.663-.11.911-.587.928-1.28a2.835,2.835,0,0,0-1.79-2.8,2.168,2.168,0,0,1-1.456-2.1,7.376,7.376,0,0,1,6.044,4.272,2.292,2.292,0,0,0-1.9,2,2.32,2.32,0,0,0,2.657,2.4,7.851,7.851,0,0,1-6.186,6.691,1.638,1.638,0,0,1-.593-.14" transform="translate(-101.724 -202.257)" fill="#f8a11a"/>
    <path id="Trazado_275130" data-name="Trazado 275130" d="M165.817,276.208a2.32,2.32,0,0,1-2.657-2.4,2.292,2.292,0,0,1,1.9-2c1.5.122,2.188.609,2.427,1.728.252,1.18-.17,1.855-1.67,2.667" transform="translate(-132.474 -220.71)" fill="#feea8e"/>
    <path id="Trazado_275131" data-name="Trazado 275131" d="M63.416,153.976c.77-.061,1.245.251,1.332,1a1.381,1.381,0,0,1-1.268,1.24,1.1,1.1,0,0,1-1.162-1.167c-.022-.751.32-1.176,1.1-1.069" transform="translate(-50.601 -125.014)" fill="#040301"/>
    <path id="Trazado_275132" data-name="Trazado 275132" d="M63.362,172.949c.906-.008,1.419.391,1.4,1.046a1.418,1.418,0,0,1-1.322,1.189,1.146,1.146,0,0,1-1.115-1.221c.021-.707.314-1.123,1.033-1.013" transform="translate(-50.611 -140.419)" fill="#040301"/>
    <path id="Trazado_275133" data-name="Trazado 275133" d="M44.527,153.955c.75-.108,1.092.394,1.186,1.054.076.534-.733,1.241-1.311,1.188A1.115,1.115,0,0,1,43.3,154.98c-.008-.766.3-1.028,1.232-1.025" transform="translate(-35.155 -124.999)" fill="#040301"/>
    <path id="Trazado_275134" data-name="Trazado 275134" d="M44.5,172.96c.821-.12,1.156.386,1.25,1.042.076.527-.755,1.278-1.3,1.183a1.151,1.151,0,0,1-1.1-1.221c.018-.776.386-1.136,1.157-1" transform="translate(-35.197 -140.421)" fill="#040301"/>
    <path id="Trazado_275135" data-name="Trazado 275135" d="M63.371,134.962c.772-.051,1.353.135,1.37,1,.018.908-.732.988-1.345,1.045-.688.063-1.052-.369-1.086-1.073-.037-.8.38-1.049,1.06-.97" transform="translate(-50.594 -109.577)" fill="#040301"/>
    <path id="Trazado_275136" data-name="Trazado 275136" d="M44.49,134.913c.77-.043,1.321.188,1.306.991a1.047,1.047,0,0,1-1.343,1.024,1.572,1.572,0,0,1-1.034-.992c-.152-.729.315-1.157,1.07-1.023" transform="translate(-35.233 -109.528)" fill="#040301"/>
    <path id="Trazado_275137" data-name="Trazado 275137" d="M115.585,33.752a4.909,4.909,0,0,1-4.672,5.057c-2.422.247-4.5-1.274-5.283-3.953-.545-1.856.321-3.416,1.167-4.936.865-1.554,1.845-3.043,2.771-4.562a1.134,1.134,0,0,1,2.092.032c.993,1.657,2.056,3.278,2.955,4.985a25.927,25.927,0,0,1,1.222,3.286l-.252.092m-4.891-5.879c-.974,1.653-1.851,3.036-2.609,4.481a3.088,3.088,0,0,0-.348,1.785,2.994,2.994,0,0,0,3.61,2.364,2.814,2.814,0,0,0,1.9-3.812c-.72-1.563-1.607-3.051-2.551-4.818" transform="translate(-85.632 -20.038)" fill="#020202"/>
    <path id="Trazado_275138" data-name="Trazado 275138" d="M120.428,41.675c.945,1.767,1.831,3.255,2.551,4.818a2.814,2.814,0,0,1-1.9,3.812,2.994,2.994,0,0,1-3.61-2.364,3.088,3.088,0,0,1,.348-1.785c.758-1.445,1.635-2.828,2.609-4.481" transform="translate(-95.365 -33.84)" fill="#b71f24"/>
  </g>
</svg>
