<svg xmlns="http://www.w3.org/2000/svg" xmlns:xlink="http://www.w3.org/1999/xlink" width="88.221" height="88.457" viewBox="0 0 88.221 88.457">
  <defs>
    <clipPath id="clip-path">
      <rect id="Rectángulo_323465" data-name="Rectángulo 323465" width="88.221" height="88.457" fill="none"/>
    </clipPath>
  </defs>
  <g id="Grupo_257262" data-name="Grupo 257262" transform="translate(35.221 -14)">
    <g id="Grupo_257261" data-name="Grupo 257261" transform="translate(-35.221 14)" clip-path="url(#clip-path)">
      <path id="Trazado_275139" data-name="Trazado 275139" d="M85.824,11.37c.085-1.788.81-2.5,2.355-2.515,1.346-.013,2.692-.009,4.038-.016.029,0,.059-.037.088-.057.031-.059.087-.118.089-.178.049-2.528.361-2.837,2.88-2.837,2.875,0,5.749-.005,8.624,0a2,2,0,0,1,2.265,2.29q.006,10.318,0,20.636c0,1.611-.673,2.279-2.285,2.281-4.839,0-9.679-.017-14.518.031a2.108,2.108,0,0,0-1.451.666,15.035,15.035,0,0,1-8.815,5.783,1.4,1.4,0,0,1-.544.007c-1.854-.372-3.048.556-4.288,1.828-5.054,5.185-10.21,10.271-15.331,15.392A1.791,1.791,0,0,1,56,54.672L24.2,22.861c-1.658-1.659-1.656-2.329.012-4C30.23,12.84,36.274,6.842,42.248.775a2.153,2.153,0,0,1,3.318.013c1.653,1.678,3.259,3.4,4.918,5.075a1.043,1.043,0,0,0,.885.219c2.262-.76,4.536-1.5,6.751-2.384a15.059,15.059,0,0,1,8.928-.627C70.822,3.88,74,6.09,77.41,7.741c2.073,1,4.1,2.1,6.182,3.084a11.682,11.682,0,0,0,2.231.545m3.595,15.6-.049.566.2-.087.214-.056h2.408l.217-.189q0-7.208,0-14.416l-.211-.183-2.41,0c-.129.221-.371.443-.372.665-.015,4.567,0,9.135.006,13.7M96.341,9.281l-.372.224q0,8.85,0,17.7c.152.112.3.319.457.32q2.941.02,5.882-.026c.119,0,.236-.194.354-.3V9.506l-.212-.229-6.108,0M85.879,22.61V14.8a16.241,16.241,0,0,1-6.348-1.888c-3.793-2-7.55-4.094-11.443-5.884a9.146,9.146,0,0,0-5.068-.91,88.909,88.909,0,0,0-9.449,2.708c2.035,2.031,3.841,3.852,5.674,5.647A4.386,4.386,0,0,0,60.708,15.6q5.669,1.931,11.387,3.716a1.911,1.911,0,0,1,1.567,1.995c-.744,1.364-1.434,1.656-2.9,1.188-4.431-1.409-8.85-2.858-13.3-4.219a11.774,11.774,0,0,0-3.154-.448c-1.585-.035-2.976,2.075-2.552,3.789a4.4,4.4,0,0,0,3.137,3.168c2.82.987,5.675,1.877,8.491,2.873s5.566,1.817,7.778,4.222c2.014,2.191,5.055,2.53,8.037,1.89a10.646,10.646,0,0,0,5.681-3.79,3.521,3.521,0,0,0,1.01-1.817c.117-1.844.008-3.7-.013-5.554M33.706,27.239c.011.034.013.077.035.1Q42.2,35.856,50.688,44.351a1.075,1.075,0,0,0,.993.071,11.433,11.433,0,0,1,11.572,0,1.332,1.332,0,0,0,1.208-.091,37.037,37.037,0,0,0,2.94-2.921,1.086,1.086,0,0,0,.1-1.006,10.6,10.6,0,0,1-1.568-7.693.866.866,0,0,0-.458-.693c-1.737-.61-3.494-1.162-5.294-1.748a8.858,8.858,0,0,1-3,4.745c-2.348,1.966-4.968,3.065-8.1,2.441a9.942,9.942,0,0,1-7.914-12.164,9.37,9.37,0,0,1,6.888-7.071c.365-.1.855-.232,1.017-.508a6.873,6.873,0,0,1,4.714-3.444l-3.647-3.6a10.782,10.782,0,0,1-12.4.043l-3.945,3.924a11.36,11.36,0,0,1-.085,12.6m14.541-5.326a6.181,6.181,0,0,0-3.819,7.037,6.3,6.3,0,0,0,7.684,4.992c2.435-.472,4.9-3.112,4.592-4.96-3.942-.96-7.451-2.5-8.457-7.07M40.285,8.037c1.607,1.582,5.419,1.549,7.219.047L43.9,4.522,40.285,8.037m-12.721,12.8,3.682,3.649c1.324-1.949,1.284-5.723-.092-7.231l-3.59,3.581M57.606,51.023l3.685-3.678c-1.438-1.209-5.941-1.381-7.4-.045l3.72,3.722M70.279,38.592,72.2,36.571l-2.806-1.518-.259.161,1.146,3.378" transform="translate(-17.944 0)" fill="#010101"/>
      <path id="Trazado_275140" data-name="Trazado 275140" d="M57.437,260.145c4.461-1.248,8.787-2.576,13.175-3.647,3.248-.793,6.213-.125,8.085,2.983a6.508,6.508,0,0,1-.823,8.047,11.964,11.964,0,0,1-5.313,3.14c-4.668,1.635-9.314,3.335-13.971,5-4.058,1.452-8.1,2.937-12.183,4.327a12.655,12.655,0,0,1-10.119-.67c-4.043-2.042-8.028-4.2-12.092-6.2a25.491,25.491,0,0,0-3.916-1.217c-.445,2.092-.843,2.4-2.814,2.4q-1.855,0-3.71,0a1.162,1.162,0,0,0-.218.088c0,.4,0,.863,0,1.321a1.622,1.622,0,0,1-1.572,1.688c-3.455.026-6.911.028-10.366-.013-1.105-.013-1.593-.585-1.594-1.7q-.011-10.861,0-21.722c0-1.18.618-1.757,1.916-1.76,4.874-.013,9.749-.033,14.623.021a1.847,1.847,0,0,0,1.676-.857c1.905-2.555,4.287-4.614,7.444-5.174a19.231,19.231,0,0,1,6.472.133,11.628,11.628,0,0,1,7.1,4.327c.43.524,1.361.667,2.086.913,2.954,1,5.928,1.946,8.873,2.971a25.217,25.217,0,0,1,4.071,1.689,6.667,6.667,0,0,1,3.168,3.9M16.381,270.73c.129-.193.37-.385.371-.578q.031-6.906,0-13.812c0-.186-.242-.372-.372-.558H13.753V270.73Zm-12.657,3.18h6.458V255.733H3.716l-.206.226q0,8.849,0,17.7l.217.251M32.35,261.875c.844-1.443.992-1.55,2.739-1.089,1.668.441,3.306,1,4.952,1.519,3.12.989,6.256,1.934,9.348,3.006a3.536,3.536,0,0,0,4.55-1.528,3.28,3.28,0,0,0-1.43-4.553,32.3,32.3,0,0,0-3.225-1.3c-2.992-1.042-6-2.026-9-3.068-1.631-.569-3.388-.969-4.3-2.7a1.235,1.235,0,0,0-.308-.3c-3.341-2.9-9.3-3.681-12.814-.42a7.954,7.954,0,0,0-2.531,3.476c-.421,1.786-.07,3.755-.05,5.645v7.656a63.7,63.7,0,0,1,6.473,2.3c3.643,1.743,7.158,3.751,10.751,5.6a10.163,10.163,0,0,0,8.321.5c4.672-1.65,9.322-3.359,13.987-5.028,3.266-1.168,6.556-2.274,9.807-3.481a37.021,37.021,0,0,0,4.838-2.123,3.308,3.308,0,0,0,1.524-4.26c-.593-1.56-1.978-2.217-3.932-1.834-1,.2-2.008.4-2.994.669-3.61.979-7.218,1.97-10.811,3.01a1.478,1.478,0,0,0-.8.882,7.162,7.162,0,0,1-6.015,4.617c-2.714.16-5.07-1.215-7.576-1.916-3.239-.905-6.4-2.071-9.616-3.076-1.343-.42-1.735-.792-1.895-2.194" transform="translate(0 -192.287)" fill="#010101"/>
      <path id="Trazado_275141" data-name="Trazado 275141" d="M72.183,65.465a11.355,11.355,0,0,0,.088-12.6l3.945-3.924a10.782,10.782,0,0,0,12.4-.043l3.647,3.6a6.873,6.873,0,0,0-4.714,3.444c-.162.276-.652.408-1.017.508a9.37,9.37,0,0,0-6.888,7.07,9.943,9.943,0,0,0,7.914,12.164c3.133.624,5.754-.475,8.1-2.441a8.858,8.858,0,0,0,3-4.745c1.8.586,3.557,1.138,5.294,1.748a.865.865,0,0,1,.458.693,10.6,10.6,0,0,0,1.568,7.692,1.086,1.086,0,0,1-.1,1.006,37.005,37.005,0,0,1-2.94,2.921,1.332,1.332,0,0,1-1.208.091,11.433,11.433,0,0,0-11.571,0,1.075,1.075,0,0,1-.993-.071q-8.5-8.479-16.947-17.012c-.022-.022-.024-.066-.038-.1" transform="translate(-56.424 -38.226)" fill="#26ceac"/>
      <path id="Trazado_275142" data-name="Trazado 275142" d="M188.724,86.44c.021,1.852.13,3.71.013,5.554a3.52,3.52,0,0,1-1.01,1.816,10.645,10.645,0,0,1-5.681,3.79c-2.982.64-6.023.3-8.037-1.89-2.212-2.406-4.975-3.231-7.778-4.223s-5.671-1.886-8.491-2.873a4.395,4.395,0,0,1-3.137-3.168c-.425-1.714.967-3.824,2.552-3.788a11.774,11.774,0,0,1,3.154.448c4.446,1.361,8.865,2.81,13.3,4.219,1.469.467,2.159.176,2.9-1.188l3.264.222c-.121.217-.251.43-.361.652a1.546,1.546,0,0,0,1.529,2.4c1.368-.019,1.917-1.025,1.43-2.62l6.355.651" transform="translate(-120.789 -63.831)" fill="#fddbab"/>
      <path id="Trazado_275143" data-name="Trazado 275143" d="M186.54,43.15l-3.264-.222a1.911,1.911,0,0,0-1.566-1.995q-5.72-1.775-11.387-3.715a4.39,4.39,0,0,1-1.463-1.121c-1.833-1.794-3.639-3.616-5.674-5.647a88.908,88.908,0,0,1,9.449-2.708,9.15,9.15,0,0,1,5.068.91c3.893,1.79,7.65,3.88,11.443,5.884a16.241,16.241,0,0,0,6.348,1.888v7.806l-6.355-.651a2.25,2.25,0,0,0-2.6-.43" transform="translate(-127.559 -21.621)" fill="#eac092"/>
      <path id="Trazado_275144" data-name="Trazado 275144" d="M364.077,42.725q0,8.847,0,17.7l-6.693,0q0-8.85,0-17.7l.372-.224,6.108,0,.212.229" transform="translate(-279.362 -33.218)" fill="#3688c8"/>
      <path id="Trazado_275145" data-name="Trazado 275145" d="M124.615,100.373c1.005,4.57,4.515,6.11,8.457,7.07.308,1.847-2.157,4.487-4.592,4.959a6.3,6.3,0,0,1-7.684-4.992,6.181,6.181,0,0,1,3.819-7.037" transform="translate(-94.312 -78.46)" fill="#fdd26b"/>
      <path id="Trazado_275146" data-name="Trazado 275146" d="M329.061,57.708l2.41,0,.21.183q0,7.208,0,14.416l-.217.189h-2.408Z" transform="translate(-257.221 -45.109)" fill="#e9ebef"/>
      <path id="Trazado_275147" data-name="Trazado 275147" d="M102.328,24.226l3.616-3.515,3.6,3.563c-1.8,1.5-5.612,1.535-7.219-.047" transform="translate(-79.988 -16.189)" fill="#00b091"/>
      <path id="Trazado_275148" data-name="Trazado 275148" d="M44.061,82.624l3.59-3.582c1.376,1.508,1.416,5.282.092,7.231l-3.682-3.649" transform="translate(-34.442 -61.786)" fill="#00ae90"/>
      <path id="Trazado_275149" data-name="Trazado 275149" d="M168.349,217.038l-3.72-3.722c1.464-1.337,5.967-1.165,7.4.044l-3.685,3.678" transform="translate(-128.688 -166.015)" fill="#00b091"/>
      <path id="Trazado_275150" data-name="Trazado 275150" d="M327.705,57.708V72.5l-.213.056-.153-.479c-.008-4.568-.02-9.135-.006-13.7,0-.222.243-.443.372-.665" transform="translate(-255.865 -45.109)" fill="#f8fafb"/>
      <path id="Trazado_275151" data-name="Trazado 275151" d="M235.614,164.1l-1.146-3.378.259-.161,2.806,1.518-1.919,2.021" transform="translate(-183.28 -125.505)" fill="#00ae90"/>
      <path id="Trazado_275152" data-name="Trazado 275152" d="M357.385,124.6l6.693,0c-.118.1-.234.3-.354.3q-2.941.042-5.882.026c-.153,0-.3-.209-.457-.32" transform="translate(-279.362 -97.394)" fill="#3992d7"/>
      <path id="Trazado_275153" data-name="Trazado 275153" d="M327.207,123.517l.153.479-.2.087.049-.566" transform="translate(-255.734 -96.551)" fill="#abacaf"/>
      <path id="Trazado_275154" data-name="Trazado 275154" d="M357.761,42.509l-.372.224.372-.224" transform="translate(-279.365 -33.229)" fill="#3992d7"/>
      <path id="Trazado_275155" data-name="Trazado 275155" d="M340.091,124.778l.217-.189-.217.189" transform="translate(-265.843 -97.389)" fill="#f8fafb"/>
      <path id="Trazado_275156" data-name="Trazado 275156" d="M340.312,57.9l-.211-.183.211.183" transform="translate(-265.851 -45.12)" fill="#f8fafb"/>
      <path id="Trazado_275157" data-name="Trazado 275157" d="M387.279,42.725l-.212-.229.212.229" transform="translate(-302.563 -33.218)" fill="#3992d7"/>
      <path id="Trazado_275158" data-name="Trazado 275158" d="M104.977,311.229c.159,1.4.552,1.775,1.895,2.194,3.212,1,6.377,2.17,9.616,3.076,2.506.7,4.862,2.076,7.576,1.916a7.162,7.162,0,0,0,6.015-4.617,1.478,1.478,0,0,1,.8-.882c3.593-1.04,7.2-2.031,10.811-3.01.986-.267,1.991-.472,2.994-.669,1.954-.383,3.339.274,3.932,1.834a3.309,3.309,0,0,1-1.524,4.26,37.006,37.006,0,0,1-4.838,2.123c-3.252,1.208-6.541,2.313-9.807,3.482-4.665,1.669-9.316,3.378-13.987,5.028a10.163,10.163,0,0,1-8.321-.5c-3.593-1.849-7.108-3.857-10.751-5.6a63.719,63.719,0,0,0-6.473-2.3v-7.656l6.195.636c1.171,1.1,1.5,1.122,2.77.206l3.1.478" transform="translate(-72.627 -241.641)" fill="#eac092"/>
      <path id="Trazado_275159" data-name="Trazado 275159" d="M98.547,273.082l-6.195-.636c-.02-1.89-.371-3.859.05-5.645a7.954,7.954,0,0,1,2.531-3.476c3.511-3.261,9.474-2.476,12.814.42a1.239,1.239,0,0,1,.308.3c.912,1.733,2.669,2.134,4.3,2.7,2.992,1.042,6,2.026,9,3.068a32.3,32.3,0,0,1,3.225,1.3,3.28,3.28,0,0,1,1.43,4.553,3.536,3.536,0,0,1-4.55,1.528c-3.092-1.072-6.228-2.017-9.348-3.006-1.646-.522-3.284-1.078-4.952-1.519-1.746-.461-1.895-.355-2.739,1.089l-3.1-.478c.559-.819.732-1.639-.11-2.372a1.7,1.7,0,0,0-2.257-.112,1.628,1.628,0,0,0-.4,2.277" transform="translate(-72.068 -204.179)" fill="#fddbab"/>
      <path id="Trazado_275160" data-name="Trazado 275160" d="M16.27,290.614h6.467V308.79H16.278l-.217-.251q0-8.849,0-17.7l.206-.226" transform="translate(-12.555 -227.168)" fill="#3688c8"/>
      <path id="Trazado_275161" data-name="Trazado 275161" d="M65.621,305.785H62.992V290.838h2.627q0,7.474,0,14.947" transform="translate(-49.24 -227.343)" fill="#eaecf0"/>
      <path id="Trazado_275162" data-name="Trazado 275162" d="M75.027,305.785q0-7.474,0-14.947c.129.186.371.371.372.558q.031,6.906,0,13.812c0,.193-.242.385-.371.578" transform="translate(-58.647 -227.343)" fill="#f8fafb"/>
      <path id="Trazado_275163" data-name="Trazado 275163" d="M16.278,290.614l-.206.226.206-.226" transform="translate(-12.563 -227.168)" fill="#3992d7"/>
      <path id="Trazado_275164" data-name="Trazado 275164" d="M16.061,372.72l.217.251-.217-.251" transform="translate(-12.555 -291.349)" fill="#3992d7"/>
      <path id="Trazado_275165" data-name="Trazado 275165" d="M268.008,97.774a2.25,2.25,0,0,1,2.6.43c.486,1.6-.063,2.6-1.43,2.62a1.546,1.546,0,0,1-1.529-2.4c.11-.223.24-.435.361-.652" transform="translate(-209.026 -76.246)" fill="#020201"/>
      <path id="Trazado_275166" data-name="Trazado 275166" d="M120.268,306.117a1.628,1.628,0,0,1,.4-2.277,1.7,1.7,0,0,1,2.257.112c.843.733.669,1.553.11,2.372-1.265.916-1.6.891-2.77-.206" transform="translate(-93.789 -237.213)" fill="#020201"/>
    </g>
  </g>
</svg>
