<svg id="Grupo_257387" data-name="Grupo 257387" xmlns="http://www.w3.org/2000/svg" width="119.628" height="115.562" viewBox="0 0 119.628 115.562">
  <path id="Trazado_275175" data-name="Trazado 275175" d="M135.222,147.8V109.406a9.157,9.157,0,0,1,.929-.1q7.712-.009,15.422,0a4.568,4.568,0,0,1,.893.182c-.015.159-.042.317-.042.476q0,13.827,0,27.656a7.535,7.535,0,0,0,.091.814h8.528a4.53,4.53,0,0,0,.072-.537q-.009-14.187-.025-28.373.011-.113.012-.225,16.729-.012,33.459-.014a3.058,3.058,0,0,1,.765.2l-16.983.022a8.256,8.256,0,0,0-.225,1.361q-.02,18.463-.01,36.926c-5.814.013-11.627.036-17.441.035q-12.723,0-25.445-.032" transform="translate(-131.71 -70.865)" fill="#fbd18f"/>
  <path id="Trazado_275176" data-name="Trazado 275176" d="M195.326,109.488a3.058,3.058,0,0,0-.765-.2q-16.729,0-33.459.013l-.238.183-4.083-.009a.374.374,0,0,0-.044-.2q.018-13.4.036-26.789c.005-3.786,0-7.572,0-11.525h17.085q-.01,4.91-.02,9.818c0,6.027.019,12.053-.021,18.08-.006.994.29,1.338,1.289,1.287,1.433-.073,2.873-.019,4.31-.019h3.236V70.951h17.183V109.48l-4.238.065a.543.543,0,0,0-.211-.029Z" transform="translate(-131.71 -70.865)" fill="#fcb13b"/>
  <path id="Trazado_275177" data-name="Trazado 275177" d="M183.663,172.056q-.024-2.776-.049-5.555.017-9.335.034-18.67a9.564,9.564,0,0,0,.17-1.271q.017-8.856.008-17.712c0-1.645,0-1.633,1.7-1.648,3.308-.028,6.615-.07,9.922-.106l8.693.012a5.361,5.361,0,0,0,.707.09q7.7.009,15.39,0a5.551,5.551,0,0,0,1.043-.2c2.834,0,5.668-.015,8.5.015a19.638,19.638,0,0,1,2.6.245c.206.03.542.305.54.464-.029,1.823-.111,3.645-.179,5.468-.246.252-.514.486-.734.758-1.116,1.381-2.188,2.8-3.335,4.154-2.219,2.621-4.478,5.207-6.721,7.808-.978.042-2.368-.286-2.826.224-.53.589-.239,1.916-.3,2.922l-.018.236c-.976.78-1.965,1.543-2.924,2.342q-4.187,3.49-8.347,7.01c-.584.495-1.1,1.069-1.65,1.607q-7.48.032-14.959.065c-.358,0-.833-.112-1.049.07a2.291,2.291,0,0,0-.9,1.314c-.016.315.644.744,1.079.975.281.149.7.032,1.063.034l10.29.071-1.508,1.543-9.528.064c-.819.006-1.432.331-1.461,1.212-.03.93.605,1.187,1.428,1.186,1.349,0,2.7.019,4.048.03a4.488,4.488,0,0,1-.874.849c-1.076.592-2.168,1.165-3.294,1.655-2.17.946-4.367,1.83-6.554,2.739m18.049-39.538c-3.668,0-7.336.006-11,0-.9,0-1.793.07-1.789,1.224,0,1.077.849,1.18,1.711,1.179q11.064-.009,22.127,0c.8,0,1.528-.027,1.542-1.155.015-1.177-.716-1.244-1.583-1.242q-5.5.01-11,0m-.046,4.073c-3.708,0-7.416-.006-11.124,0-1.151,0-1.793.549-1.629,1.381.178.9.868,1.016,1.643,1.015q6.878-.012,13.755,0,4.307,0,8.612,0c.815,0,1.384-.194,1.377-1.2-.008-1.1-.681-1.2-1.511-1.195q-5.561.007-11.123,0m-.084,9.821c-3.628,0-7.256.006-10.884-.005-.9,0-1.792.072-1.78,1.231.012,1.077.858,1.174,1.719,1.173q11.064-.011,22.127,0c.807,0,1.522-.047,1.534-1.166.013-1.183-.733-1.233-1.593-1.232q-5.561.009-11.123,0m.058,6.467q5.442,0,10.884,0c.832,0,1.751.145,1.769-1.163.019-1.392-.958-1.226-1.826-1.227q-10.764-.008-21.529,0c-.928,0-2.037-.11-2.01,1.225s1.158,1.167,2.067,1.168q5.324.008,10.645,0m17.191-17.251c0,1,.022,1.992-.008,2.987-.018.613.211.853.834.845,1.912-.024,3.825-.02,5.737,0,.579.005.883-.149.874-.8-.026-1.951.02-3.9-.043-5.854a1.067,1.067,0,0,0-.732-.741c-1.95-.064-3.9-.019-5.854-.044-.642-.009-.833.27-.815.863.027.915.007,1.832.007,2.748" transform="translate(-131.71 -70.865)" fill="#e6e6e6"/>
  <path id="Trazado_275178" data-name="Trazado 275178" d="M221.957,145.908c2.243-2.6,4.5-5.188,6.721-7.809,1.147-1.354,2.219-2.772,3.335-4.153.22-.273.488-.507.734-.759l.222,15.851.012.282-6.688,11.971-.118-1.394h-7.348c0,2.38-.021,4.681.035,6.979.005.206.5.558.781.572,1.232.062,2.469.023,3.7.021q-.079,2.637-.161,5.272l-.078.978c-1.153,0-2.306.014-3.458-.019-.617-.018-.846.216-.838.834.024,1.947-.02,3.9.043,5.841a1.069,1.069,0,0,0,.738.735c1.986.062,3.975.048,5.961.012.233,0,.661-.3.659-.453-.022-1.846-.109-3.691-.178-5.537.876-.61,1.788-1.174,2.619-1.841,1.366-1.1,3.158-1.707,3.964-3.445l.323.036c.006,5.149,0,10.3.033,15.447.006.823-.227,1.1-1.077,1.1q-23.592-.033-47.186-.007c-.7,0-1.106-.084-1.1-.954.047-4.47.038-8.94.049-13.41,2.186-.91,4.384-1.794,6.554-2.739,1.126-.491,2.218-1.063,3.294-1.655a4.545,4.545,0,0,0,.874-.849c.358-.013.715-.038,1.073-.038q8.669,0,17.338,0c1.326,0,1.7-.408,1.477-1.521-.185-.915-.9-.869-1.585-.872l-12.791-.057,1.509-1.543c.476-.024.953-.072,1.43-.073q5.028-.009,10.056,0c.869,0,1.481-.178,1.406-1.268-.063-.914-.583-1.127-1.352-1.132q-3.529-.022-7.059-.056c.548-.538,1.066-1.112,1.65-1.607q4.158-3.525,8.347-7.01c.959-.8,1.948-1.563,2.924-2.343,0,1.075-.023,2.151.033,3.223.015.282.282.787.441.791,2.29.052,4.581.035,6.9.035v-7.43ZM201.6,180.679q5.565,0,11.13,0c.761,0,1.562.076,1.566-1.1,0-1.13-.65-1.3-1.557-1.293q-11.07.013-22.14,0c-.894,0-1.659.212-1.691,1.238-.035,1.136.837,1.166,1.682,1.165q5.5-.009,11.01,0m.032-4.072q5.625,0,11.25,0c.768,0,1.433-.07,1.415-1.138-.018-1.046-.594-1.261-1.47-1.26q-11.13.011-22.259,0c-.9,0-1.641.249-1.661,1.27-.021,1.047.776,1.135,1.6,1.133q5.565-.011,11.13,0" transform="translate(-131.71 -70.865)" fill="#d0d0cf"/>
  <path id="Trazado_275179" data-name="Trazado 275179" d="M183.648,147.831q-.017,9.335-.034,18.67h-51.9V147.8h3.512q12.723.017,25.445.032c5.813,0,11.627-.022,17.441-.035l.114.02.116-.017,5.31.031m-11.861,6.283H138.931v6.078h32.856Z" transform="translate(-131.71 -70.865)" fill="gray"/>
  <path id="Trazado_275180" data-name="Trazado 275180" d="M221.28,127a5.541,5.541,0,0,1-1.042.2q-7.7.02-15.39,0a5.527,5.527,0,0,1-.708-.09.223.223,0,0,1-.021-.125c.022-.076.043-.152.065-.228q0-8.5,0-17a.453.453,0,0,0,.034-.23,3.12,3.12,0,0,1,.772-.2q7.777-.018,15.554,0a6.509,6.509,0,0,1,.737.1Z" transform="translate(-131.71 -70.865)" fill="#e2bc81"/>
  <path id="Trazado_275181" data-name="Trazado 275181" d="M223.186,172.742q.081-2.636.161-5.272a10.076,10.076,0,0,1,.515-1.627c.777-1.534,1.616-3.036,2.43-4.551l6.689-11.972.181-.277,9.091-16.331,1.218.678c.539-.833,1.062-1.746,1.687-2.584a3.518,3.518,0,0,1,4.791-.447,3.662,3.662,0,0,1,1.1,4.314c-.332.755-.767,1.464-1.155,2.194a5.856,5.856,0,0,1-.766-.3c-1.266-.715-1.352-.7-2.076.624-.65,1.187-1.28,2.386-1.938,3.569-4.221,7.58-8.4,15.184-12.7,22.72-1.235,2.163-1.942,4.732-4.326,6.131-1.672.981-3.271,2.084-4.9,3.132" transform="translate(-131.71 -70.865)" fill="#fdb615"/>
  <path id="Trazado_275182" data-name="Trazado 275182" d="M182.653,70.951v29.173h-3.236c-1.437,0-2.876-.055-4.31.018-1,.051-1.295-.293-1.289-1.287.04-6.026.018-12.053.021-18.08q0-4.908.02-9.817l.412-.092h8.152l.23.085" transform="translate(-131.71 -70.865)" fill="#ed1968"/>
  <path id="Trazado_275183" data-name="Trazado 275183" d="M156.781,109.471l4.083.009a.755.755,0,0,0,.226.043q.014,14.187.025,28.373a4.361,4.361,0,0,1-.073.537h-8.527a7.333,7.333,0,0,1-.091-.815q-.006-13.827,0-27.655c0-.159.028-.318.042-.476l4.083-.019.116.028Z" transform="translate(-131.71 -70.865)" fill="#ed1968"/>
  <path id="Trazado_275184" data-name="Trazado 275184" d="M204.183,109.75q0,8.5,0,17c-.022.076-.043.152-.065.228a.223.223,0,0,0,.021.125l-8.693-.012q-.018-8.671-.036-17.345l.187-.2,4.238-.065,4.146.064.2.206" transform="translate(-131.71 -70.865)" fill="#ed1968"/>
  <path id="Trazado_275185" data-name="Trazado 275185" d="M223.186,172.742c1.632-1.048,3.231-2.151,4.9-3.132,2.384-1.4,3.091-3.968,4.326-6.131,4.3-7.536,8.479-15.14,12.7-22.72.658-1.183,1.288-2.382,1.938-3.569.724-1.321.81-1.339,2.076-.624a5.856,5.856,0,0,0,.766.3c.8.46.443,1,.13,1.565-1.671,2.993-3.326,5.994-5,8.984-1.772,3.164-3.574,6.31-5.338,9.478q-3.243,5.828-6.444,11.678a8.032,8.032,0,0,0-.325.762l-.3.512c-.806,1.738-2.6,2.351-3.964,3.446-.831.666-1.744,1.231-2.62,1.841l-2.9,1.838-.282-.236.261-3.015.078-.978" transform="translate(-131.71 -70.865)" fill="#ba882d"/>
  <path id="Trazado_275186" data-name="Trazado 275186" d="M182.423,70.865h0" transform="translate(-131.71 -70.865)" fill="#edd7b3"/>
  <path id="Trazado_275187" data-name="Trazado 275187" d="M232.618,169.846l.3-.513c.007.183.015.366.023.549l-.323-.036" transform="translate(-131.71 -70.865)" fill="#dddddc"/>
  <path id="Trazado_275188" data-name="Trazado 275188" d="M204.183,109.75l-.2-.206a.353.353,0,0,1,.235-.024.466.466,0,0,1-.034.23" transform="translate(-131.71 -70.865)" fill="#eb396d"/>
  <path id="Trazado_275189" data-name="Trazado 275189" d="M233.163,149.043l-.182.277c0-.094-.008-.188-.011-.282a.891.891,0,0,1,.193.005" transform="translate(-131.71 -70.865)" fill="#dddddc"/>
  <path id="Trazado_275190" data-name="Trazado 275190" d="M156.781,109.471l-.117.025-.116-.028.189-.2a.38.38,0,0,1,.044.2" transform="translate(-131.71 -70.865)" fill="#fff7eb"/>
  <path id="Trazado_275191" data-name="Trazado 275191" d="M195.411,109.75q.018,8.673.036,17.345c-3.307.036-6.615.078-9.922.106-1.7.014-1.7,0-1.7,1.647q0,8.856-.008,17.712a9.364,9.364,0,0,1-.171,1.271l-5.31-.03.006-38.291,16.983-.022.061.029a.336.336,0,0,0,.024.233" transform="translate(-131.71 -70.865)" fill="#e2bc81"/>
  <path id="Trazado_275192" data-name="Trazado 275192" d="M178.343,109.51l-.006,38.291-.115.016-.115-.02q0-18.463.01-36.927a8.248,8.248,0,0,1,.226-1.36" transform="translate(-131.71 -70.865)" fill="#f4d5a2"/>
  <path id="Trazado_275193" data-name="Trazado 275193" d="M161.09,109.523a.755.755,0,0,1-.226-.043l.238-.183c0,.076-.006.151-.012.226" transform="translate(-131.71 -70.865)" fill="#f8ac87"/>
  <path id="Trazado_275194" data-name="Trazado 275194" d="M195.411,109.75a.336.336,0,0,1-.024-.233.517.517,0,0,1,.21.028l-.186.205" transform="translate(-131.71 -70.865)" fill="#eb396d"/>
  <path id="Trazado_275195" data-name="Trazado 275195" d="M205.887,160.249c2.353.019,4.706.042,7.059.056.769.005,1.289.218,1.353,1.132.075,1.09-.537,1.27-1.407,1.268q-5.028-.012-10.056,0c-.477,0-.954.049-1.43.074q-5.145-.038-10.29-.072c-.359,0-.781.115-1.063-.035-.435-.23-1.1-.66-1.079-.974a2.291,2.291,0,0,1,.9-1.314c.216-.183.691-.069,1.049-.071q7.479-.035,14.959-.064" transform="translate(-131.71 -70.865)" fill="gray"/>
  <path id="Trazado_275196" data-name="Trazado 275196" d="M199.9,164.321l12.79.057c.688,0,1.4-.043,1.585.872.224,1.113-.151,1.519-1.477,1.521q-8.67.011-17.338,0c-.358,0-.716.025-1.073.038-1.35-.012-2.7-.034-4.048-.031-.823,0-1.459-.256-1.427-1.186.028-.881.641-1.2,1.46-1.211l9.528-.064" transform="translate(-131.71 -70.865)" fill="gray"/>
  <path id="Trazado_275197" data-name="Trazado 275197" d="M201.712,132.519q5.5,0,11,0c.867,0,1.6.065,1.583,1.243-.014,1.127-.741,1.155-1.542,1.155q-11.062,0-22.126,0c-.863,0-1.708-.1-1.712-1.179,0-1.154.89-1.227,1.789-1.224,3.668.01,7.336,0,11,0" transform="translate(-131.71 -70.865)" fill="gray"/>
  <path id="Trazado_275198" data-name="Trazado 275198" d="M201.666,136.591q5.562,0,11.124,0c.829,0,1.5.1,1.51,1.2.007,1.007-.562,1.2-1.377,1.2q-4.305,0-8.612,0-6.878,0-13.755,0c-.774,0-1.465-.112-1.643-1.015-.164-.832.478-1.378,1.629-1.381,3.708-.009,7.416,0,11.124,0" transform="translate(-131.71 -70.865)" fill="gray"/>
  <path id="Trazado_275199" data-name="Trazado 275199" d="M201.582,146.412q5.562,0,11.123,0c.86,0,1.606.049,1.593,1.232-.012,1.12-.727,1.166-1.534,1.166q-11.064,0-22.127,0c-.861,0-1.707-.1-1.719-1.173-.012-1.159.88-1.233,1.78-1.23,3.628.01,7.256,0,10.884,0" transform="translate(-131.71 -70.865)" fill="gray"/>
  <path id="Trazado_275200" data-name="Trazado 275200" d="M201.64,152.879q-5.322,0-10.645,0c-.909,0-2.041.166-2.067-1.168s1.082-1.226,2.01-1.226q10.764,0,21.529,0c.868,0,1.845-.165,1.826,1.227-.019,1.307-.938,1.161-1.769,1.162q-5.442.009-10.884,0" transform="translate(-131.71 -70.865)" fill="gray"/>
  <path id="Trazado_275201" data-name="Trazado 275201" d="M221.957,145.908h4.222v7.43c-2.316,0-4.607.017-6.9-.035-.16,0-.427-.509-.441-.791-.057-1.072-.03-2.148-.034-3.222.006-.079.013-.157.018-.236.066-1.007-.224-2.333.3-2.923.458-.509,1.848-.181,2.826-.223" transform="translate(-131.71 -70.865)" fill="#fff"/>
  <path id="Trazado_275202" data-name="Trazado 275202" d="M218.831,135.628c0-.916.02-1.833-.007-2.748-.018-.593.173-.872.815-.863,1.952.025,3.9-.02,5.855.044a1.064,1.064,0,0,1,.731.741c.063,1.95.018,3.9.044,5.854.008.654-.3.808-.875.8-1.912-.019-3.825-.023-5.736,0-.623.008-.853-.232-.835-.845.03-1,.008-1.991.008-2.987" transform="translate(-131.71 -70.865)" fill="#fff"/>
  <path id="Trazado_275203" data-name="Trazado 275203" d="M201.6,180.68q-5.5,0-11.01,0c-.845,0-1.717-.029-1.682-1.165.032-1.027.8-1.239,1.691-1.238q11.07.014,22.14,0c.907,0,1.56.163,1.556,1.294,0,1.18-.805,1.1-1.565,1.1-3.71.009-7.42,0-11.13,0" transform="translate(-131.71 -70.865)" fill="gray"/>
  <path id="Trazado_275204" data-name="Trazado 275204" d="M201.637,176.607q-5.565,0-11.13,0c-.819,0-1.616-.086-1.6-1.133.02-1.021.757-1.271,1.661-1.27q11.13.014,22.259,0c.876,0,1.452.214,1.47,1.26.018,1.068-.647,1.137-1.415,1.138q-5.625,0-11.25,0" transform="translate(-131.71 -70.865)" fill="gray"/>
  <path id="Trazado_275205" data-name="Trazado 275205" d="M223.108,173.72q-.131,1.508-.26,3.015l.281.236,2.906-1.838c.069,1.846.156,3.691.178,5.537,0,.155-.426.448-.659.453-1.986.036-3.975.05-5.961-.013a1.065,1.065,0,0,1-.738-.734c-.063-1.945-.019-3.894-.043-5.841-.008-.618.221-.852.838-.834,1.152.033,2.305.015,3.458.019" transform="translate(-131.71 -70.865)" fill="#fffffe"/>
  <path id="Trazado_275206" data-name="Trazado 275206" d="M226.293,161.292c-.815,1.515-1.653,3.017-2.43,4.551a10.073,10.073,0,0,0-.515,1.627c-1.236,0-2.473.04-3.705-.021-.281-.014-.776-.366-.781-.572-.056-2.3-.035-4.6-.035-6.98h7.348l.118,1.4" transform="translate(-131.71 -70.865)" fill="#fffffe"/>
  <rect id="Rectángulo_323489" data-name="Rectángulo 323489" width="32.856" height="6.078" transform="translate(7.221 83.25)" fill="#fff"/>
  <path id="Trazado_275207" data-name="Trazado 275207" d="M204.119,126.981c.022-.076.043-.152.065-.229-.022.077-.043.153-.065.229" transform="translate(-131.71 -70.865)" fill="#eb396d"/>
</svg>
