<svg xmlns="http://www.w3.org/2000/svg" width="118.719" height="121.362" viewBox="0 0 118.719 121.362">
  <g id="Grupo_257397" data-name="Grupo 257397" transform="translate(2174.955 -3267.577)">
    <path id="Trazado_275224" data-name="Trazado 275224" d="M218.893,904.708q5.611.027,11.223.054c1.52.008,1.635.118,1.638,1.6,0,2.088.03,4.176-.023,6.263a4.342,4.342,0,0,1-.5,1.318H124.768c-.079-2-.2-4.007-.221-6.012-.012-1.053.143-2.109.222-3.163l1.166-.091,8.081.023,46.947,0,8.3,0,29.631.006" transform="translate(-2288 2474.999)" fill="#fac600"/>
    <path id="Trazado_275225" data-name="Trazado 275225" d="M124.769,904.765c-.079,1.055-.234,2.11-.222,3.164.024,2,.142,4.007.221,6.011H113.386a5.265,5.265,0,0,1-.32-1.225c-.031-2.245,0-4.49-.021-6.734-.008-.934.333-1.308,1.332-1.287,3.463.071,6.928.054,10.392.071" transform="translate(-2288 2474.999)" fill="#e8b800"/>
    <path id="Trazado_275226" data-name="Trazado 275226" d="M180.963,904.7l-46.948,0q0-16.038.011-32.075a13.967,13.967,0,0,1,.213-1.742l.246-.1a7.221,7.221,0,0,0,1.262.225c2.355.014,4.711-.007,7.066-.016l4.736.046c-.006,2.744.012,5.489-.031,8.233-.015.9.271,1.3,1.212,1.253,1.1-.058,2.2-.026,3.293-.033,2.049.005,4.1-.021,6.146.031.931.024,1.247-.323,1.235-1.242-.036-2.758-.006-5.516,0-8.275l13.1-.068,8.458.043q0,16.861,0,33.722" transform="translate(-2288 2474.999)" fill="#f6a96c"/>
    <path id="Trazado_275227" data-name="Trazado 275227" d="M200.689,803.675l24.527,0c1.617,0,1.749.135,1.749,1.77q0,24.824,0,49.647c0,1.636-.295,1.933-1.919,1.933q-15.048,0-30.1-.005c0-3.392,0-6.783.017-10.175a6.17,6.17,0,0,1,.25-1.216,8.321,8.321,0,0,0,1.382.236q5.969.029,11.937.006c1.305,0,2.063-.666,2.079-1.742.017-1.151-.731-1.806-2.108-1.808q-5.967-.01-11.936.008a8.337,8.337,0,0,0-1.375.236c-.08-1.42-.2-2.84-.225-4.261a13.15,13.15,0,0,1,.233-1.912,8.287,8.287,0,0,0,1.379.234q9.188.024,18.374.008c1.587,0,2.077-.466,2.052-1.888-.022-1.208-.564-1.663-2.041-1.664q-9.128-.008-18.255.009a9.8,9.8,0,0,0-1.506.233,4.556,4.556,0,0,1-.238-1.09c.047-1.7.143-3.389.221-5.083a11.347,11.347,0,0,0,1.615.236c3.986.02,7.973.011,11.959.011,2.171,0,4.342.021,6.513-.01,1.274-.017,1.775-.589,1.731-1.84-.042-1.188-.645-1.7-2.048-1.7q-9.119-.009-18.236.008a9.655,9.655,0,0,0-1.5.235,5.209,5.209,0,0,1-.254-1.075c-.032-1.392-.017-2.786-.019-4.18l.932-.71,19.537.034a1.388,1.388,0,0,0,1.583-1.25c.118-.907.014-1.789-1.058-2.088a6.185,6.185,0,0,0-1.627-.207c-5.131-.021-10.263-.021-15.394-.026a15.367,15.367,0,0,0,1.964-8.135c-.07-.926-.131-1.852-.2-2.778" transform="translate(-2288 2474.999)" fill="#eaf6ff"/>
    <path id="Trazado_275228" data-name="Trazado 275228" d="M218.893,904.708l-29.631-.006q0-16.842,0-33.684l5.253.041c0,2.7,0,5.41-.023,8.114-.01.923.317,1.4,1.3,1.352,1.056-.05,2.115-.031,3.173-.042,1.619.008,3.239-.03,4.855.042,1.036.046,1.389-.328,1.371-1.363-.046-2.723,0-5.448.008-8.171,4.1,0,8.2.035,12.3-.016,1.109-.014,1.412.38,1.409,1.447-.032,10.762-.021,21.524-.022,32.286" transform="translate(-2288 2474.999)" fill="#fed2a4"/>
    <path id="Trazado_275229" data-name="Trazado 275229" d="M147.55,871.036l-4.737-.046q-.012-14.154-.013-28.311a7.492,7.492,0,0,1,.215-1.27l5.06.047c-.008,2.719,0,5.438-.032,8.156-.014,1.116.463,1.59,1.58,1.482.9-.087,1.8-.112,2.708-.164,1.839.052,3.68.16,5.518.133.815-.012,1.044-.684,1.038-1.443-.024-2.717-.028-5.435-.039-8.152,4.179-.024,8.358-.057,12.537-.067.9,0,1.053.623,1.05,1.379-.012,4.1-.005,8.2-.005,12.306q0,7.218,0,14.436c0,.471.047.943.073,1.413L159.4,871l-7.862-.113-3.991.145" transform="translate(-2288 2474.999)" fill="#fed2a4"/>
    <path id="Trazado_275230" data-name="Trazado 275230" d="M195.191,827.154c-.078,1.694-.174,3.388-.221,5.083a4.556,4.556,0,0,0,.238,1.09c-1.037,1.277-1.038,1.786,0,3.068a13.01,13.01,0,0,0-.233,1.912c.029,1.421.144,2.84.225,4.261-1.028,1.3-1.025,1.812.021,3.064a6.246,6.246,0,0,0-.251,1.216c-.022,3.391-.015,6.783-.016,10.175q-4.209,0-8.416,0c-1.646,0-1.775-.126-1.776-1.742q0-16.89-.005-33.782l5.683-.581,4.512-2.086c0,1.393-.013,2.787.019,4.18a5.2,5.2,0,0,0,.253,1.074c-1.047,1.247-1.052,1.757-.03,3.065" transform="translate(-2288 2474.999)" fill="#d8ecfe"/>
    <path id="Trazado_275231" data-name="Trazado 275231" d="M194.948,818.835l-4.511,2.086a7.014,7.014,0,0,0-.783-.456,14.359,14.359,0,0,1-9.15-11.834q1.732,1.691,3.464,3.382a2.157,2.157,0,0,0,3.11.135c2.4-2.343,4.756-4.729,7.118-7.11a1.959,1.959,0,0,0,.38-2.277,1.567,1.567,0,0,0-1.937-.722,2.542,2.542,0,0,0-1.151.715c-1.936,1.9-3.843,3.832-5.8,5.793l-4.96-4.684a14.3,14.3,0,0,1,5.726-8.6,42.991,42.991,0,0,1,3.987-2.2,15.306,15.306,0,0,1,6.252,3.669,15.026,15.026,0,0,1,3.726,6.315,6.263,6.263,0,0,0,.27.627c.065.926.126,1.852.2,2.778a15.358,15.358,0,0,1-1.964,8.135q-1.52,1.769-3.041,3.536Z" transform="translate(-2288 2474.999)" fill="#4fc124"/>
    <path id="Trazado_275232" data-name="Trazado 275232" d="M189.266,871.018q0,16.842-.005,33.684l-8.3,0q0-16.862,0-33.722l8.3.04" transform="translate(-2288 2474.999)" fill="#ffbd86"/>
    <path id="Trazado_275233" data-name="Trazado 275233" d="M134.24,870.88a14.182,14.182,0,0,0-.214,1.742q-.02,16.038-.01,32.075l-8.08-.022q.011-16,.022-32c0-1.778.073-1.856,1.886-1.849,2.132.009,4.264.035,6.4.053" transform="translate(-2288 2474.999)" fill="#ea9b58"/>
    <path id="Trazado_275234" data-name="Trazado 275234" d="M143.015,841.409a7.492,7.492,0,0,0-.215,1.27q-.008,14.156.013,28.311c-2.355.009-4.711.03-7.066.016a7.33,7.33,0,0,1-1.262-.225q0-13.844.008-27.687c0-1.6.1-1.708,1.66-1.706,2.287,0,4.575.013,6.862.021" transform="translate(-2288 2474.999)" fill="#ffbd86"/>
    <path id="Trazado_275235" data-name="Trazado 275235" d="M180.5,808.631a14.359,14.359,0,0,0,9.15,11.834,7.244,7.244,0,0,1,.783.456l-5.683.582a16.79,16.79,0,0,1-6.778-2.85,14.614,14.614,0,0,1-5.789-9.758,14.5,14.5,0,0,1,12.126-16.177,17.5,17.5,0,0,1,6.128.346,42.991,42.991,0,0,0-3.987,2.2,14.3,14.3,0,0,0-5.726,8.6,1.675,1.675,0,0,0-2.146.5,1.821,1.821,0,0,0,.245,2.488c.523.622,1.115,1.187,1.677,1.777" transform="translate(-2288 2474.999)" fill="#48a921"/>
    <path id="Trazado_275236" data-name="Trazado 275236" d="M158.848,841.468c.011,2.717.014,5.434.038,8.152.007.759-.223,1.431-1.037,1.443-1.838.027-3.679-.081-5.519-.134l-.066-9.486,6.584.025" transform="translate(-2288 2474.999)" fill="#fe646f"/>
    <path id="Trazado_275237" data-name="Trazado 275237" d="M205.207,870.991c-.009,2.724-.054,5.448-.008,8.172.018,1.035-.335,1.408-1.371,1.362-1.616-.072-3.236-.033-4.854-.041a7.465,7.465,0,0,1-.217-1.251c-.017-2.741-.006-5.482,0-8.224l6.453-.018" transform="translate(-2288 2474.999)" fill="#fe646f"/>
    <path id="Trazado_275238" data-name="Trazado 275238" d="M152.264,841.443q.033,4.743.066,9.486c-.9.053-1.808.077-2.707.164-1.117.109-1.594-.365-1.58-1.481.032-2.719.024-5.438.032-8.156l4.189-.013" transform="translate(-2288 2474.999)" fill="#fd4855"/>
    <path id="Trazado_275239" data-name="Trazado 275239" d="M198.753,871.009c0,2.741-.014,5.483,0,8.224a7.479,7.479,0,0,0,.216,1.251c-1.058.01-2.117-.009-3.173.041-.988.046-1.314-.428-1.305-1.351.028-2.705.019-5.41.024-8.115l4.234-.05" transform="translate(-2288 2474.999)" fill="#fd4855"/>
    <path id="Trazado_275240" data-name="Trazado 275240" d="M151.54,870.89,159.4,871c-.005,2.758-.035,5.517,0,8.274.012.919-.3,1.267-1.235,1.243-2.048-.053-4.1-.026-6.146-.032a6.058,6.058,0,0,1-.436-1.515c-.052-2.694-.038-5.389-.047-8.083" transform="translate(-2288 2474.999)" fill="#fe646f"/>
    <path id="Trazado_275241" data-name="Trazado 275241" d="M151.54,870.89c.009,2.694,0,5.389.047,8.083a6.058,6.058,0,0,0,.436,1.515c-1.1.007-2.2-.025-3.293.033-.941.05-1.227-.354-1.212-1.253.043-2.743.025-5.488.031-8.233l3.991-.145" transform="translate(-2288 2474.999)" fill="#fd4855"/>
    <path id="Trazado_275242" data-name="Trazado 275242" d="M195.205,836.4c-1.034-1.282-1.034-1.791,0-3.068a9.8,9.8,0,0,1,1.506-.233q9.127-.025,18.255-.009c1.477,0,2.019.457,2.04,1.664.026,1.422-.464,1.887-2.051,1.889q-9.187.009-18.374-.009a8.187,8.187,0,0,1-1.379-.234" transform="translate(-2288 2474.999)" fill="#8bc9fe"/>
    <path id="Trazado_275243" data-name="Trazado 275243" d="M195.191,827.154c-1.022-1.308-1.017-1.818.03-3.065a9.808,9.808,0,0,1,1.5-.234q9.118-.025,18.236-.009c1.4,0,2.006.517,2.047,1.7.044,1.251-.456,1.823-1.73,1.841-2.171.03-4.342.01-6.513.01-3.986,0-7.973.009-11.959-.011a11.348,11.348,0,0,1-1.615-.236" transform="translate(-2288 2474.999)" fill="#8ac9fe"/>
    <path id="Trazado_275244" data-name="Trazado 275244" d="M195.88,818.125l3.042-3.537c5.131.006,10.262.006,15.393.026a6.194,6.194,0,0,1,1.628.208c1.071.3,1.175,1.181,1.058,2.087a1.388,1.388,0,0,1-1.584,1.25l-19.537-.034" transform="translate(-2288 2474.999)" fill="#8ac9fe"/>
    <path id="Trazado_275245" data-name="Trazado 275245" d="M195.218,845.632c-1.046-1.252-1.049-1.767-.021-3.065a8.22,8.22,0,0,1,1.375-.235c3.979-.019,7.957-.015,11.936-.008,1.377,0,2.125.657,2.107,1.808-.016,1.076-.774,1.738-2.079,1.742q-5.967.02-11.936-.006a8.321,8.321,0,0,1-1.382-.236" transform="translate(-2288 2474.999)" fill="#8bcafe"/>
    <path id="Trazado_275246" data-name="Trazado 275246" d="M180.5,808.631c-.562-.59-1.154-1.155-1.677-1.777a1.821,1.821,0,0,1-.245-2.488,1.675,1.675,0,0,1,2.146-.5l4.961,4.684c1.956-1.96,3.863-3.891,5.8-5.793a2.549,2.549,0,0,1,1.152-.715,1.568,1.568,0,0,1,1.936.722,1.96,1.96,0,0,1-.38,2.278c-2.362,2.38-4.719,4.767-7.118,7.109a2.157,2.157,0,0,1-3.11-.135q-1.728-1.7-3.464-3.382" transform="translate(-2288 2474.999)" fill="#fefffe"/>
  </g>
</svg>
