<svg xmlns="http://www.w3.org/2000/svg" width="169.179" height="169.178" viewBox="0 0 169.179 169.178">
  <g id="Grupo_1069953" data-name="Grupo 1069953" transform="translate(1917.213 -6011.887)">
    <path id="Trazado_275306" data-name="Trazado 275306" d="M285.966,90.251A84.59,84.59,0,1,1,201.377,5.662a84.589,84.589,0,0,1,84.589,84.589" transform="translate(-2034 6006.225)" fill="#fffad0"/>
    <g id="Grupo_257439" data-name="Grupo 257439" transform="translate(-2215 -10894.085)">
      <path id="Trazado_275307" data-name="Trazado 275307" d="M251.256,140.82H228.537c-.513-.409-1.1-.771-1.024-1.565a1.552,1.552,0,0,1,1.772-1.568q7.536-.009,15.073,0c.227,0,.454-.031.819-.058-1.413-.865-2.682-1.63-3.938-2.415-5.437-3.4-10.859-6.812-16.306-10.19q-12.395-7.687-24.812-15.337-11.361-7.034-22.706-14.094-7.728-4.8-15.457-9.592c-2.141-1.325-4.3-2.619-6.452-3.927l-.152-.152c-.009.054-.019.108-.028.162-.011.227-.031.454-.031.681q0,27.025,0,54.051c0,.227.02.454.031.681l.158.158c.39.011.781.032,1.171.032q31.6,0,63.191-.009c1.208,0,2.106.325,2.456,1.581L221.1,140.82H152.156V78.357a5.485,5.485,0,0,1,.686-.767c1.462-1.127,2.9-2.3,4.431-3.321a3.126,3.126,0,0,0,1.612-3.049c-.133-3.421,0-6.851-.064-10.276a1.777,1.777,0,0,1,2.043-1.981c5.287.037,10.574.02,15.862,0a1.877,1.877,0,0,0,1.066-.284c2.568-1.938,5.1-3.928,7.66-5.874,4.536-3.445,9.1-6.852,13.627-10.313a5.44,5.44,0,0,1,6.223.007c1.739,1.349,3.469,2.709,5.223,4.037,4.8,3.634,9.625,7.222,14.388,10.9a6.671,6.671,0,0,0,4.548,1.588c4.6-.139,9.2-.059,13.8-.04,2.113.008,2.489.692,2.483,2.431-.01,3.655-.016,7.31.017,10.964a1.683,1.683,0,0,0,.441,1.174c1.609,1.3,3.235,2.6,4.946,3.757a2.691,2.691,0,0,1,1.287,2.474q-.017,29.319.006,58.639a2.549,2.549,0,0,1-1.189,2.4m-57.582-38.974.492.335c2.506,1.588,5,3.2,7.535,4.734a1.484,1.484,0,0,0,1.2-.112c.931-.487,1.81-1.076,2.705-1.631q2.55-1.579,5.1-3.167a.746.746,0,0,0-.592-.037c-1.715.583-3.4,1.259-5.146,1.738a11.38,11.38,0,0,1-6.107-.083c-1.557-.432-3.062-1.048-4.59-1.582l-.4-.238-.123-.21-.075.253m-.782-.385.352,0-.375-.383c-.054-.008-.108-.014-.162-.019-1.083-1.046-2.24-2.028-3.235-3.153a15.341,15.341,0,0,1-3.792-8.957,15.825,15.825,0,0,1,1.138-7.763,16.435,16.435,0,0,1,9.417-9.313,16.693,16.693,0,0,1,9.363-.76,16.376,16.376,0,0,1,13.181,17.274,16.713,16.713,0,0,1-1.877,6.8,17.836,17.836,0,0,1-4.726,5.555l-.679.527.076.256.121-.216.6-.424c.592-.311,1.206-.587,1.772-.939,4.214-2.615,8.414-5.253,12.626-7.869,2.827-1.756,5.674-3.481,8.5-5.246.291-.182.666-.541.67-.823.049-2.96.03-5.922.03-8.817-.151-.1-.2-.159-.258-.171a9.667,9.667,0,0,1-7.726-7.1c-.3-.984-.642-1.14-1.539-1.138q-23.637.039-47.274.021a4.415,4.415,0,0,0-2,.133c-.4.225-.422,1.075-.641,1.637a9.736,9.736,0,0,1-6.921,6.251c-.39.1-.85.167-.839.85.044,2.707,0,5.414.024,8.121a1.267,1.267,0,0,0,.392.926c1.114.75,2.287,1.413,3.431,2.121q6.45,3.99,12.9,7.987c2.372,1.464,4.76,2.9,7.141,4.349l.325.28M217.009,55.44c-1.541-1.223-3.064-2.47-4.628-3.663-2.828-2.157-5.706-4.249-8.511-6.436a2.467,2.467,0,0,0-3.346,0c-2.6,2.044-5.266,3.995-7.89,6-1.763,1.351-3.5,2.738-5.245,4.108l-4.85,3.528c3.724,0,7.165,0,10.606,0,1.467,0,1.8.223,2.348,1.561-.365,1.291-.723,1.574-2.034,1.574q-15.124,0-30.249,0h-1.229v1.163c0,5.774.038,11.549-.03,17.323-.015,1.234.207,2.1,1.414,2.6a21.645,21.645,0,0,1,2.172,1.222v-4.3c0-1.371-.017-2.741.006-4.111.024-1.454.529-1.925,1.9-1.977a6.8,6.8,0,0,0,6.286-5.8c.187-1.867.125-2.582,2.782-2.579q25.843.024,51.688.009c1.851,0,2.391.492,2.494,2.269a6.936,6.936,0,0,0,6.232,6.134c1.472.081,2.084.3,2.113,2.205.035,2.316,0,4.632,0,6.949v1.2c1.076-.662,2-1.233,2.922-1.8a1.278,1.278,0,0,0,.661-1.248c-.031-6.1-.019-12.2-.019-18.3v-.957h-1.238q-19.335,0-38.668,0c-1.348,0-1.777-.345-2-1.572.224-1.221.639-1.561,1.985-1.562q8.989-.008,17.98,0h1.185c-.49-.362-.744-.552-1-.739l-3.841-2.8m-7.28,50.9-4.56,2.761,44.094,27.359v-5.83c.01-.195.03-.389.03-.584q0-23.694,0-47.389c0-.2-.021-.389-.032-.584l-.158-.166q-3.576,2.215-7.152,4.431-10.391,6.411-20.782,12.82c-3.827,2.372-7.628,4.787-11.44,7.182m5.882-18.979a13.152,13.152,0,0,0-13.422-13.478,13.306,13.306,0,0,0-13.4,12.644,13.581,13.581,0,0,0,12.831,14.353c7.563.326,14.456-6.246,13.99-13.519m32.435-8.514-2.42-1.793v3.208l2.42-1.415m-89.3,1.4V77.075L156.4,78.869l2.346,1.377" transform="translate(181 16900.311)"/>
      <path id="Trazado_275308" data-name="Trazado 275308" d="M221.1,140.82l1.207-1.565h5.211c-.075.794.511,1.156,1.024,1.565Z" transform="translate(181 16900.311)" fill="#fefefe"/>
      <path id="Trazado_275309" data-name="Trazado 275309" d="M227.513,139.255H222.3c-.35-1.256-1.248-1.582-2.456-1.581q-31.6.022-63.191.009c-.391,0-.781-.021-1.171-.032l-.158-.158c-.011-.227-.031-.454-.031-.682q0-27.024,0-54.05c0-.227.02-.454.031-.681.06,0,.12,0,.18-.01,2.151,1.308,4.31,2.6,6.451,3.927q7.737,4.785,15.458,9.592,11.352,7.047,22.705,14.094,12.4,7.679,24.813,15.337c5.447,3.378,10.869,6.795,16.306,10.19,1.256.785,2.525,1.549,3.937,2.415-.364.026-.591.057-.818.057q-7.536,0-15.073.005a1.553,1.553,0,0,0-1.772,1.569" transform="translate(181 16900.311)" fill="#f6f6f7"/>
      <path id="Trazado_275310" data-name="Trazado 275310" d="M249.261,82.076c.011.2.031.389.031.584q0,23.694,0,47.389c0,.2-.019.389-.029.584-.955-.546-1.925-1.068-2.864-1.642q-8.2-5.013-16.389-10.045-7.821-4.8-15.637-9.594c-1.569-.969-3.1-2-4.645-3.009,3.813-2.4,7.614-4.811,11.441-7.182q10.378-6.431,20.782-12.82,3.58-2.208,7.152-4.432l.158.167" transform="translate(181 16900.311)" fill="#f6f6f7"/>
      <path id="Trazado_275311" data-name="Trazado 275311" d="M192.566,101.182c-2.381-1.448-4.768-2.886-7.14-4.349q-6.456-3.982-12.9-7.988c-1.144-.708-2.317-1.371-3.431-2.121a1.264,1.264,0,0,1-.392-.925c-.026-2.707.02-5.415-.024-8.121-.011-.683.449-.749.839-.851a9.731,9.731,0,0,0,6.92-6.251c.22-.561.246-1.412.642-1.637a4.412,4.412,0,0,1,2-.132q23.639-.006,47.275-.022c.9,0,1.239.154,1.539,1.139a9.667,9.667,0,0,0,7.726,7.1c.058.012.107.068.258.17,0,2.895.019,5.857-.03,8.818-.005.282-.379.64-.67.822-2.821,1.764-5.668,3.49-8.5,5.246-4.212,2.617-8.412,5.254-12.626,7.87-.566.351-1.18.627-1.772.937a1.714,1.714,0,0,0-.115-.143,17.828,17.828,0,0,0,4.726-5.553,16.721,16.721,0,0,0,1.877-6.8A16.378,16.378,0,0,0,205.6,71.115a16.693,16.693,0,0,0-9.363.76,16.432,16.432,0,0,0-9.417,9.313,15.825,15.825,0,0,0-1.138,7.763,15.343,15.343,0,0,0,3.792,8.958c.995,1.124,2.151,2.106,3.235,3.153a.9.9,0,0,0-.141.12" transform="translate(181 16900.311)" fill="#a6c451"/>
      <path id="Trazado_275312" data-name="Trazado 275312" d="M200.7,60.542c.223,1.227.651,1.571,2,1.572q19.335,0,38.668,0h1.239v.957c0,6.1-.012,12.2.019,18.3a1.28,1.28,0,0,1-.661,1.248c-.925.565-1.847,1.136-2.922,1.8v-1.2c0-2.317.034-4.633,0-6.949-.029-1.9-.641-2.124-2.114-2.205a6.937,6.937,0,0,1-6.232-6.135c-.1-1.776-.642-2.268-2.494-2.268q-25.843,0-51.688-.009c-2.656,0-2.594.712-2.781,2.579a6.8,6.8,0,0,1-6.287,5.8c-1.373.052-1.879.523-1.9,1.977-.022,1.37-.005,2.74-.005,4.111v4.3a21.644,21.644,0,0,0-2.172-1.222c-1.207-.509-1.429-1.37-1.415-2.6.069-5.774.031-11.549.031-17.323V62.115h1.228q15.124,0,30.249,0c1.311,0,1.669-.283,2.034-1.574l5.208,0" transform="translate(181 16900.311)" fill="#c4df64"/>
      <path id="Trazado_275313" data-name="Trazado 275313" d="M215.612,87.363c.466,7.273-6.428,13.845-13.991,13.52A13.583,13.583,0,0,1,188.79,86.529a13.308,13.308,0,0,1,13.4-12.644,13.154,13.154,0,0,1,13.422,13.478m-11.655,7.919a1.5,1.5,0,0,1,.137-.07,4.577,4.577,0,0,0,3.052-4.653c-.159-2.765-1.814-4.431-4.788-4.763a1.773,1.773,0,0,1-1.821-1.918c.032-.989.772-1.6,1.964-1.6.979-.006,1.958.014,2.936-.006a1.808,1.808,0,0,0,1.75-1.694c-.044-.878-.694-1.42-1.729-1.433-.511-.007-1.022,0-1.466,0a23.477,23.477,0,0,0-.389-2.465,1.218,1.218,0,0,0-1.7-.814,2.68,2.68,0,0,0-1.144,1.308,2.231,2.231,0,0,0-.023,1.254c.1.66-.244.888-.76,1.21-2.156,1.345-3.13,3.321-2.362,5.818a4.675,4.675,0,0,0,4.435,3.481c1.216.1,2.024.833,1.991,1.782a1.991,1.991,0,0,1-2.116,1.747c-1.092.029-2.183.126-3.275.167-.976.036-1.249.637-1.255,1.478a1.373,1.373,0,0,0,1.315,1.484c.653.107,1.308.2,2.018.306,0,.487-.013.972,0,1.456a1.439,1.439,0,0,0,1.159,1.55,1.41,1.41,0,0,0,1.781-1.15,24.33,24.33,0,0,0,.286-2.47" transform="translate(181 16900.311)" fill="#fec44f"/>
      <path id="Trazado_275314" data-name="Trazado 275314" d="M209.729,106.343c1.547,1,3.075,2.04,4.645,3.009q7.806,4.817,15.636,9.594,8.195,5.023,16.39,10.045c.938.574,1.908,1.1,2.864,1.642v5.83l-44.1-27.359,4.56-2.761" transform="translate(181 16900.311)" fill="#d9dcdf"/>
      <path id="Trazado_275315" data-name="Trazado 275315" d="M187.389,55.45c1.747-1.371,3.482-2.757,5.245-4.108,2.624-2.01,5.294-3.96,7.89-6a2.467,2.467,0,0,1,3.346,0c2.805,2.186,5.683,4.279,8.511,6.436,1.564,1.193,3.087,2.44,4.628,3.663l-29.62.01" transform="translate(181 16900.311)" fill="#f6f6f7"/>
      <path id="Trazado_275316" data-name="Trazado 275316" d="M187.389,55.45l29.62-.01,3.841,2.8c.256.187.51.377,1,.739h-1.185q-8.989,0-17.98,0c-1.346,0-1.761.34-1.985,1.562l-5.207,0c-.551-1.338-.881-1.561-2.348-1.562-3.441,0-6.882,0-10.606,0l4.85-3.528" transform="translate(181 16900.311)" fill="#d9dcdf"/>
      <path id="Trazado_275317" data-name="Trazado 275317" d="M194.271,102.041c1.528.534,3.034,1.15,4.59,1.582a11.384,11.384,0,0,0,6.108.083c1.742-.479,3.43-1.155,5.145-1.738a.742.742,0,0,1,.592.037q-2.547,1.584-5.1,3.167c-.9.555-1.774,1.144-2.706,1.631a1.488,1.488,0,0,1-1.2.112c-2.535-1.538-5.029-3.146-7.535-4.734.037-.045.072-.092.1-.14" transform="translate(181 16900.311)" fill="#a4c150"/>
      <path id="Trazado_275318" data-name="Trazado 275318" d="M248.046,78.85l-2.42,1.415V77.057l2.42,1.793" transform="translate(181 16900.311)" fill="#d7dadd"/>
      <path id="Trazado_275319" data-name="Trazado 275319" d="M158.748,80.246,156.4,78.869l2.346-1.794Z" transform="translate(181 16900.311)" fill="#d7dadd"/>
      <path id="Trazado_275320" data-name="Trazado 275320" d="M212.292,100.886l-.6.424-.2-.04.679-.527a1.6,1.6,0,0,1,.115.143" transform="translate(181 16900.311)" fill="#a6c451"/>
      <path id="Trazado_275321" data-name="Trazado 275321" d="M192.869,101.08l.375.384-.351,0-.024-.381" transform="translate(181 16900.311)" fill="#010100"/>
      <path id="Trazado_275322" data-name="Trazado 275322" d="M194.166,102.181l-.492-.335.2-.044.4.239c-.033.048-.068.1-.1.14" transform="translate(181 16900.311)" fill="#a4c150"/>
      <path id="Trazado_275323" data-name="Trazado 275323" d="M192.869,101.08l.024.381-.327-.279a.952.952,0,0,1,.141-.12c.054,0,.108.011.162.018" transform="translate(181 16900.311)" fill="#a6c451"/>
      <path id="Trazado_275324" data-name="Trazado 275324" d="M211.5,101.27l.2.04-.122.216-.075-.256" transform="translate(181 16900.311)" fill="#010100"/>
      <path id="Trazado_275325" data-name="Trazado 275325" d="M193.873,101.8l-.2.044.075-.253.124.209" transform="translate(181 16900.311)" fill="#010100"/>
      <path id="Trazado_275326" data-name="Trazado 275326" d="M249.261,82.076l-.158-.167.158.167" transform="translate(181 16900.311)" fill="#eeeeef"/>
      <path id="Trazado_275327" data-name="Trazado 275327" d="M155.327,137.492l.157.158-.157-.158" transform="translate(181 16900.311)" fill="#eeeeef"/>
      <path id="Trazado_275328" data-name="Trazado 275328" d="M155.506,82.069a1.551,1.551,0,0,1-.18.009c.009-.053.019-.107.028-.161l.152.152" transform="translate(181 16900.311)" fill="#eeeeef"/>
      <path id="Trazado_275329" data-name="Trazado 275329" d="M183.689,44.09c.719,0,1.3-.008,1.889,0,.943.016,1.4.43,1.44,1.286a1.516,1.516,0,0,1-1.291,1.637c-.631.083-1.505-.111-1.839.235s-.076,1.23-.209,1.849a1.58,1.58,0,0,1-3.117-.127c-.038-.546-.007-1.1-.007-1.431a29,29,0,0,1-2.96-1.1c-.246-.12-.357-.735-.349-1.119.021-1.059.787-1.388,3.309-1.453,0-.5-.009-1.005,0-1.512a1.738,1.738,0,0,1,1.482-1.795,1.6,1.6,0,0,1,1.65,1.794V44.09" transform="translate(181 16900.311)" fill="#010101"/>
      <path id="Trazado_275330" data-name="Trazado 275330" d="M234.22,52.118c-.7,0-1.281.022-1.863-.005a1.5,1.5,0,0,1-1.472-1.655,1.457,1.457,0,0,1,1.434-1.472c1.845-.149,1.861-.148,1.894-1.929a1.359,1.359,0,0,1,1.1-1.375,1.474,1.474,0,0,1,1.822.955c.173.736.213,1.5.323,2.348.408,0,.856,0,1.3,0a1.8,1.8,0,0,1,1.922,1.445,1.845,1.845,0,0,1-1.851,1.683c-.452.026-.907,0-1.372,0-.1.719-.159,1.412-.294,2.089a1.491,1.491,0,0,1-2.949-.425c.014-.518,0-1.036,0-1.664" transform="translate(181 16900.311)"/>
      <path id="Trazado_275331" data-name="Trazado 275331" d="M220.58,47.271c-2.4-.172-3.235-.645-3.206-1.833.027-1.092.87-1.5,3.218-1.56a7.952,7.952,0,0,1,.363-2.212,1.973,1.973,0,0,1,1.383-1.03c1.046-.022,1.486.583,1.5,1.563,0,.033,0,.065,0,.1.022,2.069-.266,1.772,1.828,1.792,1.04.01,1.455.364,1.5,1.3a1.478,1.478,0,0,1-1.467,1.639c-1.777.128-1.8.127-1.853,1.957a1.394,1.394,0,0,1-1.263,1.352,1.226,1.226,0,0,1-1.61-.826,20.046,20.046,0,0,1-.393-2.238" transform="translate(181 16900.311)" fill="#010101"/>
      <path id="Trazado_275332" data-name="Trazado 275332" d="M170.37,48.949c2.522.113,3.387.559,3.318,1.653-.065,1.025-.993,1.473-3.219,1.536-.091.678-.155,1.368-.282,2.046a1.489,1.489,0,0,1-2.952-.38c.011-.519,0-1.039,0-1.686-.6,0-1.172.011-1.744,0a1.508,1.508,0,0,1-1.593-1.638,1.47,1.47,0,0,1,1.613-1.493c1.693-.051,1.693-.051,1.723-1.81a1.5,1.5,0,0,1,2.124-1.426,1.95,1.95,0,0,1,1.006,1.786c.023.449,0,.9,0,1.414" transform="translate(181 16900.311)"/>
      <path id="Trazado_275333" data-name="Trazado 275333" d="M203.957,95.282a24.33,24.33,0,0,1-.286,2.47,1.41,1.41,0,0,1-1.781,1.15,1.439,1.439,0,0,1-1.159-1.55c-.016-.484,0-.969,0-1.456-.71-.107-1.365-.2-2.018-.306a1.373,1.373,0,0,1-1.315-1.484c.006-.841.279-1.442,1.255-1.478,1.092-.041,2.183-.138,3.275-.167a1.991,1.991,0,0,0,2.116-1.747c.033-.949-.775-1.678-1.991-1.782a4.675,4.675,0,0,1-4.435-3.481c-.768-2.5.206-4.473,2.362-5.818.516-.322.862-.55.76-1.21a2.231,2.231,0,0,1,.023-1.254,2.68,2.68,0,0,1,1.144-1.308,1.218,1.218,0,0,1,1.7.814,23.477,23.477,0,0,1,.389,2.465c.444,0,.955-.006,1.466,0,1.035.013,1.685.555,1.729,1.433a1.808,1.808,0,0,1-1.75,1.694c-.978.02-1.957,0-2.936.006-1.192.007-1.932.615-1.964,1.6a1.773,1.773,0,0,0,1.821,1.918c2.974.332,4.629,2,4.788,4.763a4.577,4.577,0,0,1-3.052,4.653,1.5,1.5,0,0,0-.137.07" transform="translate(181 16900.311)" fill="#010100"/>
    </g>
  </g>
</svg>
