<svg xmlns="http://www.w3.org/2000/svg" width="169.179" height="169.178" viewBox="0 0 169.179 169.178">
  <g id="Grupo_1069954" data-name="Grupo 1069954" transform="translate(1502.094 -6011.887)">
    <path id="Trazado_275335" data-name="Trazado 275335" d="M701.085,90.251A84.59,84.59,0,1,1,616.5,5.662a84.589,84.589,0,0,1,84.589,84.589" transform="translate(-2034 6006.225)" fill="#fffad0"/>
    <g id="Grupo_257440" data-name="Grupo 257440" transform="translate(-2215 -10894.085)">
      <path id="Trazado_275336" data-name="Trazado 275336" d="M574.28,122.1c-1.54.524-1.9.419-2.783-.942a54.6,54.6,0,0,1-8.019-19.6c-.4-2.118-.606-4.274-.913-6.411-.017-.117-.139-.218-.213-.327V85.5a2.288,2.288,0,0,0,.22-.553c.236-1.9.3-3.841.71-5.705A63.407,63.407,0,0,1,566.9,67.7a55.9,55.9,0,0,1,10.58-16.242,69.37,69.37,0,0,1,6.737-6.111,50.849,50.849,0,0,1,15.492-8.605A48.457,48.457,0,0,1,611.058,34c1.227-.12,2.435-.426,3.651-.647h8.652c1.219.221,2.429.506,3.657.652a52.5,52.5,0,0,1,10.725,2.534,55.037,55.037,0,0,1,15.532,8.26,57.045,57.045,0,0,1,10.634,10.538A55.545,55.545,0,0,1,674.4,77.4a46.063,46.063,0,0,1,1.327,10.539c-.015,2.331.182,4.68-.034,6.992a58.254,58.254,0,0,1-3.18,14.529,56.323,56.323,0,0,1-9.091,16.179,56.9,56.9,0,0,1-21.288,16.434,55.419,55.419,0,0,1-13.277,4.037,53.635,53.635,0,0,1-12.641.795,71.159,71.159,0,0,1-9.849-1.37,51.119,51.119,0,0,1-13.75-5.081,50,50,0,0,1-9.631-6.486c-1.785-1.574-3.558-3.168-5.245-4.846a6.739,6.739,0,0,1-1.357-2.245c-.127-.312.249-.828.4-1.25,1.116-.7,1.813-.584,2.853.546a53.836,53.836,0,0,0,21.386,14.3,52.37,52.37,0,0,0,14.494,3.1,50.782,50.782,0,0,0,15.735-1.315A53.677,53.677,0,0,0,659.171,125.5a52.733,52.733,0,0,0,10.1-16.889,51.829,51.829,0,0,0,2.95-12.957,48.391,48.391,0,0,0,.113-10.311,79.419,79.419,0,0,0-1.955-10.15A46.243,46.243,0,0,0,664,61.026a54.374,54.374,0,0,0-9.937-11.316,52.75,52.75,0,0,0-30.323-12.783c-2.364-.184-4.754-.011-7.132-.029a44.735,44.735,0,0,0-14.088,2.436,52.229,52.229,0,0,0-18.15,10.242,53.867,53.867,0,0,0-12.4,15.352,52.448,52.448,0,0,0-6.248,21.277,51.588,51.588,0,0,0,.674,13.3,53.23,53.23,0,0,0,7.9,19.743,2.265,2.265,0,0,1-.02,2.848" transform="translate(181 16900.311)" fill="#010101"/>
      <path id="Trazado_275337" data-name="Trazado 275337" d="M574.279,122.1a2.265,2.265,0,0,0,.02-2.848,53.246,53.246,0,0,1-7.9-19.743,51.585,51.585,0,0,1-.674-13.3,52.41,52.41,0,0,1,6.25-21.276,53.868,53.868,0,0,1,12.4-15.353,52.229,52.229,0,0,1,18.15-10.242A44.729,44.729,0,0,1,616.61,36.9c2.38.018,4.769-.154,7.133.03a52.751,52.751,0,0,1,30.322,12.782A54.4,54.4,0,0,1,664,61.025a46.218,46.218,0,0,1,6.376,14.168,79.594,79.594,0,0,1,1.957,10.15,48.587,48.587,0,0,1-.114,10.311,51.778,51.778,0,0,1-2.951,12.957,52.7,52.7,0,0,1-10.1,16.889,53.669,53.669,0,0,1-27.927,16.764,50.783,50.783,0,0,1-15.735,1.316,52.435,52.435,0,0,1-14.494-3.1,53.835,53.835,0,0,1-21.386-14.3c-1.041-1.13-1.737-1.247-2.854-.546q-1.246-1.766-2.495-3.531M642.25,50.644l-3.81-2.033c.026-1.681-.181-2-1.772-2.577-.819-.3-1.654-.563-2.482-.843a41.618,41.618,0,0,0-11.742-2.284c-2.225-.087-4.457-.043-6.686-.005a26.457,26.457,0,0,0-3.4.256,47.49,47.49,0,0,0-13.293,3.974A46.878,46.878,0,0,0,587.3,54.95a47.958,47.958,0,0,0-12.293,17.689,46.245,46.245,0,0,0-3.133,22.025,45.628,45.628,0,0,0,2.922,12.5,47.792,47.792,0,0,0,9.127,14.815,48.561,48.561,0,0,0,18.065,12.468,45.311,45.311,0,0,0,13.779,3.132,46.385,46.385,0,0,0,12.06-.763,47.142,47.142,0,0,0,24.5-12.769A46.351,46.351,0,0,0,664.2,104.956a50.572,50.572,0,0,0,2.377-15.62,47.875,47.875,0,0,0-.627-6.434,43.651,43.651,0,0,0-4-13.229A46.671,46.671,0,0,0,645.1,50.451a2,2,0,0,0-2.854.193" transform="translate(181 16900.311)" fill="#c92c2c"/>
      <path id="Trazado_275338" data-name="Trazado 275338" d="M638.44,48.611l3.81,2.034c-.423,1.25-.16,1.779,1.091,2.686,1.967,1.426,3.89,2.912,5.892,4.419-1.476,1.465-2.753,2.7-3.988,3.971a1.37,1.37,0,0,0-.016,2.255,1.793,1.793,0,0,0,2.606-.177c.985-.948,1.972-1.9,2.9-2.9.537-.582.952-.607,1.409.023,1.782,2.46,3.741,4.815,5.3,7.409a38.725,38.725,0,0,1,4.71,12.071c.55,2.634.772,5.336,1.155,8.107h-1.98c-1.22,0-2.44.009-3.66.01a1.544,1.544,0,0,0-1.61,1.356,1.889,1.889,0,0,0,2.24,1.947c1.583.036,3.168.013,4.75.013.139,10.513-5.5,22.369-11.715,28.211-1.192-1.208-2.364-2.44-3.585-3.621a1.777,1.777,0,0,0-2.528-.08c-.8.851-.772,1.456.183,2.419,1.216,1.227,2.456,2.431,3.74,3.7a44.956,44.956,0,0,1-28.335,11.879c0-1.884.028-3.618-.009-5.351-.026-1.27-.614-1.8-1.836-1.778-.987.017-1.443.526-1.471,1.761-.033,1.441-.045,2.885.005,4.325.027.777-.245,1.1-1.015,1.015-1.3-.15-2.613-.2-3.885-.466-2.445-.511-4.9-1.023-7.285-1.753a41.67,41.67,0,0,1-12.806-6.672c-1.174-.881-2.256-1.883-3.441-2.881,1.336-1.317,2.563-2.494,3.752-3.709a1.676,1.676,0,1,0-2.345-2.336c-1.209,1.236-2.4,2.492-3.663,3.808a44.779,44.779,0,0,1-11.861-28.47c1.894,0,3.594.024,5.292-.008,1.213-.023,1.809-.557,1.859-1.547.057-1.149-.543-1.749-1.84-1.765-1.729-.021-3.459-.005-5.337-.005a44.8,44.8,0,0,1,11.831-28.424c1.309,1.318,2.522,2.557,3.76,3.77.245.24.626.576.879.528a3.238,3.238,0,0,0,1.763-.711,1.524,1.524,0,0,0-.3-2.152c-1.221-1.229-2.475-2.424-3.821-3.737,8.184-7.3,17.505-11.319,28.461-11.657,0,1.949-.04,3.687.013,5.423.036,1.167.64,1.64,1.773,1.553,1.007-.076,1.5-.654,1.522-1.875.026-1.646.007-3.292.007-5.106,1.267.117,2.387.223,3.507.324a35.5,35.5,0,0,1,10.623,2.6c1.3.545,2.473.859,3.5-.433m-14.3,36.566V83.826q0-8.985,0-17.97c0-3.3-2.12-5.636-5.6-5.457a4.787,4.787,0,0,0-4.334,4.447c.018,6.654-.03,13.307-.073,19.96a2.3,2.3,0,0,1-.293,1.217,6.68,6.68,0,0,0-.45,7.54l-10.851,10.845q-3.1,3.1-6.2,6.194c-.616.613-1,1.259-.443,2.107.694,1.064,1.977,1.061,3.073-.032q6.319-6.308,12.628-12.626c1.382-1.383,2.76-2.769,4.157-4.171a5.485,5.485,0,0,0,5.71.381,9.5,9.5,0,0,1,5.1-1.119c2.882.078,5.767.031,8.65.015a17.46,17.46,0,0,0,2.978-.142,4.916,4.916,0,0,0,1.918-8.906,5.932,5.932,0,0,0-3.392-.927c-4.136-.013-8.272,0-12.583,0" transform="translate(181 16900.311)" fill="#d3e1f5"/>
      <path id="Trazado_275339" data-name="Trazado 275339" d="M638.44,48.611c-1.027,1.292-2.2.977-3.5.432a35.5,35.5,0,0,0-10.623-2.6c-1.12-.1-2.241-.207-3.508-.325,0,1.814.019,3.461-.006,5.106-.019,1.222-.515,1.8-1.522,1.876-1.133.086-1.737-.386-1.773-1.554-.053-1.735-.014-3.473-.014-5.422-10.955.337-20.276,4.359-28.46,11.657,1.346,1.312,2.6,2.508,3.821,3.737a1.522,1.522,0,0,1,.3,2.151,3.22,3.22,0,0,1-1.762.711c-.253.049-.634-.287-.879-.528-1.239-1.212-2.451-2.451-3.76-3.769A44.8,44.8,0,0,0,574.922,88.5c1.878,0,3.608-.016,5.337.006,1.3.016,1.9.615,1.839,1.764-.049.991-.645,1.524-1.858,1.547-1.7.033-3.4.009-5.293.009a44.774,44.774,0,0,0,11.862,28.47c1.264-1.317,2.453-2.573,3.662-3.809a1.677,1.677,0,1,1,2.345,2.337c-1.189,1.214-2.415,2.392-3.751,3.709,1.185,1,2.267,2,3.44,2.88a41.625,41.625,0,0,0,12.806,6.672c2.385.731,4.841,1.242,7.285,1.754,1.272.266,2.589.315,3.886.466.77.089,1.042-.239,1.015-1.015-.05-1.44-.038-2.884-.005-4.325.027-1.235.484-1.744,1.471-1.761,1.222-.021,1.809.508,1.836,1.778.037,1.733.009,3.467.009,5.351a44.947,44.947,0,0,0,28.334-11.88c-1.284-1.267-2.523-2.471-3.739-3.7-.956-.963-.987-1.568-.183-2.419a1.774,1.774,0,0,1,2.527.08c1.222,1.181,2.394,2.412,3.586,3.621,6.215-5.843,11.853-17.7,11.715-28.211-1.582,0-3.167.023-4.75-.013a1.889,1.889,0,0,1-2.24-1.947,1.544,1.544,0,0,1,1.61-1.356q1.83,0,3.659-.01h1.98c-.383-2.772-.6-5.474-1.154-8.107a38.725,38.725,0,0,0-4.71-12.071c-1.56-2.594-3.519-4.949-5.3-7.409-.457-.631-.873-.606-1.409-.023-.926,1.005-1.913,1.955-2.9,2.9a1.792,1.792,0,0,1-2.606.178,1.372,1.372,0,0,1,.016-2.256c1.236-1.273,2.512-2.506,3.988-3.971-2-1.506-3.924-2.992-5.891-4.418-1.252-.907-1.515-1.437-1.092-2.686a2,2,0,0,1,2.856-.193A46.668,46.668,0,0,1,661.95,69.673a43.649,43.649,0,0,1,4,13.229,48.037,48.037,0,0,1,.628,6.434,50.573,50.573,0,0,1-2.378,15.62,46.342,46.342,0,0,1-11.872,19.089,47.134,47.134,0,0,1-24.5,12.769,46.378,46.378,0,0,1-12.06.764,45.33,45.33,0,0,1-13.778-3.133,48.532,48.532,0,0,1-18.064-12.467,47.782,47.782,0,0,1-9.128-14.816,45.546,45.546,0,0,1-2.921-12.5,46.241,46.241,0,0,1,3.132-22.025A47.931,47.931,0,0,1,587.3,54.951a46.886,46.886,0,0,1,11.765-7.818,47.545,47.545,0,0,1,13.293-3.975,26.289,26.289,0,0,1,3.4-.255c2.229-.039,4.461-.083,6.687,0a41.632,41.632,0,0,1,11.743,2.284c.827.28,1.661.543,2.482.843,1.591.582,1.8.9,1.771,2.577" transform="translate(181 16900.311)" fill="#010101"/>
      <path id="Trazado_275340" data-name="Trazado 275340" d="M624.141,85.177c4.311,0,8.447-.008,12.583,0a5.932,5.932,0,0,1,3.392.927,4.917,4.917,0,0,1-1.918,8.906,17.465,17.465,0,0,1-2.978.142c-2.883.016-5.769.063-8.65-.015a9.51,9.51,0,0,0-5.1,1.119,5.483,5.483,0,0,1-5.709-.381c-1.4,1.4-2.776,2.788-4.157,4.171q-6.312,6.315-12.629,12.626c-1.095,1.093-2.378,1.1-3.072.032-.553-.848-.173-1.494.443-2.107q3.105-3.09,6.2-6.194L613.4,93.563a6.677,6.677,0,0,1,.45-7.54,2.294,2.294,0,0,0,.292-1.217c.043-6.653.092-13.306.074-19.959a4.785,4.785,0,0,1,4.334-4.448c3.476-.179,5.6,2.162,5.6,5.457q-.009,8.985,0,17.97ZM620.77,83.6a1.813,1.813,0,0,0,.075-.355q-.037-7.636-.082-15.274c-.005-.923.026-1.847-.022-2.767a1.375,1.375,0,0,0-1.568-1.456c-1.16.016-1.636.5-1.638,1.842q-.016,8.026-.006,16.054V83.6Zm4.918,8.248c1.273,0,2.519,0,3.765,0,2.543-.009,5.086.007,7.627-.043,1.264-.025,1.835-.622,1.811-1.7-.024-1.054-.632-1.563-1.917-1.582-.81-.013-1.621,0-2.432,0h-8.854ZM619.2,86.827a3.327,3.327,0,1,0,3.277,3.41,3.5,3.5,0,0,0-3.277-3.41" transform="translate(181 16900.311)" fill="#010101"/>
      <path id="Trazado_275341" data-name="Trazado 275341" d="M620.77,83.6h-3.24V81.639q0-8.026,0-16.054c0-1.34.479-1.826,1.638-1.841a1.374,1.374,0,0,1,1.568,1.455c.048.92.017,1.845.022,2.767q.042,7.638.082,15.275a1.791,1.791,0,0,1-.075.354" transform="translate(181 16900.311)" fill="#0055a3"/>
      <path id="Trazado_275342" data-name="Trazado 275342" d="M625.688,91.844V88.516h8.854c.811,0,1.622-.009,2.432,0,1.285.02,1.893.529,1.917,1.582.025,1.078-.547,1.675-1.811,1.7-2.541.05-5.084.034-7.626.042-1.246,0-2.492,0-3.766,0" transform="translate(181 16900.311)" fill="#528fd8"/>
      <path id="Trazado_275343" data-name="Trazado 275343" d="M619.2,86.827a3.327,3.327,0,1,1-3.376,3.3,3.521,3.521,0,0,1,3.376-3.3" transform="translate(181 16900.311)" fill="#373737"/>
    </g>
  </g>
</svg>
