<svg xmlns="http://www.w3.org/2000/svg" width="169.179" height="169.178" viewBox="0 0 169.179 169.178">
  <g id="Grupo_1069955" data-name="Grupo 1069955" transform="translate(1078.105 -6011.887)">
    <path id="Trazado_275345" data-name="Trazado 275345" d="M1125.074,90.251a84.589,84.589,0,1,1-84.589-84.589,84.589,84.589,0,0,1,84.589,84.589" transform="translate(-2034 6006.225)" fill="#fffad0"/>
    <g id="Grupo_257441" data-name="Grupo 257441" transform="translate(-2215 -10894.085)">
      <path id="Trazado_275346" data-name="Trazado 275346" d="M1004.75,47.963c-.017-1.76-.252-3.569,1.272-4.914a4.037,4.037,0,0,1,2.679-1.094c2.909-.025,4.178,1.683,4.51,6.055h58.837c0-.686.018-1.377,0-2.066a3.951,3.951,0,0,1,3.676-3.959,4.094,4.094,0,0,1,4.527,3.181,24.678,24.678,0,0,1,.3,2.893c1.445,0,2.934-.054,4.417.015a6.436,6.436,0,0,1,4.259,1.545,6.263,6.263,0,0,1,1.923,4.969q.031,25.282.012,50.565,0,13.716,0,27.432a6.108,6.108,0,0,1-3.018,5.729,4.969,4.969,0,0,1-2.339.721q-43.3.054-86.6.027a5.729,5.729,0,0,1-5.164-5.2q0-40.289,0-80.578a5.433,5.433,0,0,1,4.457-5.015c2.038-.191,4.093-.206,6.254-.3m6.079-1.435c-.052-.267-.093-.536-.157-.8a1.858,1.858,0,0,0-2.048-1.49,1.765,1.765,0,0,0-1.578,1.861q-.014,6.192,0,12.384a1.7,1.7,0,0,0,1.9,1.774c1.027.055,1.889-.829,1.9-2.191.029-3.846-.008-7.692-.019-11.538m65.418,13.729c1.028.055,1.889-.829,1.9-2.191.028-3.846-.008-7.692-.019-11.538-.052-.267-.094-.536-.157-.8a1.86,1.86,0,0,0-2.049-1.49,1.764,1.764,0,0,0-1.577,1.861q-.015,6.192,0,12.384a1.7,1.7,0,0,0,1.9,1.774m-76.476,15.3c.254.011.508.031.763.031q43.732,0,87.465,0c.275,0,.549-.031.835-.048V55.317c.011-.443.046-.886.029-1.328-.064-1.661-.994-3.234-2.289-3.389-2.009-.24-4.048-.234-6.088-.333v3.526c-.01,1.428,0,2.857-.037,4.284a4.374,4.374,0,0,1-1.466,3.417,4.02,4.02,0,0,1-4.359.826,3.874,3.874,0,0,1-2.58-3.767c0-1.586-.022-3.173-.033-4.76V50.409h-58.823v3.384c-.011,1.428,0,2.856-.038,4.284a4.372,4.372,0,0,1-1.465,3.417,4.021,4.021,0,0,1-4.36.826,3.873,3.873,0,0,1-2.579-3.767c0-1.586-.022-3.173-.034-4.76V50.415a1.71,1.71,0,0,0-.268-.055c-1.529,0-3.06.044-4.586-.019a3.558,3.558,0,0,0-3.556,3.545c.072,6.975.029,13.951.032,20.927,0,.243.03.486.048.745Zm1.34,61.182c.318.01.636.029.953.029q41.389,0,82.778.038a3.867,3.867,0,0,0,4.034-4.063q-.025-26.955-.009-53.911v-.949H1088q-43.731,0-87.462,0c-.254,0-.508.02-.762.03H996.39a1.7,1.7,0,0,0-.054.255q0,27.751.034,55.5a3.6,3.6,0,0,0,.74,1.835c.984,1.437,2.507,1.334,4,1.229" transform="translate(181 16900.311)"/>
      <path id="Trazado_275347" data-name="Trazado 275347" d="M999.771,77.916c.254-.01.508-.03.762-.03h88.333v.948q0,26.957.009,53.911a3.867,3.867,0,0,1-4.034,4.063q-41.388-.083-82.777-.037c-.318,0-.636-.02-.954-.03-1.531-1.771-1.347-3.912-1.346-6.037q.021-26.393.007-52.787m68.334,28.329a7.981,7.981,0,0,0,1.532-1.241,1.006,1.006,0,0,1,1.4-.366c.882.36,1.778.685,2.671,1.014,3.022,1.113,6.039,2.239,9.072,3.323,1.12.4,1.93,0,2.041-1.073a6.016,6.016,0,0,0-.937-4.654,25.032,25.032,0,0,0-2.982-3,15.809,15.809,0,0,0-7.5-3.419c-1.265-.249-2.558-.349-3.949-.532.277-.293.482-.522.7-.739q4.525-4.528,9.054-9.056c.741-.741.746-1.264-.049-1.958a4.661,4.661,0,0,0-1.167-.723c-2.377-1.061-4.69-.514-6.9.48a17.288,17.288,0,0,0-7.5,6.53c-1.032-1.12-1.98-2.3-3.081-3.315-2.771-2.554-5.851-4.415-9.853-4.107a4.761,4.761,0,0,0-2.431.763c-1.3.884-1.387,1.494-.294,2.589q4.391,4.395,8.781,8.789c.228.228.439.473.72.777-1.033.109-1.9.185-2.759.293a17.31,17.31,0,0,0-10.577,5.3,6.465,6.465,0,0,0-2.054,5.02c.13,1.807.387,2.618,2.643,1.835.435-.151.862-.322,1.294-.48,3.352-1.221,6.711-2.422,10.049-3.681a.947.947,0,0,1,1.234.261,4.067,4.067,0,0,0,2.694,1.534c.226.025.541.447.588.724.42,2.474.876,4.947,1.149,7.439.294,2.682.419,5.382.563,8.078a.992.992,0,0,1-.588.719A51.689,51.689,0,0,0,1056.1,125c-2.015.875-3.856,2.116-4.361,4.571-.263,1.277.088,1.84,1.387,1.841,8.888,0,17.777-.028,26.665.029,1.6.011,1.847-.965,1.511-2.147-.662-2.328-2.5-3.522-4.529-4.335-1.925-.769-3.975-1.223-6.115-1.859a75.073,75.073,0,0,0-2.553-16.859m-58.957,10.034a6.187,6.187,0,0,0,1.577.78c1.577.223,1.831,1.168,1.718,2.543-.028.343.5.921.889,1.061a.848.848,0,0,0,1.169-.744c.107-.8.188-1.607.277-2.383a3.458,3.458,0,0,0,1.213-.362c1.327-1.06,2.341-.759,3.289.528a1.043,1.043,0,0,0,.973.277,1.739,1.739,0,0,0,.72-.986c.264-.927-.615-1.281-1.048-1.868a1.256,1.256,0,0,1-.3-.925c.318-.887.756-1.73,1.183-2.668h1.9a1.048,1.048,0,0,0,1.088-1.057c.028-.475-.113-1.064-.85-1.1s-1.493-.133-2.272-.206a4.785,4.785,0,0,0-.464-1.342c-.917-1.264-.622-2.2.561-3.089a1.063,1.063,0,0,0,.14-1.489,1.48,1.48,0,0,0-1.223-.443,2.3,2.3,0,0,0-1.056.882c-.542.674-1.043.961-1.853.331a4.232,4.232,0,0,0-1.459-.509c-.437-.121-.671-.3-.658-.827a5.265,5.265,0,0,0-.22-1.934,1.252,1.252,0,0,0-1.058-.619,1.615,1.615,0,0,0-.956.936c-.165.449.028,1.018-.069,1.509a1.2,1.2,0,0,1-.588.727c-.822.4-1.684.724-2.683,1.141a8.4,8.4,0,0,0-1.215-1.291c-.5-.365-1.146-.757-1.713-.005a1.115,1.115,0,0,0,.171,1.667c.444.409.885.822,1.354,1.258-.18.25-.32.415-.427.6a2.208,2.208,0,0,0-.32.664c-.275,1.489-.994,2.231-2.651,1.955a.978.978,0,0,0-1.071,1.222,1.057,1.057,0,0,0,1.2,1.027,8.318,8.318,0,0,1,1.43.019.889.889,0,0,1,.606.43c.38.894.7,1.815,1.08,2.848-.335.316-.768.737-1.214,1.144a1.085,1.085,0,0,0-.173,1.648c.551.694,1.177.493,1.72.026a16.14,16.14,0,0,0,1.281-1.372m20.994-25.324c.525-.339,1.039-.483,1.175-.793a2.56,2.56,0,0,1,2.273-1.63c.36-.045.83-.666.909-1.087a.932.932,0,0,0-.823-1.033,4.056,4.056,0,0,0-2.94.73,1.223,1.223,0,0,1-.859.076c-.78-.262-1.511-.7-2.3-.885a1.069,1.069,0,0,0-1.4.9,1.052,1.052,0,0,0,1.04,1.354,2.472,2.472,0,0,1,1.967,1.387,6.363,6.363,0,0,0,.961.984m9.2,4.619c.53-.379,1.063-.556,1.2-.895a2.481,2.481,0,0,1,2.214-1.557,1.549,1.549,0,0,0,.916-1.083.938.938,0,0,0-.818-1.037,4.081,4.081,0,0,0-2.94.725,1.245,1.245,0,0,1-.859.083c-.78-.262-1.51-.695-2.3-.889a1.071,1.071,0,0,0-1.4.891,1.051,1.051,0,0,0,1.033,1.359,2.482,2.482,0,0,1,1.969,1.384,6.74,6.74,0,0,0,.99,1.019m-10.7,3.775c.491-.32,1.007-.468,1.143-.78a2.556,2.556,0,0,1,2.276-1.625c.359-.046.826-.671.9-1.093a.939.939,0,0,0-.828-1.03,4.144,4.144,0,0,0-2.941.733,1.385,1.385,0,0,1-.928.009,19.787,19.787,0,0,0-2.425-.813,1.125,1.125,0,0,0-.251,2.235,2.642,2.642,0,0,1,2.115,1.48,5.342,5.342,0,0,0,.937.884" transform="translate(181 16900.311)" fill="#e6f5ff"/>
      <path id="Trazado_275348" data-name="Trazado 275348" d="M1072.01,53.793c.012,1.587.032,3.173.033,4.76a3.875,3.875,0,0,0,2.581,3.767,4.018,4.018,0,0,0,4.358-.826,4.365,4.365,0,0,0,1.466-3.417c.036-1.427.027-2.856.038-4.284,1.389,0,2.78.049,4.165-.011a5.033,5.033,0,0,1,4.182,1.535V75.54c-.285.017-.56.048-.834.048q-43.733,0-87.465,0c-.255,0-.509-.02-.763-.031,0-5.6.083-11.212-.034-16.814a4.847,4.847,0,0,1,4.974-4.951c.013,1.587.033,3.174.034,4.76a3.875,3.875,0,0,0,2.58,3.767,4.021,4.021,0,0,0,4.36-.826,4.375,4.375,0,0,0,1.465-3.417c.037-1.428.027-2.856.038-4.284h58.822m-30.452,9.819a36.639,36.639,0,0,0-.3-4.623,4.16,4.16,0,0,0-8.213.759c-.006,2.2.025,4.4,0,6.594a4.16,4.16,0,0,0,3.336,3.872c1.952.349,4.2-.832,4.649-2.586a27.866,27.866,0,0,0,.532-4.016m-16.683,4.33c.327-1.261.767-1.723,2.252-2.493a6.071,6.071,0,0,0,3.591-5.255,4.066,4.066,0,0,0-4.917-4.3c-2.25.439-3.444,1.78-3.468,3.719-.008.743.159,1.368,1.005,1.42s1.225-.474,1.3-1.29a1.7,1.7,0,0,1,2-1.695,2,2,0,0,1,1.759,2.332,4.166,4.166,0,0,1-2.552,3.144,6.2,6.2,0,0,0-3.457,4.274c-.471,1.756.07,2.439,1.851,2.439,1.623,0,3.246,0,4.871,0,1.058,0,1.638-.425,1.622-1.168s-.57-1.123-1.664-1.125c-1.394,0-2.787,0-4.2,0m21.351,0a3.911,3.911,0,0,1,2.312-2.5,6,6,0,0,0,3.593-5.246,4.067,4.067,0,0,0-4.92-4.3c-2.246.438-3.441,1.781-3.464,3.721-.008.743.161,1.368,1.005,1.418s1.226-.476,1.3-1.292a1.7,1.7,0,0,1,2-1.692,2,2,0,0,1,1.756,2.333,4.168,4.168,0,0,1-2.553,3.143,6.206,6.206,0,0,0-3.456,4.275c-.47,1.755.071,2.437,1.853,2.437h4.681c1.25,0,1.832-.378,1.812-1.171s-.586-1.123-1.859-1.124h-4.066M1059.353,58c-1.139,1.55-2.2,2.909-3.159,4.33a1.11,1.11,0,0,0,.963,1.782c.381.017.765-.009,1.145.009,1.305.061,2.309.869,2.23,1.906a2.049,2.049,0,0,1-2.314,1.934,21.691,21.691,0,0,0-2.576-.018,1.147,1.147,0,1,0,.035,2.293c1.017-.007,2.036.007,3.054,0a4.166,4.166,0,0,0,2.923-7.03c-.686-.521-1.417-.983-2.169-1.5.926-1.25,1.926-2.52,2.823-3.856a1.859,1.859,0,0,0,.307-1.465,1.653,1.653,0,0,0-1.276-.649c-1.844-.072-3.691-.019-5.537-.035-.78-.007-1.286.279-1.338,1.1-.048.757.44,1.186,1.338,1.193,1.133.009,2.266,0,3.551,0" transform="translate(181 16900.311)" fill="#7396ff"/>
      <path id="Trazado_275349" data-name="Trazado 275349" d="M1072.01,53.793h-58.823V50.41h58.823Z" transform="translate(181 16900.311)" fill="#87aaff"/>
      <path id="Trazado_275350" data-name="Trazado 275350" d="M999.772,77.916q0,26.394-.007,52.787c0,2.124-.185,4.265,1.346,6.037-1.494.1-3.017.207-4-1.23a3.6,3.6,0,0,1-.74-1.834q-.06-27.753-.034-55.506a1.724,1.724,0,0,1,.054-.254Z" transform="translate(181 16900.311)" fill="#f5faff"/>
      <path id="Trazado_275351" data-name="Trazado 275351" d="M1004.712,53.793a4.848,4.848,0,0,0-4.975,4.951c.117,5.6.035,11.209.034,16.815h-3.389c-.018-.26-.048-.5-.049-.746,0-6.976.041-13.952-.032-20.927a3.558,3.558,0,0,1,3.557-3.544c1.526.063,3.057.014,4.586.018a1.841,1.841,0,0,1,.268.055Z" transform="translate(181 16900.311)" fill="#87aaff"/>
      <path id="Trazado_275352" data-name="Trazado 275352" d="M1076.247,60.257a1.7,1.7,0,0,1-1.9-1.774q-.012-6.192,0-12.384a1.766,1.766,0,0,1,1.578-1.861,1.858,1.858,0,0,1,2.048,1.49c.064.264.106.533.157.8a2.607,2.607,0,0,0-1.876,2.737q-.012,5.5,0,10.992" transform="translate(181 16900.311)" fill="#f5faff"/>
      <path id="Trazado_275353" data-name="Trazado 275353" d="M1008.948,60.257a1.7,1.7,0,0,1-1.9-1.774q-.012-6.192,0-12.384a1.766,1.766,0,0,1,1.578-1.861,1.858,1.858,0,0,1,2.048,1.49c.064.264.106.533.157.8a2.606,2.606,0,0,0-1.876,2.737q-.012,5.5,0,10.992" transform="translate(181 16900.311)" fill="#f5faff"/>
      <path id="Trazado_275354" data-name="Trazado 275354" d="M1088.834,55.317a5.039,5.039,0,0,0-4.183-1.535c-1.386.06-2.776.011-4.165.011V50.267c2.04.1,4.079.093,6.088.333,1.3.155,2.224,1.728,2.289,3.389.017.442-.018.885-.029,1.328" transform="translate(181 16900.311)" fill="#87aafe"/>
      <path id="Trazado_275355" data-name="Trazado 275355" d="M1076.247,60.257q0-5.5,0-10.992a2.607,2.607,0,0,1,1.876-2.737c.011,3.846.048,7.692.019,11.538-.01,1.362-.871,2.246-1.9,2.191" transform="translate(181 16900.311)" fill="#e6f5ff"/>
      <path id="Trazado_275356" data-name="Trazado 275356" d="M1008.948,60.257q0-5.5,0-10.992a2.606,2.606,0,0,1,1.876-2.737c.011,3.846.048,7.692.019,11.538-.01,1.362-.871,2.246-1.9,2.191" transform="translate(181 16900.311)" fill="#e6f5ff"/>
      <path id="Trazado_275357" data-name="Trazado 275357" d="M1068.106,106.246a75.12,75.12,0,0,1,2.553,16.858c2.14.636,4.19,1.09,6.114,1.859,2.034.813,3.868,2.008,4.53,4.336.336,1.182.089,2.157-1.511,2.147-8.888-.058-17.777-.026-26.665-.03-1.3,0-1.65-.563-1.387-1.841.505-2.454,2.345-3.7,4.361-4.57a51.622,51.622,0,0,1,5.574-1.637.988.988,0,0,0,.588-.719c-.144-2.695-.269-5.4-.563-8.077-.274-2.493-.73-4.966-1.149-7.44-.047-.277-.362-.7-.588-.723a4.072,4.072,0,0,1-2.694-1.535.948.948,0,0,0-1.235-.26c-3.337,1.259-6.7,2.459-10.048,3.681-.432.157-.859.329-1.294.48-2.256.782-2.513-.029-2.643-1.835a6.466,6.466,0,0,1,2.054-5.021,17.306,17.306,0,0,1,10.577-5.3c.861-.109,1.726-.184,2.759-.293-.281-.305-.492-.55-.72-.777q-4.389-4.4-8.781-8.79c-1.093-1.094-1.007-1.705.293-2.588a4.748,4.748,0,0,1,2.432-.763c4-.308,7.082,1.552,9.853,4.107,1.1,1.015,2.049,2.195,3.081,3.314a17.288,17.288,0,0,1,7.5-6.529c2.208-.994,4.521-1.541,6.9-.481a4.686,4.686,0,0,1,1.166.723c.795.694.791,1.217.05,1.959q-4.525,4.528-9.054,9.055c-.217.217-.422.446-.7.74,1.391.182,2.684.283,3.948.532a15.791,15.791,0,0,1,7.5,3.419,24.951,24.951,0,0,1,2.982,3,6.018,6.018,0,0,1,.938,4.655c-.111,1.067-.922,1.473-2.042,1.073-3.032-1.084-6.049-2.21-9.071-3.323-.894-.33-1.789-.655-2.671-1.014a1.008,1.008,0,0,0-1.4.365,7.974,7.974,0,0,1-1.531,1.242m-13.643,22.811h24.254a8.235,8.235,0,0,0-4.358-2.592,23.39,23.39,0,0,0-9.637-.97c-1.8.232-3.608.4-5.369.79a8.034,8.034,0,0,0-4.89,2.772m10.345-8.088-.221.027a9.177,9.177,0,0,0,.031,1.619.893.893,0,0,0,.65.523c.733.076,1.478.028,2.217.054.52.019.986.023.925-.711-.133-1.6-.153-3.214-.4-4.793-.506-3.207-1.131-6.4-1.712-9.59a2.359,2.359,0,0,0-1.712-2.211c-.279-.071-.477-.434-.757-.529a.929.929,0,0,0-.715.15c-.184.125-.4.416-.376.6.205,1.351.52,2.686.7,4.039.484,3.6.918,7.215,1.371,10.823M1064.8,93.4l2.348,1.819,9.468-9.468c-2.957-1.263-9.435,2.643-11.816,7.649m4.166,5.343a3.789,3.789,0,0,1,1.729,2.819c.061.532.288.656.7.8,1.839.663,3.664,1.368,5.5,2.033s3.713,1.31,5.593,1.972c.18-2.928-6.14-7.967-13.522-7.628m-11.393.019c-5.39-.524-12.511,3.447-13.174,7.516.055.019.122.069.164.053,3.732-1.352,7.464-2.7,11.186-4.082a1.246,1.246,0,0,0,.6-.616c.435-.941.818-1.906,1.224-2.871m-7.22-13.232c-.007.123-.014.246-.02.369q4.518,4.517,9.047,9.025c.168.166.584.35.688.27.751-.58,1.452-1.225,2.382-2.035-1.2-1.361-2.391-2.809-3.685-4.159a11.722,11.722,0,0,0-5.618-3.235,15.917,15.917,0,0,0-2.794-.235m13.069,10.324a1.8,1.8,0,0,0-1.889,1.741,2.144,2.144,0,0,0,1.936,1.908,1.808,1.808,0,0,0,1.892-2.048c-.012-1.094-.63-1.605-1.939-1.6m4.994,6.372c.017-.985-.655-1.973-1.373-1.726a11.439,11.439,0,0,0-2.449,1.579c-.015.01,0,.061,0,.092a2.142,2.142,0,0,0,1.838,1.915,1.79,1.79,0,0,0,1.987-1.86m-6.144-.565a10.047,10.047,0,0,1-.971-.469c-.212-.129-.351-.414-.57-.486-.394-.129-1.06-.347-1.195-.183a3.843,3.843,0,0,0-.993,1.888c-.067.784.949,1.621,1.629,1.665,1.476.1,2.155-.672,2.1-2.415" transform="translate(181 16900.311)" fill="#010101"/>
      <path id="Trazado_275358" data-name="Trazado 275358" d="M1009.149,116.28a15.976,15.976,0,0,1-1.282,1.371c-.542.467-1.169.668-1.719-.026a1.084,1.084,0,0,1,.173-1.648c.446-.406.879-.827,1.214-1.144-.385-1.033-.7-1.954-1.081-2.848a.89.89,0,0,0-.606-.43,8.408,8.408,0,0,0-1.429-.019,1.057,1.057,0,0,1-1.2-1.027.977.977,0,0,1,1.072-1.221c1.656.275,2.376-.467,2.651-1.956a2.187,2.187,0,0,1,.32-.664c.107-.184.246-.349.427-.6-.47-.437-.91-.849-1.354-1.259a1.115,1.115,0,0,1-.172-1.666c.568-.753,1.21-.36,1.714,0a8.4,8.4,0,0,1,1.215,1.292c1-.417,1.861-.739,2.682-1.142a1.2,1.2,0,0,0,.589-.727c.1-.491-.1-1.06.069-1.509a1.612,1.612,0,0,1,.956-.936,1.254,1.254,0,0,1,1.058.619,5.267,5.267,0,0,1,.22,1.934c-.013.527.221.706.658.827a4.219,4.219,0,0,1,1.459.51c.809.63,1.31.342,1.853-.331a2.292,2.292,0,0,1,1.055-.882,1.475,1.475,0,0,1,1.223.442,1.061,1.061,0,0,1-.14,1.489c-1.182.89-1.477,1.825-.56,3.089a4.789,4.789,0,0,1,.464,1.342c.778.073,1.524.166,2.272.206s.878.629.849,1.1a1.046,1.046,0,0,1-1.088,1.056h-1.9c-.428.938-.866,1.781-1.183,2.668a1.257,1.257,0,0,0,.3.926c.433.586,1.312.94,1.048,1.867a1.739,1.739,0,0,1-.72.986,1.041,1.041,0,0,1-.973-.277c-.948-1.287-1.963-1.588-3.29-.527a3.466,3.466,0,0,1-1.212.361c-.089.776-.171,1.581-.277,2.383a.85.85,0,0,1-1.17.745c-.39-.141-.916-.719-.888-1.062.113-1.374-.142-2.32-1.719-2.543a6.209,6.209,0,0,1-1.576-.779m-.225-7.627a4.8,4.8,0,0,0,1.363,5.5,4.918,4.918,0,0,0,6.292.139,4.948,4.948,0,0,0-4.777-8.533,4.292,4.292,0,0,0-2.878,2.892" transform="translate(181 16900.311)" fill="#020201"/>
      <path id="Trazado_275359" data-name="Trazado 275359" d="M1030.143,90.955a6.274,6.274,0,0,1-.961-.984,2.475,2.475,0,0,0-1.968-1.387,1.052,1.052,0,0,1-1.039-1.354,1.068,1.068,0,0,1,1.4-.9c.794.189,1.525.622,2.305.885a1.213,1.213,0,0,0,.857-.077,4.064,4.064,0,0,1,2.941-.729.933.933,0,0,1,.824,1.032c-.079.422-.549,1.043-.909,1.088a2.56,2.56,0,0,0-2.273,1.629c-.136.311-.651.455-1.175.794" transform="translate(181 16900.311)" fill="#020202"/>
      <path id="Trazado_275360" data-name="Trazado 275360" d="M1039.344,95.574a6.68,6.68,0,0,1-.989-1.019,2.482,2.482,0,0,0-1.97-1.383,1.053,1.053,0,0,1-1.033-1.36,1.071,1.071,0,0,1,1.4-.891c.792.195,1.523.627,2.3.89a1.245,1.245,0,0,0,.859-.084,4.077,4.077,0,0,1,2.941-.724.938.938,0,0,1,.818,1.037,1.553,1.553,0,0,1-.917,1.082,2.485,2.485,0,0,0-2.214,1.557c-.139.339-.671.517-1.2.895" transform="translate(181 16900.311)" fill="#020202"/>
      <path id="Trazado_275361" data-name="Trazado 275361" d="M1028.648,99.349a5.342,5.342,0,0,1-.937-.884,2.642,2.642,0,0,0-2.115-1.48,1.125,1.125,0,0,1,.251-2.235,19.787,19.787,0,0,1,2.425.813,1.385,1.385,0,0,0,.928-.009,4.144,4.144,0,0,1,2.941-.733.939.939,0,0,1,.828,1.03c-.076.422-.543,1.047-.9,1.093a2.556,2.556,0,0,0-2.276,1.625c-.136.312-.652.46-1.143.78" transform="translate(181 16900.311)" fill="#020202"/>
      <path id="Trazado_275362" data-name="Trazado 275362" d="M1041.559,63.612a27.866,27.866,0,0,1-.532,4.016c-.455,1.754-2.7,2.935-4.649,2.586a4.16,4.16,0,0,1-3.337-3.872c.029-2.2,0-4.4,0-6.594a4.16,4.16,0,0,1,8.213-.759,36.849,36.849,0,0,1,.3,4.623m-6.225-.645h0c0,1.083-.014,2.167,0,3.249a1.826,1.826,0,0,0,3.6.353c.143-2.208.239-4.428.174-6.637a1.845,1.845,0,0,0-2.013-1.9c-1.061.165-1.85.451-1.774,2.259.038.891.007,1.784.007,2.676" transform="translate(181 16900.311)" fill="#000101"/>
      <path id="Trazado_275363" data-name="Trazado 275363" d="M1024.875,67.942c1.411,0,2.805,0,4.2,0,1.095,0,1.648.38,1.665,1.126s-.564,1.164-1.623,1.167c-1.624,0-3.248,0-4.871,0-1.781,0-2.321-.683-1.851-2.439a6.2,6.2,0,0,1,3.458-4.274,4.166,4.166,0,0,0,2.552-3.144,2,2,0,0,0-1.759-2.332,1.7,1.7,0,0,0-2,1.695c-.08.816-.463,1.342-1.3,1.29s-1.013-.677-1-1.42c.024-1.939,1.217-3.279,3.467-3.719a4.066,4.066,0,0,1,4.917,4.3,6.068,6.068,0,0,1-3.59,5.255c-1.485.77-1.926,1.232-2.253,2.493" transform="translate(181 16900.311)" fill="#010102"/>
      <path id="Trazado_275364" data-name="Trazado 275364" d="M1046.226,67.942h4.067c1.272,0,1.838.344,1.857,1.124s-.561,1.17-1.811,1.171h-4.68c-1.783,0-2.323-.682-1.853-2.437a6.2,6.2,0,0,1,3.456-4.275,4.17,4.17,0,0,0,2.553-3.143,2,2,0,0,0-1.757-2.333,1.7,1.7,0,0,0-2,1.692c-.079.816-.461,1.342-1.3,1.292s-1.014-.674-1.005-1.418c.023-1.94,1.219-3.283,3.464-3.721a4.068,4.068,0,0,1,4.921,4.3,6,6,0,0,1-3.594,5.246,3.908,3.908,0,0,0-2.312,2.5" transform="translate(181 16900.311)" fill="#010102"/>
      <path id="Trazado_275365" data-name="Trazado 275365" d="M1059.353,58c-1.285,0-2.418.007-3.551,0-.9-.007-1.386-.436-1.338-1.193.052-.826.558-1.112,1.338-1.1,1.846.016,3.693-.037,5.537.035a1.653,1.653,0,0,1,1.276.649,1.859,1.859,0,0,1-.307,1.465c-.9,1.336-1.9,2.606-2.823,3.856.752.516,1.483.978,2.169,1.5a4.166,4.166,0,0,1-2.923,7.03c-1.018.009-2.037,0-3.054,0a1.147,1.147,0,1,1-.035-2.293,21.691,21.691,0,0,1,2.576.018,2.049,2.049,0,0,0,2.314-1.934c.079-1.037-.925-1.845-2.23-1.906-.38-.018-.764.008-1.145-.009a1.11,1.11,0,0,1-.963-1.782c.964-1.421,2.02-2.78,3.159-4.33" transform="translate(181 16900.311)" fill="#010102"/>
      <path id="Trazado_275366" data-name="Trazado 275366" d="M1054.463,129.056a8.039,8.039,0,0,1,4.89-2.772c1.761-.39,3.574-.557,5.369-.789a23.373,23.373,0,0,1,9.637.969,8.242,8.242,0,0,1,4.358,2.592Z" transform="translate(181 16900.311)" fill="#50e696"/>
      <path id="Trazado_275367" data-name="Trazado 275367" d="M1064.808,120.969c-.454-3.608-.888-7.219-1.371-10.823-.182-1.353-.5-2.688-.7-4.039-.027-.183.192-.474.375-.6a.939.939,0,0,1,.715-.15c.281.1.479.459.758.53a2.358,2.358,0,0,1,1.712,2.211c.581,3.195,1.206,6.383,1.712,9.59.249,1.579.269,3.195.4,4.793.061.734-.4.73-.925.711-.739-.026-1.483.022-2.216-.054a.893.893,0,0,1-.65-.523,9.177,9.177,0,0,1-.031-1.619l.221-.027" transform="translate(181 16900.311)" fill="#c79069"/>
      <path id="Trazado_275368" data-name="Trazado 275368" d="M1064.8,93.4c2.381-5.006,8.858-8.912,11.815-7.649l-9.468,9.468L1064.8,93.4" transform="translate(181 16900.311)" fill="#4fe394"/>
      <path id="Trazado_275369" data-name="Trazado 275369" d="M1068.96,98.746c7.383-.339,13.7,4.7,13.523,7.628-1.881-.662-3.742-1.3-5.593-1.972s-3.663-1.37-5.5-2.033c-.41-.148-.636-.272-.7-.8a3.783,3.783,0,0,0-1.729-2.819" transform="translate(181 16900.311)" fill="#50e595"/>
      <path id="Trazado_275370" data-name="Trazado 275370" d="M1057.568,98.764c-.407.965-.79,1.93-1.225,2.871a1.248,1.248,0,0,1-.6.617c-3.722,1.379-7.454,2.729-11.186,4.082-.041.015-.109-.034-.164-.054.663-4.069,7.784-8.04,13.175-7.516" transform="translate(181 16900.311)" fill="#50e595"/>
      <path id="Trazado_275371" data-name="Trazado 275371" d="M1050.348,85.532a15.917,15.917,0,0,1,2.794.235A11.722,11.722,0,0,1,1058.76,89c1.294,1.35,2.486,2.8,3.685,4.159-.93.81-1.631,1.455-2.382,2.035-.1.08-.52-.1-.688-.27q-4.539-4.5-9.047-9.025c.006-.123.013-.246.02-.369" transform="translate(181 16900.311)" fill="#50e596"/>
      <path id="Trazado_275372" data-name="Trazado 275372" d="M1063.417,95.856c1.308,0,1.927.507,1.939,1.6a1.809,1.809,0,0,1-1.892,2.049,2.146,2.146,0,0,1-1.937-1.908,1.8,1.8,0,0,1,1.89-1.742" transform="translate(181 16900.311)" fill="#ccfd7c"/>
      <path id="Trazado_275373" data-name="Trazado 275373" d="M1068.41,102.229a1.788,1.788,0,0,1-1.986,1.859,2.141,2.141,0,0,1-1.838-1.914c0-.032-.012-.082,0-.093a11.429,11.429,0,0,1,2.449-1.579c.718-.246,1.389.741,1.372,1.727" transform="translate(181 16900.311)" fill="#cbfd7c"/>
      <path id="Trazado_275374" data-name="Trazado 275374" d="M1062.267,101.664c.055,1.743-.624,2.511-2.1,2.415-.68-.044-1.7-.881-1.629-1.665a3.843,3.843,0,0,1,.993-1.888c.135-.164.8.054,1.195.183.219.072.358.357.57.486a10.047,10.047,0,0,0,.971.469" transform="translate(181 16900.311)" fill="#cbfd7c"/>
      <path id="Trazado_275375" data-name="Trazado 275375" d="M1011.8,105.76a4.948,4.948,0,0,1,4.776,8.533,4.915,4.915,0,0,1-6.291-.139,4.8,4.8,0,0,1-1.363-5.5c.091.159.178.32.272.477a2.289,2.289,0,0,0,4.3-.626c.252-1.4-.66-2.117-1.693-2.743" transform="translate(181 16900.311)" fill="#fedb46"/>
      <path id="Trazado_275376" data-name="Trazado 275376" d="M1011.8,105.76c1.033.626,1.945,1.341,1.693,2.743a2.289,2.289,0,0,1-4.3.626c-.094-.157-.181-.318-.272-.477a4.292,4.292,0,0,1,2.878-2.892" transform="translate(181 16900.311)" fill="#feef63"/>
      <path id="Trazado_275377" data-name="Trazado 275377" d="M1035.334,62.967c0-.892.031-1.785-.007-2.676-.076-1.808.713-2.094,1.774-2.259a1.845,1.845,0,0,1,2.013,1.9c.065,2.209-.031,4.429-.174,6.637a1.826,1.826,0,0,1-3.6-.353c-.018-1.082,0-2.166,0-3.249h0" transform="translate(181 16900.311)" fill="#7396fe"/>
    </g>
  </g>
</svg>
