<svg xmlns="http://www.w3.org/2000/svg" width="169.179" height="169.178" viewBox="0 0 169.179 169.178">
  <g id="Grupo_1069952" data-name="Grupo 1069952" transform="translate(1893 -5181)">
    <path id="Trazado_275378" data-name="Trazado 275378" d="M285.966,90.251A84.59,84.59,0,1,1,201.377,5.662a84.589,84.589,0,0,1,84.589,84.589" transform="translate(-2009.787 5175.338)" fill="#fffad0"/>
    <g id="Grupo_257445" data-name="Grupo 257445" transform="translate(272.212 448)">
      <path id="Trazado_275415" data-name="Trazado 275415" d="M30.489,0c.926.262,1.859.5,2.777.789a19.663,19.663,0,0,1,9.344,5.96,18.723,18.723,0,0,1,4.406,9.194,19.358,19.358,0,0,1-2.643,13.615,5.394,5.394,0,0,0-.612,2.258,31.545,31.545,0,0,0-.021,3.425,1.784,1.784,0,0,0,1.886,1.888q2.246.03,4.491,0a1.829,1.829,0,0,0,1.957-1.962c.017-2.167,0-4.334,0-6.5,0-2.779.377-3.215,3.136-2.858a71.213,71.213,0,0,1,7.323,1.379A37.783,37.783,0,0,1,77.169,34.1c2.788,2.175,5.264,4.75,7.9,7.122a1.259,1.259,0,0,0,.924.337c4.822-1.033,9.936,2.55,9.724,7.851-.135,3.376-.836,6.726-1.169,10.1a16.481,16.481,0,0,0,.281,3.131c.236,2.423.533,4.842.683,7.271a37.414,37.414,0,0,1,0,5.315c-.362,4.46.084,9.018-1.393,13.345-.75,2.2-1.694,4.328-2.617,6.459-.461,1.063-1.493.726-2.351.75a1.961,1.961,0,0,1-.566-2.707,26.359,26.359,0,0,0,3.136-11.11c.238-4.191.191-8.4.261-12.6a6.086,6.086,0,0,0-.1-.794c-.99,1.91-1.865,3.71-2.844,5.45-.69,1.227-1.756,1.548-2.676.967-.9-.568-.915-1.392-.328-2.751,1.4-3.232,2.924-6.43,4-9.77a46.524,46.524,0,0,0,2.179-13.172,4.036,4.036,0,0,0-3.283-4.065,16.539,16.539,0,0,0-5,.235,53.015,53.015,0,0,0-13.672,4.805c-1.854.971-3.6,2.145-5.387,3.247a1.98,1.98,0,0,1-2.8-.3c-.615-.927-.39-1.8.729-2.6a50.239,50.239,0,0,1,11.036-5.824c2.367-.919,4.821-1.611,7.371-2.45A40.72,40.72,0,0,0,55.622,29.4c0,2.11.039,4.116-.009,6.121A5.231,5.231,0,0,1,50.5,40.641c-1.654.046-3.311-.022-4.965.018A4.767,4.767,0,0,1,40.8,37.62a19.516,19.516,0,0,1-.852-3.146,19.2,19.2,0,0,1-11.586,4.114,35.359,35.359,0,0,1-3.708-.28c-1.305-.23-2.554-.858-3.859-.982-1.547-.147-2.265,1.385-3.309,2.2a25.013,25.013,0,0,0-2.677,2.767l10.244,3.789c2.675,1.515,5.361,3.01,8.017,4.557a1.736,1.736,0,0,1,.815,2.356,1.829,1.829,0,0,1-2.7.6c-.618-.37-1.242-.729-1.864-1.093a47.131,47.131,0,0,0-10.216-4.967A72.136,72.136,0,0,0,9.088,45.052a4.668,4.668,0,0,0-5.542,4.876c.143,1.847.477,3.679.715,5.519A47.174,47.174,0,0,0,7.343,66.889c.771,1.93,1.77,3.769,2.656,5.653a1.8,1.8,0,0,1-.489,2.415,1.724,1.724,0,0,1-2.556-.7c-.481-.786-.894-1.617-1.308-2.442C5.108,70.739,4.6,69.65,4.075,68.567a1.311,1.311,0,0,0-.308.913c.066,1.639.162,3.278.22,4.917.1,2.74.167,5.48.262,8.22a23.031,23.031,0,0,0,1.975,8.15A27.568,27.568,0,0,0,17.9,104.1a26.612,26.612,0,0,0,11.887,3.713c1.085.092,2.169.25,3.255.264,3.4.043,6.791.066,10.187.035,7.193-.068,14.386-.128,21.577-.3a25.044,25.044,0,0,0,5.955-.746,29.126,29.126,0,0,0,13.369-7.785c1.315-1.343,1.373-1.36,3.105-.65a2.158,2.158,0,0,1-.573,3.084c-1.166,1.007-2.286,2.066-3.426,3.1l-.19.195c-.012,2.876,0,5.753-.044,8.629-.051,3.143-1.335,5.571-4.31,6.867a6.472,6.472,0,0,1-2.43.556c-4.493.053-8.986.035-13.479.024-2.245-.006-4.877-2.053-5.8-4.473-.349-.923-.674-1.856-1.03-2.778-.851-2.205-.856-2.233-3.252-2.2-3.214.049-6.426.168-9.639.216a18.209,18.209,0,0,1-2.168-.207,65.4,65.4,0,0,1-2.871,6.295,6.265,6.265,0,0,1-5.669,3.144c-4.335.011-8.671.018-13.006-.018A6.685,6.685,0,0,1,13,114.731c-.035-2.443-.134-4.9.021-7.328a3.868,3.868,0,0,0-1.681-3.739A26.209,26.209,0,0,1,4,94.38,27.671,27.671,0,0,1,.684,82.429c-.056-1.953-.143-3.906-.22-5.858-.081-2.032-.223-4.063-.237-6.1A51.709,51.709,0,0,1,1.342,60.348a10.279,10.279,0,0,0-.413-2.942C.674,55.34.6,53.239.173,51.211a8.083,8.083,0,0,1,.97-5.751,7.723,7.723,0,0,1,8.413-3.882,1.56,1.56,0,0,0,1.263-.314c1.013-.973,1.9-2.075,2.894-3.07s2.047-1.914,3.147-2.932a23.779,23.779,0,0,1-1.979-1.806c-1.077-1.218-2.125-2.468-3.089-3.776a1.863,1.863,0,0,1,.488-2.922,2.253,2.253,0,0,1,2.612,1.249,9.561,9.561,0,0,0,1.542,2.03,15.322,15.322,0,0,0,11.92,4.99,15.366,15.366,0,0,0,12.5-6.656,15.114,15.114,0,0,0,2.685-11.292A15.158,15.158,0,0,0,37.159,6.568a15.3,15.3,0,0,0-10.9-2.828,14.724,14.724,0,0,0-9.6,4.608A15.958,15.958,0,0,0,12.3,21.4c.1,1.114-.123,1.885-1.212,2.285-2.041.009-2.177-.737-2.326-2.547A19.122,19.122,0,0,1,14.9,5.093,18.77,18.77,0,0,1,25.054.228,1.839,1.839,0,0,0,25.522,0Zm-7.56,117.506c3.186.014,6.371.032,9.557.036a3.29,3.29,0,0,0,.656-.157c2.08-.435,2.424-2.243,3.036-3.838l.856-1.911c-7.225.064-14.156-.475-20.5-4.229,0,2.447-.031,4.689.01,6.93a3.319,3.319,0,0,0,2.965,3.2c1.138.036,2.279-.019,3.419-.033m56.494-8.466v-1.73c-6.444,3.826-13.384,4.385-20.538,4.325.576,1.419,1.07,2.757,1.667,4.048a4.276,4.276,0,0,0,1.027,1.2c1.155,1.078,2.584.578,3.916.633,3.575.012,7.151.055,10.725.02a3.379,3.379,0,0,0,3.221-3.309c.048-1.726-.008-3.456-.018-5.184" transform="translate(-2128.213 4757)" fill="#010101"/>
      <path id="Trazado_275416" data-name="Trazado 275416" d="M28.365,38.588a19.2,19.2,0,0,0,11.586-4.115A19.5,19.5,0,0,0,40.8,37.62a4.767,4.767,0,0,0,4.731,3.039c1.654-.04,3.311.027,4.965-.018a5.231,5.231,0,0,0,5.114-5.117c.048-2,.01-4.011.01-6.12A40.725,40.725,0,0,1,81.206,42.342c-2.551.839-5.005,1.531-7.372,2.45A50.235,50.235,0,0,0,62.8,50.615c-1.119.8-1.344,1.673-.729,2.6a1.981,1.981,0,0,0,2.8.3c1.784-1.1,3.533-2.276,5.387-3.248a53.052,53.052,0,0,1,13.672-4.8,16.539,16.539,0,0,1,5-.235,4.038,4.038,0,0,1,3.283,4.066,46.53,46.53,0,0,1-2.179,13.172c-1.078,3.34-2.606,6.538-4,9.77-.587,1.359-.569,2.183.328,2.75.92.582,1.986.26,2.676-.966.979-1.741,1.854-3.54,2.844-5.451a6.127,6.127,0,0,1,.1.794c-.07,4.2-.023,8.409-.261,12.6a26.355,26.355,0,0,1-3.136,11.109,1.963,1.963,0,0,0,.566,2.708l-1.915,2.858c-1.732-.711-1.79-.693-3.105.649a29.128,29.128,0,0,1-13.369,7.786,25.037,25.037,0,0,1-5.955.746c-7.191.167-14.384.228-21.577.295-3.4.032-6.792.008-10.187-.035-1.086-.014-2.17-.171-3.255-.263a2.034,2.034,0,0,0-.233-.525,31.281,31.281,0,0,1-5-8.216,50.015,50.015,0,0,1-3.458-18.6c.607.9,1.208,1.815,2.523,1.6a2.893,2.893,0,0,0,2.276-2.214,8.2,8.2,0,0,0-.141-5.668c-.491-1.2-1.331-2.219-2.8-1.772a7.165,7.165,0,0,0-1.911,1.4c.158-4.392.243-8.788.513-13.173A8.759,8.759,0,0,1,22.63,56.4a8.864,8.864,0,0,1,6.7-3.9c.622.364,1.246.723,1.864,1.092a1.83,1.83,0,0,0,2.7-.594,1.737,1.737,0,0,0-.815-2.357c-2.656-1.546-5.342-3.041-8.016-4.556q1.653-3.747,3.308-7.493m19.3,61.225v.018c.473,0,.946.014,1.418,0,2.306-.081,4.634,0,6.91-.3a11.943,11.943,0,0,0,6.109-3,11.743,11.743,0,0,0,4.1-6.789,26.666,26.666,0,0,0,.279-8.114,12.815,12.815,0,0,0-6.536-10.159c-2.493-1.5-5.307-1.572-8.052-1.648-3.641-.1-7.289.141-10.935.187-5.17.065-9.928,4.632-11.2,9.25-.67,2.444-.3,4.89-.456,7.332a11.373,11.373,0,0,0,.981,5.18,13.067,13.067,0,0,0,11.706,8.042c1.89.029,3.782.005,5.673.005M84.909,53.454a18.839,18.839,0,0,1-1.717,6.732c-.606,1.242-.366,2.466.6,2.914.822.381,1.925-.214,2.542-1.331a19.076,19.076,0,0,0,2.082-7.606,3.426,3.426,0,0,0-2.389-3.9,6.665,6.665,0,0,0-2.805-.1A17,17,0,0,0,75.838,53.2a1.681,1.681,0,0,0-.382,2.4,1.561,1.561,0,0,0,2.232.484c.344-.162.663-.377,1-.559a16.315,16.315,0,0,1,6.224-2.065m-9.2,23.74a27.107,27.107,0,0,0-1.011-3.34,2.362,2.362,0,0,0-2.5-1.514,2.267,2.267,0,0,0-1.939,1.6,6.775,6.775,0,0,0,.358,7.03,2.125,2.125,0,0,0,3.824-.067,26.091,26.091,0,0,0,1.265-3.708" transform="translate(-2128.213 4757)" fill="#ffcbbe"/>
      <path id="Trazado_275417" data-name="Trazado 275417" d="M11.088,23.681c1.09-.4,1.317-1.171,1.213-2.285A15.958,15.958,0,0,1,16.659,8.348a14.724,14.724,0,0,1,9.6-4.608,15.3,15.3,0,0,1,10.9,2.828A15.154,15.154,0,0,1,43.54,17.079a15.109,15.109,0,0,1-2.684,11.292,15.366,15.366,0,0,1-12.5,6.656,15.32,15.32,0,0,1-11.92-4.99,9.561,9.561,0,0,1-1.542-2.03,2.254,2.254,0,0,0-2.612-1.249q-.6-1.537-1.192-3.077m14.871,7.333c.085,1.66.725,2.594,1.85,2.572,1.166-.023,1.616-.761,1.808-2.991a8.53,8.53,0,0,0,5.144-3.059,5.815,5.815,0,0,0,1.357-4.661c-.416-2.727-2.155-4.289-4.7-5.16a61.284,61.284,0,0,1-6.277-2.434,1.741,1.741,0,0,1-.051-3.207,6.5,6.5,0,0,1,6.616.173,1.855,1.855,0,0,0,2.475-.479,1.705,1.705,0,0,0-.476-2.456,22.576,22.576,0,0,0-3.29-1.251c-.6-.185-.911-.384-.891-1.08.037-1.265-.4-1.743-1.459-1.778A1.809,1.809,0,0,0,26,6.886c-.032.346,0,.7,0,1.064-.168.041-.272.075-.379.092-3.528.557-5.92,4.458-4.824,7.484.777,2.144,2.576,3.1,4.518,3.839,1.679.635,3.417,1.116,5.116,1.7,2.126.733,2.909,2.579,1.6,4.137a5.685,5.685,0,0,1-2.663,1.707,8.4,8.4,0,0,1-6.4-.63c-1.5-.793-2.368-.563-2.919.589-.513,1.073-.064,2.048,1.44,2.662,1.4.572,2.879.963,4.475,1.483" transform="translate(-2128.213 4757)" fill="#fecf64"/>
      <path id="Trazado_275418" data-name="Trazado 275418" d="M83.045,105.018c.062-.065.127-.13.189-.195-.062.065-.127.13-.189.195" transform="translate(-2128.213 4757)" fill="#eaeaea"/>
      <path id="Trazado_275419" data-name="Trazado 275419" d="M21.092,80.477a50.031,50.031,0,0,0,3.459,18.6,31.264,31.264,0,0,0,5,8.216,2.1,2.1,0,0,1,.233.525A26.608,26.608,0,0,1,17.9,104.1,27.563,27.563,0,0,1,6.224,90.767a23.031,23.031,0,0,1-1.975-8.15c-.1-2.74-.165-5.48-.262-8.22-.058-1.639-.154-3.278-.22-4.917a1.307,1.307,0,0,1,.308-.913c.522,1.083,1.032,2.172,1.571,3.246.414.825.827,1.656,1.308,2.442a1.724,1.724,0,0,0,2.556.7A1.8,1.8,0,0,0,10,72.542c-.887-1.884-1.885-3.723-2.656-5.653A47.174,47.174,0,0,1,4.261,55.447c-.238-1.84-.572-3.672-.715-5.519a4.668,4.668,0,0,1,5.542-4.876,72.136,72.136,0,0,1,10.024,2.477A47.153,47.153,0,0,1,29.328,52.5a8.863,8.863,0,0,0-6.7,3.905,8.753,8.753,0,0,0-1.08,4.251c-.271,4.384-.356,8.78-.513,13.172a7.805,7.805,0,0,0,.055,6.653m-10-26.734a4.462,4.462,0,0,1,.533-.048,12.692,12.692,0,0,1,5.906,2.128c1.212.715,2.425.6,2.927-.237a1.974,1.974,0,0,0-1.172-2.818,59.36,59.36,0,0,0-6.46-2.546,3.985,3.985,0,0,0-3.648.32,4.164,4.164,0,0,0-1.673,4.3,19.419,19.419,0,0,0,2.165,7.025,2.534,2.534,0,0,0,1.412,1.194,1.758,1.758,0,0,0,1.574-.589,2.983,2.983,0,0,0,.07-2.161,15.29,15.29,0,0,1-1.634-6.572" transform="translate(-2128.213 4757)" fill="#eaac9d"/>
      <path id="Trazado_275420" data-name="Trazado 275420" d="M79.423,109.04c.01,1.728.066,3.458.018,5.184a3.379,3.379,0,0,1-3.221,3.309c-3.574.035-7.15-.008-10.725-.02-.672-1.389-1.344-2.778-2.105-4.353.653-.048.992-.1,1.329-.093a25.3,25.3,0,0,0,9.434-1.7c1.8-.667,3.516-1.547,5.27-2.331" transform="translate(-2128.213 4757)" fill="#ffcbbe"/>
      <path id="Trazado_275421" data-name="Trazado 275421" d="M22.929,117.506c-1.14.015-2.281.069-3.419.034a3.32,3.32,0,0,1-2.965-3.2c-.041-2.24-.01-4.482-.01-6.93,6.343,3.754,13.274,4.293,20.5,4.229l-.856,1.911a13.364,13.364,0,0,0-1.331-.249c-2.953-.251-5.915-.416-8.857-.753a28.889,28.889,0,0,1-3.88-.983,8.607,8.607,0,0,0,.819,5.944" transform="translate(-2128.213 4757)" fill="#e9ac9d"/>
      <path id="Trazado_275422" data-name="Trazado 275422" d="M28.364,38.588l-3.308,7.493L14.811,42.292a24.935,24.935,0,0,1,2.678-2.767c1.043-.814,1.761-2.346,3.309-2.2,1.3.124,2.553.752,3.858.982a35.38,35.38,0,0,0,3.708.28" transform="translate(-2128.213 4757)" fill="#e9ac9d"/>
      <path id="Trazado_275423" data-name="Trazado 275423" d="M22.929,117.506a8.607,8.607,0,0,1-.819-5.944,28.889,28.889,0,0,0,3.88.983c2.942.337,5.9.5,8.857.753a13.364,13.364,0,0,1,1.331.249c-.612,1.6-.956,3.4-3.036,3.839a3.451,3.451,0,0,1-.656.157c-3.186,0-6.371-.022-9.557-.037" transform="translate(-2128.213 4757)" fill="#ffcbbe"/>
      <path id="Trazado_275424" data-name="Trazado 275424" d="M79.423,109.04c-1.754.784-3.473,1.664-5.27,2.331a25.3,25.3,0,0,1-9.434,1.7c-.337-.008-.676.045-1.329.093.761,1.575,1.433,2.964,2.105,4.353-1.332-.055-2.761.445-3.916-.633a4.276,4.276,0,0,1-1.027-1.2c-.6-1.291-1.091-2.629-1.667-4.048,7.154.06,14.094-.5,20.538-4.325Z" transform="translate(-2128.213 4757)" fill="#e9ab9d"/>
      <path id="Trazado_275425" data-name="Trazado 275425" d="M47.664,99.813c-1.891,0-3.783.025-5.673,0a13.067,13.067,0,0,1-11.706-8.042,11.375,11.375,0,0,1-.981-5.18c.159-2.442-.214-4.888.457-7.333,1.267-4.618,6.025-9.184,11.2-9.25,3.646-.046,7.294-.288,10.935-.187,2.745.076,5.559.148,8.052,1.648a12.817,12.817,0,0,1,6.536,10.16,26.659,26.659,0,0,1-.279,8.113,11.737,11.737,0,0,1-4.1,6.789,11.928,11.928,0,0,1-6.109,3c-2.276.3-4.6.224-6.91.305-.472.017-.945,0-1.418,0Zm.132-3.548c1.969,0,3.94.035,5.908-.008a9.414,9.414,0,0,0,7.66-4.153,8.551,8.551,0,0,0,1.473-3.9,42.141,42.141,0,0,0,.04-6.387c-.117-3.04-1.757-5.188-4.161-6.91-2.055-1.472-4.442-1.424-6.745-1.542-3.182-.163-6.379-.068-9.569-.022a11.7,11.7,0,0,0-2.734.379,9.416,9.416,0,0,0-6.819,9.225c.085,1.374.022,2.757.02,4.135a9.434,9.434,0,0,0,9.137,9.18c1.93.03,3.86,0,5.79,0" transform="translate(-2128.213 4757)" fill="#010101"/>
      <path id="Trazado_275426" data-name="Trazado 275426" d="M84.909,53.454a16.315,16.315,0,0,0-6.224,2.065c-.335.182-.654.4-1,.559a1.562,1.562,0,0,1-2.233-.483,1.683,1.683,0,0,1,.382-2.4,17,17,0,0,1,7.382-3.032,6.665,6.665,0,0,1,2.805.1,3.426,3.426,0,0,1,2.389,3.9,19.043,19.043,0,0,1-2.082,7.606c-.616,1.117-1.72,1.712-2.541,1.331-.964-.448-1.2-1.672-.6-2.913a18.851,18.851,0,0,0,1.718-6.733" transform="translate(-2128.213 4757)" fill="#010101"/>
      <path id="Trazado_275427" data-name="Trazado 275427" d="M21.092,80.477a7.8,7.8,0,0,1-.055-6.653,7.177,7.177,0,0,1,1.911-1.4c1.471-.446,2.311.571,2.8,1.773a8.194,8.194,0,0,1,.14,5.668,2.891,2.891,0,0,1-2.275,2.213c-1.316.219-1.917-.693-2.524-1.6" transform="translate(-2128.213 4757)" fill="#010101"/>
      <path id="Trazado_275428" data-name="Trazado 275428" d="M75.71,77.194A26.091,26.091,0,0,1,74.445,80.9a2.125,2.125,0,0,1-3.824.067,6.775,6.775,0,0,1-.358-7.03,2.267,2.267,0,0,1,1.939-1.6,2.362,2.362,0,0,1,2.5,1.514,27.107,27.107,0,0,1,1.011,3.34" transform="translate(-2128.213 4757)" fill="#010101"/>
      <path id="Trazado_275429" data-name="Trazado 275429" d="M25.959,31.014c-1.6-.52-3.073-.911-4.475-1.483-1.5-.614-1.953-1.589-1.44-2.662.551-1.152,1.417-1.382,2.919-.589a8.4,8.4,0,0,0,6.4.63A5.685,5.685,0,0,0,32.03,25.2c1.305-1.558.522-3.4-1.6-4.137-1.7-.585-3.437-1.066-5.116-1.7-1.942-.735-3.741-1.695-4.518-3.839-1.1-3.026,1.3-6.927,4.824-7.484.107-.017.211-.051.379-.092,0-.367-.027-.718,0-1.064A1.809,1.809,0,0,1,28.067,5.2c1.056.035,1.5.513,1.459,1.778-.02.7.293.895.891,1.08a22.576,22.576,0,0,1,3.29,1.251,1.705,1.705,0,0,1,.476,2.456,1.855,1.855,0,0,1-2.475.479,6.5,6.5,0,0,0-6.616-.173,1.741,1.741,0,0,0,.051,3.207,61.284,61.284,0,0,0,6.277,2.434c2.543.871,4.282,2.433,4.7,5.16a5.815,5.815,0,0,1-1.357,4.661,8.53,8.53,0,0,1-5.144,3.059c-.192,2.23-.642,2.968-1.808,2.991-1.125.022-1.765-.912-1.85-2.572" transform="translate(-2128.213 4757)" fill="#010100"/>
      <path id="Trazado_275430" data-name="Trazado 275430" d="M11.091,53.743a15.29,15.29,0,0,0,1.634,6.572,2.983,2.983,0,0,1-.07,2.161,1.758,1.758,0,0,1-1.574.589,2.534,2.534,0,0,1-1.412-1.194A19.419,19.419,0,0,1,7.5,54.846a4.164,4.164,0,0,1,1.673-4.3,3.985,3.985,0,0,1,3.648-.32,59.36,59.36,0,0,1,6.46,2.546,1.974,1.974,0,0,1,1.172,2.818c-.5.835-1.715.952-2.927.237a12.692,12.692,0,0,0-5.906-2.128,4.462,4.462,0,0,0-.533.048" transform="translate(-2128.213 4757)" fill="#010101"/>
      <path id="Trazado_275431" data-name="Trazado 275431" d="M47.8,96.265c-1.93,0-3.861.025-5.79,0a9.434,9.434,0,0,1-9.137-9.18c0-1.378.065-2.761-.02-4.135a9.416,9.416,0,0,1,6.819-9.225,11.649,11.649,0,0,1,2.734-.38c3.189-.045,6.387-.141,9.568.023,2.3.118,4.691.069,6.746,1.542,2.4,1.722,4.043,3.87,4.161,6.91a42.142,42.142,0,0,1-.04,6.387,8.563,8.563,0,0,1-1.473,3.9,9.414,9.414,0,0,1-7.66,4.153c-1.969.043-3.939.008-5.908.008M45.154,85.006c0-.669-.017-1.339.005-2.008a1.435,1.435,0,0,0-1.329-1.61c-.855-.13-1.8.053-1.929,1.037a20.45,20.45,0,0,0-.19,4.756,1.781,1.781,0,0,0,1.948,1.5,1.863,1.863,0,0,0,1.495-2.021c0-.552,0-1.1,0-1.654m8.99-.063c0-.59-.031-1.183.007-1.771.07-1.086-.644-1.559-1.5-1.783a1.406,1.406,0,0,0-1.865,1.123,22.676,22.676,0,0,0-.029,4.982c.119,1.053,1.158,1.141,2.084.964a1.449,1.449,0,0,0,1.293-1.508c.018-.668,0-1.338.006-2.007" transform="translate(-2128.213 4757)" fill="#ffddce"/>
      <path id="Trazado_275432" data-name="Trazado 275432" d="M45.154,85.006c0,.551,0,1.1,0,1.654a1.863,1.863,0,0,1-1.494,2.021,1.781,1.781,0,0,1-1.949-1.5,20.515,20.515,0,0,1,.19-4.757c.133-.983,1.074-1.166,1.929-1.036A1.435,1.435,0,0,1,45.159,83c-.022.669,0,1.339-.005,2.008" transform="translate(-2128.213 4757)" fill="#010101"/>
      <path id="Trazado_275433" data-name="Trazado 275433" d="M54.141,84.943c0,.669.015,1.339,0,2.007a1.449,1.449,0,0,1-1.293,1.508c-.926.177-1.964.089-2.083-.964a22.738,22.738,0,0,1,.028-4.982,1.406,1.406,0,0,1,1.866-1.123c.852.224,1.566.7,1.5,1.783-.038.588-.006,1.181-.009,1.771" transform="translate(-2128.213 4757)" fill="#010101"/>
    </g>
  </g>
</svg>
