<svg xmlns="http://www.w3.org/2000/svg" width="169.179" height="169.178" viewBox="0 0 169.179 169.178">
  <g id="Grupo_1070889" data-name="Grupo 1070889" transform="translate(1321 -3687.832)">
    <path id="Trazado_275383" data-name="Trazado 275383" d="M1125.074,90.251a84.589,84.589,0,1,1-84.589-84.589,84.589,84.589,0,0,1,84.589,84.589" transform="translate(-2276.895 3682.17)" fill="#fffad0"/>
    <g id="Grupo_257447" data-name="Grupo 257447" transform="translate(4.734 -1045.084)">
      <path id="Trazado_275384" data-name="Trazado 275384" d="M880.976,71.395a27.294,27.294,0,0,1-8.7,8.33,18.544,18.544,0,0,1,3.238.916,4.758,4.758,0,0,1,2.712,4.21,34.644,34.644,0,0,1-.405,5.7,6.2,6.2,0,0,1-.822,1.74c1.91,2.843,1.394,5.972.916,8.979,1.263-.078,2.53-.22,3.8-.223q12.975-.03,25.95,0c3.559.011,5.831,2.228,5.8,5.839a23.047,23.047,0,0,1-.455,4.813,4.993,4.993,0,0,1-4.6,3.407c-9.639.011-19.279.027-28.919-.028a10.726,10.726,0,0,1-2.378-.784,2.936,2.936,0,0,0-1.357-.029,15.188,15.188,0,0,1-3.031.813c-9.419.06-18.839.037-28.259.021a5.059,5.059,0,0,1-4.866-4.872c.007-1.812-.226-3.728.285-5.4a7.537,7.537,0,0,0,0-4.1c-.535-2.622-.942-5.425.59-8a1.614,1.614,0,0,0-.042-1.05,19.45,19.45,0,0,1-.816-3.036,14.886,14.886,0,0,1,.08-4.7c.608-2.454,2.177-3.827,5.115-4.017.2-.013.409,0,.731,0-12.966-8.4-15.267-22.07-11.3-32.37a26.7,26.7,0,0,1,8.3-11.222A25.392,25.392,0,0,1,855.288,30.9a28.026,28.026,0,0,1,13.845,1.8c3.4-10.921,10.114-18.946,20.54-23.57a35.622,35.622,0,0,1,27.565-.844,36.587,36.587,0,0,1,22.5,46.016c-3.965,12.286-12.5,20.416-24.893,24.1-12.429,3.695-23.714.892-33.872-7.01m23.38,5.1c1.262-.1,2.523-.214,3.786-.31a29.1,29.1,0,0,0,9.457-2.433,33.628,33.628,0,0,0,18.343-19.163A30.224,30.224,0,0,0,937.9,41.805a39.218,39.218,0,0,0-.495-5.492,33.425,33.425,0,0,0-7.429-15.08,33.779,33.779,0,0,0-9.236-7.513,32.667,32.667,0,0,0-11.754-3.794,34.4,34.4,0,0,0-10.229.1,33.22,33.22,0,0,0-20.144,11.867,35.265,35.265,0,0,0-6.047,11.623.972.972,0,0,0,.5,1.349,26.124,26.124,0,0,1,6.8,6.268,25.512,25.512,0,0,1,5.284,16.865,27.6,27.6,0,0,1-2.085,9.591,1,1,0,0,0,.12.889,14.244,14.244,0,0,0,1.982,1.682,33.937,33.937,0,0,0,19.188,6.334m-45.578,3.424A22.85,22.85,0,0,0,881.59,54.63a21.755,21.755,0,0,0-7.441-14.575c-5.06-4.529-11.043-6.226-17.793-5.7a22.851,22.851,0,0,0,2.422,45.563m23.034,24.638c-.565,0-1,0-1.437,0-1.531.014-2.069.558-2.081,2.116-.007.99-.013,1.98,0,2.969.021,1.347.595,1.947,1.913,1.948q13.8.012,27.6-.011a2.4,2.4,0,0,0,1.306-.374c1.285-.906,1.315-5.481-.03-6.255a8.974,8.974,0,0,0-2.67-.544V108h-3.531v-3.379h-3.531v3.367H895.82V104.6h-3.454v3.422h-3.531v-3.41H885.3v3.4h-3.492Zm-10.615,0v3.436h-3.5v-3.383h-3.5v3.4h-3.539v-3.384h-3.538v3.364h-3.5v-3.383h-3.5v3.4h-3.538v-3.456c-.532,0-.968,0-1.4,0-1.53.015-2.065.559-2.077,2.125q-.01,1.374,0,2.749c.01,1.628.533,2.161,2.148,2.162q7.092.008,14.184,0,6.488,0,12.976,0c1.664,0,2.36-.712,2.365-2.4,0-.879.019-1.759-.005-2.639a1.986,1.986,0,0,0-1.99-2c-.469-.019-.94,0-1.581,0M860.681,83.516h-3.539V86.9h-3.5V83.5H850.1v3.388h-3.538V83.436c-.534,0-.972,0-1.41,0-1.482.016-2.04.562-2.055,2.036-.011,1.1-.026,2.2.011,3.3a1.592,1.592,0,0,0,1.717,1.693q13.965.02,27.93,0a1.956,1.956,0,0,0,2.008-1.974c.027-1.026.025-2.053,0-3.079a1.986,1.986,0,0,0-1.682-1.959,17.47,17.47,0,0,0-1.827-.011V86.9H867.72V83.5h-3.539v3.387h-3.5Zm3.537,13.93h-3.57V94.067h-3.531v3.367h-3.531V94.04h-3.453v3.422H846.6V93.994c-.56,0-1.03-.005-1.5,0-1.412.018-1.982.573-2,1.974-.015,1.062-.019,2.126,0,3.188a1.653,1.653,0,0,0,1.878,1.87q13.854.012,27.708,0a1.951,1.951,0,0,0,2.078-2.011c.023-1.026.018-2.053,0-3.079a1.9,1.9,0,0,0-1.609-1.9,8.674,8.674,0,0,0-1.919-.026v3.452H867.71v-3.4h-3.492Z" transform="translate(-2128.213 4757)" fill="#010100"/>
      <rect id="Rectángulo_323545" data-name="Rectángulo 323545" width="24.548" height="3.394" transform="translate(-1218.182 4840.498)"/>
      <rect id="Rectángulo_323546" data-name="Rectángulo 323546" width="24.509" height="3.433" transform="translate(-1218.163 4847.516)"/>
      <rect id="Rectángulo_323547" data-name="Rectángulo 323547" width="3.396" height="3.432" transform="translate(-1197.067 4854.575)"/>
      <rect id="Rectángulo_323548" data-name="Rectángulo 323548" width="3.396" height="3.432" transform="translate(-1211.144 4854.538)"/>
      <rect id="Rectángulo_323549" data-name="Rectángulo 323549" width="3.367" height="3.406" transform="translate(-1204.091 4854.589)"/>
      <path id="Trazado_275385" data-name="Trazado 275385" d="M904.356,76.49a33.951,33.951,0,0,1-19.188-6.335,14.225,14.225,0,0,1-1.981-1.681,1,1,0,0,1-.12-.889,27.6,27.6,0,0,0,2.085-9.591,25.511,25.511,0,0,0-5.284-16.865,26.127,26.127,0,0,0-6.8-6.268.971.971,0,0,1-.5-1.349,35.226,35.226,0,0,1,6.047-11.623,33.208,33.208,0,0,1,20.143-11.867,34.375,34.375,0,0,1,10.23-.1,32.655,32.655,0,0,1,11.754,3.794,33.793,33.793,0,0,1,9.236,7.513,33.418,33.418,0,0,1,7.428,15.08,39.062,39.062,0,0,1,.5,5.491,30.225,30.225,0,0,1-1.958,12.78A33.636,33.636,0,0,1,917.6,73.747a29.1,29.1,0,0,1-9.457,2.433c-1.263.1-2.525.206-3.787.31m16.682-52.25L886.064,59.216l2.064,2.376,35.109-35.111-2.2-2.241m-32.185,9.821a7,7,0,1,0,14,.109c0-3.938-2.761-6.95-7.252-7a6.722,6.722,0,0,0-6.753,6.894M913.278,58.8a6.993,6.993,0,0,0,7.176-6.992c.053-4.04-2.911-7.058-7.321-7.043a6.812,6.812,0,0,0-6.688,7.514,6.971,6.971,0,0,0,6.833,6.521m4.551,6.949c.5.924.928,1.79,1.447,2.593a.879.879,0,0,0,.847.164A30.378,30.378,0,0,0,930.852,57.34a29.736,29.736,0,0,0,3.309-9.639c.265-1.537.3-3.113.449-4.71H931a26.318,26.318,0,0,1-3.455,13.044,25.206,25.206,0,0,1-9.72,9.712M898,17.4c-.2-.9-.382-1.727-.579-2.551-.119-.5-.376-.913-.961-.664-2.5,1.065-5.087,1.989-7.461,3.293a25.542,25.542,0,0,0-7.457,6.495,28.208,28.208,0,0,0-4.619,7.777l3.163,1.35c3.592-8.009,9.443-13.39,17.914-15.7m13.249,51.168c.293,1.151.553,2.17.854,3.355l3.783-1.2c-.4-.938-.8-1.7-1.055-2.5-.19-.6-.381-.749-1-.489-.8.339-1.659.543-2.586.835m-6.629-52.1V12.989l-3.708.337a18.331,18.331,0,0,1,.234,2.466c-.031.89.384,1.083,1.123.991.773-.1,1.545-.208,2.351-.317m.1,56.482,3.6-.306c-.135-1.182-.262-2.3-.392-3.446l-3.212.23Z" transform="translate(-2128.213 4757)" fill="#e6e9ed"/>
      <path id="Trazado_275386" data-name="Trazado 275386" d="M858.778,79.913a22.85,22.85,0,0,1-2.422-45.562c6.75-.523,12.734,1.174,17.794,5.7a21.758,21.758,0,0,1,7.441,14.576,22.85,22.85,0,0,1-22.813,25.283M839.58,57a19.341,19.341,0,1,0,38.681.081c.1-9.768-8.041-20.444-21.7-19.223-8.4.75-17.194,8.712-16.977,19.142" transform="translate(-2128.213 4757)" fill="#fec629"/>
      <path id="Trazado_275387" data-name="Trazado 275387" d="M881.812,104.552v3.456H885.3v-3.4h3.531v3.411h3.531V104.6h3.453v3.394h3.531v-3.367h3.531V108h3.532v-3.6a8.929,8.929,0,0,1,2.669.544c1.345.773,1.316,5.349.031,6.255a2.4,2.4,0,0,1-1.307.374q-13.8.03-27.6.011c-1.318,0-1.892-.6-1.913-1.948-.016-.99-.01-1.98,0-2.969.012-1.559.55-2.1,2.081-2.116.436,0,.872,0,1.436,0" transform="translate(-2128.213 4757)" fill="#ffeaa7"/>
      <path id="Trazado_275388" data-name="Trazado 275388" d="M871.2,104.552c.641,0,1.112-.016,1.581,0a1.988,1.988,0,0,1,1.99,2c.023.879.007,1.759,0,2.639-.005,1.686-.7,2.4-2.365,2.4q-6.488.006-12.975,0-7.092,0-14.185,0c-1.615,0-2.137-.534-2.148-2.163q-.009-1.374,0-2.749c.013-1.565.548-2.11,2.078-2.125.436,0,.871,0,1.4,0v3.456h3.538v-3.4h3.5v3.384h3.5v-3.364h3.539v3.383H864.2v-3.4h3.5v3.383h3.5Z" transform="translate(-2128.213 4757)" fill="#fcd770"/>
      <path id="Trazado_275389" data-name="Trazado 275389" d="M860.681,83.516v3.368h3.5V83.5h3.539V86.9h3.538v-3.46a17.47,17.47,0,0,1,1.827.011,1.986,1.986,0,0,1,1.682,1.959c.024,1.026.027,2.053,0,3.079a1.956,1.956,0,0,1-2.008,1.974q-13.965.016-27.93,0a1.592,1.592,0,0,1-1.717-1.693c-.037-1.1-.022-2.2-.011-3.3.014-1.474.573-2.02,2.055-2.036.438,0,.876,0,1.41,0v3.448H850.1V83.5h3.538V86.9h3.5V83.516Z" transform="translate(-2128.213 4757)" fill="#fcd770"/>
      <path id="Trazado_275390" data-name="Trazado 275390" d="M864.218,97.446v-3.39h3.492v3.4h3.531V94.006a8.674,8.674,0,0,1,1.919.026,1.9,1.9,0,0,1,1.609,1.9c.017,1.026.022,2.053,0,3.079a1.951,1.951,0,0,1-2.078,2.011q-13.854.014-27.708,0a1.653,1.653,0,0,1-1.878-1.87c-.021-1.062-.017-2.126,0-3.188.019-1.4.589-1.956,2-1.974.469-.006.939,0,1.5,0v3.468h3.531V94.04h3.453v3.394h3.531V94.067h3.531v3.379Z" transform="translate(-2128.213 4757)" fill="#ffeaa7"/>
      <path id="Trazado_275391" data-name="Trazado 275391" d="M921.037,24.239l2.2,2.241-35.11,35.111-2.063-2.376,34.973-34.976" transform="translate(-2128.213 4757)" fill="#020202"/>
      <path id="Trazado_275392" data-name="Trazado 275392" d="M888.853,34.06a6.721,6.721,0,0,1,6.752-6.893c4.491.053,7.257,3.065,7.252,7a7,7,0,1,1-14-.11m3.52.044a3.445,3.445,0,0,0,3.371,3.577,3.517,3.517,0,0,0,3.609-3.562c-.128-2.133-1.326-3.31-3.711-3.449a3.4,3.4,0,0,0-3.269,3.434" transform="translate(-2128.213 4757)" fill="#010101"/>
      <path id="Trazado_275393" data-name="Trazado 275393" d="M913.278,58.8a6.972,6.972,0,0,1-6.834-6.52,6.813,6.813,0,0,1,6.689-7.515c4.409-.015,7.374,3,7.321,7.043a6.993,6.993,0,0,1-7.176,6.992m.107-3.521a3.641,3.641,0,0,0,3.6-3.5c.11-1.807-1.716-3.495-3.679-3.534a3.489,3.489,0,0,0-3.336,3.5,3.427,3.427,0,0,0,3.415,3.532" transform="translate(-2128.213 4757)" fill="#010101"/>
      <path id="Trazado_275394" data-name="Trazado 275394" d="M917.829,65.746a25.194,25.194,0,0,0,9.719-9.711A26.3,26.3,0,0,0,931,42.992h3.607c-.145,1.6-.184,3.171-.449,4.709a29.736,29.736,0,0,1-3.309,9.639A30.4,30.4,0,0,1,920.123,68.5a.889.889,0,0,1-.848-.165c-.519-.8-.943-1.668-1.446-2.594" transform="translate(-2128.213 4757)" fill="#010101"/>
      <path id="Trazado_275395" data-name="Trazado 275395" d="M898,17.4c-8.471,2.31-14.323,7.691-17.914,15.7l-3.164-1.35a28.262,28.262,0,0,1,4.619-7.777,25.561,25.561,0,0,1,7.458-6.5c2.374-1.3,4.958-2.227,7.46-3.293.585-.249.843.166.962.665.2.823.376,1.651.579,2.551" transform="translate(-2128.213 4757)" fill="#010101"/>
      <path id="Trazado_275396" data-name="Trazado 275396" d="M911.249,68.568c.926-.292,1.784-.5,2.586-.835.615-.26.8-.11,1,.489.256.8.651,1.563,1.055,2.5l-3.783,1.2c-.3-1.185-.561-2.2-.854-3.355" transform="translate(-2128.213 4757)" fill="#020202"/>
      <path id="Trazado_275397" data-name="Trazado 275397" d="M904.619,16.466c-.806.109-1.577.22-2.35.316-.739.093-1.155-.1-1.124-.991a18.342,18.342,0,0,0-.234-2.465l3.708-.338Z" transform="translate(-2128.213 4757)" fill="#010101"/>
      <path id="Trazado_275398" data-name="Trazado 275398" d="M904.715,72.948V69.426l3.212-.23c.13,1.143.257,2.264.392,3.446l-3.6.306" transform="translate(-2128.213 4757)"/>
      <path id="Trazado_275399" data-name="Trazado 275399" d="M839.58,57c-.217-10.43,8.579-18.392,16.977-19.142,13.663-1.22,21.806,9.454,21.7,19.223A19.341,19.341,0,1,1,839.58,57m3.52.035c-.352,8.226,7.285,16.686,16.946,15.823,7.831-.7,14.677-6.744,14.653-15.852-.023-8.956-6.677-15.608-15.82-15.758A15.572,15.572,0,0,0,843.1,57.035" transform="translate(-2128.213 4757)" fill="#010100"/>
      <path id="Trazado_275400" data-name="Trazado 275400" d="M892.373,34.1a3.4,3.4,0,0,1,3.269-3.434c2.385.139,3.583,1.316,3.711,3.449a3.517,3.517,0,0,1-3.609,3.562,3.445,3.445,0,0,1-3.371-3.577" transform="translate(-2128.213 4757)" fill="#e5e8ec"/>
      <path id="Trazado_275401" data-name="Trazado 275401" d="M913.385,55.277a3.427,3.427,0,0,1-3.415-3.532,3.489,3.489,0,0,1,3.336-3.5c1.963.039,3.789,1.727,3.679,3.534a3.641,3.641,0,0,1-3.6,3.5" transform="translate(-2128.213 4757)" fill="#e5e8ec"/>
      <path id="Trazado_275402" data-name="Trazado 275402" d="M843.1,57.035a15.572,15.572,0,0,1,15.779-15.787c9.143.15,15.8,6.8,15.82,15.758.024,9.108-6.822,15.153-14.653,15.852-9.661.863-17.3-7.6-16.946-15.823m8.893,3.564c-.266,2.929,2.213,5.135,5.2,5.342v3.354h3.536v-3.5h5.242c0-1.817.073-3.54-.017-5.255a5.011,5.011,0,0,0-4.419-5.04c-1.445-.126-2.9-.168-4.349-.215a1.6,1.6,0,0,1-1.734-1.449,14.877,14.877,0,0,1-.019-2.074c1.7,0,3.272.019,4.844-.006a2.07,2.07,0,0,1,2,1.2c.119.22.351.526.544.536,1.037.053,2.078.025,3.132.025-.337-3.3-2.214-4.91-5.312-5.325V44.8h-3.536v3.478h-5.1c-.053.122-.1.185-.1.249-.007,1.685.047,3.374-.028,5.057a5.014,5.014,0,0,0,3.7,4.946,33.68,33.68,0,0,0,4.767.269,2.04,2.04,0,0,1,2.088,1.669,17.023,17.023,0,0,1,.013,1.854c-1.636,0-3.135,0-4.635,0-1.663,0-1.945-.195-2.544-1.718Z" transform="translate(-2128.213 4757)" fill="#fcd770"/>
      <path id="Trazado_275403" data-name="Trazado 275403" d="M851.993,60.6h3.274c.6,1.523.881,1.716,2.544,1.718,1.5,0,3,0,4.635,0a17.023,17.023,0,0,0-.013-1.854,2.04,2.04,0,0,0-2.088-1.669,33.68,33.68,0,0,1-4.767-.269,5.014,5.014,0,0,1-3.7-4.946c.075-1.683.021-3.372.028-5.057,0-.064.052-.127.1-.249h5.1V44.8h3.536v3.4c3.1.415,4.975,2.022,5.312,5.325-1.054,0-2.095.028-3.132-.025-.193-.01-.425-.316-.544-.536a2.07,2.07,0,0,0-2-1.2c-1.572.025-3.145.006-4.844.006a14.877,14.877,0,0,0,.019,2.074,1.6,1.6,0,0,0,1.734,1.449c1.45.047,2.9.089,4.349.215a5.011,5.011,0,0,1,4.419,5.04c.09,1.715.017,3.438.017,5.255h-5.242v3.5H857.2V65.941c-2.99-.207-5.469-2.413-5.2-5.342" transform="translate(-2128.213 4757)" fill="#010100"/>
    </g>
  </g>
</svg>
