<svg xmlns="http://www.w3.org/2000/svg" width="216" height="225.771" viewBox="0 0 216 225.771">
  <g id="Grupo_1070890" data-name="Grupo 1070890" transform="translate(932.818 -3687.832)">
    <text id="Auxilio_de_transporte" data-name="Auxilio de transporte" transform="translate(-824.818 3907.604)" fill="#12263f" font-size="24" font-family="Roboto-Bold, Roboto" font-weight="700" letter-spacing="-0.022em"><tspan x="-107.437" y="0">Auxilio de transporte</tspan></text>
    <path id="Trazado_275435" data-name="Trazado 275435" d="M1125.074,90.251a84.589,84.589,0,1,1-84.589-84.589,84.589,84.589,0,0,1,84.589,84.589" transform="translate(-1864.895 3682.17)" fill="#fffad0"/>
    <g id="Grupo_257449" data-name="Grupo 257449" transform="translate(-255 -1369.168)">
      <path id="Trazado_275436" data-name="Trazado 275436" d="M33.381,0H73.69a21.769,21.769,0,0,1,2.792,1.258,8.1,8.1,0,0,1,3.648,5.25c3.106,0,6.205-.105,9.3.028,3.4.146,6.255,3.31,6.544,6.644a1.382,1.382,0,0,0,.634.981,27.733,27.733,0,0,0,3.483,1.355c4.908,1.5,7.369,5.389,7.394,10.226.038,7.172.054,14.346-.01,21.518-.027,3.089-1.7,4.534-4.516,4.778a4.3,4.3,0,0,1-4.672-4.231q0-10.968-.01-21.938c0-1.32-.676-1.919-2.168-1.869v1.13q0,26.031,0,52.063c0,1.537-.252,1.881-1.6,2.215-1.18-.149-1.531-.489-1.539-1.641-.02-2.689-.008-5.378-.009-8.068V68.227l-6.881,1.3c-.438.064-.879.116-1.314.194-3.461.619-6.907,1.333-10.384,1.841-3.637.531-7.3.935-10.957,1.263-2.831.253-5.679.378-8.521.421-2.5.038-5.009-.106-7.513-.193-1.14-.04-2.283-.093-3.416-.218-2.937-.323-5.872-.661-8.8-1.044-2.987-.39-5.979-.766-8.946-1.282-3.883-.676-7.744-1.484-11.626-2.238a3.006,3.006,0,0,0-.056.381c.005,7.241-.005,14.482.03,21.723a4.428,4.428,0,0,0,4.242,4.083q32.112,0,64.225,0c.384,0,.768-.024,1.152-.036,1.4.012,2.791.031,4.187.035a4.2,4.2,0,0,0,4.177-3.152,25.659,25.659,0,0,0,.237-4.44c.041-1.378.42-1.812,1.724-1.881,1.011-.007,1.492.439,1.443,1.505-.057,1.257.124,2.538-.052,3.772a10.254,10.254,0,0,1-1.064,3.653,7.819,7.819,0,0,1-6.036,3.764c0,1.46-.054,2.86.013,4.254a5.618,5.618,0,0,1-4.273,5.308,36.673,36.673,0,0,1-4.444.241,5.883,5.883,0,0,1-5.991-6.051c0-1.249,0-2.5,0-3.773H33.172c0,1.473.019,2.9-.006,4.326a5.142,5.142,0,0,1-1.367,3.424c-2.53,2.856-5.83,2.237-8.965,1.861-2.558-.307-4.589-3.391-4.377-5.9.1-1.212.018-2.44.018-3.651a8,8,0,0,1-7.106-7.895q.058-32.328.018-64.657V23.958c-1.594-.017-2.169.52-2.17,1.916q0,10.706-.005,21.412c-.006,3.054-2.093,4.775-4.983,4.754C2.146,52.025.86,50.705,0,48.916V23.3c.068-.067.179-.124.2-.2a9.294,9.294,0,0,1,6-7.181c1.485-.554,2.972-1.107,4.424-1.738a1.451,1.451,0,0,0,.695-.928,9.1,9.1,0,0,1,2.2-4.628A8.12,8.12,0,0,1,19.834,6.3c2.236,0,4.472,0,6.707,0,.468,0,.805,0,.995-.615A7.221,7.221,0,0,1,32.25.568,8.665,8.665,0,0,0,33.381,0M68.234,3.184c-11.152-.011-22.305-.062-33.456,0A4.075,4.075,0,0,0,30.7,6.3h1.139q14.317,0,28.635,0c3.145,0,6.291-.021,9.437-.032h6.865A4.3,4.3,0,0,0,73.5,3.4a48.032,48.032,0,0,0-5.267-.219m24.7,39.673c-.023-.074-.047-.147-.071-.221l-.3.179-6.5,6.5a1.941,1.941,0,0,0-.247.182Q76.027,59.28,66.24,69.069a4.108,4.108,0,0,0-.35.52c2.16-.261,4.143-.447,6.109-.75,3.34-.514,6.671-1.084,10-1.667,1.369-.24,2.721-.577,4.08-.869l6.858-1.275ZM92.93,31.519c0-.052,0-.1,0-.155l-.157.111a4.033,4.033,0,0,0-.4.317Q73.34,50.832,54.273,69.91c1.654,0,3.265.063,4.867-.026a3.975,3.975,0,0,0,2.38-.594Q77.075,53.9,92.5,38.378a1.577,1.577,0,0,0,.432-.983c.032-1.958,0-3.917,0-5.876M38.818,29.032c-2.636-.007-5.273-.027-7.909-.017-1.066,0-1.7-.428-1.762-1.538a.178.178,0,0,0,0-.18c.454-1.264.733-1.437,2.372-1.437q26.652,0,53.3,0c.418,0,.836-.029,1.255-.045h6.851c0-4.091.117-8.11-.047-12.117A4.109,4.109,0,0,0,89.072,9.65c-1.628-.052-3.255-.112-4.882-.168-.245-.011-.489-.033-.733-.033q-32.007,0-64.015,0c-.07,0-.14,0-.21,0a4.521,4.521,0,0,0-4.7,4.759c.028,3.6.005,7.206.01,10.809,0,.264.048.529.078.844,2.071,0,4.063-.019,6.054.008.981.013,1.9.2,2.054,1.43a.154.154,0,0,0-.016.179c-.213,1.248-.514,1.516-1.771,1.53-1.084.012-2.168,0-3.252,0H14.56V53.3c.024.082.047.164.071.246l.245-.234q8.848-8.877,17.7-17.753c2.074-2.077,4.169-4.133,6.254-6.2l.2-.229-.211-.1m17.005-.006c-3.81,0-7.621-.026-11.432.006a1.838,1.838,0,0,0-1.157.506Q29.118,43.605,15.051,57.721a1.883,1.883,0,0,0-.492,1.164c-.053,1.746.02,3.5-.042,5.243-.03.828.35,1.078,1.062,1.171a9.666,9.666,0,0,1,2.5.455c.887.374,1.335-.019,1.875-.56q17.53-17.55,35.076-35.085c.295-.3.606-.572.909-.858.018-.075.037-.15.055-.224h-.167M86.1,33.4l4.083-4.219H86.086A7.266,7.266,0,0,0,85,29.017c-7.835-.01-15.671,0-23.507-.021a2.073,2.073,0,0,0-1.63.658Q49.8,39.773,39.692,49.85,31.763,57.779,23.826,65.7a4.713,4.713,0,0,1-.984.593q.128.213.257.426c2.294.434,4.577.951,6.887,1.283q5.144.741,10.318,1.26c2.816.287,5.648.414,8.469.655a1.771,1.771,0,0,0,1.531-.643q17.571-17.6,35.165-35.181c.22-.22.418-.462.626-.693m9.848-16.1c0,.482,0,.79,0,1.1-.007,1.884-.03,1.946,1.717,2.591,2.991,1.1,3.82,2.4,3.779,5.675-.062,4.966-.016,9.933-.016,14.9,0,1.889-.061,3.781.037,5.665a2.361,2.361,0,0,0,.8,1.63c.9.634,2.108-.338,2.1-1.829-.04-7.205.015-14.41-.039-21.615a6.872,6.872,0,0,0-2.182-5.268c-1.743-1.591-4.024-1.891-6.195-2.845m-84.705.026c-1.392.534-2.752.976-4.044,1.568a6.44,6.44,0,0,0-4.043,6.262q-.006,4.3,0,8.6,0,6.873.005,13.746a1.249,1.249,0,0,0,1.464,1.413c.931-.033,1.447-.692,1.447-1.9.005-7.205-.005-14.41.008-21.615a4.04,4.04,0,0,1,2.893-4.184c2.449-.921,2.45-.921,2.364-3.486a3.618,3.618,0,0,0-.092-.412M30.025,97.856h-8.4c0,1.385-.076,2.708.025,4.018a2.225,2.225,0,0,0,1.52,2.149,8.3,8.3,0,0,0,5.57-.122,1.968,1.968,0,0,0,1.282-1.865c0-1.358,0-2.715,0-4.18m55.651.019H77.259c0,1.343-.041,2.6.012,3.853A2.732,2.732,0,0,0,79.8,104.31a29.383,29.383,0,0,0,3.461.008,2.56,2.56,0,0,0,2.4-2.187c.034-1.394.008-2.789.008-4.256" transform="translate(-623 5088)" fill="#060606"/>
      <path id="Trazado_275437" data-name="Trazado 275437" d="M86.1,33.4c-.208.231-.406.473-.626.693Q67.885,51.679,50.3,69.272a1.774,1.774,0,0,1-1.531.644c-2.821-.242-5.653-.369-8.469-.656Q35.133,68.732,29.986,68c-2.31-.332-4.593-.849-6.888-1.283l-.256-.425a4.792,4.792,0,0,0,.983-.593q7.947-7.911,15.867-15.848,10.092-10.092,20.171-20.2A2.069,2.069,0,0,1,61.493,29c7.836.02,15.671.011,23.507.02a7.236,7.236,0,0,1,1.085.163q.006,2.109.01,4.218" transform="translate(-623 5088)" fill="#5ed8f6"/>
      <path id="Trazado_275438" data-name="Trazado 275438" d="M84.189,94.428c-.384.012-.768.036-1.152.036q-32.112,0-64.225,0a4.429,4.429,0,0,1-4.242-4.084c-.035-7.24-.025-14.481-.03-21.722a2.981,2.981,0,0,1,.056-.381c3.882.753,7.742,1.561,11.626,2.237,2.967.517,5.959.893,8.946,1.283,2.93.383,5.865.721,8.8,1.044,1.134.124,2.277.178,3.417.218,2.5.087,5.01.23,7.513.193,2.842-.043,5.69-.168,8.52-.422,3.662-.327,7.321-.731,10.958-1.262,3.477-.508,6.923-1.222,10.383-1.841.436-.078.877-.13,1.315-.195,0,2.29.01,4.58-.008,6.869a6.116,6.116,0,0,1-.2,1.081A9.649,9.649,0,0,0,83,76.453a74.221,74.221,0,0,0-8.963.238,6.937,6.937,0,0,0-4.7,2.865A11.534,11.534,0,0,0,67.3,84.092a4.46,4.46,0,0,0,4.132,5.34q4.35-.1,8.705,0c2.1.05,4.138-.006,5.927-1.3a7.39,7.39,0,0,1-1.876,6.289M30.168,89.4v.023c1.886,0,3.773.044,5.658-.015a4.163,4.163,0,0,0,3.636-1.944,5.154,5.154,0,0,0,.462-3.76A8.688,8.688,0,0,0,31.3,76.392c-2.2-.057-4.4-.036-6.6.007a4.982,4.982,0,0,0-4.735,3.47,10.358,10.358,0,0,0-.23,5.292,5.343,5.343,0,0,0,4.676,4.226c1.92.046,3.842.009,5.763.009M53.636,78.947c-2.517,0-5.033.008-7.55,0-.941,0-1.515.366-1.593,1.359-.1,1.229.406,1.786,1.694,1.788q7.394.014,14.787,0c1.248,0,2.028-.613,2.03-1.571s-.766-1.573-2.026-1.575q-3.671-.007-7.342,0m.1,6.414c-2.55,0-5.1-.018-7.65.008-1.162.012-1.651.574-1.594,1.693.049.965.556,1.428,1.78,1.434q7.44.033,14.88,0c1.229,0,1.876-.616,1.852-1.621s-.648-1.512-1.933-1.516c-2.445-.009-4.89,0-7.335,0" transform="translate(-623 5088)" fill="#fe75a7"/>
      <path id="Trazado_275439" data-name="Trazado 275439" d="M22.725,27.3c-.159-1.23-1.074-1.417-2.054-1.43-1.992-.027-3.984-.008-6.055-.008-.03-.316-.078-.58-.078-.844-.005-3.6.019-7.206-.009-10.809a4.52,4.52,0,0,1,4.7-4.759c.07,0,.14,0,.21,0q32.008,0,64.016,0c.244,0,.488.021.732.033A7.017,7.017,0,0,1,86.1,14.608c-.095,3.733-.028,7.47-.028,11.2-.418.016-.837.045-1.255.045q-26.652,0-53.3,0c-1.639,0-1.918.173-2.372,1.437l-.161.135h-6.11a.3.3,0,0,0-.148-.134m30.7-4.478v.011q13.531,0,27.063,0c4.63.007,6.14-4.4,4.655-7.655-.971-2.127-2.884-2.672-5.041-2.672q-26.382,0-52.763.01a12.214,12.214,0,0,0-2.166.207c-2.387.431-4.242,3.765-3.266,6.6a4.892,4.892,0,0,0,4.665,3.5c8.951-.025,17.9-.01,26.853-.01" transform="translate(-623 5088)" fill="#fe75a7"/>
      <path id="Trazado_275440" data-name="Trazado 275440" d="M55.935,29.251c-.3.285-.615.563-.909.857Q37.484,47.647,19.95,65.194c-.54.541-.989.934-1.875.559a9.723,9.723,0,0,0-2.5-.454c-.711-.094-1.091-.343-1.061-1.171.062-1.746-.012-3.5.041-5.243a1.884,1.884,0,0,1,.493-1.164Q29.116,43.6,43.234,29.538a1.833,1.833,0,0,1,1.157-.506c3.81-.032,7.621-.011,11.432-.006l.112.225" transform="translate(-623 5088)" fill="#e1f3ff"/>
      <path id="Trazado_275441" data-name="Trazado 275441" d="M22.873,27.432h6.11a.28.28,0,0,0,.164.044c.066,1.11.7,1.542,1.761,1.538,2.637-.01,5.273.01,7.91.018l.009.329c-2.085,2.066-4.179,4.122-6.253,6.2q-8.856,8.869-17.7,17.752l-.317-.012V29.009h3.126c1.084,0,2.169.009,3.253,0,1.257-.013,1.558-.282,1.77-1.53a.281.281,0,0,0,.165-.044" transform="translate(-623 5088)" fill="#5ed8f6"/>
      <path id="Trazado_275442" data-name="Trazado 275442" d="M92.929,31.519c.008,1.959.038,3.918,0,5.876a1.57,1.57,0,0,1-.432.983Q77.044,53.869,61.519,69.29a3.972,3.972,0,0,1-2.379.6c-1.6.088-3.214.026-4.867.026q19.086-19.1,38.1-38.119a4.155,4.155,0,0,1,.4-.316l.064.063Z" transform="translate(-623 5088)" fill="#e0f2fe"/>
      <path id="Trazado_275443" data-name="Trazado 275443" d="M86.078,66.3c-1.359.293-2.711.629-4.08.869-3.328.584-6.66,1.153-10,1.667-1.966.3-3.949.489-6.11.75a4.194,4.194,0,0,1,.351-.52Q76.026,59.28,85.819,49.5a2.043,2.043,0,0,1,.247-.182q.006,8.495.012,16.988" transform="translate(-623 5088)" fill="#5ed8f6"/>
      <path id="Trazado_275444" data-name="Trazado 275444" d="M84.189,94.428a7.389,7.389,0,0,0,1.876-6.289,6.83,6.83,0,0,0,1.219-1.884c.741-3.1,1.172-6.2-1.419-8.778a6.122,6.122,0,0,0,.2-1.08c.018-2.29.009-4.58.008-6.869l6.881-1.3V69.7c0,2.689-.011,5.378.009,8.067.008,1.152.359,1.492,1.539,1.641q0,2.79.01,5.582c-1.3.069-1.683.5-1.724,1.881a25.659,25.659,0,0,1-.237,4.44,4.2,4.2,0,0,1-4.177,3.152c-1.4,0-2.791-.023-4.187-.035" transform="translate(-623 5088)" fill="#fe5995"/>
      <path id="Trazado_275445" data-name="Trazado 275445" d="M86.078,66.3q-.006-8.495-.012-16.988l6.5-6.5.367.042V65.028L86.078,66.3" transform="translate(-623 5088)" fill="#26c8f0"/>
      <path id="Trazado_275446" data-name="Trazado 275446" d="M69.911,6.265c-3.146.011-6.292.03-9.438.032q-14.316.006-28.634,0H30.7a4.074,4.074,0,0,1,4.078-3.109c11.151-.067,22.3-.016,33.456,0,.79.9,1.666,1.756,1.677,3.081" transform="translate(-623 5088)" fill="#e1f3ff"/>
      <path id="Trazado_275447" data-name="Trazado 275447" d="M86.075,25.813c0-3.735-.067-7.472.028-11.2a7.017,7.017,0,0,0-1.914-5.126c1.627.056,3.255.115,4.882.168a4.109,4.109,0,0,1,3.809,4.045c.163,4.008.047,8.026.047,12.118Z" transform="translate(-623 5088)" fill="#fe5995"/>
      <path id="Trazado_275448" data-name="Trazado 275448" d="M95.943,17.3c2.171.955,4.452,1.254,6.195,2.845a6.876,6.876,0,0,1,2.181,5.268c.054,7.205,0,14.41.04,21.615.008,1.491-1.2,2.463-2.1,1.829a2.36,2.36,0,0,1-.8-1.63c-.1-1.884-.037-3.776-.037-5.664,0-4.967-.046-9.934.016-14.9.041-3.276-.788-4.571-3.779-5.675-1.748-.645-1.725-.707-1.717-2.591,0-.307,0-.615,0-1.1" transform="translate(-623 5088)" fill="#fd75a7"/>
      <path id="Trazado_275449" data-name="Trazado 275449" d="M11.237,17.323a3.68,3.68,0,0,1,.092.411c.086,2.566.086,2.566-2.363,3.486A4.04,4.04,0,0,0,6.072,25.4c-.013,7.205,0,14.41-.007,21.615,0,1.2-.517,1.864-1.448,1.9A1.25,1.25,0,0,1,3.153,47.5q-.011-6.873,0-13.745,0-4.3,0-8.6a6.438,6.438,0,0,1,4.044-6.262c1.291-.592,2.652-1.034,4.043-1.568" transform="translate(-623 5088)" fill="#fd75a7"/>
      <path id="Trazado_275450" data-name="Trazado 275450" d="M30.025,97.856c0,1.465,0,2.823,0,4.18a1.968,1.968,0,0,1-1.283,1.865,8.3,8.3,0,0,1-5.569.122,2.225,2.225,0,0,1-1.52-2.149c-.1-1.31-.026-2.633-.026-4.018Z" transform="translate(-623 5088)" fill="#6b46cf"/>
      <path id="Trazado_275451" data-name="Trazado 275451" d="M85.676,97.875c0,1.467.026,2.862-.008,4.256a2.56,2.56,0,0,1-2.4,2.187,29.383,29.383,0,0,1-3.461-.008,2.732,2.732,0,0,1-2.533-2.582c-.053-1.253-.012-2.51-.012-3.853Z" transform="translate(-623 5088)" fill="#6b46cf"/>
      <path id="Trazado_275452" data-name="Trazado 275452" d="M69.911,6.265c-.011-1.325-.887-2.18-1.677-3.081A48.032,48.032,0,0,1,73.5,3.4a4.3,4.3,0,0,1,3.275,2.862Z" transform="translate(-623 5088)" fill="#ccebff"/>
      <path id="Trazado_275453" data-name="Trazado 275453" d="M86.1,33.4q0-2.109-.01-4.218h4.093L86.1,33.4" transform="translate(-623 5088)" fill="#26c8f0"/>
      <path id="Trazado_275454" data-name="Trazado 275454" d="M14.559,53.3l.316.012-.245.235c-.024-.083-.047-.165-.071-.247" transform="translate(-623 5088)" fill="#47a0b6"/>
      <path id="Trazado_275455" data-name="Trazado 275455" d="M92.936,42.857l-.367-.042.295-.179.072.221" transform="translate(-623 5088)" fill="#1c89a4"/>
      <path id="Trazado_275456" data-name="Trazado 275456" d="M38.827,29.362l-.009-.329.211.1Z" transform="translate(-623 5088)" fill="#47a0b6"/>
      <path id="Trazado_275457" data-name="Trazado 275457" d="M92.929,31.519l-.088.02-.064-.063.156-.111c0,.051,0,.1,0,.154" transform="translate(-623 5088)" fill="#9ba6ae"/>
      <path id="Trazado_275458" data-name="Trazado 275458" d="M55.935,29.251l-.112-.225h.166l-.054.224" transform="translate(-623 5088)" fill="#9ba6ae"/>
      <path id="Trazado_275459" data-name="Trazado 275459" d="M29.147,27.477a.287.287,0,0,1-.164-.044l.162-.136a.178.178,0,0,1,0,.18" transform="translate(-623 5088)" fill="#fd75a7"/>
      <path id="Trazado_275460" data-name="Trazado 275460" d="M22.873,27.432a.281.281,0,0,1-.165.044.152.152,0,0,1,.017-.178.293.293,0,0,1,.148.134" transform="translate(-623 5088)" fill="#fd75a7"/>
      <path id="Trazado_275461" data-name="Trazado 275461" d="M85.865,77.477c2.59,2.58,2.159,5.68,1.419,8.778a6.857,6.857,0,0,1-1.22,1.884c-1.789,1.292-3.827,1.347-5.927,1.3q-4.35-.1-8.7,0a4.461,4.461,0,0,1-4.133-5.34,11.55,11.55,0,0,1,2.043-4.536,6.935,6.935,0,0,1,4.7-2.865A74.449,74.449,0,0,1,83,76.453a9.659,9.659,0,0,1,2.86,1.024m-8.821,8.792c1.744,0,3.491.01,5.236,0a2.173,2.173,0,0,0,2.326-2.328c0-.629,0-1.257,0-1.885a2.211,2.211,0,0,0-2.494-2.521c-1.92-.008-3.841-.014-5.759.005a6.383,6.383,0,0,0-1.637.17,5.7,5.7,0,0,0-4.293,4.868c-.186,1.01.255,1.685,1.279,1.691,1.78.011,3.561,0,5.342,0" transform="translate(-623 5088)" fill="#070606"/>
      <path id="Trazado_275462" data-name="Trazado 275462" d="M30.167,89.4c-1.921,0-3.843.037-5.762-.009a5.343,5.343,0,0,1-4.676-4.226,10.369,10.369,0,0,1,.229-5.292,4.982,4.982,0,0,1,4.735-3.47c2.2-.044,4.4-.064,6.6-.007A8.687,8.687,0,0,1,39.923,83.7a5.159,5.159,0,0,1-.461,3.76A4.168,4.168,0,0,1,35.825,89.4c-1.884.059-3.772.014-5.658.014V89.4m.04-3.127c1.816,0,3.632,0,5.449,0,.894,0,1.342-.4,1.3-1.321a5.53,5.53,0,0,0-5.376-5.38c-2.224-.158-4.469-.06-6.7-.022a1.835,1.835,0,0,0-1.986,1.58,10.043,10.043,0,0,0-.076,3.255,2.052,2.052,0,0,0,2.471,1.9c1.639-.064,3.282-.015,4.924-.015" transform="translate(-623 5088)" fill="#070606"/>
      <path id="Trazado_275463" data-name="Trazado 275463" d="M53.636,78.945q3.67,0,7.341,0c1.261,0,2.028.607,2.027,1.576s-.782,1.57-2.03,1.571q-7.394,0-14.787,0c-1.289,0-1.791-.559-1.694-1.788.077-.993.652-1.364,1.592-1.359,2.517.012,5.034,0,7.551,0" transform="translate(-623 5088)" fill="#060606"/>
      <path id="Trazado_275464" data-name="Trazado 275464" d="M53.734,85.359c2.445,0,4.89-.006,7.335,0,1.285,0,1.909.508,1.933,1.517s-.623,1.616-1.852,1.621q-7.44.027-14.88,0c-1.224-.005-1.731-.468-1.78-1.434-.057-1.119.432-1.68,1.594-1.692,2.55-.026,5.1-.008,7.65-.011" transform="translate(-623 5088)" fill="#060606"/>
      <path id="Trazado_275465" data-name="Trazado 275465" d="M53.429,22.82c-8.951,0-17.9-.015-26.853.011a4.894,4.894,0,0,1-4.665-3.5c-.976-2.837.879-6.171,3.266-6.6a12.309,12.309,0,0,1,2.166-.207q26.382-.016,52.763-.009c2.158,0,4.07.545,5.042,2.672,1.484,3.251-.025,7.662-4.655,7.655q-13.533-.021-27.064,0Zm.084-3.137H79.852c.315,0,.632.017.944-.013a1.947,1.947,0,0,0,1.865-1.948,1.971,1.971,0,0,0-1.887-2.046c-.348-.03-.7-.017-1.049-.017q-25.972,0-51.944,0c-.314,0-.63-.011-.944.006-1.5.078-2.092.692-2.05,2.132.036,1.231.776,1.883,2.177,1.884q13.275,0,26.549,0" transform="translate(-623 5088)" fill="#060606"/>
      <path id="Trazado_275466" data-name="Trazado 275466" d="M77.044,86.269c-1.781,0-3.562.008-5.342,0-1.024-.006-1.465-.681-1.279-1.691a5.7,5.7,0,0,1,4.293-4.868,6.383,6.383,0,0,1,1.637-.17c1.918-.019,3.839-.013,5.759-.005a2.21,2.21,0,0,1,2.494,2.52c0,.629,0,1.257,0,1.886a2.173,2.173,0,0,1-2.326,2.328c-1.745.012-3.492,0-5.236,0" transform="translate(-623 5088)" fill="#fff1ab"/>
      <path id="Trazado_275467" data-name="Trazado 275467" d="M30.207,86.269c-1.642,0-3.285-.049-4.924.015a2.052,2.052,0,0,1-2.471-1.9,10.036,10.036,0,0,1,.076-3.254,1.835,1.835,0,0,1,1.986-1.581c2.234-.037,4.479-.136,6.7.023a5.528,5.528,0,0,1,5.376,5.379c.045.92-.4,1.325-1.3,1.321-1.817-.007-3.633,0-5.449,0" transform="translate(-623 5088)" fill="#fff1ab"/>
      <path id="Trazado_275468" data-name="Trazado 275468" d="M53.513,19.682q-13.275,0-26.549,0c-1.4,0-2.141-.652-2.177-1.883-.042-1.441.545-2.055,2.05-2.133.314-.016.63-.006.944-.006H79.725c.35,0,.7-.013,1.049.017a1.971,1.971,0,0,1,1.887,2.046A1.946,1.946,0,0,1,80.8,19.669c-.312.031-.629.013-.944.013q-13.17,0-26.339,0" transform="translate(-623 5088)" fill="#ffd500"/>
      <rect id="Rectángulo_323551" data-name="Rectángulo 323551" width="107.513" height="107.604" transform="translate(-623 5088)" fill="none"/>
    </g>
  </g>
</svg>
