<svg xmlns="http://www.w3.org/2000/svg" xmlns:xlink="http://www.w3.org/1999/xlink" width="188" height="262.305" viewBox="0 0 188 262.305">
  <defs>
    <clipPath id="clip-path">
      <rect id="Rectángulo_323329" data-name="Rectángulo 323329" width="188" height="262.305" fill="none"/>
    </clipPath>
  </defs>
  <g id="Grupo_1070882" data-name="Grupo 1070882" transform="translate(-1125 -3530.81)">
    <g id="Grupo_1069947" data-name="Grupo 1069947" transform="translate(0 -7)">
      <g id="Grupo_257054" data-name="Grupo 257054" transform="translate(1125 3537.809)">
        <g id="Grupo_257051" data-name="Grupo 257051" transform="translate(0 0.001)">
          <g id="Grupo_257050" data-name="Grupo 257050" transform="translate(0 0)" clip-path="url(#clip-path)">
            <path id="Trazado_274456" data-name="Trazado 274456" d="M313.751,852.416c-.093-2.94-.189-5.883-.322-8.823-.267-5.947-.683-11.894-1.518-17.792-1.4-9.873-5.077-18.659-7.65-28.191a109.907,109.907,0,0,1-2.432-11.478A131.556,131.556,0,0,1,300.3,764.4c.061-7.135.578-14.338,3.083-21.083,1.361-3.666,2.871-8.263,5.851-10.954.472-.425,1.309-.894,1.7-1.293,0,0,0-.007,0-.01.147-.113.291-.229.427-.352.1-.66.226-1.317.324-1.985.008-.05.015-.1.022-.152-1.54-.124-3.24.988-4.594,1.577-3.226,1.4-6.539,2.6-9.755,4.037-1.48.66-2.982,1.353-4.427,2.055-1.411.686-2.52,1.842-3.937,2.532-1.585.771-3.173,1.535-4.783,2.256-1.218.546-2.44,1.085-3.654,1.643a33.8,33.8,0,0,0,3.359,6.677c-.043.151-.086.3-.133.452-1.2,3.8-3.528,7.087-5.12,10.715-.391.891-.718,1.8-1.042,2.7l0,0c.729.4.759,1.286,1.007,2.053,2.055,6.366-1.314,10.044-2.239,16-.743,4.77,1.042,9.082.844,13.739-.128,3.005-1.8,5.578-2.568,8.416a31.23,31.23,0,0,0-.769,3.869c-1.726,12.429-4.522,24.794-6.956,37.124-.583,2.954-1.088,6.145-1.851,9.265l.007,0c.784,9.537.886,19.292.812,28.931h47.791c.209-4.308.367-8.619.38-12.931.02-5.8-.14-11.481-.324-17.265M303.2,835.727a2.627,2.627,0,0,1,2.01-3.726,2.5,2.5,0,0,1,2.027.51c1.475,1.153.855,3.038-.176,4.261s-3.316.173-3.861-1.045m5.545,28.791c-1.023,1.213-3.316.173-3.861-1.045a2.626,2.626,0,0,1,2.008-3.726,2.5,2.5,0,0,1,2.027.51c1.477,1.153.855,3.039-.174,4.261" transform="translate(-225.904 -620.874)" fill="#4f95cf"/>
            <path id="Trazado_274457" data-name="Trazado 274457" d="M590.68,650.263l0-.1c4.316-.143,9.356-2.653,13.066-5.54l.078.1c-.158,1.248-.083,2.618-.176,3.738a42.216,42.216,0,0,0-.131,6.675c-2.563.155-5.044.812-7.7.6a32.418,32.418,0,0,1-8.9-2.082,28.661,28.661,0,0,1-6.681-4.089,31.1,31.1,0,0,1-3.743-3.621c-.216-.228-.443-.53-.684-.838,1.409.791,2.844,1.542,4.3,2.306a27.812,27.812,0,0,0,5.655,2.09,21.388,21.388,0,0,0,4.9.759" transform="translate(-490.709 -549.347)" fill="#e39476"/>
            <path id="Trazado_274458" data-name="Trazado 274458" d="M525.643,1428.789c1.475,1.153.855,3.039-.176,4.261s-3.316.173-3.861-1.045a2.627,2.627,0,0,1,2.01-3.726,2.5,2.5,0,0,1,2.027.51" transform="translate(-444.312 -1217.153)" fill="#37628f"/>
            <path id="Trazado_274459" data-name="Trazado 274459" d="M808.091,882.774H768.985c.055-5.992.133-12.027-.4-17.968A129.333,129.333,0,0,1,768,849.777c.111-4.122-.216-8.3-.076-12.451.154-4.643,1.153-9.261,1.344-13.925a59.809,59.809,0,0,1,1.477-10.241c.844-3.9.791-7.919,1.857-11.81,1.078-3.929,2.221-7.834,3-11.858.709-3.66,1.146-7.351,1.9-10.992a68.468,68.468,0,0,0,.394-24.924c-.392-2.427-.562-4.841-1.163-7.24-1.178-4.693-3.318-9.27-6.984-12.533-1.356-1.206-3.211-1.789-4.535-2.91-.123-.656-.267-1.309-.387-1.973-.01-.05-.018-.1-.027-.151,1.535-.173,3.269.885,4.642,1.43,3.269,1.3,6.618,2.394,9.878,3.726,1.5.613,3.023,1.258,4.49,1.914,1.432.641,2.577,1.761,4.015,2.406,1.608.721,3.22,1.434,4.853,2.1a82.628,82.628,0,0,1,10.237,4.688c4.319,2.505,8.379,5.01,11.818,8.725,3.213,3.472,5.77,8.054,7.991,12.2a96.7,96.7,0,0,1,5.984,14.652,28.157,28.157,0,0,1,1.226,3.635c.437,2.329.595,4.759.947,7.115q.6,3.995,1.091,8.005c.673,5.436,1.219,10.886,1.691,16.342.6,6.957.526,13.958,1.272,20.9.729,6.8,3.384,12.91,4.53,19.586.743,4.331-.123,8.675-.405,13-.153,2.332.706,4.587.678,6.907-.027,2.234-.626,4.419-.688,6.662Z" transform="translate(-651.755 -621.036)" fill="#4f95cf"/>
            <path id="Trazado_274460" data-name="Trazado 274460" d="M185.321,558.539c-.234-1.1-.377-2.218-.585-3.342-.219-1.188-.487-2.367-.754-3.545-1.118-4.921-1.96-9.511-.409-14.441,1.394-4.427,3.811-8.487,4.869-13.028a35.872,35.872,0,0,0,.452-9.414c-.126-3.889.076-7.791.1-11.68.017-2.723-.3-6.68,2.4-8.333a1.829,1.829,0,0,1,2.048-.108c2.334,1.055,2.773,4.505,2.874,6.715.282,6.19.05,12.356.025,18.551,0,.336.061.543.075.849a7.676,7.676,0,0,1,2.517.307c3.61,1.088,6.063,4.3,8.28,7.193.5-2.116,1.678-4.678,3.891-5.422a2.716,2.716,0,0,1,1.917-.14,4.2,4.2,0,0,1,2.435,2c1.047,2.14-.035,4.806-.507,6.957a20.368,20.368,0,0,0-.714,4.49c.007,1.686.287,3.356.329,5.04.033,1.369.026,2.75-.077,4.122a21.779,21.779,0,0,1-.9,4.926c-1.2,3.8-3.528,7.087-5.12,10.715-.39.89-.718,1.8-1.042,2.7-.94,2.615-1.857,5.163-4.246,6.994-3.146,2.414-7.356,1.621-10.552-.254a16.218,16.218,0,0,1-4.54-3.967,5.115,5.115,0,0,1-1.131-2.583c-.261-1.4-.939-2.738-1.337-4.1-.116-.4-.214-.8-.3-1.2" transform="translate(-155.716 -421.313)" fill="#f5b49b"/>
            <path id="Trazado_274461" data-name="Trazado 274461" d="M629.268,503.691c.741,1.824-.869,3.876-2.073,5.115a8.812,8.812,0,0,1-7.52,2.871,9.542,9.542,0,0,1-4.331-1.493,12.963,12.963,0,0,1-3.351-3.038c-.7-.954-1.261-2.688-.47-3.758a3.3,3.3,0,0,1,2.964-1.085c.97.1,1.967.115,2.94.184a23.386,23.386,0,0,0,2.729-.013c1.191-.055,2.391,0,3.575-.15a9.384,9.384,0,0,1,3.241-.35,2.946,2.946,0,0,1,2.3,1.718" transform="translate(-520.806 -427.72)" fill="#fff"/>
            <path id="Trazado_274462" data-name="Trazado 274462" d="M392.3,61.69c-.168-1.178-.3-2.359-.44-3.532a20.547,20.547,0,0,0-.658-3.841c-.8-2.5-2.344-4.678-3.195-7.158a9.844,9.844,0,0,1-.61-3.462c.02-1.344.2-2.68.314-4.019A45.122,45.122,0,0,1,388.9,33.05c.689-2.874,1.724-5.844,1.414-8.83-.036-.346-.081-.689-.125-1.035-.286-2.253.475-3.922,1.505-5.858a17.46,17.46,0,0,1,7-7.361c3.341-1.753,7.421-2.344,10.911-3.859a30.228,30.228,0,0,0,4.318-2.319c.563-.364.992-.832,1.585-1.14.894-.464,1.841-.841,2.759-1.234A16.018,16.018,0,0,1,421.719.364,24.816,24.816,0,0,1,432.73.95c3.444.989,7.02,3.1,7.873,6.844.219.964.94.872,1.816.872a11.1,11.1,0,0,1,7.663,1.263c3.349,1.834,4.48,5.019,6.283,8.125,1.6,2.759,3.839,5.065,5.8,7.56,2.493,3.176,4.392,6.763,3.774,10.923a31.651,31.651,0,0,0-.525,5.7c.06,1.979-.884,4.22-1.377,6.117a28.527,28.527,0,0,1-.919,3.718,19.815,19.815,0,0,0-1.208,8.635c.008.214.018.429.032.645a19.454,19.454,0,0,1-.066,2.364,6.067,6.067,0,0,1-.291,1.646c-.168.464-.557,1.176-1.121,1.261-1.846.272-1.492-5.088-1.52-6.075-.093-3.258-.669-6.9-2.545-9.659a15.089,15.089,0,0,1-1.97-4.924,23.06,23.06,0,0,1-.558-5.52c0-2.959.218-5.946-1.367-8.635-1.448-2.459-4.424-3.545-7.14-3.748-.651-.05-1.065-.008-1.7-.047a28.157,28.157,0,0,0-12.8,1.754,10.073,10.073,0,0,1-4.09.736c-3.58-.065-6.967-1.5-10.434-2.223a17.945,17.945,0,0,0-5.052-.326c-1.787.123-3.58.234-5.065,1.377a8.417,8.417,0,0,0-2.773,4.107,16.143,16.143,0,0,0-.676,3.4c-.145,1.444.272,2.817.153,4.248a17.509,17.509,0,0,1-1.872,7.1c-.312.576-.527,1.193-.791,1.791a9.966,9.966,0,0,1-.922,1.429,20.009,20.009,0,0,0-1.98,3.318c-1.116,2.736-.412,5.733-.372,8.58a5.118,5.118,0,0,1-.759,3.387c-.791.987-1.847.714-2.6-.173a6.3,6.3,0,0,1-1.073-3.238c-.093-.53-.174-1.06-.248-1.591" transform="translate(-330.137 -0.001)" fill="#1e244a"/>
            <path id="Trazado_274463" data-name="Trazado 274463" d="M764.27,728.876c.008.05.017.1.027.151-.052-.032-.1-.025-.118-.14.03-.005.061-.008.091-.012" transform="translate(-651.229 -621.144)" fill="#8cc295"/>
            <path id="Trazado_274464" data-name="Trazado 274464" d="M739.037,374.762a4.167,4.167,0,0,1-.708,3.01,2.826,2.826,0,0,1-3.083.8,3.065,3.065,0,0,1-1.386-5.133,3.118,3.118,0,0,1,3.563-.939,3.68,3.68,0,0,1,1.613,2.264" transform="translate(-624.631 -317.22)" fill="#2b1a0f"/>
            <path id="Trazado_274465" data-name="Trazado 274465" d="M537.038,1616.509c1.477,1.153.855,3.038-.174,4.261s-3.316.173-3.861-1.045a2.626,2.626,0,0,1,2.008-3.726,2.5,2.5,0,0,1,2.027.51" transform="translate(-454.024 -1377.126)" fill="#37628f"/>
            <path id="Trazado_274466" data-name="Trazado 274466" d="M52.721,935.587c2.055,6.366-1.314,10.044-2.239,16-.743,4.769,1.042,9.082.844,13.739-.128,3.005-1.8,5.578-2.568,8.416a31.253,31.253,0,0,0-.769,3.869c-1.726,12.429-4.522,24.794-6.956,37.124-.583,2.954-1.088,6.145-1.851,9.265a27.847,27.847,0,0,1-4.808,10.9c-5.853,7.357-19.925,10.213-27.356,3.434-4.436-4.048-6.142-10.491-6.746-16.258-1.342-12.787,2.507-26.482,6.789-38.383,1.5-4.163,3.52-8.115,5.045-12.268a48.353,48.353,0,0,0,2.812-11.964,22.287,22.287,0,0,1,2.4-8.408c1.648-3.057,4.5-5.254,5.5-8.673,1.369-4.65.488-10.039,5.228-13.039a8.576,8.576,0,0,0,1.555-.919c.085.4.183.8.3,1.2.4,1.364,1.076,2.7,1.337,4.1a5.116,5.116,0,0,0,1.131,2.583,16.224,16.224,0,0,0,4.54,3.967c3.2,1.875,7.406,2.668,10.552.254,2.389-1.83,3.306-4.379,4.246-6.994l0,0c.729.4.759,1.286,1.007,2.053" transform="translate(0 -791.193)" fill="#4f95cf"/>
            <path id="Trazado_274467" data-name="Trazado 274467" d="M570.245,657.619c0-.1,0-.208.008-.311a60.287,60.287,0,0,0,.008-6.273c-.061-1.045-.163-2.086-.317-3.12-.067-.439-.208-.876-.286-1.292-.072-.39.037-.992-.234-1.314l.193-.334q.374.217.752.43c.241.307.468.61.685.837a31.071,31.071,0,0,0,3.743,3.621,28.666,28.666,0,0,0,6.681,4.088,32.421,32.421,0,0,0,8.9,2.082c2.653.212,5.133-.445,7.7-.6q.04.573.11,1.14c.033.271.075.537.121.8-.03,0-.062.007-.091.012.017.115.066.108.118.14.12.664.264,1.317.387,1.974a11.556,11.556,0,0,1,.239,2.743,12.776,12.776,0,0,1-1.349,5,14.226,14.226,0,0,1-7.436,6.888c-.635.247-1.263.531-1.906.756a9.887,9.887,0,0,1-3.688.5,18.665,18.665,0,0,1-3.726-.626,14.7,14.7,0,0,1-5.314-2.3,14.007,14.007,0,0,1-5.3-7.647,6.737,6.737,0,0,1-.1-3.3,8.448,8.448,0,0,0,.14-1.67c0-.741-.052-1.489-.038-2.219" transform="translate(-485.259 -549.644)" fill="#f5b49b"/>
            <path id="Trazado_274468" data-name="Trazado 274468" d="M730.4,297.528a1.149,1.149,0,0,1-.854,1.8,5.172,5.172,0,0,1-2.407-.5c-.349-.123-.724-.267-1.078-.354a6.093,6.093,0,0,0-1.312.017,10.673,10.673,0,0,0-3.59.829,1.333,1.333,0,0,1-1.04-.047c-1.09-.628-.238-1.693.419-2.278a4.286,4.286,0,0,1,1.442-.877,12.422,12.422,0,0,1,2.364-.7,7.862,7.862,0,0,1,2.052-.078,5.781,5.781,0,0,1,4.005,2.193" transform="translate(-613.238 -251.652)" fill="#1e244a"/>
            <path id="Trazado_274469" data-name="Trazado 274469" d="M539.929,297.528a1.149,1.149,0,0,1-.854,1.8,5.165,5.165,0,0,1-2.406-.5c-.349-.123-.724-.267-1.078-.354a6.108,6.108,0,0,0-1.314.017,10.683,10.683,0,0,0-3.59.829,1.33,1.33,0,0,1-1.038-.047c-1.09-.628-.238-1.693.419-2.278a4.27,4.27,0,0,1,1.442-.877,12.443,12.443,0,0,1,2.362-.7,7.867,7.867,0,0,1,2.052-.078,5.778,5.778,0,0,1,4.005,2.193" transform="translate(-450.918 -251.652)" fill="#1e244a"/>
            <path id="Trazado_274470" data-name="Trazado 274470" d="M551.5,374.762a4.168,4.168,0,0,1-.709,3.01,2.826,2.826,0,0,1-3.083.8,3.066,3.066,0,0,1-1.385-5.133,3.119,3.119,0,0,1,3.563-.939,3.682,3.682,0,0,1,1.615,2.264" transform="translate(-464.817 -317.22)" fill="#2b1a0f"/>
            <path id="Trazado_274471" data-name="Trazado 274471" d="M403.93,256.677q-.379-.214-.753-.43c-1.442-.827-2.857-1.708-4.244-2.69a33.792,33.792,0,0,1-7.677-6.853c-1.194-1.6-2.43-3.131-3.68-4.7-1.111-1.392-1.829-3.05-2.906-4.465-1.145-1.508-2.434-1.748-4.023-2.648a13.258,13.258,0,0,1-4.228-3.693,9.447,9.447,0,0,1-1.17-1.708,14.615,14.615,0,0,1-.842-2.209,7.384,7.384,0,0,1,.193-4.7A3.876,3.876,0,0,1,377.7,220.3c1.764-.176,2.371,1.1,3.288,2.307.073.532.154,1.062.248,1.591a6.3,6.3,0,0,0,1.073,3.238c.754.887,1.811,1.16,2.6.173a5.117,5.117,0,0,0,.759-3.387c-.04-2.847-.744-5.844.372-8.58a20.024,20.024,0,0,1,1.98-3.318,9.951,9.951,0,0,0,.922-1.429c.264-.6.478-1.214.791-1.791a17.51,17.51,0,0,0,1.872-7.1c.12-1.43-.3-2.8-.153-4.248a16.143,16.143,0,0,1,.676-3.4,8.417,8.417,0,0,1,2.773-4.107c1.485-1.143,3.278-1.254,5.065-1.377a17.957,17.957,0,0,1,5.052.326c3.467.728,6.854,2.158,10.434,2.223a10.073,10.073,0,0,0,4.09-.736,28.157,28.157,0,0,1,12.8-1.754c.638.038,1.052,0,1.7.047,2.716.2,5.691,1.289,7.14,3.748,1.585,2.689,1.371,5.676,1.367,8.635a23.065,23.065,0,0,0,.558,5.52,15.089,15.089,0,0,0,1.97,4.924c1.876,2.758,2.452,6.4,2.545,9.659.028.987-.326,6.348,1.52,6.075.565-.085.953-.8,1.121-1.261a6.063,6.063,0,0,0,.291-1.646,19.436,19.436,0,0,0,.067-2.364c-.013-.216-.023-.43-.032-.645l.087,0c1.565-2.341,4.937-1.13,5.867,1.108a7.62,7.62,0,0,1,.2,4.852,15.152,15.152,0,0,1-.869,2.281,9.875,9.875,0,0,1-1.206,1.764,13.694,13.694,0,0,1-4.367,3.811c-1.233.7-2.535,1.263-3.8,1.9l-.09-.04a44.576,44.576,0,0,1-6.026,10.393,84.154,84.154,0,0,1-6.426,6.688,26.839,26.839,0,0,1-2.1,1.812c-3.71,2.887-8.75,5.4-13.066,5.54l0,.1a21.388,21.388,0,0,1-4.9-.759,27.829,27.829,0,0,1-5.655-2.09c-1.459-.764-2.894-1.515-4.3-2.306m31.2-48.083a1.149,1.149,0,0,0,.854-1.8,5.781,5.781,0,0,0-4.005-2.193,7.862,7.862,0,0,0-2.052.078,12.413,12.413,0,0,0-2.364.7,4.289,4.289,0,0,0-1.442.877c-.656.585-1.508,1.65-.419,2.278a1.334,1.334,0,0,0,1.04.047,10.679,10.679,0,0,1,3.59-.829,6.084,6.084,0,0,1,1.312-.017c.354.086.729.231,1.078.354a5.173,5.173,0,0,0,2.407.5m-2.613,12.873a4.168,4.168,0,0,0,.708-3.01,3.68,3.68,0,0,0-1.613-2.264,3.118,3.118,0,0,0-3.563.939,3.065,3.065,0,0,0,1.385,5.133,2.827,2.827,0,0,0,3.083-.8M425.209,242c1.2-1.239,2.814-3.291,2.073-5.115a2.946,2.946,0,0,0-2.3-1.718,9.384,9.384,0,0,0-3.241.35c-1.184.155-2.384.095-3.575.15a23.386,23.386,0,0,1-2.729.013c-.973-.07-1.97-.085-2.94-.184a3.3,3.3,0,0,0-2.964,1.085c-.791,1.07-.234,2.8.47,3.758a12.966,12.966,0,0,0,3.351,3.038,9.543,9.543,0,0,0,4.331,1.493,8.813,8.813,0,0,0,7.52-2.871m-18.232-33.408a1.149,1.149,0,0,0,.854-1.8,5.777,5.777,0,0,0-4.005-2.193,7.868,7.868,0,0,0-2.052.078,12.432,12.432,0,0,0-2.362.7,4.273,4.273,0,0,0-1.442.877c-.656.585-1.508,1.65-.419,2.278a1.33,1.33,0,0,0,1.038.047,10.69,10.69,0,0,1,3.59-.829,6.1,6.1,0,0,1,1.314-.017c.354.086.729.231,1.078.354a5.167,5.167,0,0,0,2.406.5M404.8,221.467a4.168,4.168,0,0,0,.709-3.01,3.682,3.682,0,0,0-1.615-2.264,3.119,3.119,0,0,0-3.563.939,3.066,3.066,0,0,0,1.386,5.133,2.826,2.826,0,0,0,3.083-.8" transform="translate(-318.821 -160.915)" fill="#f5b49b"/>
            <path id="Trazado_274472" data-name="Trazado 274472" d="M587.278,1424.706a31.129,31.129,0,0,1-.765-4.8c-.669-3.937-1.109-7.909-1.46-11.887a44.661,44.661,0,0,0-.49-5.872,25.9,25.9,0,0,1-.525-4.394,97.114,97.114,0,0,0-3.757-21.649q.127.761.237,1.53c.8,5.664,1.217,11.375,1.486,17.087q.016.353.033.705c.133,2.941.229,5.882.322,8.823.184,5.784.344,11.464.324,17.265-.013,4.313-.171,8.624-.38,12.931h6.3c-.1-1.3-.273-2.594-.452-3.875a33.916,33.916,0,0,0-.87-5.864" transform="translate(-494.513 -1172.707)" fill="#ededed"/>
            <path id="Trazado_274473" data-name="Trazado 274473" d="M555.018,765.934c-.392-2.427-.562-4.841-1.163-7.24-1.178-4.693-3.317-9.27-6.984-12.533-1.356-1.206-3.211-1.789-4.535-2.91a11.548,11.548,0,0,1,.239,2.743,12.772,12.772,0,0,1-1.349,5,14.225,14.225,0,0,1-7.436,6.888c-.635.247-1.263.532-1.906.756a9.882,9.882,0,0,1-3.688.5,18.661,18.661,0,0,1-3.726-.626,14.7,14.7,0,0,1-5.314-2.3,14.006,14.006,0,0,1-5.3-7.647,6.739,6.739,0,0,1-.1-3.3,8.447,8.447,0,0,0,.14-1.669c-.389.4-1.226.867-1.7,1.292-2.98,2.691-4.49,7.288-5.851,10.954-2.505,6.745-3.022,13.948-3.083,21.083a131.581,131.581,0,0,0,1.533,21.734,109.92,109.92,0,0,0,2.432,11.478c2.44,9.037,5.871,17.4,7.413,26.661a97.1,97.1,0,0,1,3.757,21.649,25.922,25.922,0,0,0,.525,4.394,44.671,44.671,0,0,1,.49,5.872c.351,3.977.791,7.949,1.46,11.887a31.137,31.137,0,0,0,.765,4.8,33.919,33.919,0,0,1,.871,5.864c.179,1.282.355,2.579.452,3.875H546.11c.055-5.992.133-12.027-.4-17.968a129.4,129.4,0,0,1-.583-15.029c.111-4.122-.216-8.3-.076-12.451.154-4.643,1.153-9.261,1.344-13.925a59.786,59.786,0,0,1,1.477-10.242c.844-3.9.791-7.919,1.857-11.81,1.078-3.929,2.221-7.834,3-11.858.709-3.66,1.146-7.351,1.9-10.992a68.468,68.468,0,0,0,.394-24.924" transform="translate(-428.88 -633.394)" fill="#fffbf2"/>
          </g>
        </g>
        <g id="Grupo_257053" data-name="Grupo 257053" transform="translate(0 0.001)">
          <g id="Grupo_257052" data-name="Grupo 257052" transform="translate(0 0)" clip-path="url(#clip-path)">
            <path id="Trazado_274474" data-name="Trazado 274474" d="M697.41,111.1a.415.415,0,0,1-.3-.707c3.022-3.062,4.413-7.089,5.376-10.623a.415.415,0,0,1,.8.218c-1.766,6.484-3.815,9.194-5.586,10.989a.414.414,0,0,1-.3.124" transform="translate(-593.974 -84.762)"/>
            <path id="Trazado_274475" data-name="Trazado 274475" d="M742.551,154.344a.415.415,0,0,1-.137-.807,17.784,17.784,0,0,0,5.889-3.413.415.415,0,0,1,.548.624,18.614,18.614,0,0,1-6.162,3.573.414.414,0,0,1-.137.023" transform="translate(-632.443 -127.847)"/>
            <path id="Trazado_274476" data-name="Trazado 274476" d="M573.811,93.815a.415.415,0,0,1-.406-.328c-.933-4.323-3.358-7.594-6.652-8.974a.415.415,0,0,1,.321-.766c3.548,1.486,6.151,4.972,7.143,9.565a.415.415,0,0,1-.318.494.429.429,0,0,1-.088.009" transform="translate(-482.767 -71.341)"/>
            <path id="Trazado_274477" data-name="Trazado 274477" d="M476.271,135.74a.412.412,0,0,1-.2-.052,11.41,11.41,0,0,0-7.148-1.628.415.415,0,0,1-.116-.823,12.215,12.215,0,0,1,7.667,1.724.415.415,0,0,1-.2.778" transform="translate(-399.209 -113.463)"/>
            <path id="Trazado_274478" data-name="Trazado 274478" d="M657.6,374.9a3.452,3.452,0,0,1-1.38-.315,6.251,6.251,0,0,1-1.905-1.206.415.415,0,1,1,.578-.6,5.462,5.462,0,0,0,1.66,1.042,2.386,2.386,0,0,0,1.326.224,3.448,3.448,0,0,0,.909-.282c.393-.182,1.589-.734.8-3.314-.259-.852-.565-1.707-.861-2.533-.27-.755-.55-1.537-.8-2.319a5.992,5.992,0,0,1-.217-1.318c-.018-.2-.034-.4-.062-.592a17.751,17.751,0,0,1,.094-4.536.415.415,0,0,1,.825.1,17.029,17.029,0,0,0-.1,4.322c.031.218.049.43.067.636a5.276,5.276,0,0,0,.182,1.141c.241.767.518,1.54.785,2.288.3.836.609,1.7.874,2.571.823,2.7-.225,3.836-1.249,4.309a4.279,4.279,0,0,1-1.127.349,2.591,2.591,0,0,1-.41.032" transform="translate(-557.494 -305.759)" fill="#ab684d"/>
            <path id="Trazado_274479" data-name="Trazado 274479" d="M393.112,434.679a.415.415,0,0,1-.372-.229,2.87,2.87,0,0,0-1.055-1,3.2,3.2,0,0,1-1.339-1.4,2.61,2.61,0,0,1,.081-1.852,4.556,4.556,0,0,0,.174-.679,1.371,1.371,0,0,0-.133-.673c-.044-.121-.09-.246-.128-.385a1.6,1.6,0,0,0-.488-.92,2.517,2.517,0,0,0-1.665-.755.81.81,0,0,0-.558.377.415.415,0,1,1-.679-.479,1.617,1.617,0,0,1,1.125-.721,3.165,3.165,0,0,1,2.3.935,2.408,2.408,0,0,1,.763,1.343c.029.106.067.209.107.319a2.1,2.1,0,0,1,.174,1.078,5.243,5.243,0,0,1-.2.805,1.851,1.851,0,0,0-.1,1.3,2.46,2.46,0,0,0,1.033,1.017,3.594,3.594,0,0,1,1.333,1.312.416.416,0,0,1-.371.6" transform="translate(-329.694 -362.997)" fill="#ab684d"/>
            <path id="Trazado_274480" data-name="Trazado 274480" d="M880.719,436.551a.416.416,0,0,1-.371-.6,3.7,3.7,0,0,1,1.371-1.35,2.55,2.55,0,0,0,1.071-1.056,1.951,1.951,0,0,0-.106-1.348,5.388,5.388,0,0,1-.209-.829,2.159,2.159,0,0,1,.179-1.105c.041-.114.081-.222.111-.331a2.474,2.474,0,0,1,.783-1.38,3.249,3.249,0,0,1,2.367-.963,1.656,1.656,0,0,1,1.152.739.415.415,0,1,1-.679.479.85.85,0,0,0-.585-.394,2.611,2.611,0,0,0-1.729.782,1.664,1.664,0,0,0-.508.957c-.039.143-.086.272-.131.4a1.423,1.423,0,0,0-.137.7,4.714,4.714,0,0,0,.18.7,2.683,2.683,0,0,1,.084,1.9,3.244,3.244,0,0,1-1.377,1.436,2.971,2.971,0,0,0-1.094,1.034.416.416,0,0,1-.372.229" transform="translate(-750.189 -364.374)" fill="#ab684d"/>
            <path id="Trazado_274481" data-name="Trazado 274481" d="M335.165,735.417a.66.66,0,0,1-.23-.043.143.143,0,0,0-.049-.011.415.415,0,1,1,.065-.828.931.931,0,0,1,.228.045.422.422,0,0,1,.121-.009c1.1.083,2.062-1.292,2.409-2.175a10.012,10.012,0,0,0,.479-5.054,9.308,9.308,0,0,0-1.371-4.367q-.244-.315-.49-.638a.415.415,0,1,1,.66-.505q.246.321.488.635a9.955,9.955,0,0,1,1.537,4.763,10.826,10.826,0,0,1-.529,5.47,5.415,5.415,0,0,1-1.175,1.8,2.717,2.717,0,0,1-2,.9.744.744,0,0,1-.141.014" transform="translate(-285.061 -615.001)" fill="#ab684d"/>
            <path id="Trazado_274482" data-name="Trazado 274482" d="M239.2,672.762a.415.415,0,0,1-.25-.747,9.418,9.418,0,0,1,4.791-1.818.415.415,0,1,1,.072.827,8.577,8.577,0,0,0-4.364,1.655.414.414,0,0,1-.249.083" transform="translate(-203.493 -571.136)" fill="#ab684d"/>
            <path id="Trazado_274483" data-name="Trazado 274483" d="M256.912,754.371a1.935,1.935,0,0,1-1.469-.555,1.032,1.032,0,0,0-.2-.105.908.908,0,0,1-.638-.713.415.415,0,0,1,.819-.126,1.7,1.7,0,0,0,.168.085,1.376,1.376,0,0,1,.453.292c.623.667,2.38.061,3.147-.45a7.541,7.541,0,0,0,2.34-8.746,5.907,5.907,0,0,0-.783-1.324c-.12-.168-.243-.342-.357-.516-1.805-2.75-3.588-4.329-5.3-4.693a12.871,12.871,0,0,0-4.952.141.415.415,0,0,1-.169-.813,13.708,13.708,0,0,1,5.294-.14c1.961.417,3.865,2.069,5.822,5.05.105.16.219.321.34.49a6.51,6.51,0,0,1,.888,1.525c1.116,3.105.563,7.566-2.661,9.718a5.585,5.585,0,0,1-2.746.882" transform="translate(-212.745 -627.643)" fill="#ab684d"/>
            <path id="Trazado_274484" data-name="Trazado 274484" d="M233.625,804.554a2.489,2.489,0,0,1-1.992-1.036,3.651,3.651,0,0,1-.749-1.852,4.723,4.723,0,0,1,.027-.777,2.128,2.128,0,0,0-.064-1.05,5.211,5.211,0,0,0-1.608-1.752l-.217-.176a.415.415,0,0,1,.525-.643l.214.174a5.918,5.918,0,0,1,1.84,2.048,2.8,2.8,0,0,1,.138,1.475,4.068,4.068,0,0,0-.026.64,2.833,2.833,0,0,0,.58,1.408,1.673,1.673,0,0,0,2.415.353c1.524-1.016,2.139-3.142,2.207-4.794a8.141,8.141,0,0,0-.387-2.71,7.014,7.014,0,0,0-1.907-2.617l-.189-.192a8.387,8.387,0,0,0-3.035-2.034.415.415,0,1,1,.291-.778,9.209,9.209,0,0,1,3.337,2.23l.188.19a7.725,7.725,0,0,1,2.11,2.957,8.972,8.972,0,0,1,.423,2.988,6.771,6.771,0,0,1-2.576,5.451,2.783,2.783,0,0,1-1.543.5" transform="translate(-195.04 -673.416)" fill="#ab684d"/>
            <path id="Trazado_274485" data-name="Trazado 274485" d="M292.4,851.427a.41.41,0,0,1-.121-.018.415.415,0,0,1-.277-.518,15.023,15.023,0,0,1,2.343-4.854c.181-.242.344-.464.505-.683.235-.321.457-.624.722-.97a.415.415,0,1,1,.66.5c-.26.34-.48.639-.713.957-.162.221-.327.446-.51.69a14.234,14.234,0,0,0-2.213,4.6.415.415,0,0,1-.4.295" transform="translate(-248.831 -719.439)" fill="#ab684d"/>
            <path id="Trazado_274486" data-name="Trazado 274486" d="M263.207,1051.194a.415.415,0,0,1-.4-.512c.487-2.042.871-4.119,1.241-6.128.18-.973.349-1.892.53-2.809.6-3.051,1.237-6.155,1.851-9.158,1.869-9.144,3.8-18.6,5.1-27.943a31.25,31.25,0,0,1,.78-3.921,28.332,28.332,0,0,1,1.114-3.114,15.743,15.743,0,0,0,1.44-5.209,31.252,31.252,0,0,0-.5-5.927,25.592,25.592,0,0,1-.339-7.858,32.242,32.242,0,0,1,1.482-5.5c1.124-3.337,2.095-6.218.773-10.311-.062-.192-.11-.386-.157-.574-.137-.551-.255-1.026-.654-1.243a.415.415,0,1,1,.4-.729,2.443,2.443,0,0,1,1.063,1.773c.045.182.088.354.141.519,1.406,4.353.346,7.5-.776,10.831a31.582,31.582,0,0,0-1.448,5.36,24.952,24.952,0,0,0,.34,7.608,31.883,31.883,0,0,1,.509,6.085,16.6,16.6,0,0,1-1.5,5.484,27.7,27.7,0,0,0-1.083,3.022,30.45,30.45,0,0,0-.759,3.818c-1.3,9.369-3.238,18.837-5.11,27.995-.614,3-1.248,6.1-1.849,9.152-.18.912-.349,1.829-.528,2.8-.373,2.019-.758,4.106-1.25,6.169a.415.415,0,0,1-.4.319" transform="translate(-223.949 -818.285)" fill="#2e5378"/>
            <path id="Trazado_274487" data-name="Trazado 274487" d="M198.8,1076.853a.413.413,0,0,1-.294-.122,118.977,118.977,0,0,1-10.329-12.259.415.415,0,1,1,.661-.5,118.259,118.259,0,0,0,10.256,12.176.415.415,0,0,1-.294.708" transform="translate(-160.289 -906.568)" fill="#2e5378"/>
            <path id="Trazado_274488" data-name="Trazado 274488" d="M176.915,1204.64a20.561,20.561,0,0,1-6.33-1.111.415.415,0,1,1,.255-.79,16.872,16.872,0,0,0,9.237.711.415.415,0,1,1,.188.809,14.7,14.7,0,0,1-3.35.381" transform="translate(-145.126 -1024.949)" fill="#2e5378"/>
            <path id="Trazado_274489" data-name="Trazado 274489" d="M1025.647,1108.119h0a.415.415,0,0,1-.412-.419c.026-2.854-.225-5.8-.468-8.648-.21-2.474-.428-5.033-.463-7.517-.065-4.577-.3-9.231-.52-13.732-.081-1.621-.164-3.3-.238-4.946-.441-9.76-1.108-19.043-2.038-28.379-.982-9.841-1.813-19.467-1.218-29.05a90.883,90.883,0,0,1,4.669-22.627.415.415,0,0,1,.79.258,90.056,90.056,0,0,0-4.63,22.42c-.591,9.521.237,19.111,1.215,28.916.932,9.351,1.6,18.649,2.042,28.424.074,1.647.158,3.322.238,4.943.224,4.508.456,9.17.521,13.761.035,2.455.251,5,.46,7.458.244,2.868.5,5.833.471,8.726a.415.415,0,0,1-.416.411" transform="translate(-869.31 -845.815)" fill="#2e5378"/>
            <path id="Trazado_274490" data-name="Trazado 274490" d="M1141.116,1597.073a.415.415,0,0,1-.268-.733c4.4-3.708,7.483-7.409,9.162-11a.415.415,0,0,1,.752.352c-1.731,3.7-4.887,7.5-9.379,11.283a.415.415,0,0,1-.268.1" transform="translate(-972.098 -1350.813)" fill="#2e5378"/>
            <path id="Trazado_274491" data-name="Trazado 274491" d="M499.428,1251.038a.415.415,0,0,1-.41-.355,72.58,72.58,0,0,0-3.068-12.047c-.4-1.215-.884-2.465-1.352-3.674a37.552,37.552,0,0,1-2.443-8.04.415.415,0,1,1,.822-.118,36.954,36.954,0,0,0,2.4,7.858c.472,1.219.959,2.479,1.367,3.714a73.322,73.322,0,0,1,3.1,12.186.416.416,0,0,1-.35.472.471.471,0,0,1-.061,0" transform="translate(-419.406 -1045.17)" fill="#2e5378"/>
            <path id="Trazado_274492" data-name="Trazado 274492" d="M1066.532,927a.416.416,0,0,1-.384-.572,29.6,29.6,0,0,1,2.558-4.616c.627-.986,1.275-2.006,1.815-3.045a.415.415,0,1,1,.737.383c-.557,1.07-1.215,2.106-1.851,3.107a28.938,28.938,0,0,0-2.49,4.484.416.416,0,0,1-.385.258" transform="translate(-908.538 -782.776)" fill="#2e5378"/>
          </g>
        </g>
      </g>
      <circle id="Elipse_4303" data-name="Elipse 4303" cx="10" cy="10" r="10" transform="translate(1125 3582.811)" fill="#fffad0"/>
      <circle id="Elipse_4304" data-name="Elipse 4304" cx="7" cy="7" r="7" transform="translate(1150 3573.811)" fill="#fffad0"/>
      <circle id="Elipse_4305" data-name="Elipse 4305" cx="4" cy="4" r="4" transform="translate(1169 3570.811)" fill="#fffad0"/>
    </g>
  </g>
</svg>
