<svg xmlns="http://www.w3.org/2000/svg" xmlns:xlink="http://www.w3.org/1999/xlink" width="68.032" height="52.585" viewBox="0 0 68.032 52.585">
  <defs>
    <clipPath id="clip-path">
      <rect id="Rectángulo_322648" data-name="Rectángulo 322648" width="68.032" height="52.585" fill="none"/>
    </clipPath>
  </defs>
  <g id="Grupo_1070880" data-name="Grupo 1070880" transform="translate(-301.968 -6411)">
    <g id="Grupo_255703" data-name="Grupo 255703" transform="translate(301.968 6411)">
      <g id="Grupo_255702" data-name="Grupo 255702" clip-path="url(#clip-path)">
        <path id="Trazado_273487" data-name="Trazado 273487" d="M33.984,5.415h.154c1.361,0,2.723.008,4.084-.006a1.1,1.1,0,0,1,.852.349q2.3,2.314,4.611,4.616,2.039,2.039,4.078,4.078c.173.174.338.355.511.529a.863.863,0,0,1,.251.64q-.006,5.514-.01,11.027c0,.252,0,.5,0,.779a13.335,13.335,0,0,1,17.419,4.644,13.3,13.3,0,0,1-.961,15.658,13.367,13.367,0,0,1-16.464,3.322c0,.246,0,.458,0,.67a.752.752,0,0,1-.776.848c-.757.026-1.515.014-2.273.014H6.747c-.2,0-.407-.008-.61-.012a.815.815,0,0,1-.715-.767c.016-.981,0-1.963.007-2.945,0-.186-.036-.269-.251-.268-1.418.01-2.835.006-4.253.005A.838.838,0,0,1,.039,48,.56.56,0,0,1,0,47.821C0,47.66,0,47.5,0,47.337Q0,24.1,0,.869A.789.789,0,0,1,.522.07,1.238,1.238,0,0,1,.97,0q15.979,0,31.958,0a1.507,1.507,0,0,1,.605.119.805.805,0,0,1,.444.816q0,2.136,0,4.272c0,.061.006.123.01.2M55.544,31l-.378-.059-1.222.01-.05,0c-.435.082-.876.141-1.3.249a8.089,8.089,0,0,0-3.915,2.3.55.55,0,0,0-.169.41c0,3.549,0,7.1.01,10.648a.612.612,0,0,0,.156.408,12.155,12.155,0,0,0,1.256,1.083,7.969,7.969,0,0,0,3.445,1.4,8.239,8.239,0,0,0,3.292-.131,8.435,8.435,0,0,0,2.264-.924,8.172,8.172,0,0,0,3.137-3.317,6.414,6.414,0,0,0,.768-2.27c.041-.379.134-.753.153-1.132a11.692,11.692,0,0,0-.035-1.19,6.708,6.708,0,0,0-.414-2.006,8.291,8.291,0,0,0-3.371-4.231A7.549,7.549,0,0,0,55.544,31M1.6,1.626c-.005,0-.016.008-.015.011a.175.175,0,0,0,.009.032c0,.112.007.225.007.337q0,22.371,0,44.741v.242H5.437v-.351q0-12.858,0-25.716,0-7.345,0-14.689a.759.759,0,0,1,.209-.551.943.943,0,0,1,.741-.266q12.894,0,25.789.008c.192,0,.252-.05.251-.245q-.012-1.694,0-3.388c0-.17-.054-.213-.218-.213-1.172.006-2.344,0-3.515,0q-13.462,0-26.924,0a.658.658,0,0,0-.17.047M46.922,51V16.357c-.075,0-.138-.012-.2-.012H38.87c-.2,0-.408.007-.61-.013A.716.716,0,0,1,37.6,15.6q0-4.167,0-8.334c0-.284,0-.29-.291-.288-1.424.009-2.848.031-4.273.032q-8.947.005-17.895,0-3.968,0-7.937,0c-.152,0-.211.028-.2.2.015.315,0,.631,0,.947Q7,29.477,6.987,50.806c0,.06.008.12.013.192Zm1.587-19.438a9.663,9.663,0,0,1,4.7-2.062A9.848,9.848,0,0,1,63.1,44.376a9.6,9.6,0,0,1-6.728,4.568,9.787,9.787,0,0,1-7.865-2.01c0,.6.037,1.138-.011,1.674a.9.9,0,0,0,.573.989,12.377,12.377,0,0,0,4.685,1.39,9.719,9.719,0,0,0,2.157-.045,13.959,13.959,0,0,0,2.467-.531,11.446,11.446,0,0,0,5.334-3.624,11.593,11.593,0,0,0,2.721-6.635,10.668,10.668,0,0,0-.141-2.962,13.1,13.1,0,0,0-.417-1.625,11.711,11.711,0,0,0-4.385-5.932,11.367,11.367,0,0,0-4.5-1.935,11.753,11.753,0,0,0-1.383-.187c-.413-.03-.829,0-1.244,0a5.953,5.953,0,0,0-.965.027c-.765.137-1.534.278-2.281.489a9.255,9.255,0,0,0-2.479,1.119.284.284,0,0,0-.126.192c-.009.715-.006,1.43-.006,2.219M39.116,8.147v.237c0,2.054,0,4.108,0,6.162,0,.2.043.267.252.266,1.978,0,3.956,0,5.933,0,.158,0,.316-.014.454-.021L39.116,8.147" transform="translate(0 0)"/>
        <path id="Trazado_273488" data-name="Trazado 273488" d="M81.329,85.345H41.407c-.005-.072-.013-.133-.013-.193q.008-21.328.018-42.657c0-.316.013-.632,0-.947-.008-.168.051-.2.2-.2q3.968.006,7.937,0,8.947,0,17.895,0c1.424,0,2.848-.022,4.273-.032.288,0,.291,0,.291.288q0,4.167,0,8.334a.716.716,0,0,0,.658.736c.2.02.406.013.61.013h7.852c.062,0,.124.007.2.012ZM53.266,45.065l-.723-.122a1.022,1.022,0,0,0-.8-.378,8.5,8.5,0,0,0-2.675.22,8.022,8.022,0,0,0-5.865,6.266,6.307,6.307,0,0,0-.127,2.058,9.136,9.136,0,0,0,.5,2.158,7.94,7.94,0,0,0,2.808,3.667A7.811,7.811,0,0,0,50.9,60.466c.3,0,.608-.081.911-.073a4.262,4.262,0,0,0,1.4-.249,8,8,0,0,0,4.344-3.094,6.853,6.853,0,0,0,1.111-2.41c.078-.356.141-.715.205-1.073a.7.7,0,0,0-.417-.908c.283-.078.271-.355.374-.554.668.053,1.335.116,2,.155a.784.784,0,0,0,.78-.718,1.67,1.67,0,0,0-.2-.967,19.459,19.459,0,0,0-.974-1.71c-.508-.763-1.053-1.5-1.611-2.232a25.966,25.966,0,0,0-2.555-2.985,5.406,5.406,0,0,0-1.48-1.095.844.844,0,0,0-1.269.647c-.1.62-.175,1.244-.262,1.866m7.758,36.521-.057-.017a1.123,1.123,0,0,1-.066-.264c0-2.132,0-4.265-.007-6.4a.8.8,0,0,0-.856-.848q-2.326-.006-4.652,0a.969.969,0,0,0-.309.044c-.387.133-.548.4-.548.89q0,3.157,0,6.313c0,.281-.006.284-.279.284-.533,0-1.067-.007-1.6.008a.742.742,0,0,0-.724.772.774.774,0,0,0,.85.737l11.115.006q3.421,0,6.842,0c2.505,0,5.01-.007,7.515,0a.8.8,0,0,0,.8-.776.779.779,0,0,0-.831-.737c-.172,0-.344,0-.507,0V69.4c.534,0,1.053-.005,1.572,0a.8.8,0,0,0,.8-.46.787.787,0,0,0-.159-.852c-.72-.914-1.43-1.836-2.141-2.756-1.105-1.431-2.214-2.86-3.308-4.3a.772.772,0,0,0-.887-.25,1.418,1.418,0,0,0-.462.412c-.994,1.286-1.977,2.581-2.965,3.872-.251.328-.511.649-.762.977-.554.723-1.111,1.444-1.654,2.175a.641.641,0,0,0-.139.586.85.85,0,0,0,.823.6c.463,0,.926,0,1.389,0,.067,0,.134.007.212.011v11.7c0,.105,0,.211,0,.316.007.123-.032.177-.167.174-.364-.009-.729-.006-1.094-.007l-.05-.029a2.078,2.078,0,0,1-.025-.225q0-4.722,0-9.444c0-.68-.305-.983-.992-.983H63.39c-.873,0-1.091.218-1.091,1.089q0,4.4,0,8.792c0,.189-.007.379,0,.568.007.166-.046.24-.226.234-.35-.012-.7-.005-1.052-.006m-2.3-15.326a2.693,2.693,0,0,1-.247.182c-.781.452-1.545.938-2.349,1.343a31.562,31.562,0,0,1-6.414,2.457q-1.391.354-2.787.685c-.353.083-.72.107-1.071.2a.763.763,0,0,0-.535.806.741.741,0,0,0,.776.655,14.569,14.569,0,0,0,1.654-.273c.792-.179,1.577-.387,2.359-.605.854-.239,1.712-.471,2.547-.766a32.574,32.574,0,0,0,6.794-3.3.294.294,0,0,1,.4.027,4.419,4.419,0,0,0,1.3.688,3.664,3.664,0,0,0,1.174.11,3.614,3.614,0,0,0,2.549-1.03,3.7,3.7,0,0,0,1.034-1.716,4.048,4.048,0,0,0,.093-1.849,3.821,3.821,0,0,0-.5-1.3.286.286,0,0,1,.04-.372,19.825,19.825,0,0,0,2.721-4.52c.073-.17.158-.336.254-.538a1.326,1.326,0,0,1,.1.2c.147.5.3.993.432,1.493a.77.77,0,0,0,1.208.476.834.834,0,0,0,.251-.948q-.264-.945-.538-1.888c-.2-.7-.432-1.393-.615-2.1a.758.758,0,0,0-1.2-.545c-1,.56-2.006,1.115-3.008,1.673-.281.157-.566.308-.835.484a.734.734,0,0,0-.278.892.677.677,0,0,0,.7.467,1.219,1.219,0,0,0,.5-.132c.592-.317,1.174-.654,1.76-.981a1.587,1.587,0,0,1,.23-.081c-.016.065-.021.091-.03.115a16.909,16.909,0,0,1-1.589,3.208c-.375.582-.79,1.139-1.191,1.7-.053.074-.1.165-.236.1-.275-.133-.56-.243-.84-.364a3.445,3.445,0,0,0-1.818-.128,3.4,3.4,0,0,0-1.717.8,3.893,3.893,0,0,0-1.472,2.938,3.764,3.764,0,0,0,.387,1.728m5.266-20.738c.68,0,1.359,0,2.039,0a2.089,2.089,0,0,0,.375-.034.8.8,0,0,0,.561-.75.791.791,0,0,0-.648-.722c-.2-.016-.4-.033-.6-.032q-1.974.01-3.948.029a.64.64,0,0,0-.593.394.764.764,0,0,0,0,.72.772.772,0,0,0,.734.4c.694,0,1.388,0,2.081,0m4.491,1.961v.009c-.7,0-1.4-.013-2.1,0a.776.776,0,0,0-.72.767.788.788,0,0,0,.737.75q2.052.015,4.1,0a.678.678,0,0,0,.7-.413.778.778,0,0,0-.8-1.125c-.638.015-1.277,0-1.915,0M46.117,75.791h0c-.631,0-1.262,0-1.892,0a.761.761,0,0,0-.726.7.785.785,0,0,0,.868.826c1.072-.016,2.145-.005,3.217-.006.14,0,.281,0,.42-.01a.758.758,0,0,0-.058-1.513c-.61-.005-1.219,0-1.829,0m3.774,5.052c.539,0,1.079,0,1.618,0a1.066,1.066,0,0,0,.379-.08.639.639,0,0,0,.452-.483c.037-.309.069-.663-.275-.834a1.712,1.712,0,0,0-.707-.182c-.987-.02-1.976-.012-2.964,0a1.83,1.83,0,0,0-.495.077.778.778,0,0,0-.522.688.844.844,0,0,0,.853.821c.554,0,1.107,0,1.661,0M74.645,55.995s0-.008,0-.012c.553,0,1.107.017,1.66-.006a.718.718,0,0,0,.677-.6c.043-.482-.127-.783-.523-.893a1.821,1.821,0,0,0-.469-.066c-.89-.006-1.78,0-2.67,0a1.778,1.778,0,0,0-.374.043.762.762,0,0,0-.506,1.166.826.826,0,0,0,.733.373c.491.005.981,0,1.471,0M46.472,64.358v-.007c.54,0,1.079.011,1.619,0a.727.727,0,0,0,.71-.733.671.671,0,0,0-.572-.753,1.748,1.748,0,0,0-.374-.039q-1.43,0-2.86.006a1.431,1.431,0,0,0-.352.044.763.763,0,0,0,.336,1.485c.5,0,1,0,1.493,0m31.44-6.413h0c-.5,0-1.009,0-1.513,0a.593.593,0,0,0-.2.033.756.756,0,0,0,.267,1.48h2.921a.693.693,0,0,0,.751-.625c0-.623-.225-.889-.756-.89-.49,0-.981,0-1.471,0M49.781,67.833v0c.5,0,1.009.006,1.513,0a.655.655,0,0,0,.331-.1.756.756,0,0,0,.319-.877.721.721,0,0,0-.762-.528c-.974-.009-1.948,0-2.922,0a.76.76,0,0,0-.759.793.746.746,0,0,0,.787.718c.5,0,1,0,1.493,0M62.964,48.984c0,.013,0,.025,0,.038.358,0,.715,0,1.072,0,.5-.007.888-.282.825-.807a.726.726,0,0,0-.682-.723c-.792-.012-1.584-.014-2.376,0a.749.749,0,0,0-.659,1.061.578.578,0,0,0,.52.423c.432.018.866,0,1.3,0M45.231,80.842h0c.309,0,.618.016.926,0a.79.79,0,0,0,.745-1.08.819.819,0,0,0-.848-.5q-.82-.017-1.641,0a.916.916,0,0,0-.707.269.728.728,0,0,0-.143.819.79.79,0,0,0,.742.5c.308.017.617,0,.926,0M69.507,44.008h0c-.329,0-.659-.01-.988,0a.754.754,0,0,0-.028,1.5c.139.013.28.005.421.005.547,0,1.095.012,1.641-.009a.754.754,0,0,0,0-1.5c-.35-.007-.7,0-1.051,0m4.416,15.453h.82a.748.748,0,0,0,.771-.746.731.731,0,0,0-.751-.768c-.574,0-1.149-.007-1.723,0a.77.77,0,0,0-.736.741.779.779,0,0,0,.757.772c.287,0,.574,0,.861,0M45.7,67.832c.3,0,.6.006.9,0a.688.688,0,0,0,.3-.074.758.758,0,0,0-.351-1.431q-.873-.01-1.747,0a.825.825,0,0,0-.715.768.813.813,0,0,0,.726.736c.295.005.589,0,.884,0m5.1,7.956v0H50.36c-.154,0-.309,0-.463,0a.783.783,0,0,0-.709.754.74.74,0,0,0,.691.757c.575.016,1.15.015,1.725,0a.685.685,0,0,0,.748-.771.731.731,0,0,0-.73-.745c-.273-.006-.547,0-.821,0M78.689,55.995c.2,0,.407,0,.61,0a.755.755,0,0,0,.837-.838.647.647,0,0,0-.567-.69,13.855,13.855,0,0,0-1.708,0,.8.8,0,0,0-.664.858.888.888,0,0,0,.86.673c.21.006.421,0,.631,0m-28.23,8.362v0c.273,0,.548.013.82,0a.751.751,0,0,0,.689-.688c.021-.443-.172-.747-.59-.783a12.186,12.186,0,0,0-1.691-.031.741.741,0,0,0-.668.818.8.8,0,0,0,.767.69c.224.008.449,0,.673,0" transform="translate(-34.407 -34.347)" fill="#ebeff8"/>
        <path id="Trazado_273489" data-name="Trazado 273489" d="M9.43,9.4a.66.66,0,0,1,.17-.047q13.462,0,26.924,0c1.172,0,2.344,0,3.515,0,.164,0,.219.042.218.213q-.01,1.694,0,3.388c0,.195-.059.245-.251.245q-12.894-.009-25.789-.008a.943.943,0,0,0-.741.266.759.759,0,0,0-.209.552q0,7.345,0,14.689,0,12.858,0,25.716v.351H9.431v-.242q0-22.371,0-44.741c0-.112,0-.225-.007-.337L9.43,9.4" transform="translate(-7.832 -7.772)" fill="#d4d8e0"/>
        <path id="Trazado_273490" data-name="Trazado 273490" d="M292.79,183.3l1.222-.01.378.059a7.55,7.55,0,0,1,3.623,1.242,8.292,8.292,0,0,1,3.37,4.231,6.7,6.7,0,0,1,.414,2.006,11.688,11.688,0,0,1,.036,1.19c-.019.379-.112.753-.153,1.132a6.422,6.422,0,0,1-.768,2.271,8.172,8.172,0,0,1-3.137,3.316,8.43,8.43,0,0,1-2.264.924,8.235,8.235,0,0,1-3.292.132,7.97,7.97,0,0,1-3.445-1.4,12.152,12.152,0,0,1-1.256-1.083.613.613,0,0,1-.156-.408c-.008-3.549-.005-7.1-.01-10.648a.548.548,0,0,1,.169-.409,8.086,8.086,0,0,1,3.915-2.3c.428-.108.869-.167,1.3-.249l.049,0m-1.282,9.57a.6.6,0,0,0-.689.443,1.173,1.173,0,0,0-.046.591,2.7,2.7,0,0,0,1.657,2.213.5.5,0,0,1,.362.583.7.7,0,0,0,.549.7.823.823,0,0,0,.807-.275.806.806,0,0,0,.107-.624c-.013-.177.069-.243.205-.31a4.346,4.346,0,0,0,.788-.432,2.7,2.7,0,0,0,1.044-2.318,2.308,2.308,0,0,0-1.52-2.271c-.483-.2-1-.3-1.506-.45-.4-.116-.763-.243-.914-.706a1.2,1.2,0,0,1,.342-1.295,1.287,1.287,0,0,1,.7-.344,1.2,1.2,0,0,1,1.374,1.234.731.731,0,0,0,.4.641.739.739,0,0,0,1.126-.626,3.322,3.322,0,0,0-.059-.7,2.616,2.616,0,0,0-1.5-1.817c-.318-.135-.465-.27-.444-.628a.681.681,0,0,0-.5-.675.764.764,0,0,0-.932.381.961.961,0,0,0-.063.449.331.331,0,0,1-.254.384,2.805,2.805,0,0,0-1.554,3.748,2.525,2.525,0,0,0,1.836,1.433c.4.115.81.221,1.215.333a.849.849,0,0,1,.707.739,1.95,1.95,0,0,1-.063.74,1.2,1.2,0,0,1-1.368.79,1.275,1.275,0,0,1-1.021-1.182c-.044-.5-.258-.746-.781-.746" transform="translate(-238.847 -152.351)" fill="#feac09"/>
        <path id="Trazado_273491" data-name="Trazado 273491" d="M287.287,166.961c0-.789,0-1.5.006-2.219a.284.284,0,0,1,.126-.192,9.249,9.249,0,0,1,2.479-1.119c.747-.211,1.516-.352,2.281-.489a5.951,5.951,0,0,1,.965-.027c.415-.005.832-.033,1.244,0a11.751,11.751,0,0,1,1.383.187,11.367,11.367,0,0,1,4.5,1.935,11.711,11.711,0,0,1,4.385,5.932,13.1,13.1,0,0,1,.417,1.625,10.668,10.668,0,0,1,.141,2.962,11.593,11.593,0,0,1-2.721,6.635,11.445,11.445,0,0,1-5.334,3.624,13.96,13.96,0,0,1-2.467.531,9.719,9.719,0,0,1-2.157.045,12.377,12.377,0,0,1-4.685-1.39.9.9,0,0,1-.573-.989c.048-.535.011-1.078.011-1.674a9.787,9.787,0,0,0,7.865,2.01,9.6,9.6,0,0,0,6.728-4.568,9.848,9.848,0,0,0-9.893-14.878,9.663,9.663,0,0,0-4.7,2.062" transform="translate(-238.778 -135.4)" fill="#fdca49"/>
        <path id="Trazado_273492" data-name="Trazado 273492" d="M231.714,48.267l6.637,6.649c-.139.007-.3.021-.454.021-1.978,0-3.956-.008-5.933,0-.209,0-.252-.07-.252-.266.007-2.054,0-4.108,0-6.162v-.237" transform="translate(-192.598 -40.119)" fill="#d4d8e0"/>
        <path id="Trazado_273493" data-name="Trazado 273493" d="M327.185,183.35l-.378-.059.378.059" transform="translate(-271.642 -152.351)" fill="#38393d"/>
        <path id="Trazado_273494" data-name="Trazado 273494" d="M319.325,183.349l-.049,0,.049,0" transform="translate(-265.382 -152.399)" fill="#38393d"/>
        <path id="Trazado_273495" data-name="Trazado 273495" d="M9.387,9.635l-.007.043a.19.19,0,0,1-.009-.032s.01-.007.015-.011" transform="translate(-7.79 -8.009)" fill="#1d1d1e"/>
        <path id="Trazado_273496" data-name="Trazado 273496" d="M120.623,177.131c.365,0,.73,0,1.094.007.135,0,.174-.051.167-.174-.006-.1,0-.21,0-.315v-11.7c-.079,0-.146-.011-.212-.011-.463,0-.926.005-1.389,0a.85.85,0,0,1-.823-.6.64.64,0,0,1,.139-.586c.544-.731,1.1-1.452,1.654-2.175.251-.328.511-.649.762-.977.988-1.291,1.971-2.586,2.965-3.872a1.416,1.416,0,0,1,.463-.412.771.771,0,0,1,.887.25c1.094,1.44,2.2,2.869,3.308,4.3.711.921,1.422,1.842,2.141,2.756a.787.787,0,0,1,.159.852.8.8,0,0,1-.8.46c-.519-.007-1.038,0-1.572,0v12.2c.164,0,.336,0,.508,0a.779.779,0,0,1,.831.737.8.8,0,0,1-.8.776c-2.505-.005-5.01,0-7.515,0q-3.421,0-6.842,0l-11.115-.006a.774.774,0,0,1-.85-.737.742.742,0,0,1,.724-.772c.533-.015,1.066-.007,1.6-.008.274,0,.279,0,.279-.284q0-3.157,0-6.313c0-.494.162-.757.548-.89a.973.973,0,0,1,.309-.044q2.326,0,4.652,0a.8.8,0,0,1,.856.848c.005,2.132,0,4.265.007,6.4a1.121,1.121,0,0,0,.066.264l.057.017c.351,0,.7-.006,1.052.006.18.006.233-.069.226-.234-.008-.189,0-.378,0-.568v-8.792c0-.871.218-1.089,1.091-1.089h4.313c.687,0,.992.3.992.983q0,4.722,0,9.444a2,2,0,0,0,.025.225l.05.029m-12.7-5.594q0,2.4,0,4.809c0,.025,0,.05,0,.075q0,.067,0,.135s-.012.007-.011.009a.176.176,0,0,0,.012.025c0,.045,0,.09,0,.134q0,.139.006.279l.066.109.195,0h2.2l.547,0,.211-.023c.027-.054.075-.106.078-.161.01-.189,0-.379,0-.568q0-2.514-.007-5.028l-.058-.171c-1.024,0-2.041,0-3.058,0-.142,0-.191.05-.186.179l-.01.015.01.015c0,.032,0,.064,0,.1s0,.048,0,.072m10.927,5.585.113-.189c0-.005.006-.011,0-.015a.215.215,0,0,0-.012-.03c0-.2.008-.392.008-.588q0-3.724,0-7.448c0-.005.006-.011.005-.016a.211.211,0,0,0-.012-.03q0-.294,0-.587s.011-.01.01-.014a.188.188,0,0,0-.01-.032l-.021-.158-.245-.017-2.279,0H116.2l-.3,0h-.039l-.171.044a.856.856,0,0,0-.037.176q0,4.288,0,8.575a1.629,1.629,0,0,0,.041.259l.123.059.047.005h.08l.128,0,.208,0h1.9l.124,0h.211l.126,0,.211,0m4.669-.011a1.1,1.1,0,0,0,.182.03q1.958,0,3.915,0a1.069,1.069,0,0,0,.163-.025l.118,0,.047-.014a1.3,1.3,0,0,0,.052-.258q0-6.323,0-12.646a.719.719,0,0,1,.5-.723,7.092,7.092,0,0,1,.93-.089.856.856,0,0,0,.149-.041.518.518,0,0,0-.053-.147c-.4-.523-.806-1.042-1.208-1.563q-1.073-1.389-2.146-2.779c-.143-.185-.3-.364-.446-.549-.724.808-3.826,4.907-3.832,5.072.195,0,.39.009.584,0a.932.932,0,0,1,1.009,1.021q-.009,6.186,0,12.372a2.95,2.95,0,0,0,.039.344" transform="translate(-86.259 -129.887)"/>
        <path id="Trazado_273497" data-name="Trazado 273497" d="M66.557,68.544a.7.7,0,0,1,.417.908c-.064.359-.127.717-.205,1.073a6.857,6.857,0,0,1-1.111,2.41,8,8,0,0,1-4.344,3.094,4.263,4.263,0,0,1-1.4.249c-.3-.008-.607.076-.911.073a7.811,7.811,0,0,1-4.518-1.531,7.942,7.942,0,0,1-2.808-3.667A9.14,9.14,0,0,1,51.18,69a6.311,6.311,0,0,1,.127-2.058,8.022,8.022,0,0,1,5.865-6.266,8.492,8.492,0,0,1,2.675-.22,1.022,1.022,0,0,1,.8.377,1.939,1.939,0,0,1,.04.935c-.029.424-.1.845-.152,1.268s-.08.823-.129,1.233-.111.815-.164,1.223c-.045.343-.085.686-.126,1.03-.043.362-.083.724-.126,1.087-.016.131.04.166.168.167a4.885,4.885,0,0,1,.558.049c.53.065,1.06.14,1.591.2.455.051.912.081,1.366.133.389.045.777.11,1.165.163.574.078,1.148.152,1.722.228m-1.176,1.383c-.11-.017-.21-.035-.31-.047-.79-.095-1.58-.186-2.369-.282-.49-.06-.979-.13-1.469-.185-.255-.029-.513-.03-.769-.055-.331-.032-.661-.089-.992-.108a.563.563,0,0,0-.34.113c-.475.359-.94.732-1.408,1.1-.988.774-1.973,1.55-2.966,2.318-.152.117-.138.189-.008.3a6.428,6.428,0,0,0,4.3,1.719,6.22,6.22,0,0,0,3.4-.923,6.545,6.545,0,0,0,2.936-3.955M59.126,61.96A6.454,6.454,0,0,0,53.6,71.693a2.925,2.925,0,0,0,.258-.16Q55.23,70.467,56.6,69.4c.541-.424,1.079-.851,1.62-1.275a.536.536,0,0,0,.219-.445c.018-.463.079-.924.123-1.386,0-.007.006-.013.007-.02q.144-1.1.288-2.19c.051-.39.1-.781.148-1.171.04-.308.083-.616.127-.95" transform="translate(-42.508 -50.232)" fill="#010101"/>
        <path id="Trazado_273498" data-name="Trazado 273498" d="M78,127.176a3.763,3.763,0,0,1-.387-1.728,3.893,3.893,0,0,1,1.472-2.938,3.4,3.4,0,0,1,1.716-.8,3.443,3.443,0,0,1,1.818.128c.281.12.566.231.84.364.136.066.183-.024.235-.1.4-.565.816-1.122,1.192-1.7a16.9,16.9,0,0,0,1.589-3.208c.009-.024.013-.05.03-.115a1.587,1.587,0,0,0-.23.081c-.587.327-1.168.664-1.76.981a1.22,1.22,0,0,1-.5.132.677.677,0,0,1-.7-.467.734.734,0,0,1,.278-.892c.269-.176.554-.327.835-.484,1-.559,2.007-1.113,3.008-1.673a.758.758,0,0,1,1.2.545c.183.705.411,1.4.615,2.1q.274.943.538,1.888a.834.834,0,0,1-.251.947.769.769,0,0,1-1.208-.476c-.135-.5-.286-1-.432-1.493a1.307,1.307,0,0,0-.1-.2c-.1.2-.18.367-.254.538a19.815,19.815,0,0,1-2.721,4.52.287.287,0,0,0-.04.372,3.816,3.816,0,0,1,.5,1.3,4.047,4.047,0,0,1-.092,1.849,3.707,3.707,0,0,1-1.034,1.716,3.615,3.615,0,0,1-2.549,1.03,3.67,3.67,0,0,1-1.174-.11,4.423,4.423,0,0,1-1.3-.688.294.294,0,0,0-.4-.027,32.59,32.59,0,0,1-6.794,3.3c-.835.3-1.694.527-2.548.766-.781.219-1.567.427-2.359.605a14.543,14.543,0,0,1-1.654.273.741.741,0,0,1-.776-.655.763.763,0,0,1,.535-.806c.351-.089.718-.113,1.071-.2q1.4-.328,2.787-.685a31.565,31.565,0,0,0,6.414-2.457c.8-.406,1.568-.891,2.349-1.344a2.661,2.661,0,0,0,.247-.182m3.51-3.98a2.336,2.336,0,1,0,2.333,2.349,2.331,2.331,0,0,0-2.333-2.349" transform="translate(-53.69 -95.262)" fill="#010101"/>
        <path id="Trazado_273499" data-name="Trazado 273499" d="M108.451,50.609c.086-.622.162-1.246.261-1.866a.844.844,0,0,1,1.269-.647,5.4,5.4,0,0,1,1.48,1.095,25.967,25.967,0,0,1,2.555,2.985c.558.728,1.1,1.469,1.611,2.232a19.521,19.521,0,0,1,.974,1.709,1.671,1.671,0,0,1,.2.968.784.784,0,0,1-.78.718c-.668-.039-1.336-.1-2-.155-.1-.019-.206-.045-.31-.056-.5-.057-1-.1-1.5-.167-.572-.075-1.14-.177-1.712-.25-.636-.081-1.275-.137-1.911-.213a.875.875,0,0,1-.8-.8c.027-.354.1-.7.144-1.057.038-.28.079-.56.106-.841.047-.488.072-.978.129-1.464.085-.731.189-1.459.285-2.188m6.464,5.61.058-.088a33.667,33.667,0,0,0-4.844-6.117c-.087.419-.153.818-.2,1.219-.056.492-.082.988-.143,1.48-.068.547-.165,1.09-.238,1.637-.042.311-.041.629-.1.935-.037.186.025.256.177.277s.3,0,.44.021c.859.108,1.716.225,2.575.333.582.073,1.166.134,1.748.206.177.022.351.064.526.1" transform="translate(-89.592 -39.89)" fill="#010101"/>
        <path id="Trazado_273500" data-name="Trazado 273500" d="M160.931,58.627c-.694,0-1.388,0-2.081,0a.772.772,0,0,1-.734-.4.764.764,0,0,1,0-.72.64.64,0,0,1,.593-.394q1.974-.019,3.947-.029c.2,0,.4.016.6.032a.791.791,0,0,1,.648.722.8.8,0,0,1-.561.75,2.071,2.071,0,0,1-.375.034c-.68,0-1.359,0-2.039,0" transform="translate(-131.35 -47.45)"/>
        <path id="Trazado_273501" data-name="Trazado 273501" d="M187.942,77.806c.638,0,1.277.011,1.915,0a.779.779,0,0,1,.8,1.125.678.678,0,0,1-.7.413q-2.052.012-4.1,0a.788.788,0,0,1-.737-.75.776.776,0,0,1,.72-.767c.7-.018,1.4,0,2.1,0v-.009" transform="translate(-153.869 -64.669)" fill="#010101"/>
        <path id="Trazado_273502" data-name="Trazado 273502" d="M104.912,62.9c-.1.729-.2,1.457-.285,2.188-.057.486-.082.976-.129,1.464-.027.281-.068.561-.106.841-.048.353-.116.7-.143,1.057a.875.875,0,0,0,.8.8c.636.076,1.275.133,1.911.213.572.073,1.14.175,1.712.25.5.065,1,.11,1.5.167.1.012.207.037.31.056-.1.2-.092.476-.374.555-.574-.076-1.148-.15-1.722-.228-.389-.053-.776-.118-1.165-.163-.455-.052-.912-.082-1.366-.133-.531-.06-1.06-.135-1.591-.2a4.853,4.853,0,0,0-.558-.049c-.128,0-.184-.035-.168-.167.043-.362.083-.724.126-1.087.041-.344.081-.687.126-1.03.053-.408.115-.814.164-1.223s.082-.822.129-1.233.123-.844.152-1.269a1.937,1.937,0,0,0-.04-.935l.723.122" transform="translate(-86.053 -52.181)" fill="#f0f4fb"/>
        <path id="Trazado_273503" data-name="Trazado 273503" d="M56.475,245.514c.61,0,1.22,0,1.829,0a.758.758,0,0,1,.058,1.513c-.139.013-.28.01-.42.01-1.072,0-2.145-.009-3.217.006a.785.785,0,0,1-.868-.826.761.761,0,0,1,.726-.7c.631,0,1.262,0,1.892,0Z" transform="translate(-44.765 -204.07)" fill="#010101"/>
        <path id="Trazado_273504" data-name="Trazado 273504" d="M79.351,267.6c-.553,0-1.107,0-1.661,0a.843.843,0,0,1-.853-.821.777.777,0,0,1,.522-.688,1.831,1.831,0,0,1,.495-.077c.988-.007,1.976-.015,2.963,0a1.709,1.709,0,0,1,.707.182c.344.172.312.525.275.834a.639.639,0,0,1-.452.483,1.069,1.069,0,0,1-.379.079c-.539.008-1.079,0-1.618,0" transform="translate(-63.867 -221.101)" fill="#010101"/>
        <path id="Trazado_273505" data-name="Trazado 273505" d="M226.885,120.435c-.491,0-.981,0-1.471,0a.826.826,0,0,1-.733-.373.762.762,0,0,1,.506-1.166,1.777,1.777,0,0,1,.374-.043c.89,0,1.78,0,2.67,0a1.821,1.821,0,0,1,.469.066c.4.11.566.412.523.893a.718.718,0,0,1-.677.6c-.552.023-1.106.006-1.66.006v.012" transform="translate(-186.646 -98.787)" fill="#010101"/>
        <path id="Trazado_273506" data-name="Trazado 273506" d="M59.738,170.232c-.5,0-1,0-1.493,0a.763.763,0,0,1-.336-1.485,1.423,1.423,0,0,1,.352-.044q1.43-.008,2.86-.006a1.749,1.749,0,0,1,.374.039.671.671,0,0,1,.572.753.727.727,0,0,1-.71.732c-.539.015-1.079,0-1.619,0v.007" transform="translate(-47.673 -140.22)" fill="#010101"/>
        <path id="Trazado_273507" data-name="Trazado 273507" d="M246.649,139.8c.49,0,.981,0,1.471,0,.531,0,.756.267.756.89a.693.693,0,0,1-.751.625H245.2a.756.756,0,0,1-.267-1.48.594.594,0,0,1,.2-.033c.5,0,1.009,0,1.513,0Z" transform="translate(-203.144 -116.2)" fill="#010101"/>
        <path id="Trazado_273508" data-name="Trazado 273508" d="M79.851,190.921c-.5,0-1,0-1.493,0a.746.746,0,0,1-.787-.718.76.76,0,0,1,.759-.793c.974,0,1.948-.007,2.922,0a.721.721,0,0,1,.762.528.756.756,0,0,1-.319.877.653.653,0,0,1-.331.1c-.5.01-1.009,0-1.513,0v0" transform="translate(-64.476 -157.435)" fill="#010101"/>
        <path id="Trazado_273509" data-name="Trazado 273509" d="M159.949,79.318c-.433,0-.867.013-1.3,0a.577.577,0,0,1-.52-.423.748.748,0,0,1,.659-1.061c.792-.018,1.584-.017,2.376,0a.726.726,0,0,1,.682.723c.063.525-.325.8-.825.807-.358,0-.715,0-1.073,0,0-.013,0-.025,0-.038" transform="translate(-131.392 -64.68)" fill="#010101"/>
        <path id="Trazado_273510" data-name="Trazado 273510" d="M55.58,267.6c-.309,0-.618.013-.926,0a.79.79,0,0,1-.742-.5.728.728,0,0,1,.143-.819.916.916,0,0,1,.707-.269q.82-.014,1.641,0a.819.819,0,0,1,.848.5.79.79,0,0,1-.745,1.08c-.307.02-.617,0-.926,0Z" transform="translate(-44.756 -221.105)" fill="#010101"/>
        <path id="Trazado_273511" data-name="Trazado 273511" d="M199.487,57.223c.35,0,.7-.006,1.051,0a.754.754,0,0,1,0,1.5c-.546.021-1.094.008-1.641.009-.14,0-.281.008-.421-.005a.754.754,0,0,1,.028-1.5c.329-.013.659,0,.988,0h0" transform="translate(-164.386 -47.562)" fill="#010101"/>
        <path id="Trazado_273512" data-name="Trazado 273512" d="M226.129,141.3c-.287,0-.574,0-.861,0a.779.779,0,0,1-.757-.772.77.77,0,0,1,.735-.741c.574-.008,1.149-.005,1.723,0a.731.731,0,0,1,.751.768.749.749,0,0,1-.772.747h-.819" transform="translate(-186.613 -116.189)" fill="#010101"/>
        <path id="Trazado_273513" data-name="Trazado 273513" d="M58.988,190.925c-.295,0-.589,0-.884,0a.813.813,0,0,1-.726-.736.825.825,0,0,1,.715-.768q.873-.013,1.747,0a.758.758,0,0,1,.351,1.431.686.686,0,0,1-.3.074c-.3.009-.6,0-.905,0" transform="translate(-47.693 -157.439)" fill="#010101"/>
        <path id="Trazado_273514" data-name="Trazado 273514" d="M89.18,245.5c.274,0,.547-.005.821,0a.731.731,0,0,1,.73.745.685.685,0,0,1-.748.771c-.575.013-1.15.014-1.725,0a.74.74,0,0,1-.691-.757.783.783,0,0,1,.709-.754c.154-.006.309,0,.463,0h.442v0" transform="translate(-72.784 -204.054)" fill="#010101"/>
        <path id="Trazado_273515" data-name="Trazado 273515" d="M254.927,120.581c-.21,0-.421,0-.631,0a.888.888,0,0,1-.86-.673.8.8,0,0,1,.664-.859,13.921,13.921,0,0,1,1.708,0,.647.647,0,0,1,.567.691.755.755,0,0,1-.837.838c-.2,0-.407,0-.61,0" transform="translate(-210.645 -98.932)" fill="#010101"/>
        <path id="Trazado_273516" data-name="Trazado 273516" d="M88,170.272c-.224,0-.449.006-.673,0a.8.8,0,0,1-.767-.69.741.741,0,0,1,.668-.818,12.188,12.188,0,0,1,1.691.031c.418.036.611.34.59.783a.751.751,0,0,1-.689.688c-.272.017-.547,0-.82,0v0" transform="translate(-71.946 -140.262)" fill="#010101"/>
        <path id="Trazado_273517" data-name="Trazado 273517" d="M157.4,279.773l-.057-.017.057.017" transform="translate(-130.784 -232.533)" fill="#9ca0a4"/>
        <path id="Trazado_273518" data-name="Trazado 273518" d="M203.333,279.736l-.05-.029.05.029" transform="translate(-168.969 -232.492)" fill="#9ca0a4"/>
        <path id="Trazado_273519" data-name="Trazado 273519" d="M308.273,205.1c.524,0,.738.246.781.746a1.275,1.275,0,0,0,1.021,1.182,1.2,1.2,0,0,0,1.368-.79,1.95,1.95,0,0,0,.063-.74.849.849,0,0,0-.707-.739c-.4-.112-.811-.217-1.215-.333A2.525,2.525,0,0,1,307.749,203a2.805,2.805,0,0,1,1.554-3.748.331.331,0,0,0,.254-.384.961.961,0,0,1,.063-.449.764.764,0,0,1,.932-.381.681.681,0,0,1,.5.675c-.021.358.126.492.444.628a2.616,2.616,0,0,1,1.5,1.817,3.322,3.322,0,0,1,.059.7.739.739,0,0,1-1.126.626.731.731,0,0,1-.4-.641,1.2,1.2,0,0,0-1.374-1.234,1.287,1.287,0,0,0-.7.344,1.2,1.2,0,0,0-.342,1.295c.151.463.518.59.914.706.5.148,1.023.253,1.506.45a2.308,2.308,0,0,1,1.52,2.271A2.7,2.7,0,0,1,312.013,208a4.345,4.345,0,0,1-.788.432c-.136.068-.218.133-.205.31a.806.806,0,0,1-.107.624.823.823,0,0,1-.807.275.7.7,0,0,1-.549-.7.5.5,0,0,0-.362-.583,2.7,2.7,0,0,1-1.657-2.213,1.173,1.173,0,0,1,.046-.591.6.6,0,0,1,.689-.443" transform="translate(-255.611 -164.585)" fill="#020201"/>
        <path id="Trazado_273520" data-name="Trazado 273520" d="M217.1,187.147l-.118,0c-.44-.005-.881-.016-1.321-.015-.98,0-1.96.007-2.939.01a2.957,2.957,0,0,1-.039-.345q0-6.186,0-12.372a.932.932,0,0,0-1.009-1.021c-.194.011-.389,0-.584,0,.005-.165,3.107-4.264,3.832-5.072.151.185.3.364.446.549q1.075,1.388,2.146,2.779c.4.521.807,1.04,1.208,1.563a.516.516,0,0,1,.053.148.866.866,0,0,1-.149.041,7.1,7.1,0,0,0-.93.089.719.719,0,0,0-.5.723q0,6.323,0,12.646a1.3,1.3,0,0,1-.052.258l-.047.014" transform="translate(-175.458 -139.922)" fill="#177dc0"/>
        <path id="Trazado_273521" data-name="Trazado 273521" d="M177.635,234.692l-.113.189-.211,0-.126,0h-.211l-.124,0h-1.9l-.208,0-.128,0h-.08l-.047-.005-.123-.059q0-4.5,0-9.01l.171-.044.02,0,.019-.005.3,0,.02.005.02-.005h.129l.02.006.02-.006,2.279,0,.245.017.021.158c0,.015,0,.031,0,.046q0,.293,0,.587c0,.005-.009.011-.007.015a.193.193,0,0,0,.014.031q0,3.724,0,7.448c0,.2-.005.392-.008.588,0,.005-.009.011-.007.015a.188.188,0,0,0,.015.03" transform="translate(-144.93 -187.646)" fill="#39b54a"/>
        <path id="Trazado_273522" data-name="Trazado 273522" d="M128.323,249.691q0-2.4,0-4.809c0-.024,0-.048,0-.073s0-.064,0-.1l.011-.015-.011-.015c0-.129.044-.18.186-.179,1.017.007,2.034,0,3.058,0l.058.171a1.8,1.8,0,0,0-.033.243q0,2.614,0,5.228a2.074,2.074,0,0,1-.039.286l-.211.023-.547,0h-2.2l-.195,0-.066-.109q0-.139-.006-.279c0-.045,0-.089,0-.134a.021.021,0,0,0,0-.034v-.135c0-.025,0-.05,0-.076" transform="translate(-106.656 -203.232)" fill="#f8cf26"/>
        <path id="Trazado_273523" data-name="Trazado 273523" d="M174.171,226.04q0,4.505,0,9.01a1.628,1.628,0,0,1-.041-.259q0-4.288,0-8.575a.856.856,0,0,1,.037-.176" transform="translate(-144.738 -187.884)" fill="#4cae51"/>
        <path id="Trazado_273524" data-name="Trazado 273524" d="M147.436,251.294a2.076,2.076,0,0,0,.039-.286q0-2.614,0-5.228a1.817,1.817,0,0,1,.033-.243q0,2.514.007,5.028c0,.189.006.379,0,.568,0,.055-.051.108-.078.161" transform="translate(-122.549 -204.09)" fill="#fdca49"/>
        <path id="Trazado_273525" data-name="Trazado 273525" d="M220.747,279.709c.98,0,1.959-.01,2.939-.01.44,0,.881.01,1.321.015a1.071,1.071,0,0,1-.163.025q-1.958,0-3.915,0a1.1,1.1,0,0,1-.182-.03" transform="translate(-183.485 -232.486)" fill="#14354d"/>
        <path id="Trazado_273526" data-name="Trazado 273526" d="M142.945,279.782l.547,0-.547,0" transform="translate(-118.816 -232.553)" fill="#38393d"/>
        <path id="Trazado_273527" data-name="Trazado 273527" d="M128.337,277.468q0,.14.006.279,0-.14-.006-.279" transform="translate(-106.674 -230.631)" fill="#606162"/>
        <path id="Trazado_273528" data-name="Trazado 273528" d="M192.348,225.79l-.246-.017.246.017" transform="translate(-159.675 -187.662)" fill="#1d1d1e"/>
        <path id="Trazado_273529" data-name="Trazado 273529" d="M128.764,279.765l.195,0-.195,0" transform="translate(-107.029 -232.54)" fill="#38393d"/>
        <path id="Trazado_273530" data-name="Trazado 273530" d="M189.838,279.8h0" transform="translate(-157.793 -232.567)" fill="#353438"/>
        <path id="Trazado_273531" data-name="Trazado 273531" d="M191.835,279.81l.211,0-.211,0" transform="translate(-159.453 -232.578)" fill="#353438"/>
        <path id="Trazado_273532" data-name="Trazado 273532" d="M175.86,279.8l.128,0-.128,0" transform="translate(-146.175 -232.569)" fill="#353438"/>
        <path id="Trazado_273533" data-name="Trazado 273533" d="M128.344,246.311c0,.024,0,.048,0,.073,0-.024,0-.048,0-.073" transform="translate(-106.679 -204.733)" fill="#606162"/>
        <path id="Trazado_273534" data-name="Trazado 273534" d="M128.351,275.228c0,.025,0,.05,0,.076,0-.025,0-.05,0-.076" transform="translate(-106.685 -228.769)" fill="#606162"/>
        <path id="Trazado_273535" data-name="Trazado 273535" d="M175.417,225.773l-.019.005-.02,0h.039" transform="translate(-145.774 -187.662)" fill="#1d1d1e"/>
        <path id="Trazado_273536" data-name="Trazado 273536" d="M128.3,276.473a.021.021,0,0,1,0,.034.183.183,0,0,1-.012-.025s.007-.006.011-.009" transform="translate(-106.629 -229.804)" fill="#606162"/>
        <path id="Trazado_273537" data-name="Trazado 273537" d="M193.681,278.485a.185.185,0,0,1-.015-.03s0-.01.007-.015a.224.224,0,0,1,.012.03s0,.01,0,.015" transform="translate(-160.975 -231.439)" fill="#38393d"/>
        <path id="Trazado_273538" data-name="Trazado 273538" d="M128.271,245.567l.011.015-.011.015-.01-.015Z" transform="translate(-106.611 -204.115)" fill="#606162"/>
        <path id="Trazado_273539" data-name="Trazado 273539" d="M142.188,279.794h0" transform="translate(-118.187 -232.564)" fill="#38393d"/>
        <path id="Trazado_273540" data-name="Trazado 273540" d="M193.677,230.609a.2.2,0,0,1-.014-.031s0-.01.008-.015a.211.211,0,0,1,.012.03s0,.01-.005.016" transform="translate(-160.973 -191.644)" fill="#38393d"/>
        <path id="Trazado_273541" data-name="Trazado 273541" d="M175.109,279.765l.047.005-.047-.005" transform="translate(-145.55 -232.54)" fill="#353438"/>
        <path id="Trazado_273542" data-name="Trazado 273542" d="M193.68,226.857c0-.015,0-.031,0-.046a.188.188,0,0,1,.01.032s-.006.009-.01.014" transform="translate(-160.987 -188.525)" fill="#38393d"/>
        <path id="Trazado_273543" data-name="Trazado 273543" d="M177.853,279.8h0" transform="translate(-147.831 -232.573)" fill="#353438"/>
        <path id="Trazado_273544" data-name="Trazado 273544" d="M188.832,279.812h0" transform="translate(-156.957 -232.579)" fill="#353438"/>
        <path id="Trazado_273545" data-name="Trazado 273545" d="M178.41,225.753l-.02.006-.02-.006h.039" transform="translate(-148.262 -187.646)" fill="#1d1d1e"/>
        <path id="Trazado_273546" data-name="Trazado 273546" d="M177.413,225.761l-.02.006-.019-.005h.039" transform="translate(-147.433 -187.652)" fill="#1d1d1e"/>
        <path id="Trazado_273547" data-name="Trazado 273547" d="M246.687,279.7l.047-.014-.047.014" transform="translate(-205.046 -232.479)" fill="#14354d"/>
        <path id="Trazado_273548" data-name="Trazado 273548" d="M82.653,113.34a6.545,6.545,0,0,1-2.937,3.955,6.217,6.217,0,0,1-3.4.923,6.427,6.427,0,0,1-4.3-1.719c-.13-.116-.143-.188.008-.3.993-.768,1.978-1.544,2.966-2.318.469-.367.933-.741,1.408-1.1a.562.562,0,0,1,.34-.113c.332.019.661.076.992.108.256.025.514.026.769.055.49.056.979.126,1.469.185.789.1,1.579.188,2.369.282.1.012.2.03.31.047" transform="translate(-59.78 -93.644)" fill="#2196f2"/>
        <path id="Trazado_273549" data-name="Trazado 273549" d="M66.735,69.481c-.045.334-.088.642-.127.95-.05.39-.1.781-.148,1.171q-.142,1.1-.288,2.19c0,.007-.006.013-.007.02-.044.462-.1.923-.123,1.386a.536.536,0,0,1-.219.445c-.541.424-1.079.851-1.62,1.275q-1.366,1.07-2.735,2.136a2.923,2.923,0,0,1-.258.16,6.454,6.454,0,0,1,5.524-9.733" transform="translate(-50.117 -57.753)" fill="#fec007"/>
        <path id="Trazado_273550" data-name="Trazado 273550" d="M153.249,165.44a2.336,2.336,0,1,1-2.354,2.327,2.333,2.333,0,0,1,2.354-2.327" transform="translate(-125.424 -137.507)" fill="#f15960"/>
        <path id="Trazado_273551" data-name="Trazado 273551" d="M123.052,66.179c-.175-.033-.349-.075-.526-.1-.582-.072-1.166-.133-1.748-.206-.859-.108-1.716-.225-2.575-.333-.145-.018-.3,0-.44-.021s-.215-.091-.177-.277c.061-.306.06-.624.1-.935.074-.546.171-1.09.238-1.637.061-.492.087-.987.143-1.48.045-.4.111-.8.2-1.219a33.667,33.667,0,0,1,4.844,6.117l-.058.088" transform="translate(-97.729 -49.851)" fill="#4cae51"/>
      </g>
    </g>
  </g>
</svg>
