<svg id="Grupo_257095" data-name="Grupo 257095" xmlns="http://www.w3.org/2000/svg" xmlns:xlink="http://www.w3.org/1999/xlink" width="85" height="74.449" viewBox="0 0 85 74.449">
  <defs>
    <clipPath id="clip-path">
      <rect id="Rect치ngulo_323382" data-name="Rect치ngulo 323382" width="85" height="74.449" fill="none"/>
    </clipPath>
  </defs>
  <g id="Grupo_257094" data-name="Grupo 257094" clip-path="url(#clip-path)">
    <path id="Trazado_274576" data-name="Trazado 274576" d="M31.875,21.284c0-4.762,0-9.422,0-14.082a7.628,7.628,0,0,1,.855-3.874A6.383,6.383,0,0,1,38.265.079a34.655,34.655,0,0,1,6.583.177,5.908,5.908,0,0,1,5.39,5.565c.214,6.536.177,13.081.241,19.623,0,.382,0,.764,0,1.212h2.644V25.516q0-7.731,0-15.462c0-1.916.132-2.041,2.09-2.042q3.261,0,6.521,0c1.475,0,2.009.526,2.009,1.984q0,8.3,0,16.61c.925.112,1.8.237,2.681.321a6.049,6.049,0,0,1,5.089,5.59c.073,2.43.015,4.864.015,7.4,1.147,0,2.019.057,2.881-.012a5.919,5.919,0,0,1,4.937,1.512c1.539,1.465,3.321,2.671,4.917,4.082a2.4,2.4,0,0,1,.7,1.608c.043,8.484.032,16.969.028,25.453,0,1.337-.547,1.886-1.892,1.886q-40.7,0-81.409,0C.329,74.446,0,74.1,0,72.713Q0,55.779.016,38.845a3.469,3.469,0,0,1,.372-1.456C1.923,34.245,3.5,31.122,5.04,27.982a2.632,2.632,0,0,0,.241-1.074c.028-1.3,0-2.594.014-3.891.011-1.406.32-1.726,1.72-1.728q8.414-.011,16.829,0h8.032m2.837-2.563-.172.222v5.032c2.291,0,4.427-.048,6.559.018a3.9,3.9,0,0,1,3.191,1.5,3.95,3.95,0,0,1,.417,4.143,3.89,3.89,0,0,1-3.663,2.3c-1.385.051-2.773.011-4.347.011.767,1.536,1.5,2.88,2.114,4.278a1.493,1.493,0,0,0,1.661,1.034,4.166,4.166,0,0,1,4.379,2.484l.112.582.206-.026v-.567c.007-2.2.05-4.4.009-6.6a6.4,6.4,0,0,1,1.3-3.873c.315-.449.713-.84,1.073-1.258l.193-.227c.014-7.011.058-14.022.023-21.032A3.577,3.577,0,0,0,44.63,2.952c-2.328-.132-4.667-.178-7-.107a3.33,3.33,0,0,0-1.788.948C33.6,5.739,34.807,8.31,34.481,10.706c2.3,0,4.4-.045,6.5.016A3.966,3.966,0,0,1,44.342,12.3a3.892,3.892,0,0,1,.255,4.235,3.861,3.861,0,0,1-3.573,2.139c-2.032.021-4.065.031-6.1.046l-.216,0m21.249,0-.172.224q0,3.676,0,7.351l.161.243.233.007,4.606,0,.232-.25V18.941l-.223-.223-4.624,0h-.215M45.167,42.746q-.027-.3-.054-.593l-.2.008-.066.569c-.973,2.148-2.816,2.677-5.033,2.526v6.824l1.327-.155c.578-1.293,1.1-2.84,2.162-3.465,2.054-1.208,2.009-2.891,1.888-4.771-.02-.314-.015-.629-.021-.944M34.551,55.118l.2.024a16.346,16.346,0,0,1,1.7-1.367,1.473,1.473,0,0,0,.781-1.445c-.029-4.236-.011-8.472-.021-12.708a2.394,2.394,0,0,0-.171-1.015c-.674-1.381-1.394-2.74-2.1-4.107l-.282-.645-.147.053q.017.3.034.605,0,10.3.005,20.6M64.8,42.9l.263-.316-.268-.028H47.874v3.956c.934,0,1.773,0,2.612,0a10.585,10.585,0,0,0,4.192-.625,8.977,8.977,0,0,1,5.333-.5,3.136,3.136,0,0,0,2.069-.34A23.791,23.791,0,0,0,64.8,42.9M31.566,24.012Q19.954,24,8.342,24a1.1,1.1,0,0,0-.323.126V26.31l.2.231,23.328,0,.211-.239-.014-2.116-.176-.179m.23,11.771q0-.223,0-.447,0-.2,0-.4V34.2l-.177-.046-.269.564c-.381.7-.73,1.415-1.151,2.087a7.306,7.306,0,0,0-.988,4.087c.044,9.853.023,19.706.023,29.558v1.272h2.333l.231-.2q.018-13.509.033-27.017c0-2.908-.022-5.816-.034-8.724M53.229,61.225l-.18.205a3.924,3.924,0,0,1,.168,1,11.236,11.236,0,0,1-1.9,5.8,42.356,42.356,0,0,1-3.193,3.489H60.809l.212-.187q0-5.047,0-10.094l-.223-.223-7.57.008M69,39.558c.014-2.1.144-4.2.012-6.291a3.859,3.859,0,0,0-4.057-3.976c-4.405-.1-8.814-.057-13.222-.014a3.841,3.841,0,0,0-3.884,4.186V39.8a1.042,1.042,0,0,0,.259.095q10.082.007,20.164-.008c.243,0,.485-.218.728-.335m13.058,7.551c-1.392-1.145-2.835-2.235-4.16-3.454A3.981,3.981,0,0,0,74.7,42.5c-1.464.1-2.942-.006-4.412.043a2.278,2.278,0,0,0-1.23.414c-1.609,1.219-3.2,2.461-4.738,3.772a1.961,1.961,0,0,0-.551,1.341c-.033,7.567-.024,15.135-.021,22.7,0,.3.041.605.066.949H82.059l.212-.191c.013-3.91.037-7.819.036-11.729,0-4.154-.027-8.308-.042-12.462l-.209-.233M2.726,71.533l.213.19H26.305l.195-.184c.014-.419.04-.839.04-1.258,0-10.3-.009-20.6.024-30.895a5.419,5.419,0,0,1,.517-2.192c1.171-2.521,2.426-5,3.649-7.5l-.02-.4c-7.53-.011-15.059-.03-22.589,0a1.392,1.392,0,0,0-.976.681C5.989,32.171,4.9,34.4,3.79,36.629a3.423,3.423,0,0,0-.164.611c6.108,0,12.131,0,18.153,0a3.828,3.828,0,0,1,1.04.071,1.21,1.21,0,0,1,.969,1.386A1.145,1.145,0,0,1,22.7,39.878a6.64,6.64,0,0,1-1.152.045q-9.3.023-18.6.04l-.229.23c-.013.42-.037.84-.037,1.26q0,12.254,0,24.509c0,1.857.027,3.714.042,5.572m47.559-9.154c.122-4.481-3.283-7.71-7.842-7.821a7.894,7.894,0,0,0-7.971,7.678,8.271,8.271,0,0,0,7.878,8.284c4.164-.067,8.316-3.709,7.935-8.14m3.165-11c1.685,1.954,5.026,2.163,7.141,1.511A.687.687,0,0,0,61,52.405c.033-1.386.019-2.774.019-4.431-1.389,0-2.634-.035-3.875.008a3.019,3.019,0,0,0-3.269,2.355c-.119.323-.259.637-.423,1.038m7.509,4.155a14.818,14.818,0,0,1-2.213.414,10.125,10.125,0,0,1-6.609-2.1,1.2,1.2,0,0,0-.89-.282,11.186,11.186,0,0,0-1.584.766c.851,1.26,1.657,2.473,2.489,3.668.142.2.4.463.6.465,2.715.031,5.431.021,8.206.021Zm0-44.723h-5.13v5.13h5.13ZM34.532,15.99c2.231,0,4.356-.01,6.481.005a1.316,1.316,0,0,0,1.4-1.246,1.276,1.276,0,0,0-1.311-1.423c-1.012-.026-2.025-.011-3.038-.012-1.173,0-2.346,0-3.536,0ZM34.5,26.633a2.746,2.746,0,0,0,.017.949c.294.632.263,1.62,1.22,1.66,1.778.073,3.563.052,5.343.005.806-.021,1.206-.5,1.222-1.362a1.062,1.062,0,0,0-1.184-1.244c-2.161-.024-4.322-.008-6.617-.008M44.13,51.681c4.781.255,6.177.229,7.263-2.449-1.234,0-2.453-.058-3.664.014a3.844,3.844,0,0,0-3.6,2.434M40.024,42.7a7,7,0,0,0,2.126-.716,1.552,1.552,0,0,0,0-1.5,6.97,6.97,0,0,0-2.126-.679ZM34.547,71.674h2.486L34.547,69.7Z" transform="translate(0 0)" fill="#010000"/>
    <path id="Trazado_274577" data-name="Trazado 274577" d="M40.795,139.57c-1.223,2.5-2.478,4.978-3.649,7.5a5.422,5.422,0,0,0-.517,2.192c-.033,10.3-.022,20.6-.024,30.895,0,.419-.026.839-.04,1.258l-.195.184H13l-.213-.19c-.015-1.857-.041-3.714-.042-5.572q-.007-12.254,0-24.509c0-.42.024-.84.037-1.26l.229-.23q9.3-.02,18.6-.04a6.684,6.684,0,0,0,1.152-.045,1.145,1.145,0,0,0,1.091-1.178,1.211,1.211,0,0,0-.969-1.386,3.83,3.83,0,0,0-1.04-.071c-6.023,0-12.045,0-18.153,0a3.414,3.414,0,0,1,.164-.611c1.106-2.226,2.2-4.458,3.356-6.658a1.392,1.392,0,0,1,.976-.681c7.529-.028,15.059-.008,22.588,0l.02.4M23.321,173.833c0,1.364-.013,2.586,0,3.808.011.72.778,1.564,1.348,1.427.706-.17,1.248-.5,1.188-1.433-.081-1.243-.02-2.5-.02-3.8a28,28,0,0,0,2.96-.022,11.589,11.589,0,0,0,2.893-.627,3.227,3.227,0,0,0,2.138-3.263c0-2.465.012-4.93-.011-7.4-.006-.691-.178-1.382-.168-2.071.019-1.32.15-2.638.154-3.957,0-.362-.191-.934-.452-1.046a1.275,1.275,0,0,1-.8-1.475c.036-.754-.126-1.4-1.12-1.391s-1.524.409-1.588,1.36c-.025.367,0,.738,0,1.212H25.969c-.518-.852.709-2.778-1.555-2.566-1.737.163-.736,1.651-1.248,2.523-.918,0-1.892-.032-2.864.011-.712.031-1-.2-1-.951,0-1.25-.362-1.6-1.394-1.581-.887.015-1.248.5-1.332,1.617a3.07,3.07,0,0,1-.437,1.024,5.574,5.574,0,0,0-.776,1.546c-.24,1.9.192,3.792.018,5.719-.207,2.3.059,4.642-.079,6.954a4.406,4.406,0,0,0,4.422,4.389c1.15-.044,2.3-.008,3.6-.008" transform="translate(-10.064 -109.876)" fill="#ad6643"/>
    <path id="Trazado_274578" data-name="Trazado 274578" d="M321.313,231.187H303.071c-.025-.344-.066-.647-.066-.949,0-7.568-.012-15.135.021-22.7a1.962,1.962,0,0,1,.551-1.341c1.534-1.311,3.129-2.553,4.738-3.772a2.277,2.277,0,0,1,1.23-.413c1.47-.049,2.948.061,4.412-.043a3.982,3.982,0,0,1,3.192,1.153c1.325,1.219,2.768,2.309,4.16,3.454l.209.233c.015,4.154.04,8.308.042,12.461,0,3.91-.023,7.819-.036,11.729l-.212.191m-7.8-18.391c0-.514-.027-.936.005-1.354.074-.965-.372-1.3-1.311-1.291-.891.006-1.256.48-1.2,1.228a2.022,2.022,0,0,1-1.067,2.108,4.17,4.17,0,0,0-1.443,1.862c-.977,2.373.984,5.125,3.651,5.373a1.782,1.782,0,0,1,1.291.889,1.668,1.668,0,0,1-.526,1.4c-.739.658-1.6.158-1.94-1.023q-.486-1.71-1.864-1.277a1.562,1.562,0,0,0-.737,2.05,5.557,5.557,0,0,0,1.6,2.352A1.913,1.913,0,0,1,311,227.138c-.049.684.19,1.239,1.007,1.331.993.111,1.464-.328,1.52-1.361.031-.577-.254-1.2.518-1.652a3.891,3.891,0,0,0,2.135-4.245,4.043,4.043,0,0,0-3.94-3.252,1.227,1.227,0,0,1-1.222-1.392c0-.613.205-1.154,1.039-1.152s1.436.126,1.489,1.155a1.441,1.441,0,0,0,1.619,1.366c.823-.169,1.17-.9,1.008-1.865a4.169,4.169,0,0,0-2.656-3.276m0-6.478c.041-1.123-.4-1.581-1.232-1.615a1.137,1.137,0,0,0-1.281,1.2c-.036.753.256,1.285,1.126,1.316.83.03,1.331-.3,1.387-.9" transform="translate(-239.254 -159.464)" fill="#499154"/>
    <path id="Trazado_274579" data-name="Trazado 274579" d="M174.121,50.3a4.166,4.166,0,0,0-4.379-2.484,1.493,1.493,0,0,1-1.661-1.034c-.613-1.4-1.347-2.742-2.115-4.278,1.575,0,2.963.041,4.348-.011a3.89,3.89,0,0,0,3.663-2.3,3.95,3.95,0,0,0-.417-4.143,3.9,3.9,0,0,0-3.191-1.5c-2.132-.066-4.268-.018-6.559-.018,0-1.707,0-3.369,0-5.032q.087-.005.175-.005l.212-.22c2.032-.015,4.065-.025,6.1-.046a4.049,4.049,0,0,0,3.317-6.374,3.965,3.965,0,0,0-3.358-1.576c-2.1-.061-4.2-.016-6.5-.016.326-2.4-.878-4.968,1.364-6.913A3.33,3.33,0,0,1,166.9,13.4c2.33-.071,4.669-.025,7,.107A3.577,3.577,0,0,1,177.04,17.3c.035,7.01-.009,14.021-.023,21.032l-.193.227a16.483,16.483,0,0,0-1.073,1.258,6.4,6.4,0,0,0-1.3,3.873c.041,2.2,0,4.4-.009,6.6l-.318.012" transform="translate(-129.271 -10.554)" fill="#ad6643"/>
    <path id="Trazado_274580" data-name="Trazado 274580" d="M227.377,143.164a3.841,3.841,0,0,1,3.884-4.186c4.407-.043,8.817-.085,13.222.014a3.859,3.859,0,0,1,4.057,3.976c.132,2.088,0,4.193-.012,6.291-6.543,0-13.086-.022-19.629.023-.993.007-1.263-.3-1.21-1.244.074-1.325.038-2.658,0-3.987a3.038,3.038,0,0,0-.317-.886" transform="translate(-179.53 -109.702)" fill="#eb423f"/>
    <path id="Trazado_274581" data-name="Trazado 274581" d="M179.634,267.126c.381,4.431-3.771,8.073-7.935,8.14a8.271,8.271,0,0,1-7.878-8.284,7.894,7.894,0,0,1,7.971-7.678c4.558.111,7.963,3.34,7.842,7.821" transform="translate(-129.348 -204.747)" fill="#f7b030"/>
    <path id="Trazado_274582" data-name="Trazado 274582" d="M241.432,301.471H228.75a42.394,42.394,0,0,0,3.193-3.489,11.237,11.237,0,0,0,1.9-5.8,3.906,3.906,0,0,0-.168-1l.18-.205,7.57-.008.223.223q0,5.047,0,10.094l-.212.187" transform="translate(-180.623 -229.751)" fill="#eb423f"/>
    <path id="Trazado_274583" data-name="Trazado 274583" d="M141.427,165.237q0,.2,0,.4,0,.223,0,.447c.012,2.908.036,5.816.034,8.724q-.009,13.509-.033,27.017l-.231.2h-2.333V200.75c0-9.853.021-19.706-.023-29.558a7.305,7.305,0,0,1,.988-4.087c.421-.673.77-1.39,1.151-2.087l.446.22" transform="translate(-109.631 -130.299)" fill="#8c5237"/>
    <path id="Trazado_274584" data-name="Trazado 274584" d="M38.117,116.368v-2.187a1.107,1.107,0,0,1,.323-.126q11.612,0,23.224.016l.176.179.014,2.116-.211.239-23.328,0-.2-.231" transform="translate(-30.098 -90.059)" fill="#8c5237"/>
    <path id="Trazado_274585" data-name="Trazado 274585" d="M244.473,202.634a23.79,23.79,0,0,1-2.718,2.143,3.136,3.136,0,0,1-2.069.34,8.979,8.979,0,0,0-5.333.5,10.585,10.585,0,0,1-4.192.625c-.839,0-1.678,0-2.612,0v-3.956h16.917q0,.172.005.345" transform="translate(-179.676 -159.73)" fill="#7a4830"/>
    <path id="Trazado_274586" data-name="Trazado 274586" d="M164.6,163.981c.7,1.367,1.424,2.726,2.1,4.107a2.393,2.393,0,0,1,.171,1.015c.011,4.236-.007,8.473.021,12.708a1.473,1.473,0,0,1-.781,1.445,16.394,16.394,0,0,0-1.7,1.367,1.346,1.346,0,0,0-.195-.024q0-10.3-.005-20.6l.394-.013" transform="translate(-129.656 -129.481)" fill="#8c5237"/>
    <path id="Trazado_274587" data-name="Trazado 274587" d="M265.173,96.546q0-3.676,0-7.352c.058,0,.117-.006.176-.006l.212-.219,4.624,0,.223.223q0,3.679,0,7.358l-.232.25-4.606,0-.22-.245c-.058,0-.116,0-.174-.006" transform="translate(-209.382 -70.25)" fill="#eb423f"/>
    <path id="Trazado_274588" data-name="Trazado 274588" d="M254.056,231.378c.164-.4.3-.716.423-1.038a3.019,3.019,0,0,1,3.27-2.355c1.242-.043,2.486-.008,3.875-.008,0,1.657.014,3.044-.019,4.431a.687.687,0,0,1-.408.481c-2.115.652-5.456.443-7.141-1.511" transform="translate(-200.605 -180.003)" fill="#ad6643"/>
    <path id="Trazado_274589" data-name="Trazado 274589" d="M247.348,256.486v2.953c-2.775,0-5.491.01-8.206-.021-.205,0-.46-.262-.6-.465-.833-1.195-1.639-2.408-2.489-3.668a11.161,11.161,0,0,1,1.584-.766,1.2,1.2,0,0,1,.889.282,10.126,10.126,0,0,0,6.609,2.1,14.814,14.814,0,0,0,2.213-.414" transform="translate(-186.389 -200.955)" fill="#7a4830"/>
    <rect id="Rect치ngulo_323381" data-name="Rect치ngulo 323381" width="5.13" height="5.13" transform="translate(55.832 10.807)" fill="#7a4830"/>
    <path id="Trazado_274590" data-name="Trazado 274590" d="M194.583,203.115c.006.315,0,.63.021.944.121,1.88.166,3.563-1.888,4.771-1.063.625-1.583,2.172-2.162,3.465l-1.327.155v-6.824c2.217.15,4.059-.378,5.033-2.526l.323.016" transform="translate(-149.416 -160.369)" fill="#ad6643"/>
    <path id="Trazado_274591" data-name="Trazado 274591" d="M164.137,65.944V63.268c1.19,0,2.363,0,3.536,0,1.013,0,2.026-.014,3.038.012a1.276,1.276,0,0,1,1.311,1.423,1.316,1.316,0,0,1-1.4,1.246c-2.125-.015-4.251,0-6.481,0" transform="translate(-129.604 -49.955)" fill="#d38f72"/>
    <path id="Trazado_274592" data-name="Trazado 274592" d="M163.874,126.569c2.295,0,4.456-.016,6.617.008a1.063,1.063,0,0,1,1.184,1.244c-.016.863-.416,1.34-1.222,1.362-1.78.047-3.565.068-5.343-.005-.957-.039-.926-1.028-1.22-1.66a2.745,2.745,0,0,1-.017-.949" transform="translate(-129.37 -99.936)" fill="#d38f72"/>
    <path id="Trazado_274593" data-name="Trazado 274593" d="M209.757,236.374a3.843,3.843,0,0,1,3.6-2.434c1.211-.072,2.43-.014,3.664-.014-1.086,2.678-2.482,2.7-7.263,2.449" transform="translate(-165.626 -184.692)" fill="#b0bc6f"/>
    <path id="Trazado_274594" data-name="Trazado 274594" d="M227.42,159.049a3.038,3.038,0,0,1,.317.886c.035,1.329.071,2.662,0,3.987-.053.945.216,1.251,1.21,1.244,6.542-.045,13.086-.023,19.628-.023-.243.117-.485.334-.728.335q-10.082.026-20.164.008a1.034,1.034,0,0,1-.259-.095Z" transform="translate(-179.573 -125.587)" fill="#ff4845"/>
    <path id="Trazado_274595" data-name="Trazado 274595" d="M190.238,192.057v-2.9a6.975,6.975,0,0,1,2.126.678,1.552,1.552,0,0,1,0,1.505,7.007,7.007,0,0,1-2.126.716" transform="translate(-150.214 -149.361)" fill="#d38f72"/>
    <path id="Trazado_274596" data-name="Trazado 274596" d="M164.207,333.266v-1.973l2.486,1.973Z" transform="translate(-129.66 -261.592)" fill="#8c5237"/>
    <path id="Trazado_274597" data-name="Trazado 274597" d="M213.18,188.869l.318-.012q0,.284,0,.567l-.206.026Z" transform="translate(-168.329 -149.123)" fill="#6b3e2a"/>
    <path id="Trazado_274598" data-name="Trazado 274598" d="M149.454,163.119l-.446-.22.269-.564.177.046Z" transform="translate(-117.658 -128.181)" fill="#99593c"/>
    <path id="Trazado_274599" data-name="Trazado 274599" d="M164.468,161.56l-.394.013q-.017-.3-.034-.605l.147-.053.282.645" transform="translate(-129.528 -127.06)" fill="#7a4830"/>
    <path id="Trazado_274600" data-name="Trazado 274600" d="M213.47,200.948l-.323-.016.066-.569.2-.008q.027.3.054.593" transform="translate(-168.303 -158.202)" fill="#6b3e2a"/>
    <path id="Trazado_274601" data-name="Trazado 274601" d="M307.965,202.634q0-.173-.005-.345l.268.029-.263.316" transform="translate(-243.168 -159.73)" fill="#6b3e2a"/>
    <path id="Trazado_274602" data-name="Trazado 274602" d="M151.129,168.4q0-.223,0-.447,0,.223,0,.447" transform="translate(-119.332 -132.617)" fill="#99593c"/>
    <path id="Trazado_274603" data-name="Trazado 274603" d="M145.989,139.633l-.02-.4.02.4" transform="translate(-115.259 -109.939)" fill="#99593c"/>
    <path id="Trazado_274604" data-name="Trazado 274604" d="M13.164,189.948l-.229.229.229-.229" transform="translate(-10.214 -149.985)" fill="#bd6f49"/>
    <path id="Trazado_274605" data-name="Trazado 274605" d="M390.231,224.144l-.209-.233.209.233" transform="translate(-307.966 -176.802)" fill="#509f5c"/>
    <path id="Trazado_274606" data-name="Trazado 274606" d="M226.025,132.261l.193-.227-.193.227" transform="translate(-178.472 -104.255)" fill="#bd6f49"/>
    <path id="Trazado_274607" data-name="Trazado 274607" d="M288.944,125.25l.232-.25-.232.25" transform="translate(-228.153 -98.701)" fill="#ff4845"/>
    <path id="Trazado_274608" data-name="Trazado 274608" d="M265.96,125.014l.22.245-.233-.008q.007-.119.013-.237" transform="translate(-209.995 -98.712)" fill="#ff4845"/>
    <path id="Trazado_274609" data-name="Trazado 274609" d="M265.354,124.991q-.006.118-.013.237l-.161-.243q.087.006.174.006" transform="translate(-209.389 -98.689)" fill="#cb3936"/>
    <path id="Trazado_274610" data-name="Trazado 274610" d="M149.938,125.275l.211-.239-.211.239" transform="translate(-118.393 -98.73)" fill="#99593c"/>
    <path id="Trazado_274611" data-name="Trazado 274611" d="M38.117,125.051l.2.231-.2-.231" transform="translate(-30.098 -98.742)" fill="#99593c"/>
    <path id="Trazado_274612" data-name="Trazado 274612" d="M150.213,114.308l-.176-.179.176.179" transform="translate(-118.471 -90.117)" fill="#99593c"/>
    <path id="Trazado_274613" data-name="Trazado 274613" d="M164.227,261.981a1.352,1.352,0,0,1,.195.024l-.195-.024" transform="translate(-129.675 -206.863)" fill="#7a4830"/>
    <path id="Trazado_274614" data-name="Trazado 274614" d="M289.211,89.192l-.223-.223.223.223" transform="translate(-228.188 -70.251)" fill="#ff4845"/>
    <path id="Trazado_274615" data-name="Trazado 274615" d="M266.205,88.976l-.212.218q0-.109,0-.218h.215" transform="translate(-210.029 -70.256)" fill="#ff4845"/>
    <path id="Trazado_274616" data-name="Trazado 274616" d="M265.344,88.98q0,.109,0,.218c-.059,0-.117,0-.175.006l.172-.224" transform="translate(-209.383 -70.26)" fill="#cb3936"/>
    <path id="Trazado_274617" data-name="Trazado 274617" d="M252.328,291.005l-.18.205.18-.205" transform="translate(-199.099 -229.781)" fill="#ff4845"/>
    <path id="Trazado_274618" data-name="Trazado 274618" d="M165.207,88.97l-.212.22,0-.217.216,0" transform="translate(-130.279 -70.252)" fill="#bd6f49"/>
    <path id="Trazado_274619" data-name="Trazado 274619" d="M289.211,291.192l-.223-.223.223.223" transform="translate(-228.188 -229.752)" fill="#ff4845"/>
    <path id="Trazado_274620" data-name="Trazado 274620" d="M164.344,88.982q0,.109,0,.217-.088,0-.175.005l.172-.222" transform="translate(-129.632 -70.261)" fill="#99593c"/>
    <path id="Trazado_274621" data-name="Trazado 274621" d="M12.959,340l.213.19-.213-.19" transform="translate(-10.233 -268.468)" fill="#bd6f49"/>
    <path id="Trazado_274622" data-name="Trazado 274622" d="M125.032,340.211l.195-.184-.195.184" transform="translate(-98.727 -268.489)" fill="#bd6f49"/>
    <path id="Trazado_274623" data-name="Trazado 274623" d="M150.039,340.157l.23-.2-.23.2" transform="translate(-118.472 -268.435)" fill="#99593c"/>
    <path id="Trazado_274624" data-name="Trazado 274624" d="M289.031,340.191l.212-.187-.212.187" transform="translate(-228.222 -268.471)" fill="#ff4845"/>
    <path id="Trazado_274625" data-name="Trazado 274625" d="M390.036,340.19l.212-.191-.212.191" transform="translate(-307.977 -268.467)" fill="#509f5c"/>
    <path id="Trazado_274626" data-name="Trazado 274626" d="M32.859,224.206c-1.293,0-2.447-.037-3.6.008a4.407,4.407,0,0,1-4.422-4.389c.138-2.312-.128-4.653.079-6.954.173-1.928-.258-3.823-.018-5.719a5.574,5.574,0,0,1,.776-1.546,3.078,3.078,0,0,0,.437-1.023c.084-1.113.446-1.6,1.332-1.617,1.032-.018,1.391.331,1.394,1.581,0,.755.289.983,1,.951.972-.043,1.947-.011,2.864-.011.512-.873-.489-2.36,1.248-2.523,2.264-.213,1.037,1.713,1.555,2.566h3.878c0-.474-.021-.844,0-1.212.064-.951.584-1.355,1.588-1.36s1.155.637,1.12,1.391a1.275,1.275,0,0,0,.8,1.475c.26.113.453.685.452,1.046,0,1.319-.135,2.637-.154,3.957-.01.689.161,1.38.167,2.071.023,2.465.007,4.93.011,7.4a3.227,3.227,0,0,1-2.138,3.263,11.589,11.589,0,0,1-2.894.627,27.993,27.993,0,0,1-2.959.022c0,1.307-.061,2.56.02,3.8.061.931-.482,1.263-1.188,1.433-.57.137-1.337-.708-1.348-1.427-.018-1.222,0-2.444,0-3.808m7.962-15.983c-1.473,0-2.869-.024-4.264.009-.833.02-1.158.66-1.2,1.831-.031.918.486.926,1.136.9.594-.023,1.19,0,1.786,0,1.983,0,2.616-.65,2.54-2.737m-.05,10.522a30.984,30.984,0,0,0-3.822.049,2.274,2.274,0,0,0-1.465,1.061c-.544,1-.063,1.622,1.076,1.626.628,0,1.255,0,1.883,0,2.055,0,2.543-.549,2.328-2.736m-7.966-2.7c.115-1.826-.146-2.478-1.126-2.535-1.418-.084-2.845-.021-4.238-.021-.375,1.754.613,2.988,2.427,2.749.952-.126,1.92-.13,2.937-.192m-5.323,2.7c-.259,2.148.244,2.755,2.264,2.726,1.02-.015,2.039-.121,3.041-.185.14-1.67-.269-2.463-1.366-2.524-1.313-.073-2.634-.017-3.939-.017m5.369-8a3.712,3.712,0,0,0-.032-1.371c-.213-.443-.633-1.067-1.01-1.1-1.445-.128-2.909-.052-4.356-.052-.132,1.606.34,2.49,1.343,2.515,1.319.033,2.639.008,4.055.008m7.948,2.738c-1.429,0-2.784-.022-4.138.008a1.14,1.14,0,0,0-1.186,1.224,7.048,7.048,0,0,0,.2,1.286h2.876c2.109,0,2.387-.3,2.245-2.519" transform="translate(-19.602 -160.25)" fill="#010100"/>
    <path id="Trazado_274627" data-name="Trazado 274627" d="M333.158,243.565a4.169,4.169,0,0,1,2.656,3.276c.163.969-.185,1.7-1.008,1.865a1.441,1.441,0,0,1-1.619-1.366c-.052-1.029-.652-1.154-1.488-1.155s-1.043.539-1.039,1.152a1.227,1.227,0,0,0,1.222,1.392,4.043,4.043,0,0,1,3.94,3.252,3.891,3.891,0,0,1-2.135,4.245c-.772.447-.487,1.074-.518,1.652-.056,1.032-.527,1.471-1.52,1.36-.817-.091-1.055-.646-1.007-1.331a1.913,1.913,0,0,0-1.022-2.021,5.559,5.559,0,0,1-1.6-2.352,1.563,1.563,0,0,1,.738-2.05q1.375-.435,1.864,1.277c.336,1.182,1.2,1.681,1.94,1.023a1.669,1.669,0,0,0,.526-1.4,1.782,1.782,0,0,0-1.291-.889c-2.667-.247-4.628-3-3.651-5.373a4.171,4.171,0,0,1,1.444-1.861,2.022,2.022,0,0,0,1.067-2.108c-.056-.748.31-1.222,1.2-1.228.94-.006,1.385.326,1.311,1.291-.032.417-.005.839-.005,1.354" transform="translate(-258.897 -190.233)" fill="#010201"/>
    <path id="Trazado_274628" data-name="Trazado 274628" d="M343.519,216.639c-.056.608-.557.934-1.387.9-.87-.031-1.162-.563-1.126-1.316a1.137,1.137,0,0,1,1.281-1.2c.828.033,1.273.492,1.232,1.615" transform="translate(-269.26 -169.784)" fill="#010201"/>
    <path id="Trazado_274629" data-name="Trazado 274629" d="M80.351,227.99c.075,2.087-.557,2.736-2.54,2.737-.6,0-1.191-.018-1.786,0-.649.025-1.167.016-1.135-.9.04-1.171.365-1.811,1.2-1.831,1.395-.033,2.79-.009,4.264-.009" transform="translate(-59.133 -180.017)" fill="#f7b030"/>
    <path id="Trazado_274630" data-name="Trazado 274630" d="M79.934,277.9c.215,2.187-.273,2.736-2.328,2.736-.628,0-1.256,0-1.883,0-1.139,0-1.62-.626-1.076-1.626a2.273,2.273,0,0,1,1.465-1.06,30.945,30.945,0,0,1,3.822-.049" transform="translate(-58.765 -219.405)" fill="#f7b030"/>
    <path id="Trazado_274631" data-name="Trazado 274631" d="M42.322,255.508c-1.017.062-1.985.066-2.937.192-1.815.24-2.8-.995-2.427-2.748,1.393,0,2.82-.062,4.238.021.98.058,1.241.709,1.126,2.535" transform="translate(-29.12 -199.715)" fill="#f7b030"/>
    <path id="Trazado_274632" data-name="Trazado 274632" d="M37.216,277.958c1.306,0,2.626-.056,3.94.017,1.1.061,1.506.854,1.366,2.524-1,.064-2.021.17-3.041.185-2.019.029-2.523-.578-2.264-2.726" transform="translate(-29.337 -219.462)" fill="#fdd43a"/>
    <path id="Trazado_274633" data-name="Trazado 274633" d="M42.63,230.459c-1.416,0-2.736.025-4.055-.008-1-.025-1.475-.91-1.343-2.515,1.447,0,2.911-.076,4.356.052.376.033.8.658,1.009,1.1a3.706,3.706,0,0,1,.033,1.371" transform="translate(-29.381 -179.962)" fill="#fdd43a"/>
    <path id="Trazado_274634" data-name="Trazado 274634" d="M80.764,253c.141,2.223-.136,2.52-2.245,2.519H75.642a7.049,7.049,0,0,1-.2-1.286,1.14,1.14,0,0,1,1.186-1.224c1.353-.03,2.708-.008,4.138-.008" transform="translate(-59.569 -199.768)" fill="#fdd43a"/>
  </g>
</svg>
