<svg id="Grupo_257101" data-name="Grupo 257101" xmlns="http://www.w3.org/2000/svg" xmlns:xlink="http://www.w3.org/1999/xlink" width="84.971" height="85.218" viewBox="0 0 84.971 85.218">
  <defs>
    <clipPath id="clip-path">
      <rect id="Rectángulo_323384" data-name="Rectángulo 323384" width="84.971" height="85.218" fill="none"/>
    </clipPath>
  </defs>
  <g id="Grupo_257100" data-name="Grupo 257100" clip-path="url(#clip-path)">
    <path id="Trazado_274666" data-name="Trazado 274666" d="M147.453,29.836a1.837,1.837,0,0,1-2.047,1.267c-3.89-.044-7.78-.015-11.671-.02-1.519,0-1.766-.252-1.777-1.751-.019-2.5-.215-5.021.008-7.5a7.467,7.467,0,0,1,2.544-4.623,8.853,8.853,0,0,1,5.685-2.121c-4.173-5.121-2.493-10.481.941-13.23a8.714,8.714,0,0,1,12,1.2,8.824,8.824,0,0,1-.321,11.937,22.286,22.286,0,0,1,3.658.906,7.243,7.243,0,0,1,4.626,6.253c.225,2.465.149,4.958.176,7.44a1.36,1.36,0,0,1-1.513,1.485c-2.558.024-5.117.017-7.675,0a1.427,1.427,0,0,1-1.5-1.416c.5-1.242,1.664-1.193,2.764-1.322,0-1.059.068-2.069-.019-3.065a1.442,1.442,0,0,1,1.282-1.756c1.092.294,1.372,1.053,1.3,2.1-.067.961-.014,1.929-.014,2.9h2.875c0-1.979.03-3.894-.019-5.808a4.946,4.946,0,0,0-.406-1.591c-.953-2.476-3.369-3.734-6.285-3.435-4.167-.011-8.337-.131-12.5.007-2.451.082-4.345,1.176-4.841,3.8-.429,2.266-.089,4.678-.089,7.028h2.715c0-1.32-.017-2.576.013-3.83.007-.282.137-.768.291-.8a2.429,2.429,0,0,1,1.518-.012,1.753,1.753,0,0,1,.687,1.252c.093,1.077.02,2.168.014,3.254l-.138.164.159.023c1.887.006,3.775.046,5.662,0,.978-.022,1.674.232,1.9,1.269M150.821,4.25a6.334,6.334,0,0,0-9.193.6c-2,2.343-1.642,6.548.342,8.2,2.56,2.9,6.279,2.77,9.038.245a6.292,6.292,0,0,0-.187-9.047" transform="translate(-104.126 0)" fill="#010101"/>
    <path id="Trazado_274667" data-name="Trazado 274667" d="M275.6,287.37a2.164,2.164,0,0,1-2.207,1.12c-2.449-.091-4.905-.073-7.356-.009-1.067.028-1.448-.426-1.446-1.4,0-1.962.067-3.927-.015-5.885-.237-5.641,3.54-8.424,8.19-8.776-4.08-5.122-2.5-9.716.358-12.622a8.814,8.814,0,0,1,11.38-.566c3.3,2.648,5.289,7.973.963,13.327a18.348,18.348,0,0,1,2.822.4,7.568,7.568,0,0,1,5.393,6.624q.158,3.6.207,7.2a1.532,1.532,0,0,1-1.747,1.677c-3.924,0-7.848-.028-11.771.021a1.427,1.427,0,0,1-1.65-1.292,1.451,1.451,0,0,1,1.7-1.249c1.8.042,3.6.012,5.487.012,0-1.2-.03-2.3.01-3.408.029-.786.207-1.521,1.254-1.479.916-.03,1.316.379,1.271,1.326-.055,1.171-.013,2.346-.013,3.481H291.5c-.106-2.111-.209-4.149-.311-6.188-.161-3.206-3.441-4.914-6.328-4.641h-.216c-4.093-.01-8.187-.077-12.279-.01a5.223,5.223,0,0,0-5.27,5.118c0,1.924-.024,3.848-.037,5.772,0,.05,0,.1,0,.151l.1-.11h2.757c0-1.351.01-2.565,0-3.78-.008-.721.278-1.092,1.043-1.095,1,0,1.47.435,1.485,1.52.017,1.171,0,2.343,0,3.473,1.226.264,2.756-.589,3.154,1.286m-.851-16.761a5.637,5.637,0,0,0,4.549,1.9,6.293,6.293,0,0,0,4.09-10.984,6.693,6.693,0,0,0-6.724-1.056,6.179,6.179,0,0,0-1.914,10.136" transform="translate(-208.919 -203.276)" fill="#010101"/>
    <path id="Trazado_274668" data-name="Trazado 274668" d="M13.079,287.448a2,2,0,0,1-2.2,1.281c-3.117-.07-6.236-.023-9.355-.026-1.166,0-1.519-.364-1.521-1.557,0-2.313.023-4.625-.007-6.938a7.728,7.728,0,0,1,4.967-6.84c1.079-.347,2.207-.539,3.285-.8a8.979,8.979,0,0,1-.163-12.065c3.02-3.484,8.427-3.433,11.52-1.285a8.66,8.66,0,0,1,3.713,6.562,8.521,8.521,0,0,1-2.41,6.817,24.926,24.926,0,0,1,4.242,1.266,6.581,6.581,0,0,1,3.855,5.54c.2,2.53.237,5.074.295,7.613.027,1.216-.492,1.682-1.695,1.683-3.224,0-6.448-.037-9.67.023-1,.019-1.562-.319-1.768-1.276a1.158,1.158,0,0,1,1.43-1.078c1,.09,2.016,0,3.024.03.641.021.866-.238.846-.863-.033-.973.034-1.95-.022-2.921-.055-.948.36-1.345,1.269-1.313.786.006,1.1.4,1.072,1.182-.037,1.015.016,2.033-.017,3.048-.021.636.223.927.858.856.714-.08,1.427-.172,2.14-.259,0-2.05.065-4.043-.035-6.027A4.883,4.883,0,0,0,26,277.989a5.142,5.142,0,0,0-5.6-2.5,10.747,10.747,0,0,0-1.527-.222q-4.993-.03-9.986,0a14.008,14.008,0,0,0-2.278.2c-1.772.305-3.9,2.174-4.027,3.851-.17,2.324-.043,4.67-.043,7.147l2.73-.323c0-1.222.005-2.34,0-3.458-.005-.848.241-1.366,1.25-1.362.983,0,1.291.459,1.275,1.34-.017.946.027,1.893-.015,2.838-.031.695.243.937.921.906.874-.04,1.758.058,2.626-.028a1.475,1.475,0,0,1,1.755,1.073m5.66-25.69c-1.352-1.343-3.058-1.5-4.832-1.456a5.436,5.436,0,0,0-4.664,2.882c-1.6,2.605-1.185,5.1.639,7.438a6.213,6.213,0,0,0,9.305.187,6.316,6.316,0,0,0-.447-9.051" transform="translate(0 -203.518)" fill="#010101"/>
    <path id="Trazado_274669" data-name="Trazado 274669" d="M35.387,75.29V67.181c-1.784,0-3.526-.018-5.267.006a2.027,2.027,0,0,1-2.244-2.07c-.034-3.224-.022-6.448-.025-9.672,0-2.734.064-5.469-.022-8.2-.06-1.886.824-2.746,2.771-2.689,1.225.036,2.457-.056,3.678.026.966.065,1.177-.3,1.15-1.2-.062-2.031.016-4.066-.031-6.1-.023-.978.482-1.308,1.32-1.31q7.044-.017,14.088,0c.773,0,1.452.339,1.425,1.159a1.394,1.394,0,0,1-1.548,1.331c-1.437.02-2.874,0-4.311.007q-4.1.016-8.2.042l-.219.2v5.854c1.6,0,3.166,0,4.733,0A2.45,2.45,0,0,1,45.4,47.226c.021,5.778,0,11.556.011,17.334A2.486,2.486,0,0,1,42.686,67.2c-1.563-.087-3.134-.018-4.743-.018v8.564c.478-.536.735-1.079,1.119-1.192a2.324,2.324,0,0,1,1.754.067,1.01,1.01,0,0,1-.076,1.607c-1.146,1.079-2.233,2.22-3.353,3.327a1.139,1.139,0,0,1-1.8-.009c-1.045-1.034-2.091-2.067-3.118-3.118-.733-.75-.8-1.385-.1-1.916a1.354,1.354,0,0,1,1.942.183c.216.221.459.416.689.623l.3.187.088-.215m7.544-27.925-.117-.257-3.589.005c-2.793-.019-5.585-.041-8.378-.044-.15,0-.3.17-.451.261q0,8.519,0,17.039c.128.109.256.314.384.314,2.814-.006,5.628-.035,8.441-.059h3.709Z" transform="translate(-21.973 -28.402)" fill="#010101"/>
    <path id="Trazado_274670" data-name="Trazado 274670" d="M274.065,38.511q-6.357-.022-12.715-.047c-1.015,0-1.474-.512-1.38-1.463.085-.868.674-1.03,1.388-1.031q2.628,0,5.256,0,4.2,0,8.409,0c1.375,0,1.8.427,1.808,1.785.01,2.207.011,4.414.016,6.621l.174.167c1.575.006,3.151.009,4.726.02a2.423,2.423,0,0,1,2.638,2.618q.015,8.665,0,17.331a2.425,2.425,0,0,1-2.7,2.669c-1.571.01-3.141,0-4.835,0V75.29l.088.215.238-.212c.48-.529.876-1.263,1.756-1.018a1.649,1.649,0,0,1,.985.683,1.286,1.286,0,0,1-.093,1.164,42.114,42.114,0,0,1-3.578,3.545,1.588,1.588,0,0,1-1.527-.08c-1.17-1-2.217-2.136-3.3-3.235-.537-.546-.819-1.245-.179-1.8a1.29,1.29,0,0,1,1.93.151c.289.318.633.586,1.1,1.01V67.165c-1.79,0-3.591-.006-5.393,0a1.927,1.927,0,0,1-2-1.968q-.036-9.341-.053-18.683a2.073,2.073,0,0,1,2.081-1.942c1.436-.029,2.874-.011,4.311-.013h1.062V38.708Zm4,8.568-8.642.03-.117.256q0,8.381.006,16.762l.172.578,8.566-.076,2.066.069c.589-.029,1.291.518,1.717-.338q.011-8.523.022-17.047c-.083-.125-.167-.361-.247-.359-1.181.023-2.362.078-3.543.125" transform="translate(-205.28 -28.402)" fill="#010101"/>
    <path id="Trazado_274671" data-name="Trazado 274671" d="M157.171,184.074c.052,9.261-6.858,16.717-17.083,16.275-8.239-.357-15.072-6.729-15.119-16.365a16.1,16.1,0,0,1,32.2.091m-5.657-8.71-.233-.429c-4.819-5.446-14.736-5.787-19.882-.55a13.888,13.888,0,0,0,.708,20.137,13.157,13.157,0,0,0,9.261,3.391A13.724,13.724,0,0,0,154.416,181.2a10.889,10.889,0,0,0-2.914-5.849Z" transform="translate(-98.683 -132.681)" fill="#010202"/>
    <path id="Trazado_274672" data-name="Trazado 274672" d="M32.074,347.089c-.909-.032-1.323.365-1.269,1.313.056.97-.011,1.948.022,2.92.021.624-.2.884-.846.863-1.007-.033-2.023.06-3.024-.03a1.158,1.158,0,0,0-1.43,1.078l-3.092,0a1.475,1.475,0,0,0-1.755-1.073c-.867.086-1.751-.012-2.626.028-.678.031-.953-.211-.922-.906.042-.944,0-1.892.015-2.838.016-.881-.293-1.336-1.275-1.34-1.009,0-1.256.514-1.25,1.362.007,1.118,0,2.237,0,3.458l-2.73.323c0-2.478-.127-4.823.043-7.147.122-1.678,2.255-3.546,4.027-3.851a14.014,14.014,0,0,1,2.278-.2q4.993-.032,9.986,0a10.777,10.777,0,0,1,1.527.222,2.593,2.593,0,0,0,.362.614,6.449,6.449,0,0,1,1.956,5.2" transform="translate(-9.357 -269.302)" fill="#5f99d7"/>
    <path id="Trazado_274673" data-name="Trazado 274673" d="M276.407,351.95c.013-1.924.04-3.848.037-5.772a5.223,5.223,0,0,1,5.27-5.118c4.092-.068,8.186,0,12.279.01l.21.178a6.841,6.841,0,0,1,2.319,5.843c-1.047-.042-1.226.693-1.254,1.479-.04,1.1-.01,2.211-.01,3.408-1.883,0-3.686.03-5.487-.012a1.451,1.451,0,0,0-1.7,1.249l-3.122.181c-.4-1.874-1.928-1.021-3.154-1.286,0-1.13.013-2.3,0-3.473-.015-1.085-.487-1.524-1.485-1.52-.765,0-1.051.374-1.043,1.1.014,1.214,0,2.429,0,3.78h-2.756l-.034-.067Z" transform="translate(-218.269 -269.3)" fill="#ffd15b"/>
    <path id="Trazado_274674" data-name="Trazado 274674" d="M157.383,96c-.224-1.036-.92-1.291-1.9-1.268-1.886.043-3.774,0-5.661,0a.622.622,0,0,0-.021-.187c.006-1.085.079-2.177-.014-3.254a1.753,1.753,0,0,0-.687-1.252,2.429,2.429,0,0,0-1.519.012c-.153.034-.284.52-.291.8-.031,1.254-.013,2.509-.013,3.83h-2.715c0-2.35-.34-4.762.089-7.029.5-2.62,2.39-3.714,4.841-3.8,4.162-.138,8.332-.019,12.5-.008a7.046,7.046,0,0,1,2.55,5.832,1.441,1.441,0,0,0-1.282,1.755c.087,1,.019,2.007.019,3.065-1.1.129-2.26.081-2.764,1.323L157.383,96" transform="translate(-114.056 -66.169)" fill="#62dbfb"/>
    <path id="Trazado_274675" data-name="Trazado 274675" d="M340.607,222.923l-.239.212-.087-.215.326,0" transform="translate(-268.708 -176.032)" fill="#bebfc0"/>
    <path id="Trazado_274676" data-name="Trazado 274676" d="M62.323,222.922l-.088.215-.3-.187.387-.029" transform="translate(-48.909 -176.034)" fill="#bebfc0"/>
    <path id="Trazado_274677" data-name="Trazado 274677" d="M340.426,76.116l-.174-.167.174.167" transform="translate(-268.685 -59.974)" fill="#bebfc0"/>
    <path id="Trazado_274678" data-name="Trazado 274678" d="M327.028,48.062l.219.2Z" transform="translate(-258.243 -37.953)" fill="#e9ebec"/>
    <path id="Trazado_274679" data-name="Trazado 274679" d="M75.989,48.26l.219-.2-.219.2" transform="translate(-60.006 -37.954)" fill="#e9ebec"/>
    <path id="Trazado_274680" data-name="Trazado 274680" d="M173.634,22.647c-1.984-1.651-2.341-5.855-.342-8.2a6.334,6.334,0,0,1,9.193-.6,8,8,0,0,1-2.539,6.813,8.433,8.433,0,0,1-6.312,1.989" transform="translate(-135.789 -9.595)" fill="#fdd2a4"/>
    <path id="Trazado_274681" data-name="Trazado 274681" d="M179.926,29.006a8.433,8.433,0,0,0,6.312-1.989,8,8,0,0,0,2.539-6.813,6.292,6.292,0,0,1,.187,9.047c-2.759,2.525-6.478,2.659-9.038-.245" transform="translate(-142.081 -15.954)" fill="#febd86"/>
    <path id="Trazado_274682" data-name="Trazado 274682" d="M230.454,89.741a7.047,7.047,0,0,0-2.55-5.831c2.915-.3,5.331.959,6.284,3.435a4.939,4.939,0,0,1,.406,1.591c.049,1.914.019,3.829.019,5.808h-2.875c0-.971-.053-1.94.014-2.9.073-1.049-.207-1.807-1.3-2.1" transform="translate(-179.968 -66.227)" fill="#01d0fa"/>
    <path id="Trazado_274683" data-name="Trazado 274683" d="M169.434,134.914a.615.615,0,0,1,.021.187l-.159-.023.138-.164" transform="translate(-133.687 -106.537)" fill="#5f99d7"/>
    <path id="Trazado_274684" data-name="Trazado 274684" d="M305.893,280.348a6.179,6.179,0,0,1,1.914-10.136,6.693,6.693,0,0,1,6.724,1.056c0,.348-.019.7,0,1.045a7.48,7.48,0,0,1-6.217,7.724c-.8.148-1.614.21-2.421.312" transform="translate(-240.063 -213.014)" fill="#fdd2a4"/>
    <path id="Trazado_274685" data-name="Trazado 274685" d="M312.977,286.034c.807-.1,1.623-.163,2.421-.312A7.48,7.48,0,0,0,321.615,278c-.018-.348,0-.7,0-1.045a6.293,6.293,0,0,1-4.09,10.984,5.637,5.637,0,0,1-4.549-1.9" transform="translate(-247.147 -218.701)" fill="#febd86"/>
    <path id="Trazado_274686" data-name="Trazado 274686" d="M363.334,347.129a6.841,6.841,0,0,0-2.319-5.843,1.087,1.087,0,0,0,.005-.179c2.887-.273,6.167,1.436,6.328,4.641.1,2.039.205,4.077.311,6.188h-3.068c0-1.135-.042-2.31.013-3.481.045-.947-.355-1.356-1.272-1.326" transform="translate(-285.081 -269.338)" fill="#fec344"/>
    <path id="Trazado_274687" data-name="Trazado 274687" d="M360.232,341.213a1.084,1.084,0,0,1-.005.179l-.21-.178h.216" transform="translate(-284.292 -269.444)" fill="#dab14b"/>
    <path id="Trazado_274688" data-name="Trazado 274688" d="M276.407,392.85l.07-.025.034.067-.1.11c0-.05,0-.1,0-.151" transform="translate(-218.269 -310.2)" fill="#5d5e5f"/>
    <path id="Trazado_274689" data-name="Trazado 274689" d="M40.848,280.269c-1.823-2.341-2.238-4.833-.639-7.438a5.435,5.435,0,0,1,4.664-2.882c1.774-.041,3.48.112,4.832,1.456,0,.522-.016,1.045-.008,1.567.041,2.907-1.409,4.9-3.805,6.368a8.846,8.846,0,0,1-5.044.929" transform="translate(-30.966 -213.165)" fill="#fdd2a4"/>
    <path id="Trazado_274690" data-name="Trazado 274690" d="M46.979,285.755a8.846,8.846,0,0,0,5.044-.929c2.4-1.472,3.847-3.461,3.805-6.368-.007-.522.005-1.045.008-1.567a6.316,6.316,0,0,1,.447,9.051,6.213,6.213,0,0,1-9.305-.187" transform="translate(-37.098 -218.651)" fill="#febd86"/>
    <path id="Trazado_274691" data-name="Trazado 274691" d="M99.3,347.7a6.449,6.449,0,0,0-1.956-5.2,2.592,2.592,0,0,1-.362-.614,5.142,5.142,0,0,1,5.6,2.5,4.883,4.883,0,0,1,.738,2.117c.1,1.985.035,3.977.035,6.028-.713.087-1.425.179-2.14.259-.635.071-.879-.22-.858-.856.033-1.015-.02-2.033.017-3.048.029-.781-.286-1.176-1.072-1.182" transform="translate(-76.583 -269.91)" fill="#3c86cf"/>
    <path id="Trazado_274692" data-name="Trazado 274692" d="M40.047,107.012q0-8.519,0-17.039l8.824-.006.007.007V92.18c-.594.014-1.187.031-1.781.042a29.912,29.912,0,0,0-3.662.114c-.4.057-1.041.8-.989,1.136.071.463.681,1.176,1.091,1.2,1.914.1,3.838,0,5.759-.03-.811.758-.249,1.737-.419,2.6-1.75.02-3.506-.027-5.248.107a1.818,1.818,0,0,0-1.2,1.016c-.117.271.278.91.608,1.183a2.141,2.141,0,0,0,1.207.22c1.539.037,3.08.041,4.62.057q.005,3.6.011,7.191l-.007.007-8.822-.006m4.972-4.625c-.384,0-.769.018-1.152,0-.8-.045-1.43.331-1.46,1.089a1.373,1.373,0,0,0,1.347,1.415,12.072,12.072,0,0,0,2.51-.007,1.248,1.248,0,0,0,1.137-1.444c-.039-.781-.516-1.054-1.23-1.05-.384,0-.768,0-1.152,0" transform="translate(-31.624 -71.044)" fill="#dff6fc"/>
    <path id="Trazado_274693" data-name="Trazado 274693" d="M82,88.942l3.589-.005.117.257v17.259H82q0-.124,0-.248L82,106.2c.838,0,1.677-.027,2.514.01.619.027.866-.172.864-.829q-.031-7.7,0-15.4c0-.657-.245-.855-.864-.829-.836.036-1.676.009-2.514.01l-.007-.007L82,88.942" transform="translate(-64.748 -70.23)" fill="#dff6fc"/>
    <path id="Trazado_274694" data-name="Trazado 274694" d="M48.871,171.009c0,.083,0,.166,0,.248-2.814.024-5.627.053-8.441.059-.128,0-.256-.2-.384-.314l8.822.006" transform="translate(-31.625 -135.035)" fill="azure"/>
    <path id="Trazado_274695" data-name="Trazado 274695" d="M48.876,88.8l-.005.211-8.824.006c.15-.091.3-.261.451-.261,2.793,0,5.585.025,8.378.044" transform="translate(-31.624 -70.087)" fill="azure"/>
    <path id="Trazado_274696" data-name="Trazado 274696" d="M99.2,89.194l-.117-.257.117.257" transform="translate(-78.243 -70.23)" fill="#78888e"/>
    <path id="Trazado_274697" data-name="Trazado 274697" d="M349.689,89.912q-.012,8.524-.023,17.047l-1.717.337-2.065-.068v-.256q.005-3.595.01-7.189c.418-.437,1.152-.868,1.161-1.313.008-.421-.746-.857-1.165-1.287q0-1.227-.01-2.455c.422-.4,1.142-.772,1.181-1.206s-.615-.916-.964-1.377l-.243-2.208.05-.019,3.783-.006" transform="translate(-273.111 -71)" fill="#c8eefd"/>
    <path id="Trazado_274698" data-name="Trazado 274698" d="M313.164,106.092q0,.128,0,.256l-8.566.076-.172-.578q0-8.381-.006-16.762l.117-.256,8.642-.03c0,.08,0,.16.007.24l-.049.019c-2.451,0-4.9.02-7.355-.022-.75-.013-1.047.161-1.041.983q.052,7.565,0,15.13c0,.74.231.965.962.954,2.486-.036,4.973-.011,7.46-.01" transform="translate(-240.389 -70.12)" fill="azure"/>
    <path id="Trazado_274699" data-name="Trazado 274699" d="M346.068,88.569c0-.08,0-.16-.007-.24,1.181-.047,2.361-.1,3.543-.125.08,0,.165.234.247.359l-3.783.006" transform="translate(-273.272 -69.651)" fill="#5d5e5f"/>
    <path id="Trazado_274700" data-name="Trazado 274700" d="M355.811,171.3l1.717-.338c-.426.856-1.128.309-1.717.338" transform="translate(-280.972 -135)" fill="#78888e"/>
    <path id="Trazado_274701" data-name="Trazado 274701" d="M304.448,169.848l.172.578-.172-.578" transform="translate(-240.412 -134.123)" fill="#898a8b"/>
    <path id="Trazado_274702" data-name="Trazado 274702" d="M304.535,88.942l-.117.256.117-.256" transform="translate(-240.388 -70.234)" fill="#898a8b"/>
    <path id="Trazado_274703" data-name="Trazado 274703" d="M141.314,204.376a13.889,13.889,0,0,1-.708-20.137c5.146-5.237,15.063-4.9,19.882.551l.233.429-.012-.012a10.238,10.238,0,0,0,.15,1.024,15.488,15.488,0,0,1-.617,9.537,14.85,14.85,0,0,1-13.446,9.208c-1.83-.025-3.655-.39-5.482-.6m7.4-1.923a2.632,2.632,0,0,0,2.547-.978c2.691-2.654,5.392-5.3,8.009-8.025a3.535,3.535,0,0,0,.339-4.985,3.8,3.8,0,0,0-5.163-.7c-1.358,1.194-2.619,2.5-3.927,3.748-.6.575-1.186,1.543-1.83,1.588-.588.041-1.26-.908-1.869-1.45a3.918,3.918,0,0,0-4.9-.169c-1.715,1.6-1.91,3.57-.563,5.193,1.332,1.6,2.875,3.035,4.318,4.548a3.346,3.346,0,0,0,3.038,1.227" transform="translate(-107.891 -142.536)" fill="#dff6fc"/>
    <path id="Trazado_274704" data-name="Trazado 274704" d="M158.907,222.04c1.827.21,3.652.575,5.482.6a14.85,14.85,0,0,0,13.446-9.208,15.49,15.49,0,0,0,.617-9.537,10.176,10.176,0,0,1-.15-1.024,10.887,10.887,0,0,1,2.914,5.849,13.65,13.65,0,0,1-22.309,13.32" transform="translate(-125.483 -160.2)" fill="#c8effd"/>
    <path id="Trazado_274705" data-name="Trazado 274705" d="M250.3,201.319l-.233-.429.233.429" transform="translate(-197.47 -158.636)" fill="#c8effd"/>
    <path id="Trazado_274706" data-name="Trazado 274706" d="M81.893,89.954c.838,0,1.677.027,2.513-.01.619-.027.867.172.864.829q-.03,7.7,0,15.4c0,.657-.245.856-.864.829-.836-.037-1.676-.009-2.514-.01q-.005-3.6-.01-7.191c1.514-.9,1.517-1.718.009-2.583.17-.861-.393-1.841.418-2.6,1.026-1.118.937-1.639-.418-2.459q0-1.1,0-2.206" transform="translate(-64.64 -71.024)" fill="#c8eefd"/>
    <path id="Trazado_274707" data-name="Trazado 274707" d="M57.748,124.53c1.509.866,1.506,1.678-.009,2.583-1.54-.016-3.08-.02-4.62-.057a2.139,2.139,0,0,1-1.207-.22c-.331-.272-.726-.912-.609-1.183a1.819,1.819,0,0,1,1.2-1.015c1.742-.134,3.5-.087,5.248-.107" transform="translate(-40.497 -98.337)" fill="#010101"/>
    <path id="Trazado_274708" data-name="Trazado 274708" d="M57.865,100.485c1.355.819,1.444,1.341.418,2.459-1.921.029-3.845.13-5.759.03-.41-.021-1.019-.734-1.091-1.2-.052-.338.587-1.078.989-1.136a29.873,29.873,0,0,1,3.662-.114c.594-.011,1.187-.028,1.781-.042" transform="translate(-40.612 -79.35)" fill="#010101"/>
    <path id="Trazado_274709" data-name="Trazado 274709" d="M53.876,148.985c.384,0,.768,0,1.152,0,.714,0,1.191.269,1.23,1.05a1.247,1.247,0,0,1-1.137,1.444,12.044,12.044,0,0,1-2.51.007,1.373,1.373,0,0,1-1.347-1.415c.03-.758.656-1.134,1.46-1.089.383.022.768,0,1.152,0" transform="translate(-40.481 -117.643)" fill="#010202"/>
    <path id="Trazado_274710" data-name="Trazado 274710" d="M314.366,106.982c-2.487,0-4.974-.026-7.46.01-.731.011-.966-.214-.962-.954q.041-7.565,0-15.13c-.006-.822.291-1,1.041-.983,2.451.042,4.9.02,7.355.022q.121,1.1.243,2.208c-1.637.012-3.274.025-4.911.033-.842,0-1.532.24-1.593,1.216-.057.9.392,1.244,1.591,1.268,1.565.032,3.131.045,4.7.066q0,1.227.01,2.455c-1.568.017-3.137.041-4.705.048-.848,0-1.533.236-1.591,1.215-.054.9.4,1.249,1.6,1.276,1.568.035,3.136.042,4.7.062q-.005,3.595-.01,7.189m-4.018-2.322c.575,0,1.066-.014,1.556,0a1.032,1.032,0,0,0,1.141-1.156,1.632,1.632,0,0,0-1.07-1.1,9.794,9.794,0,0,0-2.824-.015,1.479,1.479,0,0,0-1,.731,1.5,1.5,0,0,0,.234,1.119c.5.887,1.372.237,1.967.42" transform="translate(-241.592 -71.01)" fill="#dff6fc"/>
    <path id="Trazado_274711" data-name="Trazado 274711" d="M322.375,127.082c-1.568-.019-3.136-.027-4.7-.062-1.2-.026-1.65-.377-1.6-1.276.059-.978.743-1.211,1.591-1.215,1.568-.007,3.137-.031,4.705-.048.419.43,1.172.866,1.164,1.287-.008.445-.743.876-1.161,1.313" transform="translate(-249.59 -98.299)" fill="#010101"/>
    <path id="Trazado_274712" data-name="Trazado 274712" d="M322.358,103.113c-1.566-.021-3.131-.034-4.7-.066-1.2-.024-1.647-.366-1.591-1.268.061-.976.751-1.212,1.593-1.216,1.637-.008,3.274-.022,4.911-.033.35.462,1,.95.964,1.377s-.759.806-1.181,1.206" transform="translate(-249.587 -79.385)" fill="#010101"/>
    <path id="Trazado_274713" data-name="Trazado 274713" d="M163.162,227.055a3.347,3.347,0,0,1-3.038-1.227c-1.443-1.513-2.985-2.943-4.318-4.548-1.347-1.622-1.151-3.588.563-5.193a3.918,3.918,0,0,1,4.9.168c.609.542,1.281,1.491,1.869,1.45.644-.045,1.228-1.013,1.83-1.588,1.308-1.251,2.569-2.554,3.927-3.748a3.8,3.8,0,0,1,5.162.7,3.535,3.535,0,0,1-.339,4.986c-2.617,2.725-5.318,5.372-8.009,8.025a2.633,2.633,0,0,1-2.547.978m-4.561-9.441c-.407.354-1,.625-1.031.953a2.236,2.236,0,0,0,.468,1.568c1.22,1.348,2.546,2.6,3.836,3.886.879.874,1.456.879,2.335.005,1.342-1.332,2.674-2.674,4.01-4.012,1.213-1.213,2.44-2.413,3.635-3.644.78-.8.733-1.754-.109-2.024a1.6,1.6,0,0,0-1.809.342c-1.874,1.937-3.8,3.828-5.707,5.73a1.461,1.461,0,0,1-2.4-.027c-.72-.715-1.424-1.448-2.167-2.138a6.6,6.6,0,0,0-1.065-.64" transform="translate(-122.337 -167.138)" fill="#010101"/>
    <path id="Trazado_274714" data-name="Trazado 274714" d="M318.46,151.1c-.6-.183-1.468.466-1.967-.42a1.5,1.5,0,0,1-.234-1.119,1.479,1.479,0,0,1,1-.731,9.793,9.793,0,0,1,2.824.015,1.632,1.632,0,0,1,1.07,1.1,1.032,1.032,0,0,1-1.141,1.156c-.49-.017-.981,0-1.556,0" transform="translate(-249.703 -117.452)" fill="#010202"/>
    <path id="Trazado_274715" data-name="Trazado 274715" d="M168.513,227.217a6.6,6.6,0,0,1,1.065.64c.743.69,1.447,1.423,2.167,2.138a1.461,1.461,0,0,0,2.4.027c1.91-1.9,3.832-3.793,5.707-5.73a1.6,1.6,0,0,1,1.809-.342c.842.27.889,1.221.109,2.024-1.2,1.231-2.422,2.43-3.635,3.644-1.337,1.337-2.669,2.679-4.01,4.012-.879.873-1.457.869-2.335-.005-1.29-1.285-2.616-2.537-3.836-3.886a2.237,2.237,0,0,1-.468-1.568c.033-.327.624-.6,1.031-.953" transform="translate(-132.247 -176.74)" fill="#6cf5c2"/>
  </g>
</svg>
