<svg xmlns="http://www.w3.org/2000/svg" xmlns:xlink="http://www.w3.org/1999/xlink" width="85" height="85" viewBox="0 0 85 85">
  <defs>
    <clipPath id="clip-path">
      <rect id="Rectángulo_323392" data-name="Rectángulo 323392" width="84" height="84.006" fill="none"/>
    </clipPath>
  </defs>
  <g id="Grupo_1070886" data-name="Grupo 1070886" transform="translate(-285 -10181.811)">
    <g id="Grupo_1069958" data-name="Grupo 1069958">
      <circle id="Elipse_4307" data-name="Elipse 4307" cx="42.5" cy="42.5" r="42.5" transform="translate(285 10181.811)" fill="#dbf9bd"/>
      <g id="Grupo_257107" data-name="Grupo 257107" transform="translate(285 10181.811)">
        <g id="Grupo_257106" data-name="Grupo 257106" clip-path="url(#clip-path)">
          <path id="Trazado_274771" data-name="Trazado 274771" d="M48.931,71.317c-.028,2.284-.047,4.569-.088,6.853a5.776,5.776,0,0,1-4.055,5.6,5.249,5.249,0,0,1-6.435-3.2,18.059,18.059,0,0,1-.619-2.637,34.848,34.848,0,0,1-3.482.456,43.454,43.454,0,0,1-6.576-.015,35.553,35.553,0,0,1-6.645-1.508A29.547,29.547,0,0,1,11.1,71.224,31.326,31.326,0,0,1,2.825,60.353,24.907,24.907,0,0,1,.3,51.414,51.45,51.45,0,0,1,.122,44.4,27.628,27.628,0,0,1,2.235,35.76,31.2,31.2,0,0,1,23.168,17.239a29.957,29.957,0,0,1,10.889-.805,27.98,27.98,0,0,1,13.567,4.608,38.4,38.4,0,0,1,5.739,4.538,30.417,30.417,0,0,1,8.293,15.493,31.373,31.373,0,0,1,.54,8.894,30.425,30.425,0,0,1-6.262,16.265c-.333.437-.27.66-.045,1.149a10.861,10.861,0,0,1,1.062,3.326,40.4,40.4,0,0,1,.042,5.193,2.522,2.522,0,0,0,1.629,2.482,2.2,2.2,0,0,0,2.7-.524,3.87,3.87,0,0,0,1.046-2.216c.1-3.247-.033-6.5.012-9.749a5.083,5.083,0,0,1,4.151-4.787,10.273,10.273,0,0,1,2.536-.2,2.845,2.845,0,0,0,2.8-2.559c.03-.379.012-.762.012-1.143,0-12.717,0-25.435,0-38.079-3.416-1.141-6.755-2.416-10.186-3.349a37.913,37.913,0,0,0-7.476-1.213c-3.818-.245-7.655-.195-11.484-.254-5.111-.079-10.222-.139-15.333-.214-4.245-.062-8.5.025-12.731-.258-2.877-.192-5.852.278-8.628-.8A47.077,47.077,0,0,1,.594,10.518a1.282,1.282,0,0,1,.15-2.239,17.028,17.028,0,0,1,9.41-2.912c1,0,2.01.012,3.014,0q6.627-.1,13.254-.206,6.055-.1,12.11-.207c4.418-.072,8.838-.09,13.255-.221A45.991,45.991,0,0,0,68.6.848,10.316,10.316,0,0,1,74.228.112a13.793,13.793,0,0,1,5.659,1.911A8.46,8.46,0,0,1,84,9.105a8.674,8.674,0,0,1-3.718,7.517,14.048,14.048,0,0,1-5.71,2.31v4.543q0,17.049.007,34.1a5.732,5.732,0,0,1-2.884,5.36,6.682,6.682,0,0,1-2.17.649c-.8.143-1.627.1-2.426.23a2.2,2.2,0,0,0-1.953,2.239c-.039,3.118-.037,6.237-.029,9.355a5.706,5.706,0,0,1-6.133,5.857,5.135,5.135,0,0,1-4.62-4.6c-.12-1.933-.048-3.877-.1-5.815a2.632,2.632,0,0,0-1.573-2.712,2.332,2.332,0,0,0-3.036.3,2.359,2.359,0,0,0-.725,2.878M31.472,11.36l6.648.007c2,.081,3.993.182,5.991.239,3.033.085,6.068.1,9.1.22,1.669.064,3.338.226,5,.413a41.35,41.35,0,0,1,10.4,2.948c1.006.394,1.975,1.076,3.147.7a6.573,6.573,0,0,0-.072-2.3c-.163-.4-1.066-.446-1.575-.754-2.629-1.593-3.326-3.935-.985-6.154,1.641-1.555,6.313-1.465,8.073,0a3.483,3.483,0,0,1-.071,5.5c-.625.443-1.374.707-2.044,1.091-.226.13-.531.364-.549.573-.066.768-.026,1.546-.026,2.424a23.87,23.87,0,0,0,2.456-.811,13.162,13.162,0,0,0,1.815-1.136,6.063,6.063,0,0,0,.646-9.245C76.471,2.4,72.981,2.257,69.359,3.488c-2.335.794-4.6,1.825-6.978,2.453A31.909,31.909,0,0,1,53.09,7.272l-.842.146q-5.742.115-11.485.228-6.159.114-12.319.211c-5.282.077-10.564.126-15.846.212A35.144,35.144,0,0,0,8.281,8.3c-1.354.19-2.674.62-4.009.944a11.1,11.1,0,0,0,5.9,1.723c2.892.107,5.786.159,8.68.208,4.208.072,8.416.121,12.624.18m9.165,53.931a4.045,4.045,0,0,0,.667-.266,23.75,23.75,0,0,0,6.028-5.343A20.342,20.342,0,0,0,44.375,31.95a19.55,19.55,0,0,0-10.4-4.573,20.509,20.509,0,0,0-10.022,1A20.445,20.445,0,0,0,11.161,51.131a19.855,19.855,0,0,0,7.7,12.428,18.9,18.9,0,0,0,11.9,4.161,30.272,30.272,0,0,0,5.542-.672c.551-.11,1.623.029,1.662-.985.068-1.759.019-3.523.019-4.868a19.423,19.423,0,0,1-2.942-2.385,5.062,5.062,0,0,1-.709-5.368,1.238,1.238,0,0,0-.065-1.057,33.082,33.082,0,0,0-2.655-2.627.938.938,0,0,0-.91-.023c-1.06.935-2.06,1.938-3.062,2.9a5.812,5.812,0,0,1,.584,4.294,5.012,5.012,0,0,1-4,3.885,5.175,5.175,0,0,1-5.342-1.783,5.428,5.428,0,0,1,1.547-8.242c1.594-.808,3.163-.54,4.779-.219a1.317,1.317,0,0,0,.994-.159c1.056-.936,2.052-1.941,3.132-2.982-1.065-1.06-2.038-1.987-2.959-2.963a1,1,0,0,0-1.35-.227,5.126,5.126,0,0,1-6.252-1.653,5.294,5.294,0,0,1,.309-7.053C20.35,34,22.1,33.977,23.874,34.059a4.445,4.445,0,0,1,3.39,1.8c1.465,1.9,1.409,4,.456,6.2.925.923,1.9,1.849,2.821,2.835.488.526.813.448,1.256-.034a27.84,27.84,0,0,1,2.135-2.126c.57-.5.526-.94.365-1.645a7.437,7.437,0,0,1-.168-3.3c.908-3.676,4.777-4.86,8.154-2.968,3.114,1.745,3.254,6.42.389,8.61a5.505,5.505,0,0,1-5.62.822,1.139,1.139,0,0,0-.959.077c-1.052.941-2.042,1.95-3.183,3.063,1.127,1.077,2.131,2.073,3.184,3.013a1.344,1.344,0,0,0,.912.2,27.738,27.738,0,0,1,3.02-.311c2.608.085,5.078,2.98,4.746,5.454a5.662,5.662,0,0,1-4.136,5.011Zm-2.649,4.057a20.454,20.454,0,0,1-12.576.421,22.856,22.856,0,0,1-14.939-12.3,22.01,22.01,0,0,1-1.855-14.7A22.657,22.657,0,0,1,20.612,26.927a21.813,21.813,0,0,1,11.422-2.448,22.908,22.908,0,0,1,6.691,1.182,23.171,23.171,0,0,1,9.55,6.356,22.3,22.3,0,0,1,5.8,13.153A22.587,22.587,0,0,1,52.7,55.615a22.967,22.967,0,0,1-5.2,7.995,22.71,22.71,0,0,1-6.015,4.352c-.292.146-.7.457-.71.7-.061,1.789-.033,3.58-.033,5.6,1.29-.621,2.371-1.239,3.523-1.668,1.293-.482,2.1-1.147,1.784-2.668-.049-.235.121-.515.184-.776a5.031,5.031,0,0,1,5.846-3.912,1.62,1.62,0,0,0,1.735-.584,28.619,28.619,0,0,0,5.7-14.881,28.02,28.02,0,0,0-6.689-20.845,28.083,28.083,0,0,0-12.939-8.584,30.613,30.613,0,0,0-12.252-1.088,26.057,26.057,0,0,0-7.891,2.1A27.822,27.822,0,0,0,5.719,34.67,27.57,27.57,0,0,0,2.963,50.885,28.271,28.271,0,0,0,6.12,60.82a29.175,29.175,0,0,0,8.43,9.658,23.035,23.035,0,0,0,7.12,3.753,34.717,34.717,0,0,0,7.176,1.558,45.17,45.17,0,0,0,7.483-.379c.573-.051,1.55-.5,1.584-.841.165-1.673.075-3.371.075-5.221m8.16,5.539c-.552.212-.86.319-1.158.446-.982.421-1.946.887-2.943,1.266-1.548.587-1.608.64-1.429,2.207a2.957,2.957,0,0,0,2.2,2.462,2.537,2.537,0,0,0,2.9-1.548,33.415,33.415,0,0,0,.434-4.833M25.649,39.3c.348-1.548-1.392-2.723-2.721-2.738a2.886,2.886,0,0,0-2.685,2.723,2.925,2.925,0,0,0,2.743,2.682A2.552,2.552,0,0,0,25.649,39.3M23.065,52.987a2.651,2.651,0,0,0-2.818,2.53A2.8,2.8,0,0,0,22.97,58.2a2.6,2.6,0,0,0,2.679-2.468c.014-1.942-.734-2.737-2.584-2.749m13.6-13.777a2.511,2.511,0,0,0,2.572,2.753,2.972,2.972,0,0,0,2.826-2.73,3,3,0,0,0-2.911-2.676,2.657,2.657,0,0,0-2.487,2.653m0,16.221a2.472,2.472,0,0,0,2.547,2.757c1.862.017,2.613-1.165,2.824-2.681a2.526,2.526,0,0,0-2.487-2.52c-2-.013-2.873.727-2.884,2.444m36.765-47.3a14,14,0,0,0-2.12.414c-.308.112-.709.536-.7.807a1.453,1.453,0,0,0,.634.989,4.124,4.124,0,0,0,4.186-.2c.428-.373.7-.941-.04-1.294a19.413,19.413,0,0,0-1.959-.715" transform="translate(0 0.001)" fill="#010101"/>
          <path id="Trazado_274772" data-name="Trazado 274772" d="M234.487,329.385a2.359,2.359,0,0,1,.725-2.878,2.332,2.332,0,0,1,3.036-.3l-3.76,3.177" transform="translate(-185.556 -258.067)" fill="#fbd873"/>
          <path id="Trazado_274773" data-name="Trazado 274773" d="M81.8,168.846v-4.517a5.661,5.661,0,0,0,4.136-5.011c.332-2.474-2.137-5.369-4.746-5.454a27.738,27.738,0,0,0-3.02.311,1.346,1.346,0,0,1-.912-.2c-1.054-.94-2.058-1.936-3.184-3.013,1.142-1.113,2.132-2.122,3.183-3.063a1.14,1.14,0,0,1,.959-.077,5.5,5.5,0,0,0,5.62-.822c2.866-2.19,2.725-6.866-.389-8.611-3.378-1.893-7.246-.708-8.154,2.968a7.437,7.437,0,0,0,.168,3.3c.161.705.2,1.147-.365,1.645a27.875,27.875,0,0,0-2.135,2.126c-.443.482-.768.56-1.256.034-.916-.986-1.9-1.912-2.82-2.835.952-2.2,1.008-4.3-.456-6.2a4.445,4.445,0,0,0-3.39-1.8c-1.778-.082-3.524-.06-4.785,1.476a5.294,5.294,0,0,0-.309,7.053A5.126,5.126,0,0,0,66.2,147.8a1,1,0,0,1,1.35.227c.922.975,1.894,1.9,2.959,2.963-1.08,1.041-2.075,2.046-3.132,2.982a1.317,1.317,0,0,1-.994.159c-1.616-.321-3.184-.588-4.779.219a5.428,5.428,0,0,0-1.547,8.242,5.175,5.175,0,0,0,5.342,1.783,5.012,5.012,0,0,0,4-3.885,5.812,5.812,0,0,0-.584-4.294c1-.963,2-1.966,3.062-2.9a.938.938,0,0,1,.91.023,33.08,33.08,0,0,1,2.655,2.627A1.239,1.239,0,0,1,75.5,157a5.062,5.062,0,0,0,.709,5.368,19.423,19.423,0,0,0,2.942,2.385c0,1.345.049,3.109-.019,4.868-.039,1.014-1.111.875-1.662.985a30.294,30.294,0,0,1-5.542.672,18.9,18.9,0,0,1-11.9-4.161,20.346,20.346,0,0,1,5.086-35.18,20.511,20.511,0,0,1,10.022-1,19.549,19.549,0,0,1,10.4,4.573A20.335,20.335,0,0,1,88.5,163.237a23.749,23.749,0,0,1-6.028,5.343,4.04,4.04,0,0,1-.667.266" transform="translate(-41.164 -103.554)" fill="#feeaa7"/>
          <path id="Trazado_274774" data-name="Trazado 274774" d="M48.386,142.047c0,1.85.09,3.548-.075,5.221-.034.341-1.011.789-1.584.84a45.122,45.122,0,0,1-7.483.379,34.688,34.688,0,0,1-7.176-1.558,23.028,23.028,0,0,1-7.12-3.753,29.173,29.173,0,0,1-8.43-9.658,28.269,28.269,0,0,1-3.157-9.935,27.569,27.569,0,0,1,2.755-16.214A27.821,27.821,0,0,1,30.132,94.051a26.055,26.055,0,0,1,7.891-2.1,30.61,30.61,0,0,1,12.252,1.088A28.208,28.208,0,0,1,69.9,122.472a28.618,28.618,0,0,1-5.7,14.881,1.621,1.621,0,0,1-1.735.584,5.03,5.03,0,0,0-5.846,3.912c-.063.261-.233.54-.184.776.318,1.521-.491,2.186-1.784,2.668-1.152.429-2.233,1.048-3.523,1.669,0-2.017-.028-3.808.033-5.6.009-.247.418-.559.71-.7a22.715,22.715,0,0,0,6.015-4.352,22.97,22.97,0,0,0,5.2-7.995,22.585,22.585,0,0,0,1.384-10.445,22.294,22.294,0,0,0-5.8-13.153,23.173,23.173,0,0,0-9.55-6.356,22.908,22.908,0,0,0-6.691-1.182A21.812,21.812,0,0,0,31.01,99.625a22.658,22.658,0,0,0-11.993,15.848,22.01,22.01,0,0,0,1.855,14.7,22.856,22.856,0,0,0,14.938,12.3,20.456,20.456,0,0,0,12.576-.421" transform="translate(-10.398 -72.698)" fill="#fbd770"/>
          <path id="Trazado_274775" data-name="Trazado 274775" d="M69.371,17.733A31.9,31.9,0,0,0,78.662,16.4c2.376-.628,4.643-1.659,6.978-2.453,3.622-1.231,7.112-1.084,10.065,1.589a6.063,6.063,0,0,1-.646,9.245,13.184,13.184,0,0,1-1.815,1.136,23.89,23.89,0,0,1-2.456.81c0-.879-.04-1.656.026-2.424.018-.208.323-.443.549-.573.671-.384,1.42-.648,2.044-1.091a3.483,3.483,0,0,0,.071-5.5c-1.76-1.467-6.432-1.557-8.073,0-2.342,2.218-1.644,4.56.985,6.154.509.308,1.412.357,1.575.755a6.572,6.572,0,0,1,.072,2.3c-1.172.375-2.141-.307-3.147-.7A41.343,41.343,0,0,0,74.49,22.7c-1.661-.187-3.329-.35-5-.413-3.031-.115-6.066-.134-9.1-.22-2-.056-3.994-.158-5.991-.239-.207-.128-.413-.364-.623-.367q-2.7-.044-5.4,0c-.212,0-.419.235-.629.361-4.208-.059-8.416-.108-12.624-.18-2.894-.05-5.788-.1-8.68-.208a11.1,11.1,0,0,1-5.9-1.723c1.335-.324,2.655-.754,4.009-.944a35.224,35.224,0,0,1,4.317-.234c5.282-.086,10.564-.135,15.846-.212q6.159-.089,12.319-.211Q62.786,18,68.529,17.88l.842-.147" transform="translate(-16.282 -10.46)" fill="#5cd6b3"/>
          <path id="Trazado_274776" data-name="Trazado 274776" d="M200.675,360.284a33.416,33.416,0,0,1-.434,4.833,2.537,2.537,0,0,1-2.9,1.548,2.957,2.957,0,0,1-2.2-2.462c-.179-1.566-.119-1.62,1.429-2.207,1-.378,1.961-.845,2.943-1.266.3-.128.606-.235,1.158-.446" transform="translate(-154.527 -285.397)" fill="#f7f9fa"/>
          <path id="Trazado_274777" data-name="Trazado 274777" d="M102.791,178.63a2.552,2.552,0,0,1-2.664,2.668,2.925,2.925,0,0,1-2.743-2.682,2.886,2.886,0,0,1,2.685-2.723c1.33.015,3.07,1.189,2.721,2.738" transform="translate(-77.142 -139.332)" fill="#f7f9fa"/>
          <path id="Trazado_274778" data-name="Trazado 274778" d="M100.222,254.922c1.85.013,2.6.808,2.584,2.749a2.6,2.6,0,0,1-2.679,2.468,2.8,2.8,0,0,1-2.723-2.687,2.651,2.651,0,0,1,2.818-2.53" transform="translate(-77.157 -201.935)" fill="#f6f8f9"/>
          <path id="Trazado_274779" data-name="Trazado 274779" d="M176.376,178.533a2.657,2.657,0,0,1,2.487-2.653,3,3,0,0,1,2.911,2.676,2.972,2.972,0,0,1-2.826,2.73,2.511,2.511,0,0,1-2.572-2.753" transform="translate(-139.715 -139.322)" fill="#f7f9fa"/>
          <path id="Trazado_274780" data-name="Trazado 274780" d="M176.375,257.365c.011-1.716.885-2.456,2.884-2.444a2.526,2.526,0,0,1,2.488,2.52c-.211,1.515-.962,2.7-2.824,2.681a2.472,2.472,0,0,1-2.547-2.757" transform="translate(-139.714 -201.934)" fill="#f7f9fa"/>
          <path id="Trazado_274781" data-name="Trazado 274781" d="M342.5,39.1a19.412,19.412,0,0,1,1.959.715c.743.353.468.921.04,1.294a4.124,4.124,0,0,1-4.186.2,1.453,1.453,0,0,1-.634-.989c-.009-.271.392-.695.7-.807a14,14,0,0,1,2.12-.414" transform="translate(-269.077 -30.974)" fill="#f6f8f9"/>
          <path id="Trazado_274782" data-name="Trazado 274782" d="M151.413,53.2c.21-.126.417-.358.629-.361q2.7-.044,5.4,0c.21,0,.415.239.623.367l-6.648-.007" transform="translate(-119.941 -41.835)" fill="#62e4be"/>
          <path id="Trazado_274783" data-name="Trazado 274783" d="M252.2,34.99l-.842.147.842-.147" transform="translate(-199.113 -27.717)" fill="#61e3be"/>
        </g>
      </g>
    </g>
  </g>
</svg>
