<svg id="Grupo_257157" data-name="Grupo 257157" xmlns="http://www.w3.org/2000/svg" xmlns:xlink="http://www.w3.org/1999/xlink" width="85.103" height="94.677" viewBox="0 0 85.103 94.677">
  <defs>
    <clipPath id="clip-path">
      <rect id="Rectángulo_323419" data-name="Rectángulo 323419" width="85.103" height="94.676" fill="none"/>
    </clipPath>
  </defs>
  <g id="Grupo_257156" data-name="Grupo 257156" clip-path="url(#clip-path)">
    <path id="Trazado_274793" data-name="Trazado 274793" d="M2.885,93.224C2.15,94.731,1.143,95.115.4,94.14a1.873,1.873,0,0,1-.322-1.067c-.016-8.213-.2-16.432.072-24.636.135-4.024,2.452-7.178,5.889-9.387a13.837,13.837,0,0,1,7.773-2.043c4.358.02,8.717,0,13.076.016.631,0,1.1-.082,1.384-.737a4.152,4.152,0,0,1,.874-1.325c1.6-1.536,1.359-3.452,1.242-5.329a10.559,10.559,0,0,1-8.09-5.1c-1.93-3.006-1.336-6.349-1.448-9.617a25.84,25.84,0,0,1-3.66-.347A2.878,2.878,0,0,1,14.878,31.5c0-1.713.024-3.426-.02-5.138a3.53,3.53,0,0,1,1.483-3.46,23.385,23.385,0,0,1-1.351-8.4,9.776,9.776,0,0,1,7.684-9.594,14.336,14.336,0,0,1,5.659.2,2.244,2.244,0,0,0,1.512-.253A29.883,29.883,0,0,1,41.27.243a20.061,20.061,0,0,1,7.184.2,19.651,19.651,0,0,1,10.459,5.31,11.926,11.926,0,0,1,3.766,8.994c-.01.778.047,1.56,0,2.335a1.751,1.751,0,0,1-1.631,1.867,1.787,1.787,0,0,1-1.183-1.991c.05-2.065.254-4.185-.724-6.106-2.271-4.463-6.165-6.639-10.91-7.561A16.308,16.308,0,0,0,40,3.369,28.534,28.534,0,0,0,30.56,7.728a2.482,2.482,0,0,1-2.268.324,11.062,11.062,0,0,0-5.823-.185c-3.076.815-5.45,4.889-4.871,8.007.249,1.338.472,2.68.691,4.023.331,2.032.632,2.312,2.516,2.283a.821.821,0,0,0,.218-.064c.18-.8.319-1.62.548-2.409.661-2.271,1.646-4.438,3.733-5.669,2.329-1.373,4.837-1.006,7.207.1a1.907,1.907,0,0,0,2.078-.16,12.023,12.023,0,0,1,9.517-1.5,14.273,14.273,0,0,1,6.9,4c1.268,1.33,2.478,2.716,3.714,4.078A2.6,2.6,0,0,0,57.9,22.438a11.146,11.146,0,0,1,1.743-.054c2.247.712,3.047,2.316,2.92,4.575-.078,1.4.048,2.8-.032,4.2a3.518,3.518,0,0,1-3.688,3.637c-.772.047-1.55.007-2.476.007,0,1.529-.059,3.032.011,4.529.221,4.712-3.917,9.518-8.382,9.987a7.791,7.791,0,0,0-1.207.33,11.784,11.784,0,0,0,.056,3.012A18.748,18.748,0,0,0,48.322,55.4c.7,1.476,1.848,1.69,3.351,1.65,3.887-.1,7.778-.045,11.667-.032,4.825.017,8.873,1.678,11.709,5.73A11.122,11.122,0,0,1,77.13,68.4c.2,3.128.2,6.269.292,9.4l.2.182A13.392,13.392,0,0,1,82.789,81.2,7.753,7.753,0,0,1,85.1,86.861c-.039,1.808-.061,3.623-.26,5.417a2.829,2.829,0,0,1-2.815,2.338c-11.2.009-22.4.032-33.592-.056-.8-.006-1.583-.861-2.375-1.321l-.185-.3a11.592,11.592,0,0,1-.186-1.441c-.033-4.644-.047-9.289-.066-13.933a4.084,4.084,0,0,0-1.078-.316c-5.005-.032-10.01-.036-15.015-.047L28.3,75.7a1.964,1.964,0,0,1,2.178-1.26c5.015.046,10.031.021,15.082.021.879-3.878,3.8-4.351,7.025-4.15V59.842c-1.666.053-3.319-.419-4.742.9-.975.9-2.116,1.628-3.16,2.461q-3.139,2.5-5.345-.917c-.211-.328-.456-.633-.758-1.048-.288.5-.462.834-.67,1.149-1.005,1.526-3.161,2.792-5.269.923-.881-.782-2-1.318-2.795-2.17-1.442-1.55-3.165-1.431-4.992-1.247V75.7c0,.075-.007.15-.011.225a2.123,2.123,0,0,1-2.35,1.421c-1.381-.064-2.768-.015-4.152-.015V93.232c-.259.891-.837,1.561-1.764,1.327-.451-.114-.74-.87-1.1-1.335.016-.232.046-.464.046-.7q0-15.875,0-31.75v-.742c-1.03,0-1.96.063-2.878-.011-3.422-.274-5.883,1.452-7.878,3.919a8.185,8.185,0,0,0-1.9,5.24c.009,2.49-.032,4.98-.028,7.47q.012,8.285.047,16.571M40.023,55.617c1.146-.8,2.305-1.579,3.428-2.41a1.306,1.306,0,0,0,.514-.821c.065-.942.024-1.892.024-2.828H33.231a15.556,15.556,0,0,0,.031,2.374,2.478,2.478,0,0,0,.721,1.425c1.013.85,2.19,1.5,3.2,2.361,1.041.885,1.932,1.016,2.843-.1M78.09,91.8h4.127V89.45H58.643V91.8ZM18.525,74.492l3.266-.235.2-.2V59.884H18.328V74.29l.2.2M65.241,60.077c-.752-.091-1.5-.181-2.257-.275-.8-.1-1.094.211-1.086,1.046.037,3.692,0,7.384.036,11.076a1.828,1.828,0,0,0,.453,1.218,15.222,15.222,0,0,0,7.993,3.92,6.111,6.111,0,0,0,4.221.12c0-2.014.091-4.032-.029-6.038a20,20,0,0,0-.724-4.718c-1.1-3.529-5.382-6.709-8.608-6.35M47.5,46.517c.193-.012.387-.021.579-.038,1.719-.155,2.276-.906,1.993-2.6-.262-1.568-.494-3.142-.709-4.718-.452-3.3-1.806-5.51-5.381-5.989l-.234-.005-10.278,0A5.551,5.551,0,0,0,28.1,37.925c-.4,2.15-.8,4.3-1.136,6.464-.065.412,0,1.12.242,1.256a6.3,6.3,0,0,0,2.69,1.033c5.512.094,11.027.053,16.541.042a5.716,5.716,0,0,0,1.066-.2m7.91,26.765c-1.748-.026-3.5-.11-5.242-.057-1.226.037-1.7.617-1.714,1.867-.02,2.608-.007,5.216-.008,7.824,0,1.195,0,2.389,0,3.7h1.384q13.309,0,26.618,0c.543,0,1.085-.04,1.628-.062H82.22c.116-3.105-4.082-6.432-7.637-6.141a19.928,19.928,0,0,1-3.09-.313,1.853,1.853,0,0,0-2.44,1,6.709,6.709,0,0,1-1.161,1.428c-.623.646-1.4.944-2.14.286a1.367,1.367,0,0,1-.006-2.13c.454-.516.87-1.065,1.286-1.578l-2.574-1.053c-.626.823-1.21,1.68-1.889,2.454a1.375,1.375,0,1,1-2.152-1.7c.286-.409.583-.81.875-1.215L62,76.608c-1.812-1.966-3.4-4.248-6.587-3.326m-5.8-54.17a11.155,11.155,0,0,0-9.233-4.179,11.709,11.709,0,0,0-5.715,2.242,1.807,1.807,0,0,1-2.232.108,11.012,11.012,0,0,0-1.909-.969c-2.221-.942-3.975-.452-5.112,1.472a10.413,10.413,0,0,0-1.577,5.208c-.066,5.824-.126,11.649-.115,17.474a7.947,7.947,0,0,0,.672,2.2c.413-1.738.549-3.454.932-5.113.987-4.278,3.82-7.053,8.357-7.2,3.263-.109,6.532-.027,9.8-.015.338,0,.674.118,1.014.149a10.449,10.449,0,0,1,4.835,2.011c2.76,2.759,2.7,6.513,3.57,10.01a11.58,11.58,0,0,0,.782-3.489c.069-4.7.035-9.406.018-14.109a1.88,1.88,0,0,0-.261-1.085c-1.245-1.593-2.544-3.144-3.825-4.71M59.1,59.9H55.471V70.468H59.1ZM56.514,32c.741,0,1.43-.033,2.114.008.869.053,1.186-.368,1.174-1.177-.014-.931.018-1.863-.006-2.794-.089-3.376.655-2.774-3.014-2.809a1.041,1.041,0,0,0-.268.093Zm-35.6-.358V25.217c-.8,0-1.575.039-2.342-.011-.727-.048-.962.259-.952.948.025,1.634.044,3.271-.005,4.9-.028.929.484,1.033,1.182.939.675-.09,1.346-.222,2.117-.352M40.43,58.8l1.83,2.771L46.9,58.044c-.521-.761-.95-1.347-1.335-1.962-.3-.486-.534-.613-1.07-.2-1.3,1.007-2.666,1.92-4.064,2.913m-3.714-.088-4.5-3.236L30.4,58.093c.9.68,1.723,1.362,2.608,1.955.669.448,1.648,1.266,2.074,1.06.711-.345,1.091-1.374,1.6-2.12.036-.053.015-.146.026-.277m18.9,30.777H48.485v2.288h7.132Z" transform="translate(0 0)" fill="#010101"/>
    <path id="Trazado_274794" data-name="Trazado 274794" d="M88.473,324.105l1.232,1.5a4.746,4.746,0,0,0,1.227.348c4.955.024,9.911.015,14.867.014.019,4.645.033,9.289.066,13.934a11.594,11.594,0,0,0,.186,1.441l-.02.268-27.516.027V325.732c1.384,0,2.771-.049,4.152.015a2.122,2.122,0,0,0,2.35-1.421.818.818,0,0,0,.221-.018l3.235-.2" transform="translate(-60.176 -248.406)" fill="#fbc56d"/>
    <path id="Trazado_274795" data-name="Trazado 274795" d="M12.195,290.1q-.025-8.285-.048-16.571c0-2.49.037-4.98.028-7.47a8.185,8.185,0,0,1,1.9-5.24c2-2.467,4.456-4.193,7.878-3.919.919.074,1.848.011,2.878.011v.742q0,15.875,0,31.751c0,.232-.03.464-.047.7H12.195" transform="translate(-9.31 -196.875)" fill="#e5d5d0"/>
    <path id="Trazado_274796" data-name="Trazado 274796" d="M217.9,33.183a11.151,11.151,0,0,0-1.744.054,2.6,2.6,0,0,1-3.185-1.881,13.993,13.993,0,0,0,.806-2.085c1.15-5.293-.224-9.72-4.6-13.082-.9-.694-1.8-1.4-2.7-2.1,4.744.922,8.639,3.1,10.91,7.561.978,1.922.774,4.041.724,6.106a1.787,1.787,0,0,0,1.183,1.991l-1.4,3.435" transform="translate(-158.258 -10.799)" fill="#f3e4df"/>
    <path id="Trazado_274797" data-name="Trazado 274797" d="M331.686,333.285l-.2-.182.2.182" transform="translate(-254.061 -255.302)" fill="#f3e4df"/>
    <path id="Trazado_274798" data-name="Trazado 274798" d="M196.322,398.177c.007-.089.014-.179.02-.268l.186.3a.855.855,0,0,1-.206-.034" transform="translate(-150.468 -304.972)" fill="#fbcb7d"/>
    <path id="Trazado_274799" data-name="Trazado 274799" d="M127.163,81.455a10.449,10.449,0,0,0-4.835-2.011c-.34-.03-.676-.147-1.014-.149-3.266-.011-6.536-.094-9.8.015-4.537.151-7.37,2.926-8.357,7.2-.383,1.659-.519,3.375-.932,5.113a7.947,7.947,0,0,1-.672-2.2c-.011-5.825.049-11.649.115-17.474a10.413,10.413,0,0,1,1.577-5.208c1.137-1.924,2.89-2.414,5.112-1.472a11.013,11.013,0,0,1,1.909.969,1.807,1.807,0,0,0,2.232-.108,11.708,11.708,0,0,1,5.715-2.242,11.155,11.155,0,0,1,9.233,4.179c-.007.458.008.917-.026,1.373-.072.965-.259,10.355-.258,12.009M105.7,74.362c0,.349,0,.7,0,1.048,0,.716.022,1.406.942,1.579a1.367,1.367,0,0,0,1.794-1.254,9.535,9.535,0,0,0,.013-2.777,1.276,1.276,0,0,0-1.8-1.06c-.42.158-.714.818-.921,1.311a3.2,3.2,0,0,0-.027,1.154" transform="translate(-77.834 -48.96)" fill="#fecebf"/>
    <path id="Trazado_274800" data-name="Trazado 274800" d="M105.691,12.465c.9.7,1.793,1.4,2.7,2.1,4.374,3.362,5.748,7.789,4.6,13.082a13.993,13.993,0,0,1-.806,2.085c-1.236-1.361-2.445-2.748-3.714-4.078a14.276,14.276,0,0,0-6.9-4,12.024,12.024,0,0,0-9.517,1.5,1.907,1.907,0,0,1-2.078.16c-2.37-1.1-4.878-1.47-7.207-.1-2.087,1.231-3.072,3.4-3.733,5.669-.23.789-.368,1.6-.548,2.409a.821.821,0,0,1-.218.064c-1.885.03-2.185-.251-2.516-2.282-.219-1.343-.442-2.686-.691-4.023-.579-3.118,1.795-7.192,4.871-8.007a11.063,11.063,0,0,1,5.823.185,2.481,2.481,0,0,0,2.268-.324,28.538,28.538,0,0,1,9.436-4.359,16.306,16.306,0,0,1,8.232-.078" transform="translate(-57.463 -9.174)" fill="#fbf0f1"/>
    <path id="Trazado_274801" data-name="Trazado 274801" d="M109.847,271.9l-3.235.2-.21-.208v-15.8c1.827-.183,3.55-.3,4.992,1.248.793.852,1.913,1.388,2.795,2.17,2.108,1.869,4.263.6,5.269-.923.207-.315.381-.651.67-1.149.3.415.547.721.758,1.049q2.2,3.425,5.345.916c1.044-.832,2.185-1.556,3.16-2.461,1.423-1.321,3.075-.848,4.742-.9v10.467c-3.221-.2-6.146.272-7.025,4.15-5.052,0-10.067.025-15.082-.02a1.964,1.964,0,0,0-2.178,1.26m10.275-8.653c-.864-.135-1.43.358-1.3,1.185a1.944,1.944,0,0,0,1.12,1.32,1.349,1.349,0,0,0,1.62-1.416c-.013-.928-.584-1.159-1.439-1.09" transform="translate(-81.55 -196.198)" fill="#e5d5d0"/>
    <path id="Trazado_274802" data-name="Trazado 274802" d="M237.064,326.783c-.543.021-1.085.062-1.628.062q-13.309.006-26.618,0h-1.384c0-1.312,0-2.507,0-3.7,0-2.608-.012-5.216.008-7.824.009-1.25.488-1.83,1.714-1.867,1.745-.053,3.494.032,5.242.057.228.331.385.768.7.976,1.707,1.142,3.452,2.229,5.183,3.335-.292.4-.589.806-.875,1.215a1.375,1.375,0,1,0,2.152,1.7c.678-.774,1.262-1.63,1.889-2.454l2.574,1.053c-.416.513-.832,1.062-1.286,1.578a1.367,1.367,0,0,0,.006,2.13c.744.657,1.517.36,2.14-.286a6.714,6.714,0,0,0,1.161-1.428,1.853,1.853,0,0,1,2.44-1,19.928,19.928,0,0,0,3.09.313c.225.248.437.51.677.742,1.54,1.488,3.12,2.951,2.822,5.4" transform="translate(-158.982 -240.23)" fill="#dc8758"/>
    <path id="Trazado_274803" data-name="Trazado 274803" d="M132.161,142l.234.005c.2.318.428.623.6.955a13.3,13.3,0,0,1,1.676,3.364c.568,2.98.845,6.014,1.239,9.027a5.717,5.717,0,0,1-1.066.2c-5.514.011-11.028.053-16.541-.042a6.3,6.3,0,0,1-2.69-1.032c-.245-.136-.307-.844-.242-1.256.34-2.161.731-4.314,1.136-6.464A5.552,5.552,0,0,1,121.883,142a2.712,2.712,0,0,0,.738.224q4.4.023,8.8,0a2.7,2.7,0,0,0,.737-.225m-4.4,5.3.118.387c1.155-.477,2.355-.87,3.452-1.457a.963.963,0,0,0,.05-1.8,2.779,2.779,0,0,0-1.906-.09,6.855,6.855,0,0,1-4.858-.007,2.98,2.98,0,0,0-.634-.22c-.813-.15-1.656.12-1.758.875a2.224,2.224,0,0,0,1.012,1.642,5.73,5.73,0,0,0,4.524.669" transform="translate(-88.409 -108.831)" fill="#faf0f1"/>
    <path id="Trazado_274804" data-name="Trazado 274804" d="M273.5,273.249a15.222,15.222,0,0,1-7.993-3.92,1.828,1.828,0,0,1-.453-1.218c-.034-3.692,0-7.384-.036-11.076-.008-.835.29-1.145,1.086-1.046q1.128.14,2.257.275c.448.465.869.959,1.347,1.39a10.793,10.793,0,0,1,3.787,8.029c.054,2.521.008,5.044.007,7.566" transform="translate(-203.119 -196.185)" fill="#e5d5d0"/>
    <path id="Trazado_274805" data-name="Trazado 274805" d="M211.185,95.209q0-2.482,0-4.964,0-2.076,0-4.153c.088-.964.185-1.927.258-2.892.034-.456.019-.916.026-1.373,1.281,1.565,2.58,3.116,3.825,4.71a1.878,1.878,0,0,1,.261,1.085c.016,4.7.051,9.407-.018,14.109a11.58,11.58,0,0,1-.781,3.489c-.867-3.5-.81-7.251-3.57-10.01" transform="translate(-161.856 -62.714)" fill="#feb09e"/>
    <path id="Trazado_274806" data-name="Trazado 274806" d="M284.469,274.117c0-2.522.048-5.045-.007-7.566a10.793,10.793,0,0,0-3.787-8.029c-.478-.432-.9-.925-1.347-1.39,3.226-.359,7.511,2.82,8.608,6.35a20,20,0,0,1,.724,4.718c.12,2.006.029,4.024.029,6.038a6.111,6.111,0,0,1-4.221-.12" transform="translate(-214.087 -197.053)" fill="#cdbfba"/>
    <path id="Trazado_274807" data-name="Trazado 274807" d="M78.473,270.8V256.4h3.658v14.172l-.2.2L78.669,271l-.2-.2" transform="translate(-60.145 -196.511)" fill="#fbc56d"/>
    <path id="Trazado_274808" data-name="Trazado 274808" d="M270.529,385.33H251.082v-2.348h19.461q-.007,1.174-.014,2.348" transform="translate(-192.438 -293.531)" fill="#928392"/>
    <rect id="Rectángulo_323417" data-name="Rectángulo 323417" width="3.632" height="10.564" transform="translate(55.471 59.905)" fill="#eab765"/>
    <path id="Trazado_274809" data-name="Trazado 274809" d="M148.966,218.242c-.911,1.116-1.8.985-2.843.1-1.007-.856-2.184-1.511-3.2-2.361a2.48,2.48,0,0,1-.721-1.425,15.526,15.526,0,0,1-.031-2.374h6.782q0,3.03.009,6.059" transform="translate(-108.943 -162.625)" fill="#feb09e"/>
    <path id="Trazado_274810" data-name="Trazado 274810" d="M191.845,155.365c-.394-3.013-.671-6.048-1.239-9.027a13.3,13.3,0,0,0-1.676-3.364c-.175-.332-.4-.638-.6-.955,3.575.479,4.929,2.684,5.381,5.989.215,1.575.448,3.149.709,4.718.283,1.7-.274,2.448-1.993,2.6-.193.017-.386.025-.579.038" transform="translate(-144.341 -108.848)" fill="#f3e4df"/>
    <path id="Trazado_274811" data-name="Trazado 274811" d="M241.964,114.732v-6.678a1.037,1.037,0,0,1,.268-.093c3.669.035,2.925-.568,3.014,2.809.025.931-.008,1.862.006,2.794.012.809-.3,1.231-1.174,1.177-.684-.042-1.373-.008-2.114-.008" transform="translate(-185.45 -82.729)" fill="#feb09e"/>
    <path id="Trazado_274812" data-name="Trazado 274812" d="M322.828,350.364c.3-2.448-1.282-3.911-2.822-5.4-.24-.232-.452-.494-.677-.742,3.555-.291,7.752,3.035,7.637,6.141Z" transform="translate(-244.745 -263.812)" fill="#d27344"/>
    <path id="Trazado_274813" data-name="Trazado 274813" d="M78.731,114.343c-.771.13-1.442.261-2.117.352-.7.093-1.21-.01-1.182-.939.049-1.634.03-3.27.005-4.9-.011-.689.224-1,.952-.948.767.051,1.54.011,2.342.011Z" transform="translate(-57.813 -82.697)" fill="#feb09e"/>
    <path id="Trazado_274814" data-name="Trazado 274814" d="M173.1,241.368c1.4-.993,2.768-1.906,4.064-2.913.537-.417.766-.29,1.07.2.384.615.814,1.2,1.335,1.962l-4.639,3.527-1.83-2.771" transform="translate(-132.672 -182.568)" fill="#4e65ce"/>
    <path id="Trazado_274815" data-name="Trazado 274815" d="M136.49,240.754c-.01.131.011.224-.026.277-.512.746-.893,1.775-1.6,2.12-.425.206-1.4-.611-2.074-1.06-.885-.593-1.71-1.275-2.608-1.955l1.816-2.618,4.5,3.236" transform="translate(-99.773 -182.042)" fill="#6b7dd6"/>
    <path id="Trazado_274816" data-name="Trazado 274816" d="M171.326,218.242q0-3.03-.009-6.059h3.975c0,.937.04,1.886-.024,2.828a1.3,1.3,0,0,1-.514.821c-1.123.831-2.282,1.611-3.428,2.41" transform="translate(-131.303 -162.625)" fill="#fea78f"/>
    <rect id="Rectángulo_323418" data-name="Rectángulo 323418" width="7.132" height="2.288" transform="translate(48.485 89.489)" fill="#928392"/>
    <path id="Trazado_274817" data-name="Trazado 274817" d="M243.138,317.373c-1.732-1.106-3.476-2.192-5.183-3.335-.31-.208-.468-.644-.7-.975,3.188-.922,4.775,1.36,6.587,3.326l-.708.984" transform="translate(-181.844 -239.781)" fill="#d27344"/>
    <path id="Trazado_274818" data-name="Trazado 274818" d="M334.342,385.33q.007-1.174.014-2.348h4.114v2.348Z" transform="translate(-256.252 -293.531)" fill="#7a6d79"/>
    <path id="Trazado_274819" data-name="Trazado 274819" d="M142.52,330.893c-4.956,0-9.911.009-14.867-.015a4.727,4.727,0,0,1-1.227-.348c5.005.011,10.01.015,15.015.047a4.085,4.085,0,0,1,1.078.316" transform="translate(-96.897 -253.33)" fill="#fbcb7d"/>
    <path id="Trazado_274820" data-name="Trazado 274820" d="M153.6,142a2.7,2.7,0,0,1-.737.225q-4.4.023-8.8,0a2.712,2.712,0,0,1-.738-.224H153.6" transform="translate(-109.847 -108.831)" fill="#f8fafb"/>
    <path id="Trazado_274821" data-name="Trazado 274821" d="M93.3,317.275l.2-.2-.2.2" transform="translate(-71.505 -243.018)" fill="#d9ab5e"/>
    <path id="Trazado_274822" data-name="Trazado 274822" d="M78.473,318.073l.2.2-.2-.2" transform="translate(-60.145 -243.783)" fill="#d9ab5e"/>
    <path id="Trazado_274823" data-name="Trazado 274823" d="M106.366,324.09l.21.208a.819.819,0,0,1-.221.018c0-.075.007-.15.011-.225" transform="translate(-81.514 -248.394)" fill="#dacbc6"/>
    <path id="Trazado_274824" data-name="Trazado 274824" d="M119.148,100.325a3.186,3.186,0,0,1,.026-1.154c.208-.493.5-1.152.921-1.311a1.276,1.276,0,0,1,1.8,1.06,9.535,9.535,0,0,1-.014,2.777,1.367,1.367,0,0,1-1.794,1.254c-.92-.173-.945-.863-.942-1.579,0-.349,0-.7,0-1.048" transform="translate(-91.286 -74.923)" fill="#010101"/>
    <path id="Trazado_274826" data-name="Trazado 274826" d="M160.818,286.986c.856-.069,1.426.162,1.439,1.09a1.349,1.349,0,0,1-1.62,1.416,1.944,1.944,0,0,1-1.12-1.32c-.13-.828.437-1.32,1.3-1.185" transform="translate(-122.246 -219.939)" fill="#010101"/>
    <path id="Trazado_274827" data-name="Trazado 274827" d="M150.3,154.1a5.73,5.73,0,0,1-4.524-.669,2.224,2.224,0,0,1-1.012-1.642c.1-.756.945-1.026,1.758-.875a2.978,2.978,0,0,1,.634.22,6.855,6.855,0,0,0,4.858.007,2.779,2.779,0,0,1,1.906.09.963.963,0,0,1-.05,1.8c-1.1.587-2.3.98-3.452,1.457l-.118-.387" transform="translate(-110.946 -115.632)" fill="#010101"/>
    <path id="Trazado_274828" data-name="Trazado 274828" d="M119.148,100.325a3.186,3.186,0,0,1,.026-1.154c.208-.493.5-1.152.921-1.311a1.276,1.276,0,0,1,1.8,1.06,9.535,9.535,0,0,1-.014,2.777,1.367,1.367,0,0,1-1.794,1.254c-.92-.173-.945-.863-.942-1.579,0-.349,0-.7,0-1.048" transform="translate(-72.321 -74.923)" fill="#010101"/>
  </g>
</svg>
