<svg xmlns="http://www.w3.org/2000/svg" xmlns:xlink="http://www.w3.org/1999/xlink" width="177.17" height="177.999" viewBox="0 0 177.17 177.999">
  <defs>
    <clipPath id="clip-path">
      <path id="Trazado_273742" data-name="Trazado 273742" d="M159.205,159.782c-38.236,5-57.048,36.165-60.609,41.78-19.471,30.7-23.379,77.2,1.722,106.722,16.591,19.511,39.539,24.171,51.411,26.582,8.04,1.634,45.868,8.32,77.837-14.618a64.127,64.127,0,0,0,9.8-8.252c27.569-29.024,30.488-98.421-10.515-132.773-16.329-13.681-37.855-20.189-58-20.188a90.006,90.006,0,0,0-11.648.747" fill="none"/>
    </clipPath>
    <linearGradient id="linear-gradient" x1="-0.146" y1="1.236" x2="-0.142" y2="1.236" gradientUnits="objectBoundingBox">
      <stop offset="0" stop-color="#dae3fe"/>
      <stop offset="1" stop-color="#e9effd"/>
    </linearGradient>
    <clipPath id="clip-path-2">
      <path id="Trazado_273743" data-name="Trazado 273743" d="M184.669,170.12l-4.665.414a.32.32,0,0,0-.283.243l-.941,3.786a17.014,17.014,0,0,0-4.885,2.551l-3.647-1.394a.322.322,0,0,0-.36.094l-3.006,3.591a.319.319,0,0,0-.029.372l2.012,3.345a16.966,16.966,0,0,0-1.652,5.256l-3.562,1.593a.319.319,0,0,0-.189.321l.413,4.665a.318.318,0,0,0,.242.282l3.787.943a16.965,16.965,0,0,0,2.551,4.883l-1.394,3.648a.321.321,0,0,0,.094.36l3.591,3.007a.323.323,0,0,0,.371.029l3.346-2.014a17.014,17.014,0,0,0,5.256,1.654l1.592,3.562a.32.32,0,0,0,.321.188l4.666-.413a.322.322,0,0,0,.283-.242l.941-3.787a17.009,17.009,0,0,0,4.884-2.551l3.647,1.394a.322.322,0,0,0,.361-.1l3.006-3.59a.319.319,0,0,0,.029-.371l-2.013-3.346a17,17,0,0,0,1.653-5.257l3.562-1.592a.32.32,0,0,0,.189-.321l-.413-4.665a.323.323,0,0,0-.242-.283l-3.787-.942a16.99,16.99,0,0,0-2.551-4.883l1.393-3.648a.32.32,0,0,0-.093-.36l-3.591-3.007a.319.319,0,0,0-.371-.028l-3.346,2.013a16.976,16.976,0,0,0-5.256-1.653l-1.593-3.563a.322.322,0,0,0-.293-.19h-.028" fill="none"/>
    </clipPath>
    <linearGradient id="linear-gradient-2" x1="-3.444" y1="5.98" x2="-3.422" y2="5.98" gradientUnits="objectBoundingBox">
      <stop offset="0" stop-color="#4f52ff"/>
      <stop offset="1" stop-color="#4042e2"/>
    </linearGradient>
    <clipPath id="clip-path-3">
      <path id="Trazado_273758" data-name="Trazado 273758" d="M118.46,181.922l-7.467,1.687a.524.524,0,0,0-.4.453l-.7,6.344a27.776,27.776,0,0,0-7.358,5.192l-6.208-1.461a.524.524,0,0,0-.564.23l-4.087,6.472a.524.524,0,0,0,.035.608l3.987,4.977a27.806,27.806,0,0,0-1.526,8.875l-5.426,3.359a.524.524,0,0,0-.235.562l1.687,7.466a.521.521,0,0,0,.453.4l6.343.7a27.8,27.8,0,0,0,5.193,7.358l-1.461,6.208a.524.524,0,0,0,.229.564l6.473,4.086a.524.524,0,0,0,.608-.034l4.977-3.988a27.777,27.777,0,0,0,8.875,1.526l3.359,5.427a.525.525,0,0,0,.561.235l7.467-1.686a.523.523,0,0,0,.4-.454l.7-6.344a27.758,27.758,0,0,0,7.359-5.192l6.208,1.462a.526.526,0,0,0,.563-.231l4.087-6.472a.522.522,0,0,0-.034-.608l-3.988-4.977A27.779,27.779,0,0,0,150.1,215.8l5.427-3.359a.523.523,0,0,0,.235-.561l-1.687-7.467a.525.525,0,0,0-.454-.4l-6.343-.7a27.792,27.792,0,0,0-5.192-7.358l1.461-6.208a.525.525,0,0,0-.231-.564l-6.472-4.087a.524.524,0,0,0-.607.035l-4.977,3.988a27.752,27.752,0,0,0-8.876-1.526l-3.359-5.427a.524.524,0,0,0-.445-.248.509.509,0,0,0-.116.013" fill="none"/>
    </clipPath>
    <linearGradient id="linear-gradient-3" x1="-0.805" y1="2.969" x2="-0.794" y2="2.969" xlink:href="#linear-gradient-2"/>
    <clipPath id="clip-path-4">
      <path id="Trazado_273767" data-name="Trazado 273767" d="M214.089,226.873l-5.226,7.557a40.08,40.08,0,0,0-12.884,1.554l-6.875-6.106a.754.754,0,0,0-.872-.094l-9.613,5.407a.758.758,0,0,0-.373.794l1.65,9.046a40.005,40.005,0,0,0-8.018,10.2l-9.174.543a.754.754,0,0,0-.683.55l-2.974,10.621a.756.756,0,0,0,.3.825L166.9,273a40.02,40.02,0,0,0,1.554,12.884l-6.107,6.875a.753.753,0,0,0-.093.872l5.407,9.613a.754.754,0,0,0,.793.372l9.047-1.648a40.089,40.089,0,0,0,10.2,8.018l.542,9.172a.757.757,0,0,0,.55.684l10.622,2.974a.754.754,0,0,0,.824-.3l5.228-7.558a40.027,40.027,0,0,0,12.884-1.554l6.874,6.107a.759.759,0,0,0,.872.094l9.613-5.408a.755.755,0,0,0,.373-.794l-1.649-9.046a40.049,40.049,0,0,0,8.018-10.2l9.174-.542a.756.756,0,0,0,.683-.551l2.974-10.621a.758.758,0,0,0-.3-.825l-7.559-5.227a40.024,40.024,0,0,0-1.554-12.884l6.107-6.874a.754.754,0,0,0,.094-.872l-5.407-9.614a.758.758,0,0,0-.795-.373l-9.046,1.65a40.048,40.048,0,0,0-10.2-8.019l-.543-9.173a.756.756,0,0,0-.55-.683l-10.621-2.973a.75.75,0,0,0-.826.3" fill="none"/>
    </clipPath>
    <linearGradient id="linear-gradient-4" x1="-1.025" y1="1.765" x2="-1.017" y2="1.765" xlink:href="#linear-gradient-2"/>
    <clipPath id="clip-path-5">
      <path id="Trazado_273770" data-name="Trazado 273770" d="M127.039,254.566l4.991,9.441c7.32,6.9,14.658,5.194,19.26,2.828a9.579,9.579,0,0,0-1.032-4.5c-7.017,1.228-11.69-3.293-15.16-6.024a9.148,9.148,0,0,0-5.677-2.224,5.428,5.428,0,0,0-2.382.481" fill="none"/>
    </clipPath>
    <linearGradient id="linear-gradient-5" x1="-4.478" y1="6.737" x2="-4.442" y2="6.737" gradientUnits="objectBoundingBox">
      <stop offset="0" stop-color="#ff928e"/>
      <stop offset="1" stop-color="#fe7062"/>
    </linearGradient>
    <clipPath id="clip-path-6">
      <path id="Trazado_273771" data-name="Trazado 273771" d="M157.757,259.136a20,20,0,0,1-7.5,3.2,9.579,9.579,0,0,1,1.032,4.5,21.5,21.5,0,0,0,4.75-3.282c5.225-3.371,4.026-5.765,4.026-5.765Z" fill="none"/>
    </clipPath>
    <linearGradient id="linear-gradient-6" x1="-10.75" y1="13.452" x2="-10.678" y2="13.452" gradientUnits="objectBoundingBox">
      <stop offset="0" stop-color="#febbba"/>
      <stop offset="1" stop-color="#ff928e"/>
    </linearGradient>
    <clipPath id="clip-path-7">
      <path id="Trazado_273772" data-name="Trazado 273772" d="M140.1,331.163c-2.067-.4-3.2-3.541-2.526-7.018s2.889-5.971,4.956-5.572,3.2,3.539,2.525,7.017c-.623,3.231-2.584,5.615-4.516,5.615a2.322,2.322,0,0,1-.439-.042m-6.2-8.062q-.063.266-.114.533l-.52,2.691c-.892,4.618.91,8.849,4.024,9.449l3.7.715c3.114.6,6.36-2.655,7.251-7.274l.519-2.691c.035-.178.066-.357.092-.536L160.8,245.54l-8.065-1.556Z" fill="none"/>
    </clipPath>
    <linearGradient id="linear-gradient-7" x1="-2.797" y1="2.115" x2="-2.774" y2="2.115" xlink:href="#linear-gradient-2"/>
    <clipPath id="clip-path-8">
      <path id="Trazado_273773" data-name="Trazado 273773" d="M149.785,212.961a21,21,0,0,0-9.9,14.168c-2.167,11.229,5.1,20.644,15.9,22.73s21.049-3.951,23.216-15.181a20.99,20.99,0,0,0-3.915-16.833,2.8,2.8,0,0,0-4.956,1.215l-3.014,15.616a3.652,3.652,0,0,1-1.944,2.569l-5.187,2.606a3.649,3.649,0,0,1-4.373-.844l-3.844-4.349a3.649,3.649,0,0,1-.85-3.109l3.014-15.615a2.829,2.829,0,0,0-2.757-3.36,2.722,2.722,0,0,0-1.391.387" fill="none"/>
    </clipPath>
    <linearGradient id="linear-gradient-8" x1="-2.393" y1="4.515" x2="-2.375" y2="4.515" xlink:href="#linear-gradient-2"/>
    <clipPath id="clip-path-9">
      <path id="Trazado_273776" data-name="Trazado 273776" d="M157.389,258.782c-1.21,1.032.116,4.561.116,4.561l1.342,2.049.019,1.308c.726-.85,1.16-2.941,1.5-5.429a1.7,1.7,0,0,0-.4-1.4c-.5-.576-1.272-1.315-1.973-1.315a.913.913,0,0,0-.608.229" fill="none"/>
    </clipPath>
    <linearGradient id="linear-gradient-9" x1="-17.604" y1="21.366" x2="-17.49" y2="21.366" xlink:href="#linear-gradient-6"/>
    <clipPath id="clip-path-10">
      <path id="Trazado_273777" data-name="Trazado 273777" d="M110.77,280.884a29.957,29.957,0,0,0,6.7,5.739l.851,1.814,2.553-3.181a14.186,14.186,0,0,1-6.55-7.077,15.486,15.486,0,0,1-3.557,2.705" fill="none"/>
    </clipPath>
    <linearGradient id="linear-gradient-10" x1="-10.746" y1="16.135" x2="-10.649" y2="16.135" xlink:href="#linear-gradient-6"/>
    <clipPath id="clip-path-11">
      <path id="Trazado_273780" data-name="Trazado 273780" d="M121.884,329.491l.769,3.381a.555.555,0,0,0,.483.447,4.678,4.678,0,0,0,1.092-.038.7.7,0,0,0,.537-.83l-.547-3Z" fill="none"/>
    </clipPath>
    <linearGradient id="linear-gradient-11" x1="-29.125" y1="35.317" x2="-28.885" y2="35.317" xlink:href="#linear-gradient-6"/>
    <clipPath id="clip-path-12">
      <path id="Trazado_273783" data-name="Trazado 273783" d="M133.781,328.874c.026.16.368,2.593.5,3.536a.469.469,0,0,0,.4.416,4.928,4.928,0,0,0,1.478-.05.639.639,0,0,0,.471-.648l-.073-3.828Z" fill="none"/>
    </clipPath>
    <linearGradient id="linear-gradient-12" x1="-27.42" y1="35.877" x2="-27.214" y2="35.877" xlink:href="#linear-gradient-6"/>
    <clipPath id="clip-path-13">
      <path id="Trazado_273784" data-name="Trazado 273784" d="M119.852,284.623s-2.232,3.842-2.222,4.715c.166,15.494,3.556,36.941,4.143,40.544a.7.7,0,0,0,.639.586,8.8,8.8,0,0,0,1.932-.031.528.528,0,0,0,.455-.557c-.711-11.1.45-32.549.45-32.549,2.454,3.859,7.085,27.828,7.893,32.083a.891.891,0,0,0,.864.728,11.146,11.146,0,0,0,2.4-.324.962.962,0,0,0,.745-.95,191.724,191.724,0,0,0-5.939-44.459Z" fill="none"/>
    </clipPath>
    <linearGradient id="linear-gradient-13" x1="-2.073" y1="3.905" x2="-2.052" y2="3.905" gradientUnits="objectBoundingBox">
      <stop offset="0" stop-color="#09005d"/>
      <stop offset="1" stop-color="#1a0f91"/>
    </linearGradient>
    <clipPath id="clip-path-14">
      <path id="Trazado_273785" data-name="Trazado 273785" d="M115.425,254.853a5.018,5.018,0,0,0-3.142,1.764c-3.153,3.79-10.032,14.135-1.513,24.267a15.486,15.486,0,0,0,3.557-2.705c-.97-2.579-1.108-5.895.745-10a9.505,9.505,0,0,0,.265.951,59.158,59.158,0,0,1,3.118,17,.536.536,0,0,0,.344.493c3.528,1.337,10.252.375,12.507-.005a.762.762,0,0,0,.621-.876c-1.262-8.023,4.186-21.363,5.629-24.707a2.192,2.192,0,0,1,.427-.644,21.635,21.635,0,0,1-2.262-3.313,3.579,3.579,0,0,0-.277-.444c-.009-.09-.023-.2-.043-.335a17.227,17.227,0,0,0-9.929-2.653,61.389,61.389,0,0,0-10.047,1.2" fill="none"/>
    </clipPath>
    <linearGradient id="linear-gradient-14" x1="-1.96" y1="4.078" x2="-1.939" y2="4.078" xlink:href="#linear-gradient-5"/>
    <clipPath id="clip-path-15">
      <path id="Trazado_273786" data-name="Trazado 273786" d="M121.349,247.965l-.546,6.907s3.9,1.094,6.684-.949l-2.1-6.228Z" fill="none"/>
    </clipPath>
    <linearGradient id="linear-gradient-15" x1="-12.602" y1="24.11" x2="-12.496" y2="24.11" xlink:href="#linear-gradient-6"/>
    <clipPath id="clip-path-16">
      <path id="Trazado_273787" data-name="Trazado 273787" d="M120.631,243.247l4.834,6.528,4.319-2.187s-3.989-7.48-4.084-7.565a1.046,1.046,0,0,0-.727-.277c-1.732,0-4.342,3.5-4.342,3.5" fill="none"/>
    </clipPath>
    <linearGradient id="linear-gradient-16" x1="-11.029" y1="17.969" x2="-10.937" y2="17.969" xlink:href="#linear-gradient-6"/>
    <clipPath id="clip-path-17">
      <path id="Trazado_273788" data-name="Trazado 273788" d="M123.22,236.972a1.784,1.784,0,0,0-.956,2.06.673.673,0,0,1-.531.8.463.463,0,0,0-.354.29.722.722,0,0,1-.749.436,2.168,2.168,0,0,0-2.327,1.193,1.539,1.539,0,0,0,.631,2.172.7.7,0,0,1,.233.941,1.533,1.533,0,0,0,.621,2.321.7.7,0,0,0,.556.062c.493-.152,1.587-.4,2.194.186.652.625,2.578,3.14,3.261,4.04a.7.7,0,0,0,.663.267,19.253,19.253,0,0,0,4.152-1.3.691.691,0,0,0,.386-.856,25.8,25.8,0,0,0-1.554-3.5.7.7,0,0,0-.944-.292,6.158,6.158,0,0,0-1.682,1.89,1.142,1.142,0,0,1-1.829.047.649.649,0,0,1-.121-.146L122.627,244a.693.693,0,0,1-.064-.609c.2-.558.716-1.629,1.686-1.77,1.319-.193,3.4-1.238,2.958-2.653a3.249,3.249,0,0,0-2.778-2.341,2.407,2.407,0,0,0-1.209.342" fill="none"/>
    </clipPath>
    <linearGradient id="linear-gradient-17" x1="-5.658" y1="10.585" x2="-5.608" y2="10.585" xlink:href="#linear-gradient-13"/>
    <clipPath id="clip-path-18">
      <path id="Trazado_273789" data-name="Trazado 273789" d="M121.428,246.429c-1.069.109-1.891,1.192-.542,2.366,1.679,1.461,2.493-.045,2.493-.045s-.843-2.325-1.88-2.325a.562.562,0,0,0-.071,0" fill="none"/>
    </clipPath>
    <linearGradient id="linear-gradient-18" x1="-29.33" y1="49.335" x2="-29.084" y2="49.335" xlink:href="#linear-gradient-6"/>
    <clipPath id="clip-path-19">
      <path id="Trazado_273790" data-name="Trazado 273790" d="M114.708,267.556l.364-.141a21.355,21.355,0,0,1-1.03-8.376l-.39-.038a21.821,21.821,0,0,0,1.056,8.555" fill="none"/>
    </clipPath>
    <linearGradient id="linear-gradient-19" x1="-34.066" y1="21.467" x2="-33.763" y2="21.467" gradientUnits="objectBoundingBox">
      <stop offset="0" stop-color="#e1473d"/>
      <stop offset="1" stop-color="#e9605a"/>
    </linearGradient>
    <clipPath id="clip-path-20">
      <path id="Trazado_273791" data-name="Trazado 273791" d="M121.024,292.99a.2.2,0,0,0,.08.266c.033.017,3.291,1.781,3.753,3.433a.2.2,0,0,0,.192.143.209.209,0,0,0,.049-.007.2.2,0,0,0,.136-.241c-.507-1.813-3.805-3.6-3.945-3.674a.19.19,0,0,0-.092-.023.2.2,0,0,0-.173.1" fill="none"/>
    </clipPath>
    <linearGradient id="linear-gradient-20" x1="-21.859" y1="27.381" x2="-21.677" y2="27.381" xlink:href="#linear-gradient-2"/>
    <clipPath id="clip-path-21">
      <path id="Trazado_273792" data-name="Trazado 273792" d="M117.59,236.706c-4.27,3.777-.115,7.956-.115,7.956l.1.713a.238.238,0,0,0,.382.153l9.985-7.776a.2.2,0,0,0-.084-.353l-.966-.191a9.331,9.331,0,0,0-5.335-2.06,5.847,5.847,0,0,0-3.971,1.558" fill="none"/>
    </clipPath>
    <linearGradient id="linear-gradient-21" x1="-8.986" y1="13.189" x2="-8.907" y2="13.189" xlink:href="#linear-gradient-5"/>
  </defs>
  <g id="Grupo_256137" data-name="Grupo 256137" transform="translate(2178.268 10530.459)">
    <g id="Grupo_256062" data-name="Grupo 256062" transform="translate(-2261 -10689.494)">
      <g id="Grupo_256061" data-name="Grupo 256061" clip-path="url(#clip-path)">
        <rect id="Rectángulo_322832" data-name="Rectángulo 322832" width="267.094" height="265.503" transform="matrix(0.779, -0.627, 0.627, 0.779, -14.739, 231.466)" fill="url(#linear-gradient)"/>
      </g>
    </g>
    <g id="Grupo_256064" data-name="Grupo 256064" transform="translate(-2261 -10689.494)">
      <g id="Grupo_256063" data-name="Grupo 256063" clip-path="url(#clip-path-2)">
        <rect id="Rectángulo_322833" data-name="Rectángulo 322833" width="46.696" height="46.687" transform="matrix(0.991, -0.137, 0.137, 0.991, 157.817, 170.9)" fill="url(#linear-gradient-2)"/>
      </g>
    </g>
    <g id="Grupo_256080" data-name="Grupo 256080" transform="translate(-2261 -10689.494)">
      <g id="Grupo_256079" data-name="Grupo 256079" clip-path="url(#clip-path-3)">
        <rect id="Rectángulo_322839" data-name="Rectángulo 322839" width="93.592" height="93.602" transform="translate(57.077 227.739) rotate(-55.601)" fill="url(#linear-gradient-3)"/>
      </g>
    </g>
    <g id="Grupo_256090" data-name="Grupo 256090" transform="translate(-2261 -10689.494)">
      <g id="Grupo_256089" data-name="Grupo 256089" clip-path="url(#clip-path-4)">
        <rect id="Rectángulo_322843" data-name="Rectángulo 322843" width="135.885" height="135.879" transform="translate(111.388 267.108) rotate(-40.452)" fill="url(#linear-gradient-4)"/>
      </g>
    </g>
    <g id="Grupo_256094" data-name="Grupo 256094" transform="translate(-2261 -10689.494)">
      <g id="Grupo_256093" data-name="Grupo 256093" clip-path="url(#clip-path-5)">
        <rect id="Rectángulo_322845" data-name="Rectángulo 322845" width="27.959" height="29.528" transform="translate(119.001 264.963) rotate(-53.54)" fill="url(#linear-gradient-5)"/>
      </g>
    </g>
    <g id="Grupo_256096" data-name="Grupo 256096" transform="translate(-2261 -10689.494)">
      <g id="Grupo_256095" data-name="Grupo 256095" clip-path="url(#clip-path-6)">
        <rect id="Rectángulo_322846" data-name="Rectángulo 322846" width="13.845" height="14.234" transform="matrix(0.601, -0.799, 0.799, 0.601, 145.913, 263.569)" fill="url(#linear-gradient-6)"/>
      </g>
    </g>
    <g id="Grupo_256098" data-name="Grupo 256098" transform="translate(-2261 -10689.494)">
      <g id="Grupo_256097" data-name="Grupo 256097" clip-path="url(#clip-path-7)">
        <rect id="Rectángulo_322847" data-name="Rectángulo 322847" width="44.464" height="96.669" transform="translate(116.149 246.901) rotate(-10.195)" fill="url(#linear-gradient-7)"/>
      </g>
    </g>
    <g id="Grupo_256100" data-name="Grupo 256100" transform="translate(-2261 -10689.494)">
      <g id="Grupo_256099" data-name="Grupo 256099" clip-path="url(#clip-path-8)">
        <rect id="Rectángulo_322848" data-name="Rectángulo 322848" width="54.944" height="53.394" transform="matrix(0.911, -0.413, 0.413, 0.911, 122.919, 219.282)" fill="url(#linear-gradient-8)"/>
      </g>
    </g>
    <g id="Grupo_256104" data-name="Grupo 256104" transform="translate(-2261 -10689.494)">
      <g id="Grupo_256103" data-name="Grupo 256103" clip-path="url(#clip-path-9)">
        <rect id="Rectángulo_322850" data-name="Rectángulo 322850" width="8.745" height="8.82" transform="matrix(0.717, -0.697, 0.697, 0.717, 152.107, 262.515)" fill="url(#linear-gradient-9)"/>
      </g>
    </g>
    <g id="Grupo_256106" data-name="Grupo 256106" transform="translate(-2261 -10689.494)">
      <g id="Grupo_256105" data-name="Grupo 256105" clip-path="url(#clip-path-10)">
        <rect id="Rectángulo_322851" data-name="Rectángulo 322851" width="10.299" height="10.447" transform="translate(110.576 278.183) rotate(-1.083)" fill="url(#linear-gradient-10)"/>
      </g>
    </g>
    <g id="Grupo_256112" data-name="Grupo 256112" transform="translate(-2261 -10689.494)">
      <g id="Grupo_256111" data-name="Grupo 256111" clip-path="url(#clip-path-11)">
        <rect id="Rectángulo_322854" data-name="Rectángulo 322854" width="4.164" height="3.31" transform="translate(121.515 333.313) rotate(-84.546)" fill="url(#linear-gradient-11)"/>
      </g>
    </g>
    <g id="Grupo_256118" data-name="Grupo 256118" transform="translate(-2261 -10689.494)">
      <g id="Grupo_256117" data-name="Grupo 256117" clip-path="url(#clip-path-12)">
        <rect id="Rectángulo_322857" data-name="Rectángulo 322857" width="4.843" height="3.28" transform="matrix(0.095, -0.995, 0.995, 0.095, 133.347, 332.85)" fill="url(#linear-gradient-12)"/>
      </g>
    </g>
    <g id="Grupo_256120" data-name="Grupo 256120" transform="translate(-2261 -10689.494)">
      <g id="Grupo_256119" data-name="Grupo 256119" clip-path="url(#clip-path-13)">
        <rect id="Rectángulo_322858" data-name="Rectángulo 322858" width="49.516" height="40.874" transform="translate(96.989 317.793) rotate(-58.283)" fill="url(#linear-gradient-13)"/>
      </g>
    </g>
    <g id="Grupo_256122" data-name="Grupo 256122" transform="translate(-2261 -10689.494)">
      <g id="Grupo_256121" data-name="Grupo 256121" clip-path="url(#clip-path-14)">
        <rect id="Rectángulo_322859" data-name="Rectángulo 322859" width="48.832" height="49.13" transform="translate(85.851 275.847) rotate(-53.54)" fill="url(#linear-gradient-14)"/>
      </g>
    </g>
    <g id="Grupo_256124" data-name="Grupo 256124" transform="translate(-2261 -10689.494)">
      <g id="Grupo_256123" data-name="Grupo 256123" clip-path="url(#clip-path-15)">
        <rect id="Rectángulo_322860" data-name="Rectángulo 322860" width="9.475" height="8.251" transform="translate(119.128 255.612) rotate(-78.054)" fill="url(#linear-gradient-15)"/>
      </g>
    </g>
    <g id="Grupo_256126" data-name="Grupo 256126" transform="translate(-2261 -10689.494)">
      <g id="Grupo_256125" data-name="Grupo 256125" clip-path="url(#clip-path-16)">
        <rect id="Rectángulo_322861" data-name="Rectángulo 322861" width="10.86" height="11.557" transform="matrix(0.983, -0.186, 0.186, 0.983, 118.797, 240.093)" fill="url(#linear-gradient-16)"/>
      </g>
    </g>
    <g id="Grupo_256128" data-name="Grupo 256128" transform="translate(-2261 -10689.494)">
      <g id="Grupo_256127" data-name="Grupo 256127" clip-path="url(#clip-path-17)">
        <rect id="Rectángulo_322862" data-name="Rectángulo 322862" width="20.208" height="20.084" transform="translate(110.204 244.949) rotate(-47.813)" fill="url(#linear-gradient-17)"/>
      </g>
    </g>
    <g id="Grupo_256130" data-name="Grupo 256130" transform="translate(-2261 -10689.494)">
      <g id="Grupo_256129" data-name="Grupo 256129" clip-path="url(#clip-path-18)">
        <rect id="Rectángulo_322863" data-name="Rectángulo 322863" width="4.072" height="4.061" transform="matrix(0.998, -0.062, 0.062, 0.998, 119.3, 246.44)" fill="url(#linear-gradient-18)"/>
      </g>
    </g>
    <g id="Grupo_256132" data-name="Grupo 256132" transform="translate(-2261 -10689.494)">
      <g id="Grupo_256131" data-name="Grupo 256131" clip-path="url(#clip-path-19)">
        <rect id="Rectángulo_322864" data-name="Rectángulo 322864" width="3.302" height="8.746" transform="translate(111.764 259.258) rotate(-9.978)" fill="url(#linear-gradient-19)"/>
      </g>
    </g>
    <g id="Grupo_256134" data-name="Grupo 256134" transform="translate(-2261 -10689.494)">
      <g id="Grupo_256133" data-name="Grupo 256133" clip-path="url(#clip-path-20)">
        <rect id="Rectángulo_322865" data-name="Rectángulo 322865" width="5.506" height="5.647" transform="translate(119.328 295.949) rotate(-61.751)" fill="url(#linear-gradient-20)"/>
      </g>
    </g>
    <g id="Grupo_256136" data-name="Grupo 256136" transform="translate(-2261 -10689.494)">
      <g id="Grupo_256135" data-name="Grupo 256135" clip-path="url(#clip-path-21)">
        <rect id="Rectángulo_322866" data-name="Rectángulo 322866" width="12.725" height="16.253" transform="matrix(0.16, -0.987, 0.987, 0.16, 111.658, 245.37)" fill="url(#linear-gradient-21)"/>
      </g>
    </g>
  </g>
</svg>
