<svg id="Grupo_257399" data-name="Grupo 257399" xmlns="http://www.w3.org/2000/svg" xmlns:xlink="http://www.w3.org/1999/xlink" width="97.176" height="119.026" viewBox="0 0 97.176 119.026">
  <defs>
    <clipPath id="clip-path">
      <rect id="Rectángulo_323530" data-name="Rectángulo 323530" width="97.176" height="119.026" fill="none"/>
    </clipPath>
  </defs>
  <g id="Grupo_257398" data-name="Grupo 257398" clip-path="url(#clip-path)">
    <path id="Trazado_275247" data-name="Trazado 275247" d="M97.1,40.338c.009.434.026.869.026,1.3q0,35.793,0,71.588c0,4.045-1.728,5.779-5.757,5.779q-5.863,0-11.727-.008c0-.047.009-.094.014-.142.786-.245.928-.868.931-1.576q.012-2.469.027-4.936,4.146.007,8.294.014c1.571,0,1.572,0,1.573-1.522q.008-22.221.017-44.442.007-13.035.033-26.071l6.568.013" fill="#c27f50"/>
    <path id="Trazado_275248" data-name="Trazado 275248" d="M80.611,112.346q-.014,2.467-.027,4.936c0,.708-.145,1.331-.931,1.576l-11.673-.029a.79.79,0,0,0-.655.186l-14.735.011c.978-.183,1.221-.759,1.215-1.742-.047-7.627-.027-15.254-.028-22.881.217-.918-.333-1.6-.84-2.379h5.081l4.547.045q0,1.161,0,2.324,0,1.063,0,2.128c-.948,0-1.9,0-2.843,0-1.38.006-1.652.263-1.66,1.66-.014,2.409,0,4.818,0,7.227q0,3.791,0,7.582c0,.935.245,1.582,1.406,1.575,5.173-.032,10.345-.02,15.518-.008.871,0,1.334-.335,1.333-1.248q-.01-7.759,0-15.52c0-.9-.422-1.291-1.307-1.273-1.066.021-2.132.009-3.2.011L71.8,94.4q0-1.167-.008-2.335h7.994a2.312,2.312,0,0,1,.848,2.186c-.027,6.033-.02,12.065-.023,18.1" fill="#fec987"/>
    <path id="Trazado_275249" data-name="Trazado 275249" d="M40.279,9.483c.312-1.9.785-2.3,2.735-2.311,1.5-.009,3,.025,4.5-.032A3.853,3.853,0,0,0,51.17,3.374c.008-.276,0-.552,0-.828C51.178.584,51.748,0,53.69,0c3.078,0,6.156-.007,9.234,0,1.589,0,2.337.652,2.214,2.2-.225,2.84,1.374,5.342,5.227,5.135,1.1-.059,2.209-.013,3.314-.008,1.75.007,2.094.339,2.229,2.132q-.045,1.667-.087,3.333a3.527,3.527,0,0,1-2.781.97q-14.894-.049-29.789,0A3.3,3.3,0,0,1,40.5,12.8c-.189-1.1.192-2.237-.224-3.321" fill="#889fc1"/>
    <path id="Trazado_275250" data-name="Trazado 275250" d="M28.147,119q-13.138.009-26.276.01c-1.316,0-1.869-.565-1.87-1.9Q-.007,105.745.02,94.381q3.3.009,6.6.017c2.115,0,2.115,0,2.108,2.126-.948,0-1.9.031-2.842-.005-.989-.038-1.445.354-1.441,1.383q.032,7.636,0,15.275c0,.932.353,1.383,1.322,1.381q7.7-.022,15.393,0c.877,0,1.321-.35,1.32-1.259q-.012-7.755,0-15.512c0-.906-.436-1.281-1.315-1.263-.987.021-1.974,0-2.96,0,0-.2,0-.391,0-.587,0-1.538,0-1.541,1.506-1.539q3.523,0,7.046.017,0,8.331,0,16.66c0,.378-.127.8.23,1.109,0,1.618.034,3.236-.008,4.853-.025.939.2,1.656,1.176,1.959" fill="#fe9e52"/>
    <path id="Trazado_275251" data-name="Trazado 275251" d="M28.147,119c-.976-.3-1.2-1.02-1.176-1.959.042-1.617.009-3.235.008-4.853L26.988,94.4l-.005-.013,8.737.035.033,2.1c-.987,0-1.977.037-2.961-.015-1.108-.059-1.564.377-1.556,1.515q.051,7.522,0,15.044c-.006,1.054.384,1.5,1.461,1.49q7.7-.041,15.4,0c.985.006,1.4-.462,1.4-1.336q.027-7.7,0-15.4a1.177,1.177,0,0,0-1.415-1.319c-1.023.056-2.052.012-3.078.013l.027-2.11,8.746-.013c0,7.627-.018,15.254.028,22.881.006.983-.236,1.559-1.215,1.742L28.147,119" fill="#febf50"/>
    <path id="Trazado_275252" data-name="Trazado 275252" d="M97.1,40.338l-6.568-.013c-.016-.472-.045-.944-.045-1.416,0-7.093-.022-14.186.025-21.279.007-1.107-.256-1.507-1.434-1.485-3.465.065-6.933,0-10.4-.009q0-3.3-.007-6.607c4.737-.014,9.475-.074,14.212-.021a4.491,4.491,0,0,1,4.273,4.3c.046,8.767.012,17.534,0,26.3a.916.916,0,0,1-.06.228" fill="#dba766"/>
    <path id="Trazado_275253" data-name="Trazado 275253" d="M19.223,40.332c-.022-.708-.064-1.417-.064-2.125q-.008-11.783,0-23.565c0-3.213,1.938-5.162,5.131-5.156q6.688.01,13.377.041l-.009,6.611q-5.08.016-10.162.034c-1.641,0-1.639,0-1.642,1.695q-.021,11.227-.045,22.454l-6.584.011" fill="#dba766"/>
    <path id="Trazado_275254" data-name="Trazado 275254" d="M5.633,92.009a2.6,2.6,0,0,1-.715-2.036c.024-7.272.014-14.544.014-21.816,0-2.838.148-2.98,3.049-2.913A2.749,2.749,0,0,0,7.086,67.8q-.012,9.779-.016,19.558c0,1.41.7,2.057,2.122,2.057q9.009,0,18.016,0c1.763,0,2.144-.376,2.144-2.145q0-9.72,0-19.44c.1-1,.092-1.954-.9-2.568l2.532.041c.262.28.617.484.734.885q0,12.446.01,24.892a1.3,1.3,0,0,1-1.5.954c-.81-.022-1.623.029-2.434.049l-1.74-.023-8.094.007-8.991,0-3.336-.058" fill="#febf50"/>
    <path id="Trazado_275255" data-name="Trazado 275255" d="M19.223,40.332l6.584-.011q-.007,12.437-.015,24.874l-2.837.047-3.775-.036q.021-12.437.043-24.874" fill="#c27f50"/>
    <path id="Trazado_275256" data-name="Trazado 275256" d="M5.633,92.009l3.335.057a7.391,7.391,0,0,1-.014.942c-.141,1.035.186,1.469,1.33,1.4,1.8-.1,3.613-.027,5.42-.027,2.284,0,2.284,0,2.256-2.32l8.094-.007.921.96q0,.686.008,1.372l0,.012a.707.707,0,0,0-.234.013q-3.524-.009-7.046-.017c-1.505,0-1.505,0-1.506,1.539,0,.2,0,.392,0,.587,0,1.817-.031,3.634,0,5.451.015.721-.229.965-.953.956q-3.791-.051-7.583,0c-.725.01-.966-.236-.952-.957.037-1.816.008-3.633.005-5.45C8.734,94.4,8.734,94.4,6.619,94.4q-3.3,0-6.6-.017C-.1,92.555.379,92.047,2.2,92.038c1.143-.005,2.286-.019,3.429-.029" fill="#fe703c"/>
    <path id="Trazado_275257" data-name="Trazado 275257" d="M19.18,65.206l3.775.036q.009,1.29.017,2.58l-.048.009-9.173.009-.039-.009q.023-1.272.046-2.544l5.422-.081" fill="#febf50"/>
    <path id="Trazado_275258" data-name="Trazado 275258" d="M78.667,9.529q0,3.3.008,6.607l-3.809.013c1.317-.83.957-2.139.955-3.347q.042-1.665.087-3.332l2.759.059" fill="#c27f50"/>
    <path id="Trazado_275259" data-name="Trazado 275259" d="M37.657,16.138l.009-6.611,2.613-.044c.416,1.084.035,2.221.223,3.321.015,1.2-.376,2.52.96,3.341l-3.805-.007" fill="#c27f50"/>
    <path id="Trazado_275260" data-name="Trazado 275260" d="M13.758,65.288q-.023,1.272-.046,2.544L7.086,67.8a2.748,2.748,0,0,1,.9-2.553l5.776.044" fill="#fde6a9"/>
    <path id="Trazado_275261" data-name="Trazado 275261" d="M67.325,119.015a.787.787,0,0,1,.655-.187l11.673.03c0,.047-.01.1-.014.142l-12.314.015" fill="#dba766"/>
    <path id="Trazado_275262" data-name="Trazado 275262" d="M37.657,16.138l3.805.007a1.685,1.685,0,0,0,1.143.172q15.558.008,31.117,0a1.718,1.718,0,0,0,1.144-.168l3.809-.013c3.467.012,6.934.074,10.4.009,1.177-.022,1.44.378,1.433,1.485-.046,7.092-.026,14.186-.025,21.279,0,.472.03.943.045,1.415Q90.511,53.36,90.5,66.4q-.014,22.221-.017,44.442c0,1.522,0,1.524-1.572,1.522q-4.147,0-8.295-.014c0-6.033,0-12.066.023-18.1a2.317,2.317,0,0,0-.847-2.187c1.3-.013,2.607-.032,3.911-.037,1.621-.007,1.622,0,1.622-1.571q0-33.789,0-67.576c0-1.533,0-1.534-1.539-1.534H32.57a3.745,3.745,0,0,1-.474,0c-.8-.1-1.152.186-1.1,1.046.065,1.024.016,2.054.015,3.082Q31,45.385,30.986,65.3l-2.532-.041-2.661-.065.015-24.874.045-22.454c0-1.694,0-1.691,1.642-1.695q5.08-.015,10.162-.034" fill="#cfd4fb"/>
    <path id="Trazado_275263" data-name="Trazado 275263" d="M30.986,65.3q.014-19.917.026-39.833c0-1.028.05-2.058-.014-3.082-.055-.86.3-1.148,1.1-1.046a3.746,3.746,0,0,0,.474,0H83.78c1.539,0,1.54,0,1.54,1.533V90.453c0,1.568,0,1.564-1.623,1.571-1.3,0-2.607.024-3.911.037H71.792l-6.39-.071a2.832,2.832,0,0,0,.717-1.7c-.015-7.769,0-15.538-.016-23.307,0-1.213-.529-1.745-1.726-1.755-2.208-.018-4.416.009-6.624.017l-2.044.012-5.743-.005H40.517l-5.039.009c-.658-.011-1.317-.032-1.975-.032-.7,0-1.319.14-1.547.929l-.237.028c-.116-.4-.471-.6-.733-.885M56.628,48.357c-.86.017-1.72.026-2.579.053s-1.459.425-1.425,1.345c.032.849.6,1.214,1.425,1.222.86.008,1.719.028,2.579.043,0,1.541-.028,3.082.005,4.622a2.526,2.526,0,0,0,2.724,2.7q8.473,0,16.947,0c1.813,0,2.61-.787,2.612-2.579q.006-5.214,0-10.43c.588-.014,1.177-.021,1.765-.044a1.194,1.194,0,0,0,1.313-1.211c.036-.872-.5-1.278-1.313-1.34-.586-.044-1.175-.042-1.763-.061,0-3.97-.033-7.941.024-11.911a3.588,3.588,0,0,0-.973-2.777c.868-.019,1.735-.026,2.6-.06s1.468-.415,1.421-1.366c-.044-.882-.634-1.192-1.456-1.192q-13.21,0-26.421,0c-.887,0-1.494.359-1.489,1.288s.666,1.261,1.521,1.275q1.716.027,3.43.059A3.83,3.83,0,0,0,56.63,31c-.86.015-1.719.044-2.578.043-.828,0-1.394.347-1.429,1.2-.037.93.559,1.311,1.425,1.338s1.716.046,2.574.068q0,4.512,0,9.022c-.86.018-1.719.027-2.578.056s-1.461.422-1.424,1.346c.034.848.6,1.213,1.424,1.218.86.005,1.72.026,2.579.04v3.023M40.221,35.567v0c1.025,0,2.053.038,3.076-.009a2.907,2.907,0,0,0,2.944-2.815c.1-2.164.1-4.339,0-6.5a2.8,2.8,0,0,0-2.908-2.82q-3.132-.1-6.269,0a2.916,2.916,0,0,0-2.934,2.957q-.094,3.074,0,6.153a3.028,3.028,0,0,0,3.129,3.035c.986.031,1.973.006,2.959.006m-.006,17.358c1.026,0,2.052.031,3.076-.007a2.848,2.848,0,0,0,2.952-2.783c.1-2.164.1-4.339,0-6.5a2.864,2.864,0,0,0-3.02-2.843q-3.018-.048-6.036,0a2.936,2.936,0,0,0-3.043,2.848c-.087,2.126-.081,4.261-.006,6.388a2.945,2.945,0,0,0,3,2.894c1.024.038,2.05.007,3.076.006" fill="#e7eefe"/>
    <path id="Trazado_275264" data-name="Trazado 275264" d="M71.807,96.529c1.066,0,2.132.011,3.2-.01.885-.018,1.308.373,1.307,1.273q-.012,7.759,0,15.519c0,.914-.461,1.25-1.333,1.248-5.172-.012-10.345-.024-15.518.009-1.161.007-1.4-.64-1.406-1.576q-.006-3.791,0-7.582c0-2.409-.009-4.818,0-7.226.008-1.4.281-1.655,1.66-1.661.948,0,1.9,0,2.843,0h0c0,1.771.024,3.544-.021,5.314-.02.776.158,1.133,1.034,1.114q3.6-.079,7.2,0c.865.019,1.068-.313,1.047-1.1-.046-1.77-.016-3.543-.017-5.314h0m-4.655,15.7c1.106,0,2.212-.009,3.317,0,.842.009,1.389-.325,1.4-1.224s-.525-1.251-1.372-1.249c-2.212,0-4.423,0-6.635,0-.852,0-1.358.386-1.337,1.281.02.836.521,1.183,1.313,1.184q1.659,0,3.317,0" fill="#fde6a9"/>
    <path id="Trazado_275265" data-name="Trazado 275265" d="M55.71,65.257l2.044-.011a2.173,2.173,0,0,1,.976,2.12q-.031,11.3,0,22.606a2.98,2.98,0,0,1-.713,2.052H52.938c.507.775,1.056,1.461.84,2.378l-8.747.014L45,94.387a6.556,6.556,0,0,1,.012-.941c.172-1.118-.248-1.507-1.4-1.447-1.839.1-3.687.025-5.531.025-2.363,0-2.363,0-2.321,2.366l-.038.034-8.737-.034q0-.686-.008-1.372a2.542,2.542,0,0,1,.819-.937c.812-.019,1.624-.071,2.434-.049a1.3,1.3,0,0,0,1.5-.953c.361-.311.229-.733.229-1.112q.008-11.9,0-23.809c.228-.788.85-.93,1.547-.929.658,0,1.317.021,1.975.033-1.109.569-.942,1.59-.908,2.565q0,9.771,0,19.543c0,1.729.32,2.041,2.087,2.042q9,0,18,0c1.6,0,1.964-.36,1.965-1.926q0-9.831,0-19.662c.069-.988.092-1.959-.912-2.566" fill="#fe9e52"/>
    <path id="Trazado_275266" data-name="Trazado 275266" d="M58.018,92.024a2.981,2.981,0,0,0,.714-2.052q-.037-11.3,0-22.605a2.175,2.175,0,0,0-.976-2.121c2.208-.008,4.416-.036,6.624-.017,1.2.01,1.724.542,1.726,1.755.012,7.769,0,15.538.016,23.307a2.832,2.832,0,0,1-.717,1.7l-2.837.079-4.547-.045" fill="#cfd4fb"/>
    <path id="Trazado_275267" data-name="Trazado 275267" d="M62.565,92.068l2.837-.079,6.39.071L71.8,94.4l-9.241,0q0-1.163,0-2.325" fill="#fe9e52"/>
    <path id="Trazado_275268" data-name="Trazado 275268" d="M62.561,94.393l9.239,0,.006,2.133h0l-9.247-.009h0q0-1.063,0-2.127" fill="#fdb05f"/>
    <path id="Trazado_275269" data-name="Trazado 275269" d="M74.866,16.149a1.718,1.718,0,0,1-1.144.168q-15.558.008-31.117,0a1.691,1.691,0,0,1-1.143-.172c-1.336-.822-.944-2.14-.959-3.341a3.294,3.294,0,0,0,2.748.968q14.9-.049,29.789,0a3.528,3.528,0,0,0,2.781-.971c0,1.207.362,2.516-.955,3.347" fill="#7984a9"/>
    <path id="Trazado_275270" data-name="Trazado 275270" d="M8.727,96.523c0,1.817.031,3.634-.006,5.45-.014.721.228.967.953.958q3.791-.051,7.582,0c.724.009.968-.235.953-.956-.036-1.816-.007-3.634,0-5.451.986,0,1.973.018,2.96,0,.879-.018,1.316.357,1.315,1.263q-.013,7.757,0,15.513c0,.908-.443,1.261-1.32,1.259q-7.7-.018-15.392,0c-.97,0-1.326-.449-1.323-1.381q.025-7.637,0-15.275c0-1.028.452-1.421,1.441-1.383.946.036,1.894.006,2.842.005m4.73,15.7c1.144,0,2.287,0,3.431,0a1.227,1.227,0,1,0,.033-2.451c-2.288,0-4.575,0-6.862,0a1.14,1.14,0,0,0-1.3,1.212,1.128,1.128,0,0,0,1.262,1.24c1.144,0,2.287,0,3.431,0" fill="#fdb05f"/>
    <path id="Trazado_275271" data-name="Trazado 275271" d="M26.753,94.416a.741.741,0,0,1,.235-.014l-.009,17.783c-.357-.31-.23-.731-.23-1.109q-.006-8.329,0-16.66" fill="#fdb05f"/>
    <path id="Trazado_275272" data-name="Trazado 275272" d="M45,96.525c1.026,0,2.055.044,3.079-.012A1.176,1.176,0,0,1,49.5,97.832q.027,7.7,0,15.4c0,.874-.414,1.342-1.4,1.336q-7.7-.048-15.4,0c-1.077.006-1.467-.436-1.461-1.491q.041-7.521,0-15.043c-.007-1.138.449-1.574,1.556-1.516.985.052,1.974.014,2.961.016,0,1.771.031,3.542-.013,5.311-.02.788.177,1.125,1.044,1.106q3.6-.076,7.2,0c.874.02,1.056-.333,1.037-1.111C44.976,100.066,45.005,98.295,45,96.525Zm-4.667,15.7c1.106,0,2.212,0,3.318,0,.845,0,1.371-.355,1.363-1.256-.008-.834-.5-1.2-1.293-1.205-2.251,0-4.5,0-6.753,0a1.16,1.16,0,0,0-1.323,1.2c-.015.843.5,1.277,1.37,1.269,1.106-.012,2.212,0,3.318,0" fill="#fdd369"/>
    <path id="Trazado_275273" data-name="Trazado 275273" d="M35.752,96.53q-.016-1.053-.032-2.106l.037-.034,9.243,0,.031.029q-.013,1.055-.028,2.109h0Z" fill="#fe9e52"/>
    <path id="Trazado_275274" data-name="Trazado 275274" d="M7.086,67.8l6.626.034.039.01c-.016,2.4-.015,4.8-.058,7.2-.013.694.282.87.918.864,2.482-.023,4.964-.032,7.445,0,.765.011.921-.321.911-.994-.036-2.363-.031-4.726-.042-7.09l.047-.008,6.382.006q0,9.72,0,19.44c0,1.768-.382,2.144-2.144,2.145q-9.009,0-18.016,0c-1.426,0-2.122-.647-2.123-2.058q-.009-9.779.016-19.558M18.375,85.5v.015c1.062,0,2.125.009,3.187,0,.851-.009,1.513-.345,1.5-1.283-.009-.921-.62-1.265-1.507-1.257-2.125.018-4.25.012-6.375,0-.8,0-1.422.221-1.491,1.131-.072.963.516,1.358,1.376,1.385,1.1.035,2.2.009,3.305.009m-.068-5.1v-.009c.63,0,1.262.029,1.89-.009a.853.853,0,0,0,.877-.8c.059-.523-.08-1.011-.632-1.116a10.3,10.3,0,0,0-4.095.016.89.89,0,0,0-.691,1.088.932.932,0,0,0,1,.825c.552.008,1.1,0,1.655,0" fill="#fdd369"/>
    <path id="Trazado_275275" data-name="Trazado 275275" d="M17.96,92.066c.027,2.32.027,2.32-2.256,2.32-1.807,0-3.619-.075-5.42.027-1.144.064-1.471-.369-1.33-1.4a7.58,7.58,0,0,0,.014-.942H17.96" fill="#c27f50"/>
    <path id="Trazado_275276" data-name="Trazado 275276" d="M29.354,67.829l-6.382-.006c-.006-.86-.01-1.72-.017-2.58l2.837-.047,2.663.065c.989.614,1,1.573.9,2.568" fill="#fde6a9"/>
    <path id="Trazado_275277" data-name="Trazado 275277" d="M31.956,66.158q0,11.9,0,23.809c0,.379.131.8-.23,1.112q0-12.447-.01-24.893l.237-.028" fill="#fdb05f"/>
    <path id="Trazado_275278" data-name="Trazado 275278" d="M27.794,92.081a2.533,2.533,0,0,0-.819.937l-.921-.96,1.74.023" fill="#cfd4fb"/>
    <path id="Trazado_275279" data-name="Trazado 275279" d="M22.924,67.831c.011,2.363.006,4.727.042,7.089.011.673-.145,1.006-.911.994-2.481-.037-4.963-.027-7.445,0-.636.006-.93-.171-.918-.864.043-2.4.042-4.8.058-7.206l9.174-.009" fill="#fe9e52"/>
    <path id="Trazado_275280" data-name="Trazado 275280" d="M56.627,42.674q0-4.51,0-9.021,7.821-.034,15.642-.072a6.051,6.051,0,0,0,1.293-.092,1.1,1.1,0,0,0,.87-1.238,1.112,1.112,0,0,0-.97-1.164,6.836,6.836,0,0,0-1.182-.04Q64.453,31.022,56.63,31a3.831,3.831,0,0,1,.946-3.01q10.2-.15,20.392,0a3.591,3.591,0,0,1,.972,2.777c-.056,3.97-.023,7.941-.023,11.912l-22.29,0" fill="#fefefe"/>
    <path id="Trazado_275281" data-name="Trazado 275281" d="M78.915,45.333q0,5.216,0,10.43c0,1.791-.8,2.578-2.612,2.579q-8.474.006-16.947,0a2.526,2.526,0,0,1-2.724-2.7c-.033-1.54-.006-3.081,0-4.622Q61.666,51,66.7,50.977c2.095-.006,4.189,0,6.284,0,.818,0,1.4-.328,1.434-1.217.035-.958-.57-1.315-1.435-1.348-.356-.014-.712,0-1.067,0l-15.29-.048q0-1.512,0-3.023l22.286,0" fill="#fefefe"/>
    <path id="Trazado_275282" data-name="Trazado 275282" d="M40.221,35.567c-.986,0-1.973.025-2.958-.006a3.029,3.029,0,0,1-3.13-3.035q-.092-3.075,0-6.153a2.915,2.915,0,0,1,2.933-2.957c2.088-.07,4.182-.067,6.27,0a2.8,2.8,0,0,1,2.907,2.82c.093,2.164.094,4.339,0,6.5A2.905,2.905,0,0,1,43.3,35.554c-1.024.047-2.051.009-3.077.009v0M43.782,29.7c0-1.1-.008-2.007,0-2.914.007-.575-.221-.888-.831-.886q-2.719.01-5.439,0c-.6,0-.843.263-.837.861.017,1.774.03,3.548-.007,5.322-.016.75.313.959.995.932.866-.034,1.737.033,2.6-.019,1.12-.067,2.526.5,3.283-.285.708-.737.116-2.115.232-3.01" fill="#404256"/>
    <path id="Trazado_275283" data-name="Trazado 275283" d="M40.216,52.926c-1.026,0-2.053.031-3.077-.007a2.942,2.942,0,0,1-3-2.893c-.076-2.127-.081-4.262.006-6.389a2.935,2.935,0,0,1,3.043-2.847q3.016-.05,6.035,0a2.864,2.864,0,0,1,3.021,2.843c.1,2.164.1,4.339,0,6.5a2.848,2.848,0,0,1-2.952,2.783c-1.024.038-2.051.007-3.076.007m.236-9.593c-1.1,0-2.005.013-2.911-.005-.575-.011-.872.183-.865.815q.033,2.716,0,5.435c-.007.615.272.854.846.854,1.772,0,3.545-.009,5.317.007.717.006.976-.331.952-1.02-.03-.865.028-1.734-.016-2.6-.055-1.09.479-2.459-.227-3.2-.765-.8-2.173-.127-3.1-.286" fill="#404256"/>
    <path id="Trazado_275284" data-name="Trazado 275284" d="M77.968,27.989q-10.2-.138-20.392,0-1.715-.03-3.43-.059c-.856-.014-1.516-.333-1.522-1.275s.6-1.289,1.49-1.288q13.211.007,26.42,0c.823,0,1.412.31,1.456,1.192.048.95-.555,1.33-1.421,1.365s-1.734.042-2.6.061" fill="#404256"/>
    <path id="Trazado_275285" data-name="Trazado 275285" d="M78.915,45.333l-22.286,0c-.859-.014-1.719-.035-2.579-.04-.826,0-1.391-.371-1.424-1.219-.037-.923.561-1.316,1.424-1.345s1.718-.039,2.577-.057l22.29,0c.588.019,1.177.017,1.763.061.816.061,1.349.468,1.313,1.34a1.2,1.2,0,0,1-1.313,1.211c-.588.023-1.177.03-1.765.044" fill="#404256"/>
    <path id="Trazado_275286" data-name="Trazado 275286" d="M56.63,31q7.823.023,15.646.046a6.737,6.737,0,0,1,1.182.041,1.11,1.11,0,0,1,.97,1.163,1.1,1.1,0,0,1-.87,1.238,6.051,6.051,0,0,1-1.293.092q-7.821.042-15.642.072c-.858-.023-1.717-.041-2.575-.068s-1.462-.409-1.424-1.338c.034-.856.6-1.2,1.428-1.2.859,0,1.719-.027,2.578-.043" fill="#404256"/>
    <path id="Trazado_275287" data-name="Trazado 275287" d="M56.628,48.357l15.289.049c.356,0,.712-.01,1.067,0,.866.033,1.471.389,1.436,1.347-.032.889-.616,1.217-1.435,1.218-2.094,0-4.189,0-6.283,0q-5.037.015-10.074.043c-.859-.015-1.719-.035-2.579-.044-.823-.007-1.392-.373-1.424-1.221-.035-.92.558-1.318,1.424-1.346s1.719-.035,2.579-.053" fill="#404256"/>
    <path id="Trazado_275288" data-name="Trazado 275288" d="M40.518,65.253h9.449q.02,1.286.04,2.571a1.86,1.86,0,0,1-.224,0H40.7a1.877,1.877,0,0,1-.225,0q.021-1.285.041-2.571" fill="#fe9e52"/>
    <path id="Trazado_275289" data-name="Trazado 275289" d="M50.007,67.824q-.021-1.285-.041-2.571l5.743,0c1,.607.981,1.578.913,2.566H50.007" fill="#fec987"/>
    <path id="Trazado_275290" data-name="Trazado 275290" d="M40.518,65.253q-.021,1.286-.041,2.571l-5.906,0c-.035-.974-.2-2,.908-2.565l5.039-.009" fill="#fec987"/>
    <path id="Trazado_275291" data-name="Trazado 275291" d="M62.56,96.521l9.246.009c0,1.772-.03,3.544.018,5.314.019.791-.184,1.123-1.048,1.1q-3.6-.078-7.2,0c-.877.019-1.054-.338-1.036-1.114.045-1.77.019-3.542.022-5.314" fill="#fec987"/>
    <path id="Trazado_275292" data-name="Trazado 275292" d="M67.152,112.227H63.835c-.792,0-1.293-.348-1.313-1.184-.021-.9.485-1.281,1.337-1.281,2.212,0,4.423,0,6.635,0,.847,0,1.379.353,1.372,1.248s-.555,1.234-1.4,1.225c-1.105-.012-2.211,0-3.317,0" fill="#4d5571"/>
    <path id="Trazado_275293" data-name="Trazado 275293" d="M34.571,67.827l5.906,0a2.111,2.111,0,0,0,.225,0c.007,2.327.039,4.655.005,6.981-.012.787.178,1.128,1.045,1.109q3.489-.078,6.98,0c.868.019,1.057-.322,1.046-1.109-.034-2.326,0-4.654.005-6.981a2.092,2.092,0,0,0,.224,0h6.615q0,9.831,0,19.662c0,1.566-.368,1.926-1.964,1.926q-9,0-18,0c-1.767,0-2.087-.313-2.087-2.042q0-9.771,0-19.543M45.324,82.986H41.9a1.186,1.186,0,0,0-1.36,1.164,1.145,1.145,0,0,0,1.2,1.322q3.484.063,6.97.011A1.162,1.162,0,0,0,49.948,84.2c-.031-.866-.6-1.22-1.432-1.213-1.064.008-2.128,0-3.192,0M45.2,80.407c.589,0,1.178,0,1.767,0a.9.9,0,0,0,.983-.821.914.914,0,0,0-.761-1.142,13.377,13.377,0,0,0-3.864-.011.9.9,0,0,0-.831,1.089.955.955,0,0,0,1.057.889c.55-.013,1.1,0,1.649-.005" fill="#fdb05f"/>
    <path id="Trazado_275294" data-name="Trazado 275294" d="M45,94.387l-9.243,0c-.042-2.366-.042-2.366,2.321-2.366,1.844,0,3.692.07,5.532-.025,1.154-.06,1.574.329,1.4,1.447a6.413,6.413,0,0,0-.013.941" fill="#c27f50"/>
    <path id="Trazado_275295" data-name="Trazado 275295" d="M13.457,112.22H10.026a1.227,1.227,0,1,1,.033-2.452c2.287,0,4.574,0,6.862,0a1.227,1.227,0,1,1-.033,2.451c-1.144,0-2.287,0-3.431,0" fill="#4d5571"/>
    <path id="Trazado_275296" data-name="Trazado 275296" d="M35.752,96.53l9.252,0c0,1.77-.029,3.541.014,5.311.019.777-.163,1.13-1.036,1.111q-3.6-.078-7.2,0c-.866.019-1.064-.318-1.044-1.106.045-1.769.013-3.541.013-5.311" fill="#febf50"/>
    <path id="Trazado_275297" data-name="Trazado 275297" d="M40.337,112.226c-1.106,0-2.212-.008-3.318,0-.868.008-1.385-.425-1.37-1.269a1.16,1.16,0,0,1,1.323-1.2c2.251,0,4.5,0,6.753,0,.8,0,1.285.371,1.293,1.205.008.9-.518,1.259-1.363,1.256-1.106,0-2.212,0-3.318,0" fill="#4d5571"/>
    <path id="Trazado_275298" data-name="Trazado 275298" d="M18.374,85.5c-1.1,0-2.2.026-3.3-.008-.861-.028-1.449-.422-1.376-1.386.068-.91.69-1.134,1.49-1.131,2.125.01,4.25.016,6.375,0,.887-.008,1.5.336,1.507,1.257.009.938-.654,1.274-1.5,1.283-1.062.011-2.125,0-3.187,0V85.5" fill="#4d5571"/>
    <path id="Trazado_275299" data-name="Trazado 275299" d="M18.307,80.4c-.552,0-1.1.006-1.655,0a.932.932,0,0,1-1-.825.89.89,0,0,1,.691-1.088,10.3,10.3,0,0,1,4.095-.016c.552.105.691.593.632,1.116a.853.853,0,0,1-.877.8c-.628.038-1.26.009-1.89.009V80.4" fill="#fefefe"/>
    <path id="Trazado_275300" data-name="Trazado 275300" d="M43.782,29.7c-.116.9.476,2.273-.232,3.01-.757.79-2.163.218-3.283.285-.864.052-1.735-.015-2.6.019-.682.027-1.011-.182-.995-.932.037-1.774.024-3.548.007-5.322-.006-.6.239-.864.837-.861q2.719.013,5.439,0c.61,0,.838.311.831.886-.011.907,0,1.814,0,2.914" fill="#e7eefe"/>
    <path id="Trazado_275301" data-name="Trazado 275301" d="M40.452,43.333c.922.159,2.33-.518,3.1.286.706.742.172,2.111.227,3.2.044.865-.014,1.734.016,2.6.024.689-.235,1.026-.952,1.02-1.772-.016-3.545-.008-5.317-.007-.574,0-.853-.239-.846-.854q.035-2.718,0-5.435c-.007-.632.29-.826.865-.815.906.018,1.812.005,2.911.005" fill="#e7eefe"/>
    <path id="Trazado_275302" data-name="Trazado 275302" d="M49.783,67.828c-.007,2.327-.039,4.654-.005,6.981.011.786-.178,1.128-1.045,1.108q-3.489-.078-6.98,0c-.868.02-1.057-.322-1.046-1.108.034-2.327,0-4.654-.005-6.981h9.081" fill="#fe703c"/>
    <path id="Trazado_275303" data-name="Trazado 275303" d="M45.324,82.985c1.064,0,2.128.006,3.192,0,.834-.006,1.4.348,1.432,1.214A1.162,1.162,0,0,1,48.7,85.482q-3.484.049-6.97-.01a1.145,1.145,0,0,1-1.2-1.322,1.186,1.186,0,0,1,1.36-1.164h3.428" fill="#4d5571"/>
    <path id="Trazado_275304" data-name="Trazado 275304" d="M45.2,80.408c-.55,0-1.1-.009-1.649,0a.955.955,0,0,1-1.057-.888.9.9,0,0,1,.831-1.09,13.377,13.377,0,0,1,3.864.011.914.914,0,0,1,.761,1.142.9.9,0,0,1-.983.821c-.589,0-1.178,0-1.767,0" fill="#fefefe"/>
  </g>
</svg>
