<svg xmlns="http://www.w3.org/2000/svg" width="169.179" height="169.178" viewBox="0 0 169.179 169.178">
  <g id="Grupo_1070888" data-name="Grupo 1070888" transform="translate(1745 -3687.832)">
    <path id="Trazado_275381" data-name="Trazado 275381" d="M701.085,90.251A84.59,84.59,0,1,1,616.5,5.662a84.589,84.589,0,0,1,84.589,84.589" transform="translate(-2276.906 3682.17)" fill="#fffad0"/>
    <g id="Grupo_257446" data-name="Grupo 257446" transform="translate(-0.057 -1058.1)">
      <path id="Trazado_275404" data-name="Trazado 275404" d="M419.891,50.821l-1.676-.324c.345-1.88.646-3.673,1.006-5.454.5-2.453,1.012-4.9,1.566-7.344.726-3.2,3.053-4.786,6.122-4.94.553-.027,1.111,0,1.768,0,0-2.839,0-5.606,0-8.373,0-1.974.467-2.449,2.408-2.449q44.428,0,88.855,0c1.78,0,2.494.712,2.5,2.484,0,3.337,0,6.675,0,10.1l-1.8.08-1.858-.091V25.622H432.129V70.867a4.13,4.13,0,0,0,.021.9.988.988,0,0,0,.377.618,3.466,3.466,0,0,0,3-.6c1.637-2.062,3.271-4.126,4.875-6.214a2.029,2.029,0,0,0-.693-3.255,6.041,6.041,0,0,0-1.733-.669c-1.812-.356-2.086-.639-2.087-2.482q0-11.1,0-22.2a4.892,4.892,0,0,1,.026-.9,1.664,1.664,0,0,1,1.549-1.49c2.389-.276,3.3-1.094,3.819-3.419.4-1.782.661-2,2.437-2h57.348c1.577,0,3.155-.011,4.732,0a2,2,0,0,1,2.219,2.078,3.653,3.653,0,0,0,4.275,3.316c2.266-.428,2.929.108,2.93,2.371V59.229a6.133,6.133,0,0,1-.014.9,1.867,1.867,0,0,1-2.474,1.7,3.632,3.632,0,0,0-4.7,4.319c.359,2-.188,2.675-2.181,2.675h-46c-.114,1.278-.214,2.4-.316,3.542h59.314V38.129h3.577V73.445c0,1.923-.677,2.591-2.618,2.592l-4.619,0c-.075,0-.149.016-.346.039-.688,2.377-1.4,4.8-2.089,7.225-1.1,3.872-2.171,7.749-3.254,11.624-.574,2.059-1.207,4.1-1.71,6.183a4.245,4.245,0,0,1-5.37,3.145c-6.648-1.912-13.32-3.74-19.978-5.612-3.49-.981-6.972-1.988-10.461-2.971a3.47,3.47,0,0,0-.794-.008c.7,1.42,1.364,2.738,2.011,4.062.663,1.355.377,2.254-.946,2.912a15.328,15.328,0,0,1-7.91,1.809c-.66-.043-1.325-.006-2.05-.006.459,1,.926,1.91,1.3,2.856a1.678,1.678,0,0,1-.972,2.508,15.047,15.047,0,0,1-14.6.052c-.411-.217-.828-.421-1.311-.666v17.326h-3.587q-.01-16.168,0-32.336a3.163,3.163,0,0,1,.483-1.549q4.932-8.067,9.924-16.1a14.749,14.749,0,0,0,2.681-8.319c-.075-3.388-2.375-7.9-5.727-9.443-.177.2-.383.421-.569.655q-2.547,3.21-5.089,6.426-3.371,4.254-6.748,8.5c-.833,1.043-1.732,1.934-3.276,1.7a11.227,11.227,0,0,0-2.362-.018,4.067,4.067,0,0,1-3.921-3.907c.032-11.492.01-22.985.007-34.478,0-.4,0-.8,0-1.189-2.669-.378-3.9.126-4.53,2.966-.766,3.439-1.4,6.907-2.074,10.368-.261,1.348-.536,1.509-2.032,1.021m24.181,10.262c1.4-1.772,2.966-3.774,4.545-5.771.763-.964,1.537-1.209,2.52-.619a17.2,17.2,0,0,1,5.663,4.928,60.116,60.116,0,0,1,2.974,5.538h44.605a7.313,7.313,0,0,1,2.145-5.115,7.782,7.782,0,0,1,5.02-2.1V38.221c-3.652-.223-5.873-2.182-7.039-5.467H445.647c-.112,0-.252-.043-.333.008-.3.188-.714.346-.839.626a8.159,8.159,0,0,1-4.388,4.348,1.055,1.055,0,0,0-.566.749q-.048,9.577-.011,19.155a1.026,1.026,0,0,0,.319.76c1.369.906,2.77,1.761,4.243,2.683m59.366,14.955H469.274c-3.453,0-6.9-.011-10.358.014a1.522,1.522,0,0,0-1.089.344,28.878,28.878,0,0,0-1.514,2.591,6.6,6.6,0,0,0,.882.421q9.928,3.047,19.862,6.075,8.344,2.542,16.7,5.046a1,1,0,0,0,.9-.248c1.187-2.027,3.089-2.9,5.246-3.428a1.192,1.192,0,0,0,.758-.666c.943-3.332,1.837-6.677,2.779-10.149M451.854,86.182a10.025,10.025,0,0,0,1.041.438c3.79,1.067,7.585,2.116,11.376,3.182q10.789,3.033,21.575,6.077c5.669,1.591,11.351,3.133,17,4.787,1,.292,1.316.065,1.566-.828,1.56-5.572,3.155-11.134,4.723-16.7.657-2.335,1.275-4.681,1.932-7.1-.977,0-1.88.061-2.772-.017s-1.226.27-1.439,1.1c-1,3.928-2.076,7.837-3.11,11.758-.312,1.183-1.229,2-2.194,1.742a3.6,3.6,0,0,0-4.333,2.55c-.487,1.379-1.119,1.8-2.488,1.389q-10.424-3.125-20.835-6.29c-6.346-1.923-12.687-3.862-19.04-5.759a1.069,1.069,0,0,0-.934.335c-.714,1.041-1.341,2.14-2.069,3.334m7.753,21.061c-.727-1.481-1.4-2.9-2.124-4.3a2.322,2.322,0,0,0-.757-.917,14.908,14.908,0,0,1-5.736-6.694c-.658-1.411-1.386-2.79-2.148-4.314a12.884,12.884,0,0,1-1.157,1.919,4.568,4.568,0,0,0-1,3.4c.066,2.29.068,4.584-.006,6.873a2.184,2.184,0,0,0,.919,2.006c.5.371.994.755,1.522,1.082a11.468,11.468,0,0,0,10.483.94m9.706-7.225c-.9-1.863-1.748-3.655-2.64-5.423a1.232,1.232,0,0,0-.709-.514q-4.911-1.438-9.836-2.83c-1.136-.321-2.288-.588-3.544-.908,3.832,9.915,10.14,11.921,16.729,9.675" transform="translate(-2128.213 4757)"/>
      <path id="Trazado_275405" data-name="Trazado 275405" d="M419.892,50.821c1.495.488,1.771.327,2.031-1.021.669-3.461,1.309-6.929,2.074-10.368.633-2.84,1.861-3.345,4.53-2.966,0,.386,0,.787,0,1.189,0,11.493.025,22.986-.006,34.478a4.068,4.068,0,0,0,3.92,3.907,11.227,11.227,0,0,1,2.362.018c1.545.238,2.443-.653,3.276-1.7q3.387-4.244,6.748-8.506,2.547-3.212,5.09-6.426c.186-.234.392-.451.569-.654,3.351,1.546,5.651,6.055,5.726,9.442a14.75,14.75,0,0,1-2.681,8.32q-5.01,8.018-9.924,16.1a3.163,3.163,0,0,0-.483,1.548q-.03,16.168,0,32.337h-19.88q.014-15.094.022-30.19a2.574,2.574,0,0,0-.052-.554c-.427-1.961-.875-3.918-1.293-5.881q-1.752-8.254-3.478-16.515a10.419,10.419,0,0,1-.479-3.336c.345-2.589.957-5.143,1.475-7.708.5-2.453,1.011-4.9,1.531-7.422l-1.547-.509q.232-1.792.468-3.583" transform="translate(-2128.213 4757)" fill="#ffd4cf"/>
      <path id="Trazado_275406" data-name="Trazado 275406" d="M520.642,38.128h-1.781V72.365H459.548c.1-1.139.2-2.264.315-3.542h46c1.992,0,2.539-.676,2.181-2.676a3.632,3.632,0,0,1,4.694-4.319,1.866,1.866,0,0,0,2.474-1.7,6.133,6.133,0,0,0,.014-.9q0-11.157,0-22.314c0-2.263-.664-2.8-2.929-2.371a3.652,3.652,0,0,1-4.276-3.315,2,2,0,0,0-2.219-2.079c-1.577-.015-3.154,0-4.732,0H443.721c-1.776,0-2.041.222-2.436,2-.517,2.325-1.431,3.142-3.82,3.418a1.664,1.664,0,0,0-1.549,1.49,5,5,0,0,0-.025.9q0,11.1,0,22.2c0,1.843.275,2.125,2.087,2.482a6.012,6.012,0,0,1,1.733.669,2.027,2.027,0,0,1,.693,3.254c-1.6,2.088-3.238,4.152-4.875,6.214a3.462,3.462,0,0,1-3,.6.984.984,0,0,1-.376-.618,4.065,4.065,0,0,1-.022-.9V25.621h86.655V34.5l1.858.091v3.536" transform="translate(-2128.213 4757)" fill="#9fdc6e"/>
      <path id="Trazado_275407" data-name="Trazado 275407" d="M419.424,54.4l1.547.509c-.52,2.519-1.035,4.969-1.531,7.423-.519,2.565-1.13,5.119-1.476,7.707a10.469,10.469,0,0,0,.48,3.336q1.716,8.262,3.479,16.515c.416,1.964.865,3.921,1.293,5.882a2.633,2.633,0,0,1,.051.554q-.009,15.094-.022,30.189h-3.583v-1.244c0-8.408-.082-16.818.043-25.224a41.816,41.816,0,0,0-1.227-9.266q-1.408-6.717-2.859-13.426c-.344-1.6-.647-3.212-1.108-4.777-.538-1.827-.054-3.556.288-5.3.626-3.208,1.3-6.407,1.95-9.61q.355-1.748.708-3.5l1.967.235" transform="translate(-2128.213 4757)" fill="#010101"/>
      <path id="Trazado_275408" data-name="Trazado 275408" d="M444.072,61.083c-1.472-.922-2.874-1.777-4.242-2.683a1.031,1.031,0,0,1-.32-.76q-.025-9.577.011-19.155a1.063,1.063,0,0,1,.567-.75,8.155,8.155,0,0,0,4.387-4.347c.126-.28.542-.438.84-.627.08-.051.22-.007.333-.007h58.857c1.165,3.285,3.387,5.244,7.04,5.467V57.947a7.785,7.785,0,0,0-5.021,2.1,7.312,7.312,0,0,0-2.144,5.115H459.774a59.874,59.874,0,0,0-2.974-5.538,17.208,17.208,0,0,0-5.662-4.928c-.983-.59-1.758-.345-2.52.619-1.579,2-3.15,4-4.546,5.771m18.865-12.158a12.615,12.615,0,0,0,12.74,12.695c6.84-.248,12.547-5.439,12.435-12.812-.107-7.061-5.288-12.258-12.657-12.408a12.388,12.388,0,0,0-12.518,12.525m34.293-5.417h10.712V40.035H497.23Z" transform="translate(-2128.213 4757)" fill="#9fdc6e"/>
      <path id="Trazado_275409" data-name="Trazado 275409" d="M503.438,76.037c-.942,3.473-1.835,6.818-2.778,10.149a1.2,1.2,0,0,1-.759.667c-2.157.53-4.058,1.4-5.245,3.428a1,1,0,0,1-.9.248q-8.359-2.492-16.7-5.047-9.933-3.027-19.861-6.075a6.785,6.785,0,0,1-.883-.42,28.9,28.9,0,0,1,1.514-2.592,1.526,1.526,0,0,1,1.09-.343c3.452-.025,6.9-.015,10.357-.015h34.164Z" transform="translate(-2128.213 4757)" fill="#63c521"/>
      <path id="Trazado_275410" data-name="Trazado 275410" d="M451.854,86.182c.729-1.194,1.356-2.293,2.069-3.334a1.073,1.073,0,0,1,.934-.335c6.354,1.9,12.7,3.836,19.04,5.759q10.414,3.154,20.836,6.29c1.368.41,2-.01,2.488-1.389a3.6,3.6,0,0,1,4.332-2.55c.965.261,1.883-.558,2.195-1.742,1.033-3.92,2.107-7.83,3.11-11.758.212-.833.559-1.179,1.438-1.1s1.8.017,2.773.017c-.657,2.417-1.276,4.763-1.933,7.1-1.567,5.57-3.163,11.131-4.722,16.7-.25.893-.57,1.12-1.566.829-5.65-1.655-11.333-3.2-17-4.788q-10.791-3.03-21.575-6.077c-3.791-1.065-7.586-2.115-11.377-3.182a10.118,10.118,0,0,1-1.041-.438" transform="translate(-2128.213 4757)" fill="#63c421"/>
      <path id="Trazado_275411" data-name="Trazado 275411" d="M459.608,107.243a11.471,11.471,0,0,1-10.483-.94c-.529-.327-1.022-.712-1.522-1.083a2.182,2.182,0,0,1-.919-2.005c.074-2.289.072-4.583.006-6.873a4.568,4.568,0,0,1,1-3.4,12.881,12.881,0,0,0,1.157-1.919c.762,1.524,1.49,2.9,2.148,4.314a14.894,14.894,0,0,0,5.736,6.693,2.34,2.34,0,0,1,.757.918c.719,1.4,1.4,2.815,2.124,4.3" transform="translate(-2128.213 4757)" fill="#fab8b0"/>
      <path id="Trazado_275412" data-name="Trazado 275412" d="M469.313,100.018c-6.589,2.246-12.9.24-16.729-9.675,1.256.32,2.408.587,3.544.908q4.925,1.392,9.836,2.83a1.232,1.232,0,0,1,.709.514c.892,1.768,1.74,3.56,2.64,5.423" transform="translate(-2128.213 4757)" fill="#fab7af"/>
      <path id="Trazado_275413" data-name="Trazado 275413" d="M462.937,48.924A12.388,12.388,0,0,1,475.454,36.4c7.37.151,12.551,5.347,12.658,12.409.112,7.373-5.6,12.564-12.435,12.812a12.615,12.615,0,0,1-12.74-12.7m3.606.01c-.385,4.581,4.245,9.478,9.33,9.091a9.033,9.033,0,0,0,8.635-8.962c-.067-5.361-3.749-8.981-9.293-9.057a8.8,8.8,0,0,0-8.672,8.928" transform="translate(-2128.213 4757)" fill="#010101"/>
      <rect id="Rectángulo_323550" data-name="Rectángulo 323550" width="10.712" height="3.473" transform="translate(-1630.983 4797.034)"/>
      <path id="Trazado_275414" data-name="Trazado 275414" d="M466.543,48.934a8.8,8.8,0,0,1,8.672-8.928c5.544.076,9.226,3.7,9.293,9.057a9.033,9.033,0,0,1-8.635,8.962c-5.085.387-9.715-4.51-9.33-9.091" transform="translate(-2128.213 4757)" fill="#fafdf8"/>
    </g>
  </g>
</svg>
