<svg xmlns="http://www.w3.org/2000/svg" xmlns:xlink="http://www.w3.org/1999/xlink" width="142.781" height="67.93" viewBox="0 0 142.781 67.93">
  <defs>
    <clipPath id="clip-path">
      <rect id="Rectángulo_323561" data-name="Rectángulo 323561" width="142.781" height="67.929" transform="translate(0 0)" fill="none"/>
    </clipPath>
  </defs>
  <g id="Grupo_1070891" data-name="Grupo 1070891" transform="translate(-542.219 -17199.379)">
    <g id="Grupo_257455" data-name="Grupo 257455" transform="translate(542.219 17199.379)">
      <g id="Grupo_257454" data-name="Grupo 257454" clip-path="url(#clip-path)">
        <path id="Trazado_275469" data-name="Trazado 275469" d="M18.442,43.088c.01-1.005.064-2.013,0-3.014a1.646,1.646,0,0,0-.527-.947,12.882,12.882,0,0,1-3.652-5.7c-.284-1.005-.957-1.1-1.72-1.23a5.3,5.3,0,0,1-4.6-5.048,4.6,4.6,0,0,1,1.008-3.273c.3-.378.355-.572.011-.966a3.916,3.916,0,0,1,1.169-6.137,1.35,1.35,0,0,0,.6-.935A14.115,14.115,0,0,1,14.342,7.9a12.848,12.848,0,0,1,5.707-3.858,2.64,2.64,0,0,0,1.661-1.7A3.8,3.8,0,0,1,25.279,0c1.565.006,3.13,0,4.7,0a4.257,4.257,0,0,1,4.277,3.254.906.906,0,0,0,.527.533,13.682,13.682,0,0,1,6.4,4.078,13.488,13.488,0,0,1,3.625,7.856,1.2,1.2,0,0,0,.676,1.067,3.91,3.91,0,0,1,.93,6.385c.372.95.783,1.826,1.06,2.743a5.04,5.04,0,0,1-2.615,5.613,11.662,11.662,0,0,1-2.4.643c-.461.083-.7.194-.862.69a14,14,0,0,1-2.877,5.155c-.418.467-.9.878-1.311,1.35a1.222,1.222,0,0,0-.307.705c-.025,1,0,2.01.014,3.015l.141.134,4.186.053.512.123a13.436,13.436,0,0,1,8.237,3.3,15.635,15.635,0,0,1,5.325,9.724,13.325,13.325,0,0,1,.146,2.235c.017,2.486,0,4.973.011,7.459a1.71,1.71,0,0,1-1.757,1.814Q27.8,67.878,1.691,67.9C.44,67.9.063,67.532.058,66.3c-.014-3.016-.12-6.036-.006-9.048a14.558,14.558,0,0,1,2.8-7.847,14.372,14.372,0,0,1,5.756-4.853,14.8,14.8,0,0,1,4.379-1.093c1.754-.221,3.542-.172,5.316-.24l.141-.134M52.847,65.21c.047-.053.093-.106.14-.158q-.069-3.758-.137-7.513a10.461,10.461,0,0,0-1.976-6.073,30.435,30.435,0,0,0-2.879-3.031.443.443,0,0,0-.031-.134l-.194-.169c-.02.062-.04.124-.059.186l0,16.719c.038.058.077.116.116.174l.163,0,4.7,0,.164,0m-49.97,0,.163,0h4.7l.163,0,.116-.174,0-16.72-.051-.188-.239.139.014.019A26.266,26.266,0,0,0,5.276,50.7a11.178,11.178,0,0,0-2.535,6.388c-.136,2.647-.014,5.306,0,7.96l.14.157M21.163,12.6l.1-.185c-.025-.06-.049-.121-.073-.182.018-1.8.04-3.6.042-5.406,0-.094-.163-.189-.25-.283-3.979,1.138-7.256,5.667-7.566,9.542a.378.378,0,0,0-.066.052c-.011.012-.01.036-.014.054a5.377,5.377,0,0,0,.72.094q13.742.008,27.482,0a2.9,2.9,0,0,0,.713-.187c-.046-.21-.1-.417-.135-.629a11.3,11.3,0,0,0-2.946-5.916,12.01,12.01,0,0,0-4.436-3.006c-.087.094-.251.189-.25.283,0,1.8.024,3.6.042,5.406l-.072.181c-.009.051-.019.1-.028.154a1.571,1.571,0,0,1-1.539,1.15c-.646-.029-1.027-.726-1.041-1.658,0-.223,0-.446,0-.67,0-2.176.01-4.353,0-6.53-.009-1.55-.678-2.2-2.221-2.2-1.312,0-2.63.076-3.934-.024a1.707,1.707,0,0,0-1.818,1.844c.019,2.428.02,4.856-.011,7.284a2.612,2.612,0,0,1-.322,1.318c-.668,1.048-1.6.839-2.376-.484m-5.18,11.875a35.364,35.364,0,0,0,.027,5.516A12.429,12.429,0,0,0,21,38.325a10.59,10.59,0,0,0,8.551,2.092c4.891-.916,7.979-3.882,9.549-8.492a21.135,21.135,0,0,0,.637-7.447,2.339,2.339,0,0,0-.626-.181q-11.251-.015-22.5,0a2.356,2.356,0,0,0-.627.181m23.79,40.727c0-1.045-.01-1.993,0-2.94a1.252,1.252,0,0,1,1.219-1.384,1.271,1.271,0,0,1,1.288,1.385c0,.838-.039,1.679.027,2.511a.836.836,0,0,0,.555.585,19.97,19.97,0,0,0,2.148.028c.025-.394.065-.72.065-1.047q0-8.462-.018-16.923c0-.261-.034-.709-.161-.753-.774-.267-1.58-.442-2.467-.671,0,2.647.005,5.073-.006,7.5a4.282,4.282,0,0,1-.129.974c-.154.64-.894,1.259-1.375,1.183a1.652,1.652,0,0,1-1.15-1.517q0-3.645,0-7.289v-.908c-.989,0-1.858-.055-2.716.024a2.056,2.056,0,0,0-1.208.513q-3.182,3.252-6.273,6.592A1.661,1.661,0,0,0,29.21,54.1c-.026,3.463-.017,6.926-.014,10.389,0,.239.03.479.045.714ZM15.953,45.939c0,2.583,0,5.064-.005,7.546,0,.3-.11.592-.113.889-.008.92-.7,1.164-1.373,1.252-.581.077-1.169-.851-1.17-1.648q0-3.519,0-7.039v-.9c-.694.111-1.262.2-1.828.294-.614.106-.825.443-.823,1.094.023,5.838.007,11.676.006,17.514a3.305,3.305,0,0,0,.065.448c.642,0,1.255-.026,1.864.008.572.031.723-.232.7-.755a12.649,12.649,0,0,1,.028-2.424,1.76,1.76,0,0,1,.793-1.161c.929-.461,1.806.271,1.845,1.465.03.884.006,1.77.006,2.663H26.477a2.081,2.081,0,0,0,.048-.289c0-3.659.012-7.319-.012-10.978a1.408,1.408,0,0,0-.368-.867q-3.168-3.383-6.385-6.719a1.276,1.276,0,0,0-.771-.377c-.972-.044-1.949-.018-3.036-.018M27.779,21.622H41.613c.7,0,1.4.046,2.1-.011a1.258,1.258,0,0,0,1.26-1.163,1.091,1.091,0,0,0-.927-1.331,5.246,5.246,0,0,0-1.052-.152q-15.217-.014-30.435-.006a3.536,3.536,0,0,0-.668.02,1.485,1.485,0,0,0-1.3,1.43,1.463,1.463,0,0,0,1.593,1.213H27.779m6.532,20.04a16,16,0,0,1-6.517,1.616,16.336,16.336,0,0,1-6.643-1.609c0,.756-.018,1.369.01,1.98a.972.972,0,0,0,.214.583c1.958,2.086,3.942,4.146,5.89,6.24.435.468.7.35,1.073-.046,1.532-1.615,3.072-3.222,4.638-4.8,1.029-1.04,1.784-2.155,1.422-3.713-.007-.027-.019-.052-.087-.247M13.257,24.333a2.638,2.638,0,0,0-2.669,2.756,2.477,2.477,0,0,0,2.669,2.371Zm29.124,5.159a2.488,2.488,0,0,0,2.6-2.348,2.561,2.561,0,0,0-2.6-2.757Z" fill="#010101"/>
        <path id="Trazado_275470" data-name="Trazado 275470" d="M41.953,43.4l-.512-.123.512.123" fill="#dcdede"/>
        <path id="Trazado_275471" data-name="Trazado 275471" d="M37.256,43.222l-.141-.133.141.133" fill="#dcdede"/>
        <path id="Trazado_275472" data-name="Trazado 275472" d="M18.443,43.089l-.141.133.141-.133" fill="#dcdede"/>
        <path id="Trazado_275473" data-name="Trazado 275473" d="M39.741,24.479a21.139,21.139,0,0,1-.638,7.447c-1.57,4.609-4.658,7.576-9.548,8.491A10.585,10.585,0,0,1,21,38.325,12.424,12.424,0,0,1,16.011,30a35.366,35.366,0,0,1-.027-5.516H39.741" fill="#fff5cd"/>
        <path id="Trazado_275474" data-name="Trazado 275474" d="M39.773,65.205H29.241c-.015-.235-.045-.474-.045-.714,0-3.463-.012-6.926.014-10.388a1.661,1.661,0,0,1,.363-1.034q3.1-3.333,6.273-6.593a2.06,2.06,0,0,1,1.208-.513c.858-.078,1.727-.024,2.716-.024v.908q0,3.645,0,7.289a1.655,1.655,0,0,0,1.151,1.518c.481.075,1.221-.544,1.375-1.184a4.282,4.282,0,0,0,.129-.974c.011-2.426.006-4.853.006-7.5.887.23,1.693.405,2.467.672.127.044.16.491.161.752q.02,8.462.017,16.924c0,.326-.039.653-.064,1.047a20.232,20.232,0,0,1-2.148-.028.84.84,0,0,1-.555-.585c-.066-.833-.026-1.674-.027-2.512a1.269,1.269,0,0,0-1.288-1.384,1.251,1.251,0,0,0-1.219,1.383c-.013.948,0,1.9,0,2.94m0-6.915a1.228,1.228,0,0,0,1.242,1.243,1.286,1.286,0,0,0,1.276-1.394A1.041,1.041,0,0,0,41.1,57.008c-.943-.005-1.337.375-1.327,1.282" fill="#fd3c65"/>
        <path id="Trazado_275475" data-name="Trazado 275475" d="M15.953,45.94c1.087,0,2.063-.027,3.036.017a1.27,1.27,0,0,1,.77.377q3.216,3.337,6.386,6.719a1.414,1.414,0,0,1,.368.867c.024,3.659.015,7.319.012,10.978a1.966,1.966,0,0,1-.049.289H15.953c0-.893.024-1.779-.006-2.662-.04-1.195-.916-1.927-1.845-1.466a1.76,1.76,0,0,0-.793,1.161,12.66,12.66,0,0,0-.028,2.425c.018.522-.133.785-.7.754-.61-.034-1.222-.008-1.864-.008a3.337,3.337,0,0,1-.066-.447c0-5.839.018-11.677-.005-17.515,0-.651.209-.988.823-1.093.566-.1,1.134-.184,1.828-.295v.9q0,3.521,0,7.04c0,.8.589,1.724,1.17,1.647.672-.088,1.365-.332,1.373-1.251,0-.3.111-.593.113-.89.009-2.482.005-4.963.005-7.545m-.165,12.272c.005-.882-.3-1.193-1.177-1.2a1.247,1.247,0,0,0-1.338,1.225,1.3,1.3,0,0,0,1.307,1.3c.774.011,1.2-.458,1.208-1.321" fill="#fd3c65"/>
        <path id="Trazado_275476" data-name="Trazado 275476" d="M21.194,12.236c.024.061.049.121.073.182l-.1.185c.778,1.323,1.707,1.532,2.376.483a2.61,2.61,0,0,0,.321-1.317c.031-2.428.03-4.856.011-7.284A1.707,1.707,0,0,1,25.69,2.641c1.305.1,2.622.024,3.934.024,1.543,0,2.212.648,2.222,2.2.013,2.177,0,4.353,0,6.53,0,.223,0,.447,0,.67.014.931.395,1.628,1.041,1.658A1.569,1.569,0,0,0,34.43,12.57c.019-.012.055-.026.054-.038a.517.517,0,0,0-.026-.115c.025-.061.049-.121.073-.182a3.142,3.142,0,0,0,.2-.75c.018-1.646.009-3.292.009-4.938a11.978,11.978,0,0,1,4.436,3.006,11.3,11.3,0,0,1,2.946,5.916c.035.211.09.419.135.628L13.42,16.089c.31-3.875,3.588-8.4,7.566-9.542,0,1.646-.008,3.292.01,4.938a3.149,3.149,0,0,0,.2.751" fill="#fdb756"/>
        <path id="Trazado_275477" data-name="Trazado 275477" d="M27.779,21.622H12.184a1.462,1.462,0,0,1-1.593-1.213,1.486,1.486,0,0,1,1.3-1.43,3.536,3.536,0,0,1,.668-.02q15.217,0,30.435.006a5.246,5.246,0,0,1,1.052.152,1.091,1.091,0,0,1,.927,1.332,1.256,1.256,0,0,1-1.26,1.162c-.694.057-1.4.011-2.1.011H27.779" fill="#4dbbeb"/>
        <path id="Trazado_275478" data-name="Trazado 275478" d="M2.737,65.052c-.01-2.654-.131-5.313,0-7.959A11.178,11.178,0,0,1,5.276,50.7a26.391,26.391,0,0,1,2.461-2.417q0,8.462,0,16.921h-4.7l-.164-.152c-.047,0-.093,0-.14,0" fill="#fdb756"/>
        <path id="Trazado_275479" data-name="Trazado 275479" d="M52.683,65.207l-4.7,0q0-8.386.009-16.773a30.425,30.425,0,0,1,2.879,3.03,10.465,10.465,0,0,1,1.976,6.073q.069,3.756.137,7.513c-.046,0-.092,0-.139,0l-.165.152" fill="#feb756"/>
        <path id="Trazado_275480" data-name="Trazado 275480" d="M34.311,41.662c.069.195.081.22.087.247.362,1.558-.393,2.673-1.421,3.713-1.566,1.582-3.107,3.189-4.639,4.8-.376.4-.637.514-1.073.046-1.948-2.094-3.932-4.154-5.89-6.24a.972.972,0,0,1-.214-.583c-.027-.611-.01-1.224-.01-1.98a16.336,16.336,0,0,0,6.643,1.609,15.988,15.988,0,0,0,6.517-1.616" fill="#fef5cd"/>
        <path id="Trazado_275481" data-name="Trazado 275481" d="M13.257,24.333V29.46a2.477,2.477,0,0,1-2.669-2.371,2.637,2.637,0,0,1,2.669-2.756" fill="#fdf5cd"/>
        <path id="Trazado_275482" data-name="Trazado 275482" d="M42.381,29.492V24.387a2.561,2.561,0,0,1,2.6,2.757,2.488,2.488,0,0,1-2.6,2.348" fill="#fdf5cd"/>
        <path id="Trazado_275483" data-name="Trazado 275483" d="M7.738,65.208V48.287l-.015-.019.291.049,0,16.72-.116.174-.163,0" fill="#ffc45c"/>
        <path id="Trazado_275484" data-name="Trazado 275484" d="M47.995,48.436q0,8.386-.008,16.773l-.163,0-.116-.174,0-16.719.253-.018a.421.421,0,0,1,.031.135" fill="#ffc45c"/>
        <path id="Trazado_275485" data-name="Trazado 275485" d="M13.42,16.089l28.835.009a2.892,2.892,0,0,1-.713.187q-13.741.015-27.482,0a5.377,5.377,0,0,1-.72-.094c.005-.018,0-.041.014-.054a.42.42,0,0,1,.066-.052" fill="#ffc75d"/>
        <path id="Trazado_275486" data-name="Trazado 275486" d="M39.741,24.479H15.984a2.349,2.349,0,0,1,.626-.181q11.253-.015,22.505,0a2.349,2.349,0,0,1,.626.181" fill="#ffd"/>
        <path id="Trazado_275487" data-name="Trazado 275487" d="M21.194,12.236a3.149,3.149,0,0,1-.2-.751c-.018-1.646-.009-3.292-.01-4.938.088.094.251.188.251.283,0,1.8-.025,3.6-.043,5.406" fill="#ffc75d"/>
        <path id="Trazado_275488" data-name="Trazado 275488" d="M34.738,6.547c0,1.646.008,3.292-.01,4.938a3.149,3.149,0,0,1-.2.751c-.018-1.8-.04-3.6-.042-5.406,0-.094.163-.189.25-.283" fill="#ffc75d"/>
        <path id="Trazado_275489" data-name="Trazado 275489" d="M8.013,48.317l-.29-.049.239-.139.051.188" fill="#a67738"/>
        <path id="Trazado_275490" data-name="Trazado 275490" d="M47.964,48.3l-.253.018c.02-.063.039-.125.059-.187l.194.169" fill="#a67738"/>
        <path id="Trazado_275491" data-name="Trazado 275491" d="M34.458,12.417a.589.589,0,0,1,.026.116c0,.012-.035.025-.054.038.009-.052.019-.1.028-.154" fill="#ffc75d"/>
        <path id="Trazado_275492" data-name="Trazado 275492" d="M21.163,12.6l.1-.185-.1.185" fill="#ffc75d"/>
        <path id="Trazado_275493" data-name="Trazado 275493" d="M2.737,65.052c.047,0,.093,0,.14,0a1.317,1.317,0,0,0,0,.154l-.141-.157" fill="#e7a64e"/>
        <path id="Trazado_275494" data-name="Trazado 275494" d="M2.878,65.209c0-.051,0-.1,0-.154l.164.151-.162,0" fill="#ffc45c"/>
        <path id="Trazado_275495" data-name="Trazado 275495" d="M7.9,65.211l.116-.174-.116.174" fill="#a67738"/>
        <path id="Trazado_275496" data-name="Trazado 275496" d="M47.708,65.037l.116.174-.116-.174" fill="#a67738"/>
        <path id="Trazado_275497" data-name="Trazado 275497" d="M52.683,65.207l.166-.152c0,.052,0,.1,0,.155l-.164,0" fill="#ffc45c"/>
        <path id="Trazado_275498" data-name="Trazado 275498" d="M52.847,65.21c0-.052,0-.1,0-.155q.069,0,.138,0c-.046.053-.093.1-.14.158" fill="#e7a64e"/>
        <path id="Trazado_275499" data-name="Trazado 275499" d="M39.768,58.29c-.01-.907.384-1.287,1.327-1.282a1.041,1.041,0,0,1,1.191,1.131,1.286,1.286,0,0,1-1.276,1.394,1.228,1.228,0,0,1-1.242-1.243" fill="#010101"/>
        <path id="Trazado_275500" data-name="Trazado 275500" d="M15.788,58.212c-.005.863-.434,1.332-1.208,1.321a1.3,1.3,0,0,1-1.307-1.3,1.247,1.247,0,0,1,1.338-1.225c.878.011,1.182.322,1.177,1.2" fill="#010101"/>
        <path id="Trazado_275501" data-name="Trazado 275501" d="M105.55,43.088c.011-1.005.065-2.013,0-3.014a1.635,1.635,0,0,0-.527-.947,12.882,12.882,0,0,1-3.652-5.7c-.284-1.005-.956-1.1-1.719-1.23a5.3,5.3,0,0,1-4.6-5.048,4.607,4.607,0,0,1,1.009-3.273c.294-.378.354-.572.011-.966a3.915,3.915,0,0,1,1.169-6.137,1.349,1.349,0,0,0,.6-.935,14.123,14.123,0,0,1,3.61-7.937,12.837,12.837,0,0,1,5.707-3.858,2.638,2.638,0,0,0,1.66-1.7A3.8,3.8,0,0,1,112.387,0c1.565.006,3.131,0,4.695,0a4.257,4.257,0,0,1,4.277,3.254.912.912,0,0,0,.527.533,13.682,13.682,0,0,1,6.4,4.078,13.482,13.482,0,0,1,3.625,7.856,1.2,1.2,0,0,0,.676,1.067,3.91,3.91,0,0,1,.93,6.385c.373.95.783,1.826,1.06,2.743a5.04,5.04,0,0,1-2.615,5.613,11.662,11.662,0,0,1-2.4.643c-.461.083-.7.194-.862.69a13.987,13.987,0,0,1-2.877,5.155c-.417.467-.9.878-1.311,1.35a1.235,1.235,0,0,0-.307.705c-.025,1,0,2.01.014,3.015l.141.134,4.186.053.512.123a13.434,13.434,0,0,1,8.237,3.3,15.635,15.635,0,0,1,5.325,9.724,13.431,13.431,0,0,1,.147,2.235c.016,2.486,0,4.973.011,7.459a1.711,1.711,0,0,1-1.758,1.814q-26.11-.05-52.224-.024c-1.25,0-1.627-.372-1.633-1.6-.014-3.016-.119-6.036-.006-9.048a14.567,14.567,0,0,1,2.8-7.847,14.365,14.365,0,0,1,5.756-4.853,14.8,14.8,0,0,1,4.378-1.093c1.754-.221,3.542-.172,5.317-.24l.14-.134m34.4,22.122c.047-.053.093-.106.14-.158q-.069-3.758-.137-7.513a10.461,10.461,0,0,0-1.976-6.073,30.538,30.538,0,0,0-2.878-3.031.477.477,0,0,0-.032-.134l-.194-.169c-.02.062-.039.124-.059.186q0,8.359,0,16.719l.116.174.163,0,4.7,0,.164,0m-49.97,0,.163,0h4.7l.163,0c.04-.058.078-.116.116-.174l0-16.72c-.017-.062-.033-.125-.05-.188l-.24.139.014.019A26.388,26.388,0,0,0,92.384,50.7a11.17,11.17,0,0,0-2.534,6.388c-.136,2.647-.014,5.306,0,7.96.048.052.093.1.14.157M108.271,12.6l.1-.185c-.024-.06-.049-.121-.073-.182.018-1.8.04-3.6.042-5.406,0-.094-.163-.189-.25-.283-3.978,1.138-7.255,5.667-7.566,9.542a.371.371,0,0,0-.065.052c-.012.012-.011.036-.014.054a5.335,5.335,0,0,0,.72.094q13.74.008,27.481,0a2.9,2.9,0,0,0,.713-.187c-.046-.21-.1-.417-.134-.629a11.316,11.316,0,0,0-2.946-5.916,12.022,12.022,0,0,0-4.437-3.006c-.087.094-.251.189-.25.283,0,1.8.024,3.6.042,5.406l-.072.181c-.009.051-.018.1-.028.154A1.569,1.569,0,0,1,120,13.721c-.645-.029-1.027-.726-1.041-1.658,0-.223,0-.446,0-.67,0-2.176.01-4.353,0-6.53-.009-1.55-.678-2.2-2.221-2.2-1.311,0-2.629.076-3.933-.024a1.708,1.708,0,0,0-1.819,1.844c.019,2.428.02,4.856-.011,7.284a2.591,2.591,0,0,1-.322,1.318c-.668,1.048-1.6.839-2.376-.484m-5.18,11.875a35.487,35.487,0,0,0,.027,5.516,12.427,12.427,0,0,0,4.994,8.331,10.587,10.587,0,0,0,8.55,2.092c4.891-.916,7.979-3.882,9.549-8.492a21.112,21.112,0,0,0,.638-7.447,2.356,2.356,0,0,0-.627-.181q-11.251-.015-22.5,0a2.356,2.356,0,0,0-.627.181m23.791,40.727c0-1.045-.011-1.993,0-2.94a1.253,1.253,0,0,1,1.22-1.384,1.271,1.271,0,0,1,1.287,1.385c0,.838-.039,1.679.027,2.511a.838.838,0,0,0,.555.585,19.969,19.969,0,0,0,2.148.028c.025-.394.065-.72.065-1.047q0-8.462-.018-16.923c0-.261-.034-.709-.161-.753-.774-.267-1.58-.442-2.467-.671,0,2.647.006,5.073,0,7.5a4.339,4.339,0,0,1-.13.974c-.154.64-.894,1.259-1.375,1.183a1.651,1.651,0,0,1-1.149-1.517q0-3.645,0-7.289v-.908c-.99,0-1.858-.055-2.717.024a2.059,2.059,0,0,0-1.208.513q-3.182,3.252-6.273,6.592a1.66,1.66,0,0,0-.363,1.034c-.026,3.463-.017,6.926-.014,10.389,0,.239.03.479.045.714Zm-23.82-19.266c0,2.583,0,5.064-.006,7.546,0,.3-.109.592-.113.889-.007.92-.7,1.164-1.373,1.252-.58.077-1.169-.851-1.17-1.648q0-3.519,0-7.039v-.9c-.694.111-1.262.2-1.827.294-.615.106-.826.443-.824,1.094.023,5.838.008,11.676.007,17.514a3.284,3.284,0,0,0,.064.448c.643,0,1.256-.026,1.865.008.572.031.723-.232.7-.755a12.65,12.65,0,0,1,.028-2.424,1.761,1.761,0,0,1,.794-1.161c.928-.461,1.806.271,1.844,1.465.031.884.007,1.77.007,2.663h10.523a2.081,2.081,0,0,0,.048-.289c0-3.659.013-7.319-.012-10.978a1.413,1.413,0,0,0-.367-.867q-3.168-3.383-6.386-6.719a1.275,1.275,0,0,0-.771-.377c-.972-.044-1.949-.018-3.035-.018m11.825-24.317h13.834c.7,0,1.4.046,2.1-.011a1.258,1.258,0,0,0,1.26-1.163,1.091,1.091,0,0,0-.927-1.331,5.236,5.236,0,0,0-1.052-.152q-15.217-.014-30.435-.006a3.539,3.539,0,0,0-.668.02,1.484,1.484,0,0,0-1.294,1.43,1.462,1.462,0,0,0,1.592,1.213h15.6m6.533,20.04a16,16,0,0,1-6.518,1.616,16.34,16.34,0,0,1-6.643-1.609c0,.756-.017,1.369.011,1.98a.971.971,0,0,0,.213.583c1.958,2.086,3.942,4.146,5.89,6.24.436.468.7.35,1.073-.046,1.533-1.615,3.073-3.222,4.638-4.8,1.029-1.04,1.784-2.155,1.423-3.713-.008-.027-.02-.052-.087-.247M100.366,24.333A2.636,2.636,0,0,0,97.7,27.089a2.476,2.476,0,0,0,2.669,2.371Zm29.124,5.159a2.488,2.488,0,0,0,2.6-2.348,2.56,2.56,0,0,0-2.6-2.757Z" fill="#010101"/>
        <path id="Trazado_275502" data-name="Trazado 275502" d="M129.061,43.4l-.512-.123.512.123" fill="#dcdede"/>
        <path id="Trazado_275503" data-name="Trazado 275503" d="M124.364,43.222l-.141-.133.141.133" fill="#dcdede"/>
        <path id="Trazado_275504" data-name="Trazado 275504" d="M105.551,43.089l-.141.133.141-.133" fill="#dcdede"/>
        <path id="Trazado_275505" data-name="Trazado 275505" d="M126.849,24.479a21.139,21.139,0,0,1-.638,7.447c-1.57,4.609-4.658,7.576-9.548,8.491a10.585,10.585,0,0,1-8.551-2.092A12.424,12.424,0,0,1,103.119,30a35.364,35.364,0,0,1-.027-5.516h23.757" fill="#e8d3a5"/>
        <path id="Trazado_275506" data-name="Trazado 275506" d="M126.882,65.205H116.35c-.015-.235-.045-.474-.045-.714,0-3.463-.012-6.926.014-10.388a1.661,1.661,0,0,1,.363-1.034q3.1-3.333,6.273-6.593a2.06,2.06,0,0,1,1.208-.513c.858-.078,1.727-.024,2.716-.024v.908q0,3.645,0,7.289a1.655,1.655,0,0,0,1.151,1.518c.481.075,1.221-.544,1.375-1.184a4.283,4.283,0,0,0,.129-.974c.011-2.426.006-4.853.006-7.5.887.23,1.693.405,2.467.672.127.044.16.491.161.752q.02,8.462.017,16.924c0,.326-.039.653-.064,1.047a20.232,20.232,0,0,1-2.148-.028.84.84,0,0,1-.555-.585c-.066-.833-.026-1.674-.027-2.512a1.269,1.269,0,0,0-1.288-1.384,1.251,1.251,0,0,0-1.219,1.383c-.013.948,0,1.9,0,2.94m-.005-6.915a1.228,1.228,0,0,0,1.242,1.243,1.286,1.286,0,0,0,1.276-1.394,1.041,1.041,0,0,0-1.191-1.131c-.943-.005-1.337.375-1.327,1.282" fill="#29ad2e"/>
        <path id="Trazado_275507" data-name="Trazado 275507" d="M103.062,45.94c1.087,0,2.063-.027,3.036.017a1.27,1.27,0,0,1,.77.377q3.216,3.337,6.386,6.719a1.414,1.414,0,0,1,.368.867c.024,3.659.015,7.319.012,10.978a1.966,1.966,0,0,1-.049.289H103.062c0-.893.024-1.779-.006-2.662-.04-1.195-.916-1.927-1.845-1.466a1.76,1.76,0,0,0-.793,1.161,12.66,12.66,0,0,0-.028,2.425c.018.522-.133.785-.705.754-.61-.034-1.222-.008-1.864-.008a3.337,3.337,0,0,1-.066-.447c0-5.839.018-11.677,0-17.515,0-.651.209-.988.823-1.093.566-.1,1.134-.184,1.828-.295v.9q0,3.521,0,7.04c0,.8.589,1.724,1.17,1.647.672-.088,1.365-.332,1.373-1.251,0-.3.111-.593.113-.89.009-2.482,0-4.963,0-7.545M102.9,58.212c0-.882-.3-1.193-1.177-1.2a1.247,1.247,0,0,0-1.338,1.225,1.3,1.3,0,0,0,1.307,1.3c.774.011,1.2-.458,1.208-1.321" fill="#29ad2e"/>
        <path id="Trazado_275508" data-name="Trazado 275508" d="M108.3,12.236c.024.061.049.121.073.182l-.1.185c.778,1.323,1.707,1.532,2.376.483a2.61,2.61,0,0,0,.321-1.317c.031-2.428.03-4.856.011-7.284A1.707,1.707,0,0,1,112.8,2.641c1.305.1,2.622.024,3.934.024,1.543,0,2.212.648,2.222,2.2.013,2.177,0,4.353,0,6.53,0,.223,0,.447,0,.67.014.931.395,1.628,1.041,1.658a1.569,1.569,0,0,0,1.539-1.151c.019-.012.055-.026.054-.038a.58.58,0,0,0-.026-.115c.025-.061.049-.121.073-.182a3.142,3.142,0,0,0,.2-.75c.018-1.646.009-3.292.009-4.938a11.986,11.986,0,0,1,4.436,3.006,11.3,11.3,0,0,1,2.946,5.916c.035.211.09.419.135.628l-28.835-.008c.31-3.875,3.588-8.4,7.566-9.542,0,1.646-.008,3.292.01,4.938a3.15,3.15,0,0,0,.2.751" fill="#fdb756"/>
        <path id="Trazado_275509" data-name="Trazado 275509" d="M114.887,21.622h-15.6A1.462,1.462,0,0,1,97.7,20.409a1.486,1.486,0,0,1,1.3-1.43,3.536,3.536,0,0,1,.668-.02q15.217,0,30.435.006a5.246,5.246,0,0,1,1.052.152,1.091,1.091,0,0,1,.927,1.332,1.256,1.256,0,0,1-1.26,1.162c-.694.057-1.4.011-2.1.011H114.887" fill="#4dbbeb"/>
        <path id="Trazado_275510" data-name="Trazado 275510" d="M89.845,65.052c-.01-2.654-.131-5.313,0-7.959A11.178,11.178,0,0,1,92.384,50.7a26.39,26.39,0,0,1,2.461-2.417V65.208h-4.7l-.164-.152c-.047,0-.093,0-.14,0" fill="#fdb756"/>
        <path id="Trazado_275511" data-name="Trazado 275511" d="M139.792,65.207l-4.7,0q0-8.386.009-16.773a30.426,30.426,0,0,1,2.879,3.03,10.465,10.465,0,0,1,1.976,6.073q.069,3.756.137,7.513c-.046,0-.092,0-.139,0l-.165.152" fill="#feb756"/>
        <path id="Trazado_275512" data-name="Trazado 275512" d="M121.419,41.662c.069.195.081.22.087.247.362,1.558-.393,2.673-1.421,3.713-1.566,1.582-3.107,3.189-4.639,4.8-.376.4-.637.514-1.073.046-1.948-2.094-3.932-4.154-5.89-6.24a.972.972,0,0,1-.214-.583c-.027-.611-.01-1.224-.01-1.98a16.336,16.336,0,0,0,6.643,1.609,15.988,15.988,0,0,0,6.517-1.616" fill="#e8d3a5"/>
        <path id="Trazado_275513" data-name="Trazado 275513" d="M100.366,24.333V29.46A2.477,2.477,0,0,1,97.7,27.089a2.637,2.637,0,0,1,2.669-2.756" fill="#e8d3a5"/>
        <path id="Trazado_275514" data-name="Trazado 275514" d="M129.49,29.492V24.387a2.56,2.56,0,0,1,2.6,2.757,2.488,2.488,0,0,1-2.6,2.348" fill="#e8d3a5"/>
        <path id="Trazado_275515" data-name="Trazado 275515" d="M94.846,65.208V48.287l-.015-.019.291.049,0,16.72c-.039.058-.078.116-.116.174l-.163,0" fill="#ffc45c"/>
        <path id="Trazado_275516" data-name="Trazado 275516" d="M135.1,48.436,135.1,65.209l-.163,0-.116-.174q0-8.36,0-16.719l.253-.018a.421.421,0,0,1,.031.135" fill="#ffc45c"/>
        <path id="Trazado_275517" data-name="Trazado 275517" d="M100.528,16.089l28.835.009a2.892,2.892,0,0,1-.713.187q-13.741.015-27.482,0a5.377,5.377,0,0,1-.72-.094c.005-.018,0-.041.014-.054a.42.42,0,0,1,.066-.052" fill="#ffc75d"/>
        <path id="Trazado_275518" data-name="Trazado 275518" d="M126.849,24.479H103.092a2.349,2.349,0,0,1,.626-.181q11.253-.015,22.5,0a2.349,2.349,0,0,1,.626.181" fill="#ffd"/>
        <path id="Trazado_275519" data-name="Trazado 275519" d="M108.3,12.236a3.15,3.15,0,0,1-.2-.751c-.018-1.646-.009-3.292-.01-4.938.088.094.251.188.251.283,0,1.8-.025,3.6-.043,5.406" fill="#ffc75d"/>
        <path id="Trazado_275520" data-name="Trazado 275520" d="M121.846,6.547c0,1.646.008,3.292-.01,4.938a3.149,3.149,0,0,1-.2.751c-.018-1.8-.04-3.6-.042-5.406,0-.094.163-.189.25-.283" fill="#ffc75d"/>
        <path id="Trazado_275521" data-name="Trazado 275521" d="M95.122,48.317l-.29-.049.239-.139.051.188" fill="#a67738"/>
        <path id="Trazado_275522" data-name="Trazado 275522" d="M135.072,48.3l-.253.018c.02-.063.039-.125.059-.187l.194.169" fill="#a67738"/>
        <path id="Trazado_275523" data-name="Trazado 275523" d="M121.566,12.417a.589.589,0,0,1,.026.116c0,.012-.035.025-.054.038.009-.052.019-.1.028-.154" fill="#ffc75d"/>
        <path id="Trazado_275524" data-name="Trazado 275524" d="M108.272,12.6l.1-.185-.1.185" fill="#ffc75d"/>
        <path id="Trazado_275525" data-name="Trazado 275525" d="M89.845,65.052c.047,0,.093,0,.14,0a1.318,1.318,0,0,0,0,.154l-.141-.157" fill="#e7a64e"/>
        <path id="Trazado_275526" data-name="Trazado 275526" d="M89.986,65.209c0-.051,0-.1,0-.154l.164.151-.163,0" fill="#ffc45c"/>
        <path id="Trazado_275527" data-name="Trazado 275527" d="M95.009,65.211l.116-.174-.116.174" fill="#a67738"/>
        <path id="Trazado_275528" data-name="Trazado 275528" d="M134.816,65.037l.116.174-.116-.174" fill="#a67738"/>
        <path id="Trazado_275529" data-name="Trazado 275529" d="M139.792,65.207l.165-.152c0,.052,0,.1,0,.155l-.164,0" fill="#ffc45c"/>
        <path id="Trazado_275530" data-name="Trazado 275530" d="M139.955,65.21c0-.052,0-.1,0-.155q.069,0,.138,0c-.046.053-.093.1-.14.158" fill="#e7a64e"/>
        <path id="Trazado_275531" data-name="Trazado 275531" d="M126.877,58.29c-.01-.907.384-1.287,1.327-1.282a1.041,1.041,0,0,1,1.191,1.131,1.286,1.286,0,0,1-1.276,1.394,1.228,1.228,0,0,1-1.242-1.243" fill="#010101"/>
        <path id="Trazado_275532" data-name="Trazado 275532" d="M102.9,58.212c-.005.863-.434,1.332-1.208,1.321a1.3,1.3,0,0,1-1.307-1.3,1.247,1.247,0,0,1,1.338-1.225c.878.011,1.182.322,1.177,1.2" fill="#010101"/>
      </g>
    </g>
  </g>
</svg>
