<svg xmlns="http://www.w3.org/2000/svg" xmlns:xlink="http://www.w3.org/1999/xlink" width="85" height="186.871" viewBox="0 0 85 186.871">
  <defs>
    <clipPath id="clip-path">
      <rect id="Rect치ngulo_323576" data-name="Rect치ngulo 323576" width="84" height="84.211" fill="none"/>
    </clipPath>
    <clipPath id="clip-path-2">
      <rect id="Rect치ngulo_323577" data-name="Rect치ngulo 323577" width="85" height="84.872" fill="none"/>
    </clipPath>
  </defs>
  <g id="Grupo_1069956" data-name="Grupo 1069956" transform="translate(-345 -19973.811)">
    <g id="Grupo_257460" data-name="Grupo 257460" transform="translate(345 19973.811)">
      <g id="Grupo_257459" data-name="Grupo 257459" clip-path="url(#clip-path)">
        <path id="Trazado_275533" data-name="Trazado 275533" d="M1.081,72.6A1.265,1.265,0,0,1,.036,71.2c.02-2.078-.115-4.165.039-6.231a10.35,10.35,0,0,1,2.661-5.993,11.193,11.193,0,0,1,8.825-3.823c3.428-.038,6.86.088,10.281-.07.974-.045,1.921-.817,2.859-1.3.1-.05.065-.384.065-.586,0-1.212.363-2.594-.1-3.587-.437-.929-1.76-1.433-2.678-2.145a15.723,15.723,0,0,1-5.725-9.3c-.125-.553-.182-1.121-.281-1.755a6.914,6.914,0,0,1-4.532-1.044,6.031,6.031,0,0,1-.96-9.284,1.944,1.944,0,0,0,.608-1.532c-.038-2.873-.177-5.756,0-8.618A16.221,16.221,0,0,1,14.4,7.2,17.345,17.345,0,0,1,24.475.515,18.961,18.961,0,0,1,28.609.057C32-.007,35.4-.029,38.788.053A9.051,9.051,0,0,1,47,4.9a17.779,17.779,0,0,0,2,2.439c.26.314.5.646.753.965a1.532,1.532,0,0,1-.064,2.305,1.727,1.727,0,0,1-1.953-.928c-.816-1.134-1.976-2.045-2.673-3.235a7.155,7.155,0,0,0-4.307-3.681,12.566,12.566,0,0,0-1.718-.24c-3.564-.021-7.131-.1-10.69.031a19.587,19.587,0,0,0-4.909.857A13.777,13.777,0,0,0,17.124,7.8a15.754,15.754,0,0,0-2.962,5.313,15.283,15.283,0,0,0-.612,5.166c0,1.992,0,3.985,0,5.95,1.2.125,2.25.215,3.3.349a10.237,10.237,0,0,0,2.386.356,66.82,66.82,0,0,0,7.229-1.182,17.015,17.015,0,0,0,8.707-4.686,1.475,1.475,0,0,1,1.389-.164,1.7,1.7,0,0,1,.562,1.267,9.322,9.322,0,0,1-.287,1.887,2.27,2.27,0,0,0,.533-.05c1.686-.7,3.39-1.358,5.043-2.127,1.3-.6,1.9-.473,2.569.789.384.72.786,1.43,1.179,2.144.292.512.506,1.383.89,1.466a15.209,15.209,0,0,0,3.122.07c0-.95.023-1.773,0-2.595-.07-2.088-.171-4.176-.242-6.264-.026-.787-.153-1.663,1.018-1.779,1.239.071,1.416.252,1.465,1.5.011.273.024.545.036.817l.153.428c.016,2.907.018,5.815.063,8.722a1.744,1.744,0,0,0,.374,1.087,5.712,5.712,0,0,1,1.206,5.968A5.474,5.474,0,0,1,49.6,36.2c-.767.107-1.535.2-2.307.3a15.884,15.884,0,0,1-8.6,12.682,15.746,15.746,0,0,0,.108,4.241,3.125,3.125,0,0,0,2.34,1.638c2.925.2,5.873.077,8.938.077V54.084q0-5.817,0-11.633c0-1.3.214-1.539,1.488-1.54q15.421-.013,30.842,0c1.078,0,1.564.494,1.574,1.57.018,1.869.024,3.74,0,5.609-.012.781-.315,1.4-1.235,1.445-.963.07-1.229-.49-1.23-1.327,0-1.509-.023-3.019-.037-4.528l-.176-.252H77.341c-.239-.022-.478-.063-.717-.063q-11.551,0-23.1,0c-.238,0-.476.043-.714.065l-.219.258c-.021.274-.06.547-.06.821q0,18.087,0,36.175c0,.274.039.547.06.821l.23.189,24.523,0,3.951,0,.188-.185c.013-2.142.037-4.285.039-6.427q.007-10.268,0-20.535c0-.859.081-1.62,1.23-1.55,1.092.106,1.245.871,1.245,1.756q0,9.351,0,18.7,0,4.416,0,8.832c0,1.381-.536,1.92-1.89,1.92H1.8c-1.53,0-1.758-.235-1.759-1.8,0-1.7.017-3.394-.008-5.091C.023,76.539.261,76,1.087,75.855c.916.061,1.308.492,1.257,1.464-.076,1.439-.02,2.886-.02,4.331H9.99c0-3.4.005-6.725,0-10.046,0-.792.176-1.336,1.143-1.335A1.164,1.164,0,0,1,12.453,71.6c.015,1.87.005,3.74.006,5.61,0,1.478,0,2.955,0,4.479H25.772c.775-3.245,1.555-6.469,2.307-9.7a2.717,2.717,0,0,0,.108-1.481c-.448-1.093-1.066-2.117-1.619-3.175-1.517.972-1.96.984-2.5.04a4.017,4.017,0,0,1-.332-1.155c-.6-2.845-1.19-5.693-1.789-8.567-3.856,0-7.663-.085-11.462.05a7.932,7.932,0,0,0-3.567,1.074,8.12,8.12,0,0,0-4.377,6.956c-.064,1.729-.03,3.463-.027,5.194A1.534,1.534,0,0,1,1.081,72.6M49.729,57.692l-3.366-.045c-1.281-.01-2.566.043-3.84-.053-.9-.068-1.18.35-1.332,1.122-.536,2.724-1.1,5.442-1.669,8.161a1.255,1.255,0,0,1-2.138.768c-.124-.108-.265-.2-.493-.361a18.561,18.561,0,0,0-1.3,2.486A4.4,4.4,0,0,0,35.336,72c.672,3.238,1.462,6.451,2.216,9.7H49.943c.061-.132.114-.193.114-.253q.016-11.636.009-23.272c0-.159-.22-.318-.338-.476M39.1,24.173c-.789.148-1.592.245-2.363.457a1.755,1.755,0,0,1-2.029-.711c-.538-.86-.926-.551-1.541-.192a23.357,23.357,0,0,1-7.994,2.9c-2.173.361-4.37.571-6.632.858,0,2.736,0,5.6,0,8.46a7.7,7.7,0,0,0,.06,1.44,13.344,13.344,0,0,0,4.513,7.857A12.794,12.794,0,0,0,31,48.429c.847-.056,1.7-.067,2.542-.175a12.9,12.9,0,0,0,7.693-3.961A13.748,13.748,0,0,0,44.969,34.04,46.328,46.328,0,0,1,45,28.848a9.771,9.771,0,0,0-1.616-5.693,1.021,1.021,0,0,0-.921-.35c-1.141.4-2.243.9-3.36,1.368M27.055,50.225c0,1.191-.014,2.19.01,3.189a1.194,1.194,0,0,0,.214.746c1.413,1.462,2.855,2.895,4.407,4.454,1.463-1.505,2.858-2.938,4.246-4.377a.766.766,0,0,0,.254-.422c.021-1.157.012-2.314.012-3.663a14.311,14.311,0,0,1-9.142.073m7.869,31.46a1.7,1.7,0,0,0,.03-.4c-.5-2.173-.962-4.354-1.512-6.513-.354-1.389-.254-3.242-2.558-3-.065.007-.128.024-.286.054l-2.253,9.858ZM28.3,65.347c.6,1.135,1.183,2.143,1.675,3.192a1.546,1.546,0,0,0,1.56.96,1.842,1.842,0,0,0,2.043-1.269c.443-.983.985-1.922,1.527-2.965-.959-.926-1.9-1.795-2.79-2.71-.436-.447-.744-.473-1.189-.006-.906.95-1.864,1.851-2.826,2.8M16.049,26.661a11.205,11.205,0,0,0-3.166.624A3.571,3.571,0,0,0,11.3,31.307a3.984,3.984,0,0,0,3.966,2.619c.584-.026.793-.245.788-.811-.015-2.038-.006-4.075-.006-6.455m31.432,7.18c1.737.226,3.2-.129,4.077-1.625a3.678,3.678,0,0,0-.095-4.069c-.933-1.361-2.4-1.527-3.982-1.207ZM25.828,64.007,29.9,60.079c-1.19-1.171-2.417-2.332-3.584-3.55a.81.81,0,0,0-1.237-.121c-.387.3-.932.465-.633,1.252a18.5,18.5,0,0,1,.533,2.664c.27,1.252.575,2.5.85,3.683M33.5,60.231,37.481,64.2l1.561-7.222-1.409-.85L33.5,60.231" transform="translate(0 0)" fill="#010101"/>
        <path id="Trazado_275534" data-name="Trazado 275534" d="M5.2,292.345a1.534,1.534,0,0,0,1.436-1.682c0-1.732-.037-3.465.027-5.194a8.12,8.12,0,0,1,4.377-6.956,7.936,7.936,0,0,1,3.567-1.074c3.8-.135,7.606-.05,11.462-.05.6,2.874,1.19,5.721,1.789,8.567a4.021,4.021,0,0,0,.332,1.155c.538.944.981.932,2.5-.04.554,1.058,1.171,2.082,1.619,3.175a2.717,2.717,0,0,1-.108,1.481c-.752,3.231-1.532,6.455-2.307,9.7H16.578c0-1.524,0-3,0-4.479,0-1.87.01-3.74-.006-5.61a1.164,1.164,0,0,0-1.324-1.327c-.967,0-1.146.543-1.143,1.335.009,3.321,0,6.642,0,10.046H6.443c0-1.445-.056-2.892.02-4.331.051-.972-.341-1.4-1.257-1.464q0-1.626-.006-3.252" transform="translate(-4.12 -219.742)" fill="#80d261"/>
        <path id="Trazado_275535" data-name="Trazado 275535" d="M365.8,218.611c-1.149-.07-1.231.691-1.23,1.55q.008,10.268,0,20.535c0,2.142-.025,4.285-.039,6.427l-.188.185-3.952,0q0-1.53,0-3.059c.943-.095,1.733-.766,1.652-1.448-.1-.87-.767-.917-1.444-.913l-.208-2.626c.943-.1,1.736-.769,1.651-1.446-.108-.859-.762-.925-1.444-.914q-.1-1.318-.207-2.636c.068-.011.136-.023.2-.032.8-.1,1.536-.787,1.445-1.412-.124-.849-.741-.91-1.453-.89-1.1.032-2.208-.01-3.312-.021a9.029,9.029,0,0,1,1.974-.351c.912.035,1.171-.241,1.166-1.164-.039-7.12-.022-14.24-.022-21.36h3.963l.176.252c.013,1.509.036,3.019.037,4.528,0,.837.267,1.4,1.23,1.327q0,1.733,0,3.466" transform="translate(-283.057 -165.612)" fill="#deecf1"/>
        <path id="Trazado_275536" data-name="Trazado 275536" d="M196.22,13.31a7.157,7.157,0,0,1,4.307,3.681c.7,1.191,1.857,2.1,2.673,3.235a1.727,1.727,0,0,0,1.953.928l1.243,3.105c-1.171.115-1.045.992-1.019,1.779.07,2.088.172,4.176.242,6.264.027.821,0,1.644,0,2.595a15.209,15.209,0,0,1-3.122-.07c-.385-.084-.6-.954-.89-1.466.006-2.453-.025-4.906.025-7.358a14.492,14.492,0,0,0-4.6-11.212,5.8,5.8,0,0,1-.821-1.481" transform="translate(-155.456 -10.545)" fill="#c86d36"/>
        <path id="Trazado_275537" data-name="Trazado 275537" d="M252.583,77.6l-.153-.428.153.428" transform="translate(-199.989 -61.14)" fill="#ccd2d3"/>
        <path id="Trazado_275538" data-name="Trazado 275538" d="M92.435,12.235a5.8,5.8,0,0,0,.821,1.481,14.492,14.492,0,0,1,4.6,11.212c-.05,2.452-.019,4.9-.025,7.358-.394-.714-.8-1.424-1.18-2.144-.673-1.262-1.269-1.394-2.569-.789-1.653.769-3.358,1.429-5.043,2.127a2.27,2.27,0,0,1-.533.05,9.323,9.323,0,0,0,.287-1.887,1.7,1.7,0,0,0-.562-1.267,1.475,1.475,0,0,0-1.389.164,17.014,17.014,0,0,1-8.707,4.686A66.808,66.808,0,0,1,70.9,34.408a10.235,10.235,0,0,1-2.386-.356c-1.047-.134-2.1-.224-3.3-.349,0-1.966,0-3.958,0-5.95a15.284,15.284,0,0,1,.613-5.166A15.754,15.754,0,0,1,68.8,17.274a13.775,13.775,0,0,1,6.324-4.39,19.576,19.576,0,0,1,4.909-.857c3.559-.128,7.126-.052,10.69-.031a12.566,12.566,0,0,1,1.718.24" transform="translate(-51.671 -9.47)" fill="#d77f4a"/>
        <path id="Trazado_275539" data-name="Trazado 275539" d="M277.651,244q0,1.53,0,3.059l-24.523,0-.23-.189c-.021-.274-.06-.547-.06-.821q0-18.087,0-36.175c0-.274.039-.547.06-.821l.219-.258c.238-.023.476-.065.715-.065q11.551-.005,23.1,0c.239,0,.478.041.717.063,0,7.12-.017,14.24.022,21.36,0,.923-.253,1.2-1.165,1.164a9.041,9.041,0,0,0-1.974.351c-.687.026-1.13.337-1.025,1.068.1.7.373,1.284,1.27,1.26.956-.026,1.914.015,2.871.026q.1,1.318.207,2.636c-1.029.012-2.057.042-3.086.029-.674-.009-1.3.049-1.262.917.035.761.324,1.381,1.26,1.38.96,0,1.92.022,2.88.035q.1,1.313.208,2.626c-.995.012-1.989.034-2.984.032-.673,0-1.352-.046-1.379.916-.024.867.511,1.366,1.48,1.378l2.675.035M267.1,210.712c-4.933-.2-8.961,4.245-9.015,9.044a9.174,9.174,0,1,0,18.327-.526,9,9,0,0,0-9.312-8.518m-5.7,33.228c1.558,0,3.116,0,4.674,0,.836,0,1.516-.22,1.6-1.186.066-.791-.558-1.284-1.6-1.287q-4.622-.012-9.244,0c-1.038,0-1.674.5-1.6,1.286.095.94.76,1.191,1.6,1.187,1.523-.008,3.047,0,4.57,0m.052-4.992c1.591,0,3.183.009,4.774,0,.81-.006,1.455-.324,1.435-1.23-.019-.866-.631-1.233-1.444-1.235-3.148-.01-6.3,0-9.445,0-.846,0-1.528.317-1.528,1.246s.684,1.231,1.537,1.227c1.557-.008,3.114,0,4.671,0m-.006-7.452c-1.554,0-3.107.012-4.661,0-.86-.009-1.465.307-1.553,1.215-.074.768.522,1.257,1.5,1.26q4.713.015,9.426,0c1,0,1.592-.491,1.517-1.255-.09-.916-.7-1.228-1.562-1.221-1.554.014-3.107,0-4.661,0" transform="translate(-200.311 -165.364)" fill="#eef5f6"/>
        <path id="Trazado_275540" data-name="Trazado 275540" d="M101.7,137.534a12.8,12.8,0,0,1-7.884-3.19,13.344,13.344,0,0,1-4.513-7.857,7.705,7.705,0,0,1-.06-1.44c0-2.861,0-5.723,0-8.46,2.262-.287,4.46-.5,6.632-.858a23.359,23.359,0,0,0,7.994-2.9c.615-.359,1-.668,1.541.192a1.755,1.755,0,0,0,2.029.711c.771-.213,1.574-.31,2.363-.457a14.325,14.325,0,0,0-.19,1.633c-.018,3.322.014,6.645-.025,9.967a12.679,12.679,0,0,1-.333,2.757,14.63,14.63,0,0,1-6.792,9.145,4.933,4.933,0,0,0-.759.754" transform="translate(-70.702 -89.105)" fill="#fed2a4"/>
        <path id="Trazado_275541" data-name="Trazado 275541" d="M180.919,301.312H172.1c-.753-3.247-1.544-6.46-2.216-9.7a4.4,4.4,0,0,1,.253-2.225,18.548,18.548,0,0,1,1.3-2.486c.228.165.369.253.493.361a1.255,1.255,0,0,0,2.138-.768c.566-2.718,1.133-5.436,1.669-8.161.152-.772.427-1.19,1.332-1.122,1.274.1,2.56.042,3.84.053a.444.444,0,0,0,.019.162l-.007,23.885" transform="translate(-134.545 -219.618)" fill="#80d261"/>
        <path id="Trazado_275542" data-name="Trazado 275542" d="M149.228,135.321a4.931,4.931,0,0,1,.759-.754,14.63,14.63,0,0,0,6.792-9.145,12.665,12.665,0,0,0,.333-2.757c.039-3.322.007-6.645.025-9.967a14.322,14.322,0,0,1,.19-1.633c1.116-.466,2.22-.971,3.36-1.368a1.022,1.022,0,0,1,.921.35,9.773,9.773,0,0,1,1.616,5.693,46.328,46.328,0,0,0-.028,5.192,13.749,13.749,0,0,1-3.733,10.253,12.9,12.9,0,0,1-7.693,3.961c-.841.108-1.694.119-2.542.175" transform="translate(-118.227 -86.892)" fill="#febd86"/>
        <path id="Trazado_275543" data-name="Trazado 275543" d="M223.226,301.71q0-11.942.007-23.885l3.348-.117c.118.159.338.317.338.476q.015,11.636-.009,23.272c0,.061-.053.121-.114.253Z" transform="translate(-176.852 -220.016)" fill="#68ca44"/>
        <path id="Trazado_275544" data-name="Trazado 275544" d="M130.218,241.488a14.311,14.311,0,0,0,9.142-.073c0,1.349.009,2.506-.011,3.663a.767.767,0,0,1-.254.422c-1.388,1.439-2.783,2.872-4.246,4.377-1.551-1.56-2.994-2.992-4.407-4.454a1.2,1.2,0,0,1-.214-.746c-.024-1-.01-2-.01-3.189" transform="translate(-103.162 -191.262)" fill="#f6a96c"/>
        <path id="Trazado_275545" data-name="Trazado 275545" d="M143.022,355.316h-6.579l2.253-9.858c.158-.03.221-.047.286-.054,2.3-.245,2.2,1.608,2.558,3,.55,2.159,1.016,4.34,1.512,6.513a1.687,1.687,0,0,1-.03.4" transform="translate(-108.098 -273.631)" fill="#fd646f"/>
        <path id="Trazado_275546" data-name="Trazado 275546" d="M136.247,302.591c.962-.947,1.92-1.848,2.826-2.8.445-.466.753-.44,1.189.007.892.915,1.831,1.783,2.79,2.709-.542,1.042-1.084,1.981-1.527,2.965a1.842,1.842,0,0,1-2.043,1.269,1.546,1.546,0,0,1-1.56-.96c-.492-1.049-1.073-2.057-1.675-3.192" transform="translate(-107.942 -237.244)" fill="#fa4654"/>
        <path id="Trazado_275547" data-name="Trazado 275547" d="M58.6,128.338c0,2.38-.009,4.417.006,6.455,0,.565-.2.785-.788.811a3.984,3.984,0,0,1-3.966-2.619,3.572,3.572,0,0,1,1.583-4.022,11.206,11.206,0,0,1,3.166-.624" transform="translate(-42.555 -101.677)" fill="#f6a96c"/>
        <path id="Trazado_275548" data-name="Trazado 275548" d="M228.556,136.05v-6.9c1.582-.32,3.049-.154,3.982,1.207a3.678,3.678,0,0,1,.095,4.069c-.878,1.5-2.34,1.851-4.077,1.625" transform="translate(-181.075 -102.209)" fill="#f6a96c"/>
        <path id="Trazado_275549" data-name="Trazado 275549" d="M118.723,278.238c-.275-1.186-.58-2.431-.85-3.683a18.486,18.486,0,0,0-.533-2.664c-.3-.788.246-.951.633-1.252a.81.81,0,0,1,1.236.121c1.167,1.218,2.394,2.379,3.584,3.55l-4.071,3.928" transform="translate(-92.895 -214.231)" fill="#c0e8ae"/>
        <path id="Trazado_275550" data-name="Trazado 275550" d="M161.237,274.267l4.137-4.106,1.409.85-1.561,7.222-3.984-3.966" transform="translate(-127.741 -214.037)" fill="#c1e9af"/>
        <path id="Trazado_275551" data-name="Trazado 275551" d="M226.531,277.538l-3.348.117a.438.438,0,0,1-.018-.162l3.366.044" transform="translate(-176.803 -219.846)" fill="#101b0c"/>
        <path id="Trazado_275552" data-name="Trazado 275552" d="M391.54,209.294l-.176-.252.176.252" transform="translate(-310.06 -165.615)" fill="#eef5f6"/>
        <path id="Trazado_275553" data-name="Trazado 275553" d="M253.357,209.053l-.219.258.219-.258" transform="translate(-200.55 -165.623)" fill="#fcffff"/>
        <path id="Trazado_275554" data-name="Trazado 275554" d="M253.137,392.332l.23.189-.23-.189" transform="translate(-200.549 -310.827)" fill="#fcffff"/>
        <path id="Trazado_275555" data-name="Trazado 275555" d="M391.306,392.552l.188-.185-.188.185" transform="translate(-310.015 -310.855)" fill="#eef5f6"/>
        <path id="Trazado_275556" data-name="Trazado 275556" d="M356.429,321.508c-.957-.012-1.915-.053-2.871-.026-.9.025-1.17-.559-1.27-1.26-.1-.731.338-1.042,1.025-1.068,1.1.011,2.209.053,3.312.021.712-.021,1.329.041,1.453.89.091.625-.643,1.312-1.445,1.412-.068.008-.136.021-.2.032" transform="translate(-279.09 -252.852)" fill="#010101"/>
        <path id="Trazado_275557" data-name="Trazado 275557" d="M356.486,345.529c-.96-.013-1.92-.036-2.88-.035-.937,0-1.225-.619-1.26-1.38-.04-.867.588-.926,1.262-.917,1.028.014,2.057-.017,3.086-.029.682-.011,1.336.055,1.443.914.085.677-.708,1.348-1.651,1.446" transform="translate(-279.147 -271.877)" fill="#010101"/>
        <path id="Trazado_275558" data-name="Trazado 275558" d="M356.434,369.535l-2.674-.035c-.969-.012-1.5-.511-1.48-1.378.027-.961.706-.917,1.379-.916.995,0,1.989-.02,2.983-.032.677,0,1.34.043,1.444.913.081.682-.709,1.353-1.651,1.448" transform="translate(-279.095 -290.896)" fill="#010101"/>
        <path id="Trazado_275559" data-name="Trazado 275559" d="M287.1,218.264a9,9,0,0,1,9.312,8.518,9.174,9.174,0,1,1-18.327.526c.054-4.8,4.082-9.247,9.015-9.044m5.816,5.588a11.684,11.684,0,0,0-1.1-1.426,6.752,6.752,0,0,0-5.339-1.689,6.453,6.453,0,0,0-5.849,5.59,6.529,6.529,0,0,0,3.092,6.706,6.637,6.637,0,0,0,9.588-2.821,6.22,6.22,0,0,0-.4-6.36" transform="translate(-220.313 -172.915)" fill="#020101"/>
        <path id="Trazado_275560" data-name="Trazado 275560" d="M270.478,368.787c-1.523,0-3.047-.006-4.57,0-.839,0-1.5-.247-1.6-1.187-.079-.783.557-1.283,1.6-1.286q4.622-.013,9.244,0c1.042,0,1.667.5,1.6,1.287-.081.966-.761,1.19-1.6,1.186-1.558-.006-3.116,0-4.674,0" transform="translate(-209.395 -290.212)" fill="#010101"/>
        <path id="Trazado_275561" data-name="Trazado 275561" d="M270.6,344.77c-1.557,0-3.114-.005-4.671,0-.853,0-1.537-.288-1.537-1.227s.682-1.246,1.528-1.246c3.148,0,6.3-.007,9.445,0,.813,0,1.425.369,1.444,1.235.02.906-.625,1.224-1.435,1.23-1.592.013-3.183,0-4.774,0" transform="translate(-209.468 -271.186)" fill="#010101"/>
        <path id="Trazado_275562" data-name="Trazado 275562" d="M270.527,318.32c1.554,0,3.107.01,4.661,0,.86-.007,1.472.3,1.562,1.221.075.764-.521,1.251-1.517,1.255q-4.713.017-9.426,0c-.973,0-1.569-.492-1.5-1.26.088-.908.693-1.224,1.553-1.216,1.554.016,3.107,0,4.661,0" transform="translate(-209.399 -252.187)" fill="#010101"/>
        <path id="Trazado_275563" data-name="Trazado 275563" d="M293.209,242.433a6.529,6.529,0,0,1-3.092-6.706,6.453,6.453,0,0,1,5.849-5.59,6.752,6.752,0,0,1,5.339,1.689,11.662,11.662,0,0,1,1.1,1.426c-.082.556-.207,1.109-.24,1.668-.175,3.03-1.849,5.028-4.38,6.45a14.335,14.335,0,0,1,.987-1.26,2.657,2.657,0,0,0-1.022-4.552c-.367-.138-.716-.322-1.073-.485a2.494,2.494,0,0,1,1.282-.036,1.135,1.135,0,0,0,1.448-.861,1.15,1.15,0,0,0-.792-1.534,2.834,2.834,0,0,1-.925-.627c-.442-.442-1.5-.594-1.851-.176-.469.553-.913,1.128-1.341,1.714a2.024,2.024,0,0,0-.065,2.64,11.982,11.982,0,0,0,2.134,1.576,7.694,7.694,0,0,1,.58.517,6.978,6.978,0,0,1-.979.3c-.132.022-.288-.191-.444-.21-.6-.076-1.229-.431-1.685.381s-.065,1.274.5,1.742q.8.667,1.6,1.337c-.417.124-.828.28-1.253.364-.549.108-1.11.158-1.666.233" transform="translate(-229.799 -182.315)" fill="#fdd05a"/>
        <path id="Trazado_275564" data-name="Trazado 275564" d="M309.8,253.3c2.531-1.422,4.205-3.421,4.38-6.45.032-.559.157-1.112.24-1.668a6.22,6.22,0,0,1,.4,6.361,6.637,6.637,0,0,1-9.588,2.821c.556-.075,1.116-.125,1.666-.233.425-.084.836-.24,1.253-.364.723.454,1.169-.074,1.653-.466" transform="translate(-241.822 -194.251)" fill="#fdc344"/>
        <path id="Trazado_275565" data-name="Trazado 275565" d="M312.2,246.974c-.484.393-.93.921-1.653.466q-.8-.669-1.6-1.337c-.561-.467-.949-.934-.5-1.742s1.086-.457,1.685-.381c.156.02.312.232.444.21a7.016,7.016,0,0,0,.979-.3,7.644,7.644,0,0,0-.58-.517,11.962,11.962,0,0,1-2.134-1.576,2.024,2.024,0,0,1,.065-2.64c.428-.586.872-1.161,1.341-1.715.354-.418,1.408-.266,1.85.176a2.839,2.839,0,0,0,.925.627,1.15,1.15,0,0,1,.792,1.534,1.135,1.135,0,0,1-1.447.861,2.5,2.5,0,0,0-1.282.036c.357.163.706.348,1.073.485a2.657,2.657,0,0,1,1.022,4.552,14.384,14.384,0,0,0-.987,1.261" transform="translate(-244.217 -187.92)" fill="#020101"/>
      </g>
    </g>
    <g id="Grupo_257462" data-name="Grupo 257462" transform="translate(345 20075.811)">
      <g id="Grupo_257461" data-name="Grupo 257461" clip-path="url(#clip-path-2)">
        <path id="Trazado_275566" data-name="Trazado 275566" d="M65.142,35l2.984,8.865,9.33-4.42c-.376-.172-.815-.238-1.005-.491a2.384,2.384,0,0,1-.631-1.449,1.415,1.415,0,0,1,1.146-.809,36.973,36.973,0,0,1,5.06,1.147c.729.227.871,1.034.537,1.767a39.962,39.962,0,0,1-1.779,3.68,2.456,2.456,0,0,1-1.451,1.069c-.306.064-.879-.552-1.116-.981-.163-.295.042-.794.1-1.359-1.049.477-2.11.945-3.16,1.439q-2.617,1.231-5.221,2.491c-1.589.769-1.852,1.317-1.545,3.065a14.335,14.335,0,0,1,.195,1.528c.033.492.007.989.007,1.676.645,0,1.36,0,2.074,0,1.266.008,1.718.425,1.719,1.65q.009,14.57,0,29.139c0,1.172-.546,1.759-1.687,1.769-2.489.021-4.978,0-7.467,0-.978,0-1.214-.661-1.222-1.452-.021-2.033-.009-4.067-.01-6.1,0-2.053,0-4.107-.109-6.2-.889,1.139-2.276,1.848-2.166,3.693.159,2.691.043,5.4.04,8.1,0,1.442-.5,1.963-1.915,1.968-2.349.008-4.7,0-7.047,0a1.491,1.491,0,0,1-1.562-1.514c-.02-.314,0-.631-.005-.946-.006-.271-.024-.542-.041-.889a5.382,5.382,0,0,0-1.354.548,1.8,1.8,0,0,0-.677,1.07c-.134,1.216-.6,1.726-1.855,1.732-4.45.024-8.906.18-13.349.007a30.166,30.166,0,0,1-10.3-2.382A36.143,36.143,0,0,1,12,76.562,34.461,34.461,0,0,1,3.613,65.905a28.029,28.029,0,0,1-3.14-9.526,49.115,49.115,0,0,1-.394-9.145,31.105,31.105,0,0,1,2.99-11.043,33.6,33.6,0,0,1,15.018-15.98,33.143,33.143,0,0,1,11.222-3.7,52.553,52.553,0,0,1,7.468-.076,26.988,26.988,0,0,1,8.129,1.478c.349.111.705.2,1.237.349.573-.967,1.216-2.04,1.849-3.12,2.448-4.173,4.847-8.375,7.353-12.513C57.211-.447,62.073-.639,64.717,1.1c1.737,1.14,2.482,2.977,3.465,4.648Q71.221,10.906,74.2,16.1c1.669,2.893,3.4,5.757,4.959,8.708a6.894,6.894,0,0,1-6.12,10.2c-2.628-.039-5.257-.007-7.9-.007m-3.917-2.684c2.086.021,4.172.062,6.258.058,1.979,0,3.959-.056,5.938-.086a4.223,4.223,0,0,0,3.34-6.4c-3.991-7.043-8.086-14.027-12.14-21.034A3.606,3.606,0,0,0,60.807,2.8a3.217,3.217,0,0,0-3.532,1.622C55.959,6.595,54.714,8.807,53.441,11c-2.844,4.906-5.7,9.8-8.522,14.723a4.047,4.047,0,0,0-.529,3.526c.688,1.912,2.208,3.156,3.792,3.03l13.042.037M35.738,23.831c-.025.418-.07.835-.071,1.253q-.01,12.83-.011,25.66L22.087,73.882,19.343,78.4a29.732,29.732,0,0,0,17.336,3.58V77.03c.026-.381.073-.762.074-1.142.005-3.841.016-7.683-.007-11.524a1.758,1.758,0,0,1,.916-1.821l8.609.065a2.458,2.458,0,0,1,.89,2.085c-.034,2.93.006,5.86.017,8.79v5.836c.566-.28,1.1-.5,1.578-.8.25-.155.585-.447.588-.681.023-1.736-.028-3.474-.055-5.211.028-.381.079-.762.079-1.143.006-4.129,0-8.259.008-12.388,0-1.42.3-1.723,1.724-1.735,2.309-.019,4.619-.038,6.927.021a5.181,5.181,0,0,1,1.512.539,11.532,11.532,0,0,1,.215,1.527c.024,2.171.01,4.343.01,6.514v3.106c1.575-1.811,2.539-3.594,2.271-5.945A44.472,44.472,0,0,1,62,58.083c0-1.506,0-3.012,0-4.518,0-.917.362-1.406,1.391-1.364a17.194,17.194,0,0,0,2.395-.215V47.978c-.579.265-1.07.479-1.551.713-1.322.642-1.774.524-2.578-.672-.341-.507-.7-1-1.049-1.5l-1.029-1.769c-3.492,1.462-6.869,2.874-10.246,4.289-2.66,1.115-5.315,2.243-7.982,3.342a1.582,1.582,0,0,1-1.949-.942,1.314,1.314,0,0,1,.989-1.567c.894-.326,1.73-.807,2.611-1.173q8.168-3.4,16.346-6.77a2.019,2.019,0,0,1,2.366,1.214,16.82,16.82,0,0,0,1.591,2.408,1.165,1.165,0,0,0,1.081.1c.416-.2,1.226-.158,1.025-1.01a32.858,32.858,0,0,0-3.238-9.037,1.327,1.327,0,0,0-.941-.574c-1.681-.049-3.364-.009-5.046,0h-.233c-2.453-.009-4.907-.011-7.36-.034a6.719,6.719,0,0,1-6.328-9.921l2.68-4.619-9.21-1.8Zm6.136,58.236a11.425,11.425,0,0,1,1.258.041c1.042.145,1.387-.227,1.373-1.321-.06-4.8-.025-9.6-.028-14.4,0-.34-.028-.68-.046-1.082h-4.9c-.06.125-.114.186-.114.246q.01,8.264.027,16.529l.011.161.1-.144,2.327-.026m14.961-.106a3.055,3.055,0,0,0,.246-.825q.021-10.074,0-20.149a2.429,2.429,0,0,0-.269-.751l-2.314.013-2.444-.11V82.075c0,.059.008.119.012.178l.116-.151,2.314-.034,2.34-.107m12.6-27.128h-4.8v1.094q0,5.671,0,11.342.013,7.4.04,14.8c0,.059.006.118.008.177l.119-.147,2.31-.034,2.338-.113.205-.277c.019-.382.054-.765.054-1.147q.005-11.269,0-22.538c0-.942-.034-1.883-.053-2.825l-.221-.335M19.763,72.424c.15-.232.309-.459.449-.7q4.166-7.054,8.325-14.112c1.107-1.882,2.185-3.782,3.3-5.718a2,2,0,0,0-.382-.1q-11.832.014-23.664.036H2.546c.142,1.1.289,2.119.4,3.14a28.386,28.386,0,0,0,2.388,8.311,29.341,29.341,0,0,0,5.436,8.366,69.941,69.941,0,0,0,5.6,4.952c.344.294.776.433,1.1-.162.74-1.352,1.524-2.679,2.29-4.016M32.832,24.016V18.922a30.342,30.342,0,0,0-20.192,8.42,31.084,31.084,0,0,0-10,21.725H7.787c.174.016.347.046.521.046q11.977,0,23.954-.008a5.191,5.191,0,0,0,.682-.087A3.158,3.158,0,0,0,33,48.644q0-11.98,0-23.959a2.892,2.892,0,0,0-.163-.669" transform="translate(0 0)" fill="#010101"/>
        <path id="Trazado_275567" data-name="Trazado 275567" d="M354.741,242.005q0-8.409,0-16.817c0-1.9.141-2.038,2-2.04q3.257,0,6.515,0c1.248,0,1.87.585,1.87,1.8q.009,17.132,0,34.264c0,1.222-.544,1.772-1.776,1.779-2.417.014-4.834-.017-7.25.01a1.168,1.168,0,0,1-1.315-1.134,7.012,7.012,0,0,1-.041-1.048q0-8.409,0-16.817m7.441-16.066h-2.307l-2.313,0-.161.2q-.01,13.4-.017,26.8c0,1.786.026,3.572.041,5.357l.014.177.116-.151,2.316-.034,2.336-.109a3.114,3.114,0,0,0,.241-.83q.019-15.318,0-30.637a2.523,2.523,0,0,0-.265-.764" transform="translate(-280.128 -176.212)"/>
        <path id="Trazado_275568" data-name="Trazado 275568" d="M125.189,115.267a6.719,6.719,0,0,0,6.329,9.921c2.453.023,4.907.025,7.36.034l.218.168c.2.361.418.711.59,1.084.869,1.878,1.726,3.762,2.588,5.643q-8.174,3.383-16.346,6.77c-.881.366-1.717.847-2.611,1.173a1.314,1.314,0,0,0-.989,1.567,1.582,1.582,0,0,0,1.949.942c2.667-1.1,5.322-2.227,7.982-3.342,3.376-1.415,6.754-2.827,10.246-4.289l1.029,1.769a28.726,28.726,0,0,1-.241,8.911,21.828,21.828,0,0,1-.83,2.492,5.191,5.191,0,0,0-1.512-.539c-2.308-.059-4.618-.04-6.927-.021-1.424.012-1.721.315-1.724,1.735-.01,4.129,0,8.259-.008,12.388,0,.381-.052.762-.079,1.143l-2.11.855c-.012-2.93-.052-5.86-.017-8.79a2.46,2.46,0,0,0-.89-2.085c-.039-.057-.078-.164-.117-.163q-4.246.041-8.492.1a1.759,1.759,0,0,0-.916,1.821c.022,3.841.012,7.683.007,11.524,0,.381-.048.762-.074,1.143-2.326-.136-4.678-.1-6.971-.453a18.936,18.936,0,0,1-7.622-2.695l13.57-23.138a4.249,4.249,0,0,0,.311-1.1q.027-12.81.015-25.62l6.284,1.055" transform="translate(-82.923 -90.19)" fill="#8ac9fe"/>
        <path id="Trazado_275569" data-name="Trazado 275569" d="M62.068,114.184a2.892,2.892,0,0,1,.163.669q.011,11.98,0,23.959a3.158,3.158,0,0,1-.053.375,5.189,5.189,0,0,1-.682.087q-11.977.01-23.954.008c-.174,0-.347-.03-.521-.046a26.812,26.812,0,0,1,1.67-7.944,26.367,26.367,0,0,1,8.442-11.526,25.087,25.087,0,0,1,14.933-5.582" transform="translate(-29.236 -90.168)" fill="#fe646f"/>
        <path id="Trazado_275570" data-name="Trazado 275570" d="M37.053,246.307q11.832-.019,23.664-.036a1.966,1.966,0,0,1,.382.1c-1.117,1.936-2.195,3.835-3.3,5.718q-4.152,7.063-8.325,14.112c-.14.238-.3.465-.449.7a4.686,4.686,0,0,1-.911-.415,27.487,27.487,0,0,1-7.783-8.75,26.976,26.976,0,0,1-3.276-11.426" transform="translate(-29.26 -194.473)" fill="#ffe177"/>
        <path id="Trazado_275571" data-name="Trazado 275571" d="M289.091,13.189a3.605,3.605,0,0,1,3.812,2.053c4.055,7.007,8.149,13.991,12.14,21.034a4.223,4.223,0,0,1-3.34,6.4,3.645,3.645,0,0,0-.928-.257c-3.755-.016-7.51-.007-11.266-.005L289.1,42.4q0-.5-.008-1a3.364,3.364,0,0,0,3.177-2.911,3.149,3.149,0,0,0-2.966-3.486q0-.386,0-.772a2.844,2.844,0,0,0,2.522-2.221,20.925,20.925,0,0,0,.218-2.9c.084-2.508.077-5.021.228-7.525a2.852,2.852,0,0,0-2.965-3.208q-.1-2.6-.208-5.195" transform="translate(-228.284 -10.384)" fill="#fed064"/>
        <path id="Trazado_275572" data-name="Trazado 275572" d="M226.895,34.139q0,.386,0,.772c-2.043.113-3.347,1.257-3.372,2.959a3.174,3.174,0,0,0,3.162,3.438q0,.5.008,1c-3.863,0-7.725,0-11.587.014a4.611,4.611,0,0,0-1.041.25c-1.584.127-3.1-1.118-3.792-3.03a4.046,4.046,0,0,1,.529-3.526c2.821-4.919,5.677-9.818,8.522-14.723,1.273-2.195,2.517-4.408,3.834-6.576a3.217,3.217,0,0,1,3.532-1.622q.1,2.6.208,5.195c-2.552-.173-3.528,1.528-3.384,3.572.214,3.037.329,6.081.422,9.124.063,2.063.928,3.043,2.959,3.154" transform="translate(-165.882 -10.289)" fill="#fee177"/>
        <path id="Trazado_275573" data-name="Trazado 275573" d="M42.759,95.061a25.087,25.087,0,0,0-14.933,5.582,26.367,26.367,0,0,0-8.442,11.526,26.812,26.812,0,0,0-1.67,7.944H12.571a31.084,31.084,0,0,1,10-21.725,30.342,30.342,0,0,1,20.192-8.42Z" transform="translate(-9.927 -71.044)" fill="#fc4755"/>
        <path id="Trazado_275574" data-name="Trazado 275574" d="M17.35,246.44a26.976,26.976,0,0,0,3.276,11.426,27.487,27.487,0,0,0,7.783,8.75,4.684,4.684,0,0,0,.911.415c-.766,1.337-1.55,2.665-2.29,4.016-.326.6-.757.456-1.1.162a69.9,69.9,0,0,1-5.6-4.952,29.336,29.336,0,0,1-5.436-8.366A28.374,28.374,0,0,1,12.5,249.58c-.114-1.021-.26-2.039-.4-3.14Z" transform="translate(-9.557 -194.607)" fill="#fed064"/>
        <path id="Trazado_275575" data-name="Trazado 275575" d="M94.71,351.27a18.934,18.934,0,0,0,7.622,2.695c2.293.352,4.645.317,6.971.453v4.946a29.733,29.733,0,0,1-17.336-3.581l2.744-4.513" transform="translate(-72.623 -277.388)" fill="#60b7fe"/>
        <path id="Trazado_275576" data-name="Trazado 275576" d="M307.347,287.944q-.021-7.4-.04-14.8-.01-5.671,0-11.342V260.7h2.473l.005,27.236-2.31.034a.078.078,0,0,0-.128-.03" transform="translate(-242.67 -205.871)" fill="#ccf49f"/>
        <path id="Trazado_275577" data-name="Trazado 275577" d="M319.078,287.94q0-13.618-.005-27.236H321.4l.221.335c.018.941.052,1.883.053,2.824q.007,11.269,0,22.539c0,.382-.035.765-.054,1.147l-.205.277-2.338.113" transform="translate(-251.963 -205.87)" fill="#b3e59f"/>
        <path id="Trazado_275578" data-name="Trazado 275578" d="M247.482,307.864V285.928l2.444.11q0,10.909,0,21.819l-2.314.034a.079.079,0,0,0-.129-.027" transform="translate(-195.429 -225.789)" fill="#ffe177"/>
        <path id="Trazado_275579" data-name="Trazado 275579" d="M283.071,232.568a21.84,21.84,0,0,0,.83-2.492,28.727,28.727,0,0,0,.241-8.911c.35.5.709,1,1.049,1.5.8,1.2,1.257,1.313,2.578.672.481-.234.972-.448,1.551-.713v4.008a17.192,17.192,0,0,1-2.395.215c-1.029-.042-1.388.447-1.391,1.364-.006,1.506,0,3.012,0,4.518a44.517,44.517,0,0,0,.036,5.039c.269,2.35-.7,4.134-2.27,5.945v-3.106c0-2.171.014-4.343-.01-6.514a11.532,11.532,0,0,0-.215-1.527" transform="translate(-223.533 -174.648)" fill="#60b7fe"/>
        <path id="Trazado_275580" data-name="Trazado 275580" d="M259.092,308.223q0-10.909,0-21.819l2.314-.013q.012,10.862.024,21.724l-2.34.107" transform="translate(-204.597 -226.155)" fill="#fed064"/>
        <path id="Trazado_275581" data-name="Trazado 275581" d="M270.25,173.36c-.861-1.882-1.718-3.765-2.588-5.643-.172-.372-.392-.723-.59-1.084a.536.536,0,0,0,.015-.169c1.682-.009,3.366-.049,5.046,0a1.327,1.327,0,0,1,.941.574,32.857,32.857,0,0,1,3.238,9.037c.2.852-.609.81-1.025,1.01a1.165,1.165,0,0,1-1.081-.1,16.838,16.838,0,0,1-1.591-2.408,2.019,2.019,0,0,0-2.366-1.214" transform="translate(-210.899 -131.434)" fill="#60b7fe"/>
        <path id="Trazado_275582" data-name="Trazado 275582" d="M187.413,327.247q-.015-8.265-.027-16.529c0-.06.054-.121.114-.246h2.347q0,8.383,0,16.766l-2.327.026a.073.073,0,0,0-.107-.017" transform="translate(-147.973 -245.171)" fill="#fe646f"/>
        <path id="Trazado_275583" data-name="Trazado 275583" d="M199.087,327.238q0-8.383,0-16.766h2.557c.018.4.046.742.046,1.082,0,4.8-.032,9.6.028,14.4.014,1.094-.331,1.466-1.373,1.322a11.43,11.43,0,0,0-1.258-.041" transform="translate(-157.213 -245.171)" fill="#fc4755"/>
        <path id="Trazado_275584" data-name="Trazado 275584" d="M176.442,95.122l-6.284-1.055-.245-.191V88.7l9.21,1.8-2.68,4.619" transform="translate(-134.175 -70.045)" fill="#60b7fe"/>
        <path id="Trazado_275585" data-name="Trazado 275585" d="M224.307,346.159l2.11-.855c.028,1.737.078,3.474.055,5.211,0,.234-.338.527-.588.682-.482.3-1.012.518-1.578.8Z" transform="translate(-177.129 -272.677)" fill="#60b7fe"/>
        <path id="Trazado_275586" data-name="Trazado 275586" d="M169.607,113.305l.245.191q0,12.81-.015,25.62a4.245,4.245,0,0,1-.311,1.1q0-12.83.011-25.66c0-.418.046-.835.071-1.253" transform="translate(-133.87 -89.474)" fill="#93d6ff"/>
        <path id="Trazado_275587" data-name="Trazado 275587" d="M229.083,152.49a4.611,4.611,0,0,1,1.041-.25c3.862-.019,7.725-.013,11.587-.014l.415.011q0,.145,0,.29l-13.042-.037" transform="translate(-180.9 -120.209)" fill="#ffe177"/>
        <path id="Trazado_275588" data-name="Trazado 275588" d="M291.089,152.553q0-.145,0-.29c3.755,0,7.51-.011,11.266.005a3.637,3.637,0,0,1,.928.257c-1.979.031-3.959.082-5.938.086-2.086,0-4.172-.037-6.258-.058" transform="translate(-229.865 -120.234)" fill="#fee177"/>
        <path id="Trazado_275589" data-name="Trazado 275589" d="M270.128,308.117q-.012-10.862-.024-21.724a2.43,2.43,0,0,1,.269.751q.022,10.074,0,20.149a3.053,3.053,0,0,1-.246.825" transform="translate(-213.293 -226.156)" fill="#fee177"/>
        <path id="Trazado_275590" data-name="Trazado 275590" d="M179.064,296.986q4.246-.053,8.492-.1c.038,0,.078.106.117.163l-8.609-.065" transform="translate(-141.402 -234.444)" fill="#93d6ff"/>
        <path id="Trazado_275591" data-name="Trazado 275591" d="M330.365,261.039l-.221-.335.221.335" transform="translate(-260.705 -205.87)" fill="#ccf49f"/>
        <path id="Trazado_275592" data-name="Trazado 275592" d="M266.271,166.553a.536.536,0,0,1-.015.169l-.218-.168h.233" transform="translate(-210.083 -131.522)" fill="#6491b8"/>
        <path id="Trazado_275593" data-name="Trazado 275593" d="M330.215,388.615l.205-.277-.205.277" transform="translate(-260.761 -306.659)" fill="#ccf49f"/>
        <path id="Trazado_275594" data-name="Trazado 275594" d="M187.515,390.169a.073.073,0,0,1,.107.017l-.1.144-.011-.161" transform="translate(-148.075 -308.092)" fill="#bf4b53"/>
        <path id="Trazado_275595" data-name="Trazado 275595" d="M247.482,390.138a.079.079,0,0,1,.129.027l-.116.151c0-.059-.008-.119-.012-.178" transform="translate(-195.429 -308.063)" fill="#b6a055"/>
        <path id="Trazado_275596" data-name="Trazado 275596" d="M307.508,390.134a.078.078,0,0,1,.128.03l-.119.147-.008-.177" transform="translate(-242.83 -308.06)" fill="#8fab70"/>
        <path id="Trazado_275597" data-name="Trazado 275597" d="M367.349,268.76c-.014-1.786-.041-3.572-.041-5.357q0-13.4.017-26.8l.161-.2,2.313,0q0,16.171,0,32.342l-2.316.034a.084.084,0,0,0-.131-.026" transform="translate(-290.053 -186.684)" fill="#8ac9fe"/>
        <path id="Trazado_275598" data-name="Trazado 275598" d="M379.134,268.763q0-16.171,0-32.342h2.307q.013,16.116.025,32.231l-2.336.109" transform="translate(-299.391 -186.695)" fill="#60b7fe"/>
        <path id="Trazado_275599" data-name="Trazado 275599" d="M390.147,268.658l-.025-32.231a2.525,2.525,0,0,1,.265.764q.021,15.318,0,30.637a3.12,3.12,0,0,1-.241.83" transform="translate(-308.068 -186.7)" fill="#6fbdfe"/>
        <path id="Trazado_275600" data-name="Trazado 275600" d="M367.551,236.407l-.161.2.161-.2" transform="translate(-290.117 -186.684)" fill="#6491b8"/>
        <path id="Trazado_275601" data-name="Trazado 275601" d="M367.5,390.151a.084.084,0,0,1,.131.026l-.116.152-.014-.177" transform="translate(-290.206 -308.075)" fill="#6491b8"/>
        <path id="Trazado_275602" data-name="Trazado 275602" d="M277.336,53.836c-2.031-.111-2.9-1.091-2.959-3.154-.093-3.043-.208-6.088-.422-9.124-.144-2.044.832-3.745,3.384-3.572a2.851,2.851,0,0,1,2.964,3.208c-.15,2.5-.143,5.017-.228,7.525a20.854,20.854,0,0,1-.218,2.9,2.843,2.843,0,0,1-2.521,2.222m-.2-13.051c-.145.235-.418.473-.414.706.048,3.066.132,6.132.219,9.2,0,.126.118.249.18.373l.249-.039V46.027c.045-1.717.093-3.433.121-5.15,0-.029-.231-.061-.354-.091" transform="translate(-216.324 -29.986)"/>
        <path id="Trazado_275603" data-name="Trazado 275603" d="M277.214,123.459a3.174,3.174,0,0,1-3.162-3.438c.026-1.7,1.329-2.846,3.372-2.959a3.149,3.149,0,0,1,2.966,3.486,3.365,3.365,0,0,1-3.177,2.911" transform="translate(-216.41 -92.44)" fill="#010101"/>
        <path id="Trazado_275604" data-name="Trazado 275604" d="M287.805,56.585v4.995l-.249.039c-.063-.124-.177-.247-.18-.373-.086-3.066-.171-6.131-.219-9.2,0-.233.27-.47.414-.706,0,1.217-.025,2.434.008,3.65a13.513,13.513,0,0,0,.226,1.591" transform="translate(-226.76 -40.544)" fill="#fe646f"/>
        <path id="Trazado_275605" data-name="Trazado 275605" d="M289.324,56.585a13.526,13.526,0,0,1-.226-1.591c-.033-1.216-.009-2.433-.008-3.65.123.031.355.063.354.091-.028,1.717-.075,3.434-.121,5.15" transform="translate(-228.279 -40.544)" fill="#fc4755"/>
      </g>
    </g>
  </g>
</svg>
