<svg id="Grupo_257467" data-name="Grupo 257467" xmlns="http://www.w3.org/2000/svg" xmlns:xlink="http://www.w3.org/1999/xlink" width="59.926" height="68.82" viewBox="0 0 59.926 68.82">
  <defs>
    <clipPath id="clip-path">
      <rect id="Rectángulo_323584" data-name="Rectángulo 323584" width="59.926" height="68.82" fill="none"/>
    </clipPath>
  </defs>
  <g id="Grupo_257466" data-name="Grupo 257466" clip-path="url(#clip-path)">
    <path id="Trazado_275606" data-name="Trazado 275606" d="M.005,34.418q0-15.44-.005-30.88A3.384,3.384,0,0,1,3.481,0q6.755.009,13.51,0Q32.248,0,47.5,0A1.51,1.51,0,0,1,48.64.469q5.179,5.2,10.365,10.391c.15.15.3.3.458.441a1.342,1.342,0,0,1,.458,1.1q0,7.8,0,15.605,0,18.651.006,37.3a3.409,3.409,0,0,1-2.244,3.306,3.933,3.933,0,0,1-1.281.2q-12.39,0-24.78,0-14.037,0-28.075.008A3.442,3.442,0,0,1,.162,66.492a3.863,3.863,0,0,1-.15-1.216C0,61.74.005,58.2.005,54.668V34.418M2.242,6.706l-.012,0-.014.047q0,.13.008.261s-.013.011-.012.014a.177.177,0,0,0,.013.033v.128s-.013.01-.013.014a.183.183,0,0,0,.012.033q0,.152,0,.3s-.013.01-.012.014a.2.2,0,0,0,.012.033c0,.043,0,.085,0,.128,0,0-.013.01-.012.014a.181.181,0,0,0,.012.033c0,.043,0,.085,0,.128,0,0-.013.01-.012.014a.186.186,0,0,0,.012.033c0,.043,0,.085,0,.128,0,0-.013.01-.012.014a.183.183,0,0,0,.012.033c0,.043,0,.085,0,.128,0,0-.013.01-.012.014a.169.169,0,0,0,.012.033q0,1.817,0,3.635s-.013.01-.012.014a.186.186,0,0,0,.012.033c0,.043,0,.085,0,.128,0,0-.013.01-.012.014a.186.186,0,0,0,.012.033c0,.043,0,.085,0,.128,0,0-.013.011-.012.014a.183.183,0,0,0,.012.033q0,.305,0,.61s-.013.011-.012.014a.2.2,0,0,0,.015.033c-.04.352-.04.351.25.351l18.79,0c.3,0,.6-.006.9-.009l.035-.122c0-.584-.012-1.169-.012-1.753q0-2.257.006-4.514s.014-.01.013-.014a.188.188,0,0,0-.012-.034l0-.085-.018-.088-.01,0L22.1,6.669c-.036,0-.073,0-.109,0H2.94c-.219,0-.438.006-.657.009l-.04.033M2.223,15.74c0,.051,0,.1,0,.153q0,8.152,0,16.3,0,16.535-.01,33.07A1.256,1.256,0,0,0,3.544,66.6q26.447-.025,52.895-.012c.051,0,.1,0,.154,0a1.11,1.11,0,0,0,1.1-1.06c.013-.226.007-.453.007-.679q0-23.827,0-47.653c0-1.27.008-2.54.012-3.81l-.035-.048c-.1,0-.2-.009-.307-.009q-4.877,0-9.753,0a.558.558,0,0,1-.207-.038,1.111,1.111,0,0,1-.8-1.2q0-4.789,0-9.577V2.234H3.4a1.093,1.093,0,0,0-1.155.95,7.5,7.5,0,0,0-.049.975c-.006.292,0,.292.287.293l14.718,0q2.987,0,5.975,0a1.123,1.123,0,0,1,1.244,1.232q0,4.317,0,8.635a1.406,1.406,0,0,1-.106.572,1.188,1.188,0,0,1-1.2.668H2.461a1.249,1.249,0,0,0-.2,0c-.022,0-.038.049-.057.075ZM56.114,11.1,48.819,3.854v.32q0,3.362-.007,6.723c0,.169.053.21.214.209q3.216-.007,6.431,0h.657" transform="translate(0 0)"/>
    <path id="Trazado_275607" data-name="Trazado 275607" d="M68,23.857c0,1.27-.012,2.54-.012,3.81q0,23.826,0,47.653c0,.226.007.453-.007.679a1.11,1.11,0,0,1-1.1,1.06c-.051,0-.1,0-.154,0q-26.447,0-52.895.012A1.257,1.257,0,0,1,12.5,75.743q.021-16.535.01-33.07,0-8.152,0-16.3c0-.051,0-.1,0-.153l-.017-.1c.019-.026.035-.071.057-.075a1.228,1.228,0,0,1,.2,0H33.4a1.188,1.188,0,0,0,1.2-.668,1.4,1.4,0,0,0,.106-.572q.009-4.317,0-8.635a1.123,1.123,0,0,0-1.243-1.232q-2.987,0-5.975,0l-14.718,0c-.286,0-.293,0-.287-.292a7.5,7.5,0,0,1,.049-.975,1.093,1.093,0,0,1,1.155-.95H56.9v.268q0,4.789,0,9.577a1.111,1.111,0,0,0,.8,1.2.55.55,0,0,0,.206.038q4.877,0,9.753,0c.1,0,.2.006.307.009l.035.048m-52.177,51c.077.075.142.192.233.217a2.051,2.051,0,0,0,.541.055q5.083-.017,10.166-.04c.386,0,.773.04,1.159.04q9.96-.018,19.919-.04c.379,0,.758.04,1.137.04q5.624,0,11.248,0c1.309,0,2.618-.026,3.927-.043a.552.552,0,0,0,.483-.225,2.607,2.607,0,0,0,.361-.08,1.138,1.138,0,0,0,.769-1.258q0-16.459,0-32.917A1.171,1.171,0,0,0,64.5,39.336q-15.992.007-31.984.006-8.26,0-16.519-.007a1.164,1.164,0,0,0-1.261,1.216q.011,14.308.005,28.615c0,1.461,0,2.921,0,4.382a1.125,1.125,0,0,0,.382,1,3.463,3.463,0,0,0,.708.306M50.25,20.47l2.222-1.979c.606-.54,1.22-1.072,1.817-1.621a1.064,1.064,0,0,0,.294-1.25,1.044,1.044,0,0,0-1.024-.689c-1.838,0-3.675,0-5.513,0a1.157,1.157,0,0,0-.8.308c-.425.38-.857.753-1.274,1.142-.126.118-.2.12-.327.007-.378-.345-.772-.672-1.146-1.022a1.54,1.54,0,0,0-1.126-.441c-1.611.015-3.221.005-4.832.007-.22,0-.44,0-.658.013a1.135,1.135,0,0,0-.971,1.022,1.223,1.223,0,0,0,.491,1L40.6,19.8c.243.216.485.434.789.706a2.1,2.1,0,0,0-.245.158q-1.874,1.656-3.744,3.316a1.756,1.756,0,0,0-.292.324,1.018,1.018,0,0,0-.052,1.136,1.062,1.062,0,0,0,.957.582c1.772.011,3.543,0,5.315.015a1.583,1.583,0,0,0,1.148-.439c.369-.344.76-.664,1.126-1.011.156-.147.251-.126.4.011.378.356.778.687,1.159,1.04a1.451,1.451,0,0,0,1.036.4c1.779,0,3.558.007,5.337-.008a1.083,1.083,0,0,0,1.086-.814,1.143,1.143,0,0,0-.423-1.227q-1.479-1.308-2.955-2.619c-.327-.29-.649-.586-1-.9M22.523,28.238v0H18.568c-.864,0-1.728-.005-2.592,0a1.119,1.119,0,0,0-1.238,1.152q-.009,3.265,0,6.53a1.361,1.361,0,0,0,.1.524,1.1,1.1,0,0,0,1.106.673q6.546,0,13.092,0a1.127,1.127,0,0,0,1.229-1.245q0-3.211,0-6.421a1.132,1.132,0,0,0-1.218-1.211H22.523M40.23,37.119h0q3.262,0,6.524,0a1.136,1.136,0,0,0,1.263-1.256c0-2.14-.006-4.281,0-6.422a1.149,1.149,0,0,0-1.21-1.2q-6.206,0-12.412,0c-.242,0-.483-.008-.725,0A1.115,1.115,0,0,0,32.489,29.4q-.007,3.254,0,6.508a1.337,1.337,0,0,0,.083.507,1.16,1.16,0,0,0,1.2.706c2.153-.006,4.305,0,6.458,0m17.759,0q3.262,0,6.524,0a1.136,1.136,0,0,0,1.255-1.264q0-3.2,0-6.4a1.132,1.132,0,0,0-1.215-1.215l-12.412,0c-.242,0-.483-.009-.725,0a1.11,1.11,0,0,0-1.175,1.147q-.009,3.265,0,6.53a1.326,1.326,0,0,0,.086.506,1.124,1.124,0,0,0,1.137.7q3.262,0,6.524,0" transform="translate(-10.289 -10.476)" fill="#dddcdd"/>
    <path id="Trazado_275608" data-name="Trazado 275608" d="M12.65,37.928c.219,0,.438-.009.657-.009H32.355c.037,0,.073,0,.109,0l.078.041.01,0,.018.088,0,.085c0,.016,0,.032,0,.047q0,2.257-.006,4.514c0,.584.008,1.169.012,1.753l-.035.122c-.3,0-.6.009-.9.009l-18.79,0c-.29,0-.29,0-.25-.351,0-.016,0-.031,0-.047q0-.305,0-.61c0-.016,0-.032,0-.047,0-.043,0-.085,0-.128,0-.016,0-.032,0-.047,0-.043,0-.085,0-.128,0-.016,0-.032,0-.047q0-1.817,0-3.635c0-.016,0-.032,0-.047,0-.043,0-.085,0-.128,0-.016,0-.032,0-.047,0-.043,0-.085,0-.128,0-.016,0-.032,0-.047,0-.043,0-.085,0-.128,0-.016,0-.032,0-.048,0-.043,0-.085,0-.128,0-.016,0-.032,0-.047q0-.152,0-.3c0-.016,0-.032,0-.048,0-.043,0-.085,0-.128,0-.016,0-.032,0-.047q0-.13-.008-.261l.014-.047.012,0,.04-.033m17.661,4.415,0-.006.035-.213c0-.043,0-.086,0-.129,0-.016,0-.032,0-.047q0-.327,0-.654c0-.016,0-.032,0-.047q0-.437,0-.874l-.01-.062-.007-.1c0-.006.011-.014.009-.017a.171.171,0,0,0-.023-.025c-.08,0-.16-.012-.24-.012l-3.095,0q-5.948,0-11.9,0a.974.974,0,0,0-.249.067l-.013.062q0,.963,0,1.927l.038.123c.292.008.584.024.875.024q7.159,0,14.317,0h.1l.12,0,.048-.014" transform="translate(-10.367 -31.255)" fill="#6bc13a"/>
    <path id="Trazado_275609" data-name="Trazado 275609" d="M285.034,29.177h-.657q-3.216,0-6.431,0c-.16,0-.214-.04-.214-.209q.01-3.362.007-6.723v-.32l7.295,7.249" transform="translate(-228.92 -18.074)" fill="#cbcbcb"/>
    <path id="Trazado_275610" data-name="Trazado 275610" d="M126.141,75.189l.035-.122-.035.122" transform="translate(-103.972 -61.874)" fill="#21320e"/>
    <path id="Trazado_275611" data-name="Trazado 275611" d="M125.81,37.984l-.078-.041.078.041" transform="translate(-103.634 -31.274)" fill="#549b2c"/>
    <path id="Trazado_275612" data-name="Trazado 275612" d="M126.247,38.24l-.018-.088.018.088" transform="translate(-104.044 -31.447)" fill="#21320e"/>
    <path id="Trazado_275613" data-name="Trazado 275613" d="M12.551,88.978l.017.1-.017-.1" transform="translate(-10.345 -73.34)" fill="#595858"/>
    <path id="Trazado_275614" data-name="Trazado 275614" d="M12.585,44.874c0,.016,0,.032,0,.047a.2.2,0,0,1-.012-.033s.008-.009.012-.014" transform="translate(-10.363 -36.987)" fill="#21320e"/>
    <path id="Trazado_275615" data-name="Trazado 275615" d="M12.61,73.557c0,.016,0,.031,0,.047a.188.188,0,0,1-.015-.033s.008-.009.012-.014" transform="translate(-10.384 -60.629)" fill="#21320e"/>
    <path id="Trazado_275616" data-name="Trazado 275616" d="M12.585,69.815c0,.016,0,.032,0,.048a.206.206,0,0,1-.012-.033s.008-.01.012-.014" transform="translate(-10.363 -57.545)" fill="#21320e"/>
    <path id="Trazado_275617" data-name="Trazado 275617" d="M12.585,46.869c0,.016,0,.032,0,.047a.186.186,0,0,1-.012-.033s.008-.009.012-.014" transform="translate(-10.363 -38.632)" fill="#21320e"/>
    <path id="Trazado_275618" data-name="Trazado 275618" d="M12.585,45.872c0,.016,0,.032,0,.047a.186.186,0,0,1-.012-.033s.008-.009.012-.014" transform="translate(-10.363 -37.81)" fill="#21320e"/>
    <path id="Trazado_275619" data-name="Trazado 275619" d="M12.585,68.818v.047a.187.187,0,0,1-.013-.033s.008-.009.012-.014" transform="translate(-10.363 -56.723)" fill="#21320e"/>
    <path id="Trazado_275620" data-name="Trazado 275620" d="M12.585,43.876c0,.016,0,.032,0,.047a.186.186,0,0,1-.012-.033s.008-.009.012-.014" transform="translate(-10.363 -36.165)" fill="#21320e"/>
    <path id="Trazado_275621" data-name="Trazado 275621" d="M12.585,42.879c0,.016,0,.032,0,.047a.2.2,0,0,1-.012-.033s.008-.009.012-.014" transform="translate(-10.363 -35.343)" fill="#21320e"/>
    <path id="Trazado_275622" data-name="Trazado 275622" d="M12.585,67.82c0,.016,0,.032,0,.047a.2.2,0,0,1-.012-.033s.008-.009.012-.014" transform="translate(-10.363 -55.901)" fill="#21320e"/>
    <path id="Trazado_275623" data-name="Trazado 275623" d="M12.592,40.883c0,.016,0,.032,0,.047a.183.183,0,0,1-.012-.033s.008-.009.013-.014" transform="translate(-10.369 -33.698)" fill="#21320e"/>
    <path id="Trazado_275624" data-name="Trazado 275624" d="M12.6,39.886c0,.016,0,.032,0,.047a.189.189,0,0,1-.013-.033s.008-.009.012-.014" transform="translate(-10.373 -32.876)" fill="#21320e"/>
    <path id="Trazado_275625" data-name="Trazado 275625" d="M126.305,39.185c0-.016,0-.032,0-.047a.189.189,0,0,1,.012.034s-.008.009-.013.014" transform="translate(-104.107 -32.259)" fill="#21320e"/>
    <path id="Trazado_275626" data-name="Trazado 275626" d="M328.22,75.908l-.035-.048.035.048" transform="translate(-270.506 -62.527)" fill="#595858"/>
    <path id="Trazado_275627" data-name="Trazado 275627" d="M12.623,38.134l-.014.047.014-.047" transform="translate(-10.393 -31.432)" fill="#21320e"/>
    <path id="Trazado_275628" data-name="Trazado 275628" d="M12.8,37.969l-.04.033.04-.033" transform="translate(-10.515 -31.296)" fill="#549b2c"/>
    <path id="Trazado_275629" data-name="Trazado 275629" d="M26.376,199.729a3.448,3.448,0,0,1-.708-.306,1.125,1.125,0,0,1-.382-1c.005-1.461,0-2.921,0-4.382q0-14.308-.006-28.615a1.164,1.164,0,0,1,1.261-1.216q8.259.015,16.519.006,15.992,0,31.984-.006a1.171,1.171,0,0,1,1.274,1.269q-.012,16.459,0,32.917a1.138,1.138,0,0,1-.769,1.258,2.608,2.608,0,0,1-.361.08c-.073,0-.145-.011-.218-.011H27.078c-.234,0-.468,0-.7.006M60.8,170.82a.765.765,0,0,0,.179.044q6.083,0,12.166,0a6.856,6.856,0,0,1,.724.006c.2.021.231-.047.23-.226-.008-1.307-.006-2.614,0-3.922,0-.3,0-.3-.289-.3H60.787v4.288l.014.1m-.012,19.887.023.1a.8.8,0,0,0,.162.033q6.536,0,13.072,0l.048-.035a.586.586,0,0,0,.013-.086c0-1.359-.009-2.717,0-4.076,0-.2-.049-.244-.242-.243q-6.315.009-12.631.006h-.442v4.3m0-13.327.017.1a1.068,1.068,0,0,0,.2.04q4.919,0,9.837,0c1.032,0,2.064,0,3.1.006.178,0,.157-.1.157-.212q0-1.939,0-3.877c0-.383.085-.354-.361-.354H60.787Zm.035,2.374-.031.048q0,2.121,0,4.242l.02.1c.069.167.187.03.271.03q6.411.014,12.822.013c.173,0,.2-.054.2-.214-.007-1.314-.006-2.629,0-3.943,0-.283.005-.283-.279-.283H61.5c-.226,0-.453,0-.679.005m-.006,17.711A1.035,1.035,0,0,0,61,197.5q6.073,0,12.146,0c.3,0,.6-.007.9-.011l.036-.029a.3.3,0,0,0,.025-.082c0-1.373-.008-2.745,0-4.118,0-.2-.1-.2-.241-.2q-6.072,0-12.143.006a4.191,4.191,0,0,1-.679-.005c-.249-.041-.253.069-.252.258,0,1.351,0,2.7,0,4.053l.027.1M43.05,170.82a.765.765,0,0,0,.179.044q7.236,0,14.473,0h.834a1.813,1.813,0,0,0,.03-.241c0-1.329,0-2.658,0-3.987,0-.154-.037-.215-.209-.215q-7.5.007-15,0h-.327v4.288Zm-.015,13.223.02.1c.077.174.2.026.293.028,1.046.016,2.093.012,3.14.012l11.747,0c.334,0,.334,0,.335-.339,0-1.3,0-2.6,0-3.9,0-.157-.048-.2-.2-.2q-7.278.005-14.557,0c-.248,0-.5,0-.745.006l-.031.048q0,2.121,0,4.242m0-6.663.017.1a1.083,1.083,0,0,0,.2.04q1.779,0,3.558,0H58.54a2.224,2.224,0,0,0,.027-.249c0-1.314,0-2.629.006-3.943,0-.19-.039-.25-.239-.249q-7.5.008-15,0h-.3Zm.025,13.426a1.591,1.591,0,0,0,.228.033q7.544,0,15.088.008c.164,0,.2-.057.2-.2q-.005-2.027,0-4.053c0-.14-.03-.187-.183-.187q-7.423.007-14.846,0h-.506v4.3l.023.1m-.023,6.564.027.1a1.041,1.041,0,0,0,.184.033q7.227,0,14.454,0h.831c.012-.117.033-.229.033-.34q0-1.907,0-3.813c0-.282,0-.281-.276-.281l-14.323,0a4.889,4.889,0,0,1-.7-.005c-.225-.033-.233.059-.232.235,0,1.359,0,2.717,0,4.076M27.525,177.538H40.794c.009-.1.022-.19.022-.275,0-1.322,0-2.644,0-3.967,0-.171-.051-.21-.211-.209q-6.437.005-12.873,0c-.071,0-.141.007-.212.011Zm-.009,8.871c0,.074-.008.123-.008.172,0,1.337.005,2.674,0,4.011,0,.205.05.253.254.253q6.437-.008,12.874,0c.17,0,.19-.068.19-.207q0-2.027,0-4.054c0-.148-.045-.181-.19-.181q-6.415.007-12.83,0Zm.024-6.66c-.02.042-.032.055-.032.068q0,2.114,0,4.228c0,.127.064.139.166.138.278,0,.556,0,.834,0l11.97,0c.343,0,.344,0,.344-.352,0-1.293,0-2.585,0-3.878,0-.172-.057-.206-.216-.205q-6.292.005-12.585,0H27.54m-.022-8.882H40.789a1.333,1.333,0,0,0,.028-.192q0-2.027,0-4.054c0-.13-.033-.194-.186-.194q-6.469.006-12.939,0c-.056,0-.113.011-.178.018ZM40.784,197.5c.012-.118.032-.23.033-.342q0-1.905,0-3.811c0-.282,0-.281-.275-.281l-9.858,0c-1,0-2.005,0-3.008-.009-.156,0-.174.065-.173.2,0,1.343.007,2.687,0,4.03,0,.18.05.219.222.219q6.06-.006,12.12,0h.939" transform="translate(-20.839 -135.349)"/>
    <path id="Trazado_275630" data-name="Trazado 275630" d="M164.823,30.852c.346.313.669.608,1,.9q1.476,1.311,2.955,2.619A1.143,1.143,0,0,1,169.2,35.6a1.083,1.083,0,0,1-1.087.814c-1.779.015-3.558,0-5.337.008a1.45,1.45,0,0,1-1.036-.4c-.381-.353-.781-.685-1.159-1.04-.146-.137-.241-.159-.4-.011-.366.346-.758.667-1.127,1.011a1.582,1.582,0,0,1-1.148.439c-1.772-.012-3.544,0-5.315-.015a1.063,1.063,0,0,1-.957-.582,1.018,1.018,0,0,1,.052-1.136,1.75,1.75,0,0,1,.292-.324q1.869-1.662,3.744-3.316a2.075,2.075,0,0,1,.245-.158c-.3-.272-.546-.49-.789-.706l-3.2-2.839a1.223,1.223,0,0,1-.491-1,1.135,1.135,0,0,1,.971-1.022c.219-.017.439-.013.658-.013,1.611,0,3.222.008,4.832-.007a1.541,1.541,0,0,1,1.126.441c.373.349.768.677,1.146,1.022.123.112.2.11.327-.007.417-.389.848-.762,1.274-1.142a1.156,1.156,0,0,1,.8-.308c1.838,0,3.675,0,5.513,0a1.043,1.043,0,0,1,1.024.689,1.063,1.063,0,0,1-.294,1.25c-.6.549-1.211,1.081-1.817,1.621l-2.222,1.979m-9.171-3.3h0l-.058.043.066.063c.073.06.147.118.218.181q1.934,1.716,3.867,3.434,1.523,1.354,3.043,2.713a.713.713,0,0,0,.531.2c.512-.014,1.024,0,1.536-.005h.352c-.087-.093-.122-.137-.163-.173q-1.015-.9-2.031-1.8-2.236-1.987-4.473-3.974c-.261-.231-.533-.45-.8-.675l-.054-.022-1.845-.007h-.045l-.087,0-.052.021m9.518.028a1.957,1.957,0,0,0-.312-.054c-.548-.007-1.1-.007-1.644,0a.389.389,0,0,0-.228.051c-.313.258-.617.528-.944.812.323.29.625.551.914.825a.237.237,0,0,0,.387,0c.6-.544,1.2-1.075,1.827-1.63m-9.615,6.578a1.43,1.43,0,0,0,.154.023c.636,0,1.271,0,1.906,0a.4.4,0,0,0,.231-.1c.257-.216.505-.441.754-.665a.685.685,0,0,0,.086-.121c-.318-.279-.629-.544-.929-.819-.125-.115-.214-.1-.334.009-.259.246-.531.478-.8.716l-1.072.957" transform="translate(-124.862 -20.858)" fill="#000100"/>
    <path id="Trazado_275631" data-name="Trazado 275631" d="M33.085,101.064h6.524a1.133,1.133,0,0,1,1.218,1.212q0,3.211,0,6.422a1.127,1.127,0,0,1-1.229,1.245q-6.546.005-13.092,0a1.1,1.1,0,0,1-1.106-.673,1.364,1.364,0,0,1-.1-.524q-.01-3.265,0-6.53a1.119,1.119,0,0,1,1.238-1.152c.864,0,1.728,0,2.592,0h3.954ZM38.6,107.68l.009-.137c0-.031,0-.061,0-.092,0-1.311-.006-2.622,0-3.933,0-.188-.057-.243-.236-.233-.247.014-.5.008-.744.011-.029,0-.058-.007-.088-.007q-4.918,0-9.836,0a.824.824,0,0,0-.185.043c-.006,0-.016.007-.016.011a.183.183,0,0,0,0,.036q0,2.037.007,4.073v.09c-.021.177.093.179.221.179.8,0,1.608,0,2.411,0l4.362-.01,4.045.009.046-.037" transform="translate(-20.851 -83.302)"/>
    <path id="Trazado_275632" data-name="Trazado 275632" d="M134.041,109.94c-2.153,0-4.305,0-6.458,0a1.161,1.161,0,0,1-1.2-.706,1.337,1.337,0,0,1-.083-.507q-.008-3.254,0-6.508a1.115,1.115,0,0,1,1.184-1.162c.241-.007.483,0,.725,0q6.206,0,12.412,0a1.149,1.149,0,0,1,1.21,1.2c-.009,2.14,0,4.281,0,6.421a1.135,1.135,0,0,1-1.262,1.256q-3.262,0-6.524,0Zm5.571-2.493c0-1.312-.006-2.624,0-3.935,0-.167-.033-.241-.215-.232-.269.014-.54.009-.81.012-.036,0-.073-.007-.109-.007q-4.886,0-9.771,0a.825.825,0,0,0-.185.043c-.006,0-.016.007-.017.011a.188.188,0,0,0,0,.035l.008.087v.22c0,.058,0,.116,0,.173,0,0-.014.01-.013.014a.2.2,0,0,0,.013.033q0,1.774,0,3.548c0,.03,0,.06,0,.089-.02.2.115.179.243.179q2.291,0,4.583,0c.65,0,1.3-.009,1.951-.013.058,0,.116.012.174.012h4.09l.046-.035q.005-.07.01-.139c0-.03,0-.06,0-.091" transform="translate(-104.1 -83.297)"/>
    <path id="Trazado_275633" data-name="Trazado 275633" d="M235.049,109.939q-3.262,0-6.524,0a1.124,1.124,0,0,1-1.137-.7,1.324,1.324,0,0,1-.086-.506q-.008-3.265,0-6.53a1.11,1.11,0,0,1,1.175-1.147c.242-.008.483,0,.725,0l12.412,0a1.132,1.132,0,0,1,1.215,1.215q0,3.2,0,6.4a1.136,1.136,0,0,1-1.255,1.264q-3.262,0-6.524,0m1.07-2.22,0-.014,4.442.008.053-.043c0-.045,0-.089,0-.134s0-.088,0-.132q0-1.884,0-3.767s.014-.011.013-.014a.18.18,0,0,0-.013-.033c0-.309,0-.31-.3-.306l-.676.01c-.036,0-.073-.008-.109-.008q-4.909,0-9.818,0a.808.808,0,0,0-.184.044q0,.176,0,.351c0,.044,0,.088,0,.131a.912.912,0,0,0-.031.167q0,1.3,0,2.6a.949.949,0,0,0,.03.167v.087c0,.03,0,.059,0,.089v.13s-.014.01-.014.013a.189.189,0,0,0,.014.033q0,.153,0,.305l0,.132.059.182.041.006h.22c.343,0,.686-.008,1.028-.007l4.16.008h1.1" transform="translate(-187.349 -83.296)"/>
    <path id="Trazado_275634" data-name="Trazado 275634" d="M31.5,366.284c.234,0,.468-.006.7-.006H80.1c.073,0,.145.007.218.011a.552.552,0,0,1-.483.225c-1.309.016-2.618.041-3.927.043q-5.624.009-11.248,0c-.379,0-.758-.041-1.137-.04q-9.96.018-19.919.04c-.386,0-.773-.041-1.159-.04q-5.083.016-10.166.04a2.06,2.06,0,0,1-.541-.055c-.091-.025-.156-.142-.233-.217" transform="translate(-25.967 -301.904)" fill="#e5e5e5"/>
    <path id="Trazado_275635" data-name="Trazado 275635" d="M40.818,51.756q0,.327,0,.654s-.013.011-.012.014a.183.183,0,0,0,.014.033c0,.043,0,.086,0,.129l-.035.213,0,.006-.048.014-.12,0h-.1q-7.159,0-14.317,0c-.292,0-.584-.016-.875-.024l-.038-.123q0-.963,0-1.927l.013-.062a.975.975,0,0,1,.248-.067q5.948-.006,11.9,0l3.095,0c.08,0,.16.008.24.012l.014.042.007.1.01.062q0,.437,0,.874s-.013.01-.012.014a.186.186,0,0,0,.012.033" transform="translate(-20.844 -41.718)"/>
    <path id="Trazado_275636" data-name="Trazado 275636" d="M113.463,62.056l.035-.213-.035.213" transform="translate(-93.522 -50.974)" fill="#21320e"/>
    <path id="Trazado_275637" data-name="Trazado 275637" d="M25.289,62.339l.038.123-.038-.123" transform="translate(-20.844 -51.383)" fill="#21320e"/>
    <path id="Trazado_275638" data-name="Trazado 275638" d="M111.946,63.18h0" transform="translate(-92.271 -52.076)" fill="#376519"/>
    <path id="Trazado_275639" data-name="Trazado 275639" d="M113.473,50.732l-.014-.042a.184.184,0,0,1,.023.025s-.006.011-.009.017" transform="translate(-93.518 -41.781)" fill="#21320e"/>
    <path id="Trazado_275640" data-name="Trazado 275640" d="M25.327,51.021l-.013.062.013-.062" transform="translate(-20.865 -42.054)" fill="#21320e"/>
    <path id="Trazado_275641" data-name="Trazado 275641" d="M113.586,51.583l-.01-.062.01.062" transform="translate(-93.615 -42.466)" fill="#21320e"/>
    <path id="Trazado_275642" data-name="Trazado 275642" d="M113.2,63.1l.048-.014-.048.014" transform="translate(-93.305 -51.999)" fill="#376519"/>
    <path id="Trazado_275643" data-name="Trazado 275643" d="M113.585,56.894a.186.186,0,0,1-.012-.033s.008-.009.012-.014c0,.016,0,.031,0,.047" transform="translate(-93.612 -46.856)" fill="#21320e"/>
    <path id="Trazado_275644" data-name="Trazado 275644" d="M113.589,60.885a.183.183,0,0,1-.014-.033s.008-.01.012-.014l0,.047" transform="translate(-93.615 -50.146)" fill="#21320e"/>
    <path id="Trazado_275645" data-name="Trazado 275645" d="M126.305,332.645c0-1.359,0-2.717,0-4.076,0-.175.008-.267.232-.235a4.891,4.891,0,0,0,.7.005l14.323,0c.278,0,.276,0,.276.281q0,1.906,0,3.813c0,.112-.021.224-.033.34h-.831q-7.227,0-14.454,0a1.036,1.036,0,0,1-.184-.033l-.027-.1" transform="translate(-104.107 -270.624)" fill="#b5b4b5"/>
    <path id="Trazado_275646" data-name="Trazado 275646" d="M126.306,294.8v-4.3h.507q7.423,0,14.846,0c.153,0,.184.047.183.187q-.007,2.026,0,4.053c0,.145-.031.2-.2.2q-7.544-.008-15.088-.008a1.567,1.567,0,0,1-.228-.033l-.023-.1" transform="translate(-104.108 -239.443)" fill="#b5b4b5"/>
    <path id="Trazado_275647" data-name="Trazado 275647" d="M126.294,219.009v-4.292h.3q7.5,0,15,0c.2,0,.24.059.238.249-.009,1.314,0,2.629-.006,3.943a2.228,2.228,0,0,1-.027.249H130.072q-1.779,0-3.558,0a1.08,1.08,0,0,1-.2-.04l-.017-.1" transform="translate(-104.098 -176.977)" fill="#b5b5b5"/>
    <path id="Trazado_275648" data-name="Trazado 275648" d="M126.328,252.623c.248,0,.5-.005.745-.005q7.278,0,14.557,0c.153,0,.2.041.2.2-.006,1.3,0,2.6,0,3.9,0,.339,0,.339-.335.339l-11.747,0c-1.047,0-2.093,0-3.14-.012-.091,0-.216.147-.293-.028l-.02-.1q0-2.121,0-4.242l.031-.048" transform="translate(-104.097 -208.218)" fill="#b5b5b5"/>
    <path id="Trazado_275649" data-name="Trazado 275649" d="M126.3,181.116v-4.288h.327q7.5,0,15,0c.172,0,.209.062.209.215,0,1.329,0,2.658,0,3.987a1.843,1.843,0,0,1-.03.241h-.834q-7.236,0-14.473,0a.764.764,0,0,1-.179-.044l-.014-.1" transform="translate(-104.098 -145.747)" fill="#b5b5b5"/>
    <path id="Trazado_275650" data-name="Trazado 275650" d="M38.041,219.172v-4.437c.07,0,.141-.011.212-.011q6.437,0,12.873,0c.16,0,.212.038.211.209-.008,1.322,0,2.644-.005,3.967,0,.085-.013.171-.022.275Z" transform="translate(-31.355 -176.983)" fill="#b5b5b5"/>
    <path id="Trazado_275651" data-name="Trazado 275651" d="M37.927,290.506h.288q6.415,0,12.83,0c.145,0,.19.033.19.181q-.008,2.027,0,4.054c0,.139-.02.208-.19.207q-6.437-.01-12.874,0c-.2,0-.255-.047-.254-.253.01-1.337,0-2.674,0-4.011,0-.049,0-.1.008-.172" transform="translate(-31.251 -239.446)" fill="#b5b4b5"/>
    <path id="Trazado_275652" data-name="Trazado 275652" d="M227.3,332.635c0-1.351.005-2.7,0-4.053,0-.189,0-.3.252-.258a4.228,4.228,0,0,0,.679.005q6.072,0,12.143-.006c.144,0,.242,0,.241.2-.008,1.373,0,2.745,0,4.118a.3.3,0,0,1-.025.082l-.036.029c-.3,0-.6.011-.9.011q-6.073,0-12.146,0a1.039,1.039,0,0,1-.184-.033l-.027-.1" transform="translate(-187.356 -270.614)" fill="#b5b4b5"/>
    <path id="Trazado_275653" data-name="Trazado 275653" d="M227.293,256.921q0-2.121,0-4.242l.032-.048c.226,0,.452-.005.679-.005h12.317c.285,0,.28,0,.279.283,0,1.314,0,2.629,0,3.943,0,.16-.029.214-.2.214q-6.411-.008-12.822-.013c-.084,0-.2.137-.271-.03l-.019-.1" transform="translate(-187.346 -208.227)" fill="#b5b5b5"/>
    <path id="Trazado_275654" data-name="Trazado 275654" d="M37.956,252.617h.483q6.292,0,12.585,0c.159,0,.217.033.216.205-.008,1.293,0,2.585,0,3.878,0,.352,0,.352-.344.352l-11.97,0c-.278,0-.556-.005-.834,0-.1,0-.166-.011-.166-.138q0-2.114,0-4.228c0-.013.012-.026.032-.068" transform="translate(-31.256 -208.218)" fill="#b5b5b5"/>
    <path id="Trazado_275655" data-name="Trazado 275655" d="M37.995,181.264v-4.419c.066-.007.122-.018.178-.018q6.469,0,12.939,0c.153,0,.186.064.186.194q0,2.027,0,4.054a1.332,1.332,0,0,1-.028.193Z" transform="translate(-31.317 -145.746)" fill="#b5b5b5"/>
    <path id="Trazado_275656" data-name="Trazado 275656" d="M227.294,219.024v-4.292h12.947c.446,0,.361-.028.361.354q0,1.939,0,3.877c0,.114.021.214-.157.212-1.032-.008-2.064-.006-3.1-.007q-4.919,0-9.837,0a1.066,1.066,0,0,1-.2-.04l-.017-.1" transform="translate(-187.347 -176.992)" fill="#b5b5b5"/>
    <path id="Trazado_275657" data-name="Trazado 275657" d="M51.2,332.788H50.26q-6.06,0-12.12,0c-.172,0-.223-.039-.222-.219.008-1.343.006-2.687,0-4.03,0-.134.017-.2.173-.2,1,.008,2.005.008,3.008.009l9.858,0c.278,0,.276,0,.275.281q0,1.906,0,3.811c0,.112-.021.224-.033.342" transform="translate(-31.254 -270.635)" fill="#b5b4b5"/>
    <path id="Trazado_275658" data-name="Trazado 275658" d="M240.563,294.922q-6.536,0-13.072,0a.811.811,0,0,1-.162-.033l-.023-.1v-4.3h.442q6.315,0,12.631-.006c.193,0,.243.047.242.243-.007,1.359,0,2.717,0,4.076a.59.59,0,0,1-.013.086l-.048.035" transform="translate(-187.357 -239.429)" fill="#b5b4b5"/>
    <path id="Trazado_275659" data-name="Trazado 275659" d="M227.295,181.129v-4.288h13.02c.293,0,.289,0,.289.3,0,1.307,0,2.614,0,3.922,0,.179-.031.247-.23.226a6.859,6.859,0,0,0-.724-.006q-6.083,0-12.166,0a.763.763,0,0,1-.179-.044l-.014-.1" transform="translate(-187.348 -145.76)" fill="#b5b5b5"/>
    <path id="Trazado_275660" data-name="Trazado 275660" d="M227.3,352.893l.027.1-.027-.1" transform="translate(-187.356 -290.871)" fill="#757575"/>
    <path id="Trazado_275661" data-name="Trazado 275661" d="M126.305,352.893l.027.1-.027-.1" transform="translate(-104.107 -290.871)" fill="#757575"/>
    <path id="Trazado_275662" data-name="Trazado 275662" d="M227.306,314.982l.023.1-.023-.1" transform="translate(-187.357 -259.623)" fill="#757575"/>
    <path id="Trazado_275663" data-name="Trazado 275663" d="M126.306,314.982l.023.1-.023-.1" transform="translate(-104.108 -259.623)" fill="#757575"/>
    <path id="Trazado_275664" data-name="Trazado 275664" d="M227.293,277.065l.019.1-.019-.1" transform="translate(-187.346 -228.37)" fill="#686666"/>
    <path id="Trazado_275665" data-name="Trazado 275665" d="M126.293,277.065l.019.1-.019-.1" transform="translate(-104.097 -228.37)" fill="#686666"/>
    <path id="Trazado_275666" data-name="Trazado 275666" d="M227.294,239.154l.017.1-.017-.1" transform="translate(-187.347 -197.122)" fill="#686666"/>
    <path id="Trazado_275667" data-name="Trazado 275667" d="M126.294,239.154l.017.1-.017-.1" transform="translate(-104.098 -197.122)" fill="#686666"/>
    <path id="Trazado_275668" data-name="Trazado 275668" d="M227.295,201.243l.014.1-.014-.1" transform="translate(-187.348 -165.874)" fill="#686666"/>
    <path id="Trazado_275669" data-name="Trazado 275669" d="M126.3,201.243l.014.1-.014-.1" transform="translate(-104.098 -165.874)" fill="#686666"/>
    <path id="Trazado_275670" data-name="Trazado 275670" d="M126.344,252.659l-.031.048.031-.048" transform="translate(-104.113 -208.254)" fill="#686666"/>
    <path id="Trazado_275671" data-name="Trazado 275671" d="M227.344,252.659l-.031.048.031-.048" transform="translate(-187.362 -208.254)" fill="#686666"/>
    <path id="Trazado_275672" data-name="Trazado 275672" d="M302.735,315.584l.048-.035-.048.035" transform="translate(-249.529 -260.091)" fill="#383738"/>
    <path id="Trazado_275673" data-name="Trazado 275673" d="M302.73,353.435l.036-.029-.036.029" transform="translate(-249.525 -291.294)" fill="#9b9b99"/>
    <path id="Trazado_275674" data-name="Trazado 275674" d="M177.249,37.978c.267.225.538.444.8.675q2.238,1.985,4.473,3.974l2.032,1.8c.041.037.076.08.163.173h-.352c-.512,0-1.025-.009-1.536.005a.714.714,0,0,1-.531-.2q-1.517-1.361-3.043-2.713-1.932-1.718-3.867-3.434c-.07-.062-.145-.12-.218-.181,0-.035-.005-.07-.008-.106h0l.052-.021.087,0h.045l1.845.008.054.022" transform="translate(-144.376 -31.279)" fill="#69be39"/>
    <path id="Trazado_275675" data-name="Trazado 275675" d="M214.675,37.965c-.625.555-1.231,1.087-1.827,1.63a.236.236,0,0,1-.387,0c-.289-.274-.591-.535-.914-.825.327-.284.63-.554.943-.812a.391.391,0,0,1,.228-.051c.548,0,1.1,0,1.644,0a2,2,0,0,1,.312.054" transform="translate(-174.367 -31.243)" fill="#4d8b27"/>
    <path id="Trazado_275676" data-name="Trazado 275676" d="M174.639,67.4l1.072-.957c.266-.238.538-.47.8-.716.12-.113.209-.124.334-.009.3.275.611.54.929.819a.685.685,0,0,1-.086.121c-.249.224-.5.45-.754.665a.4.4,0,0,1-.231.1c-.635.008-1.271,0-1.906,0a1.427,1.427,0,0,1-.154-.023" transform="translate(-143.946 -54.104)" fill="#4d8b27"/>
    <path id="Trazado_275677" data-name="Trazado 275677" d="M174.888,38.087c0,.035.005.07.008.106l-.066-.063.058-.043" transform="translate(-144.103 -31.393)" fill="#549b2c"/>
    <path id="Trazado_275678" data-name="Trazado 275678" d="M186.788,38.015l-.054-.022.054.022" transform="translate(-153.915 -31.316)" fill="#549b2c"/>
    <path id="Trazado_275679" data-name="Trazado 275679" d="M176.026,37.948h0" transform="translate(-145.052 -31.279)" fill="#549b2c"/>
    <path id="Trazado_275680" data-name="Trazado 275680" d="M175.24,37.969l-.052.021.052-.021" transform="translate(-144.398 -31.296)" fill="#549b2c"/>
    <path id="Trazado_275681" data-name="Trazado 275681" d="M37.9,117.881q0-2.037-.007-4.073l.012-.047a.824.824,0,0,1,.185-.043q4.918,0,9.836,0c.029,0,.058,0,.088.007-.048.094-.1.188-.144.282a9.948,9.948,0,0,1-1.356,2.124c-.412.478-.841.945-1.292,1.386-.187.183-.428.3-.328.619l-4.362.01c-.8,0-1.608,0-2.411,0-.128,0-.242,0-.221-.179v-.09" transform="translate(-31.234 -93.731)" fill="#549b2c"/>
    <path id="Trazado_275682" data-name="Trazado 275682" d="M77.616,118.12c-.1-.319.14-.436.328-.619.452-.441.88-.908,1.292-1.386a9.944,9.944,0,0,0,1.356-2.124c.047-.095.1-.188.144-.282.248,0,.5,0,.744-.011.178-.01.237.045.236.233-.008,1.311,0,2.622,0,3.933,0,.031,0,.061,0,.092l-.009.137-.046.038-4.045-.009" transform="translate(-63.956 -93.713)" fill="#4d8b27"/>
    <path id="Trazado_275683" data-name="Trazado 275683" d="M37.93,137.41v0" transform="translate(-31.263 -113.26)" fill="#21320e"/>
    <path id="Trazado_275684" data-name="Trazado 275684" d="M101.045,137.5c0-.031,0-.061,0-.092,0,.031,0,.061,0,.092" transform="translate(-83.285 -113.256)" fill="#21320e"/>
    <path id="Trazado_275685" data-name="Trazado 275685" d="M100.74,138.743l.046-.037-.046.037" transform="translate(-83.035 -114.328)" fill="#21320e"/>
    <path id="Trazado_275686" data-name="Trazado 275686" d="M37.886,113.964l-.012.047a.18.18,0,0,1,0-.036s.011-.008.016-.011" transform="translate(-31.214 -93.935)" fill="#21320e"/>
    <path id="Trazado_275687" data-name="Trazado 275687" d="M145.662,118.133c-.65,0-1.3.012-1.951.013q-2.291,0-4.583,0c-.128,0-.263.018-.243-.179,0-.03,0-.059,0-.089q0-1.774,0-3.548c0-.015,0-.031,0-.047,0-.058,0-.116,0-.173v-.22l-.008-.087.013-.046a.825.825,0,0,1,.185-.043q4.886,0,9.771,0c.036,0,.073,0,.109.007a.429.429,0,0,1-.018.149,10.545,10.545,0,0,1-.55.995c-.405.595-.819,1.187-1.273,1.744a8.279,8.279,0,0,1-1.033,1.008,1.258,1.258,0,0,0-.418.514" transform="translate(-114.469 -93.73)" fill="#6bc13a"/>
    <path id="Trazado_275688" data-name="Trazado 275688" d="M177.48,118.114a1.258,1.258,0,0,1,.418-.514,8.279,8.279,0,0,0,1.033-1.008c.454-.557.868-1.149,1.273-1.744a10.538,10.538,0,0,0,.55-.995.429.429,0,0,0,.018-.149c.27,0,.541,0,.81-.012.181-.009.215.065.215.232-.005,1.312,0,2.624,0,3.935,0,.03,0,.06,0,.091q-.005.07-.01.139l-.046.035h-4.09c-.058,0-.116-.008-.174-.012" transform="translate(-146.288 -93.711)" fill="#549b2c"/>
    <path id="Trazado_275689" data-name="Trazado 275689" d="M138.923,114.719v0" transform="translate(-114.507 -94.557)" fill="#21320e"/>
    <path id="Trazado_275690" data-name="Trazado 275690" d="M138.92,137.412c0,.03,0,.06,0,.089,0-.03,0-.06,0-.089" transform="translate(-114.503 -113.262)" fill="#21320e"/>
    <path id="Trazado_275691" data-name="Trazado 275691" d="M202.055,137.5c0-.03,0-.06,0-.091q0,.045,0,.091" transform="translate(-166.543 -113.258)" fill="#21320e"/>
    <path id="Trazado_275692" data-name="Trazado 275692" d="M201.74,138.752l.046-.036-.046.036" transform="translate(-166.284 -114.336)" fill="#21320e"/>
    <path id="Trazado_275693" data-name="Trazado 275693" d="M138.859,116.957c0,.015,0,.031,0,.047a.184.184,0,0,1-.013-.033s.009-.009.013-.014" transform="translate(-114.443 -96.402)" fill="#21320e"/>
    <path id="Trazado_275694" data-name="Trazado 275694" d="M138.873,113.964l-.013.046a.185.185,0,0,1,0-.035s.011-.007.017-.011" transform="translate(-114.452 -93.935)" fill="#21320e"/>
    <path id="Trazado_275695" data-name="Trazado 275695" d="M245.585,118.156h-.176l-4.16-.008c-.343,0-.686,0-1.029.007a.04.04,0,0,0-.041,0H240a.057.057,0,0,0-.041-.006l-.059-.182,0-.132v-.305c0-.015,0-.031,0-.046q0-.065,0-.13c0-.03,0-.059,0-.089v-3.024c0-.044,0-.088,0-.131l0-.351a.809.809,0,0,1,.185-.044q4.909,0,9.818,0c.036,0,.073.005.109.008a.45.45,0,0,1-.027.146c-.216.376-.432.753-.658,1.123a11.045,11.045,0,0,1-2.251,2.646,3.359,3.359,0,0,0-.348.4l.04.034-.271.059,0,.014h-.923" transform="translate(-197.738 -93.731)" fill="#7adf44"/>
    <path id="Trazado_275696" data-name="Trazado 275696" d="M277.474,118.137l.271-.06-.04-.034a3.376,3.376,0,0,1,.348-.4,11.047,11.047,0,0,0,2.251-2.645c.227-.37.442-.747.658-1.123a.451.451,0,0,0,.027-.146l.676-.01c.308,0,.308,0,.3.306,0,.016,0,.031,0,.047q0,1.884,0,3.768c0,.044,0,.088,0,.132l0,.134-.053.043-4.442-.008" transform="translate(-228.708 -93.729)" fill="#6bc13a"/>
    <path id="Trazado_275697" data-name="Trazado 275697" d="M239.762,116.716q0,1.468,0,2.937a.963.963,0,0,1-.03-.167q0-1.3,0-2.6a.929.929,0,0,1,.031-.167" transform="translate(-197.597 -96.203)" fill="#21320e"/>
    <path id="Trazado_275698" data-name="Trazado 275698" d="M239.926,113.97l0,.351,0-.351" transform="translate(-197.756 -93.94)" fill="#21320e"/>
    <path id="Trazado_275699" data-name="Trazado 275699" d="M303.062,137.3c0-.044,0-.088,0-.132,0,.044,0,.088,0,.132" transform="translate(-249.798 -113.057)" fill="#21320e"/>
    <path id="Trazado_275700" data-name="Trazado 275700" d="M239.9,137.166l0,.132,0-.132" transform="translate(-197.738 -113.059)" fill="#21320e"/>
    <path id="Trazado_275701" data-name="Trazado 275701" d="M275.243,138.973h0" transform="translate(-226.869 -114.548)" fill="#000100"/>
    <path id="Trazado_275702" data-name="Trazado 275702" d="M271.244,138.975h0" transform="translate(-223.572 -114.55)" fill="#000100"/>
    <path id="Trazado_275703" data-name="Trazado 275703" d="M239.91,133.922c0,.03,0,.059,0,.089,0-.03,0-.059,0-.089" transform="translate(-197.745 -110.385)" fill="#21320e"/>
    <path id="Trazado_275704" data-name="Trazado 275704" d="M302.747,138.722l.053-.043-.053.043" transform="translate(-249.539 -114.306)" fill="#21320e"/>
    <path id="Trazado_275705" data-name="Trazado 275705" d="M272.244,138.975h0Z" transform="translate(-224.397 -114.55)" fill="#000100"/>
    <path id="Trazado_275706" data-name="Trazado 275706" d="M240.238,138.944a.057.057,0,0,1,.041.006l-.041-.006" transform="translate(-198.016 -114.523)" fill="#000100"/>
    <path id="Trazado_275707" data-name="Trazado 275707" d="M277.239,138.958h0" transform="translate(-228.514 -114.535)" fill="#000100"/>
    <path id="Trazado_275708" data-name="Trazado 275708" d="M239.848,135.166c0,.015,0,.031,0,.046a.182.182,0,0,1-.014-.033s.009-.009.013-.013" transform="translate(-197.683 -111.41)" fill="#21320e"/>
    <path id="Trazado_275709" data-name="Trazado 275709" d="M303.049,115.506c0-.016,0-.031,0-.047a.189.189,0,0,1,.013.033s-.008.009-.013.014" transform="translate(-249.788 -95.167)" fill="#21320e"/>
    <path id="Trazado_275710" data-name="Trazado 275710" d="M241.492,138.952a.04.04,0,0,1,.041,0h-.041" transform="translate(-199.049 -114.526)" fill="#000100"/>
  </g>
</svg>
