<svg xmlns="http://www.w3.org/2000/svg" xmlns:xlink="http://www.w3.org/1999/xlink" width="141.299" height="110.699" viewBox="0 0 141.299 110.699">
  <defs>
    <clipPath id="clip-path">
      <rect id="Rect치ngulo_323608" data-name="Rect치ngulo 323608" width="69.621" height="110.698" fill="none"/>
    </clipPath>
    <clipPath id="clip-path-2">
      <rect id="Rect치ngulo_323609" data-name="Rect치ngulo 323609" width="82.656" height="69.621" fill="none"/>
    </clipPath>
  </defs>
  <g id="Grupo_1069959" data-name="Grupo 1069959" transform="translate(-286.384 -25045.811)">
    <g id="Grupo_257485" data-name="Grupo 257485" transform="translate(358.061 25045.811)">
      <g id="Grupo_257484" data-name="Grupo 257484" clip-path="url(#clip-path)">
        <path id="Trazado_275722" data-name="Trazado 275722" d="M1.7,50.433A1.66,1.66,0,0,1,.123,49.4,1.43,1.43,0,0,1,0,48.793c0-5.168.009-10.337,0-15.506a14.751,14.751,0,0,1,.685-4.812,14.253,14.253,0,0,1,6.973-8.318c2.289-1.213,4.609-2.369,6.912-3.555,1.465-.754,2.939-1.492,4.377-2.294a7.377,7.377,0,0,0,1.23-1.061c.051-.046.058-.139.085-.21-.416-.191-.828-.345-1.206-.558A3.119,3.119,0,0,1,17.6,10.5a4.636,4.636,0,0,1-.075-1.191c-.01-1.642-.039-3.285,0-4.925a4.1,4.1,0,0,1,.692-2.014A4.957,4.957,0,0,1,21.4.1,5.559,5.559,0,0,1,22.68.017C26.841.012,31,.006,35.163.026a2.582,2.582,0,0,1,1.118.293,1.51,1.51,0,0,1,.741,1.336,1.574,1.574,0,0,1-.876,1.387A3.181,3.181,0,0,1,35,3.257c-2.542.019-5.084.01-7.627.011q-2.462,0-4.924.008l-.09.008-.124.019a1.317,1.317,0,0,0-1.265.825,3,3,0,0,0-.194,1.125c-.022,1.357.007,2.715-.022,4.072-.007.348.085.419.409.419q13.708-.011,27.417,0c.265,0,.359-.083.307-.336l-.007-.16q-.016-.542-.032-1.084c0-1.151.035-2.3,0-3.453A1.382,1.382,0,0,0,47.873,3.4a3.02,3.02,0,0,0-.97-.133c-1.675-.015-3.35-.011-5.025-.014l-.09-.008a1.69,1.69,0,0,1-1.577-1.593A1.7,1.7,0,0,1,41.971.02c1.733-.01,3.467-.038,5.2,0a4.711,4.711,0,0,1,4.565,3.01,4.8,4.8,0,0,1,.363,1.7c.047,1.653.044,3.31.011,4.964a3.146,3.146,0,0,1-2.6,3.2c-.217.04-.245.138-.1.319A4.742,4.742,0,0,0,51,14.483q5.33,2.719,10.65,5.459a14.079,14.079,0,0,1,7.771,10.969,25.482,25.482,0,0,1,.179,3.353q.013,28.334,0,56.668c0,1.746.025,3.492.018,5.238a14.668,14.668,0,0,1-7.813,12.857,12.209,12.209,0,0,1-3.712,1.319,18.939,18.939,0,0,1-2.032.27c-.87.06-1.744.074-2.616.075Q34,110.7,14.556,110.7A12.288,12.288,0,0,1,11,110.262,14.676,14.676,0,0,1,.727,100.629a14.946,14.946,0,0,1-.721-4.943q0-19.993,0-39.985a2.853,2.853,0,0,1,.128-1A1.481,1.481,0,0,1,1.7,53.7a1.572,1.572,0,0,1,1.544,1.659c.016.57,0,1.141,0,1.712q0,19.258-.005,38.515a12.089,12.089,0,0,0,.917,4.975,11,11,0,0,0,2.656,3.809,11.168,11.168,0,0,0,6.709,3.03c.794.065,1.594.055,2.392.055q19.254.005,38.508.007a12.721,12.721,0,0,0,4.412-.669A10.047,10.047,0,0,0,62,105.022a10.161,10.161,0,0,0,2.178-2.154,11.421,11.421,0,0,0,2.2-7.1q.011-31.021.007-62.042a13.607,13.607,0,0,0-.705-4.7,11.022,11.022,0,0,0-2.3-3.794,13.332,13.332,0,0,0-3.866-2.769q-5.19-2.618-10.35-5.3a6.358,6.358,0,0,1-3.194-3.78c-.121-.363-.282-.416-.611-.416q-10.637.009-21.274-.006c-.278,0-.342.157-.417.35-.142.367-.256.748-.433,1.1a7.059,7.059,0,0,1-3.326,3.073Q14.84,20.04,9.79,22.631a11.39,11.39,0,0,0-3.71,2.85c-.064.063-.133.122-.19.19a10.73,10.73,0,0,0-2.123,3.882,11.329,11.329,0,0,0-.465,2.3c-.085,1.067-.047,2.143-.047,3.216q0,6.744,0,13.488a1.649,1.649,0,0,1-.581,1.455,4.859,4.859,0,0,1-.97.423" transform="translate(0 -0.001)"/>
        <path id="Trazado_275723" data-name="Trazado 275723" d="M6.041,117.768a4.86,4.86,0,0,0,.97-.423,1.649,1.649,0,0,0,.581-1.455q0-6.744,0-13.488c0-1.073-.037-2.149.047-3.216a11.329,11.329,0,0,1,.465-2.3,10.73,10.73,0,0,1,2.123-3.882c.057-.068.126-.127.19-.19a5.891,5.891,0,0,1,.074.916c-.044.632-.2,1.261-.2,1.892q-.016,32.72-.007,65.44c0,.751.014,1.5.071,2.251a8.789,8.789,0,0,0,1.253,3.951,9.652,9.652,0,0,0,4.866,4.143,9.512,9.512,0,0,0,3.421.654q22.826.017,45.651.006a.872.872,0,0,1,.791.289,10.047,10.047,0,0,1-3.164,1.77,12.72,12.72,0,0,1-4.412.669q-19.254-.009-38.508-.007c-.8,0-1.6.01-2.392-.055a11.168,11.168,0,0,1-6.709-3.03A11,11,0,0,1,8.5,167.894a12.089,12.089,0,0,1-.917-4.975q.018-19.257.005-38.515c0-.57.013-1.141,0-1.712a1.572,1.572,0,0,0-1.544-1.659c-.022-.715-.056-1.43-.063-2.146,0-.373.04-.746.063-1.119" transform="translate(-4.337 -67.336)" fill="#dce5eb"/>
        <path id="Trazado_275724" data-name="Trazado 275724" d="M81.2,7.648q2.462,0,4.924-.008c2.542,0,5.084.007,7.627-.012A3.175,3.175,0,0,0,94.9,7.413a1.574,1.574,0,0,0,.876-1.387h3.19a1.69,1.69,0,0,0,1.577,1.593l.09.008c1.675,0,3.35,0,5.024.013a3.025,3.025,0,0,1,.97.133,1.382,1.382,0,0,1,.975,1.309c.034,1.15,0,2.3,0,3.453-.248-.022-.5-.063-.743-.063q-12.012-.006-24.023,0a1.617,1.617,0,0,1-1.712-1.711c0-.775.01-1.551-.007-2.326a5,5,0,0,0-.128-.755l.125-.019.09-.008" transform="translate(-58.756 -4.372)" fill="#c0e4f9"/>
        <path id="Trazado_275725" data-name="Trazado 275725" d="M77.723,139.281a.872.872,0,0,0-.791-.289q-22.826,0-45.651-.006a9.513,9.513,0,0,1-3.421-.654,9.653,9.653,0,0,1-4.866-4.143,8.8,8.8,0,0,1-1.253-3.951c-.057-.748-.071-1.5-.071-2.251q-.005-32.72.006-65.44c0-.63.153-1.26.2-1.892a5.9,5.9,0,0,0-.074-.917,11.386,11.386,0,0,1,3.711-2.85q5.056-2.58,10.119-5.146a7.059,7.059,0,0,0,3.326-3.073c.177-.349.291-.731.433-1.1.075-.193.139-.351.417-.35q10.637.016,21.274.006c.329,0,.49.053.611.416a6.358,6.358,0,0,0,3.194,3.78q5.166,2.665,10.35,5.3A13.333,13.333,0,0,1,79.1,59.491a11.023,11.023,0,0,1,2.3,3.794,13.608,13.608,0,0,1,.706,4.7Q82.1,99,82.1,130.024a11.418,11.418,0,0,1-2.2,7.1,10.15,10.15,0,0,1-2.178,2.155M76.194,87.009a.513.513,0,0,0,.574.485,9.487,9.487,0,0,0,1.042-.011A3.272,3.272,0,0,0,80.5,84.436q0-8.645-.007-17.291a6.848,6.848,0,0,0-.17-1.552,10.77,10.77,0,0,0-1.113-2.956A9.463,9.463,0,0,0,75.567,59c-1.322-.727-2.688-1.377-4.02-2.087a3.747,3.747,0,0,0-2.725-.587A3.287,3.287,0,0,0,66.388,58.5a.452.452,0,0,0,.121.584,5.309,5.309,0,0,0-1.929,4.366c.044,4.87.008,9.74.023,14.611a9.107,9.107,0,0,0,.184,2.016,7.439,7.439,0,0,0,3.2,4.8,48.608,48.608,0,0,0,4.328,2.3,3.6,3.6,0,0,0,1.155.3,5.441,5.441,0,0,0,2.727-.459m-21.27,7.062a1.057,1.057,0,0,0-.156-.063q-1.321-.314-2.643-.625a1.44,1.44,0,0,0-1.166-1.461c-.38-.043-.767-.036-1.15-.048a10.919,10.919,0,0,0-2.874.347,11.384,11.384,0,0,0-5.062,2.521,1.173,1.173,0,0,1-1.235.265c-.26-.077-.517-.165-.771-.26a4.82,4.82,0,0,1-2.974-2.732,6.809,6.809,0,0,1-.449-2.254,2.511,2.511,0,0,0-.061-.707,1.609,1.609,0,0,0-3.144.509,14.3,14.3,0,0,0,.3,2.612,7.408,7.408,0,0,0,3.95,4.981c.071.036.138.082.263.158a3.38,3.38,0,0,1-.488.143q-1.424.165-2.849.312c-.537.055-1.077.083-1.614.14q-1.135.119-2.268.264a16.247,16.247,0,0,0-2.019.292,3.82,3.82,0,0,0-2.79,2.657,4.922,4.922,0,0,0,.095,3.3,6.421,6.421,0,0,0,5.149,4.148,7.058,7.058,0,0,0,3.223-.119c.548-.147,1.085-.338,1.632-.512a1.628,1.628,0,0,1,.009.192c-.044.686-.122,1.371-.128,2.057-.009.943.009,1.888.066,2.829.059.987.135,1.977.28,2.954a18.3,18.3,0,0,0,1.076,4.148,15.3,15.3,0,0,0,2.244,3.966,13.865,13.865,0,0,0,9.974,4.9c1.031.016,2.066,0,3.095-.069a13.869,13.869,0,0,0,3.749-.877,12.4,12.4,0,0,0,6.367-5.133,18.586,18.586,0,0,0,2.626-8.068,31.243,31.243,0,0,0,.163-3.122c.012-.839-.056-1.68-.093-2.519-.019-.43-.046-.861-.072-1.347a9.493,9.493,0,0,0,1.218.511,8.086,8.086,0,0,0,5.136-.2,5.823,5.823,0,0,0,3.916-6.513,3.9,3.9,0,0,0-3.6-3.333c-.768-.1-1.544-.133-2.315-.213-1.013-.105-2.025-.23-3.038-.342-.846-.094-1.693-.176-2.538-.277a4.494,4.494,0,0,1-.578-.138c.566-.385,1.147-.735,1.676-1.152a6.838,6.838,0,0,0,2.164-3.058,9.018,9.018,0,0,0,.555-3.733,1.619,1.619,0,0,0-.113-.557,1.536,1.536,0,0,0-1.711-.873,1.484,1.484,0,0,0-1.3,1.219c-.1.48-.1.983-.155,1.474A4.6,4.6,0,0,1,63.4,93.3a5.89,5.89,0,0,1-3.2,1.732,1.024,1.024,0,0,1-.968-.286,19.568,19.568,0,0,0-1.78-1.261,1.673,1.673,0,0,0-2.529.582" transform="translate(-15.718 -34.26)" fill="#f6f8fa"/>
        <path id="Trazado_275726" data-name="Trazado 275726" d="M77.074,12.033a5.08,5.08,0,0,1,.128.755c.017.775,0,1.551.006,2.326a1.617,1.617,0,0,0,1.712,1.711q12.012,0,24.023,0c.248,0,.5.041.743.063q.016.542.032,1.084l.007.16c.051.253-.042.337-.307.336q-13.708-.009-27.417,0c-.323,0-.416-.071-.409-.419.029-1.357,0-2.714.022-4.071a3.008,3.008,0,0,1,.194-1.126,1.317,1.317,0,0,1,1.265-.825" transform="translate(-54.841 -8.73)" fill="#90b5f7"/>
        <path id="Trazado_275727" data-name="Trazado 275727" d="M178.056,33.846l-.007-.16.007.16" transform="translate(-129.17 -24.438)" fill="#536876"/>
        <path id="Trazado_275728" data-name="Trazado 275728" d="M81.533,11.933l-.09.008.09-.008" transform="translate(-59.085 -8.657)" fill="#657178"/>
        <path id="Trazado_275729" data-name="Trazado 275729" d="M152.313,11.836l-.09-.008.09.008" transform="translate(-110.434 -8.581)" fill="#657178"/>
        <path id="Trazado_275730" data-name="Trazado 275730" d="M65,201.712a1.673,1.673,0,0,1,2.529-.582,19.572,19.572,0,0,1,1.78,1.261,1.023,1.023,0,0,0,.968.286,5.887,5.887,0,0,0,3.2-1.732,4.6,4.6,0,0,0,1.092-2.638c.058-.491.052-.994.155-1.474a1.484,1.484,0,0,1,1.3-1.219,1.536,1.536,0,0,1,1.711.874,1.617,1.617,0,0,1,.113.557,9.023,9.023,0,0,1-.555,3.733,6.841,6.841,0,0,1-2.165,3.058c-.529.416-1.11.766-1.676,1.152a4.485,4.485,0,0,0,.578.138c.845.1,1.692.183,2.538.277,1.013.112,2.024.237,3.038.342.771.08,1.546.116,2.315.213a3.9,3.9,0,0,1,3.6,3.333,5.823,5.823,0,0,1-3.916,6.513,8.084,8.084,0,0,1-5.136.2,9.447,9.447,0,0,1-1.218-.511c.026.486.053.916.072,1.347.037.84.1,1.68.093,2.519a31.259,31.259,0,0,1-.163,3.122,18.585,18.585,0,0,1-2.626,8.068,12.4,12.4,0,0,1-6.367,5.133,13.879,13.879,0,0,1-3.749.877c-1.028.071-2.064.085-3.095.069a13.865,13.865,0,0,1-9.974-4.9A15.3,15.3,0,0,1,47.2,227.76a18.3,18.3,0,0,1-1.076-4.148c-.145-.977-.221-1.967-.28-2.954-.057-.941-.074-1.886-.065-2.829.006-.686.084-1.372.128-2.057a1.636,1.636,0,0,0-.009-.192c-.548.173-1.084.366-1.632.512a7.056,7.056,0,0,1-3.223.119,6.421,6.421,0,0,1-5.149-4.148,4.922,4.922,0,0,1-.095-3.3,3.82,3.82,0,0,1,2.79-2.657,16.2,16.2,0,0,1,2.019-.292q1.133-.143,2.269-.263c.537-.056,1.077-.085,1.614-.14q1.426-.146,2.849-.312a3.352,3.352,0,0,0,.488-.143c-.125-.076-.191-.122-.263-.158a7.408,7.408,0,0,1-3.95-4.981,14.3,14.3,0,0,1-.3-2.612,1.609,1.609,0,0,1,3.144-.509,2.511,2.511,0,0,1,.061.707,6.807,6.807,0,0,0,.449,2.253,4.82,4.82,0,0,0,2.974,2.732c.254.095.511.183.771.26a1.173,1.173,0,0,0,1.236-.265,11.381,11.381,0,0,1,5.062-2.522,10.919,10.919,0,0,1,2.874-.347c.384.012.77.005,1.15.048a1.44,1.44,0,0,1,1.167,1.461,1.5,1.5,0,0,1-1.482,1.646c-.533.076-1.076.086-1.614.128a8.954,8.954,0,0,0-2.555.568,7.348,7.348,0,0,0-2.926,1.878,20.348,20.348,0,0,0-1.526,1.82,18.372,18.372,0,0,0-2.57,6.665,19.83,19.83,0,0,0-.469,3.865c0,1.294.012,2.589.072,3.881a16.223,16.223,0,0,0,.272,2.094c.129.722.31,1.435.473,2.151.054.237.195.163.329.073l2.831-1.885a.9.9,0,0,0,.13-.039,17.252,17.252,0,0,1,6.727-1.469c.609-.021,1.222.028,1.832.061a13.49,13.49,0,0,1,2.052.161,32.263,32.263,0,0,1,3.5.931,10.911,10.911,0,0,1,3.413,1.969c.173.141.355.271.573.436.2-.82.441-1.565.545-2.33.182-1.338.342-2.685.389-4.032a28.271,28.271,0,0,0-.168-3.289,22.885,22.885,0,0,0-.31-2.4,21.916,21.916,0,0,0-1.039-3.738,14.57,14.57,0,0,0-2.445-4.309,8.912,8.912,0,0,0-2.444-2.005A1.618,1.618,0,0,1,65,201.712M54.594,226.785a8.322,8.322,0,0,0-2.869,2.039c-.162.181-.2.331-.019.528s.348.451.535.665a10.343,10.343,0,0,0,7.51,3.387,12.816,12.816,0,0,0,4.015-.335,10.07,10.07,0,0,0,5.946-3.98,7.407,7.407,0,0,0-2.045-1.767,12.946,12.946,0,0,0-5.945-1.655,17.8,17.8,0,0,0-4.024.211,11.966,11.966,0,0,0-3.1.907m-6.8-18.467c-.524.061-.978.12-1.434.166-.738.074-1.477.135-2.215.211-1.074.11-2.148.229-3.223.343-.446.047-.894.082-1.339.139a.781.781,0,0,0-.714.715,2.4,2.4,0,0,0,.773,2.165,4.185,4.185,0,0,0,4.1.845,5.209,5.209,0,0,0,2.668-1.877,8.053,8.053,0,0,0,1.388-2.707m25.6,0c.088.192.148.3.188.413a7.17,7.17,0,0,0,1.826,2.917,4.577,4.577,0,0,0,5,1.137A2.682,2.682,0,0,0,82.375,210a.782.782,0,0,0-.656-.8,6.907,6.907,0,0,0-.839-.1c-.593-.049-1.188-.078-1.781-.134-.86-.081-1.718-.175-2.576-.271-.482-.053-.962-.123-1.444-.18-.546-.065-1.092-.123-1.689-.19" transform="translate(-25.795 -141.901)" fill="#010101"/>
        <path id="Trazado_275731" data-name="Trazado 275731" d="M107.719,216.053a1.619,1.619,0,0,0,.794,2.147,8.911,8.911,0,0,1,2.444,2,14.582,14.582,0,0,1,2.445,4.309,21.944,21.944,0,0,1,1.039,3.738,22.956,22.956,0,0,1,.31,2.4,28.272,28.272,0,0,1,.168,3.289c-.048,1.348-.207,2.695-.389,4.032-.1.765-.348,1.51-.545,2.33-.217-.165-.4-.3-.573-.436A10.9,10.9,0,0,0,110,237.895a32.316,32.316,0,0,0-3.5-.932,13.493,13.493,0,0,0-2.052-.161c-.61-.034-1.223-.083-1.832-.062a17.258,17.258,0,0,0-6.727,1.47.17.17,0,0,1-.27-.186,23.278,23.278,0,0,1-.916-4.148c-.077-1.109-.217-2.215-.25-3.325a27.115,27.115,0,0,1,.45-5.627,29.144,29.144,0,0,1,1.114-4.14c.133-.392.221-.8.329-1.2a7.348,7.348,0,0,1,2.926-1.878,8.954,8.954,0,0,1,2.555-.568c.538-.042,1.081-.051,1.614-.128a1.5,1.5,0,0,0,1.482-1.646q1.321.312,2.642.625a1.089,1.089,0,0,1,.156.063m-9.9,10.342c-.006,1.162-.035,2.325-.008,3.486a1.58,1.58,0,0,0,1.044,1.473,1.533,1.533,0,0,0,2.073-1.062,14,14,0,0,0,.117-1.928,17.337,17.337,0,0,0-.027-1.981,1.595,1.595,0,0,0-3.177-.075l-.022.088m7.825,1.737h-.029c0,.32,0,.639,0,.958s.01.661.035.99a1.591,1.591,0,0,0,1.422,1.376,1.657,1.657,0,0,0,1.788-1.678c.013-.958.01-1.916,0-2.874a2.942,2.942,0,0,0-.1-.867,1.494,1.494,0,0,0-1.388-1.1,1.527,1.527,0,0,0-1.725,1.348c-.038.613-.007,1.23-.007,1.846" transform="translate(-68.514 -156.242)" fill="#c0e3f9"/>
        <path id="Trazado_275732" data-name="Trazado 275732" d="M189.6,115.786a5.444,5.444,0,0,1-2.727.459,3.59,3.59,0,0,1-1.155-.3,48.609,48.609,0,0,1-4.328-2.3,7.438,7.438,0,0,1-3.2-4.8,9.125,9.125,0,0,1-.184-2.016c-.015-4.87.021-9.741-.023-14.61a5.309,5.309,0,0,1,1.929-4.366,5.372,5.372,0,0,1,2.4-.931,4.191,4.191,0,0,1,1.961.188,32.774,32.774,0,0,1,3.006,1.428,11.622,11.622,0,0,1,1.811,1.084,7.826,7.826,0,0,1,3.168,6.435c.022,4.563.009,9.127,0,13.691,0,.738-.042,1.475-.065,2.213a4.1,4.1,0,0,1-.72,2.118,5.565,5.565,0,0,1-1.881,1.7m-.565-12.347h0c0-2.384-.01-4.769,0-7.153a4.556,4.556,0,0,0-1.879-4.033,31.01,31.01,0,0,0-3.668-2.006,1.475,1.475,0,0,0-1-.087,1.765,1.765,0,0,0-1.3,1.916c-.008.522.039,1.045.04,1.568q.008,6.536.006,13.072a5.513,5.513,0,0,0,.24,1.9,4.841,4.841,0,0,0,2.233,2.7c1,.545,2.017,1.045,3.028,1.562a1.477,1.477,0,0,0,1.365-.008,1.638,1.638,0,0,0,.936-1.664q-.008-3.885,0-7.769" transform="translate(-129.124 -63.037)" fill="#010101"/>
        <path id="Trazado_275733" data-name="Trazado 275733" d="M194.239,110.863a5.566,5.566,0,0,0,1.88-1.7,4.1,4.1,0,0,0,.72-2.118c.023-.738.064-1.475.065-2.213.006-4.563.018-9.127,0-13.691a7.826,7.826,0,0,0-3.168-6.435,11.619,11.619,0,0,0-1.811-1.085,32.779,32.779,0,0,0-3.006-1.428A4.194,4.194,0,0,0,186.955,82a5.372,5.372,0,0,0-2.4.931.452.452,0,0,1-.121-.583,3.287,3.287,0,0,1,2.434-2.168,3.747,3.747,0,0,1,2.725.587c1.332.71,2.7,1.36,4.02,2.087a9.462,9.462,0,0,1,3.648,3.635,10.77,10.77,0,0,1,1.113,2.956,6.849,6.849,0,0,1,.17,1.552q.017,8.645.007,17.291a3.272,3.272,0,0,1-2.694,3.047,9.56,9.56,0,0,1-1.042.012.513.513,0,0,1-.574-.485" transform="translate(-133.763 -58.114)" fill="#dae4e9"/>
        <path id="Trazado_275734" data-name="Trazado 275734" d="M104.908,306.148a11.975,11.975,0,0,1,3.1-.907,17.81,17.81,0,0,1,4.023-.211,12.944,12.944,0,0,1,5.945,1.655,7.4,7.4,0,0,1,2.045,1.767,8.738,8.738,0,0,1-2.941,2.75,3.455,3.455,0,0,0-.847-.115,13.709,13.709,0,0,1-3.559-.138,12.748,12.748,0,0,1-3.286-.972,10.863,10.863,0,0,1-3.988-3.067,7.483,7.483,0,0,1-.5-.763" transform="translate(-76.108 -221.265)" fill="#eab2b7"/>
        <path id="Trazado_275735" data-name="Trazado 275735" d="M89.311,230.738c-.108.4-.2.807-.329,1.2a29.142,29.142,0,0,0-1.114,4.14,27.115,27.115,0,0,0-.451,5.627c.032,1.11.173,2.216.25,3.325a23.278,23.278,0,0,0,.916,4.148.884.884,0,0,0,.14.225l-2.831,1.885c-.134.089-.275.164-.329-.073-.164-.716-.345-1.429-.473-2.151a16.263,16.263,0,0,1-.272-2.094c-.059-1.292-.075-2.587-.072-3.881a19.831,19.831,0,0,1,.469-3.865,18.365,18.365,0,0,1,2.57-6.665,20.353,20.353,0,0,1,1.526-1.82" transform="translate(-61.48 -167.395)" fill="#90b4f7"/>
        <path id="Trazado_275736" data-name="Trazado 275736" d="M96.958,309.2a7.483,7.483,0,0,0,.5.763,10.863,10.863,0,0,0,3.988,3.067,12.747,12.747,0,0,0,3.286.972,13.712,13.712,0,0,0,3.559.138,3.455,3.455,0,0,1,.847.115,8.812,8.812,0,0,1-3.005,1.23,12.815,12.815,0,0,1-4.015.335,10.342,10.342,0,0,1-7.51-3.387c-.187-.214-.342-.457-.535-.665s-.143-.347.019-.528a8.33,8.33,0,0,1,2.869-2.039" transform="translate(-68.158 -224.32)" fill="#e07e85"/>
        <path id="Trazado_275737" data-name="Trazado 275737" d="M56.486,241.936a8.056,8.056,0,0,1-1.388,2.707,5.209,5.209,0,0,1-2.668,1.877,4.185,4.185,0,0,1-4.1-.845,2.4,2.4,0,0,1-.773-2.165.78.78,0,0,1,.714-.715c.445-.058.893-.092,1.339-.139,1.074-.114,2.148-.233,3.223-.343.738-.076,1.477-.136,2.215-.211.455-.046.909-.1,1.434-.166" transform="translate(-34.49 -175.519)" fill="#8fb3f7"/>
        <path id="Trazado_275738" data-name="Trazado 275738" d="M173.378,241.943c.6.067,1.143.126,1.689.19.482.057.962.127,1.444.18.858.1,1.716.189,2.576.271.592.056,1.188.085,1.781.134a6.9,6.9,0,0,1,.839.1.782.782,0,0,1,.656.8,2.682,2.682,0,0,1-1.965,2.79,4.577,4.577,0,0,1-5-1.137,7.17,7.17,0,0,1-1.826-2.917c-.04-.114-.1-.221-.188-.413" transform="translate(-125.782 -175.524)" fill="#8fb3f7"/>
        <path id="Trazado_275739" data-name="Trazado 275739" d="M106.736,251.471a1.595,1.595,0,0,1,3.177.075,17.331,17.331,0,0,1,.027,1.981,14,14,0,0,1-.117,1.928,1.533,1.533,0,0,1-2.073,1.062,1.58,1.58,0,0,1-1.044-1.473c-.026-1.161,0-2.324.009-3.486l.022-.088" transform="translate(-77.404 -181.407)" fill="#010101"/>
        <path id="Trazado_275740" data-name="Trazado 275740" d="M135.19,253.407c0-.615-.03-1.233.007-1.846a1.527,1.527,0,0,1,1.725-1.348,1.494,1.494,0,0,1,1.388,1.1,2.942,2.942,0,0,1,.1.867c.011.958.014,1.916,0,2.874a1.657,1.657,0,0,1-1.788,1.678,1.591,1.591,0,0,1-1.422-1.376c-.024-.329-.029-.66-.035-.99s0-.639,0-.958h.029" transform="translate(-98.055 -181.517)" fill="#010101"/>
        <path id="Trazado_275741" data-name="Trazado 275741" d="M106.788,255.224l-.022.088.022-.088" transform="translate(-77.456 -185.159)" fill="#4a4b4c"/>
        <path id="Trazado_275742" data-name="Trazado 275742" d="M197.5,111.948q0,3.884,0,7.769a1.638,1.638,0,0,1-.936,1.664,1.477,1.477,0,0,1-1.365.008c-1.011-.517-2.032-1.017-3.028-1.562a4.841,4.841,0,0,1-2.234-2.7,5.513,5.513,0,0,1-.24-1.9q0-6.536-.006-13.073c0-.523-.047-1.046-.04-1.568a1.765,1.765,0,0,1,1.3-1.916,1.475,1.475,0,0,1,1,.087,31.009,31.009,0,0,1,3.668,2.006A4.556,4.556,0,0,1,197.5,104.8c-.014,2.384,0,4.768,0,7.153Z" transform="translate(-137.588 -71.546)" fill="#f7f9fa"/>
      </g>
    </g>
    <g id="Grupo_257487" data-name="Grupo 257487" transform="translate(286.384 25086.887)">
      <g id="Grupo_257486" data-name="Grupo 257486" clip-path="url(#clip-path-2)">
        <path id="Trazado_275743" data-name="Trazado 275743" d="M14.787,68.4A1.636,1.636,0,0,1,13,69.62c-3.065-.061-6.132-.021-9.2-.047A3.688,3.688,0,0,1,.232,66.788a3.557,3.557,0,0,1,.888-3.97,2.836,2.836,0,0,0,1.049-2.35A3.208,3.208,0,0,1,4.178,57.4a1.154,1.154,0,0,0,.83-1.269A43.5,43.5,0,0,1,8.122,39.5c.477-1.263,1.131-2.459,1.718-3.719a4.771,4.771,0,0,1-3.9-2.668A4.04,4.04,0,0,1,8.5,27.553a2.015,2.015,0,0,1,.87-.151c1.46.272,1.695-.857,2.208-1.78a10.983,10.983,0,0,1,7.581-5.6,17.52,17.52,0,0,0,4.318-1.765,38.871,38.871,0,0,1,5.658-1.879c.439-2.423.944-5.116,1.383-7.819.035-.213-.344-.594-.615-.74a4.123,4.123,0,0,1-2.22-2.883A3.989,3.989,0,0,1,30.7.15,6.41,6.41,0,0,1,32.107.007Q52.192,0,72.277,0a4.3,4.3,0,0,1,4.354,3.349,4.1,4.1,0,0,1-1.974,4.288l-.957.492c.41,2.38.81,4.691,1.206,7,.477,2.777.98,5.549,1.413,8.332.211,1.353.283,2.726.426,4.09.67,6.362.312,12.745.43,19.118.017.889-.193,1.468-1.073,1.713-1.069-.134-1.178-.881-1.2-1.763-.187-6.2-.345-12.4-.63-18.6a66.558,66.558,0,0,0-.823-7.191c-.613-3.921-1.34-7.823-2.011-11.735-.092-.538-.311-.818-.922-.787-.917.047-1.838.008-2.757.005a7.463,7.463,0,0,0-1.066-.151q-16.333-.012-32.667-.007h-.961c-.133.7-.27,1.346-.376,2-.312,1.91-.611,3.823-.915,5.734-.322.61-.432,1,.494,1.262a14.338,14.338,0,0,1,3.291,1.412,6.733,6.733,0,0,0,3.01,1.368,17.116,17.116,0,0,1,2.421.479V16.919c.016-.61.04-1.221.045-1.832.012-1.571.6-2.207,2.179-2.21q8.923-.02,17.845,0a2.124,2.124,0,0,1,2.352,2.394c.013,1.326-.052,2.654.019,3.976.06,1.12-.214,1.928-1.41,2.194a1.337,1.337,0,0,1-1.038-1.494c0-1.421-.029-2.841-.046-4.261l-.336-.334H43.832l-.333.334q0,1.126.005,2.252,0,1.734,0,3.468a3,3,0,0,0,.519.889,11.546,11.546,0,0,1,3.559,4.724c.105.263.62.432.975.51a10.455,10.455,0,0,1,1.761.233c2.2.931,2.976,2.746,2.335,5.308h8.328c0-2.349.024-4.591-.012-6.832-.013-.854.161-1.51,1.078-1.752a1.575,1.575,0,0,1,1.37,1.693c-.028,2.409.01,4.818-.017,7.227a1.965,1.965,0,0,1-2.21,2.145q-3.051.033-6.1.064l-6.343-.044-.174.158C49.522,38,50.5,40.256,51.4,42.546c.2.507.354.811.948.781.979-.049,1.961-.045,2.942-.064,3.336.019,6.672.031,10.007.061a2.053,2.053,0,0,1,2.229,2.211c.014,1.7.006,3.405,0,5.108,0,1.753-.7,2.461-2.43,2.468l-7.967.031-.408-.025a19.624,19.624,0,0,0-2.057-.2,3.286,3.286,0,0,0-1.019.353c-.067,1.021-.189,2.043-.167,3.062a1.344,1.344,0,0,0,.653.885c1.267.739,2.233,1.707,2.147,3.248a2.012,2.012,0,0,0,1.231,2.252c.968,1.217.914,2.64.819,4.071.047.121.089.343.142.345.434.02.869,0,1.3-.011l2.468.007H77.354c.37.015.743.06,1.111.039a1.863,1.863,0,0,0,1.765-1.623,1.629,1.629,0,0,0-1.761-1.657c-.5-.018-1.011.023-1.516.037q-2.092-.024-4.183-.048c-.817-.009-1.495-.2-1.6-1.178.057-.955.57-1.331,1.51-1.267.6.041,1.2-.02,1.805-.035h3.625c.063-1.339-.592-2.112-1.788-2.15-.679-.022-1.359.025-2.039.041a9.563,9.563,0,0,1-1.7-.075c-.446-.1-1.089-.315-1.208-.64-.158-.431.109-1.017.193-1.537A20.421,20.421,0,0,1,73.8,57c.929.08,1.191-.3,1.125-1.171-.064-.843.038-1.7-.027-2.54a1.521,1.521,0,0,1,1.245-1.855,1.941,1.941,0,0,1,1.221,2.153c-.01.374.03.752-.007,1.123-.137,1.358-.057,2.44,1.573,3.048A3.171,3.171,0,0,1,80.363,60a3.917,3.917,0,0,0,1.191,2.852,3.628,3.628,0,0,1,.667,4.38A3.952,3.952,0,0,1,78.548,69.6c-.17.005-.34,0-.511,0H19.816c-1.328,0-1.724-.279-1.973-1.365L18.9,67.15l34.332,0c.269.02.539.057.808.057,1.214,0,1.879-.6,1.877-1.692,0-1.245-.431-1.626-1.866-1.635-.406,0-.812.032-1.218.049-1.287-.018-2.575-.077-3.861-.041A1.877,1.877,0,0,1,46.874,62.7,1.42,1.42,0,0,1,48.56,61.43c.6.043,1.205-.021,1.808-.038h3.606c.117-1.286-.607-2.169-1.78-1.979a14.4,14.4,0,0,1-2.026.055c-.469-.013-.939-.008-1.406-.043A1.784,1.784,0,0,1,47,58.278c-.1-.342.337-.839.53-1.265h3.419A35.624,35.624,0,0,0,49.814,45.87a36.554,36.554,0,0,0-3.905-9.954l-.23-.307H42.622a10.616,10.616,0,0,0-1.412-.046A1.221,1.221,0,0,1,39.68,34.3c.131-1.195,1.063-1.14,1.907-1.224,2.382.016,4.763.051,7.145.038,1.15-.006,1.64-.52,1.644-1.579a1.5,1.5,0,0,0-1.651-1.707c-2.382-.018-4.764.016-7.146.029-.135-.013-.27-.036-.405-.036q-15.571,0-31.141,0c-.238,0-.536-.064-.7.051-.445.309-1.063.636-1.183,1.074a1.857,1.857,0,0,0,.4,1.594,2.935,2.935,0,0,0,1.809.564c8.066.035,16.132.023,24.2.024,1.481,0,1.669.172,1.762,1.579-.242.845-.926.85-1.614.85-6.913,0-13.826.025-20.738-.027a1.772,1.772,0,0,0-1.916,1.2c-.486,1.165-1.041,2.3-1.522,3.468A39.08,39.08,0,0,0,7.45,54.335c-.057,2.629-.012,2.645,2.6,2.639.794,0,1.5.147,1.468,1.075-.026.835-.644,1.186-1.466,1.18-1.192-.009-2.384-.017-3.576,0-1.444.023-1.956.625-1.823,2.211,1.685,0,3.381.028,5.076-.011A1.592,1.592,0,0,1,11.586,62.7a1.711,1.711,0,0,1-1.878,1.183c-1.86-.043-3.721-.015-5.581-.005a1.41,1.41,0,0,0-1.585,1.2,1.6,1.6,0,0,0,1.19,2l10.046.058L14.787,68.4M55.9,45.748c-1.1-.047-2.194-.1-3.292-.127-.059,0-.123.213-.185.328.206,1.4.385,2.81.647,4.2a.927.927,0,0,0,.71.5c1.044.043,2.092,0,3.139-.019H65.03V45.778H56.108l-.209-.029m11.44-43.28a2.591,2.591,0,0,0-.3-.035q-17.508,0-35.016,0a2.955,2.955,0,0,0-.8.1,1.6,1.6,0,0,0-.9,2.532c.489.719,1.206.655,1.91.655q17.253.006,34.506,0c.271,0,.542-.029.813-.045,1.7.014,3.4.048,5.094.035A1.522,1.522,0,0,0,74.3,4.187a1.562,1.562,0,0,0-1.663-1.748c-1.765-.028-3.532.016-5.3.029M36.884,22.262l-1.409-.656A7.757,7.757,0,0,0,29.323,19.4a8.233,8.233,0,0,0-6.42,2.165,2.038,2.038,0,0,1-1.062.442,11.08,11.08,0,0,0-6.187,2.368,6.832,6.832,0,0,0-2.173,3h1.277q10.3,0,20.608,0c1.937,0,3.874-.028,5.811-.044H45a8.781,8.781,0,0,0-8.121-5.068" transform="translate(0 0)" fill="#010101"/>
        <path id="Trazado_275744" data-name="Trazado 275744" d="M56.6,306.712a1.876,1.876,0,0,0,2.094,1.182c1.285-.036,2.573.023,3.86.041l.4,2.871q-16.647,0-33.293.012a3.586,3.586,0,0,0-1.042.34l-1.053,1.084-3.055.168-1.009-1.263a2.59,2.59,0,0,0-.837-.329q-4.151-.037-8.3,0a3.356,3.356,0,0,0-.906.274,1.6,1.6,0,0,1-1.19-2,1.411,1.411,0,0,1,1.585-1.2c1.86-.01,3.722-.038,5.581.005a1.711,1.711,0,0,0,1.878-1.183l35.287,0" transform="translate(-9.731 -244.008)" fill="#eaa978"/>
        <path id="Trazado_275745" data-name="Trazado 275745" d="M339.817,83.772a1.521,1.521,0,0,0-1.245,1.855c.065.842-.036,1.7.027,2.54.066.868-.2,1.251-1.125,1.171a20.682,20.682,0,0,0-2.233.037,5.967,5.967,0,0,1-.322-1.3c-.187-8.9.39-17.8-.43-26.688-.242-2.623-.473-5.252-.872-7.853-.66-4.3-1.451-8.587-2.186-12.879.919,0,1.84.042,2.757-.005.611-.031.829.249.922.787.671,3.912,1.4,7.815,2.011,11.735a66.548,66.548,0,0,1,.823,7.191c.285,6.2.443,12.4.63,18.6.027.883.136,1.63,1.2,1.763q.019,1.524.038,3.047" transform="translate(-263.676 -32.34)" fill="#cb7d50"/>
        <path id="Trazado_275746" data-name="Trazado 275746" d="M64.9,196.032l-35.288,0a1.592,1.592,0,0,0-1.858-1.273c-1.695.039-3.391.011-5.076.011-.133-1.585.379-2.188,1.823-2.211,1.191-.019,2.384-.011,3.575,0,.822.006,1.44-.345,1.466-1.18.029-.928-.674-1.077-1.468-1.075-2.611.006-2.656-.009-2.6-2.639a39.08,39.08,0,0,1,3.078-14.142c.481-1.167,1.036-2.3,1.522-3.468a1.772,1.772,0,0,1,1.916-1.2c6.912.052,13.825.027,20.738.027.688,0,1.372,0,1.614-.85,1.046-.753,2.24-.284,3.362-.406a1.221,1.221,0,0,0,1.53,1.266,10.649,10.649,0,0,1,1.412.046c.333.849.668,1.7,1,2.548.6,1.55,1.278,3.076,1.782,4.656a46.562,46.562,0,0,1,2.125,14.2c-.193.427-.629.924-.53,1.265a1.785,1.785,0,0,0,1.766,1.148c.467.034.937.03,1.406.042l.2,1.924c-.6.016-1.21.081-1.808.037a1.419,1.419,0,0,0-1.687,1.274m-17.768-9.593H60c1.912,0,2.6-.7,2.6-2.644q0-2.3,0-4.6c0-1.813-.751-2.547-2.6-2.547q-12.668,0-25.336,0a9.163,9.163,0,0,0-.918.025,1.626,1.626,0,0,0-1.66,1.843q-.01,2.86-.008,5.721c0,1.6.581,2.194,2.174,2.2q6.436.011,12.872,0" transform="translate(-18.027 -133.328)" fill="#f4b887"/>
        <path id="Trazado_275747" data-name="Trazado 275747" d="M191.4,40.075c.736,4.292,1.527,8.576,2.186,12.879.4,2.6.63,5.231.872,7.853.819,8.884.242,17.792.43,26.687a5.97,5.97,0,0,0,.322,1.3c-.084.52-.35,1.107-.192,1.537.119.325.762.544,1.208.64a9.561,9.561,0,0,0,1.7.075l.2,2.109c-.6.015-1.207.076-1.805.035-.941-.064-1.453.313-1.51,1.267l-9.35.009-.2-.008c-.447-.75-.9-1.5-1.335-2.251a6.38,6.38,0,0,1-.306-.724c-.49-1.171-.9-2.382-1.5-3.5-.53-1-1.775-1.664-1.363-3.082l7.967-.031c1.728-.007,2.427-.715,2.43-2.468,0-1.7.011-3.405,0-5.108a2.052,2.052,0,0,0-2.229-2.211c-3.336-.029-6.672-.042-10.007-.061-.438-1.545-.827-3.106-1.338-4.626a1.346,1.346,0,0,1,.354-1.675,5.243,5.243,0,0,0,.789-1.349q3.051-.032,6.1-.064a1.965,1.965,0,0,0,2.21-2.145c.026-2.409-.011-4.818.017-7.227a1.575,1.575,0,0,0-1.37-1.692q-.016-1.523-.032-3.045c1.2-.266,1.471-1.073,1.41-2.194-.071-1.322-.007-2.65-.019-3.976a2.124,2.124,0,0,0-2.352-2.394q-8.923-.017-17.845,0c-1.576,0-2.168.639-2.179,2.21,0,.611-.029,1.221-.045,1.832a3.052,3.052,0,0,0-.673-.2c-2.455-.15-4.911-.268-7.365-.436a4.926,4.926,0,0,1-1.178-.39c.3-1.912.6-3.824.915-5.734.106-.651.243-1.3.376-2h.961q16.333,0,32.667.007a7.454,7.454,0,0,1,1.066.151" transform="translate(-123.64 -31.757)" fill="#de955e"/>
        <path id="Trazado_275748" data-name="Trazado 275748" d="M231.3,81.176q.016,1.523.032,3.045c-.917.242-1.091.9-1.078,1.752.035,2.241.012,4.483.012,6.832h-4.476c0-.545-.046-1.094.009-1.634.365-3.608-3.148-7.213-6.23-7.593a1.592,1.592,0,0,1-.989-.6,17.77,17.77,0,0,0-5.464-5.105l-.33-.2q0-1.126-.005-2.252l.333-.334h16.767l.336.334c.017,1.42.043,2.841.046,4.261a1.337,1.337,0,0,0,1.038,1.494" transform="translate(-169.277 -59.737)" fill="#f5f8f9"/>
        <path id="Trazado_275749" data-name="Trazado 275749" d="M93.634,102.637c-1.937.015-3.874.042-5.811.044q-10.3.008-20.608,0H65.939a6.834,6.834,0,0,1,2.173-3A11.079,11.079,0,0,1,74.3,97.313a2.038,2.038,0,0,0,1.062-.442,8.233,8.233,0,0,1,6.42-2.165c1.685,1.755,3.931,1.947,6.152,2.207l1.409.656c.178.148.345.312.536.442a9.919,9.919,0,0,1,3.756,4.627M85.259,99.49a1.033,1.033,0,0,0,1.057,1.264,1.082,1.082,0,0,0,1.2-1.17c0-.768-.33-1.22-1.1-1.218-.692,0-1.266.22-1.152,1.124m-8.284,1.1c.831.153,1.155-.42,1.295-1.057.132-.605-.6-1.227-1.322-1.163a1.039,1.039,0,0,0-1.087,1.161c.042.657.278,1.189,1.114,1.059M82.8,97.231c.077-.8-.289-1.146-1.115-1.141-.74,0-1.164.246-1.138,1.043.025.757.393,1.225,1.162,1.2.647-.018,1.2-.254,1.091-1.105" transform="translate(-52.459 -75.306)" fill="#fef9e7"/>
        <path id="Trazado_275750" data-name="Trazado 275750" d="M184.291,15.135c-.271.016-.542.045-.813.045q-17.253,0-34.506,0c-.7,0-1.421.063-1.91-.655a1.6,1.6,0,0,1,.9-2.532,2.955,2.955,0,0,1,.8-.1q17.508-.006,35.016,0a2.6,2.6,0,0,1,.3.035.983.983,0,0,0,.014.153l.194.184Z" transform="translate(-116.742 -9.458)" fill="#cb7d50"/>
        <path id="Trazado_275751" data-name="Trazado 275751" d="M71.222,150.252c-1.122.123-2.316-.347-3.362.406-.093-1.407-.282-1.579-1.762-1.579-8.066,0-16.132.011-24.2-.024a2.937,2.937,0,0,1-1.81-.564,1.858,1.858,0,0,1-.4-1.594c.121-.438.738-.765,1.183-1.074.166-.115.464-.051.7-.051q15.571,0,31.14,0c.135,0,.27.024.406.036q0,1.61.008,3.22c-.844.084-1.777.029-1.907,1.224" transform="translate(-31.542 -115.957)" fill="#eaa978"/>
        <path id="Trazado_275752" data-name="Trazado 275752" d="M213.393,195.581a46.564,46.564,0,0,0-2.125-14.2c-.5-1.581-1.181-3.107-1.782-4.656-.33-.85-.665-1.7-1-2.548h3.057l.23.308a36.559,36.559,0,0,1,3.9,9.954,35.623,35.623,0,0,1,1.133,11.143Z" transform="translate(-165.866 -138.568)" fill="#eaa978"/>
        <path id="Trazado_275753" data-name="Trazado 275753" d="M213.136,88.729a17.772,17.772,0,0,1,5.464,5.105,1.592,1.592,0,0,0,.989.6c3.082.379,6.6,3.985,6.23,7.593-.055.539-.008,1.089-.009,1.633h-3.852c.64-2.562-.138-4.377-2.335-5.308a10.456,10.456,0,0,0-1.761-.233c-.355-.078-.87-.247-.975-.51a11.546,11.546,0,0,0-3.559-4.724,3.006,3.006,0,0,1-.519-.889,3.052,3.052,0,0,0,.312-.847c.044-.8.016-1.612.017-2.418" transform="translate(-169.302 -70.59)" fill="#e8edf2"/>
        <path id="Trazado_275754" data-name="Trazado 275754" d="M302.41,306.7l9.35-.009c.1.976.78,1.17,1.6,1.178q2.091.022,4.183.048l.4,3.2H302.827q-.209-2.211-.417-4.421" transform="translate(-240.587 -243.992)" fill="#cb7d50"/>
        <path id="Trazado_275755" data-name="Trazado 275755" d="M274.42,223.926h8.922v4.855h-8.111l-.819-4.692q0-.081.008-.162" transform="translate(-218.313 -178.148)" fill="#fee177"/>
        <path id="Trazado_275756" data-name="Trazado 275756" d="M265.227,259.85c-.412,1.418.833,2.081,1.363,3.082.591,1.117,1,2.328,1.5,3.5a6.362,6.362,0,0,0,.306.724c.435.756.889,1.5,1.335,2.252l-4.121.017a2.012,2.012,0,0,1-1.231-2.252c.086-1.54-.88-2.508-2.147-3.248a1.344,1.344,0,0,1-.653-.885c-.022-1.019.1-2.041.167-3.062l3.076-.152.408.025" transform="translate(-208.098 -206.708)" fill="#cb7d50"/>
        <path id="Trazado_275757" data-name="Trazado 275757" d="M244.12,174.032a5.24,5.24,0,0,1-.789,1.348,1.346,1.346,0,0,0-.354,1.675c.511,1.52.9,3.081,1.338,4.626-.98.019-1.962.015-2.942.064-.593.03-.748-.274-.947-.781-.9-2.289-1.875-4.548-2.824-6.818l.174-.158,6.343.044" transform="translate(-189.029 -138.419)" fill="#cb7d50"/>
        <path id="Trazado_275758" data-name="Trazado 275758" d="M203.395,149.109l-.008-3.22c2.382-.013,4.764-.046,7.146-.029a1.5,1.5,0,0,1,1.651,1.707c0,1.059-.494,1.573-1.644,1.579-2.381.013-4.763-.022-7.145-.038" transform="translate(-161.808 -116.038)" fill="#de955e"/>
        <path id="Trazado_275759" data-name="Trazado 275759" d="M154.508,77.733a4.926,4.926,0,0,0,1.178.39c2.453.168,4.91.287,7.365.436a3.041,3.041,0,0,1,.673.2v3.493a17.089,17.089,0,0,0-2.421-.479,6.734,6.734,0,0,1-3.01-1.368A14.33,14.33,0,0,0,155,78.995c-.925-.258-.816-.652-.494-1.262" transform="translate(-122.736 -61.842)" fill="#cb7d50"/>
        <path id="Trazado_275760" data-name="Trazado 275760" d="M329.4,12.078a1,1,0,0,1-.014-.153c1.766-.013,3.533-.057,5.3-.029a1.562,1.562,0,0,1,1.663,1.748,1.522,1.522,0,0,1-1.657,1.525c-1.7.013-3.4-.02-5.094-.035q0-1.436,0-2.872l-.194-.184" transform="translate(-262.051 -9.456)" fill="#bf7049"/>
        <path id="Trazado_275761" data-name="Trazado 275761" d="M260.1,224.65l.819,4.692c-1.047.015-2.095.063-3.139.019a.927.927,0,0,1-.71-.5c-.262-1.392-.441-2.8-.647-4.2l3.448-.026.229.018" transform="translate(-204.005 -178.71)" fill="#fed15b"/>
        <path id="Trazado_275762" data-name="Trazado 275762" d="M184.711,113.912a9.919,9.919,0,0,0-3.756-4.626c-.191-.13-.358-.294-.536-.442a8.781,8.781,0,0,1,8.121,5.068Z" transform="translate(-143.535 -86.581)" fill="#fef3c9"/>
        <path id="Trazado_275763" data-name="Trazado 275763" d="M281.3,306.713l4.121-.017.2.008.417,4.421-2.467-.007-1.446-.335c.095-1.431.149-2.853-.819-4.071" transform="translate(-223.792 -243.997)" fill="#bf7049"/>
        <path id="Trazado_275764" data-name="Trazado 275764" d="M92.429,327.091a3.586,3.586,0,0,1,1.042-.34q16.647-.026,33.293-.012l0,.35-34.332,0" transform="translate(-73.533 -259.941)" fill="#f6b27e"/>
        <path id="Trazado_275765" data-name="Trazado 275765" d="M376.819,315.732l-.4-3.2c.506-.014,1.012-.054,1.517-.037a1.629,1.629,0,0,1,1.761,1.657,1.863,1.863,0,0,1-1.765,1.623c-.368.02-.74-.024-1.111-.039" transform="translate(-299.465 -248.604)" fill="#bf7049"/>
        <path id="Trazado_275766" data-name="Trazado 275766" d="M258.813,315.731l0-.35-.4-2.871c.406-.017.812-.051,1.218-.049,1.435.009,1.864.39,1.866,1.635,0,1.091-.663,1.7-1.877,1.692-.27,0-.539-.037-.808-.057" transform="translate(-205.585 -248.583)" fill="#de955e"/>
        <path id="Trazado_275767" data-name="Trazado 275767" d="M363.574,291.932l-.2-2.109c.68-.016,1.361-.063,2.039-.041,1.2.038,1.851.811,1.788,2.15Z" transform="translate(-289.085 -230.535)" fill="#cb7d50"/>
        <path id="Trazado_275768" data-name="Trazado 275768" d="M245.6,292.5l-.2-1.924a14.4,14.4,0,0,0,2.026-.055c1.173-.191,1.9.693,1.78,1.979Z" transform="translate(-195.232 -231.11)" fill="#eaa978"/>
        <path id="Trazado_275769" data-name="Trazado 275769" d="M149.585,97.01c-2.222-.259-4.467-.452-6.152-2.207a7.757,7.757,0,0,1,6.152,2.207" transform="translate(-114.11 -75.403)" fill="#fef3c9"/>
        <path id="Trazado_275770" data-name="Trazado 275770" d="M18.257,327a3.353,3.353,0,0,1,.906-.274q4.151-.032,8.3,0a2.593,2.593,0,0,1,.837.329L18.257,327" transform="translate(-14.525 -259.921)" fill="#f6b27e"/>
        <path id="Trazado_275771" data-name="Trazado 275771" d="M259.877,223.459l-3.448.026c.062-.114.126-.329.185-.327,1.1.027,2.194.08,3.291.127a.647.647,0,0,1-.029.174" transform="translate(-204.006 -177.537)" fill="#0f0b08"/>
        <path id="Trazado_275772" data-name="Trazado 275772" d="M213.132,87.939c0,.806.027,1.614-.017,2.418a3.051,3.051,0,0,1-.312.847q0-1.734,0-3.468l.33.2" transform="translate(-169.298 -69.8)" fill="#feffff"/>
        <path id="Trazado_275773" data-name="Trazado 275773" d="M265.479,259.041l-3.076.152a3.284,3.284,0,0,1,1.019-.353,19.542,19.542,0,0,1,2.057.2" transform="translate(-208.759 -205.923)" fill="#0f0b08"/>
        <path id="Trazado_275774" data-name="Trazado 275774" d="M285.3,326.691l1.446.335c-.435.009-.871.03-1.3.011-.052,0-.095-.225-.142-.346" transform="translate(-226.979 -259.904)" fill="#cb7d50"/>
        <path id="Trazado_275775" data-name="Trazado 275775" d="M296.76,75.423l-.335-.334.335.334" transform="translate(-235.826 -59.738)" fill="#feffff"/>
        <path id="Trazado_275776" data-name="Trazado 275776" d="M213.109,75.087l-.333.334.333-.334" transform="translate(-169.277 -59.737)" fill="#feffff"/>
        <path id="Trazado_275777" data-name="Trazado 275777" d="M223.67,174.487l-.23-.307.23.307" transform="translate(-177.761 -138.572)" fill="#f4b887"/>
        <path id="Trazado_275778" data-name="Trazado 275778" d="M273.293,223.954a.649.649,0,0,0,.029-.174l.209.03c0,.054-.005.109-.008.163l-.229-.018" transform="translate(-217.423 -178.032)" fill="#cd9a71"/>
        <path id="Trazado_275779" data-name="Trazado 275779" d="M237.776,173.988l-.174.158.174-.158" transform="translate(-189.028 -138.419)" fill="#9a5e3c"/>
        <path id="Trazado_275780" data-name="Trazado 275780" d="M83.821,221.7q-6.436,0-12.872,0c-1.593,0-2.174-.6-2.174-2.2q0-2.86.008-5.721a1.626,1.626,0,0,1,1.66-1.843c.3-.03.612-.025.918-.025q12.668,0,25.336,0c1.846,0,2.593.735,2.6,2.547q0,2.3,0,4.6c0,1.944-.689,2.643-2.6,2.644H83.821m-12.636-7.16c-.011,1.374-.037,2.749-.014,4.123,0,.188.255.372.392.558q8.4.023,16.8.043c2.714,0,5.429-.028,8.143-.043l.177-.188q0-2.248,0-4.5l-.181-.167-24.518,0-.8.168" transform="translate(-54.715 -168.589)"/>
        <path id="Trazado_275781" data-name="Trazado 275781" d="M160.368,113.923c-.115-.9.46-1.122,1.152-1.124.771,0,1.1.45,1.1,1.218a1.082,1.082,0,0,1-1.2,1.17,1.033,1.033,0,0,1-1.057-1.265" transform="translate(-127.569 -89.739)" fill="#010101"/>
        <path id="Trazado_275782" data-name="Trazado 275782" d="M115.571,115c-.837.13-1.072-.4-1.114-1.059a1.039,1.039,0,0,1,1.087-1.161c.726-.064,1.455.557,1.322,1.163-.139.638-.463,1.21-1.295,1.057" transform="translate(-91.055 -89.719)" fill="#010101"/>
        <path id="Trazado_275783" data-name="Trazado 275783" d="M139.642,102.807c.109.851-.444,1.087-1.091,1.105-.769.022-1.137-.446-1.162-1.2-.027-.8.4-1.038,1.138-1.043.826,0,1.192.342,1.115,1.141" transform="translate(-109.301 -80.882)" fill="#010101"/>
        <path id="Trazado_275784" data-name="Trazado 275784" d="M329.459,12.823l.194.184-.194-.184" transform="translate(-262.106 -10.202)" fill="#d58354"/>
        <path id="Trazado_275785" data-name="Trazado 275785" d="M107.495,224.1q0,2.248,0,4.5l-.177.188c-2.714.015-5.429.046-8.143.043q-8.4-.008-16.8-.043c0-1.207-.03-2.415.019-3.619a3.65,3.65,0,0,1,.393-1.055.556.556,0,0,0,.007-.175l24.518,0,.181.166" transform="translate(-65.529 -178.157)" fill="#f5f8f9"/>
        <path id="Trazado_275786" data-name="Trazado 275786" d="M81.261,224.778a3.636,3.636,0,0,0-.393,1.055c-.05,1.2-.019,2.413-.019,3.619-.137-.186-.389-.37-.392-.558-.023-1.374,0-2.748.014-4.123l.79.007" transform="translate(-64.001 -178.82)" fill="#feffff"/>
        <path id="Trazado_275787" data-name="Trazado 275787" d="M81.352,224.122l-.79-.007.8-.168a.561.561,0,0,1-.007.175" transform="translate(-64.092 -178.165)" fill="#cacccd"/>
        <path id="Trazado_275788" data-name="Trazado 275788" d="M204.572,224.1l-.181-.166.181.166" transform="translate(-162.606 -178.157)" fill="#cacccd"/>
        <path id="Trazado_275789" data-name="Trazado 275789" d="M204.422,246.935l.177-.188-.177.188" transform="translate(-162.631 -196.303)" fill="#feffff"/>
      </g>
    </g>
  </g>
</svg>
