<svg xmlns="http://www.w3.org/2000/svg" xmlns:xlink="http://www.w3.org/1999/xlink" width="295" height="288.805" viewBox="0 0 295 288.805">
  <defs>
    <clipPath id="clip-path">
      <rect id="Rectángulo_322611" data-name="Rectángulo 322611" width="295" height="288.805" fill="none"/>
    </clipPath>
    <clipPath id="clip-path-3">
      <rect id="Rectángulo_322589" data-name="Rectángulo 322589" width="204.672" height="113.996" fill="none"/>
    </clipPath>
    <clipPath id="clip-path-4">
      <rect id="Rectángulo_322590" data-name="Rectángulo 322590" width="11.534" height="11.534" fill="none"/>
    </clipPath>
    <clipPath id="clip-path-5">
      <rect id="Rectángulo_322591" data-name="Rectángulo 322591" width="11.534" height="11.535" fill="none"/>
    </clipPath>
    <clipPath id="clip-path-6">
      <rect id="Rectángulo_322592" data-name="Rectángulo 322592" width="5.324" height="5.323" fill="none"/>
    </clipPath>
    <clipPath id="clip-path-7">
      <rect id="Rectángulo_322593" data-name="Rectángulo 322593" width="5.767" height="5.766" fill="none"/>
    </clipPath>
    <clipPath id="clip-path-8">
      <rect id="Rectángulo_322594" data-name="Rectángulo 322594" width="7.542" height="7.542" fill="none"/>
    </clipPath>
    <clipPath id="clip-path-10">
      <rect id="Rectángulo_322596" data-name="Rectángulo 322596" width="223.653" height="114.946" fill="none"/>
    </clipPath>
    <clipPath id="clip-path-14">
      <rect id="Rectángulo_322601" data-name="Rectángulo 322601" width="23.513" height="23.513" fill="none"/>
    </clipPath>
    <clipPath id="clip-path-15">
      <rect id="Rectángulo_322602" data-name="Rectángulo 322602" width="14.196" height="14.196" fill="none"/>
    </clipPath>
    <clipPath id="clip-path-16">
      <rect id="Rectángulo_322603" data-name="Rectángulo 322603" width="4.436" height="4.436" fill="none"/>
    </clipPath>
    <clipPath id="clip-path-17">
      <rect id="Rectángulo_322604" data-name="Rectángulo 322604" width="7.098" height="7.098" fill="none"/>
    </clipPath>
    <clipPath id="clip-path-19">
      <rect id="Rectángulo_322606" data-name="Rectángulo 322606" width="18.633" height="18.633" fill="none"/>
    </clipPath>
    <clipPath id="clip-path-20">
      <rect id="Rectángulo_322607" data-name="Rectángulo 322607" width="63.611" height="23.896" fill="none"/>
    </clipPath>
    <clipPath id="clip-path-22">
      <rect id="Rectángulo_322609" data-name="Rectángulo 322609" width="11.29" height="9.543" fill="none"/>
    </clipPath>
  </defs>
  <g id="Grupo_1070887" data-name="Grupo 1070887" transform="translate(-180 -4733)">
    <g id="Grupo_255605" data-name="Grupo 255605" transform="translate(180 4733)">
      <g id="Grupo_255604" data-name="Grupo 255604" clip-path="url(#clip-path)">
        <g id="Grupo_255570" data-name="Grupo 255570">
          <g id="Grupo_255569" data-name="Grupo 255569" clip-path="url(#clip-path)">
            <g id="Grupo_255547" data-name="Grupo 255547" transform="translate(16.775 159.282)" opacity="0.27">
              <g id="Grupo_255546" data-name="Grupo 255546">
                <g id="Grupo_255545" data-name="Grupo 255545" clip-path="url(#clip-path-3)">
                  <path id="Trazado_273208" data-name="Trazado 273208" d="M215.923,280.635c-13.337-8.849-31.031-3.9-46.4.575s-34.154,7.4-45.487-3.905c-6.013-6-8.32-14.654-12.34-22.135-11-20.476-35.043-26.3-55.1-20.613C37.943,239.84,22.732,255.072,24.65,277.71c1.124,13.258,8.117,25.947,19.68,32.526a21.824,21.824,0,0,0-3.262.775c-14.815,4.736-11.288,26.677,4.265,26.677H72.109a9.98,9.98,0,0,0,19.821,0H199.072a30.022,30.022,0,0,0,30.079-29.332c0-.105,0-.212,0-.317.119-10.576-4.42-21.555-13.233-27.4" transform="translate(-24.486 -232.496)" fill="#8ff2d1"/>
                </g>
              </g>
            </g>
            <g id="Grupo_255550" data-name="Grupo 255550" transform="translate(0 166.363)" opacity="0.27">
              <g id="Grupo_255549" data-name="Grupo 255549">
                <g id="Grupo_255548" data-name="Grupo 255548" clip-path="url(#clip-path-4)">
                  <path id="Trazado_273209" data-name="Trazado 273209" d="M5.767,242.832a5.767,5.767,0,1,0,5.767,5.767,5.767,5.767,0,0,0-5.767-5.767" transform="translate(0 -242.832)" fill="#8ff2d1"/>
                </g>
              </g>
            </g>
            <g id="Grupo_255553" data-name="Grupo 255553" transform="translate(279.383 146.207)" opacity="0.27">
              <g id="Grupo_255552" data-name="Grupo 255552">
                <g id="Grupo_255551" data-name="Grupo 255551" clip-path="url(#clip-path-5)">
                  <path id="Trazado_273210" data-name="Trazado 273210" d="M413.567,213.411a5.767,5.767,0,1,0,5.767,5.767,5.767,5.767,0,0,0-5.767-5.767" transform="translate(-407.8 -213.411)" fill="#8ff2d1"/>
                </g>
              </g>
            </g>
            <g id="Grupo_255556" data-name="Grupo 255556" transform="translate(4.88 145.956)" opacity="0.27">
              <g id="Grupo_255555" data-name="Grupo 255555">
                <g id="Grupo_255554" data-name="Grupo 255554" clip-path="url(#clip-path-6)">
                  <path id="Trazado_273211" data-name="Trazado 273211" d="M9.785,218.368a2.662,2.662,0,1,0-2.662-2.662,2.662,2.662,0,0,0,2.662,2.662" transform="translate(-7.123 -213.045)" fill="#8ff2d1"/>
                </g>
              </g>
            </g>
            <g id="Grupo_255559" data-name="Grupo 255559" transform="translate(115.788 158.822)" opacity="0.27">
              <g id="Grupo_255558" data-name="Grupo 255558">
                <g id="Grupo_255557" data-name="Grupo 255557" clip-path="url(#clip-path-7)">
                  <path id="Trazado_273212" data-name="Trazado 273212" d="M171.893,237.59a2.884,2.884,0,1,0-2.884-2.884,2.883,2.883,0,0,0,2.884,2.884" transform="translate(-169.009 -231.824)" fill="#8ff2d1"/>
                </g>
              </g>
            </g>
            <g id="Grupo_255562" data-name="Grupo 255562" transform="translate(12.865 230.69)" opacity="0.27">
              <g id="Grupo_255561" data-name="Grupo 255561">
                <g id="Grupo_255560" data-name="Grupo 255560" clip-path="url(#clip-path-8)">
                  <path id="Trazado_273213" data-name="Trazado 273213" d="M22.55,336.726a3.771,3.771,0,1,0,3.771,3.771,3.771,3.771,0,0,0-3.771-3.771" transform="translate(-18.779 -336.726)" fill="#8ff2d1"/>
                </g>
              </g>
            </g>
            <g id="Grupo_255565" data-name="Grupo 255565" transform="translate(39.039 277.271)" opacity="0.27">
              <g id="Grupo_255564" data-name="Grupo 255564">
                <g id="Grupo_255563" data-name="Grupo 255563" clip-path="url(#clip-path-4)">
                  <path id="Trazado_273214" data-name="Trazado 273214" d="M62.751,404.718a5.767,5.767,0,1,0,5.767,5.767,5.767,5.767,0,0,0-5.767-5.767" transform="translate(-56.984 -404.718)" fill="#8ff2d1"/>
                </g>
              </g>
            </g>
            <g id="Grupo_255568" data-name="Grupo 255568" transform="translate(71.347 19.525)" opacity="0.27">
              <g id="Grupo_255567" data-name="Grupo 255567">
                <g id="Grupo_255566" data-name="Grupo 255566" clip-path="url(#clip-path-10)">
                  <path id="Trazado_273215" data-name="Trazado 273215" d="M327.616,77.906c2.1-24.737-14.526-41.381-34.91-47.156-21.919-6.208-48.188.15-60.211,22.525C228.1,61.45,225.58,70.911,219.01,77.464c-4.75,4.737-10.7,7.182-17.174,8.127a19.964,19.964,0,1,0-37.886-5.4c-15.438-4.324-32.3-7.749-45.346.907-9.63,6.391-14.589,18.388-14.46,29.945,0,.115,0,.231,0,.347a32.806,32.806,0,0,0,32.869,32.052h168c17,0,20.849-23.976,4.66-29.151a23.838,23.838,0,0,0-3.564-.846c12.635-7.188,20.277-21.054,21.5-35.542" transform="translate(-104.142 -28.5)" fill="#8ff2d1"/>
                </g>
              </g>
            </g>
            <circle id="Elipse_4290" data-name="Elipse 4290" cx="127" cy="127" r="127" transform="translate(18.873 13.515)" fill="none" stroke="#aeaeff" stroke-linecap="round" stroke-linejoin="round" stroke-width="1.959" stroke-dasharray="7.853 5.235"/>
            <path id="Trazado_273216" data-name="Trazado 273216" d="M97.987,70.142h-3a12.169,12.169,0,0,0-.736-1.44l1.809-2.186A.453.453,0,0,0,96,65.88l-4.752-3.932a.454.454,0,0,0-.636.06l-1.583,1.914a12.1,12.1,0,0,0-2.016-.763V60.653a.453.453,0,0,0-.451-.451H80.391a.453.453,0,0,0-.452.451v2.63a12.249,12.249,0,0,0-2,.84l-1.752-2.116a.452.452,0,0,0-.636-.06L70.8,65.88a.453.453,0,0,0-.06.636l2.145,2.592q-.274.5-.5,1.034H68.3a.452.452,0,0,0-.451.451v6.168a.452.452,0,0,0,.451.451h3.282a12.2,12.2,0,0,0,1.113,3.319L70.229,83.51a.453.453,0,0,0,.06.636l4.752,3.932a.452.452,0,0,0,.636-.06L77.6,85.7a12.19,12.19,0,0,0,2.34,1.028v3.286a.453.453,0,0,0,.452.451h6.168a.453.453,0,0,0,.451-.451V86.847a12.17,12.17,0,0,0,2.539-1.031l1.823,2.2a.452.452,0,0,0,.636.06l4.752-3.932a.452.452,0,0,0,.06-.636l-2.269-2.742a12.192,12.192,0,0,0,1.235-3.556h2.2a.453.453,0,0,0,.451-.451V70.594a.453.453,0,0,0-.451-.451m-14.3,10.875A6.014,6.014,0,1,1,89.7,75a6.014,6.014,0,0,1-6.014,6.014" transform="translate(-21.366 -18.958)" fill="#9c94ff"/>
            <circle id="Elipse_4291" data-name="Elipse 4291" cx="90.496" cy="90.496" r="90.496" transform="translate(54.315 50.019)" fill="none" stroke="#624bef" stroke-linecap="round" stroke-linejoin="round" stroke-width="43.385"/>
            <circle id="Elipse_4292" data-name="Elipse 4292" cx="90.496" cy="90.496" r="90.496" transform="translate(54.315 50.019)" fill="none" stroke="#fab919" stroke-linecap="round" stroke-linejoin="round" stroke-width="1.943" stroke-dasharray="4.511 4.511"/>
            <path id="Trazado_273217" data-name="Trazado 273217" d="M216.205,28.178l-7.685-8.884L191.823,0,173.7,19.295l-8.105,8.633-9.579,10.2h9.579V69.907h50.613V37.9l8.344-.078Z" transform="translate(-49.129 0)" fill="#aeaeff"/>
          </g>
        </g>
        <text id="_" data-name="$" transform="translate(130.661 52.498)" fill="#fff8f3" font-size="31" font-family="Montserrat-Black, Montserrat" font-weight="800"><tspan x="0" y="0">$</tspan></text>
        <g id="Grupo_255572" data-name="Grupo 255572">
          <g id="Grupo_255571" data-name="Grupo 255571" clip-path="url(#clip-path)">
            <path id="Trazado_273218" data-name="Trazado 273218" d="M111.231,291.6l-7.833-3-7.833-3,6.513-5.285,6.513-5.285,1.32,8.282Z" transform="translate(-30.094 -86.61)" fill="#fab919"/>
            <path id="Trazado_273219" data-name="Trazado 273219" d="M309.147,285.939l-3,7.833-3,7.833-5.285-6.513-5.285-6.513,8.282-1.321Z" transform="translate(-92.135 -90.043)" fill="#fab919"/>
            <path id="Trazado_273220" data-name="Trazado 273220" d="M294.721,90.518,290.233,97.6l-4.488,7.085-3.892-7.429-3.892-7.43,8.38.345Z" transform="translate(-87.531 -28.288)" fill="#fab919"/>
            <path id="Trazado_273221" data-name="Trazado 273221" d="M133.424,83.911,137.2,91.4l3.773,7.491-8.374-.478-8.373-.479,4.6-7.012Z" transform="translate(-39.118 -26.424)" fill="#fab919"/>
            <path id="Trazado_273222" data-name="Trazado 273222" d="M70.043,119.941H64.717a21.609,21.609,0,0,0-1.307-2.555l3.21-3.878a.8.8,0,0,0-.106-1.128L58.082,105.4a.8.8,0,0,0-1.128.107l-2.81,3.4a21.541,21.541,0,0,0-3.576-1.352v-4.445a.8.8,0,0,0-.8-.8H38.822a.8.8,0,0,0-.8.8v4.666a21.6,21.6,0,0,0-3.548,1.491l-3.108-3.755a.8.8,0,0,0-1.128-.107L21.8,112.379a.8.8,0,0,0-.106,1.128l3.806,4.6q-.488.892-.894,1.834H17.368a.8.8,0,0,0-.8.8v10.944a.8.8,0,0,0,.8.8h5.823a21.634,21.634,0,0,0,1.973,5.889l-4.373,5.284a.8.8,0,0,0,.107,1.128l8.431,6.978a.8.8,0,0,0,1.128-.107l3.412-4.122a21.648,21.648,0,0,0,4.152,1.823v5.829a.8.8,0,0,0,.8.8H49.766a.8.8,0,0,0,.8-.8v-5.608a21.693,21.693,0,0,0,4.505-1.829h0l3.234,3.908a.8.8,0,0,0,1.128.107l8.431-6.978a.8.8,0,0,0,.106-1.128L63.947,138.8a21.641,21.641,0,0,0,2.19-6.308h3.907a.8.8,0,0,0,.8-.8V120.743a.8.8,0,0,0-.8-.8m-25.38,19.3a10.671,10.671,0,1,1,10.671-10.67,10.67,10.67,0,0,1-10.671,10.67" transform="translate(-5.217 -32.216)" fill="#34304f"/>
            <circle id="Elipse_4293" data-name="Elipse 4293" cx="15.637" cy="15.637" r="15.637" transform="translate(17.82 100.902) rotate(-58.283)" fill="none" stroke="#9c94ff" stroke-miterlimit="10" stroke-width="0.648"/>
            <path id="Trazado_273223" data-name="Trazado 273223" d="M357.124,106.6a19.1,19.1,0,1,1-19.1-19.1,19.1,19.1,0,0,1,19.1,19.1" transform="translate(-100.428 -27.553)" fill="#fac119"/>
            <path id="Trazado_273224" data-name="Trazado 273224" d="M357.124,106.6a19.1,19.1,0,1,1-19.1-19.1,19.1,19.1,0,0,1,19.1,19.1" transform="translate(-100.428 -27.553)" fill="#fac119"/>
            <path id="Trazado_273225" data-name="Trazado 273225" d="M328.027,119.021q-1.668,1.321-3.31,2.673a19.1,19.1,0,0,0,30.292-23.271c-9.007,6.849-18.111,13.572-26.981,20.6" transform="translate(-102.254 -30.994)" fill="#ffce55"/>
            <path id="Trazado_273226" data-name="Trazado 273226" d="M354.391,108.923a14.045,14.045,0,1,1-14.045-14.045,14.044,14.044,0,0,1,14.045,14.045" transform="translate(-102.753 -29.877)" fill="#f9a41c"/>
          </g>
        </g>
        <text id="_2" data-name="$" transform="translate(232.542 82.999)" fill="#34304f" font-size="13" font-family="Montserrat-Thin, Montserrat" font-weight="200"><tspan x="0" y="0">$</tspan></text>
        <g id="Grupo_255574" data-name="Grupo 255574">
          <g id="Grupo_255573" data-name="Grupo 255573" clip-path="url(#clip-path)">
            <line id="Línea_798" data-name="Línea 798" x2="4.172" y2="3.293" transform="translate(221.783 67.628)" fill="none" stroke="#e88900" stroke-linecap="round" stroke-linejoin="round" stroke-width="1.923"/>
            <line id="Línea_799" data-name="Línea 799" x2="3.249" y2="4.207" transform="translate(225.978 63.438)" fill="none" stroke="#e88900" stroke-linecap="round" stroke-linejoin="round" stroke-width="1.923"/>
            <line id="Línea_800" data-name="Línea 800" x2="2.218" y2="4.83" transform="translate(231.543 60.931)" fill="none" stroke="#e88900" stroke-linecap="round" stroke-linejoin="round" stroke-width="1.923"/>
            <path id="Trazado_273227" data-name="Trazado 273227" d="M328.593,67.051a10.018,10.018,0,1,1-10.017-10.017,10.017,10.017,0,0,1,10.017,10.017" transform="translate(-97.166 -17.96)" fill="#fac119"/>
            <path id="Trazado_273228" data-name="Trazado 273228" d="M328.593,67.051a10.018,10.018,0,1,1-10.017-10.017,10.017,10.017,0,0,1,10.017,10.017" transform="translate(-97.166 -17.96)" fill="#fac119"/>
            <path id="Trazado_273229" data-name="Trazado 273229" d="M313.334,73.566c-.583.462-1.161.931-1.736,1.4a10.016,10.016,0,0,0,15.885-12.2c-4.724,3.592-9.5,7.117-14.149,10.8" transform="translate(-98.123 -19.765)" fill="#ffce55"/>
            <path id="Trazado_273230" data-name="Trazado 273230" d="M327.16,68.27a7.365,7.365,0,1,1-7.365-7.365,7.366,7.366,0,0,1,7.365,7.365" transform="translate(-98.385 -19.179)" fill="#f9a41c"/>
          </g>
        </g>
        <text id="_3" data-name="$" transform="translate(218.761 51.715)" fill="#34304f" font-size="7" font-family="Montserrat-Thin, Montserrat" font-weight="200"><tspan x="0" y="0">$</tspan></text>
        <g id="Grupo_255603" data-name="Grupo 255603">
          <g id="Grupo_255602" data-name="Grupo 255602" clip-path="url(#clip-path)">
            <line id="Línea_801" data-name="Línea 801" x2="2.188" y2="1.727" transform="translate(213.119 43.103)" fill="none" stroke="#e88900" stroke-linecap="round" stroke-linejoin="round" stroke-width="1.008"/>
            <line id="Línea_802" data-name="Línea 802" x2="1.704" y2="2.206" transform="translate(215.319 40.906)" fill="none" stroke="#e88900" stroke-linecap="round" stroke-linejoin="round" stroke-width="1.008"/>
            <line id="Línea_803" data-name="Línea 803" x2="1.163" y2="2.533" transform="translate(218.237 39.592)" fill="none" stroke="#e88900" stroke-linecap="round" stroke-linejoin="round" stroke-width="1.008"/>
            <path id="Trazado_273231" data-name="Trazado 273231" d="M310.1,105.234l2.379,4.349,4.349,2.379-4.349,2.379-2.379,4.349-2.379-4.349-4.349-2.379,4.349-2.379Z" transform="translate(-95.534 -33.138)" fill="#fff8f3"/>
            <path id="Trazado_273232" data-name="Trazado 273232" d="M331.892,117.409l.893,1.633,1.633.893-1.633.893-.893,1.634L331,120.829l-1.633-.893,1.633-.893Z" transform="translate(-103.718 -36.973)" fill="#fff8f3"/>
            <path id="Trazado_273233" data-name="Trazado 273233" d="M360.192,113.5l.377.689.689.377-.689.377-.377.689-.377-.689-.689-.377.689-.377Z" transform="translate(-113.09 -35.741)" fill="#fff8f3"/>
            <path id="Trazado_273234" data-name="Trazado 273234" d="M355.514,92.85l.987,1.8,1.8.987-1.8.987-.987,1.8-.987-1.8-1.8-.987,1.8-.987Z" transform="translate(-111.074 -29.239)" fill="#fff8f3"/>
            <path id="Trazado_273235" data-name="Trazado 273235" d="M365.864,128.8l.331.6.6.331-.6.331-.331.6-.331-.6-.6-.331.6-.331Z" transform="translate(-114.917 -40.559)" fill="#fff8f3"/>
            <path id="Trazado_273236" data-name="Trazado 273236" d="M328.778,61.86l.964,1.763,1.763.964-1.763.964-.964,1.763-.964-1.763-1.763-.964,1.763-.964Z" transform="translate(-102.675 -19.48)" fill="#fff8f3"/>
            <path id="Trazado_273237" data-name="Trazado 273237" d="M332.493,76.58l.431.789.789.431-.789.431-.431.789-.431-.789-.789-.431.789-.431Z" transform="translate(-104.319 -24.115)" fill="#fff8f3"/>
            <path id="Trazado_273238" data-name="Trazado 273238" d="M312.529,74.516l.512.937.938.513-.938.512-.512.937-.512-.937-.938-.512.938-.513Z" transform="translate(-97.96 -23.465)" fill="#fff8f3"/>
            <path id="Trazado_273239" data-name="Trazado 273239" d="M274.179,351.831H265.55a7.053,7.053,0,1,0-11.675,0H243.111v9.719a7.053,7.053,0,1,0,0,12.73v10.907A32.527,32.527,0,0,0,274.2,352.7c0-.29-.014-.576-.022-.864" transform="translate(-73.383 -107.326)" fill="#624bef"/>
            <path id="Trazado_273240" data-name="Trazado 273240" d="M324.655,356.589a6.384,6.384,0,0,1-.148,1.348h6.5c0-.2.014-.4.014-.6a25.747,25.747,0,0,0-25.745-25.749c-.3,0-.6.014-.9.023v8.09a6.3,6.3,0,1,0,0,10.393v7.842h8.312a6.384,6.384,0,0,1-.148-1.348,6.056,6.056,0,0,1,12.111,0" transform="translate(-92.745 -104.419)" fill="#34304f"/>
            <path id="Trazado_273241" data-name="Trazado 273241" d="M35.416,251.506a3.132,3.132,0,1,1-3.132-3.132,3.132,3.132,0,0,1,3.132,3.132" transform="translate(-9.18 -78.214)" fill="#624bef"/>
            <path id="Trazado_273242" data-name="Trazado 273242" d="M130.754,37.321a3.132,3.132,0,1,1-3.132-3.132,3.132,3.132,0,0,1,3.132,3.132" transform="translate(-39.203 -10.766)" fill="#624bef"/>
            <path id="Trazado_273243" data-name="Trazado 273243" d="M290.74,34.709a3.132,3.132,0,1,1-3.132-3.132,3.131,3.131,0,0,1,3.132,3.132" transform="translate(-89.583 -9.944)" fill="#624bef"/>
            <path id="Trazado_273244" data-name="Trazado 273244" d="M374.324,301.787a3.132,3.132,0,1,1-3.132-3.132,3.132,3.132,0,0,1,3.132,3.132" transform="translate(-115.904 -94.047)" fill="#624bef"/>
            <path id="Trazado_273245" data-name="Trazado 273245" d="M76.668,314.272a26.717,26.717,0,0,0-5.962-10.4,17.68,17.68,0,0,0-4.376-3.545c-4.916-2.7-10.919-2.022-16.478-1.266l23.571,20.123Z" transform="translate(-15.699 -93.963)" fill="#624bef"/>
            <path id="Trazado_273246" data-name="Trazado 273246" d="M61.04,332.885a26.717,26.717,0,0,1-11.208-4.257,17.673,17.673,0,0,1-4.187-3.765c-3.439-4.432-3.708-10.468-3.834-16.076l23.57,20.124Z" transform="translate(-13.166 -97.238)" fill="#624bef"/>
            <path id="Trazado_273247" data-name="Trazado 273247" d="M52.157,319.829a62.605,62.605,0,0,0,8.6,8.871c11.031,9.419,22.888,13.642,26.481,9.434S84.8,322.878,73.765,313.459a62.55,62.55,0,0,0-10.108-7.1Z" transform="translate(-16.424 -96.474)" fill="#ff9e00"/>
            <path id="Trazado_273248" data-name="Trazado 273248" d="M89.614,349.15c4.309,1.349,7.75,1.211,9.415-.739s1.263-5.37-.745-9.415Z" transform="translate(-28.22 -106.751)" fill="#f46a03"/>
            <path id="Trazado_273249" data-name="Trazado 273249" d="M70.81,311.074a59.694,59.694,0,0,0-7.154-4.715l-11.5,13.47a59.762,59.762,0,0,0,5.778,6.326Z" transform="translate(-16.424 -96.473)" fill="#aeaeff"/>
            <rect id="Rectángulo_322600" data-name="Rectángulo 322600" width="4.251" height="8.502" transform="translate(42.862 215.004) rotate(-49.51)" fill="#d7d7f9"/>
            <path id="Trazado_273250" data-name="Trazado 273250" d="M76.111,337.446a5.921,5.921,0,1,1,8.347-.658,5.921,5.921,0,0,1-8.347.658" transform="translate(-23.314 -102.98)" fill="#624bef"/>
            <path id="Trazado_273251" data-name="Trazado 273251" d="M78.923,336.683a3.384,3.384,0,1,1,4.771-.376,3.383,3.383,0,0,1-4.771.376" transform="translate(-24.479 -104.146)" fill="#34304f"/>
            <path id="Trazado_273252" data-name="Trazado 273252" d="M49.008,310.4a30.486,30.486,0,0,0,4.968.641c-.283-1.33-.532-3.7-1.206-4.877a8.794,8.794,0,0,0-4.459-3.611,24.22,24.22,0,0,0-5.633-1.3l-.118-.1a24.449,24.449,0,0,0,2.181,5.41,8.437,8.437,0,0,0,4.266,3.837" transform="translate(-13.403 -94.833)" fill="#ff9e00"/>
            <path id="Trazado_273253" data-name="Trazado 273253" d="M52.31,311.6a17.2,17.2,0,0,0,2.8.361,11.441,11.441,0,0,0-.679-2.747,4.955,4.955,0,0,0-2.512-2.035,13.641,13.641,0,0,0-3.173-.732l-.066-.058a13.724,13.724,0,0,0,1.228,3.048,4.755,4.755,0,0,0,2.4,2.162" transform="translate(-15.329 -96.482)" fill="#f46a03"/>
            <path id="Trazado_273254" data-name="Trazado 273254" d="M46.288,319.5a22.641,22.641,0,0,0,3.692.476,15.113,15.113,0,0,0-.9-3.624,6.534,6.534,0,0,0-3.313-2.684,18.021,18.021,0,0,0-4.185-.965l-.088-.076a18.147,18.147,0,0,0,1.62,4.02,6.271,6.271,0,0,0,3.17,2.851" transform="translate(-13.068 -98.449)" fill="#ff9e00"/>
            <path id="Trazado_273255" data-name="Trazado 273255" d="M48.742,320.4a12.847,12.847,0,0,0,2.08.269,8.5,8.5,0,0,0-.5-2.042,3.68,3.68,0,0,0-1.866-1.512,10.13,10.13,0,0,0-2.358-.543l-.049-.043a10.233,10.233,0,0,0,.913,2.265,3.537,3.537,0,0,0,1.786,1.607" transform="translate(-14.499 -99.674)" fill="#f46a03"/>
            <path id="Trazado_273256" data-name="Trazado 273256" d="M59.342,304.329a22.642,22.642,0,0,0,3.691.476,15.08,15.08,0,0,0-.9-3.624,6.533,6.533,0,0,0-3.313-2.684,18.018,18.018,0,0,0-4.185-.965l-.088-.076a18.16,18.16,0,0,0,1.62,4.02,6.272,6.272,0,0,0,3.17,2.851" transform="translate(-17.179 -93.67)" fill="#ff9e00"/>
            <path id="Trazado_273257" data-name="Trazado 273257" d="M61.8,305.219a12.77,12.77,0,0,0,2.08.269,8.5,8.5,0,0,0-.5-2.042,3.68,3.68,0,0,0-1.866-1.512,10.134,10.134,0,0,0-2.358-.543l-.049-.043a10.233,10.233,0,0,0,.913,2.265,3.537,3.537,0,0,0,1.786,1.607" transform="translate(-18.61 -94.895)" fill="#f46a03"/>
            <path id="Trazado_273258" data-name="Trazado 273258" d="M100.734,345.614c-.09-4.174-2.612-7.853-5.036-11.251" transform="translate(-30.136 -105.292)" fill="none" stroke="#fff8f3" stroke-linecap="round" stroke-linejoin="round" stroke-width="0.665"/>
            <line id="Línea_804" data-name="Línea 804" x1="6.235" y1="5.323" transform="translate(69.803 241.2)" fill="none" stroke="#f46a03" stroke-linecap="round" stroke-linejoin="round" stroke-width="0.665"/>
            <path id="Trazado_273259" data-name="Trazado 273259" d="M110.99,360.975a.911.911,0,1,1,1.284-.1.911.911,0,0,1-1.284.1" transform="translate(-34.851 -113.167)" fill="#f46a03"/>
            <path id="Trazado_273260" data-name="Trazado 273260" d="M118.065,320.756l1.829,3.345,3.345,1.829-3.345,1.829-1.829,3.345-1.829-3.345-3.345-1.829,3.345-1.829Z" transform="translate(-35.55 -101.007)" fill="#fff8f3"/>
            <path id="Trazado_273261" data-name="Trazado 273261" d="M107.234,304.6l1.195,2.184,2.184,1.195-2.184,1.194-1.195,2.184-1.195-2.184-2.184-1.194,2.184-1.195Z" transform="translate(-32.704 -95.919)" fill="#fff8f3"/>
            <path id="Trazado_273262" data-name="Trazado 273262" d="M136.26,319.89l.784,1.434,1.434.784-1.434.784-.784,1.433-.784-1.433-1.434-.784,1.434-.784Z" transform="translate(-42.21 -100.734)" fill="#fff8f3"/>
            <path id="Trazado_273263" data-name="Trazado 273263" d="M74.457,287.9l1,1.836,1.836,1-1.836,1-1,1.837-1-1.837-1.836-1,1.836-1Z" transform="translate(-22.552 -90.66)" fill="#fff8f3"/>
            <path id="Trazado_273264" data-name="Trazado 273264" d="M78.99,265.882l1,1.836,1.836,1-1.836,1-1,1.837-1-1.837-1.836-1,1.836-1Z" transform="translate(-23.98 -83.727)" fill="#fff8f3"/>
            <path id="Trazado_273265" data-name="Trazado 273265" d="M137.062,264.044l.665,1.217,1.217.665-1.217.666-.665,1.217-.665-1.217-1.217-.666,1.217-.665Z" transform="translate(-42.569 -83.148)" fill="#fff8f3"/>
            <path id="Trazado_273266" data-name="Trazado 273266" d="M134.317,347.086l.784,1.434,1.434.784-1.434.784-.784,1.433-.784-1.433L132.1,349.3l1.434-.784Z" transform="translate(-41.598 -109.299)" fill="#fff8f3"/>
            <path id="Trazado_273267" data-name="Trazado 273267" d="M169.8,297.9" transform="translate(-53.47 -93.81)" fill="#fff8f3"/>
            <path id="Trazado_273268" data-name="Trazado 273268" d="M377.388,195.617l.566,1.034,1.034.566-1.034.565-.566,1.035-.565-1.035-1.035-.565,1.035-.566Z" transform="translate(-118.337 -61.6)" fill="#fff8f3"/>
            <path id="Trazado_273269" data-name="Trazado 273269" d="M179.476,39.612l.915,1.672,1.672.915-1.672.915-.915,1.672-.915-1.672-1.672-.915,1.672-.915Z" transform="translate(-55.703 -12.474)" fill="#fff8f3"/>
            <path id="Trazado_273270" data-name="Trazado 273270" d="M200.367,18.134l.784,1.434,1.434.784-1.434.784-.784,1.434-.784-1.434-1.434-.784,1.434-.784Z" transform="translate(-62.398 -5.71)" fill="#fff8f3"/>
            <path id="Trazado_273271" data-name="Trazado 273271" d="M234.971,35.225l.565,1.034,1.035.566-1.035.565-.565,1.035-.566-1.035-1.034-.565,1.034-.566Z" transform="translate(-73.489 -11.093)" fill="#fff8f3"/>
            <path id="Trazado_273272" data-name="Trazado 273272" d="M230.6,89.475l.444.811.811.443-.811.444-.444.811-.443-.811-.811-.444.811-.443Z" transform="translate(-72.221 -28.176)" fill="#fff8f3"/>
            <path id="Trazado_273273" data-name="Trazado 273273" d="M180.123,88.178l.915,1.672,1.672.915-1.672.915-.915,1.672-.915-1.672-1.672-.915,1.672-.915Z" transform="translate(-55.907 -27.768)" fill="#fff8f3"/>
            <path id="Trazado_273274" data-name="Trazado 273274" d="M237.431,72.37l.665,1.217,1.217.665-1.217.666-.665,1.217-.665-1.217-1.217-.666,1.217-.665Z" transform="translate(-74.175 -22.79)" fill="#fff8f3"/>
            <g id="Grupo_255577" data-name="Grupo 255577" transform="translate(222.702 187.658)" opacity="0.27">
              <g id="Grupo_255576" data-name="Grupo 255576">
                <g id="Grupo_255575" data-name="Grupo 255575" clip-path="url(#clip-path-14)">
                  <path id="Trazado_273275" data-name="Trazado 273275" d="M348.58,285.67a11.756,11.756,0,1,1-11.756-11.756A11.756,11.756,0,0,1,348.58,285.67" transform="translate(-325.067 -273.914)" fill="#8ff2d1"/>
                </g>
              </g>
            </g>
            <g id="Grupo_255580" data-name="Grupo 255580" transform="translate(207.619 0.889)" opacity="0.27">
              <g id="Grupo_255579" data-name="Grupo 255579">
                <g id="Grupo_255578" data-name="Grupo 255578" clip-path="url(#clip-path-15)">
                  <path id="Trazado_273276" data-name="Trazado 273276" d="M317.247,8.4a7.1,7.1,0,1,1-7.1-7.1,7.1,7.1,0,0,1,7.1,7.1" transform="translate(-303.051 -1.298)" fill="#8ff2d1"/>
                </g>
              </g>
            </g>
            <g id="Grupo_255583" data-name="Grupo 255583" transform="translate(236.012 0.889)" opacity="0.27">
              <g id="Grupo_255582" data-name="Grupo 255582">
                <g id="Grupo_255581" data-name="Grupo 255581" clip-path="url(#clip-path-16)">
                  <path id="Trazado_273277" data-name="Trazado 273277" d="M348.93,3.515A2.218,2.218,0,1,1,346.712,1.3a2.219,2.219,0,0,1,2.218,2.218" transform="translate(-344.494 -1.298)" fill="#8ff2d1"/>
                </g>
              </g>
            </g>
            <g id="Grupo_255586" data-name="Grupo 255586" transform="translate(180.114 0.889)" opacity="0.27">
              <g id="Grupo_255585" data-name="Grupo 255585">
                <g id="Grupo_255584" data-name="Grupo 255584" clip-path="url(#clip-path-17)">
                  <path id="Trazado_273278" data-name="Trazado 273278" d="M270,4.847A3.549,3.549,0,1,1,266.453,1.3,3.549,3.549,0,0,1,270,4.847" transform="translate(-262.903 -1.298)" fill="#8ff2d1"/>
                </g>
              </g>
            </g>
            <g id="Grupo_255589" data-name="Grupo 255589" transform="translate(70.094 4.438)" opacity="0.27">
              <g id="Grupo_255588" data-name="Grupo 255588">
                <g id="Grupo_255587" data-name="Grupo 255587" clip-path="url(#clip-path-4)">
                  <path id="Trazado_273279" data-name="Trazado 273279" d="M113.846,12.245a5.767,5.767,0,1,1-5.767-5.767,5.767,5.767,0,0,1,5.767,5.767" transform="translate(-102.312 -6.478)" fill="#8ff2d1"/>
                </g>
              </g>
            </g>
            <g id="Grupo_255592" data-name="Grupo 255592" transform="translate(27.505 25.732)" opacity="0.27">
              <g id="Grupo_255591" data-name="Grupo 255591">
                <g id="Grupo_255590" data-name="Grupo 255590" clip-path="url(#clip-path-19)">
                  <path id="Trazado_273280" data-name="Trazado 273280" d="M58.781,46.876a9.316,9.316,0,1,1-9.316-9.316,9.317,9.317,0,0,1,9.316,9.316" transform="translate(-40.148 -37.56)" fill="#8ff2d1"/>
                </g>
              </g>
            </g>
            <path id="Trazado_273281" data-name="Trazado 273281" d="M223.284,330.115a45.147,45.147,0,1,0-63.611-1.822h.007A45.159,45.159,0,0,0,223,330.382Z" transform="translate(-46.363 -79.351)" fill="#aeaeff"/>
            <path id="Trazado_273282" data-name="Trazado 273282" d="M195.686,280.661a8.329,8.329,0,0,0-8.669.926,8.458,8.458,0,0,0-2.075,3.014c-1.736,4.08,2.832,18.256-3.884,19.056-2.291.273-3.71-2.549-3.892-4.456-1.03.575-1.72,2.968-1.368,4.893,2.39,13.035,22.523,15.02,32.638,12.456,6.661-1.687,12.74-6.3,15.313-12.791a22.63,22.63,0,0,0,1.5-7.711,23.974,23.974,0,0,0-6.048-16.885c-4.174-4.491-10.318-8.039-16.377-7.1a9.015,9.015,0,0,0-5.6,2.921,7.636,7.636,0,0,0-1.541,5.68" transform="translate(-55.33 -85.625)" fill="#34304f"/>
            <path id="Trazado_273283" data-name="Trazado 273283" d="M229.006,351.318c-.075-.062-.144-.123-.219-.185-1.391-.884-2.829-1.713-4.282-2.514-.356-.206-.719-.4-1.082-.6s-.726-.4-1.089-.6c-.726-.4-1.452-.8-2.172-1.219s-1.432-.822-2.138-1.254c-.356-.219-.706-.438-1.055-.658-.726-.459-1.439-.939-2.131-1.446a32.016,32.016,0,0,1-2.823-2.275c-.541-.493-1.062-1-1.562-1.541a22.889,22.889,0,0,1-4.734-7.68,34.692,34.692,0,0,1-1.973-9.742c-.027-.377-.055-.76-.069-1.137-.027-.356-.041-.719-.055-1.076v-.069c-1.281,0-2.562,0-3.843.007-2.281.007-4.556.014-6.844.027-.3,0-.6.014-.9.021-.144.562-.295,1.13-.452,1.692-.014.069-.034.137-.055.206-.116.4-.233.808-.356,1.213l-.082.267c-.164.562-.343,1.117-.528,1.672s-.363,1.117-.562,1.672c-.308.877-.637,1.747-.973,2.61-.288.747-.589,1.48-.9,2.22q-.134.319-.288.637a22.578,22.578,0,0,1-6.4,8.084c-.377.308-.76.6-1.158.891-.226.171-.466.336-.7.493-.069.048-.137.1-.212.144-.343.24-.692.466-1.041.678a.183.183,0,0,1-.069.041c-.356.233-.719.445-1.089.658a45.935,45.935,0,0,1-4.405,2.542c-1.178.582-2.322,1.24-3.48,1.87A28.948,28.948,0,0,0,165.4,349.5a45.159,45.159,0,0,0,63.324,2.09Z" transform="translate(-52.086 -100.554)" fill="#7195f5"/>
            <path id="Trazado_273284" data-name="Trazado 273284" d="M212.23,326.161a8.583,8.583,0,0,0,2.825-4.561c-.056-.759-.1-1.521-.125-2.287q-1.921,0-3.841.01-3.425.007-6.845.029c-.3,0-.6.01-.9.019-.575,2.263-1.261,4.5-2.038,6.712,3.238,2.19,7.609,2.644,10.925.078" transform="translate(-63.392 -100.553)" fill="#527cd8"/>
            <path id="Trazado_273285" data-name="Trazado 273285" d="M229.006,360.661c-.075-.062-.144-.123-.219-.185-1.391-.884-2.829-1.713-4.282-2.514-.356-.206-.719-.4-1.082-.6s-.726-.4-1.089-.6c-.726-.4-1.452-.808-2.172-1.219s-1.432-.822-2.138-1.254c-.356-.219-.706-.438-1.055-.658-.719-.466-1.432-.945-2.131-1.452a32.955,32.955,0,0,1-2.816-2.274.007.007,0,0,1-.007.007,18.93,18.93,0,0,1-9.838,8.338c-8.66,3.227-16.915-1.809-20.731-9.256-.377.308-.76.6-1.158.891-.233.164-.466.336-.7.486v.007c-.069.048-.137.1-.212.144-.343.233-.692.459-1.041.678a.183.183,0,0,1-.069.041q-.534.339-1.089.658a45.942,45.942,0,0,1-4.405,2.542c-1.178.582-2.322,1.24-3.48,1.87a28.951,28.951,0,0,0-3.891,2.535,45.159,45.159,0,0,0,63.324,2.09Z" transform="translate(-52.086 -109.897)" fill="#fac119"/>
            <path id="Trazado_273286" data-name="Trazado 273286" d="M252.642,365.526a44.852,44.852,0,0,1-11.29,7.611,22.883,22.883,0,0,1,8.317-9.55,10.2,10.2,0,0,1,2.973,1.939" transform="translate(-76.003 -114.495)" fill="#fac119"/>
            <path id="Trazado_273287" data-name="Trazado 273287" d="M199.468,303.636c0,.137,0,.274,0,.411,0,.087,0,.178.01.266a1.322,1.322,0,0,0,.005.137c0,.029,0,.054.006.083.006.088.017.171.023.258l.011.075c.014.125.032.246.049.367s.048.262.075.388a1.409,1.409,0,0,0,.03.138.546.546,0,0,0,.018.079c.027.109.053.217.084.326a7.953,7.953,0,0,0,.257.761c.023.058.051.121.075.18a8.467,8.467,0,0,0,.829,1.509c.073.1.145.2.217.3l.125.157c.069.084.137.169.21.249q.267.3.559.585c.09.085.183.171.277.251a7.771,7.771,0,0,0,.69.53c.179.125.368.24.56.353a7.421,7.421,0,0,0,1.051.506c.078.031.156.062.239.088.058.022.115.04.173.062.029.009.062.018.095.031a.648.648,0,0,0,.087.023c.095.031.19.058.284.081a7.651,7.651,0,0,0,1.75.256c.133,0,.266.006.4,0a7.931,7.931,0,0,0,4.049-1.207,8.258,8.258,0,0,0,3.863-6.737l.06-1.937.179-5.695v0l.057-1.783.077-2.46c0-.133.006-.27,0-.4,0-.066,0-.133,0-.2,0-.05-.005-.1-.009-.153s-.005-.108-.009-.158a.113.113,0,0,1,0-.037c0-.034-.007-.066-.01-.1s-.006-.079-.01-.116-.008-.046-.011-.071a1.062,1.062,0,0,0-.021-.167.787.787,0,0,0-.021-.142c0-.029-.008-.058-.011-.084-.019-.108-.04-.221-.063-.329-.011-.058-.026-.121-.038-.18s-.026-.112-.042-.167-.031-.108-.042-.167c0,0,0,0,0,0l-.046-.162c-.016-.055-.035-.109-.05-.163s-.036-.1-.055-.159a8.357,8.357,0,0,0-.43-1.015c-.068-.134-.139-.269-.215-.4-.028-.051-.056-.1-.088-.151-.08-.135-.169-.265-.253-.4a.469.469,0,0,1-.04-.055,3.345,3.345,0,0,0-.209-.287c-.045-.055-.089-.114-.134-.169,0,0-.008-.012-.012-.016a7.946,7.946,0,0,0-13.07.9,7.733,7.733,0,0,0-.56,1.091,8.221,8.221,0,0,0-.64,2.941Z" transform="translate(-62.812 -89.374)" fill="#7195f5"/>
            <path id="Trazado_273288" data-name="Trazado 273288" d="M209.207,297.353a10.378,10.378,0,0,0,7.092-1.07l.047-1.5.081-2.6c0-.14.006-.285,0-.425,0-.07,0-.14,0-.21,0-.053-.006-.11-.009-.162s-.006-.114-.01-.166a.113.113,0,0,1,0-.04c0-.035-.007-.07-.011-.1s-.007-.084-.01-.123-.008-.048-.012-.075a1.2,1.2,0,0,0-.022-.176.818.818,0,0,0-.023-.149c0-.031-.008-.062-.011-.088-.019-.114-.043-.234-.066-.348-.012-.062-.028-.127-.04-.189s-.028-.119-.045-.176-.032-.115-.044-.177c0,0,0,0,0,0-.016-.058-.032-.115-.049-.172s-.036-.115-.053-.173-.037-.11-.058-.168a8.913,8.913,0,0,0-.454-1.071c-.071-.142-.147-.284-.227-.421-.03-.053-.06-.106-.093-.16-.084-.143-.177-.28-.267-.418a.452.452,0,0,1-.042-.058,3.483,3.483,0,0,0-.221-.3c-.047-.058-.094-.121-.14-.179,0,0-.008-.013-.013-.018a8.389,8.389,0,0,0-13.8.955,8.119,8.119,0,0,0-.591,1.152,8.6,8.6,0,0,0-.508,1.687,14.887,14.887,0,0,0,9.609,7.122" transform="translate(-62.854 -89.2)" fill="#34304f"/>
            <path id="Trazado_273289" data-name="Trazado 273289" d="M226.573,306.23a3.4,3.4,0,1,1-3.288-3.567,3.43,3.43,0,0,1,3.288,3.567" transform="translate(-69.208 -95.309)" fill="#7195f5"/>
            <path id="Trazado_273290" data-name="Trazado 273290" d="M199.755,304.935a3.4,3.4,0,1,1-3.289-3.567,3.43,3.43,0,0,1,3.289,3.567" transform="translate(-60.763 -94.901)" fill="#7195f5"/>
            <path id="Trazado_273291" data-name="Trazado 273291" d="M206.444,307.41a3.727,3.727,0,0,0-.021.943,3.505,3.505,0,1,0,6.966-.746c0-.016-.005-.033-.008-.049a17.551,17.551,0,0,1-6.937-.147" transform="translate(-64.997 -96.804)" fill="#fff"/>
            <path id="Trazado_273292" data-name="Trazado 273292" d="M185.854,350.43a20.237,20.237,0,0,0,5.657,7.322,21.424,21.424,0,0,0,7.294,4.261,18.232,18.232,0,0,0,12.948-.921,22.7,22.7,0,0,0,9.72-8.762" transform="translate(-58.526 -110.352)" fill="none" stroke="#34304f" stroke-miterlimit="10" stroke-width="0.642"/>
            <path id="Trazado_273293" data-name="Trazado 273293" d="M118.426,158.811A45.191,45.191,0,1,0,80.376,214a45.713,45.713,0,0,0,4.515-.829,45.158,45.158,0,0,0,33.535-54.362" transform="translate(-9.227 -39.065)" fill="#aeaeff"/>
            <path id="Trazado_273294" data-name="Trazado 273294" d="M110.864,223.2c-6.18-3.926-13.222-6.639-18.333-12.113-.1-.11-.206-.219-.3-.329-.034-.041-.069-.075-.1-.116l-.034-.041c-.007-.014-.021-.021-.027-.034-.069-.069-.13-.144-.192-.219l-.034-.034c-.171-.206-.343-.411-.507-.617-.253-.315-.493-.644-.719-.966-.185-.247-.349-.493-.507-.747H90.1c-2.809-4.316-3.905-9.228-4.275-14.319-.027-.384-.055-.76-.069-1.144-.027-.356-.041-.712-.055-1.076v-.069c-1.281,0-2.562.007-3.843.014-2.281,0-4.563.014-6.844.027q-.452,0-.9.021-.164.658-.349,1.315c-.048.192-.1.384-.158.576-.137.5-.281.993-.438,1.487-.164.562-.343,1.117-.528,1.672s-.37,1.11-.562,1.665c-.308.877-.63,1.754-.973,2.617-.288.747-.582,1.48-.9,2.213a21.13,21.13,0,0,1-2.973,5c-.274.343-.548.671-.843,1s-.582.63-.891.939c-.288.295-.582.582-.891.856a.472.472,0,0,0-.089.075c-.63.569-1.288,1.1-1.973,1.61-.322.247-.658.48-.993.706-.069.048-.137.1-.206.137-.212.144-.418.281-.637.418-.185.123-.377.24-.575.363-.288.178-.582.349-.884.521a42.484,42.484,0,0,1-4.405,2.542c-1.178.589-2.322,1.247-3.48,1.877a29.391,29.391,0,0,0-3.891,2.535,45.336,45.336,0,0,0,24.739,13.325A44.822,44.822,0,0,0,86.1,235.2a45.709,45.709,0,0,0,4.515-.829,44.921,44.921,0,0,0,20.471-10.989c-.075-.062-.144-.123-.219-.185" transform="translate(-14.949 -60.265)" fill="#7195f5"/>
            <path id="Trazado_273295" data-name="Trazado 273295" d="M110.864,230.833c-6.18-3.926-13.222-6.639-18.333-12.113-.1-.11-.206-.219-.3-.329l-.1-.116h-.007l-.034-.041c-.007-.014-.021-.021-.027-.034-.069-.068-.13-.144-.192-.219l-.034-.034c-.171-.206-.343-.411-.507-.617-.253-.315-.493-.644-.719-.966-.178-.247-.343-.493-.507-.747H67.223c-.267.343-.548.671-.836,1s-.582.63-.891.939c-.288.295-.589.575-.891.856a.473.473,0,0,0-.089.075c-.63.569-1.288,1.1-1.973,1.61-.329.24-.658.48-.993.706-.069.048-.137.1-.206.137-.212.144-.418.281-.637.418-.185.123-.377.24-.575.363-.288.178-.582.349-.884.521a42.484,42.484,0,0,1-4.405,2.542c-1.178.589-2.322,1.247-3.48,1.877a29.391,29.391,0,0,0-3.891,2.535,45.336,45.336,0,0,0,24.739,13.325,44.823,44.823,0,0,0,13.887.315,45.7,45.7,0,0,0,4.515-.829,44.92,44.92,0,0,0,20.471-10.989c-.075-.062-.144-.123-.219-.185" transform="translate(-14.949 -67.898)" fill="#ffdcce"/>
            <path id="Trazado_273296" data-name="Trazado 273296" d="M97.469,244.01a44.822,44.822,0,0,1-13.887-.315l5.789-16.346-4.542-4.542c4.981.144,5.6-3.46,5.6-3.46,1.356,3.583,5.864,3.206,5.864,3.206l-4.72,4.8Z" transform="translate(-26.32 -69.073)" fill="#fac119"/>
            <path id="Trazado_273297" data-name="Trazado 273297" d="M97.469,244.01a44.822,44.822,0,0,1-13.887-.315l5.789-16.346-4.542-4.542c4.981.144,5.6-3.46,5.6-3.46,1.356,3.583,5.864,3.206,5.864,3.206l-4.72,4.8Z" transform="translate(-26.32 -69.073)" fill="#e56700"/>
            <path id="Trazado_273298" data-name="Trazado 273298" d="M94.305,198.229a8.583,8.583,0,0,0,2.825-4.561q-.083-1.139-.125-2.287-1.921,0-3.841.01-3.425.007-6.845.029c-.3,0-.6.01-.9.019-.574,2.263-1.261,4.5-2.038,6.712,3.238,2.19,7.609,2.644,10.925.078" transform="translate(-26.257 -60.266)" fill="#527cd8"/>
            <path id="Trazado_273299" data-name="Trazado 273299" d="M81.543,175.7c0,.137,0,.274,0,.411,0,.087,0,.178.01.266,0,.045,0,.091,0,.137,0,.029,0,.054.007.083.006.088.017.171.023.258l.011.075c.014.125.032.246.049.367s.048.262.075.388c.007.046.018.091.03.138a.545.545,0,0,0,.018.079c.027.109.053.217.084.326a7.949,7.949,0,0,0,.257.761c.023.058.051.121.075.18a8.441,8.441,0,0,0,.829,1.509c.073.1.145.2.217.3l.125.157c.069.084.137.169.21.249q.267.305.559.585c.09.085.183.171.277.251a7.671,7.671,0,0,0,.69.53c.179.124.368.24.56.353a7.416,7.416,0,0,0,1.051.506c.078.031.156.062.239.088.058.022.115.04.173.062.029.009.062.018.095.032a.649.649,0,0,0,.087.023c.095.031.19.058.284.081a7.651,7.651,0,0,0,1.75.256c.133,0,.266.006.4,0a7.931,7.931,0,0,0,4.049-1.207,8.258,8.258,0,0,0,3.863-6.737l.061-1.937.178-5.695v0l.057-1.783.077-2.459c0-.133.005-.27,0-.4,0-.066,0-.133,0-.2,0-.05-.005-.1-.009-.153s-.005-.108-.009-.158a.113.113,0,0,1,0-.037c0-.034-.007-.066-.01-.1s-.006-.079-.01-.116-.008-.046-.011-.071a1.064,1.064,0,0,0-.021-.166.785.785,0,0,0-.021-.142c0-.029-.008-.058-.011-.084-.019-.108-.04-.221-.063-.329-.011-.059-.026-.121-.038-.18s-.026-.112-.042-.167-.031-.108-.042-.166c0,0,0,0,0,0l-.046-.162c-.016-.055-.035-.109-.05-.163s-.036-.1-.055-.159a8.358,8.358,0,0,0-.43-1.015c-.068-.134-.139-.269-.215-.4-.028-.051-.056-.1-.088-.151-.08-.135-.169-.265-.253-.4a.468.468,0,0,1-.04-.055,3.248,3.248,0,0,0-.209-.287c-.045-.055-.089-.114-.133-.169,0,0-.008-.012-.012-.016a7.946,7.946,0,0,0-13.07.9,7.808,7.808,0,0,0-.56,1.091,8.232,8.232,0,0,0-.639,2.941Z" transform="translate(-25.677 -49.088)" fill="#7195f5"/>
            <path id="Trazado_273300" data-name="Trazado 273300" d="M108.648,178.3a3.4,3.4,0,1,1-3.288-3.567,3.43,3.43,0,0,1,3.288,3.567" transform="translate(-32.073 -55.023)" fill="#7195f5"/>
            <path id="Trazado_273301" data-name="Trazado 273301" d="M81.83,177a3.4,3.4,0,1,1-3.288-3.567A3.43,3.43,0,0,1,81.83,177" transform="translate(-23.628 -54.615)" fill="#7195f5"/>
            <path id="Trazado_273302" data-name="Trazado 273302" d="M88.519,179.478a3.726,3.726,0,0,0-.021.943,3.505,3.505,0,1,0,6.966-.746c0-.016-.005-.033-.008-.049a17.551,17.551,0,0,1-6.937-.147" transform="translate(-27.862 -56.518)" fill="#fff"/>
            <path id="Trazado_273303" data-name="Trazado 273303" d="M72.971,219.288a67.054,67.054,0,0,0,6.346,2.8,9.95,9.95,0,0,0,3.926.549,6.308,6.308,0,0,0,3.845-3.309,4.381,4.381,0,0,0,2.266,2.6,5.17,5.17,0,0,0,3.6.612A10.061,10.061,0,0,0,95.2,221.7l5.294-2.439" transform="translate(-22.979 -69.048)" fill="none" stroke="#34304f" stroke-linecap="round" stroke-linejoin="round" stroke-width="0.581"/>
            <path id="Trazado_273304" data-name="Trazado 273304" d="M82.285,153.984a4.856,4.856,0,0,0-2.579,1.376,4.639,4.639,0,0,0-.841,4.061,13.715,13.715,0,0,0,1.768,3.906,14.426,14.426,0,0,1,1.622,2.655v-8.83a8.99,8.99,0,0,0,6.794,3.5,8.428,8.428,0,0,0,6.648-3.219v8.838c.483-1.2,1.433-1.879,2.225-2.905a9.367,9.367,0,0,0,2.275-6.219c-.168-2.252-1.888-4.482-4.142-4.622a6.438,6.438,0,0,0,2.42-4.724,7.983,7.983,0,0,0-.094-2.344,10.233,10.233,0,0,0-4.165-6.506c.735.87.728,2.054,1.009,3.158a3.793,3.793,0,0,1-.555,3.251c-.92,1.171-2.549,1.485-4.037,1.559a21.218,21.218,0,0,1-3.259-.086,10.588,10.588,0,0,0-3.832-.045,4.329,4.329,0,0,0-3.093,3.545,3.354,3.354,0,0,0,1.837,3.652" transform="translate(-24.792 -43.756)" fill="#34304f"/>
            <path id="Trazado_273305" data-name="Trazado 273305" d="M345.472,209.842c-.089.089-.185.178-.281.26a44.51,44.51,0,0,1-6.858,5.207c-.007,0-.007.007-.014.007a42.15,42.15,0,0,1-4.419,2.4v.007a45.235,45.235,0,0,1-52.033-9.7h-.007c-.055-.055-.11-.116-.164-.178l-.014-.014a44.98,44.98,0,0,1-10.256-17.634c-.295-.952-.555-1.918-.788-2.9a45.166,45.166,0,1,1,85.37,7.6l-6.276,10.345a44.205,44.205,0,0,1-4.254,4.6Z" transform="translate(-84.839 -41.475)" fill="#aeaeff"/>
            <path id="Trazado_273306" data-name="Trazado 273306" d="M346.4,224.979a44.2,44.2,0,0,0,4.254-4.6l6.275-10.345a14.986,14.986,0,0,0-6.488-4.789,12.053,12.053,0,0,0-10.962.891,9.11,9.11,0,0,0-4.357-6.611c-2.85-1.829-6.734-1.815-9.187-4.145-1.843-1.747-2.425-4.4-2.884-6.913-.014-.089-.034-.185-.048-.274-.212-1.2-.425-2.37-.644-3.569v-.055c-.069-.411-.144-.829-.219-1.24-.082-.459-.164-.925-.247-1.384-.123-.719-.254-1.432-.377-2.151a11.126,11.126,0,0,1-4.33,2.919c-.212.068-.418.137-.617.2A53.535,53.535,0,0,1,308.3,185.2c-.521.089-1.062.164-1.624.233a9.294,9.294,0,0,1,.021,1.747,9,9,0,0,1-.521,2.446v.007a7.033,7.033,0,0,1-2.494,3.378c-3.556,2.507-8.845.918-12.455,3.343-2.391,1.61-3.439,4.665-3.508,7.543-4.96-2.268-10.742-1.446-15.367,1.439a44.981,44.981,0,0,0,10.256,17.634l.014.014a2.029,2.029,0,0,0,.178.164v.007c.226.219.459.438.692.651a38.9,38.9,0,0,0,8.55,6.33c5.632,2.871,12.133,3.419,18.45,3.563a112.685,112.685,0,0,0,20.046-1.124c1.644-.26,3.282-.569,4.9-.966a34.838,34.838,0,0,0,3.809-1.151c.007,0,.007-.007.014-.007a44.506,44.506,0,0,0,6.858-5.207c.1-.082.192-.171.281-.26Z" transform="translate(-85.764 -56.619)" fill="#34304f"/>
            <path id="Trazado_273307" data-name="Trazado 273307" d="M351.2,231.045c-.089.089-.185.178-.281.26a44.507,44.507,0,0,1-6.858,5.207c-.007,0-.007.007-.014.007a42.15,42.15,0,0,1-4.419,2.4v.007a45.235,45.235,0,0,1-52.033-9.7l.007-.007v-.007a29.466,29.466,0,0,1,3.884-2.521c1.151-.637,2.3-1.295,3.48-1.877a44.528,44.528,0,0,0,4.405-2.542c.308-.178.61-.356.911-.541.2-.116.4-.24.589-.377a.724.724,0,0,0,.137-.082c.206-.13.411-.274.617-.411.3-.206.6-.411.891-.63.384-.281.754-.569,1.124-.863a22.416,22.416,0,0,0,6.687-8.721c.308-.733.6-1.473.891-2.213.343-.87.665-1.74.973-2.624h.007c.164-.473.322-.939.48-1.418.055-.164.11-.322.158-.48.158-.48.308-.952.452-1.439s.295-.987.432-1.48c.185-.63.349-1.261.514-1.9.3-.007.6-.014.9-.014q3.422-.021,6.844-.034c1.281,0,2.562-.007,3.843-.007v.069c.027.747.069,1.48.123,2.22.466,6.351,2.048,12.428,6.707,17.422.5.534,1.021,1.048,1.562,1.535a31.479,31.479,0,0,0,2.85,2.3q.524.38,1.069.74c.343.226.685.459,1.034.678s.713.445,1.069.671c.349.206.7.418,1.048.623.836.493,1.685.973,2.535,1.446.8.445,1.61.891,2.412,1.336.4.226.8.445,1.206.671s.8.452,1.2.685.788.466,1.178.7.788.48,1.172.726c.075.062.144.123.219.185" transform="translate(-90.564 -62.677)" fill="#7195f5"/>
            <path id="Trazado_273308" data-name="Trazado 273308" d="M334.418,205.885a8.579,8.579,0,0,0,2.825-4.561q-.083-1.139-.126-2.287-1.92,0-3.841.01c-2.283,0-4.561.014-6.844.029-.3,0-.6.01-.9.019-.574,2.263-1.26,4.5-2.038,6.712,3.239,2.19,7.609,2.644,10.926.078" transform="translate(-101.869 -62.677)" fill="#527cd8"/>
            <g id="Grupo_255595" data-name="Grupo 255595" transform="translate(197.028 156.686)" opacity="0.74">
              <g id="Grupo_255594" data-name="Grupo 255594">
                <g id="Grupo_255593" data-name="Grupo 255593" clip-path="url(#clip-path-20)">
                  <path id="Trazado_273309" data-name="Trazado 273309" d="M351.2,240.381l-.226-.185q-.586-.37-1.172-.719c-.391-.233-.781-.466-1.178-.7s-.795-.459-1.2-.685-.8-.445-1.206-.671c-.8-.445-1.61-.891-2.412-1.336-.849-.473-1.7-.952-2.535-1.446-.349-.206-.7-.418-1.048-.623-.356-.226-.712-.445-1.069-.671s-.692-.452-1.034-.678c-.356-.247-.712-.493-1.062-.747a31.476,31.476,0,0,1-2.85-2.3.007.007,0,0,1-.007.007,18.972,18.972,0,0,1-9.838,8.344c-8.66,3.227-16.922-1.816-20.731-9.263-.37.295-.74.582-1.124.863-.295.219-.589.425-.891.63-.206.137-.411.281-.617.411a.725.725,0,0,1-.137.082c-.192.13-.39.253-.589.377-.3.185-.6.363-.911.541a44.528,44.528,0,0,1-4.405,2.542c-1.185.582-2.329,1.24-3.48,1.877a29.465,29.465,0,0,0-3.884,2.521v.007l-.007.007a45.235,45.235,0,0,0,52.033,9.7v-.007a42.15,42.15,0,0,0,4.419-2.4c.007,0,.007-.007.014-.007a44.507,44.507,0,0,0,6.858-5.207c.1-.082.192-.171.281-.26Z" transform="translate(-287.592 -228.707)" fill="#f46a03"/>
                </g>
              </g>
            </g>
            <path id="Trazado_273310" data-name="Trazado 273310" d="M351.2,240.381l-.226-.185q-.586-.37-1.172-.719c-.391-.233-.781-.466-1.178-.7s-.795-.459-1.2-.685-.8-.445-1.206-.671c-.8-.445-1.61-.891-2.412-1.336-.849-.473-1.7-.952-2.535-1.446-.349-.206-.7-.418-1.048-.623-.356-.226-.712-.445-1.069-.671s-.692-.452-1.034-.678c-.356-.247-.712-.493-1.062-.747a31.476,31.476,0,0,1-2.85-2.3.007.007,0,0,1-.007.007,18.972,18.972,0,0,1-9.838,8.344c-8.66,3.227-16.922-1.816-20.731-9.263-.37.295-.74.582-1.124.863-.295.219-.589.425-.891.63-.206.137-.411.281-.617.411a.725.725,0,0,1-.137.082c-.192.13-.39.253-.589.377-.3.185-.6.363-.911.541a44.528,44.528,0,0,1-4.405,2.542c-1.185.582-2.329,1.24-3.48,1.877a29.465,29.465,0,0,0-3.884,2.521v.007l-.007.007a45.235,45.235,0,0,0,52.033,9.7v-.007a42.15,42.15,0,0,0,4.419-2.4c.007,0,.007-.007.014-.007a44.507,44.507,0,0,0,6.858-5.207c.1-.082.192-.171.281-.26Z" transform="translate(-90.564 -72.021)" fill="#fac119"/>
            <g id="Grupo_255598" data-name="Grupo 255598" transform="translate(197.028 156.686)" opacity="0.6">
              <g id="Grupo_255597" data-name="Grupo 255597">
                <g id="Grupo_255596" data-name="Grupo 255596" clip-path="url(#clip-path-20)">
                  <path id="Trazado_273311" data-name="Trazado 273311" d="M351.2,240.381l-.226-.185q-.586-.37-1.172-.719c-.391-.233-.781-.466-1.178-.7s-.795-.459-1.2-.685-.8-.445-1.206-.671c-.8-.445-1.61-.891-2.412-1.336-.849-.473-1.7-.952-2.535-1.446-.349-.206-.7-.418-1.048-.623-.356-.226-.712-.445-1.069-.671s-.692-.452-1.034-.678c-.356-.247-.712-.493-1.062-.747a31.476,31.476,0,0,1-2.85-2.3.007.007,0,0,1-.007.007,18.972,18.972,0,0,1-9.838,8.344c-8.66,3.227-16.922-1.816-20.731-9.263-.37.295-.74.582-1.124.863-.295.219-.589.425-.891.63-.206.137-.411.281-.617.411a.725.725,0,0,1-.137.082c-.192.13-.39.253-.589.377-.3.185-.6.363-.911.541a44.528,44.528,0,0,1-4.405,2.542c-1.185.582-2.329,1.24-3.48,1.877a29.465,29.465,0,0,0-3.884,2.521v.007l-.007.007a45.235,45.235,0,0,0,52.033,9.7v-.007a42.15,42.15,0,0,0,4.419-2.4c.007,0,.007-.007.014-.007a44.507,44.507,0,0,0,6.858-5.207c.1-.082.192-.171.281-.26Z" transform="translate(-287.592 -228.707)" fill="#e56700"/>
                </g>
              </g>
            </g>
            <path id="Trazado_273312" data-name="Trazado 273312" d="M307.123,231.392a21.556,21.556,0,0,0,18.559,11.458c7.639.13,14.392-4.675,18.129-11.051" transform="translate(-96.714 -72.866)" fill="none" stroke="#34304f" stroke-miterlimit="10" stroke-width="0.642"/>
            <path id="Trazado_273313" data-name="Trazado 273313" d="M374.832,245.249a44.506,44.506,0,0,1-6.858,5.207c-.007,0-.007.007-.014.007a42.141,42.141,0,0,1-4.419,2.4,13.094,13.094,0,0,1,.61-1.247,23.268,23.268,0,0,1,7.707-8.3,10.138,10.138,0,0,1,2.973,1.932" transform="translate(-114.48 -76.621)" fill="#fac119"/>
            <g id="Grupo_255601" data-name="Grupo 255601" transform="translate(249.062 166.696)" opacity="0.6">
              <g id="Grupo_255600" data-name="Grupo 255600">
                <g id="Grupo_255599" data-name="Grupo 255599" clip-path="url(#clip-path-22)">
                  <path id="Trazado_273314" data-name="Trazado 273314" d="M374.832,245.249a44.506,44.506,0,0,1-6.858,5.207c-.007,0-.007.007-.014.007a42.141,42.141,0,0,1-4.419,2.4,13.094,13.094,0,0,1,.61-1.247,23.268,23.268,0,0,1,7.707-8.3,10.138,10.138,0,0,1,2.973,1.932" transform="translate(-363.542 -243.317)" fill="#e56700"/>
                </g>
              </g>
            </g>
            <path id="Trazado_273315" data-name="Trazado 273315" d="M321.655,183.36c0,.137,0,.274,0,.411,0,.087,0,.178.01.266,0,.045,0,.091.005.137,0,.029,0,.054.006.083.006.088.017.171.023.258l.011.075c.014.125.032.245.049.367s.048.262.075.388c.007.045.018.091.03.138a.549.549,0,0,0,.018.079c.027.109.053.217.084.326.073.259.158.51.257.761.023.058.051.121.075.18a8.441,8.441,0,0,0,.829,1.509c.073.1.145.2.217.3l.125.156c.069.085.137.169.21.25q.267.3.56.585c.089.085.183.171.276.251a7.77,7.77,0,0,0,.69.53c.179.124.368.24.56.353a7.488,7.488,0,0,0,1.051.506c.078.031.156.062.239.088.058.022.115.04.173.062.029.009.062.018.095.032a.674.674,0,0,0,.087.023c.095.031.19.058.284.081a7.651,7.651,0,0,0,1.75.256c.133,0,.266.006.4,0a7.931,7.931,0,0,0,4.049-1.207,8.259,8.259,0,0,0,3.863-6.737l.061-1.937.178-5.695v0l.057-1.783.077-2.46c0-.133.006-.27,0-.4,0-.066,0-.133,0-.2,0-.05-.006-.1-.009-.153s-.005-.108-.009-.158a.136.136,0,0,1,0-.037c0-.034-.007-.067-.01-.1s-.006-.079-.01-.116-.007-.046-.011-.071a1.068,1.068,0,0,0-.021-.166.787.787,0,0,0-.021-.142c0-.029-.008-.058-.011-.084-.018-.108-.04-.221-.063-.329-.011-.059-.026-.121-.038-.179s-.026-.112-.042-.167-.031-.108-.042-.166c0,0,0,0,0,0l-.046-.162c-.016-.055-.035-.109-.05-.163s-.036-.1-.055-.159a8.362,8.362,0,0,0-.43-1.015c-.068-.134-.139-.269-.215-.4-.028-.051-.056-.1-.088-.151-.08-.135-.169-.266-.253-.4a.531.531,0,0,1-.04-.055,3.24,3.24,0,0,0-.209-.287c-.044-.055-.089-.114-.133-.169,0,0-.008-.012-.012-.016a7.946,7.946,0,0,0-13.07.9,7.732,7.732,0,0,0-.56,1.091,8.218,8.218,0,0,0-.64,2.941Z" transform="translate(-101.29 -51.499)" fill="#7195f5"/>
            <path id="Trazado_273316" data-name="Trazado 273316" d="M348.761,185.954a3.4,3.4,0,1,1-3.288-3.567,3.43,3.43,0,0,1,3.288,3.567" transform="translate(-107.685 -57.433)" fill="#7195f5"/>
            <path id="Trazado_273317" data-name="Trazado 273317" d="M321.943,184.659a3.4,3.4,0,1,1-3.288-3.567,3.43,3.43,0,0,1,3.288,3.567" transform="translate(-99.24 -57.026)" fill="#7195f5"/>
            <path id="Trazado_273318" data-name="Trazado 273318" d="M328.632,187.134a3.726,3.726,0,0,0-.021.943,3.505,3.505,0,1,0,6.966-.746c0-.016-.005-.033-.008-.049a17.551,17.551,0,0,1-6.937-.147" transform="translate(-103.474 -58.929)" fill="#fff"/>
            <path id="Trazado_273319" data-name="Trazado 273319" d="M320.88,174.522c2.308-1.911,3.4-4.607,4.385-7.631-.559,1.318.038,3.14.485,4.343a8.247,8.247,0,0,0,2.345,3.517,11.42,11.42,0,0,0,5.129,2.345,8.068,8.068,0,0,0,5.936-1.392c1.172-1.026,2.711-3.224,1.886-5.7.093,1.6-1.108,2.22-2.316,1.452-1.381-.877-1-2.924-1.069-4.559-.138-3.428-3.095-6.272-6.4-7.175a10.467,10.467,0,0,0-11.177,3.942c-2.364,3.491-2.31,8.012.8,10.859" transform="translate(-100.27 -50.185)" fill="#34304f"/>
            <path id="Trazado_273320" data-name="Trazado 273320" d="M41.808,194.15l1.109,2.028,2.028,1.109L42.917,198.4l-1.109,2.028L40.7,198.4l-2.028-1.109,2.028-1.109Z" transform="translate(-12.178 -61.139)" fill="#fff8f3"/>
            <path id="Trazado_273321" data-name="Trazado 273321" d="M45.705,163.224l.457.836.836.458-.836.457-.457.836-.458-.836-.836-.457.836-.458Z" transform="translate(-13.985 -51.4)" fill="#fff8f3"/>
            <path id="Trazado_273322" data-name="Trazado 273322" d="M62.612,147.777l.784,1.434L64.83,150l-1.434.784-.784,1.434-.784-1.434L60.393,150l1.434-.784Z" transform="translate(-19.018 -46.535)" fill="#fff8f3"/>
            <path id="Trazado_273323" data-name="Trazado 273323" d="M139.605,163.526l.7,1.283,1.283.7-1.283.7-.7,1.283-.7-1.283-1.283-.7,1.283-.7Z" transform="translate(-43.337 -51.495)" fill="#fff8f3"/>
            <path id="Trazado_273324" data-name="Trazado 273324" d="M140.429,188.693l.566,1.034,1.034.566-1.034.565-.566,1.034-.565-1.034-1.035-.565,1.035-.566Z" transform="translate(-43.718 -59.42)" fill="#fff8f3"/>
            <path id="Trazado_273325" data-name="Trazado 273325" d="M122.053,153.985l.7,1.283,1.283.7-1.283.7-.7,1.283-.7-1.283-1.283-.7,1.283-.7Z" transform="translate(-37.81 -48.49)" fill="#fff8f3"/>
            <path id="Trazado_273326" data-name="Trazado 273326" d="M304.479,158.759l1.131,2.068,2.068,1.131-2.068,1.13-1.131,2.068-1.131-2.068-2.068-1.13,2.068-1.131Z" transform="translate(-94.874 -49.994)" fill="#fff8f3"/>
            <path id="Trazado_273327" data-name="Trazado 273327" d="M281.444,190.666l.915,1.672,1.672.915-1.672.915-.915,1.672-.915-1.672-1.672-.915,1.672-.915Z" transform="translate(-87.813 -60.041)" fill="#fff8f3"/>
            <path id="Trazado_273328" data-name="Trazado 273328" d="M362.41,155.905l.7,1.283,1.283.7-1.283.7-.7,1.283-.7-1.283-1.283-.7,1.283-.7Z" transform="translate(-113.499 -49.095)" fill="#fff8f3"/>
            <path id="Trazado_273329" data-name="Trazado 273329" d="M373.546,176.39l.566,1.034,1.034.566-1.034.565-.566,1.035-.566-1.035-1.034-.565,1.034-.566Z" transform="translate(-117.127 -55.546)" fill="#fff8f3"/>
            <path id="Trazado_273330" data-name="Trazado 273330" d="M294.824,183.1l.351.641.641.351-.641.351-.351.641-.351-.641-.641-.351.641-.351Z" transform="translate(-92.529 -57.66)" fill="#fff8f3"/>
            <path id="Trazado_273331" data-name="Trazado 273331" d="M176.851,279.205l.444.811.811.444-.811.443-.444.811-.444-.811-.81-.443.81-.444Z" transform="translate(-55.296 -87.923)" fill="#fff8f3"/>
            <path id="Trazado_273332" data-name="Trazado 273332" d="M161.876,324.809l1,1.836,1.836,1-1.836,1-1,1.837-1-1.837-1.836-1,1.836-1Z" transform="translate(-50.081 -102.283)" fill="#fff8f3"/>
            <path id="Trazado_273333" data-name="Trazado 273333" d="M251.884,330.637l1,1.836,1.836,1-1.836,1-1,1.837-1-1.837-1.836-1,1.836-1Z" transform="translate(-78.425 -104.119)" fill="#fff8f3"/>
            <path id="Trazado_273334" data-name="Trazado 273334" d="M264.188,304.735l1,1.836,1.836,1-1.836,1-1,1.837-1-1.837-1.836-1,1.836-1Z" transform="translate(-82.299 -95.962)" fill="#fff8f3"/>
          </g>
        </g>
      </g>
    </g>
  </g>
</svg>
